<?xml version="1.0"  encoding="UTF-8" standalone="no"?>
<svg version="1.1" xmlns="http://www.w3.org/2000/svg" xmlns:xlink="http://www.w3.org/1999/xlink" width="637.0000" height="383.0000">
<g transform="translate(-0.0000, -0.0000)">
<g transform="matrix(0.0625 0.0000 0.0000 0.0625 0.0000 0.0000)">
<path d="M 0.0000,0.0000 L 0.0000,6128.0000 L 10192.0000,6128.0000 L 10192.0000,0.0000 L 0.0000,0.0000 Z" stroke-width="1px" stroke="#FFFFFF"  fill="#FFFFFF" />
</g>
<g transform="matrix(1.0000 0.0000 0.0000 1.0000 0.0000 0.0000)">
<path d="M 0.0000,0.0000 L 0.0000,383.0000 L 637.0000,383.0000 L 637.0000,0.0000 L 0.0000,0.0000 Z M 80.0000,40.0000 L 80.0000,323.0000 L 609.0000,323.0000 L 609.0000,40.0000 L 80.0000,40.0000 Z " fill="none" stroke="none" />
<defs><clipPath id="clip-41"><path d="M 0.0000,0.0000 L 0.0000,383.0000 L 637.0000,383.0000 L 637.0000,0.0000 L 0.0000,0.0000 Z M 80.0000,40.0000 L 80.0000,323.0000 L 609.0000,323.0000 L 609.0000,40.0000 L 80.0000,40.0000 Z Z" /></clipPath></defs>
</g>
<g transform="matrix(0.0625 0.0000 0.0000 0.0625 0.0000 0.0000)">
<path  clip-path="url(#clip-41)" d="M 0.0000,0.0000 L 0.0000,6128.0000 L 10192.0000,6128.0000 L 10192.0000,0.0000 L 0.0000,0.0000 Z" stroke-width="1px" stroke="#FFFFFF"  fill="#FFFFFF" />
</g>
<g transform="matrix(1.0000 0.0000 0.0000 1.0000 0.0000 0.0000)">
<text font-family="Arial" fill="#000000" style ="white-space:pre;" font-weight="700" text-anchor="start" x="58.0000" y="25.0000" font-size="16.0000" ><![CDATA[AQUA4_Human_Blank-assay - ADSTGTLVITDPTR, Charge 2 (heavy)]]></text>
<path d="M 79.0000,39.0000 L 79.0000,322.0000 L 608.0000,322.0000 L 608.0000,39.0000 L 79.0000,39.0000 Z" stroke-width="1px" stroke="#FFFFFF"  fill="#FFFFFF" />
</g>
<g transform="matrix(0.0625 0.0000 0.0000 0.0625 0.0000 0.0000)">
<path d="M 1277.0000,5154.0000 L 1277.0000,5194.0000 " stroke="#000000" stroke-width="16.0000"  stroke-linecap="butt"  stroke-linejoin="miter"  stroke-miterlimit="10.0000" fill="none" />
</g>
<g transform="matrix(1.0000 0.0000 0.0000 1.0000 0.0000 0.0000)">
</g>
<g transform="matrix(0.0625 0.0000 0.0000 0.0625 0.0000 0.0000)">
<path d="M 1277.0000,5154.0000 L 1277.0000,5114.0000 " stroke="#000000" stroke-width="16.0000"  stroke-linecap="butt"  stroke-linejoin="miter"  stroke-miterlimit="10.0000" fill="none" />
</g>
<g transform="matrix(1.0000 0.0000 0.0000 1.0000 0.0000 0.0000)">
</g>
<g transform="matrix(0.0625 0.0000 0.0000 0.0625 0.0000 0.0000)">
<path d="M 1550.0000,5154.0000 L 1550.0000,5194.0000 " stroke="#000000" stroke-width="16.0000"  stroke-linecap="butt"  stroke-linejoin="miter"  stroke-miterlimit="10.0000" fill="none" />
</g>
<g transform="matrix(1.0000 0.0000 0.0000 1.0000 0.0000 0.0000)">
</g>
<g transform="matrix(0.0625 0.0000 0.0000 0.0625 0.0000 0.0000)">
<path d="M 1550.0000,5154.0000 L 1550.0000,5114.0000 " stroke="#000000" stroke-width="16.0000"  stroke-linecap="butt"  stroke-linejoin="miter"  stroke-miterlimit="10.0000" fill="none" />
</g>
<g transform="matrix(1.0000 0.0000 0.0000 1.0000 0.0000 0.0000)">
</g>
<g transform="matrix(0.0625 0.0000 0.0000 0.0625 0.0000 0.0000)">
<path d="M 1823.0000,5154.0000 L 1823.0000,5194.0000 " stroke="#000000" stroke-width="16.0000"  stroke-linecap="butt"  stroke-linejoin="miter"  stroke-miterlimit="10.0000" fill="none" />
</g>
<g transform="matrix(1.0000 0.0000 0.0000 1.0000 0.0000 0.0000)">
</g>
<g transform="matrix(0.0625 0.0000 0.0000 0.0625 0.0000 0.0000)">
<path d="M 1823.0000,5154.0000 L 1823.0000,5114.0000 " stroke="#000000" stroke-width="16.0000"  stroke-linecap="butt"  stroke-linejoin="miter"  stroke-miterlimit="10.0000" fill="none" />
</g>
<g transform="matrix(1.0000 0.0000 0.0000 1.0000 0.0000 0.0000)">
</g>
<g transform="matrix(0.0625 0.0000 0.0000 0.0625 0.0000 0.0000)">
<path d="M 2369.0000,5154.0000 L 2369.0000,5194.0000 " stroke="#000000" stroke-width="16.0000"  stroke-linecap="butt"  stroke-linejoin="miter"  stroke-miterlimit="10.0000" fill="none" />
</g>
<g transform="matrix(1.0000 0.0000 0.0000 1.0000 0.0000 0.0000)">
</g>
<g transform="matrix(0.0625 0.0000 0.0000 0.0625 0.0000 0.0000)">
<path d="M 2369.0000,5154.0000 L 2369.0000,5114.0000 " stroke="#000000" stroke-width="16.0000"  stroke-linecap="butt"  stroke-linejoin="miter"  stroke-miterlimit="10.0000" fill="none" />
</g>
<g transform="matrix(1.0000 0.0000 0.0000 1.0000 0.0000 0.0000)">
</g>
<g transform="matrix(0.0625 0.0000 0.0000 0.0625 0.0000 0.0000)">
<path d="M 2642.0000,5154.0000 L 2642.0000,5194.0000 " stroke="#000000" stroke-width="16.0000"  stroke-linecap="butt"  stroke-linejoin="miter"  stroke-miterlimit="10.0000" fill="none" />
</g>
<g transform="matrix(1.0000 0.0000 0.0000 1.0000 0.0000 0.0000)">
</g>
<g transform="matrix(0.0625 0.0000 0.0000 0.0625 0.0000 0.0000)">
<path d="M 2642.0000,5154.0000 L 2642.0000,5114.0000 " stroke="#000000" stroke-width="16.0000"  stroke-linecap="butt"  stroke-linejoin="miter"  stroke-miterlimit="10.0000" fill="none" />
</g>
<g transform="matrix(1.0000 0.0000 0.0000 1.0000 0.0000 0.0000)">
</g>
<g transform="matrix(0.0625 0.0000 0.0000 0.0625 0.0000 0.0000)">
<path d="M 2915.0000,5154.0000 L 2915.0000,5194.0000 " stroke="#000000" stroke-width="16.0000"  stroke-linecap="butt"  stroke-linejoin="miter"  stroke-miterlimit="10.0000" fill="none" />
</g>
<g transform="matrix(1.0000 0.0000 0.0000 1.0000 0.0000 0.0000)">
</g>
<g transform="matrix(0.0625 0.0000 0.0000 0.0625 0.0000 0.0000)">
<path d="M 2915.0000,5154.0000 L 2915.0000,5114.0000 " stroke="#000000" stroke-width="16.0000"  stroke-linecap="butt"  stroke-linejoin="miter"  stroke-miterlimit="10.0000" fill="none" />
</g>
<g transform="matrix(1.0000 0.0000 0.0000 1.0000 0.0000 0.0000)">
</g>
<g transform="matrix(0.0625 0.0000 0.0000 0.0625 0.0000 0.0000)">
<path d="M 3461.0000,5154.0000 L 3461.0000,5194.0000 " stroke="#000000" stroke-width="16.0000"  stroke-linecap="butt"  stroke-linejoin="miter"  stroke-miterlimit="10.0000" fill="none" />
</g>
<g transform="matrix(1.0000 0.0000 0.0000 1.0000 0.0000 0.0000)">
</g>
<g transform="matrix(0.0625 0.0000 0.0000 0.0625 0.0000 0.0000)">
<path d="M 3461.0000,5154.0000 L 3461.0000,5114.0000 " stroke="#000000" stroke-width="16.0000"  stroke-linecap="butt"  stroke-linejoin="miter"  stroke-miterlimit="10.0000" fill="none" />
</g>
<g transform="matrix(1.0000 0.0000 0.0000 1.0000 0.0000 0.0000)">
</g>
<g transform="matrix(0.0625 0.0000 0.0000 0.0625 0.0000 0.0000)">
<path d="M 3734.0000,5154.0000 L 3734.0000,5194.0000 " stroke="#000000" stroke-width="16.0000"  stroke-linecap="butt"  stroke-linejoin="miter"  stroke-miterlimit="10.0000" fill="none" />
</g>
<g transform="matrix(1.0000 0.0000 0.0000 1.0000 0.0000 0.0000)">
</g>
<g transform="matrix(0.0625 0.0000 0.0000 0.0625 0.0000 0.0000)">
<path d="M 3734.0000,5154.0000 L 3734.0000,5114.0000 " stroke="#000000" stroke-width="16.0000"  stroke-linecap="butt"  stroke-linejoin="miter"  stroke-miterlimit="10.0000" fill="none" />
</g>
<g transform="matrix(1.0000 0.0000 0.0000 1.0000 0.0000 0.0000)">
</g>
<g transform="matrix(0.0625 0.0000 0.0000 0.0625 0.0000 0.0000)">
<path d="M 4007.0000,5154.0000 L 4007.0000,5194.0000 " stroke="#000000" stroke-width="16.0000"  stroke-linecap="butt"  stroke-linejoin="miter"  stroke-miterlimit="10.0000" fill="none" />
</g>
<g transform="matrix(1.0000 0.0000 0.0000 1.0000 0.0000 0.0000)">
</g>
<g transform="matrix(0.0625 0.0000 0.0000 0.0625 0.0000 0.0000)">
<path d="M 4007.0000,5154.0000 L 4007.0000,5114.0000 " stroke="#000000" stroke-width="16.0000"  stroke-linecap="butt"  stroke-linejoin="miter"  stroke-miterlimit="10.0000" fill="none" />
</g>
<g transform="matrix(1.0000 0.0000 0.0000 1.0000 0.0000 0.0000)">
</g>
<g transform="matrix(0.0625 0.0000 0.0000 0.0625 0.0000 0.0000)">
<path d="M 4552.0000,5154.0000 L 4552.0000,5194.0000 " stroke="#000000" stroke-width="16.0000"  stroke-linecap="butt"  stroke-linejoin="miter"  stroke-miterlimit="10.0000" fill="none" />
</g>
<g transform="matrix(1.0000 0.0000 0.0000 1.0000 0.0000 0.0000)">
</g>
<g transform="matrix(0.0625 0.0000 0.0000 0.0625 0.0000 0.0000)">
<path d="M 4552.0000,5154.0000 L 4552.0000,5114.0000 " stroke="#000000" stroke-width="16.0000"  stroke-linecap="butt"  stroke-linejoin="miter"  stroke-miterlimit="10.0000" fill="none" />
</g>
<g transform="matrix(1.0000 0.0000 0.0000 1.0000 0.0000 0.0000)">
</g>
<g transform="matrix(0.0625 0.0000 0.0000 0.0625 0.0000 0.0000)">
<path d="M 4825.0000,5154.0000 L 4825.0000,5194.0000 " stroke="#000000" stroke-width="16.0000"  stroke-linecap="butt"  stroke-linejoin="miter"  stroke-miterlimit="10.0000" fill="none" />
</g>
<g transform="matrix(1.0000 0.0000 0.0000 1.0000 0.0000 0.0000)">
</g>
<g transform="matrix(0.0625 0.0000 0.0000 0.0625 0.0000 0.0000)">
<path d="M 4825.0000,5154.0000 L 4825.0000,5114.0000 " stroke="#000000" stroke-width="16.0000"  stroke-linecap="butt"  stroke-linejoin="miter"  stroke-miterlimit="10.0000" fill="none" />
</g>
<g transform="matrix(1.0000 0.0000 0.0000 1.0000 0.0000 0.0000)">
</g>
<g transform="matrix(0.0625 0.0000 0.0000 0.0625 0.0000 0.0000)">
<path d="M 5098.0000,5154.0000 L 5098.0000,5194.0000 " stroke="#000000" stroke-width="16.0000"  stroke-linecap="butt"  stroke-linejoin="miter"  stroke-miterlimit="10.0000" fill="none" />
</g>
<g transform="matrix(1.0000 0.0000 0.0000 1.0000 0.0000 0.0000)">
</g>
<g transform="matrix(0.0625 0.0000 0.0000 0.0625 0.0000 0.0000)">
<path d="M 5098.0000,5154.0000 L 5098.0000,5114.0000 " stroke="#000000" stroke-width="16.0000"  stroke-linecap="butt"  stroke-linejoin="miter"  stroke-miterlimit="10.0000" fill="none" />
</g>
<g transform="matrix(1.0000 0.0000 0.0000 1.0000 0.0000 0.0000)">
</g>
<g transform="matrix(0.0625 0.0000 0.0000 0.0625 0.0000 0.0000)">
<path d="M 5644.0000,5154.0000 L 5644.0000,5194.0000 " stroke="#000000" stroke-width="16.0000"  stroke-linecap="butt"  stroke-linejoin="miter"  stroke-miterlimit="10.0000" fill="none" />
</g>
<g transform="matrix(1.0000 0.0000 0.0000 1.0000 0.0000 0.0000)">
</g>
<g transform="matrix(0.0625 0.0000 0.0000 0.0625 0.0000 0.0000)">
<path d="M 5644.0000,5154.0000 L 5644.0000,5114.0000 " stroke="#000000" stroke-width="16.0000"  stroke-linecap="butt"  stroke-linejoin="miter"  stroke-miterlimit="10.0000" fill="none" />
</g>
<g transform="matrix(1.0000 0.0000 0.0000 1.0000 0.0000 0.0000)">
</g>
<g transform="matrix(0.0625 0.0000 0.0000 0.0625 0.0000 0.0000)">
<path d="M 5917.0000,5154.0000 L 5917.0000,5194.0000 " stroke="#000000" stroke-width="16.0000"  stroke-linecap="butt"  stroke-linejoin="miter"  stroke-miterlimit="10.0000" fill="none" />
</g>
<g transform="matrix(1.0000 0.0000 0.0000 1.0000 0.0000 0.0000)">
</g>
<g transform="matrix(0.0625 0.0000 0.0000 0.0625 0.0000 0.0000)">
<path d="M 5917.0000,5154.0000 L 5917.0000,5114.0000 " stroke="#000000" stroke-width="16.0000"  stroke-linecap="butt"  stroke-linejoin="miter"  stroke-miterlimit="10.0000" fill="none" />
</g>
<g transform="matrix(1.0000 0.0000 0.0000 1.0000 0.0000 0.0000)">
</g>
<g transform="matrix(0.0625 0.0000 0.0000 0.0625 0.0000 0.0000)">
<path d="M 6190.0000,5154.0000 L 6190.0000,5194.0000 " stroke="#000000" stroke-width="16.0000"  stroke-linecap="butt"  stroke-linejoin="miter"  stroke-miterlimit="10.0000" fill="none" />
</g>
<g transform="matrix(1.0000 0.0000 0.0000 1.0000 0.0000 0.0000)">
</g>
<g transform="matrix(0.0625 0.0000 0.0000 0.0625 0.0000 0.0000)">
<path d="M 6190.0000,5154.0000 L 6190.0000,5114.0000 " stroke="#000000" stroke-width="16.0000"  stroke-linecap="butt"  stroke-linejoin="miter"  stroke-miterlimit="10.0000" fill="none" />
</g>
<g transform="matrix(1.0000 0.0000 0.0000 1.0000 0.0000 0.0000)">
</g>
<g transform="matrix(0.0625 0.0000 0.0000 0.0625 0.0000 0.0000)">
<path d="M 6736.0000,5154.0000 L 6736.0000,5194.0000 " stroke="#000000" stroke-width="16.0000"  stroke-linecap="butt"  stroke-linejoin="miter"  stroke-miterlimit="10.0000" fill="none" />
</g>
<g transform="matrix(1.0000 0.0000 0.0000 1.0000 0.0000 0.0000)">
</g>
<g transform="matrix(0.0625 0.0000 0.0000 0.0625 0.0000 0.0000)">
<path d="M 6736.0000,5154.0000 L 6736.0000,5114.0000 " stroke="#000000" stroke-width="16.0000"  stroke-linecap="butt"  stroke-linejoin="miter"  stroke-miterlimit="10.0000" fill="none" />
</g>
<g transform="matrix(1.0000 0.0000 0.0000 1.0000 0.0000 0.0000)">
</g>
<g transform="matrix(0.0625 0.0000 0.0000 0.0625 0.0000 0.0000)">
<path d="M 7009.0000,5154.0000 L 7009.0000,5194.0000 " stroke="#000000" stroke-width="16.0000"  stroke-linecap="butt"  stroke-linejoin="miter"  stroke-miterlimit="10.0000" fill="none" />
</g>
<g transform="matrix(1.0000 0.0000 0.0000 1.0000 0.0000 0.0000)">
</g>
<g transform="matrix(0.0625 0.0000 0.0000 0.0625 0.0000 0.0000)">
<path d="M 7009.0000,5154.0000 L 7009.0000,5114.0000 " stroke="#000000" stroke-width="16.0000"  stroke-linecap="butt"  stroke-linejoin="miter"  stroke-miterlimit="10.0000" fill="none" />
</g>
<g transform="matrix(1.0000 0.0000 0.0000 1.0000 0.0000 0.0000)">
</g>
<g transform="matrix(0.0625 0.0000 0.0000 0.0625 0.0000 0.0000)">
<path d="M 7282.0000,5154.0000 L 7282.0000,5194.0000 " stroke="#000000" stroke-width="16.0000"  stroke-linecap="butt"  stroke-linejoin="miter"  stroke-miterlimit="10.0000" fill="none" />
</g>
<g transform="matrix(1.0000 0.0000 0.0000 1.0000 0.0000 0.0000)">
</g>
<g transform="matrix(0.0625 0.0000 0.0000 0.0625 0.0000 0.0000)">
<path d="M 7282.0000,5154.0000 L 7282.0000,5114.0000 " stroke="#000000" stroke-width="16.0000"  stroke-linecap="butt"  stroke-linejoin="miter"  stroke-miterlimit="10.0000" fill="none" />
</g>
<g transform="matrix(1.0000 0.0000 0.0000 1.0000 0.0000 0.0000)">
</g>
<g transform="matrix(0.0625 0.0000 0.0000 0.0625 0.0000 0.0000)">
<path d="M 7828.0000,5154.0000 L 7828.0000,5194.0000 " stroke="#000000" stroke-width="16.0000"  stroke-linecap="butt"  stroke-linejoin="miter"  stroke-miterlimit="10.0000" fill="none" />
</g>
<g transform="matrix(1.0000 0.0000 0.0000 1.0000 0.0000 0.0000)">
</g>
<g transform="matrix(0.0625 0.0000 0.0000 0.0625 0.0000 0.0000)">
<path d="M 7828.0000,5154.0000 L 7828.0000,5114.0000 " stroke="#000000" stroke-width="16.0000"  stroke-linecap="butt"  stroke-linejoin="miter"  stroke-miterlimit="10.0000" fill="none" />
</g>
<g transform="matrix(1.0000 0.0000 0.0000 1.0000 0.0000 0.0000)">
</g>
<g transform="matrix(0.0625 0.0000 0.0000 0.0625 0.0000 0.0000)">
<path d="M 8101.0000,5154.0000 L 8101.0000,5194.0000 " stroke="#000000" stroke-width="16.0000"  stroke-linecap="butt"  stroke-linejoin="miter"  stroke-miterlimit="10.0000" fill="none" />
</g>
<g transform="matrix(1.0000 0.0000 0.0000 1.0000 0.0000 0.0000)">
</g>
<g transform="matrix(0.0625 0.0000 0.0000 0.0625 0.0000 0.0000)">
<path d="M 8101.0000,5154.0000 L 8101.0000,5114.0000 " stroke="#000000" stroke-width="16.0000"  stroke-linecap="butt"  stroke-linejoin="miter"  stroke-miterlimit="10.0000" fill="none" />
</g>
<g transform="matrix(1.0000 0.0000 0.0000 1.0000 0.0000 0.0000)">
</g>
<g transform="matrix(0.0625 0.0000 0.0000 0.0625 0.0000 0.0000)">
<path d="M 8374.0000,5154.0000 L 8374.0000,5194.0000 " stroke="#000000" stroke-width="16.0000"  stroke-linecap="butt"  stroke-linejoin="miter"  stroke-miterlimit="10.0000" fill="none" />
</g>
<g transform="matrix(1.0000 0.0000 0.0000 1.0000 0.0000 0.0000)">
</g>
<g transform="matrix(0.0625 0.0000 0.0000 0.0625 0.0000 0.0000)">
<path d="M 8374.0000,5154.0000 L 8374.0000,5114.0000 " stroke="#000000" stroke-width="16.0000"  stroke-linecap="butt"  stroke-linejoin="miter"  stroke-miterlimit="10.0000" fill="none" />
</g>
<g transform="matrix(1.0000 0.0000 0.0000 1.0000 0.0000 0.0000)">
</g>
<g transform="matrix(0.0625 0.0000 0.0000 0.0625 0.0000 0.0000)">
<path d="M 8920.0000,5154.0000 L 8920.0000,5194.0000 " stroke="#000000" stroke-width="16.0000"  stroke-linecap="butt"  stroke-linejoin="miter"  stroke-miterlimit="10.0000" fill="none" />
</g>
<g transform="matrix(1.0000 0.0000 0.0000 1.0000 0.0000 0.0000)">
</g>
<g transform="matrix(0.0625 0.0000 0.0000 0.0625 0.0000 0.0000)">
<path d="M 8920.0000,5154.0000 L 8920.0000,5114.0000 " stroke="#000000" stroke-width="16.0000"  stroke-linecap="butt"  stroke-linejoin="miter"  stroke-miterlimit="10.0000" fill="none" />
</g>
<g transform="matrix(1.0000 0.0000 0.0000 1.0000 0.0000 0.0000)">
</g>
<g transform="matrix(0.0625 0.0000 0.0000 0.0625 0.0000 0.0000)">
<path d="M 9193.0000,5154.0000 L 9193.0000,5194.0000 " stroke="#000000" stroke-width="16.0000"  stroke-linecap="butt"  stroke-linejoin="miter"  stroke-miterlimit="10.0000" fill="none" />
</g>
<g transform="matrix(1.0000 0.0000 0.0000 1.0000 0.0000 0.0000)">
</g>
<g transform="matrix(0.0625 0.0000 0.0000 0.0625 0.0000 0.0000)">
<path d="M 9193.0000,5154.0000 L 9193.0000,5114.0000 " stroke="#000000" stroke-width="16.0000"  stroke-linecap="butt"  stroke-linejoin="miter"  stroke-miterlimit="10.0000" fill="none" />
</g>
<g transform="matrix(1.0000 0.0000 0.0000 1.0000 0.0000 0.0000)">
</g>
<g transform="matrix(0.0625 0.0000 0.0000 0.0625 0.0000 0.0000)">
<path d="M 9466.0000,5154.0000 L 9466.0000,5194.0000 " stroke="#000000" stroke-width="16.0000"  stroke-linecap="butt"  stroke-linejoin="miter"  stroke-miterlimit="10.0000" fill="none" />
</g>
<g transform="matrix(1.0000 0.0000 0.0000 1.0000 0.0000 0.0000)">
</g>
<g transform="matrix(0.0625 0.0000 0.0000 0.0625 0.0000 0.0000)">
<path d="M 9466.0000,5154.0000 L 9466.0000,5114.0000 " stroke="#000000" stroke-width="16.0000"  stroke-linecap="butt"  stroke-linejoin="miter"  stroke-miterlimit="10.0000" fill="none" />
</g>
<g transform="matrix(1.0000 0.0000 0.0000 1.0000 0.0000 0.0000)">
</g>
<g transform="matrix(0.0625 0.0000 0.0000 0.0625 0.0000 0.0000)">
<path d="M 1277.0000,5054.0000 L 1237.0000,5054.0000 " stroke="#000000" stroke-width="16.0000"  stroke-linecap="butt"  stroke-linejoin="miter"  stroke-miterlimit="10.0000" fill="none" />
</g>
<g transform="matrix(1.0000 0.0000 0.0000 1.0000 0.0000 0.0000)">
</g>
<g transform="matrix(0.0625 0.0000 0.0000 0.0625 0.0000 0.0000)">
<path d="M 1277.0000,5054.0000 L 1317.0000,5054.0000 " stroke="#000000" stroke-width="16.0000"  stroke-linecap="butt"  stroke-linejoin="miter"  stroke-miterlimit="10.0000" fill="none" />
</g>
<g transform="matrix(1.0000 0.0000 0.0000 1.0000 0.0000 0.0000)">
</g>
<g transform="matrix(0.0625 0.0000 0.0000 0.0625 0.0000 0.0000)">
<path d="M 1277.0000,4953.0000 L 1237.0000,4953.0000 " stroke="#000000" stroke-width="16.0000"  stroke-linecap="butt"  stroke-linejoin="miter"  stroke-miterlimit="10.0000" fill="none" />
</g>
<g transform="matrix(1.0000 0.0000 0.0000 1.0000 0.0000 0.0000)">
</g>
<g transform="matrix(0.0625 0.0000 0.0000 0.0625 0.0000 0.0000)">
<path d="M 1277.0000,4953.0000 L 1317.0000,4953.0000 " stroke="#000000" stroke-width="16.0000"  stroke-linecap="butt"  stroke-linejoin="miter"  stroke-miterlimit="10.0000" fill="none" />
</g>
<g transform="matrix(1.0000 0.0000 0.0000 1.0000 0.0000 0.0000)">
</g>
<g transform="matrix(0.0625 0.0000 0.0000 0.0625 0.0000 0.0000)">
<path d="M 1277.0000,4853.0000 L 1237.0000,4853.0000 " stroke="#000000" stroke-width="16.0000"  stroke-linecap="butt"  stroke-linejoin="miter"  stroke-miterlimit="10.0000" fill="none" />
</g>
<g transform="matrix(1.0000 0.0000 0.0000 1.0000 0.0000 0.0000)">
</g>
<g transform="matrix(0.0625 0.0000 0.0000 0.0625 0.0000 0.0000)">
<path d="M 1277.0000,4853.0000 L 1317.0000,4853.0000 " stroke="#000000" stroke-width="16.0000"  stroke-linecap="butt"  stroke-linejoin="miter"  stroke-miterlimit="10.0000" fill="none" />
</g>
<g transform="matrix(1.0000 0.0000 0.0000 1.0000 0.0000 0.0000)">
</g>
<g transform="matrix(0.0625 0.0000 0.0000 0.0625 0.0000 0.0000)">
<path d="M 1277.0000,4753.0000 L 1237.0000,4753.0000 " stroke="#000000" stroke-width="16.0000"  stroke-linecap="butt"  stroke-linejoin="miter"  stroke-miterlimit="10.0000" fill="none" />
</g>
<g transform="matrix(1.0000 0.0000 0.0000 1.0000 0.0000 0.0000)">
</g>
<g transform="matrix(0.0625 0.0000 0.0000 0.0625 0.0000 0.0000)">
<path d="M 1277.0000,4753.0000 L 1317.0000,4753.0000 " stroke="#000000" stroke-width="16.0000"  stroke-linecap="butt"  stroke-linejoin="miter"  stroke-miterlimit="10.0000" fill="none" />
</g>
<g transform="matrix(1.0000 0.0000 0.0000 1.0000 0.0000 0.0000)">
</g>
<g transform="matrix(0.0625 0.0000 0.0000 0.0625 0.0000 0.0000)">
<path d="M 1277.0000,4552.0000 L 1237.0000,4552.0000 " stroke="#000000" stroke-width="16.0000"  stroke-linecap="butt"  stroke-linejoin="miter"  stroke-miterlimit="10.0000" fill="none" />
</g>
<g transform="matrix(1.0000 0.0000 0.0000 1.0000 0.0000 0.0000)">
</g>
<g transform="matrix(0.0625 0.0000 0.0000 0.0625 0.0000 0.0000)">
<path d="M 1277.0000,4552.0000 L 1317.0000,4552.0000 " stroke="#000000" stroke-width="16.0000"  stroke-linecap="butt"  stroke-linejoin="miter"  stroke-miterlimit="10.0000" fill="none" />
</g>
<g transform="matrix(1.0000 0.0000 0.0000 1.0000 0.0000 0.0000)">
</g>
<g transform="matrix(0.0625 0.0000 0.0000 0.0625 0.0000 0.0000)">
<path d="M 1277.0000,4452.0000 L 1237.0000,4452.0000 " stroke="#000000" stroke-width="16.0000"  stroke-linecap="butt"  stroke-linejoin="miter"  stroke-miterlimit="10.0000" fill="none" />
</g>
<g transform="matrix(1.0000 0.0000 0.0000 1.0000 0.0000 0.0000)">
</g>
<g transform="matrix(0.0625 0.0000 0.0000 0.0625 0.0000 0.0000)">
<path d="M 1277.0000,4452.0000 L 1317.0000,4452.0000 " stroke="#000000" stroke-width="16.0000"  stroke-linecap="butt"  stroke-linejoin="miter"  stroke-miterlimit="10.0000" fill="none" />
</g>
<g transform="matrix(1.0000 0.0000 0.0000 1.0000 0.0000 0.0000)">
</g>
<g transform="matrix(0.0625 0.0000 0.0000 0.0625 0.0000 0.0000)">
<path d="M 1277.0000,4351.0000 L 1237.0000,4351.0000 " stroke="#000000" stroke-width="16.0000"  stroke-linecap="butt"  stroke-linejoin="miter"  stroke-miterlimit="10.0000" fill="none" />
</g>
<g transform="matrix(1.0000 0.0000 0.0000 1.0000 0.0000 0.0000)">
</g>
<g transform="matrix(0.0625 0.0000 0.0000 0.0625 0.0000 0.0000)">
<path d="M 1277.0000,4351.0000 L 1317.0000,4351.0000 " stroke="#000000" stroke-width="16.0000"  stroke-linecap="butt"  stroke-linejoin="miter"  stroke-miterlimit="10.0000" fill="none" />
</g>
<g transform="matrix(1.0000 0.0000 0.0000 1.0000 0.0000 0.0000)">
</g>
<g transform="matrix(0.0625 0.0000 0.0000 0.0625 0.0000 0.0000)">
<path d="M 1277.0000,4251.0000 L 1237.0000,4251.0000 " stroke="#000000" stroke-width="16.0000"  stroke-linecap="butt"  stroke-linejoin="miter"  stroke-miterlimit="10.0000" fill="none" />
</g>
<g transform="matrix(1.0000 0.0000 0.0000 1.0000 0.0000 0.0000)">
</g>
<g transform="matrix(0.0625 0.0000 0.0000 0.0625 0.0000 0.0000)">
<path d="M 1277.0000,4251.0000 L 1317.0000,4251.0000 " stroke="#000000" stroke-width="16.0000"  stroke-linecap="butt"  stroke-linejoin="miter"  stroke-miterlimit="10.0000" fill="none" />
</g>
<g transform="matrix(1.0000 0.0000 0.0000 1.0000 0.0000 0.0000)">
</g>
<g transform="matrix(0.0625 0.0000 0.0000 0.0625 0.0000 0.0000)">
<path d="M 1277.0000,4050.0000 L 1237.0000,4050.0000 " stroke="#000000" stroke-width="16.0000"  stroke-linecap="butt"  stroke-linejoin="miter"  stroke-miterlimit="10.0000" fill="none" />
</g>
<g transform="matrix(1.0000 0.0000 0.0000 1.0000 0.0000 0.0000)">
</g>
<g transform="matrix(0.0625 0.0000 0.0000 0.0625 0.0000 0.0000)">
<path d="M 1277.0000,4050.0000 L 1317.0000,4050.0000 " stroke="#000000" stroke-width="16.0000"  stroke-linecap="butt"  stroke-linejoin="miter"  stroke-miterlimit="10.0000" fill="none" />
</g>
<g transform="matrix(1.0000 0.0000 0.0000 1.0000 0.0000 0.0000)">
</g>
<g transform="matrix(0.0625 0.0000 0.0000 0.0625 0.0000 0.0000)">
<path d="M 1277.0000,3950.0000 L 1237.0000,3950.0000 " stroke="#000000" stroke-width="16.0000"  stroke-linecap="butt"  stroke-linejoin="miter"  stroke-miterlimit="10.0000" fill="none" />
</g>
<g transform="matrix(1.0000 0.0000 0.0000 1.0000 0.0000 0.0000)">
</g>
<g transform="matrix(0.0625 0.0000 0.0000 0.0625 0.0000 0.0000)">
<path d="M 1277.0000,3950.0000 L 1317.0000,3950.0000 " stroke="#000000" stroke-width="16.0000"  stroke-linecap="butt"  stroke-linejoin="miter"  stroke-miterlimit="10.0000" fill="none" />
</g>
<g transform="matrix(1.0000 0.0000 0.0000 1.0000 0.0000 0.0000)">
</g>
<g transform="matrix(0.0625 0.0000 0.0000 0.0625 0.0000 0.0000)">
<path d="M 1277.0000,3850.0000 L 1237.0000,3850.0000 " stroke="#000000" stroke-width="16.0000"  stroke-linecap="butt"  stroke-linejoin="miter"  stroke-miterlimit="10.0000" fill="none" />
</g>
<g transform="matrix(1.0000 0.0000 0.0000 1.0000 0.0000 0.0000)">
</g>
<g transform="matrix(0.0625 0.0000 0.0000 0.0625 0.0000 0.0000)">
<path d="M 1277.0000,3850.0000 L 1317.0000,3850.0000 " stroke="#000000" stroke-width="16.0000"  stroke-linecap="butt"  stroke-linejoin="miter"  stroke-miterlimit="10.0000" fill="none" />
</g>
<g transform="matrix(1.0000 0.0000 0.0000 1.0000 0.0000 0.0000)">
</g>
<g transform="matrix(0.0625 0.0000 0.0000 0.0625 0.0000 0.0000)">
<path d="M 1277.0000,3749.0000 L 1237.0000,3749.0000 " stroke="#000000" stroke-width="16.0000"  stroke-linecap="butt"  stroke-linejoin="miter"  stroke-miterlimit="10.0000" fill="none" />
</g>
<g transform="matrix(1.0000 0.0000 0.0000 1.0000 0.0000 0.0000)">
</g>
<g transform="matrix(0.0625 0.0000 0.0000 0.0625 0.0000 0.0000)">
<path d="M 1277.0000,3749.0000 L 1317.0000,3749.0000 " stroke="#000000" stroke-width="16.0000"  stroke-linecap="butt"  stroke-linejoin="miter"  stroke-miterlimit="10.0000" fill="none" />
</g>
<g transform="matrix(1.0000 0.0000 0.0000 1.0000 0.0000 0.0000)">
</g>
<g transform="matrix(0.0625 0.0000 0.0000 0.0625 0.0000 0.0000)">
<path d="M 1277.0000,3549.0000 L 1237.0000,3549.0000 " stroke="#000000" stroke-width="16.0000"  stroke-linecap="butt"  stroke-linejoin="miter"  stroke-miterlimit="10.0000" fill="none" />
</g>
<g transform="matrix(1.0000 0.0000 0.0000 1.0000 0.0000 0.0000)">
</g>
<g transform="matrix(0.0625 0.0000 0.0000 0.0625 0.0000 0.0000)">
<path d="M 1277.0000,3549.0000 L 1317.0000,3549.0000 " stroke="#000000" stroke-width="16.0000"  stroke-linecap="butt"  stroke-linejoin="miter"  stroke-miterlimit="10.0000" fill="none" />
</g>
<g transform="matrix(1.0000 0.0000 0.0000 1.0000 0.0000 0.0000)">
</g>
<g transform="matrix(0.0625 0.0000 0.0000 0.0625 0.0000 0.0000)">
<path d="M 1277.0000,3448.0000 L 1237.0000,3448.0000 " stroke="#000000" stroke-width="16.0000"  stroke-linecap="butt"  stroke-linejoin="miter"  stroke-miterlimit="10.0000" fill="none" />
</g>
<g transform="matrix(1.0000 0.0000 0.0000 1.0000 0.0000 0.0000)">
</g>
<g transform="matrix(0.0625 0.0000 0.0000 0.0625 0.0000 0.0000)">
<path d="M 1277.0000,3448.0000 L 1317.0000,3448.0000 " stroke="#000000" stroke-width="16.0000"  stroke-linecap="butt"  stroke-linejoin="miter"  stroke-miterlimit="10.0000" fill="none" />
</g>
<g transform="matrix(1.0000 0.0000 0.0000 1.0000 0.0000 0.0000)">
</g>
<g transform="matrix(0.0625 0.0000 0.0000 0.0625 0.0000 0.0000)">
<path d="M 1277.0000,3348.0000 L 1237.0000,3348.0000 " stroke="#000000" stroke-width="16.0000"  stroke-linecap="butt"  stroke-linejoin="miter"  stroke-miterlimit="10.0000" fill="none" />
</g>
<g transform="matrix(1.0000 0.0000 0.0000 1.0000 0.0000 0.0000)">
</g>
<g transform="matrix(0.0625 0.0000 0.0000 0.0625 0.0000 0.0000)">
<path d="M 1277.0000,3348.0000 L 1317.0000,3348.0000 " stroke="#000000" stroke-width="16.0000"  stroke-linecap="butt"  stroke-linejoin="miter"  stroke-miterlimit="10.0000" fill="none" />
</g>
<g transform="matrix(1.0000 0.0000 0.0000 1.0000 0.0000 0.0000)">
</g>
<g transform="matrix(0.0625 0.0000 0.0000 0.0625 0.0000 0.0000)">
<path d="M 1277.0000,3248.0000 L 1237.0000,3248.0000 " stroke="#000000" stroke-width="16.0000"  stroke-linecap="butt"  stroke-linejoin="miter"  stroke-miterlimit="10.0000" fill="none" />
</g>
<g transform="matrix(1.0000 0.0000 0.0000 1.0000 0.0000 0.0000)">
</g>
<g transform="matrix(0.0625 0.0000 0.0000 0.0625 0.0000 0.0000)">
<path d="M 1277.0000,3248.0000 L 1317.0000,3248.0000 " stroke="#000000" stroke-width="16.0000"  stroke-linecap="butt"  stroke-linejoin="miter"  stroke-miterlimit="10.0000" fill="none" />
</g>
<g transform="matrix(1.0000 0.0000 0.0000 1.0000 0.0000 0.0000)">
</g>
<g transform="matrix(0.0625 0.0000 0.0000 0.0625 0.0000 0.0000)">
<path d="M 1277.0000,3047.0000 L 1237.0000,3047.0000 " stroke="#000000" stroke-width="16.0000"  stroke-linecap="butt"  stroke-linejoin="miter"  stroke-miterlimit="10.0000" fill="none" />
</g>
<g transform="matrix(1.0000 0.0000 0.0000 1.0000 0.0000 0.0000)">
</g>
<g transform="matrix(0.0625 0.0000 0.0000 0.0625 0.0000 0.0000)">
<path d="M 1277.0000,3047.0000 L 1317.0000,3047.0000 " stroke="#000000" stroke-width="16.0000"  stroke-linecap="butt"  stroke-linejoin="miter"  stroke-miterlimit="10.0000" fill="none" />
</g>
<g transform="matrix(1.0000 0.0000 0.0000 1.0000 0.0000 0.0000)">
</g>
<g transform="matrix(0.0625 0.0000 0.0000 0.0625 0.0000 0.0000)">
<path d="M 1277.0000,2947.0000 L 1237.0000,2947.0000 " stroke="#000000" stroke-width="16.0000"  stroke-linecap="butt"  stroke-linejoin="miter"  stroke-miterlimit="10.0000" fill="none" />
</g>
<g transform="matrix(1.0000 0.0000 0.0000 1.0000 0.0000 0.0000)">
</g>
<g transform="matrix(0.0625 0.0000 0.0000 0.0625 0.0000 0.0000)">
<path d="M 1277.0000,2947.0000 L 1317.0000,2947.0000 " stroke="#000000" stroke-width="16.0000"  stroke-linecap="butt"  stroke-linejoin="miter"  stroke-miterlimit="10.0000" fill="none" />
</g>
<g transform="matrix(1.0000 0.0000 0.0000 1.0000 0.0000 0.0000)">
</g>
<g transform="matrix(0.0625 0.0000 0.0000 0.0625 0.0000 0.0000)">
<path d="M 1277.0000,2846.0000 L 1237.0000,2846.0000 " stroke="#000000" stroke-width="16.0000"  stroke-linecap="butt"  stroke-linejoin="miter"  stroke-miterlimit="10.0000" fill="none" />
</g>
<g transform="matrix(1.0000 0.0000 0.0000 1.0000 0.0000 0.0000)">
</g>
<g transform="matrix(0.0625 0.0000 0.0000 0.0625 0.0000 0.0000)">
<path d="M 1277.0000,2846.0000 L 1317.0000,2846.0000 " stroke="#000000" stroke-width="16.0000"  stroke-linecap="butt"  stroke-linejoin="miter"  stroke-miterlimit="10.0000" fill="none" />
</g>
<g transform="matrix(1.0000 0.0000 0.0000 1.0000 0.0000 0.0000)">
</g>
<g transform="matrix(0.0625 0.0000 0.0000 0.0625 0.0000 0.0000)">
<path d="M 1277.0000,2746.0000 L 1237.0000,2746.0000 " stroke="#000000" stroke-width="16.0000"  stroke-linecap="butt"  stroke-linejoin="miter"  stroke-miterlimit="10.0000" fill="none" />
</g>
<g transform="matrix(1.0000 0.0000 0.0000 1.0000 0.0000 0.0000)">
</g>
<g transform="matrix(0.0625 0.0000 0.0000 0.0625 0.0000 0.0000)">
<path d="M 1277.0000,2746.0000 L 1317.0000,2746.0000 " stroke="#000000" stroke-width="16.0000"  stroke-linecap="butt"  stroke-linejoin="miter"  stroke-miterlimit="10.0000" fill="none" />
</g>
<g transform="matrix(1.0000 0.0000 0.0000 1.0000 0.0000 0.0000)">
</g>
<g transform="matrix(0.0625 0.0000 0.0000 0.0625 0.0000 0.0000)">
<path d="M 1277.0000,2545.0000 L 1237.0000,2545.0000 " stroke="#000000" stroke-width="16.0000"  stroke-linecap="butt"  stroke-linejoin="miter"  stroke-miterlimit="10.0000" fill="none" />
</g>
<g transform="matrix(1.0000 0.0000 0.0000 1.0000 0.0000 0.0000)">
</g>
<g transform="matrix(0.0625 0.0000 0.0000 0.0625 0.0000 0.0000)">
<path d="M 1277.0000,2545.0000 L 1317.0000,2545.0000 " stroke="#000000" stroke-width="16.0000"  stroke-linecap="butt"  stroke-linejoin="miter"  stroke-miterlimit="10.0000" fill="none" />
</g>
<g transform="matrix(1.0000 0.0000 0.0000 1.0000 0.0000 0.0000)">
</g>
<g transform="matrix(0.0625 0.0000 0.0000 0.0625 0.0000 0.0000)">
<path d="M 1277.0000,2445.0000 L 1237.0000,2445.0000 " stroke="#000000" stroke-width="16.0000"  stroke-linecap="butt"  stroke-linejoin="miter"  stroke-miterlimit="10.0000" fill="none" />
</g>
<g transform="matrix(1.0000 0.0000 0.0000 1.0000 0.0000 0.0000)">
</g>
<g transform="matrix(0.0625 0.0000 0.0000 0.0625 0.0000 0.0000)">
<path d="M 1277.0000,2445.0000 L 1317.0000,2445.0000 " stroke="#000000" stroke-width="16.0000"  stroke-linecap="butt"  stroke-linejoin="miter"  stroke-miterlimit="10.0000" fill="none" />
</g>
<g transform="matrix(1.0000 0.0000 0.0000 1.0000 0.0000 0.0000)">
</g>
<g transform="matrix(0.0625 0.0000 0.0000 0.0625 0.0000 0.0000)">
<path d="M 1277.0000,2345.0000 L 1237.0000,2345.0000 " stroke="#000000" stroke-width="16.0000"  stroke-linecap="butt"  stroke-linejoin="miter"  stroke-miterlimit="10.0000" fill="none" />
</g>
<g transform="matrix(1.0000 0.0000 0.0000 1.0000 0.0000 0.0000)">
</g>
<g transform="matrix(0.0625 0.0000 0.0000 0.0625 0.0000 0.0000)">
<path d="M 1277.0000,2345.0000 L 1317.0000,2345.0000 " stroke="#000000" stroke-width="16.0000"  stroke-linecap="butt"  stroke-linejoin="miter"  stroke-miterlimit="10.0000" fill="none" />
</g>
<g transform="matrix(1.0000 0.0000 0.0000 1.0000 0.0000 0.0000)">
</g>
<g transform="matrix(0.0625 0.0000 0.0000 0.0625 0.0000 0.0000)">
<path d="M 1277.0000,2244.0000 L 1237.0000,2244.0000 " stroke="#000000" stroke-width="16.0000"  stroke-linecap="butt"  stroke-linejoin="miter"  stroke-miterlimit="10.0000" fill="none" />
</g>
<g transform="matrix(1.0000 0.0000 0.0000 1.0000 0.0000 0.0000)">
</g>
<g transform="matrix(0.0625 0.0000 0.0000 0.0625 0.0000 0.0000)">
<path d="M 1277.0000,2244.0000 L 1317.0000,2244.0000 " stroke="#000000" stroke-width="16.0000"  stroke-linecap="butt"  stroke-linejoin="miter"  stroke-miterlimit="10.0000" fill="none" />
</g>
<g transform="matrix(1.0000 0.0000 0.0000 1.0000 0.0000 0.0000)">
</g>
<g transform="matrix(0.0625 0.0000 0.0000 0.0625 0.0000 0.0000)">
<path d="M 1277.0000,2044.0000 L 1237.0000,2044.0000 " stroke="#000000" stroke-width="16.0000"  stroke-linecap="butt"  stroke-linejoin="miter"  stroke-miterlimit="10.0000" fill="none" />
</g>
<g transform="matrix(1.0000 0.0000 0.0000 1.0000 0.0000 0.0000)">
</g>
<g transform="matrix(0.0625 0.0000 0.0000 0.0625 0.0000 0.0000)">
<path d="M 1277.0000,2044.0000 L 1317.0000,2044.0000 " stroke="#000000" stroke-width="16.0000"  stroke-linecap="butt"  stroke-linejoin="miter"  stroke-miterlimit="10.0000" fill="none" />
</g>
<g transform="matrix(1.0000 0.0000 0.0000 1.0000 0.0000 0.0000)">
</g>
<g transform="matrix(0.0625 0.0000 0.0000 0.0625 0.0000 0.0000)">
<path d="M 1277.0000,1943.0000 L 1237.0000,1943.0000 " stroke="#000000" stroke-width="16.0000"  stroke-linecap="butt"  stroke-linejoin="miter"  stroke-miterlimit="10.0000" fill="none" />
</g>
<g transform="matrix(1.0000 0.0000 0.0000 1.0000 0.0000 0.0000)">
</g>
<g transform="matrix(0.0625 0.0000 0.0000 0.0625 0.0000 0.0000)">
<path d="M 1277.0000,1943.0000 L 1317.0000,1943.0000 " stroke="#000000" stroke-width="16.0000"  stroke-linecap="butt"  stroke-linejoin="miter"  stroke-miterlimit="10.0000" fill="none" />
</g>
<g transform="matrix(1.0000 0.0000 0.0000 1.0000 0.0000 0.0000)">
</g>
<g transform="matrix(0.0625 0.0000 0.0000 0.0625 0.0000 0.0000)">
<path d="M 1277.0000,1843.0000 L 1237.0000,1843.0000 " stroke="#000000" stroke-width="16.0000"  stroke-linecap="butt"  stroke-linejoin="miter"  stroke-miterlimit="10.0000" fill="none" />
</g>
<g transform="matrix(1.0000 0.0000 0.0000 1.0000 0.0000 0.0000)">
</g>
<g transform="matrix(0.0625 0.0000 0.0000 0.0625 0.0000 0.0000)">
<path d="M 1277.0000,1843.0000 L 1317.0000,1843.0000 " stroke="#000000" stroke-width="16.0000"  stroke-linecap="butt"  stroke-linejoin="miter"  stroke-miterlimit="10.0000" fill="none" />
</g>
<g transform="matrix(1.0000 0.0000 0.0000 1.0000 0.0000 0.0000)">
</g>
<g transform="matrix(0.0625 0.0000 0.0000 0.0625 0.0000 0.0000)">
<path d="M 1277.0000,1743.0000 L 1237.0000,1743.0000 " stroke="#000000" stroke-width="16.0000"  stroke-linecap="butt"  stroke-linejoin="miter"  stroke-miterlimit="10.0000" fill="none" />
</g>
<g transform="matrix(1.0000 0.0000 0.0000 1.0000 0.0000 0.0000)">
</g>
<g transform="matrix(0.0625 0.0000 0.0000 0.0625 0.0000 0.0000)">
<path d="M 1277.0000,1743.0000 L 1317.0000,1743.0000 " stroke="#000000" stroke-width="16.0000"  stroke-linecap="butt"  stroke-linejoin="miter"  stroke-miterlimit="10.0000" fill="none" />
</g>
<g transform="matrix(1.0000 0.0000 0.0000 1.0000 0.0000 0.0000)">
</g>
<g transform="matrix(0.0625 0.0000 0.0000 0.0625 0.0000 0.0000)">
<path d="M 1277.0000,1542.0000 L 1237.0000,1542.0000 " stroke="#000000" stroke-width="16.0000"  stroke-linecap="butt"  stroke-linejoin="miter"  stroke-miterlimit="10.0000" fill="none" />
</g>
<g transform="matrix(1.0000 0.0000 0.0000 1.0000 0.0000 0.0000)">
</g>
<g transform="matrix(0.0625 0.0000 0.0000 0.0625 0.0000 0.0000)">
<path d="M 1277.0000,1542.0000 L 1317.0000,1542.0000 " stroke="#000000" stroke-width="16.0000"  stroke-linecap="butt"  stroke-linejoin="miter"  stroke-miterlimit="10.0000" fill="none" />
</g>
<g transform="matrix(1.0000 0.0000 0.0000 1.0000 0.0000 0.0000)">
</g>
<g transform="matrix(0.0625 0.0000 0.0000 0.0625 0.0000 0.0000)">
<path d="M 1277.0000,1442.0000 L 1237.0000,1442.0000 " stroke="#000000" stroke-width="16.0000"  stroke-linecap="butt"  stroke-linejoin="miter"  stroke-miterlimit="10.0000" fill="none" />
</g>
<g transform="matrix(1.0000 0.0000 0.0000 1.0000 0.0000 0.0000)">
</g>
<g transform="matrix(0.0625 0.0000 0.0000 0.0625 0.0000 0.0000)">
<path d="M 1277.0000,1442.0000 L 1317.0000,1442.0000 " stroke="#000000" stroke-width="16.0000"  stroke-linecap="butt"  stroke-linejoin="miter"  stroke-miterlimit="10.0000" fill="none" />
</g>
<g transform="matrix(1.0000 0.0000 0.0000 1.0000 0.0000 0.0000)">
</g>
<g transform="matrix(0.0625 0.0000 0.0000 0.0625 0.0000 0.0000)">
<path d="M 1277.0000,1341.0000 L 1237.0000,1341.0000 " stroke="#000000" stroke-width="16.0000"  stroke-linecap="butt"  stroke-linejoin="miter"  stroke-miterlimit="10.0000" fill="none" />
</g>
<g transform="matrix(1.0000 0.0000 0.0000 1.0000 0.0000 0.0000)">
</g>
<g transform="matrix(0.0625 0.0000 0.0000 0.0625 0.0000 0.0000)">
<path d="M 1277.0000,1341.0000 L 1317.0000,1341.0000 " stroke="#000000" stroke-width="16.0000"  stroke-linecap="butt"  stroke-linejoin="miter"  stroke-miterlimit="10.0000" fill="none" />
</g>
<g transform="matrix(1.0000 0.0000 0.0000 1.0000 0.0000 0.0000)">
</g>
<g transform="matrix(0.0625 0.0000 0.0000 0.0625 0.0000 0.0000)">
<path d="M 1277.0000,1241.0000 L 1237.0000,1241.0000 " stroke="#000000" stroke-width="16.0000"  stroke-linecap="butt"  stroke-linejoin="miter"  stroke-miterlimit="10.0000" fill="none" />
</g>
<g transform="matrix(1.0000 0.0000 0.0000 1.0000 0.0000 0.0000)">
</g>
<g transform="matrix(0.0625 0.0000 0.0000 0.0625 0.0000 0.0000)">
<path d="M 1277.0000,1241.0000 L 1317.0000,1241.0000 " stroke="#000000" stroke-width="16.0000"  stroke-linecap="butt"  stroke-linejoin="miter"  stroke-miterlimit="10.0000" fill="none" />
</g>
<g transform="matrix(1.0000 0.0000 0.0000 1.0000 0.0000 0.0000)">
</g>
<g transform="matrix(0.0625 0.0000 0.0000 0.0625 0.0000 0.0000)">
<path d="M 1277.0000,1040.0000 L 1237.0000,1040.0000 " stroke="#000000" stroke-width="16.0000"  stroke-linecap="butt"  stroke-linejoin="miter"  stroke-miterlimit="10.0000" fill="none" />
</g>
<g transform="matrix(1.0000 0.0000 0.0000 1.0000 0.0000 0.0000)">
</g>
<g transform="matrix(0.0625 0.0000 0.0000 0.0625 0.0000 0.0000)">
<path d="M 1277.0000,1040.0000 L 1317.0000,1040.0000 " stroke="#000000" stroke-width="16.0000"  stroke-linecap="butt"  stroke-linejoin="miter"  stroke-miterlimit="10.0000" fill="none" />
</g>
<g transform="matrix(1.0000 0.0000 0.0000 1.0000 0.0000 0.0000)">
</g>
<g transform="matrix(0.0625 0.0000 0.0000 0.0625 0.0000 0.0000)">
<path d="M 1277.0000,940.0000 L 1237.0000,940.0000 " stroke="#000000" stroke-width="16.0000"  stroke-linecap="butt"  stroke-linejoin="miter"  stroke-miterlimit="10.0000" fill="none" />
</g>
<g transform="matrix(1.0000 0.0000 0.0000 1.0000 0.0000 0.0000)">
</g>
<g transform="matrix(0.0625 0.0000 0.0000 0.0625 0.0000 0.0000)">
<path d="M 1277.0000,940.0000 L 1317.0000,940.0000 " stroke="#000000" stroke-width="16.0000"  stroke-linecap="butt"  stroke-linejoin="miter"  stroke-miterlimit="10.0000" fill="none" />
</g>
<g transform="matrix(1.0000 0.0000 0.0000 1.0000 0.0000 0.0000)">
</g>
<g transform="matrix(0.0625 0.0000 0.0000 0.0625 0.0000 0.0000)">
<path d="M 1277.0000,840.0000 L 1237.0000,840.0000 " stroke="#000000" stroke-width="16.0000"  stroke-linecap="butt"  stroke-linejoin="miter"  stroke-miterlimit="10.0000" fill="none" />
</g>
<g transform="matrix(1.0000 0.0000 0.0000 1.0000 0.0000 0.0000)">
</g>
<g transform="matrix(0.0625 0.0000 0.0000 0.0625 0.0000 0.0000)">
<path d="M 1277.0000,840.0000 L 1317.0000,840.0000 " stroke="#000000" stroke-width="16.0000"  stroke-linecap="butt"  stroke-linejoin="miter"  stroke-miterlimit="10.0000" fill="none" />
</g>
<g transform="matrix(1.0000 0.0000 0.0000 1.0000 0.0000 0.0000)">
</g>
<g transform="matrix(0.0625 0.0000 0.0000 0.0625 0.0000 0.0000)">
<path d="M 1277.0000,739.0000 L 1237.0000,739.0000 " stroke="#000000" stroke-width="16.0000"  stroke-linecap="butt"  stroke-linejoin="miter"  stroke-miterlimit="10.0000" fill="none" />
</g>
<g transform="matrix(1.0000 0.0000 0.0000 1.0000 0.0000 0.0000)">
</g>
<g transform="matrix(0.0625 0.0000 0.0000 0.0625 0.0000 0.0000)">
<path d="M 1277.0000,739.0000 L 1317.0000,739.0000 " stroke="#000000" stroke-width="16.0000"  stroke-linecap="butt"  stroke-linejoin="miter"  stroke-miterlimit="10.0000" fill="none" />
</g>
<g transform="matrix(1.0000 0.0000 0.0000 1.0000 0.0000 0.0000)">
<defs><clipPath id="clip-18467"><path d="M 80.0000,40.0000 L 609.0000,40.0000 L 609.0000,323.0000 L 80.0000,323.0000 L 80.0000,40.0000 Z Z" /></clipPath></defs>
</g>
<g transform="matrix(0.0625 0.0000 0.0000 0.0625 0.0000 0.0000)">
<path  clip-path="url(#clip-18467)" d="M 5434.0000,1120.0000 L 5434.0000,5154.0000 " stroke="#808080" stroke-width="16.0000"  stroke-linecap="butt"  stroke-linejoin="miter"  stroke-miterlimit="10.0000" fill="none" />
</g>
<g transform="matrix(1.0000 0.0000 0.0000 1.0000 0.0000 0.0000)">
<defs><clipPath id="clip-6334"><path d="M 80.0000,40.0000 L 609.0000,40.0000 L 609.0000,323.0000 L 80.0000,323.0000 L 80.0000,40.0000 Z Z" /></clipPath></defs>
</g>
<g transform="matrix(0.0625 0.0000 0.0000 0.0625 0.0000 0.0000)">
<path  clip-path="url(#clip-6334)" d="M 6051.0000,3496.0000 L 6051.0000,5154.0000 " stroke="#808080" stroke-width="16.0000"  stroke-linecap="butt"  stroke-linejoin="miter"  stroke-miterlimit="10.0000" fill="none" />
</g>
<g transform="matrix(1.0000 0.0000 0.0000 1.0000 0.0000 0.0000)">
<defs><clipPath id="clip-26500"><path d="M 80.0000,40.0000 L 609.0000,40.0000 L 609.0000,323.0000 L 80.0000,323.0000 L 80.0000,40.0000 Z Z" /></clipPath></defs>
</g>
<g transform="matrix(0.0625 0.0000 0.0000 0.0625 0.0000 0.0000)">
<path  clip-path="url(#clip-26500)" d="M 6603.0000,4687.0000 L 6603.0000,5154.0000 " stroke="#808080" stroke-width="16.0000"  stroke-linecap="butt"  stroke-linejoin="miter"  stroke-miterlimit="10.0000" fill="none" />
</g>
<g transform="matrix(1.0000 0.0000 0.0000 1.0000 0.0000 0.0000)">
<defs><clipPath id="clip-19169"><path d="M 80.0000,40.0000 L 609.0000,40.0000 L 609.0000,323.0000 L 80.0000,323.0000 L 80.0000,40.0000 Z Z" /></clipPath></defs>
</g>
<g transform="matrix(0.0625 0.0000 0.0000 0.0625 0.0000 0.0000)">
<path  clip-path="url(#clip-19169)" d="M 6914.0000,4057.0000 L 6914.0000,5154.0000 " stroke="#808080" stroke-width="16.0000"  stroke-linecap="butt"  stroke-linejoin="miter"  stroke-miterlimit="10.0000" fill="none" />
</g>
<g transform="matrix(1.0000 0.0000 0.0000 1.0000 0.0000 0.0000)">
</g>
<g transform="matrix(0.0625 0.0000 0.0000 0.0625 0.0000 0.0000)">
<path d="M 1277.0000,5154.0000 L 9739.0000,5154.0000 " stroke="#000000" stroke-width="16.0000"  stroke-linecap="butt"  stroke-linejoin="miter"  stroke-miterlimit="10.0000" fill="none" />
</g>
<g transform="matrix(1.0000 0.0000 0.0000 1.0000 0.0000 0.0000)">
</g>
<g transform="matrix(0.0625 0.0000 0.0000 0.0625 0.0000 0.0000)">
<path d="M 2096.0000,5154.0000 L 2096.0000,5234.0000 " stroke="#000000" stroke-width="16.0000"  stroke-linecap="butt"  stroke-linejoin="miter"  stroke-miterlimit="10.0000" fill="none" />
</g>
<g transform="matrix(1.0000 0.0000 0.0000 1.0000 0.0000 0.0000)">
</g>
<g transform="matrix(0.0625 0.0000 0.0000 0.0625 0.0000 0.0000)">
<path d="M 2096.0000,5154.0000 L 2096.0000,5074.0000 " stroke="#000000" stroke-width="16.0000"  stroke-linecap="butt"  stroke-linejoin="miter"  stroke-miterlimit="10.0000" fill="none" />
</g>
<g transform="matrix(1.0000 0.0000 0.0000 1.0000 0.0000 0.0000)">
<text font-family="Arial" fill="#000000" style ="white-space:pre;" font-weight="400" text-anchor="start" x="119.0000" y="345.0000" font-size="14.0000" ><![CDATA[200]]></text>
</g>
<g transform="matrix(0.0625 0.0000 0.0000 0.0625 0.0000 0.0000)">
<path d="M 3188.0000,5154.0000 L 3188.0000,5234.0000 " stroke="#000000" stroke-width="16.0000"  stroke-linecap="butt"  stroke-linejoin="miter"  stroke-miterlimit="10.0000" fill="none" />
</g>
<g transform="matrix(1.0000 0.0000 0.0000 1.0000 0.0000 0.0000)">
</g>
<g transform="matrix(0.0625 0.0000 0.0000 0.0625 0.0000 0.0000)">
<path d="M 3188.0000,5154.0000 L 3188.0000,5074.0000 " stroke="#000000" stroke-width="16.0000"  stroke-linecap="butt"  stroke-linejoin="miter"  stroke-miterlimit="10.0000" fill="none" />
</g>
<g transform="matrix(1.0000 0.0000 0.0000 1.0000 0.0000 0.0000)">
<text font-family="Arial" fill="#000000" style ="white-space:pre;" font-weight="400" text-anchor="start" x="187.0000" y="345.0000" font-size="14.0000" ><![CDATA[400]]></text>
</g>
<g transform="matrix(0.0625 0.0000 0.0000 0.0625 0.0000 0.0000)">
<path d="M 4280.0000,5154.0000 L 4280.0000,5234.0000 " stroke="#000000" stroke-width="16.0000"  stroke-linecap="butt"  stroke-linejoin="miter"  stroke-miterlimit="10.0000" fill="none" />
</g>
<g transform="matrix(1.0000 0.0000 0.0000 1.0000 0.0000 0.0000)">
</g>
<g transform="matrix(0.0625 0.0000 0.0000 0.0625 0.0000 0.0000)">
<path d="M 4280.0000,5154.0000 L 4280.0000,5074.0000 " stroke="#000000" stroke-width="16.0000"  stroke-linecap="butt"  stroke-linejoin="miter"  stroke-miterlimit="10.0000" fill="none" />
</g>
<g transform="matrix(1.0000 0.0000 0.0000 1.0000 0.0000 0.0000)">
<text font-family="Arial" fill="#000000" style ="white-space:pre;" font-weight="400" text-anchor="start" x="255.0000" y="345.0000" font-size="14.0000" ><![CDATA[600]]></text>
</g>
<g transform="matrix(0.0625 0.0000 0.0000 0.0625 0.0000 0.0000)">
<path d="M 5371.0000,5154.0000 L 5371.0000,5234.0000 " stroke="#000000" stroke-width="16.0000"  stroke-linecap="butt"  stroke-linejoin="miter"  stroke-miterlimit="10.0000" fill="none" />
</g>
<g transform="matrix(1.0000 0.0000 0.0000 1.0000 0.0000 0.0000)">
</g>
<g transform="matrix(0.0625 0.0000 0.0000 0.0625 0.0000 0.0000)">
<path d="M 5371.0000,5154.0000 L 5371.0000,5074.0000 " stroke="#000000" stroke-width="16.0000"  stroke-linecap="butt"  stroke-linejoin="miter"  stroke-miterlimit="10.0000" fill="none" />
</g>
<g transform="matrix(1.0000 0.0000 0.0000 1.0000 0.0000 0.0000)">
<text font-family="Arial" fill="#000000" style ="white-space:pre;" font-weight="400" text-anchor="start" x="324.0000" y="345.0000" font-size="14.0000" ><![CDATA[800]]></text>
</g>
<g transform="matrix(0.0625 0.0000 0.0000 0.0625 0.0000 0.0000)">
<path d="M 6463.0000,5154.0000 L 6463.0000,5234.0000 " stroke="#000000" stroke-width="16.0000"  stroke-linecap="butt"  stroke-linejoin="miter"  stroke-miterlimit="10.0000" fill="none" />
</g>
<g transform="matrix(1.0000 0.0000 0.0000 1.0000 0.0000 0.0000)">
</g>
<g transform="matrix(0.0625 0.0000 0.0000 0.0625 0.0000 0.0000)">
<path d="M 6463.0000,5154.0000 L 6463.0000,5074.0000 " stroke="#000000" stroke-width="16.0000"  stroke-linecap="butt"  stroke-linejoin="miter"  stroke-miterlimit="10.0000" fill="none" />
</g>
<g transform="matrix(1.0000 0.0000 0.0000 1.0000 0.0000 0.0000)">
<text font-family="Arial" fill="#000000" style ="white-space:pre;" font-weight="400" text-anchor="start" x="388.0000" y="345.0000" font-size="14.0000" ><![CDATA[1000]]></text>
</g>
<g transform="matrix(0.0625 0.0000 0.0000 0.0625 0.0000 0.0000)">
<path d="M 7555.0000,5154.0000 L 7555.0000,5234.0000 " stroke="#000000" stroke-width="16.0000"  stroke-linecap="butt"  stroke-linejoin="miter"  stroke-miterlimit="10.0000" fill="none" />
</g>
<g transform="matrix(1.0000 0.0000 0.0000 1.0000 0.0000 0.0000)">
</g>
<g transform="matrix(0.0625 0.0000 0.0000 0.0625 0.0000 0.0000)">
<path d="M 7555.0000,5154.0000 L 7555.0000,5074.0000 " stroke="#000000" stroke-width="16.0000"  stroke-linecap="butt"  stroke-linejoin="miter"  stroke-miterlimit="10.0000" fill="none" />
</g>
<g transform="matrix(1.0000 0.0000 0.0000 1.0000 0.0000 0.0000)">
<text font-family="Arial" fill="#000000" style ="white-space:pre;" font-weight="400" text-anchor="start" x="456.0000" y="345.0000" font-size="14.0000" ><![CDATA[1200]]></text>
</g>
<g transform="matrix(0.0625 0.0000 0.0000 0.0625 0.0000 0.0000)">
<path d="M 8647.0000,5154.0000 L 8647.0000,5234.0000 " stroke="#000000" stroke-width="16.0000"  stroke-linecap="butt"  stroke-linejoin="miter"  stroke-miterlimit="10.0000" fill="none" />
</g>
<g transform="matrix(1.0000 0.0000 0.0000 1.0000 0.0000 0.0000)">
</g>
<g transform="matrix(0.0625 0.0000 0.0000 0.0625 0.0000 0.0000)">
<path d="M 8647.0000,5154.0000 L 8647.0000,5074.0000 " stroke="#000000" stroke-width="16.0000"  stroke-linecap="butt"  stroke-linejoin="miter"  stroke-miterlimit="10.0000" fill="none" />
</g>
<g transform="matrix(1.0000 0.0000 0.0000 1.0000 0.0000 0.0000)">
<text font-family="Arial" fill="#000000" style ="white-space:pre;" font-weight="400" text-anchor="start" x="524.0000" y="345.0000" font-size="14.0000" ><![CDATA[1400]]></text>
</g>
<g transform="matrix(0.0625 0.0000 0.0000 0.0625 0.0000 0.0000)">
<path d="M 9739.0000,5154.0000 L 9739.0000,5234.0000 " stroke="#000000" stroke-width="16.0000"  stroke-linecap="butt"  stroke-linejoin="miter"  stroke-miterlimit="10.0000" fill="none" />
</g>
<g transform="matrix(1.0000 0.0000 0.0000 1.0000 0.0000 0.0000)">
</g>
<g transform="matrix(0.0625 0.0000 0.0000 0.0625 0.0000 0.0000)">
<path d="M 9739.0000,5154.0000 L 9739.0000,5074.0000 " stroke="#000000" stroke-width="16.0000"  stroke-linecap="butt"  stroke-linejoin="miter"  stroke-miterlimit="10.0000" fill="none" />
</g>
<g transform="matrix(1.0000 0.0000 0.0000 1.0000 0.0000 0.0000)">
<text font-family="Arial" fill="#000000" style ="white-space:pre;" font-weight="400" text-anchor="start" x="593.0000" y="345.0000" font-size="14.0000" ><![CDATA[1600]]></text>
<text font-family="Arial" fill="#000000" font-style="italic" style ="white-space:pre;" font-weight="700" text-anchor="start" x="332.0000" y="368.0000" font-size="14.0000" ><![CDATA[m/z]]></text>
</g>
<g transform="matrix(0.0625 0.0000 0.0000 0.0625 0.0000 0.0000)">
<path d="M 1277.0000,639.0000 L 1277.0000,5154.0000 " stroke="#000000" stroke-width="16.0000"  stroke-linecap="butt"  stroke-linejoin="miter"  stroke-miterlimit="10.0000" fill="none" />
</g>
<g transform="matrix(1.0000 0.0000 0.0000 1.0000 0.0000 0.0000)">
</g>
<g transform="matrix(0.0625 0.0000 0.0000 0.0625 0.0000 0.0000)">
<path d="M 1277.0000,5154.0000 L 1197.0000,5154.0000 " stroke="#000000" stroke-width="16.0000"  stroke-linecap="butt"  stroke-linejoin="miter"  stroke-miterlimit="10.0000" fill="none" />
</g>
<g transform="matrix(1.0000 0.0000 0.0000 1.0000 0.0000 0.0000)">
</g>
<g transform="matrix(0.0625 0.0000 0.0000 0.0625 0.0000 0.0000)">
<path d="M 1277.0000,5154.0000 L 1357.0000,5154.0000 " stroke="#000000" stroke-width="16.0000"  stroke-linecap="butt"  stroke-linejoin="miter"  stroke-miterlimit="10.0000" fill="none" />
</g>
<g transform="matrix(1.0000 0.0000 0.0000 1.0000 0.0000 0.0000)">
<text font-family="Arial" fill="#000000" style ="white-space:pre;" font-weight="400" text-anchor="start" x="47.0000" y="326.0000" font-size="14.0000" ><![CDATA[0]]></text>
</g>
<g transform="matrix(0.0625 0.0000 0.0000 0.0625 0.0000 0.0000)">
<path d="M 1277.0000,4652.0000 L 1197.0000,4652.0000 " stroke="#000000" stroke-width="16.0000"  stroke-linecap="butt"  stroke-linejoin="miter"  stroke-miterlimit="10.0000" fill="none" />
</g>
<g transform="matrix(1.0000 0.0000 0.0000 1.0000 0.0000 0.0000)">
</g>
<g transform="matrix(0.0625 0.0000 0.0000 0.0625 0.0000 0.0000)">
<path d="M 1277.0000,4652.0000 L 1357.0000,4652.0000 " stroke="#000000" stroke-width="16.0000"  stroke-linecap="butt"  stroke-linejoin="miter"  stroke-miterlimit="10.0000" fill="none" />
</g>
<g transform="matrix(1.0000 0.0000 0.0000 1.0000 0.0000 0.0000)">
<text font-family="Arial" fill="#000000" style ="white-space:pre;" font-weight="400" text-anchor="start" x="35.0000" y="295.0000" font-size="14.0000" ><![CDATA[1000]]></text>
</g>
<g transform="matrix(0.0625 0.0000 0.0000 0.0625 0.0000 0.0000)">
<path d="M 1277.0000,4151.0000 L 1197.0000,4151.0000 " stroke="#000000" stroke-width="16.0000"  stroke-linecap="butt"  stroke-linejoin="miter"  stroke-miterlimit="10.0000" fill="none" />
</g>
<g transform="matrix(1.0000 0.0000 0.0000 1.0000 0.0000 0.0000)">
</g>
<g transform="matrix(0.0625 0.0000 0.0000 0.0625 0.0000 0.0000)">
<path d="M 1277.0000,4151.0000 L 1357.0000,4151.0000 " stroke="#000000" stroke-width="16.0000"  stroke-linecap="butt"  stroke-linejoin="miter"  stroke-miterlimit="10.0000" fill="none" />
</g>
<g transform="matrix(1.0000 0.0000 0.0000 1.0000 0.0000 0.0000)">
<text font-family="Arial" fill="#000000" style ="white-space:pre;" font-weight="400" text-anchor="start" x="35.0000" y="263.0000" font-size="14.0000" ><![CDATA[2000]]></text>
</g>
<g transform="matrix(0.0625 0.0000 0.0000 0.0625 0.0000 0.0000)">
<path d="M 1277.0000,3649.0000 L 1197.0000,3649.0000 " stroke="#000000" stroke-width="16.0000"  stroke-linecap="butt"  stroke-linejoin="miter"  stroke-miterlimit="10.0000" fill="none" />
</g>
<g transform="matrix(1.0000 0.0000 0.0000 1.0000 0.0000 0.0000)">
</g>
<g transform="matrix(0.0625 0.0000 0.0000 0.0625 0.0000 0.0000)">
<path d="M 1277.0000,3649.0000 L 1357.0000,3649.0000 " stroke="#000000" stroke-width="16.0000"  stroke-linecap="butt"  stroke-linejoin="miter"  stroke-miterlimit="10.0000" fill="none" />
</g>
<g transform="matrix(1.0000 0.0000 0.0000 1.0000 0.0000 0.0000)">
<text font-family="Arial" fill="#000000" style ="white-space:pre;" font-weight="400" text-anchor="start" x="35.0000" y="232.0000" font-size="14.0000" ><![CDATA[3000]]></text>
</g>
<g transform="matrix(0.0625 0.0000 0.0000 0.0625 0.0000 0.0000)">
<path d="M 1277.0000,3147.0000 L 1197.0000,3147.0000 " stroke="#000000" stroke-width="16.0000"  stroke-linecap="butt"  stroke-linejoin="miter"  stroke-miterlimit="10.0000" fill="none" />
</g>
<g transform="matrix(1.0000 0.0000 0.0000 1.0000 0.0000 0.0000)">
</g>
<g transform="matrix(0.0625 0.0000 0.0000 0.0625 0.0000 0.0000)">
<path d="M 1277.0000,3147.0000 L 1357.0000,3147.0000 " stroke="#000000" stroke-width="16.0000"  stroke-linecap="butt"  stroke-linejoin="miter"  stroke-miterlimit="10.0000" fill="none" />
</g>
<g transform="matrix(1.0000 0.0000 0.0000 1.0000 0.0000 0.0000)">
<text font-family="Arial" fill="#000000" style ="white-space:pre;" font-weight="400" text-anchor="start" x="35.0000" y="201.0000" font-size="14.0000" ><![CDATA[4000]]></text>
</g>
<g transform="matrix(0.0625 0.0000 0.0000 0.0625 0.0000 0.0000)">
<path d="M 1277.0000,2646.0000 L 1197.0000,2646.0000 " stroke="#000000" stroke-width="16.0000"  stroke-linecap="butt"  stroke-linejoin="miter"  stroke-miterlimit="10.0000" fill="none" />
</g>
<g transform="matrix(1.0000 0.0000 0.0000 1.0000 0.0000 0.0000)">
</g>
<g transform="matrix(0.0625 0.0000 0.0000 0.0625 0.0000 0.0000)">
<path d="M 1277.0000,2646.0000 L 1357.0000,2646.0000 " stroke="#000000" stroke-width="16.0000"  stroke-linecap="butt"  stroke-linejoin="miter"  stroke-miterlimit="10.0000" fill="none" />
</g>
<g transform="matrix(1.0000 0.0000 0.0000 1.0000 0.0000 0.0000)">
<text font-family="Arial" fill="#000000" style ="white-space:pre;" font-weight="400" text-anchor="start" x="35.0000" y="169.0000" font-size="14.0000" ><![CDATA[5000]]></text>
</g>
<g transform="matrix(0.0625 0.0000 0.0000 0.0625 0.0000 0.0000)">
<path d="M 1277.0000,2144.0000 L 1197.0000,2144.0000 " stroke="#000000" stroke-width="16.0000"  stroke-linecap="butt"  stroke-linejoin="miter"  stroke-miterlimit="10.0000" fill="none" />
</g>
<g transform="matrix(1.0000 0.0000 0.0000 1.0000 0.0000 0.0000)">
</g>
<g transform="matrix(0.0625 0.0000 0.0000 0.0625 0.0000 0.0000)">
<path d="M 1277.0000,2144.0000 L 1357.0000,2144.0000 " stroke="#000000" stroke-width="16.0000"  stroke-linecap="butt"  stroke-linejoin="miter"  stroke-miterlimit="10.0000" fill="none" />
</g>
<g transform="matrix(1.0000 0.0000 0.0000 1.0000 0.0000 0.0000)">
<text font-family="Arial" fill="#000000" style ="white-space:pre;" font-weight="400" text-anchor="start" x="35.0000" y="138.0000" font-size="14.0000" ><![CDATA[6000]]></text>
</g>
<g transform="matrix(0.0625 0.0000 0.0000 0.0625 0.0000 0.0000)">
<path d="M 1277.0000,1642.0000 L 1197.0000,1642.0000 " stroke="#000000" stroke-width="16.0000"  stroke-linecap="butt"  stroke-linejoin="miter"  stroke-miterlimit="10.0000" fill="none" />
</g>
<g transform="matrix(1.0000 0.0000 0.0000 1.0000 0.0000 0.0000)">
</g>
<g transform="matrix(0.0625 0.0000 0.0000 0.0625 0.0000 0.0000)">
<path d="M 1277.0000,1642.0000 L 1357.0000,1642.0000 " stroke="#000000" stroke-width="16.0000"  stroke-linecap="butt"  stroke-linejoin="miter"  stroke-miterlimit="10.0000" fill="none" />
</g>
<g transform="matrix(1.0000 0.0000 0.0000 1.0000 0.0000 0.0000)">
<text font-family="Arial" fill="#000000" style ="white-space:pre;" font-weight="400" text-anchor="start" x="35.0000" y="107.0000" font-size="14.0000" ><![CDATA[7000]]></text>
</g>
<g transform="matrix(0.0625 0.0000 0.0000 0.0625 0.0000 0.0000)">
<path d="M 1277.0000,1141.0000 L 1197.0000,1141.0000 " stroke="#000000" stroke-width="16.0000"  stroke-linecap="butt"  stroke-linejoin="miter"  stroke-miterlimit="10.0000" fill="none" />
</g>
<g transform="matrix(1.0000 0.0000 0.0000 1.0000 0.0000 0.0000)">
</g>
<g transform="matrix(0.0625 0.0000 0.0000 0.0625 0.0000 0.0000)">
<path d="M 1277.0000,1141.0000 L 1357.0000,1141.0000 " stroke="#000000" stroke-width="16.0000"  stroke-linecap="butt"  stroke-linejoin="miter"  stroke-miterlimit="10.0000" fill="none" />
</g>
<g transform="matrix(1.0000 0.0000 0.0000 1.0000 0.0000 0.0000)">
<text font-family="Arial" fill="#000000" style ="white-space:pre;" font-weight="400" text-anchor="start" x="35.0000" y="75.0000" font-size="14.0000" ><![CDATA[8000]]></text>
</g>
<g transform="matrix(0.0625 0.0000 0.0000 0.0625 0.0000 0.0000)">
<path d="M 1277.0000,639.0000 L 1197.0000,639.0000 " stroke="#000000" stroke-width="16.0000"  stroke-linecap="butt"  stroke-linejoin="miter"  stroke-miterlimit="10.0000" fill="none" />
</g>
<g transform="matrix(1.0000 0.0000 0.0000 1.0000 0.0000 0.0000)">
</g>
<g transform="matrix(0.0625 0.0000 0.0000 0.0625 0.0000 0.0000)">
<path d="M 1277.0000,639.0000 L 1357.0000,639.0000 " stroke="#000000" stroke-width="16.0000"  stroke-linecap="butt"  stroke-linejoin="miter"  stroke-miterlimit="10.0000" fill="none" />
</g>
<g transform="matrix(1.0000 0.0000 0.0000 1.0000 0.0000 0.0000)">
<text font-family="Arial" fill="#000000" style ="white-space:pre;" font-weight="400" text-anchor="start" x="35.0000" y="44.0000" font-size="14.0000" ><![CDATA[9000]]></text>
<text font-family="Arial" fill="#000000" transform="rotate(-90, 23.0000, 223.6000) translate(0, 12.6000)" style ="white-space:pre;" font-weight="700" text-anchor="start" x="23.0000" y="211.0000" font-size="14.0000" ><![CDATA[I]]></text>
<text font-family="Arial" fill="#000000" transform="rotate(-90, 23.0000, 219.6000) translate(0, 12.6000)" style ="white-space:pre;" font-weight="700" text-anchor="start" x="23.0000" y="207.0000" font-size="14.0000" ><![CDATA[n]]></text>
<text font-family="Arial" fill="#000000" transform="rotate(-90, 23.0000, 209.6000) translate(0, 12.6000)" style ="white-space:pre;" font-weight="700" text-anchor="start" x="23.0000" y="197.0000" font-size="14.0000" ><![CDATA[t]]></text>
<text font-family="Arial" fill="#000000" transform="rotate(-90, 23.0000, 205.6000) translate(0, 12.6000)" style ="white-space:pre;" font-weight="700" text-anchor="start" x="23.0000" y="193.0000" font-size="14.0000" ><![CDATA[e]]></text>
<text font-family="Arial" fill="#000000" transform="rotate(-90, 23.0000, 197.6000) translate(0, 12.6000)" style ="white-space:pre;" font-weight="700" text-anchor="start" x="23.0000" y="185.0000" font-size="14.0000" ><![CDATA[n]]></text>
<text font-family="Arial" fill="#000000" transform="rotate(-90, 23.0000, 188.6000) translate(0, 12.6000)" style ="white-space:pre;" font-weight="700" text-anchor="start" x="23.0000" y="176.0000" font-size="14.0000" ><![CDATA[s]]></text>
<text font-family="Arial" fill="#000000" transform="rotate(-90, 23.0000, 180.6000) translate(0, 12.6000)" style ="white-space:pre;" font-weight="700" text-anchor="start" x="23.0000" y="168.0000" font-size="14.0000" ><![CDATA[i]]></text>
<text font-family="Arial" fill="#000000" transform="rotate(-90, 23.0000, 176.6000) translate(0, 12.6000)" style ="white-space:pre;" font-weight="700" text-anchor="start" x="23.0000" y="164.0000" font-size="14.0000" ><![CDATA[t]]></text>
<text font-family="Arial" fill="#000000" transform="rotate(-90, 23.0000, 171.6000) translate(0, 12.6000)" style ="white-space:pre;" font-weight="700" text-anchor="start" x="23.0000" y="159.0000" font-size="14.0000" ><![CDATA[y]]></text>
</g>
<g transform="matrix(0.0625 0.0000 0.0000 0.0625 0.0000 0.0000)">
<path d="M 6448.0000,3773.0000 L 6448.0000,3977.0000 L 7380.0000,3977.0000 L 7380.0000,3773.0000 L 6448.0000,3773.0000 Z" stroke-width="1px" stroke="#FFFFFF"  fill="#FFFFFF" />
</g>
<g transform="matrix(1.0000 0.0000 0.0000 1.0000 0.0000 0.0000)">
<text font-family="Arial" fill="#0000FF" style ="white-space:pre;" font-weight="400" text-anchor="start" x="405.0000" y="246.0000" font-size="10.0000" ><![CDATA[y10 (rank 3)]]></text>
</g>
<g transform="matrix(0.0625 0.0000 0.0000 0.0625 0.0000 0.0000)">
<path d="M 6182.0000,4403.0000 L 6182.0000,4607.0000 L 7023.0000,4607.0000 L 7023.0000,4403.0000 L 6182.0000,4403.0000 Z" stroke-width="1px" stroke="#FFFFFF"  fill="#FFFFFF" />
</g>
<g transform="matrix(1.0000 0.0000 0.0000 1.0000 0.0000 0.0000)">
<text font-family="Arial" fill="#0000FF" style ="white-space:pre;" font-weight="400" text-anchor="start" x="389.0000" y="285.0000" font-size="10.0000" ><![CDATA[y9 (rank 4)]]></text>
</g>
<g transform="matrix(0.0625 0.0000 0.0000 0.0625 0.0000 0.0000)">
<path d="M 5631.0000,3212.0000 L 5631.0000,3416.0000 L 6472.0000,3416.0000 L 6472.0000,3212.0000 L 5631.0000,3212.0000 Z" stroke-width="1px" stroke="#FFFFFF"  fill="#FFFFFF" />
</g>
<g transform="matrix(1.0000 0.0000 0.0000 1.0000 0.0000 0.0000)">
<text font-family="Arial" fill="#0000FF" style ="white-space:pre;" font-weight="400" text-anchor="start" x="354.0000" y="211.0000" font-size="10.0000" ><![CDATA[y8 (rank 2)]]></text>
</g>
<g transform="matrix(0.0625 0.0000 0.0000 0.0625 0.0000 0.0000)">
<path d="M 5013.0000,836.0000 L 5013.0000,1040.0000 L 5854.0000,1040.0000 L 5854.0000,836.0000 L 5013.0000,836.0000 Z" stroke-width="1px" stroke="#FFFFFF"  fill="#FFFFFF" />
</g>
<g transform="matrix(1.0000 0.0000 0.0000 1.0000 0.0000 0.0000)">
<text font-family="Arial" fill="#0000FF" style ="white-space:pre;" font-weight="400" text-anchor="start" x="316.0000" y="62.0000" font-size="10.0000" ><![CDATA[y7 (rank 1)]]></text>
<defs><clipPath id="clip-15724"><path d="M 80.0000,40.0000 L 609.0000,40.0000 L 609.0000,323.0000 L 80.0000,323.0000 L 80.0000,40.0000 Z Z" /></clipPath></defs>
</g>
<g transform="matrix(0.0625 0.0000 0.0000 0.0625 0.0000 0.0000)">
<path  clip-path="url(#clip-15724)" d="M 6914.0000,4057.0000 L 6914.0000,5154.0000 " stroke="#0000FF" stroke-width="32.0000"  stroke-linecap="butt"  stroke-linejoin="miter"  stroke-miterlimit="10.0000" fill="none" />
</g>
<g transform="matrix(1.0000 0.0000 0.0000 1.0000 0.0000 0.0000)">
<defs><clipPath id="clip-11478"><path d="M 80.0000,40.0000 L 609.0000,40.0000 L 609.0000,323.0000 L 80.0000,323.0000 L 80.0000,40.0000 Z Z" /></clipPath></defs>
</g>
<g transform="matrix(0.0625 0.0000 0.0000 0.0625 0.0000 0.0000)">
<path  clip-path="url(#clip-11478)" d="M 6603.0000,4687.0000 L 6603.0000,5154.0000 " stroke="#0000FF" stroke-width="32.0000"  stroke-linecap="butt"  stroke-linejoin="miter"  stroke-miterlimit="10.0000" fill="none" />
</g>
<g transform="matrix(1.0000 0.0000 0.0000 1.0000 0.0000 0.0000)">
<defs><clipPath id="clip-29358"><path d="M 80.0000,40.0000 L 609.0000,40.0000 L 609.0000,323.0000 L 80.0000,323.0000 L 80.0000,40.0000 Z Z" /></clipPath></defs>
</g>
<g transform="matrix(0.0625 0.0000 0.0000 0.0625 0.0000 0.0000)">
<path  clip-path="url(#clip-29358)" d="M 6051.0000,3496.0000 L 6051.0000,5154.0000 " stroke="#0000FF" stroke-width="32.0000"  stroke-linecap="butt"  stroke-linejoin="miter"  stroke-miterlimit="10.0000" fill="none" />
</g>
<g transform="matrix(1.0000 0.0000 0.0000 1.0000 0.0000 0.0000)">
<defs><clipPath id="clip-26962"><path d="M 80.0000,40.0000 L 609.0000,40.0000 L 609.0000,323.0000 L 80.0000,323.0000 L 80.0000,40.0000 Z Z" /></clipPath></defs>
</g>
<g transform="matrix(0.0625 0.0000 0.0000 0.0625 0.0000 0.0000)">
<path  clip-path="url(#clip-26962)" d="M 5434.0000,1120.0000 L 5434.0000,5154.0000 " stroke="#0000FF" stroke-width="32.0000"  stroke-linecap="butt"  stroke-linejoin="miter"  stroke-miterlimit="10.0000" fill="none" />
</g>
<g transform="matrix(1.0000 0.0000 0.0000 1.0000 0.0000 0.0000)">
</g>
</g>
</svg>
