<?xml version="1.0"  encoding="UTF-8" standalone="no"?>
<svg version="1.1" xmlns="http://www.w3.org/2000/svg" xmlns:xlink="http://www.w3.org/1999/xlink" width="725.0000" height="556.0000">
<g transform="translate(2.0000, -6.0000)">
<g transform="matrix(1.0000 0.0000 0.0000 1.0000 13.3919 27.1087)">
<text font-family="Calibri" fill="#000000" style ="white-space:pre;" font-weight="400" text-anchor="start" x="0.0000" y="0.0000" font-size="21.0000" ><![CDATA[Serum Sample ]]></text>
</g>
<g transform="matrix(1.0000 0.0000 0.0000 1.0000 142.3919 27.1087)">
<text font-family="Calibri" fill="#000000" style ="white-space:pre;" font-weight="400" text-anchor="start" x="0.0000" y="0.0000" font-size="21.0000" ><![CDATA[Injection Sequence]]></text>
</g>
<g transform="matrix(0.0625 0.0000 0.0000 0.0625 0.0000 0.0000)">
<path d="M 0.0000,0.0000 M 400.0000,920.0000 C 400.0000,837.0000 469.0000,768.0000 552.0000,768.0000 C 636.0000,768.0000 704.0000,837.0000 704.0000,920.0000 C 704.0000,1004.0000 636.0000,1072.0000 552.0000,1072.0000 C 469.0000,1072.0000 400.0000,1004.0000 400.0000,920.0000 " stroke="#000000" stroke-width="16.0000"  stroke-linecap="butt"  stroke-linejoin="miter"  stroke-miterlimit="8.0000"  fill="none" />
</g>
<g transform="matrix(1.0000 0.0000 0.0000 1.0000 0.0000 0.0000)">
</g>
<g transform="matrix(0.0625 0.0000 0.0000 0.0625 0.0000 0.0000)">
<path d="M 400.0000,1336.0000 C 400.0000,1253.0000 469.0000,1184.0000 552.0000,1184.0000 C 636.0000,1184.0000 704.0000,1253.0000 704.0000,1336.0000 C 704.0000,1420.0000 636.0000,1488.0000 552.0000,1488.0000 C 469.0000,1488.0000 400.0000,1420.0000 400.0000,1336.0000 "  fill="#D9D9D9" stroke="none" />
</g>
<g transform="matrix(1.0000 0.0000 0.0000 1.0000 0.0000 0.0000)">
</g>
<g transform="matrix(0.0625 0.0000 0.0000 0.0625 0.0000 0.0000)">
<path d="M 400.0000,1336.0000 M 400.0000,1336.0000 C 400.0000,1253.0000 469.0000,1184.0000 552.0000,1184.0000 C 636.0000,1184.0000 704.0000,1253.0000 704.0000,1336.0000 C 704.0000,1420.0000 636.0000,1488.0000 552.0000,1488.0000 C 469.0000,1488.0000 400.0000,1420.0000 400.0000,1336.0000 " stroke="#000000" stroke-width="16.0000"  stroke-linecap="butt"  stroke-linejoin="miter"  stroke-miterlimit="8.0000"  fill="none" />
</g>
<g transform="matrix(1.0000 0.0000 0.0000 1.0000 0.0000 0.0000)">
</g>
<g transform="matrix(0.0625 0.0000 0.0000 0.0625 0.0000 0.0000)">
<path d="M 400.0000,1736.0000 C 400.0000,1653.0000 469.0000,1584.0000 552.0000,1584.0000 C 636.0000,1584.0000 704.0000,1653.0000 704.0000,1736.0000 C 704.0000,1820.0000 636.0000,1888.0000 552.0000,1888.0000 C 469.0000,1888.0000 400.0000,1820.0000 400.0000,1736.0000 "  fill="#7030A0" stroke="none" />
</g>
<g transform="matrix(1.0000 0.0000 0.0000 1.0000 0.0000 0.0000)">
</g>
<g transform="matrix(0.0625 0.0000 0.0000 0.0625 0.0000 0.0000)">
<path d="M 400.0000,1736.0000 M 400.0000,1736.0000 C 400.0000,1653.0000 469.0000,1584.0000 552.0000,1584.0000 C 636.0000,1584.0000 704.0000,1653.0000 704.0000,1736.0000 C 704.0000,1820.0000 636.0000,1888.0000 552.0000,1888.0000 C 469.0000,1888.0000 400.0000,1820.0000 400.0000,1736.0000 " stroke="#000000" stroke-width="16.0000"  stroke-linecap="butt"  stroke-linejoin="miter"  stroke-miterlimit="8.0000"  fill="none" />
</g>
<g transform="matrix(1.0000 0.0000 0.0000 1.0000 0.0000 0.0000)">
</g>
<g transform="matrix(0.0625 0.0000 0.0000 0.0625 0.0000 0.0000)">
<path d="M 400.0000,2176.0000 C 400.0000,2097.0000 469.0000,2032.0000 552.0000,2032.0000 C 636.0000,2032.0000 704.0000,2097.0000 704.0000,2176.0000 C 704.0000,2256.0000 636.0000,2320.0000 552.0000,2320.0000 C 469.0000,2320.0000 400.0000,2256.0000 400.0000,2176.0000 "  fill="#2E75B6" stroke="none" />
</g>
<g transform="matrix(1.0000 0.0000 0.0000 1.0000 0.0000 0.0000)">
</g>
<g transform="matrix(0.0625 0.0000 0.0000 0.0625 0.0000 0.0000)">
<path d="M 400.0000,2176.0000 M 400.0000,2176.0000 C 400.0000,2097.0000 469.0000,2032.0000 552.0000,2032.0000 C 636.0000,2032.0000 704.0000,2097.0000 704.0000,2176.0000 C 704.0000,2256.0000 636.0000,2320.0000 552.0000,2320.0000 C 469.0000,2320.0000 400.0000,2256.0000 400.0000,2176.0000 " stroke="#000000" stroke-width="16.0000"  stroke-linecap="butt"  stroke-linejoin="miter"  stroke-miterlimit="8.0000"  fill="none" />
</g>
<g transform="matrix(1.0000 0.0000 0.0000 1.0000 0.0000 0.0000)">
</g>
<g transform="matrix(0.0625 0.0000 0.0000 0.0625 0.0000 0.0000)">
<path d="M 48.0000,2176.0000 C 48.0000,2097.0000 117.0000,2032.0000 200.0000,2032.0000 C 284.0000,2032.0000 352.0000,2097.0000 352.0000,2176.0000 C 352.0000,2256.0000 284.0000,2320.0000 200.0000,2320.0000 C 117.0000,2320.0000 48.0000,2256.0000 48.0000,2176.0000 "  fill="#9DC3E6" stroke="none" />
</g>
<g transform="matrix(1.0000 0.0000 0.0000 1.0000 0.0000 0.0000)">
<defs><clipPath id="clip-41"><path d="M 0.0000,0.0000 L 737.0000,0.0000 L 737.0000,590.0000 L 0.0000,590.0000 L 0.0000,0.0000 Z Z" /></clipPath></defs>
</g>
<g transform="matrix(0.0625 0.0000 0.0000 0.0625 0.0000 0.0000)">
<path  clip-path="url(#clip-41)" d="M 48.0000,2176.0000 M 48.0000,2176.0000 C 48.0000,2097.0000 117.0000,2032.0000 200.0000,2032.0000 C 284.0000,2032.0000 352.0000,2097.0000 352.0000,2176.0000 C 352.0000,2256.0000 284.0000,2320.0000 200.0000,2320.0000 C 117.0000,2320.0000 48.0000,2256.0000 48.0000,2176.0000 " stroke="#000000" stroke-width="16.0000"  stroke-linecap="butt"  stroke-linejoin="miter"  stroke-miterlimit="8.0000"  fill="none" />
</g>
<g transform="matrix(1.0000 0.0000 0.0000 1.0000 0.0000 0.0000)">
</g>
<g transform="matrix(0.0625 0.0000 0.0000 0.0625 0.0000 0.0000)">
<path d="M 736.0000,2176.0000 C 736.0000,2097.0000 808.0000,2032.0000 896.0000,2032.0000 C 985.0000,2032.0000 1056.0000,2097.0000 1056.0000,2176.0000 C 1056.0000,2256.0000 985.0000,2320.0000 896.0000,2320.0000 C 808.0000,2320.0000 736.0000,2256.0000 736.0000,2176.0000 "  fill="#1F4E79" stroke="none" />
</g>
<g transform="matrix(1.0000 0.0000 0.0000 1.0000 0.0000 0.0000)">
</g>
<g transform="matrix(0.0625 0.0000 0.0000 0.0625 0.0000 0.0000)">
<path d="M 736.0000,2176.0000 M 736.0000,2176.0000 C 736.0000,2097.0000 808.0000,2032.0000 896.0000,2032.0000 C 985.0000,2032.0000 1056.0000,2097.0000 1056.0000,2176.0000 C 1056.0000,2256.0000 985.0000,2320.0000 896.0000,2320.0000 C 808.0000,2320.0000 736.0000,2256.0000 736.0000,2176.0000 " stroke="#000000" stroke-width="16.0000"  stroke-linecap="butt"  stroke-linejoin="miter"  stroke-miterlimit="8.0000"  fill="none" />
</g>
<g transform="matrix(1.0000 0.0000 0.0000 1.0000 0.0000 0.0000)">
</g>
<g transform="matrix(0.0625 0.0000 0.0000 0.0625 0.0000 0.0000)">
<path d="M 400.0000,2568.0000 C 400.0000,2485.0000 469.0000,2416.0000 552.0000,2416.0000 C 636.0000,2416.0000 704.0000,2485.0000 704.0000,2568.0000 C 704.0000,2652.0000 636.0000,2720.0000 552.0000,2720.0000 C 469.0000,2720.0000 400.0000,2652.0000 400.0000,2568.0000 "  fill="#C55A11" stroke="none" />
</g>
<g transform="matrix(1.0000 0.0000 0.0000 1.0000 0.0000 0.0000)">
</g>
<g transform="matrix(0.0625 0.0000 0.0000 0.0625 0.0000 0.0000)">
<path d="M 400.0000,2568.0000 M 400.0000,2568.0000 C 400.0000,2485.0000 469.0000,2416.0000 552.0000,2416.0000 C 636.0000,2416.0000 704.0000,2485.0000 704.0000,2568.0000 C 704.0000,2652.0000 636.0000,2720.0000 552.0000,2720.0000 C 469.0000,2720.0000 400.0000,2652.0000 400.0000,2568.0000 " stroke="#000000" stroke-width="16.0000"  stroke-linecap="butt"  stroke-linejoin="miter"  stroke-miterlimit="8.0000"  fill="none" />
</g>
<g transform="matrix(1.0000 0.0000 0.0000 1.0000 0.0000 0.0000)">
</g>
<g transform="matrix(0.0625 0.0000 0.0000 0.0625 0.0000 0.0000)">
<path d="M 400.0000,2984.0000 C 400.0000,2901.0000 469.0000,2832.0000 552.0000,2832.0000 C 636.0000,2832.0000 704.0000,2901.0000 704.0000,2984.0000 C 704.0000,3068.0000 636.0000,3136.0000 552.0000,3136.0000 C 469.0000,3136.0000 400.0000,3068.0000 400.0000,2984.0000 "  fill="#FFC000" stroke="none" />
</g>
<g transform="matrix(1.0000 0.0000 0.0000 1.0000 0.0000 0.0000)">
</g>
<g transform="matrix(0.0625 0.0000 0.0000 0.0625 0.0000 0.0000)">
<path d="M 400.0000,2984.0000 M 400.0000,2984.0000 C 400.0000,2901.0000 469.0000,2832.0000 552.0000,2832.0000 C 636.0000,2832.0000 704.0000,2901.0000 704.0000,2984.0000 C 704.0000,3068.0000 636.0000,3136.0000 552.0000,3136.0000 C 469.0000,3136.0000 400.0000,3068.0000 400.0000,2984.0000 " stroke="#000000" stroke-width="16.0000"  stroke-linecap="butt"  stroke-linejoin="miter"  stroke-miterlimit="8.0000"  fill="none" />
</g>
<g transform="matrix(1.0000 0.0000 0.0000 1.0000 0.0000 0.0000)">
</g>
<g transform="matrix(1.0000 0.0000 0.0000 1.0000 31.3080 190.7277)">
<text font-family="Calibri" fill="#000000" style ="white-space:pre;" font-weight="700" text-anchor="start" x="0.0000" y="0.0000" font-size="13.0000" ><![CDATA[1]]></text>
</g>
<g transform="matrix(1.0000 0.0000 0.0000 1.0000 77.8240 63.7339)">
<text font-family="Calibri" fill="#000000" style ="white-space:pre;" font-weight="400" text-anchor="start" x="0.0000" y="0.0000" font-size="21.0000" ><![CDATA[double blank]]></text>
</g>
<g transform="matrix(1.0000 0.0000 0.0000 1.0000 77.8240 89.7339)">
<text font-family="Calibri" fill="#000000" style ="white-space:pre;" font-weight="400" text-anchor="start" x="0.0000" y="0.0000" font-size="21.0000" ><![CDATA[PBS ‘zero’ samples]]></text>
</g>
<g transform="matrix(1.0000 0.0000 0.0000 1.0000 77.8240 114.7339)">
<text font-family="Calibri" fill="#000000" style ="white-space:pre;" font-weight="400" text-anchor="start" x="0.0000" y="0.0000" font-size="21.0000" ><![CDATA[Calibration curve Low to High]]></text>
</g>
<g transform="matrix(1.0000 0.0000 0.0000 1.0000 77.8240 140.7339)">
<text font-family="Calibri" fill="#000000" style ="white-space:pre;" font-weight="400" text-anchor="start" x="0.0000" y="0.0000" font-size="21.0000" ><![CDATA[Low, Mid, High QC Samples]]></text>
</g>
<g transform="matrix(1.0000 0.0000 0.0000 1.0000 77.8240 165.7339)">
<text font-family="Calibri" fill="#000000" style ="white-space:pre;" font-weight="400" text-anchor="start" x="0.0000" y="0.0000" font-size="21.0000" ><![CDATA[Global Reference QC]]></text>
</g>
<g transform="matrix(1.0000 0.0000 0.0000 1.0000 77.8240 191.7339)">
<text font-family="Calibri" fill="#000000" style ="white-space:pre;" font-weight="400" text-anchor="start" x="0.0000" y="0.0000" font-size="21.0000" ><![CDATA[4765 Serum SPQC]]></text>
</g>
<g transform="matrix(1.0000 0.0000 0.0000 1.0000 77.8240 217.7339)">
<text font-family="Calibri" fill="#000000" style ="white-space:pre;" font-weight="400" text-anchor="start" x="0.0000" y="0.0000" font-size="21.0000" ><![CDATA[NIST SRM 1950]]></text>
</g>
<g transform="matrix(1.0000 0.0000 0.0000 1.0000 77.8240 242.7339)">
<text font-family="Calibri" fill="#000000" style ="white-space:pre;" font-weight="400" text-anchor="start" x="0.0000" y="0.0000" font-size="21.0000" ><![CDATA[Study Samples 1 to 38]]></text>
</g>
<g transform="matrix(1.0000 0.0000 0.0000 1.0000 77.8240 268.7339)">
<text font-family="Calibri" fill="#000000" style ="white-space:pre;" font-weight="400" text-anchor="start" x="0.0000" y="0.0000" font-size="21.0000" ><![CDATA[Low, Mid, High QC Samples]]></text>
</g>
<g transform="matrix(1.0000 0.0000 0.0000 1.0000 77.8240 293.7339)">
<text font-family="Calibri" fill="#000000" style ="white-space:pre;" font-weight="400" text-anchor="start" x="0.0000" y="0.0000" font-size="21.0000" ><![CDATA[Global Reference QC]]></text>
</g>
<g transform="matrix(1.0000 0.0000 0.0000 1.0000 77.8240 319.7339)">
<text font-family="Calibri" fill="#000000" style ="white-space:pre;" font-weight="400" text-anchor="start" x="0.0000" y="0.0000" font-size="21.0000" ><![CDATA[4765 Serum SPQC]]></text>
</g>
<g transform="matrix(1.0000 0.0000 0.0000 1.0000 77.8240 345.7339)">
<text font-family="Calibri" fill="#000000" style ="white-space:pre;" font-weight="400" text-anchor="start" x="0.0000" y="0.0000" font-size="21.0000" ><![CDATA[Study Samples 39 to 76]]></text>
</g>
<g transform="matrix(1.0000 0.0000 0.0000 1.0000 77.8240 370.7339)">
<text font-family="Calibri" fill="#000000" style ="white-space:pre;" font-weight="400" text-anchor="start" x="0.0000" y="0.0000" font-size="21.0000" ><![CDATA[Global Reference QC]]></text>
</g>
<g transform="matrix(1.0000 0.0000 0.0000 1.0000 77.8240 396.7339)">
<text font-family="Calibri" fill="#000000" style ="white-space:pre;" font-weight="400" text-anchor="start" x="0.0000" y="0.0000" font-size="21.0000" ><![CDATA[4765 Serum SPQC]]></text>
</g>
<g transform="matrix(1.0000 0.0000 0.0000 1.0000 77.8240 421.7339)">
<text font-family="Calibri" fill="#000000" style ="white-space:pre;" font-weight="400" text-anchor="start" x="0.0000" y="0.0000" font-size="21.0000" ><![CDATA[NIST SRM 1950]]></text>
</g>
<g transform="matrix(1.0000 0.0000 0.0000 1.0000 77.8240 447.7339)">
<text font-family="Calibri" fill="#000000" style ="white-space:pre;" font-weight="400" text-anchor="start" x="0.0000" y="0.0000" font-size="21.0000" ><![CDATA[High, Mid, Low QC Samples]]></text>
</g>
<g transform="matrix(1.0000 0.0000 0.0000 1.0000 77.8240 473.7339)">
<text font-family="Calibri" fill="#000000" style ="white-space:pre;" font-weight="400" text-anchor="start" x="0.0000" y="0.0000" font-size="21.0000" ><![CDATA[Calibration Curve Low to High]]></text>
</g>
<g transform="matrix(0.0625 0.0000 0.0000 0.0625 0.0000 0.0000)">
<path d="M 400.0000,3752.0000 C 400.0000,3669.0000 469.0000,3600.0000 552.0000,3600.0000 C 636.0000,3600.0000 704.0000,3669.0000 704.0000,3752.0000 C 704.0000,3836.0000 636.0000,3904.0000 552.0000,3904.0000 C 469.0000,3904.0000 400.0000,3836.0000 400.0000,3752.0000 "  fill="#A9D18E" stroke="none" />
</g>
<g transform="matrix(1.0000 0.0000 0.0000 1.0000 0.0000 0.0000)">
</g>
<g transform="matrix(0.0625 0.0000 0.0000 0.0625 0.0000 0.0000)">
<path d="M 400.0000,3752.0000 M 400.0000,3752.0000 C 400.0000,3669.0000 469.0000,3600.0000 552.0000,3600.0000 C 636.0000,3600.0000 704.0000,3669.0000 704.0000,3752.0000 C 704.0000,3836.0000 636.0000,3904.0000 552.0000,3904.0000 C 469.0000,3904.0000 400.0000,3836.0000 400.0000,3752.0000 " stroke="#000000" stroke-width="16.0000"  stroke-linecap="butt"  stroke-linejoin="miter"  stroke-miterlimit="8.0000"  fill="none" />
</g>
<g transform="matrix(1.0000 0.0000 0.0000 1.0000 0.0000 0.0000)">
</g>
<g transform="matrix(0.0625 0.0000 0.0000 0.0625 0.0000 0.0000)">
<path d="M 400.0000,3384.0000 C 400.0000,3301.0000 469.0000,3232.0000 552.0000,3232.0000 C 636.0000,3232.0000 704.0000,3301.0000 704.0000,3384.0000 C 704.0000,3468.0000 636.0000,3536.0000 552.0000,3536.0000 C 469.0000,3536.0000 400.0000,3468.0000 400.0000,3384.0000 "  fill="#FFFF00" stroke="none" />
</g>
<g transform="matrix(1.0000 0.0000 0.0000 1.0000 0.0000 0.0000)">
</g>
<g transform="matrix(0.0625 0.0000 0.0000 0.0625 0.0000 0.0000)">
<path d="M 400.0000,3384.0000 M 400.0000,3384.0000 C 400.0000,3301.0000 469.0000,3232.0000 552.0000,3232.0000 C 636.0000,3232.0000 704.0000,3301.0000 704.0000,3384.0000 C 704.0000,3468.0000 636.0000,3536.0000 552.0000,3536.0000 C 469.0000,3536.0000 400.0000,3468.0000 400.0000,3384.0000 " stroke="#000000" stroke-width="16.0000"  stroke-linecap="butt"  stroke-linejoin="miter"  stroke-miterlimit="8.0000"  fill="none" />
</g>
<g transform="matrix(1.0000 0.0000 0.0000 1.0000 0.0000 0.0000)">
</g>
<g transform="matrix(1.0000 0.0000 0.0000 1.0000 31.3080 215.4555)">
<text font-family="Calibri" fill="#000000" style ="white-space:pre;" font-weight="700" text-anchor="start" x="0.0000" y="0.0000" font-size="13.0000" ><![CDATA[1]]></text>
</g>
<g transform="matrix(0.0625 0.0000 0.0000 0.0625 0.0000 0.0000)">
<path d="M 400.0000,4152.0000 C 400.0000,4069.0000 469.0000,4000.0000 552.0000,4000.0000 C 636.0000,4000.0000 704.0000,4069.0000 704.0000,4152.0000 C 704.0000,4236.0000 636.0000,4304.0000 552.0000,4304.0000 C 469.0000,4304.0000 400.0000,4236.0000 400.0000,4152.0000 "  fill="#2E75B6" stroke="none" />
</g>
<g transform="matrix(1.0000 0.0000 0.0000 1.0000 0.0000 0.0000)">
</g>
<g transform="matrix(0.0625 0.0000 0.0000 0.0625 0.0000 0.0000)">
<path d="M 400.0000,4152.0000 M 400.0000,4152.0000 C 400.0000,4069.0000 469.0000,4000.0000 552.0000,4000.0000 C 636.0000,4000.0000 704.0000,4069.0000 704.0000,4152.0000 C 704.0000,4236.0000 636.0000,4304.0000 552.0000,4304.0000 C 469.0000,4304.0000 400.0000,4236.0000 400.0000,4152.0000 " stroke="#000000" stroke-width="16.0000"  stroke-linecap="butt"  stroke-linejoin="miter"  stroke-miterlimit="8.0000"  fill="none" />
</g>
<g transform="matrix(1.0000 0.0000 0.0000 1.0000 0.0000 0.0000)">
</g>
<g transform="matrix(0.0625 0.0000 0.0000 0.0625 0.0000 0.0000)">
<path d="M 48.0000,4152.0000 C 48.0000,4069.0000 117.0000,4000.0000 200.0000,4000.0000 C 284.0000,4000.0000 352.0000,4069.0000 352.0000,4152.0000 C 352.0000,4236.0000 284.0000,4304.0000 200.0000,4304.0000 C 117.0000,4304.0000 48.0000,4236.0000 48.0000,4152.0000 "  fill="#9DC3E6" stroke="none" />
</g>
<g transform="matrix(1.0000 0.0000 0.0000 1.0000 0.0000 0.0000)">
<defs><clipPath id="clip-18467"><path d="M 0.0000,0.0000 L 737.0000,0.0000 L 737.0000,590.0000 L 0.0000,590.0000 L 0.0000,0.0000 Z Z" /></clipPath></defs>
</g>
<g transform="matrix(0.0625 0.0000 0.0000 0.0625 0.0000 0.0000)">
<path  clip-path="url(#clip-18467)" d="M 48.0000,4152.0000 M 48.0000,4152.0000 C 48.0000,4069.0000 117.0000,4000.0000 200.0000,4000.0000 C 284.0000,4000.0000 352.0000,4069.0000 352.0000,4152.0000 C 352.0000,4236.0000 284.0000,4304.0000 200.0000,4304.0000 C 117.0000,4304.0000 48.0000,4236.0000 48.0000,4152.0000 " stroke="#000000" stroke-width="16.0000"  stroke-linecap="butt"  stroke-linejoin="miter"  stroke-miterlimit="8.0000"  fill="none" />
</g>
<g transform="matrix(1.0000 0.0000 0.0000 1.0000 0.0000 0.0000)">
</g>
<g transform="matrix(0.0625 0.0000 0.0000 0.0625 0.0000 0.0000)">
<path d="M 736.0000,4152.0000 C 736.0000,4069.0000 808.0000,4000.0000 896.0000,4000.0000 C 985.0000,4000.0000 1056.0000,4069.0000 1056.0000,4152.0000 C 1056.0000,4236.0000 985.0000,4304.0000 896.0000,4304.0000 C 808.0000,4304.0000 736.0000,4236.0000 736.0000,4152.0000 "  fill="#1F4E79" stroke="none" />
</g>
<g transform="matrix(1.0000 0.0000 0.0000 1.0000 0.0000 0.0000)">
</g>
<g transform="matrix(0.0625 0.0000 0.0000 0.0625 0.0000 0.0000)">
<path d="M 736.0000,4152.0000 M 736.0000,4152.0000 C 736.0000,4069.0000 808.0000,4000.0000 896.0000,4000.0000 C 985.0000,4000.0000 1056.0000,4069.0000 1056.0000,4152.0000 C 1056.0000,4236.0000 985.0000,4304.0000 896.0000,4304.0000 C 808.0000,4304.0000 736.0000,4236.0000 736.0000,4152.0000 " stroke="#000000" stroke-width="16.0000"  stroke-linecap="butt"  stroke-linejoin="miter"  stroke-miterlimit="8.0000"  fill="none" />
</g>
<g transform="matrix(1.0000 0.0000 0.0000 1.0000 0.0000 0.0000)">
</g>
<g transform="matrix(0.0625 0.0000 0.0000 0.0625 0.0000 0.0000)">
<path d="M 400.0000,4552.0000 C 400.0000,4469.0000 469.0000,4400.0000 552.0000,4400.0000 C 636.0000,4400.0000 704.0000,4469.0000 704.0000,4552.0000 C 704.0000,4636.0000 636.0000,4704.0000 552.0000,4704.0000 C 469.0000,4704.0000 400.0000,4636.0000 400.0000,4552.0000 "  fill="#C55A11" stroke="none" />
</g>
<g transform="matrix(1.0000 0.0000 0.0000 1.0000 0.0000 0.0000)">
</g>
<g transform="matrix(0.0625 0.0000 0.0000 0.0625 0.0000 0.0000)">
<path d="M 400.0000,4552.0000 M 400.0000,4552.0000 C 400.0000,4469.0000 469.0000,4400.0000 552.0000,4400.0000 C 636.0000,4400.0000 704.0000,4469.0000 704.0000,4552.0000 C 704.0000,4636.0000 636.0000,4704.0000 552.0000,4704.0000 C 469.0000,4704.0000 400.0000,4636.0000 400.0000,4552.0000 " stroke="#000000" stroke-width="16.0000"  stroke-linecap="butt"  stroke-linejoin="miter"  stroke-miterlimit="8.0000"  fill="none" />
</g>
<g transform="matrix(1.0000 0.0000 0.0000 1.0000 0.0000 0.0000)">
</g>
<g transform="matrix(0.0625 0.0000 0.0000 0.0625 0.0000 0.0000)">
<path d="M 400.0000,4952.0000 C 400.0000,4869.0000 469.0000,4800.0000 552.0000,4800.0000 C 636.0000,4800.0000 704.0000,4869.0000 704.0000,4952.0000 C 704.0000,5036.0000 636.0000,5104.0000 552.0000,5104.0000 C 469.0000,5104.0000 400.0000,5036.0000 400.0000,4952.0000 "  fill="#FFC000" stroke="none" />
</g>
<g transform="matrix(1.0000 0.0000 0.0000 1.0000 0.0000 0.0000)">
</g>
<g transform="matrix(0.0625 0.0000 0.0000 0.0625 0.0000 0.0000)">
<path d="M 400.0000,4952.0000 M 400.0000,4952.0000 C 400.0000,4869.0000 469.0000,4800.0000 552.0000,4800.0000 C 636.0000,4800.0000 704.0000,4869.0000 704.0000,4952.0000 C 704.0000,5036.0000 636.0000,5104.0000 552.0000,5104.0000 C 469.0000,5104.0000 400.0000,5036.0000 400.0000,4952.0000 " stroke="#000000" stroke-width="16.0000"  stroke-linecap="butt"  stroke-linejoin="miter"  stroke-miterlimit="8.0000"  fill="none" />
</g>
<g transform="matrix(1.0000 0.0000 0.0000 1.0000 0.0000 0.0000)">
</g>
<g transform="matrix(1.0000 0.0000 0.0000 1.0000 31.3111 313.4080)">
<text font-family="Calibri" fill="#000000" style ="white-space:pre;" font-weight="700" text-anchor="start" x="0.0000" y="0.0000" font-size="13.0000" ><![CDATA[2]]></text>
</g>
<g transform="matrix(0.0625 0.0000 0.0000 0.0625 0.0000 0.0000)">
<path d="M 400.0000,5368.0000 C 400.0000,5285.0000 469.0000,5216.0000 552.0000,5216.0000 C 636.0000,5216.0000 704.0000,5285.0000 704.0000,5368.0000 C 704.0000,5452.0000 636.0000,5520.0000 552.0000,5520.0000 C 469.0000,5520.0000 400.0000,5452.0000 400.0000,5368.0000 "  fill="#A9D18E" stroke="none" />
</g>
<g transform="matrix(1.0000 0.0000 0.0000 1.0000 0.0000 0.0000)">
</g>
<g transform="matrix(0.0625 0.0000 0.0000 0.0625 0.0000 0.0000)">
<path d="M 400.0000,5368.0000 M 400.0000,5368.0000 C 400.0000,5285.0000 469.0000,5216.0000 552.0000,5216.0000 C 636.0000,5216.0000 704.0000,5285.0000 704.0000,5368.0000 C 704.0000,5452.0000 636.0000,5520.0000 552.0000,5520.0000 C 469.0000,5520.0000 400.0000,5452.0000 400.0000,5368.0000 " stroke="#000000" stroke-width="16.0000"  stroke-linecap="butt"  stroke-linejoin="miter"  stroke-miterlimit="8.0000"  fill="none" />
</g>
<g transform="matrix(1.0000 0.0000 0.0000 1.0000 0.0000 0.0000)">
</g>
<g transform="matrix(0.0625 0.0000 0.0000 0.0625 0.0000 0.0000)">
<path d="M 400.0000,5768.0000 C 400.0000,5685.0000 469.0000,5616.0000 552.0000,5616.0000 C 636.0000,5616.0000 704.0000,5685.0000 704.0000,5768.0000 C 704.0000,5852.0000 636.0000,5920.0000 552.0000,5920.0000 C 469.0000,5920.0000 400.0000,5852.0000 400.0000,5768.0000 "  fill="#C55A11" stroke="none" />
</g>
<g transform="matrix(1.0000 0.0000 0.0000 1.0000 0.0000 0.0000)">
</g>
<g transform="matrix(0.0625 0.0000 0.0000 0.0625 0.0000 0.0000)">
<path d="M 400.0000,5768.0000 M 400.0000,5768.0000 C 400.0000,5685.0000 469.0000,5616.0000 552.0000,5616.0000 C 636.0000,5616.0000 704.0000,5685.0000 704.0000,5768.0000 C 704.0000,5852.0000 636.0000,5920.0000 552.0000,5920.0000 C 469.0000,5920.0000 400.0000,5852.0000 400.0000,5768.0000 " stroke="#000000" stroke-width="16.0000"  stroke-linecap="butt"  stroke-linejoin="miter"  stroke-miterlimit="8.0000"  fill="none" />
</g>
<g transform="matrix(1.0000 0.0000 0.0000 1.0000 0.0000 0.0000)">
</g>
<g transform="matrix(0.0625 0.0000 0.0000 0.0625 0.0000 0.0000)">
<path d="M 400.0000,6616.0000 C 400.0000,6533.0000 469.0000,6464.0000 552.0000,6464.0000 C 636.0000,6464.0000 704.0000,6533.0000 704.0000,6616.0000 C 704.0000,6700.0000 636.0000,6768.0000 552.0000,6768.0000 C 469.0000,6768.0000 400.0000,6700.0000 400.0000,6616.0000 "  fill="#FFFF00" stroke="none" />
</g>
<g transform="matrix(1.0000 0.0000 0.0000 1.0000 0.0000 0.0000)">
</g>
<g transform="matrix(0.0625 0.0000 0.0000 0.0625 0.0000 0.0000)">
<path d="M 400.0000,6616.0000 M 400.0000,6616.0000 C 400.0000,6533.0000 469.0000,6464.0000 552.0000,6464.0000 C 636.0000,6464.0000 704.0000,6533.0000 704.0000,6616.0000 C 704.0000,6700.0000 636.0000,6768.0000 552.0000,6768.0000 C 469.0000,6768.0000 400.0000,6700.0000 400.0000,6616.0000 " stroke="#000000" stroke-width="16.0000"  stroke-linecap="butt"  stroke-linejoin="miter"  stroke-miterlimit="8.0000"  fill="none" />
</g>
<g transform="matrix(1.0000 0.0000 0.0000 1.0000 0.0000 0.0000)">
</g>
<g transform="matrix(1.0000 0.0000 0.0000 1.0000 31.0437 417.3260)">
<text font-family="Calibri" fill="#000000" style ="white-space:pre;" font-weight="700" text-anchor="start" x="0.0000" y="0.0000" font-size="13.0000" ><![CDATA[2]]></text>
</g>
<g transform="matrix(0.0625 0.0000 0.0000 0.0625 0.0000 0.0000)">
<path d="M 400.0000,6168.0000 C 400.0000,6085.0000 469.0000,6016.0000 552.0000,6016.0000 C 636.0000,6016.0000 704.0000,6085.0000 704.0000,6168.0000 C 704.0000,6252.0000 636.0000,6320.0000 552.0000,6320.0000 C 469.0000,6320.0000 400.0000,6252.0000 400.0000,6168.0000 "  fill="#FFC000" stroke="none" />
</g>
<g transform="matrix(1.0000 0.0000 0.0000 1.0000 0.0000 0.0000)">
</g>
<g transform="matrix(0.0625 0.0000 0.0000 0.0625 0.0000 0.0000)">
<path d="M 400.0000,6168.0000 M 400.0000,6168.0000 C 400.0000,6085.0000 469.0000,6016.0000 552.0000,6016.0000 C 636.0000,6016.0000 704.0000,6085.0000 704.0000,6168.0000 C 704.0000,6252.0000 636.0000,6320.0000 552.0000,6320.0000 C 469.0000,6320.0000 400.0000,6252.0000 400.0000,6168.0000 " stroke="#000000" stroke-width="16.0000"  stroke-linecap="butt"  stroke-linejoin="miter"  stroke-miterlimit="8.0000"  fill="none" />
</g>
<g transform="matrix(1.0000 0.0000 0.0000 1.0000 0.0000 0.0000)">
</g>
<g transform="matrix(1.0000 0.0000 0.0000 1.0000 31.3120 389.3069)">
<text font-family="Calibri" fill="#000000" style ="white-space:pre;" font-weight="700" text-anchor="start" x="0.0000" y="0.0000" font-size="13.0000" ><![CDATA[3]]></text>
</g>
<g transform="matrix(0.0625 0.0000 0.0000 0.0625 0.0000 0.0000)">
<path d="M 400.0000,7016.0000 C 400.0000,6933.0000 472.0000,6864.0000 560.0000,6864.0000 C 649.0000,6864.0000 720.0000,6933.0000 720.0000,7016.0000 C 720.0000,7100.0000 649.0000,7168.0000 560.0000,7168.0000 C 472.0000,7168.0000 400.0000,7100.0000 400.0000,7016.0000 "  fill="#2E75B6" stroke="none" />
</g>
<g transform="matrix(1.0000 0.0000 0.0000 1.0000 0.0000 0.0000)">
</g>
<g transform="matrix(0.0625 0.0000 0.0000 0.0625 0.0000 0.0000)">
<path d="M 400.0000,7016.0000 M 400.0000,7016.0000 C 400.0000,6933.0000 472.0000,6864.0000 560.0000,6864.0000 C 649.0000,6864.0000 720.0000,6933.0000 720.0000,7016.0000 C 720.0000,7100.0000 649.0000,7168.0000 560.0000,7168.0000 C 472.0000,7168.0000 400.0000,7100.0000 400.0000,7016.0000 " stroke="#000000" stroke-width="16.0000"  stroke-linecap="butt"  stroke-linejoin="miter"  stroke-miterlimit="8.0000"  fill="none" />
</g>
<g transform="matrix(1.0000 0.0000 0.0000 1.0000 0.0000 0.0000)">
</g>
<g transform="matrix(0.0625 0.0000 0.0000 0.0625 0.0000 0.0000)">
<path d="M 736.0000,7016.0000 C 736.0000,6933.0000 808.0000,6864.0000 896.0000,6864.0000 C 985.0000,6864.0000 1056.0000,6933.0000 1056.0000,7016.0000 C 1056.0000,7100.0000 985.0000,7168.0000 896.0000,7168.0000 C 808.0000,7168.0000 736.0000,7100.0000 736.0000,7016.0000 "  fill="#9DC3E6" stroke="none" />
</g>
<g transform="matrix(1.0000 0.0000 0.0000 1.0000 0.0000 0.0000)">
</g>
<g transform="matrix(0.0625 0.0000 0.0000 0.0625 0.0000 0.0000)">
<path d="M 736.0000,7016.0000 M 736.0000,7016.0000 C 736.0000,6933.0000 808.0000,6864.0000 896.0000,6864.0000 C 985.0000,6864.0000 1056.0000,6933.0000 1056.0000,7016.0000 C 1056.0000,7100.0000 985.0000,7168.0000 896.0000,7168.0000 C 808.0000,7168.0000 736.0000,7100.0000 736.0000,7016.0000 " stroke="#000000" stroke-width="16.0000"  stroke-linecap="butt"  stroke-linejoin="miter"  stroke-miterlimit="8.0000"  fill="none" />
</g>
<g transform="matrix(1.0000 0.0000 0.0000 1.0000 0.0000 0.0000)">
</g>
<g transform="matrix(0.0625 0.0000 0.0000 0.0625 0.0000 0.0000)">
<path d="M 64.0000,7016.0000 C 64.0000,6933.0000 133.0000,6864.0000 216.0000,6864.0000 C 300.0000,6864.0000 368.0000,6933.0000 368.0000,7016.0000 C 368.0000,7100.0000 300.0000,7168.0000 216.0000,7168.0000 C 133.0000,7168.0000 64.0000,7100.0000 64.0000,7016.0000 "  fill="#1F4E79" stroke="none" />
</g>
<g transform="matrix(1.0000 0.0000 0.0000 1.0000 0.0000 0.0000)">
<defs><clipPath id="clip-6334"><path d="M 0.0000,0.0000 L 737.0000,0.0000 L 737.0000,590.0000 L 0.0000,590.0000 L 0.0000,0.0000 Z Z" /></clipPath></defs>
</g>
<g transform="matrix(0.0625 0.0000 0.0000 0.0625 0.0000 0.0000)">
<path  clip-path="url(#clip-6334)" d="M 64.0000,7016.0000 M 64.0000,7016.0000 C 64.0000,6933.0000 133.0000,6864.0000 216.0000,6864.0000 C 300.0000,6864.0000 368.0000,6933.0000 368.0000,7016.0000 C 368.0000,7100.0000 300.0000,7168.0000 216.0000,7168.0000 C 133.0000,7168.0000 64.0000,7100.0000 64.0000,7016.0000 " stroke="#000000" stroke-width="16.0000"  stroke-linecap="butt"  stroke-linejoin="miter"  stroke-miterlimit="8.0000"  fill="none" />
</g>
<g transform="matrix(1.0000 0.0000 0.0000 1.0000 0.0000 0.0000)">
</g>
<g transform="matrix(0.0625 0.0000 0.0000 0.0625 0.0000 0.0000)">
<path d="M 400.0000,7408.0000 C 400.0000,7329.0000 469.0000,7264.0000 552.0000,7264.0000 C 636.0000,7264.0000 704.0000,7329.0000 704.0000,7408.0000 C 704.0000,7488.0000 636.0000,7552.0000 552.0000,7552.0000 C 469.0000,7552.0000 400.0000,7488.0000 400.0000,7408.0000 "  fill="#7030A0" stroke="none" />
</g>
<g transform="matrix(1.0000 0.0000 0.0000 1.0000 0.0000 0.0000)">
</g>
<g transform="matrix(0.0625 0.0000 0.0000 0.0625 0.0000 0.0000)">
<path d="M 400.0000,7408.0000 M 400.0000,7408.0000 C 400.0000,7329.0000 469.0000,7264.0000 552.0000,7264.0000 C 636.0000,7264.0000 704.0000,7329.0000 704.0000,7408.0000 C 704.0000,7488.0000 636.0000,7552.0000 552.0000,7552.0000 C 469.0000,7552.0000 400.0000,7488.0000 400.0000,7408.0000 " stroke="#000000" stroke-width="16.0000"  stroke-linecap="butt"  stroke-linejoin="miter"  stroke-miterlimit="8.0000"  fill="none" />
</g>
<g transform="matrix(1.0000 0.0000 0.0000 1.0000 0.0000 0.0000)">
</g>
<g transform="matrix(1.0000 0.0000 0.0000 1.0000 403.2615 25.5371)">
<text font-family="Calibri" fill="#000000" style ="white-space:pre;" font-weight="400" text-anchor="start" x="0.0000" y="0.0000" font-size="21.0000" ><![CDATA[Plasma Sample ]]></text>
</g>
<g transform="matrix(1.0000 0.0000 0.0000 1.0000 538.2615 25.5371)">
<text font-family="Calibri" fill="#000000" style ="white-space:pre;" font-weight="400" text-anchor="start" x="0.0000" y="0.0000" font-size="21.0000" ><![CDATA[Injection Sequence]]></text>
</g>
<g transform="matrix(0.0625 0.0000 0.0000 0.0625 0.0000 0.0000)">
<path d="M 400.0000,7408.0000 M 6640.0000,888.0000 C 6640.0000,805.0000 6709.0000,736.0000 6792.0000,736.0000 C 6876.0000,736.0000 6944.0000,805.0000 6944.0000,888.0000 C 6944.0000,972.0000 6876.0000,1040.0000 6792.0000,1040.0000 C 6709.0000,1040.0000 6640.0000,972.0000 6640.0000,888.0000 " stroke="#000000" stroke-width="16.0000"  stroke-linecap="butt"  stroke-linejoin="miter"  stroke-miterlimit="8.0000"  fill="none" />
</g>
<g transform="matrix(1.0000 0.0000 0.0000 1.0000 0.0000 0.0000)">
</g>
<g transform="matrix(0.0625 0.0000 0.0000 0.0625 0.0000 0.0000)">
<path d="M 6640.0000,1312.0000 C 6640.0000,1233.0000 6709.0000,1168.0000 6792.0000,1168.0000 C 6876.0000,1168.0000 6944.0000,1233.0000 6944.0000,1312.0000 C 6944.0000,1392.0000 6876.0000,1456.0000 6792.0000,1456.0000 C 6709.0000,1456.0000 6640.0000,1392.0000 6640.0000,1312.0000 "  fill="#D9D9D9" stroke="none" />
</g>
<g transform="matrix(1.0000 0.0000 0.0000 1.0000 0.0000 0.0000)">
</g>
<g transform="matrix(0.0625 0.0000 0.0000 0.0625 0.0000 0.0000)">
<path d="M 6640.0000,1312.0000 M 6640.0000,1312.0000 C 6640.0000,1233.0000 6709.0000,1168.0000 6792.0000,1168.0000 C 6876.0000,1168.0000 6944.0000,1233.0000 6944.0000,1312.0000 C 6944.0000,1392.0000 6876.0000,1456.0000 6792.0000,1456.0000 C 6709.0000,1456.0000 6640.0000,1392.0000 6640.0000,1312.0000 " stroke="#000000" stroke-width="16.0000"  stroke-linecap="butt"  stroke-linejoin="miter"  stroke-miterlimit="8.0000"  fill="none" />
</g>
<g transform="matrix(1.0000 0.0000 0.0000 1.0000 0.0000 0.0000)">
</g>
<g transform="matrix(0.0625 0.0000 0.0000 0.0625 0.0000 0.0000)">
<path d="M 6640.0000,1720.0000 C 6640.0000,1637.0000 6709.0000,1568.0000 6792.0000,1568.0000 C 6876.0000,1568.0000 6944.0000,1637.0000 6944.0000,1720.0000 C 6944.0000,1804.0000 6876.0000,1872.0000 6792.0000,1872.0000 C 6709.0000,1872.0000 6640.0000,1804.0000 6640.0000,1720.0000 "  fill="#7030A0" stroke="none" />
</g>
<g transform="matrix(1.0000 0.0000 0.0000 1.0000 0.0000 0.0000)">
</g>
<g transform="matrix(0.0625 0.0000 0.0000 0.0625 0.0000 0.0000)">
<path d="M 6640.0000,1720.0000 M 6640.0000,1720.0000 C 6640.0000,1637.0000 6709.0000,1568.0000 6792.0000,1568.0000 C 6876.0000,1568.0000 6944.0000,1637.0000 6944.0000,1720.0000 C 6944.0000,1804.0000 6876.0000,1872.0000 6792.0000,1872.0000 C 6709.0000,1872.0000 6640.0000,1804.0000 6640.0000,1720.0000 " stroke="#000000" stroke-width="16.0000"  stroke-linecap="butt"  stroke-linejoin="miter"  stroke-miterlimit="8.0000"  fill="none" />
</g>
<g transform="matrix(1.0000 0.0000 0.0000 1.0000 0.0000 0.0000)">
</g>
<g transform="matrix(0.0625 0.0000 0.0000 0.0625 0.0000 0.0000)">
<path d="M 6640.0000,2152.0000 C 6640.0000,2069.0000 6709.0000,2000.0000 6792.0000,2000.0000 C 6876.0000,2000.0000 6944.0000,2069.0000 6944.0000,2152.0000 C 6944.0000,2236.0000 6876.0000,2304.0000 6792.0000,2304.0000 C 6709.0000,2304.0000 6640.0000,2236.0000 6640.0000,2152.0000 "  fill="#2E75B6" stroke="none" />
</g>
<g transform="matrix(1.0000 0.0000 0.0000 1.0000 0.0000 0.0000)">
</g>
<g transform="matrix(0.0625 0.0000 0.0000 0.0625 0.0000 0.0000)">
<path d="M 6640.0000,2152.0000 M 6640.0000,2152.0000 C 6640.0000,2069.0000 6709.0000,2000.0000 6792.0000,2000.0000 C 6876.0000,2000.0000 6944.0000,2069.0000 6944.0000,2152.0000 C 6944.0000,2236.0000 6876.0000,2304.0000 6792.0000,2304.0000 C 6709.0000,2304.0000 6640.0000,2236.0000 6640.0000,2152.0000 " stroke="#000000" stroke-width="16.0000"  stroke-linecap="butt"  stroke-linejoin="miter"  stroke-miterlimit="8.0000"  fill="none" />
</g>
<g transform="matrix(1.0000 0.0000 0.0000 1.0000 0.0000 0.0000)">
</g>
<g transform="matrix(0.0625 0.0000 0.0000 0.0625 0.0000 0.0000)">
<path d="M 6272.0000,2152.0000 C 6272.0000,2069.0000 6341.0000,2000.0000 6424.0000,2000.0000 C 6508.0000,2000.0000 6576.0000,2069.0000 6576.0000,2152.0000 C 6576.0000,2236.0000 6508.0000,2304.0000 6424.0000,2304.0000 C 6341.0000,2304.0000 6272.0000,2236.0000 6272.0000,2152.0000 "  fill="#9DC3E6" stroke="none" />
</g>
<g transform="matrix(1.0000 0.0000 0.0000 1.0000 0.0000 0.0000)">
</g>
<g transform="matrix(0.0625 0.0000 0.0000 0.0625 0.0000 0.0000)">
<path d="M 6272.0000,2152.0000 M 6272.0000,2152.0000 C 6272.0000,2069.0000 6341.0000,2000.0000 6424.0000,2000.0000 C 6508.0000,2000.0000 6576.0000,2069.0000 6576.0000,2152.0000 C 6576.0000,2236.0000 6508.0000,2304.0000 6424.0000,2304.0000 C 6341.0000,2304.0000 6272.0000,2236.0000 6272.0000,2152.0000 " stroke="#000000" stroke-width="16.0000"  stroke-linecap="butt"  stroke-linejoin="miter"  stroke-miterlimit="8.0000"  fill="none" />
</g>
<g transform="matrix(1.0000 0.0000 0.0000 1.0000 0.0000 0.0000)">
</g>
<g transform="matrix(0.0625 0.0000 0.0000 0.0625 0.0000 0.0000)">
<path d="M 7024.0000,2144.0000 C 7024.0000,2065.0000 7093.0000,2000.0000 7176.0000,2000.0000 C 7260.0000,2000.0000 7328.0000,2065.0000 7328.0000,2144.0000 C 7328.0000,2224.0000 7260.0000,2288.0000 7176.0000,2288.0000 C 7093.0000,2288.0000 7024.0000,2224.0000 7024.0000,2144.0000 "  fill="#1F4E79" stroke="none" />
</g>
<g transform="matrix(1.0000 0.0000 0.0000 1.0000 0.0000 0.0000)">
</g>
<g transform="matrix(0.0625 0.0000 0.0000 0.0625 0.0000 0.0000)">
<path d="M 7024.0000,2144.0000 M 7024.0000,2144.0000 C 7024.0000,2065.0000 7093.0000,2000.0000 7176.0000,2000.0000 C 7260.0000,2000.0000 7328.0000,2065.0000 7328.0000,2144.0000 C 7328.0000,2224.0000 7260.0000,2288.0000 7176.0000,2288.0000 C 7093.0000,2288.0000 7024.0000,2224.0000 7024.0000,2144.0000 " stroke="#000000" stroke-width="16.0000"  stroke-linecap="butt"  stroke-linejoin="miter"  stroke-miterlimit="8.0000"  fill="none" />
</g>
<g transform="matrix(1.0000 0.0000 0.0000 1.0000 0.0000 0.0000)">
</g>
<g transform="matrix(0.0625 0.0000 0.0000 0.0625 0.0000 0.0000)">
<path d="M 6640.0000,2552.0000 C 6640.0000,2469.0000 6709.0000,2400.0000 6792.0000,2400.0000 C 6876.0000,2400.0000 6944.0000,2469.0000 6944.0000,2552.0000 C 6944.0000,2636.0000 6876.0000,2704.0000 6792.0000,2704.0000 C 6709.0000,2704.0000 6640.0000,2636.0000 6640.0000,2552.0000 "  fill="#C55A11" stroke="none" />
</g>
<g transform="matrix(1.0000 0.0000 0.0000 1.0000 0.0000 0.0000)">
</g>
<g transform="matrix(0.0625 0.0000 0.0000 0.0625 0.0000 0.0000)">
<path d="M 6640.0000,2552.0000 M 6640.0000,2552.0000 C 6640.0000,2469.0000 6709.0000,2400.0000 6792.0000,2400.0000 C 6876.0000,2400.0000 6944.0000,2469.0000 6944.0000,2552.0000 C 6944.0000,2636.0000 6876.0000,2704.0000 6792.0000,2704.0000 C 6709.0000,2704.0000 6640.0000,2636.0000 6640.0000,2552.0000 " stroke="#000000" stroke-width="16.0000"  stroke-linecap="butt"  stroke-linejoin="miter"  stroke-miterlimit="8.0000"  fill="none" />
</g>
<g transform="matrix(1.0000 0.0000 0.0000 1.0000 0.0000 0.0000)">
</g>
<g transform="matrix(0.0625 0.0000 0.0000 0.0625 0.0000 0.0000)">
<path d="M 6640.0000,2968.0000 C 6640.0000,2885.0000 6709.0000,2816.0000 6792.0000,2816.0000 C 6876.0000,2816.0000 6944.0000,2885.0000 6944.0000,2968.0000 C 6944.0000,3052.0000 6876.0000,3120.0000 6792.0000,3120.0000 C 6709.0000,3120.0000 6640.0000,3052.0000 6640.0000,2968.0000 "  fill="#FFC000" stroke="none" />
</g>
<g transform="matrix(1.0000 0.0000 0.0000 1.0000 0.0000 0.0000)">
</g>
<g transform="matrix(0.0625 0.0000 0.0000 0.0625 0.0000 0.0000)">
<path d="M 6640.0000,2968.0000 M 6640.0000,2968.0000 C 6640.0000,2885.0000 6709.0000,2816.0000 6792.0000,2816.0000 C 6876.0000,2816.0000 6944.0000,2885.0000 6944.0000,2968.0000 C 6944.0000,3052.0000 6876.0000,3120.0000 6792.0000,3120.0000 C 6709.0000,3120.0000 6640.0000,3052.0000 6640.0000,2968.0000 " stroke="#000000" stroke-width="16.0000"  stroke-linecap="butt"  stroke-linejoin="miter"  stroke-miterlimit="8.0000"  fill="none" />
</g>
<g transform="matrix(1.0000 0.0000 0.0000 1.0000 0.0000 0.0000)">
</g>
<g transform="matrix(1.0000 0.0000 0.0000 1.0000 421.1348 189.1561)">
<text font-family="Calibri" fill="#000000" style ="white-space:pre;" font-weight="700" text-anchor="start" x="0.0000" y="0.0000" font-size="13.0000" ><![CDATA[1]]></text>
</g>
<g transform="matrix(1.0000 0.0000 0.0000 1.0000 467.6936 62.1623)">
<text font-family="Calibri" fill="#000000" style ="white-space:pre;" font-weight="400" text-anchor="start" x="0.0000" y="0.0000" font-size="21.0000" ><![CDATA[double blank]]></text>
</g>
<g transform="matrix(1.0000 0.0000 0.0000 1.0000 467.6936 88.1623)">
<text font-family="Calibri" fill="#000000" style ="white-space:pre;" font-weight="400" text-anchor="start" x="0.0000" y="0.0000" font-size="21.0000" ><![CDATA[PBS ‘zero’ samples]]></text>
</g>
<g transform="matrix(1.0000 0.0000 0.0000 1.0000 467.6936 113.1623)">
<text font-family="Calibri" fill="#000000" style ="white-space:pre;" font-weight="400" text-anchor="start" x="0.0000" y="0.0000" font-size="21.0000" ><![CDATA[Calibration curve Low to High]]></text>
</g>
<g transform="matrix(1.0000 0.0000 0.0000 1.0000 467.6936 139.1623)">
<text font-family="Calibri" fill="#000000" style ="white-space:pre;" font-weight="400" text-anchor="start" x="0.0000" y="0.0000" font-size="21.0000" ><![CDATA[Low, Mid, High QC Samples]]></text>
</g>
<g transform="matrix(1.0000 0.0000 0.0000 1.0000 467.6936 164.1623)">
<text font-family="Calibri" fill="#000000" style ="white-space:pre;" font-weight="400" text-anchor="start" x="0.0000" y="0.0000" font-size="21.0000" ><![CDATA[Global Reference QC]]></text>
</g>
<g transform="matrix(1.0000 0.0000 0.0000 1.0000 467.6936 190.1623)">
<text font-family="Calibri" fill="#000000" style ="white-space:pre;" font-weight="400" text-anchor="start" x="0.0000" y="0.0000" font-size="21.0000" ><![CDATA[4765 Serum ]]></text>
</g>
<g transform="matrix(1.0000 0.0000 0.0000 1.0000 576.6937 190.1623)">
<text font-family="Calibri" fill="#000000" style ="white-space:pre;" font-weight="400" text-anchor="start" x="0.0000" y="0.0000" font-size="21.0000" ><![CDATA[SPQC]]></text>
</g>
<g transform="matrix(1.0000 0.0000 0.0000 1.0000 467.6936 216.1623)">
<text font-family="Calibri" fill="#000000" style ="white-space:pre;" font-weight="400" text-anchor="start" x="0.0000" y="0.0000" font-size="21.0000" ><![CDATA[4765 ]]></text>
</g>
<g transform="matrix(1.0000 0.0000 0.0000 1.0000 515.6937 216.1623)">
<text font-family="Calibri" fill="#000000" style ="white-space:pre;" font-weight="400" text-anchor="start" x="0.0000" y="0.0000" font-size="21.0000" ><![CDATA[Plasma SPQC]]></text>
</g>
<g transform="matrix(1.0000 0.0000 0.0000 1.0000 467.6936 241.1623)">
<text font-family="Calibri" fill="#000000" style ="white-space:pre;" font-weight="400" text-anchor="start" x="0.0000" y="0.0000" font-size="21.0000" ><![CDATA[NIST ]]></text>
</g>
<g transform="matrix(1.0000 0.0000 0.0000 1.0000 511.6936 241.1623)">
<text font-family="Calibri" fill="#000000" style ="white-space:pre;" font-weight="400" text-anchor="start" x="0.0000" y="0.0000" font-size="21.0000" ><![CDATA[SRM 1950]]></text>
</g>
<g transform="matrix(1.0000 0.0000 0.0000 1.0000 467.6936 267.1623)">
<text font-family="Calibri" fill="#000000" style ="white-space:pre;" font-weight="400" text-anchor="start" x="0.0000" y="0.0000" font-size="21.0000" ><![CDATA[Study Samples 1 to 38]]></text>
</g>
<g transform="matrix(1.0000 0.0000 0.0000 1.0000 467.6936 292.1623)">
<text font-family="Calibri" fill="#000000" style ="white-space:pre;" font-weight="400" text-anchor="start" x="0.0000" y="0.0000" font-size="21.0000" ><![CDATA[Low, Mid, High QC Samples]]></text>
</g>
<g transform="matrix(1.0000 0.0000 0.0000 1.0000 467.6936 318.1623)">
<text font-family="Calibri" fill="#000000" style ="white-space:pre;" font-weight="400" text-anchor="start" x="0.0000" y="0.0000" font-size="21.0000" ><![CDATA[Global Reference QC]]></text>
</g>
<g transform="matrix(1.0000 0.0000 0.0000 1.0000 467.6936 344.1623)">
<text font-family="Calibri" fill="#000000" style ="white-space:pre;" font-weight="400" text-anchor="start" x="0.0000" y="0.0000" font-size="21.0000" ><![CDATA[4765 Serum SPQC]]></text>
</g>
<g transform="matrix(1.0000 0.0000 0.0000 1.0000 467.6936 369.1623)">
<text font-family="Calibri" fill="#000000" style ="white-space:pre;" font-weight="400" text-anchor="start" x="0.0000" y="0.0000" font-size="21.0000" ><![CDATA[4765 Plasma SPQC]]></text>
</g>
<g transform="matrix(1.0000 0.0000 0.0000 1.0000 467.6936 395.1623)">
<text font-family="Calibri" fill="#000000" style ="white-space:pre;" font-weight="400" text-anchor="start" x="0.0000" y="0.0000" font-size="21.0000" ><![CDATA[Study Samples 39 to 76]]></text>
</g>
<g transform="matrix(1.0000 0.0000 0.0000 1.0000 467.6936 420.1623)">
<text font-family="Calibri" fill="#000000" style ="white-space:pre;" font-weight="400" text-anchor="start" x="0.0000" y="0.0000" font-size="21.0000" ><![CDATA[Global Reference QC]]></text>
</g>
<g transform="matrix(1.0000 0.0000 0.0000 1.0000 467.6936 446.1623)">
<text font-family="Calibri" fill="#000000" style ="white-space:pre;" font-weight="400" text-anchor="start" x="0.0000" y="0.0000" font-size="21.0000" ><![CDATA[4765 Serum SPQC]]></text>
</g>
<g transform="matrix(1.0000 0.0000 0.0000 1.0000 467.6936 472.1623)">
<text font-family="Calibri" fill="#000000" style ="white-space:pre;" font-weight="400" text-anchor="start" x="0.0000" y="0.0000" font-size="21.0000" ><![CDATA[4765 Plasma SPQC]]></text>
</g>
<g transform="matrix(1.0000 0.0000 0.0000 1.0000 467.6936 497.1623)">
<text font-family="Calibri" fill="#000000" style ="white-space:pre;" font-weight="400" text-anchor="start" x="0.0000" y="0.0000" font-size="21.0000" ><![CDATA[NIST SRM 1950]]></text>
</g>
<g transform="matrix(1.0000 0.0000 0.0000 1.0000 467.6936 523.1623)">
<text font-family="Calibri" fill="#000000" style ="white-space:pre;" font-weight="400" text-anchor="start" x="0.0000" y="0.0000" font-size="21.0000" ><![CDATA[High, Mid, Low QC Samples]]></text>
</g>
<g transform="matrix(1.0000 0.0000 0.0000 1.0000 467.6936 548.1623)">
<text font-family="Calibri" fill="#000000" style ="white-space:pre;" font-weight="400" text-anchor="start" x="0.0000" y="0.0000" font-size="21.0000" ><![CDATA[Calibration Curve Low to High]]></text>
</g>
<g transform="matrix(0.0625 0.0000 0.0000 0.0625 0.0000 0.0000)">
<path d="M 6640.0000,4232.0000 C 6640.0000,4149.0000 6709.0000,4080.0000 6792.0000,4080.0000 C 6876.0000,4080.0000 6944.0000,4149.0000 6944.0000,4232.0000 C 6944.0000,4316.0000 6876.0000,4384.0000 6792.0000,4384.0000 C 6709.0000,4384.0000 6640.0000,4316.0000 6640.0000,4232.0000 "  fill="#A9D18E" stroke="none" />
</g>
<g transform="matrix(1.0000 0.0000 0.0000 1.0000 0.0000 0.0000)">
</g>
<g transform="matrix(0.0625 0.0000 0.0000 0.0625 0.0000 0.0000)">
<path d="M 6640.0000,4232.0000 M 6640.0000,4232.0000 C 6640.0000,4149.0000 6709.0000,4080.0000 6792.0000,4080.0000 C 6876.0000,4080.0000 6944.0000,4149.0000 6944.0000,4232.0000 C 6944.0000,4316.0000 6876.0000,4384.0000 6792.0000,4384.0000 C 6709.0000,4384.0000 6640.0000,4316.0000 6640.0000,4232.0000 " stroke="#000000" stroke-width="16.0000"  stroke-linecap="butt"  stroke-linejoin="miter"  stroke-miterlimit="8.0000"  fill="none" />
</g>
<g transform="matrix(1.0000 0.0000 0.0000 1.0000 0.0000 0.0000)">
</g>
<g transform="matrix(0.0625 0.0000 0.0000 0.0625 0.0000 0.0000)">
<path d="M 6640.0000,3864.0000 C 6640.0000,3781.0000 6709.0000,3712.0000 6792.0000,3712.0000 C 6876.0000,3712.0000 6944.0000,3781.0000 6944.0000,3864.0000 C 6944.0000,3948.0000 6876.0000,4016.0000 6792.0000,4016.0000 C 6709.0000,4016.0000 6640.0000,3948.0000 6640.0000,3864.0000 "  fill="#FFFF00" stroke="none" />
</g>
<g transform="matrix(1.0000 0.0000 0.0000 1.0000 0.0000 0.0000)">
</g>
<g transform="matrix(0.0625 0.0000 0.0000 0.0625 0.0000 0.0000)">
<path d="M 6640.0000,3864.0000 M 6640.0000,3864.0000 C 6640.0000,3781.0000 6709.0000,3712.0000 6792.0000,3712.0000 C 6876.0000,3712.0000 6944.0000,3781.0000 6944.0000,3864.0000 C 6944.0000,3948.0000 6876.0000,4016.0000 6792.0000,4016.0000 C 6709.0000,4016.0000 6640.0000,3948.0000 6640.0000,3864.0000 " stroke="#000000" stroke-width="16.0000"  stroke-linecap="butt"  stroke-linejoin="miter"  stroke-miterlimit="8.0000"  fill="none" />
</g>
<g transform="matrix(1.0000 0.0000 0.0000 1.0000 0.0000 0.0000)">
</g>
<g transform="matrix(1.0000 0.0000 0.0000 1.0000 421.1348 245.3038)">
<text fill="#000000" style ="white-space:pre;" font-weight="700" text-anchor="start" x="0.0000" y="0.0000" font-size="13.0000" ><![CDATA[1]]></text>
</g>
<g transform="matrix(0.0625 0.0000 0.0000 0.0625 0.0000 0.0000)">
<path d="M 6640.0000,4624.0000 C 6640.0000,4545.0000 6709.0000,4480.0000 6792.0000,4480.0000 C 6876.0000,4480.0000 6944.0000,4545.0000 6944.0000,4624.0000 C 6944.0000,4704.0000 6876.0000,4768.0000 6792.0000,4768.0000 C 6709.0000,4768.0000 6640.0000,4704.0000 6640.0000,4624.0000 "  fill="#2E75B6" stroke="none" />
</g>
<g transform="matrix(1.0000 0.0000 0.0000 1.0000 0.0000 0.0000)">
</g>
<g transform="matrix(0.0625 0.0000 0.0000 0.0625 0.0000 0.0000)">
<path d="M 6640.0000,4624.0000 M 6640.0000,4624.0000 C 6640.0000,4545.0000 6709.0000,4480.0000 6792.0000,4480.0000 C 6876.0000,4480.0000 6944.0000,4545.0000 6944.0000,4624.0000 C 6944.0000,4704.0000 6876.0000,4768.0000 6792.0000,4768.0000 C 6709.0000,4768.0000 6640.0000,4704.0000 6640.0000,4624.0000 " stroke="#000000" stroke-width="16.0000"  stroke-linecap="butt"  stroke-linejoin="miter"  stroke-miterlimit="8.0000"  fill="none" />
</g>
<g transform="matrix(1.0000 0.0000 0.0000 1.0000 0.0000 0.0000)">
</g>
<g transform="matrix(0.0625 0.0000 0.0000 0.0625 0.0000 0.0000)">
<path d="M 6272.0000,4624.0000 C 6272.0000,4545.0000 6341.0000,4480.0000 6424.0000,4480.0000 C 6508.0000,4480.0000 6576.0000,4545.0000 6576.0000,4624.0000 C 6576.0000,4704.0000 6508.0000,4768.0000 6424.0000,4768.0000 C 6341.0000,4768.0000 6272.0000,4704.0000 6272.0000,4624.0000 "  fill="#9DC3E6" stroke="none" />
</g>
<g transform="matrix(1.0000 0.0000 0.0000 1.0000 0.0000 0.0000)">
</g>
<g transform="matrix(0.0625 0.0000 0.0000 0.0625 0.0000 0.0000)">
<path d="M 6272.0000,4624.0000 M 6272.0000,4624.0000 C 6272.0000,4545.0000 6341.0000,4480.0000 6424.0000,4480.0000 C 6508.0000,4480.0000 6576.0000,4545.0000 6576.0000,4624.0000 C 6576.0000,4704.0000 6508.0000,4768.0000 6424.0000,4768.0000 C 6341.0000,4768.0000 6272.0000,4704.0000 6272.0000,4624.0000 " stroke="#000000" stroke-width="16.0000"  stroke-linecap="butt"  stroke-linejoin="miter"  stroke-miterlimit="8.0000"  fill="none" />
</g>
<g transform="matrix(1.0000 0.0000 0.0000 1.0000 0.0000 0.0000)">
</g>
<g transform="matrix(0.0625 0.0000 0.0000 0.0625 0.0000 0.0000)">
<path d="M 7008.0000,4624.0000 C 7008.0000,4545.0000 7077.0000,4480.0000 7160.0000,4480.0000 C 7244.0000,4480.0000 7312.0000,4545.0000 7312.0000,4624.0000 C 7312.0000,4704.0000 7244.0000,4768.0000 7160.0000,4768.0000 C 7077.0000,4768.0000 7008.0000,4704.0000 7008.0000,4624.0000 "  fill="#1F4E79" stroke="none" />
</g>
<g transform="matrix(1.0000 0.0000 0.0000 1.0000 0.0000 0.0000)">
</g>
<g transform="matrix(0.0625 0.0000 0.0000 0.0625 0.0000 0.0000)">
<path d="M 7008.0000,4624.0000 M 7008.0000,4624.0000 C 7008.0000,4545.0000 7077.0000,4480.0000 7160.0000,4480.0000 C 7244.0000,4480.0000 7312.0000,4545.0000 7312.0000,4624.0000 C 7312.0000,4704.0000 7244.0000,4768.0000 7160.0000,4768.0000 C 7077.0000,4768.0000 7008.0000,4704.0000 7008.0000,4624.0000 " stroke="#000000" stroke-width="16.0000"  stroke-linecap="butt"  stroke-linejoin="miter"  stroke-miterlimit="8.0000"  fill="none" />
</g>
<g transform="matrix(1.0000 0.0000 0.0000 1.0000 0.0000 0.0000)">
</g>
<g transform="matrix(0.0625 0.0000 0.0000 0.0625 0.0000 0.0000)">
<path d="M 6640.0000,5024.0000 C 6640.0000,4945.0000 6709.0000,4880.0000 6792.0000,4880.0000 C 6876.0000,4880.0000 6944.0000,4945.0000 6944.0000,5024.0000 C 6944.0000,5104.0000 6876.0000,5168.0000 6792.0000,5168.0000 C 6709.0000,5168.0000 6640.0000,5104.0000 6640.0000,5024.0000 "  fill="#C55A11" stroke="none" />
</g>
<g transform="matrix(1.0000 0.0000 0.0000 1.0000 0.0000 0.0000)">
</g>
<g transform="matrix(0.0625 0.0000 0.0000 0.0625 0.0000 0.0000)">
<path d="M 6640.0000,5024.0000 M 6640.0000,5024.0000 C 6640.0000,4945.0000 6709.0000,4880.0000 6792.0000,4880.0000 C 6876.0000,4880.0000 6944.0000,4945.0000 6944.0000,5024.0000 C 6944.0000,5104.0000 6876.0000,5168.0000 6792.0000,5168.0000 C 6709.0000,5168.0000 6640.0000,5104.0000 6640.0000,5024.0000 " stroke="#000000" stroke-width="16.0000"  stroke-linecap="butt"  stroke-linejoin="miter"  stroke-miterlimit="8.0000"  fill="none" />
</g>
<g transform="matrix(1.0000 0.0000 0.0000 1.0000 0.0000 0.0000)">
</g>
<g transform="matrix(0.0625 0.0000 0.0000 0.0625 0.0000 0.0000)">
<path d="M 6640.0000,5432.0000 C 6640.0000,5349.0000 6709.0000,5280.0000 6792.0000,5280.0000 C 6876.0000,5280.0000 6944.0000,5349.0000 6944.0000,5432.0000 C 6944.0000,5516.0000 6876.0000,5584.0000 6792.0000,5584.0000 C 6709.0000,5584.0000 6640.0000,5516.0000 6640.0000,5432.0000 "  fill="#FFC000" stroke="none" />
</g>
<g transform="matrix(1.0000 0.0000 0.0000 1.0000 0.0000 0.0000)">
</g>
<g transform="matrix(0.0625 0.0000 0.0000 0.0625 0.0000 0.0000)">
<path d="M 6640.0000,5432.0000 M 6640.0000,5432.0000 C 6640.0000,5349.0000 6709.0000,5280.0000 6792.0000,5280.0000 C 6876.0000,5280.0000 6944.0000,5349.0000 6944.0000,5432.0000 C 6944.0000,5516.0000 6876.0000,5584.0000 6792.0000,5584.0000 C 6709.0000,5584.0000 6640.0000,5516.0000 6640.0000,5432.0000 " stroke="#000000" stroke-width="16.0000"  stroke-linecap="butt"  stroke-linejoin="miter"  stroke-miterlimit="8.0000"  fill="none" />
</g>
<g transform="matrix(1.0000 0.0000 0.0000 1.0000 0.0000 0.0000)">
</g>
<g transform="matrix(1.0000 0.0000 0.0000 1.0000 421.1348 343.2563)">
<text fill="#000000" style ="white-space:pre;" font-weight="700" text-anchor="start" x="0.0000" y="0.0000" font-size="13.0000" ><![CDATA[2]]></text>
</g>
<g transform="matrix(0.0625 0.0000 0.0000 0.0625 0.0000 0.0000)">
<path d="M 6640.0000,6232.0000 C 6640.0000,6149.0000 6709.0000,6080.0000 6792.0000,6080.0000 C 6876.0000,6080.0000 6944.0000,6149.0000 6944.0000,6232.0000 C 6944.0000,6316.0000 6876.0000,6384.0000 6792.0000,6384.0000 C 6709.0000,6384.0000 6640.0000,6316.0000 6640.0000,6232.0000 "  fill="#A9D18E" stroke="none" />
</g>
<g transform="matrix(1.0000 0.0000 0.0000 1.0000 0.0000 0.0000)">
</g>
<g transform="matrix(0.0625 0.0000 0.0000 0.0625 0.0000 0.0000)">
<path d="M 6640.0000,6232.0000 M 6640.0000,6232.0000 C 6640.0000,6149.0000 6709.0000,6080.0000 6792.0000,6080.0000 C 6876.0000,6080.0000 6944.0000,6149.0000 6944.0000,6232.0000 C 6944.0000,6316.0000 6876.0000,6384.0000 6792.0000,6384.0000 C 6709.0000,6384.0000 6640.0000,6316.0000 6640.0000,6232.0000 " stroke="#000000" stroke-width="16.0000"  stroke-linecap="butt"  stroke-linejoin="miter"  stroke-miterlimit="8.0000"  fill="none" />
</g>
<g transform="matrix(1.0000 0.0000 0.0000 1.0000 0.0000 0.0000)">
</g>
<g transform="matrix(0.0625 0.0000 0.0000 0.0625 0.0000 0.0000)">
<path d="M 6640.0000,6632.0000 C 6640.0000,6549.0000 6709.0000,6480.0000 6792.0000,6480.0000 C 6876.0000,6480.0000 6944.0000,6549.0000 6944.0000,6632.0000 C 6944.0000,6716.0000 6876.0000,6784.0000 6792.0000,6784.0000 C 6709.0000,6784.0000 6640.0000,6716.0000 6640.0000,6632.0000 "  fill="#C55A11" stroke="none" />
</g>
<g transform="matrix(1.0000 0.0000 0.0000 1.0000 0.0000 0.0000)">
</g>
<g transform="matrix(0.0625 0.0000 0.0000 0.0625 0.0000 0.0000)">
<path d="M 6640.0000,6632.0000 M 6640.0000,6632.0000 C 6640.0000,6549.0000 6709.0000,6480.0000 6792.0000,6480.0000 C 6876.0000,6480.0000 6944.0000,6549.0000 6944.0000,6632.0000 C 6944.0000,6716.0000 6876.0000,6784.0000 6792.0000,6784.0000 C 6709.0000,6784.0000 6640.0000,6716.0000 6640.0000,6632.0000 " stroke="#000000" stroke-width="16.0000"  stroke-linecap="butt"  stroke-linejoin="miter"  stroke-miterlimit="8.0000"  fill="none" />
</g>
<g transform="matrix(1.0000 0.0000 0.0000 1.0000 0.0000 0.0000)">
</g>
<g transform="matrix(0.0625 0.0000 0.0000 0.0625 0.0000 0.0000)">
<path d="M 6640.0000,7856.0000 C 6640.0000,7777.0000 6709.0000,7712.0000 6792.0000,7712.0000 C 6876.0000,7712.0000 6944.0000,7777.0000 6944.0000,7856.0000 C 6944.0000,7936.0000 6876.0000,8000.0000 6792.0000,8000.0000 C 6709.0000,8000.0000 6640.0000,7936.0000 6640.0000,7856.0000 "  fill="#FFFF00" stroke="none" />
</g>
<g transform="matrix(1.0000 0.0000 0.0000 1.0000 0.0000 0.0000)">
</g>
<g transform="matrix(0.0625 0.0000 0.0000 0.0625 0.0000 0.0000)">
<path d="M 6640.0000,7856.0000 M 6640.0000,7856.0000 C 6640.0000,7777.0000 6709.0000,7712.0000 6792.0000,7712.0000 C 6876.0000,7712.0000 6944.0000,7777.0000 6944.0000,7856.0000 C 6944.0000,7936.0000 6876.0000,8000.0000 6792.0000,8000.0000 C 6709.0000,8000.0000 6640.0000,7936.0000 6640.0000,7856.0000 " stroke="#000000" stroke-width="16.0000"  stroke-linecap="butt"  stroke-linejoin="miter"  stroke-miterlimit="8.0000"  fill="none" />
</g>
<g transform="matrix(1.0000 0.0000 0.0000 1.0000 0.0000 0.0000)">
</g>
<g transform="matrix(1.0000 0.0000 0.0000 1.0000 421.1348 495.0511)">
<text fill="#000000" style ="white-space:pre;" font-weight="700" text-anchor="start" x="0.0000" y="0.0000" font-size="13.0000" ><![CDATA[2]]></text>
</g>
<g transform="matrix(0.0625 0.0000 0.0000 0.0625 0.0000 0.0000)">
<path d="M 6640.0000,7016.0000 C 6640.0000,6933.0000 6709.0000,6864.0000 6792.0000,6864.0000 C 6876.0000,6864.0000 6944.0000,6933.0000 6944.0000,7016.0000 C 6944.0000,7100.0000 6876.0000,7168.0000 6792.0000,7168.0000 C 6709.0000,7168.0000 6640.0000,7100.0000 6640.0000,7016.0000 "  fill="#FFC000" stroke="none" />
</g>
<g transform="matrix(1.0000 0.0000 0.0000 1.0000 0.0000 0.0000)">
</g>
<g transform="matrix(0.0625 0.0000 0.0000 0.0625 0.0000 0.0000)">
<path d="M 6640.0000,7016.0000 M 6640.0000,7016.0000 C 6640.0000,6933.0000 6709.0000,6864.0000 6792.0000,6864.0000 C 6876.0000,6864.0000 6944.0000,6933.0000 6944.0000,7016.0000 C 6944.0000,7100.0000 6876.0000,7168.0000 6792.0000,7168.0000 C 6709.0000,7168.0000 6640.0000,7100.0000 6640.0000,7016.0000 " stroke="#000000" stroke-width="16.0000"  stroke-linecap="butt"  stroke-linejoin="miter"  stroke-miterlimit="8.0000"  fill="none" />
</g>
<g transform="matrix(1.0000 0.0000 0.0000 1.0000 0.0000 0.0000)">
</g>
<g transform="matrix(1.0000 0.0000 0.0000 1.0000 421.1348 442.8116)">
<text font-family="Calibri" fill="#000000" style ="white-space:pre;" font-weight="700" text-anchor="start" x="0.0000" y="0.0000" font-size="13.0000" ><![CDATA[3]]></text>
</g>
<g transform="matrix(0.0625 0.0000 0.0000 0.0625 0.0000 0.0000)">
<path d="M 6640.0000,8264.0000 C 6640.0000,8181.0000 6709.0000,8112.0000 6792.0000,8112.0000 C 6876.0000,8112.0000 6944.0000,8181.0000 6944.0000,8264.0000 C 6944.0000,8348.0000 6876.0000,8416.0000 6792.0000,8416.0000 C 6709.0000,8416.0000 6640.0000,8348.0000 6640.0000,8264.0000 "  fill="#2E75B6" stroke="none" />
</g>
<g transform="matrix(1.0000 0.0000 0.0000 1.0000 0.0000 0.0000)">
</g>
<g transform="matrix(0.0625 0.0000 0.0000 0.0625 0.0000 0.0000)">
<path d="M 6640.0000,8264.0000 M 6640.0000,8264.0000 C 6640.0000,8181.0000 6709.0000,8112.0000 6792.0000,8112.0000 C 6876.0000,8112.0000 6944.0000,8181.0000 6944.0000,8264.0000 C 6944.0000,8348.0000 6876.0000,8416.0000 6792.0000,8416.0000 C 6709.0000,8416.0000 6640.0000,8348.0000 6640.0000,8264.0000 " stroke="#000000" stroke-width="16.0000"  stroke-linecap="butt"  stroke-linejoin="miter"  stroke-miterlimit="8.0000"  fill="none" />
</g>
<g transform="matrix(1.0000 0.0000 0.0000 1.0000 0.0000 0.0000)">
</g>
<g transform="matrix(0.0625 0.0000 0.0000 0.0625 0.0000 0.0000)">
<path d="M 7008.0000,8264.0000 C 7008.0000,8181.0000 7077.0000,8112.0000 7160.0000,8112.0000 C 7244.0000,8112.0000 7312.0000,8181.0000 7312.0000,8264.0000 C 7312.0000,8348.0000 7244.0000,8416.0000 7160.0000,8416.0000 C 7077.0000,8416.0000 7008.0000,8348.0000 7008.0000,8264.0000 "  fill="#9DC3E6" stroke="none" />
</g>
<g transform="matrix(1.0000 0.0000 0.0000 1.0000 0.0000 0.0000)">
</g>
<g transform="matrix(0.0625 0.0000 0.0000 0.0625 0.0000 0.0000)">
<path d="M 7008.0000,8264.0000 M 7008.0000,8264.0000 C 7008.0000,8181.0000 7077.0000,8112.0000 7160.0000,8112.0000 C 7244.0000,8112.0000 7312.0000,8181.0000 7312.0000,8264.0000 C 7312.0000,8348.0000 7244.0000,8416.0000 7160.0000,8416.0000 C 7077.0000,8416.0000 7008.0000,8348.0000 7008.0000,8264.0000 " stroke="#000000" stroke-width="16.0000"  stroke-linecap="butt"  stroke-linejoin="miter"  stroke-miterlimit="8.0000"  fill="none" />
</g>
<g transform="matrix(1.0000 0.0000 0.0000 1.0000 0.0000 0.0000)">
</g>
<g transform="matrix(0.0625 0.0000 0.0000 0.0625 0.0000 0.0000)">
<path d="M 6272.0000,8264.0000 C 6272.0000,8181.0000 6341.0000,8112.0000 6424.0000,8112.0000 C 6508.0000,8112.0000 6576.0000,8181.0000 6576.0000,8264.0000 C 6576.0000,8348.0000 6508.0000,8416.0000 6424.0000,8416.0000 C 6341.0000,8416.0000 6272.0000,8348.0000 6272.0000,8264.0000 "  fill="#1F4E79" stroke="none" />
</g>
<g transform="matrix(1.0000 0.0000 0.0000 1.0000 0.0000 0.0000)">
</g>
<g transform="matrix(0.0625 0.0000 0.0000 0.0625 0.0000 0.0000)">
<path d="M 6272.0000,8264.0000 M 6272.0000,8264.0000 C 6272.0000,8181.0000 6341.0000,8112.0000 6424.0000,8112.0000 C 6508.0000,8112.0000 6576.0000,8181.0000 6576.0000,8264.0000 C 6576.0000,8348.0000 6508.0000,8416.0000 6424.0000,8416.0000 C 6341.0000,8416.0000 6272.0000,8348.0000 6272.0000,8264.0000 " stroke="#000000" stroke-width="16.0000"  stroke-linecap="butt"  stroke-linejoin="miter"  stroke-miterlimit="8.0000"  fill="none" />
</g>
<g transform="matrix(1.0000 0.0000 0.0000 1.0000 0.0000 0.0000)">
</g>
<g transform="matrix(0.0625 0.0000 0.0000 0.0625 0.0000 0.0000)">
<path d="M 6640.0000,8648.0000 C 6640.0000,8565.0000 6709.0000,8496.0000 6792.0000,8496.0000 C 6876.0000,8496.0000 6944.0000,8565.0000 6944.0000,8648.0000 C 6944.0000,8732.0000 6876.0000,8800.0000 6792.0000,8800.0000 C 6709.0000,8800.0000 6640.0000,8732.0000 6640.0000,8648.0000 "  fill="#7030A0" stroke="none" />
</g>
<g transform="matrix(1.0000 0.0000 0.0000 1.0000 0.0000 0.0000)">
</g>
<g transform="matrix(0.0625 0.0000 0.0000 0.0625 0.0000 0.0000)">
<path d="M 6640.0000,8648.0000 M 6640.0000,8648.0000 C 6640.0000,8565.0000 6709.0000,8496.0000 6792.0000,8496.0000 C 6876.0000,8496.0000 6944.0000,8565.0000 6944.0000,8648.0000 C 6944.0000,8732.0000 6876.0000,8800.0000 6792.0000,8800.0000 C 6709.0000,8800.0000 6640.0000,8732.0000 6640.0000,8648.0000 " stroke="#000000" stroke-width="16.0000"  stroke-linecap="butt"  stroke-linejoin="miter"  stroke-miterlimit="8.0000"  fill="none" />
</g>
<g transform="matrix(1.0000 0.0000 0.0000 1.0000 0.0000 0.0000)">
</g>
<g transform="matrix(0.0625 0.0000 0.0000 0.0625 0.0000 0.0000)">
<path d="M 6640.0000,3408.0000 C 6640.0000,3329.0000 6709.0000,3264.0000 6792.0000,3264.0000 C 6876.0000,3264.0000 6944.0000,3329.0000 6944.0000,3408.0000 C 6944.0000,3488.0000 6876.0000,3552.0000 6792.0000,3552.0000 C 6709.0000,3552.0000 6640.0000,3488.0000 6640.0000,3408.0000 "  fill="#00FFFF" stroke="none" />
</g>
<g transform="matrix(1.0000 0.0000 0.0000 1.0000 0.0000 0.0000)">
</g>
<g transform="matrix(0.0625 0.0000 0.0000 0.0625 0.0000 0.0000)">
<path d="M 6640.0000,3408.0000 M 6640.0000,3408.0000 C 6640.0000,3329.0000 6709.0000,3264.0000 6792.0000,3264.0000 C 6876.0000,3264.0000 6944.0000,3329.0000 6944.0000,3408.0000 C 6944.0000,3488.0000 6876.0000,3552.0000 6792.0000,3552.0000 C 6709.0000,3552.0000 6640.0000,3488.0000 6640.0000,3408.0000 " stroke="#000000" stroke-width="16.0000"  stroke-linecap="butt"  stroke-linejoin="miter"  stroke-miterlimit="8.0000"  fill="none" />
</g>
<g transform="matrix(1.0000 0.0000 0.0000 1.0000 0.0000 0.0000)">
</g>
<g transform="matrix(0.0625 0.0000 0.0000 0.0625 0.0000 0.0000)">
<path d="M 6640.0000,5816.0000 C 6640.0000,5733.0000 6709.0000,5664.0000 6792.0000,5664.0000 C 6876.0000,5664.0000 6944.0000,5733.0000 6944.0000,5816.0000 C 6944.0000,5900.0000 6876.0000,5968.0000 6792.0000,5968.0000 C 6709.0000,5968.0000 6640.0000,5900.0000 6640.0000,5816.0000 "  fill="#00FFFF" stroke="none" />
</g>
<g transform="matrix(1.0000 0.0000 0.0000 1.0000 0.0000 0.0000)">
</g>
<g transform="matrix(0.0625 0.0000 0.0000 0.0625 0.0000 0.0000)">
<path d="M 6640.0000,5816.0000 M 6640.0000,5816.0000 C 6640.0000,5733.0000 6709.0000,5664.0000 6792.0000,5664.0000 C 6876.0000,5664.0000 6944.0000,5733.0000 6944.0000,5816.0000 C 6944.0000,5900.0000 6876.0000,5968.0000 6792.0000,5968.0000 C 6709.0000,5968.0000 6640.0000,5900.0000 6640.0000,5816.0000 " stroke="#000000" stroke-width="16.0000"  stroke-linecap="butt"  stroke-linejoin="miter"  stroke-miterlimit="8.0000"  fill="none" />
</g>
<g transform="matrix(1.0000 0.0000 0.0000 1.0000 0.0000 0.0000)">
</g>
<g transform="matrix(0.0625 0.0000 0.0000 0.0625 0.0000 0.0000)">
<path d="M 6640.0000,7464.0000 C 6640.0000,7381.0000 6709.0000,7312.0000 6792.0000,7312.0000 C 6876.0000,7312.0000 6944.0000,7381.0000 6944.0000,7464.0000 C 6944.0000,7548.0000 6876.0000,7616.0000 6792.0000,7616.0000 C 6709.0000,7616.0000 6640.0000,7548.0000 6640.0000,7464.0000 "  fill="#00FFFF" stroke="none" />
</g>
<g transform="matrix(1.0000 0.0000 0.0000 1.0000 0.0000 0.0000)">
</g>
<g transform="matrix(0.0625 0.0000 0.0000 0.0625 0.0000 0.0000)">
<path d="M 6640.0000,7464.0000 M 6640.0000,7464.0000 C 6640.0000,7381.0000 6709.0000,7312.0000 6792.0000,7312.0000 C 6876.0000,7312.0000 6944.0000,7381.0000 6944.0000,7464.0000 C 6944.0000,7548.0000 6876.0000,7616.0000 6792.0000,7616.0000 C 6709.0000,7616.0000 6640.0000,7548.0000 6640.0000,7464.0000 " stroke="#000000" stroke-width="16.0000"  stroke-linecap="butt"  stroke-linejoin="miter"  stroke-miterlimit="8.0000"  fill="none" />
</g>
<g transform="matrix(1.0000 0.0000 0.0000 1.0000 0.0000 0.0000)">
</g>
<g transform="matrix(1.0000 0.0000 0.0000 1.0000 421.0549 216.7485)">
<text font-family="Calibri" fill="#000000" style ="white-space:pre;" font-weight="700" text-anchor="start" x="0.0000" y="0.0000" font-size="13.0000" ><![CDATA[1]]></text>
</g>
<g transform="matrix(1.0000 0.0000 0.0000 1.0000 421.0549 366.2548)">
<text font-family="Calibri" fill="#000000" style ="white-space:pre;" font-weight="700" text-anchor="start" x="0.0000" y="0.0000" font-size="13.0000" ><![CDATA[2]]></text>
</g>
<g transform="matrix(1.0000 0.0000 0.0000 1.0000 421.0549 469.0840)">
<text font-family="Calibri" fill="#000000" style ="white-space:pre;" font-weight="700" text-anchor="start" x="0.0000" y="0.0000" font-size="13.0000" ><![CDATA[3]]></text>
</g>
</g>
</svg>
