<?xml version="1.0"  encoding="UTF-8" standalone="no"?>
<svg version="1.1" xmlns="http://www.w3.org/2000/svg" xmlns:xlink="http://www.w3.org/1999/xlink" width="753.0000" height="344.0000">
<g transform="translate(0.0000, 0.00 00)">
<g transform="matrix(0.0625 0.0000 0.0000 0.0625 0.0000 0.0000)">
<path d="M 0.0000,0.0000 L 0.0000,5424.0000 L 12032.0000,5424.0000 L 12032.0000,0.0000 L 0.0000,0.0000 Z" stroke-width="1px" stroke="#FFFFFF"  fill="#FFFFFF" />
</g>
<g transform="matrix(1.0000 0.0000 0.0000 1.0000 0.0000 0.0000)">
</g>
<g transform="matrix(0.0625 0.0000 0.0000 0.0625 0.0000 0.0000)">
<path d="M 0.0000,0.0000 L 0.0000,5424.0000 L 12032.0000,5424.0000 L 12032.0000,0.0000 L 0.0000,0.0000 Z" stroke-width="1px" stroke="#FFFFFF"  fill="#FFFFFF" />
</g>
<g transform="matrix(1.0000 0.0000 0.0000 1.0000 0.0000 0.0000)">
<path d="M 66.0000,46.0000 L 66.0000,281.0000 L 726.0000,281.0000 L 726.0000,46.0000 L 66.0000,46.0000 Z" stroke-width="1px" stroke="#FFFFFF"  fill="#FFFFFF" />
</g>
<g transform="matrix(0.0625 0.0000 0.0000 0.0625 0.0000 0.0000)">
<path d="M 1057.0000,4347.0000 L 1017.0000,4347.0000 " stroke="#000000" stroke-width="16.0000"  stroke-linecap="butt"  stroke-linejoin="miter"  stroke-miterlimit="10.0000" fill="none" />
</g>
<g transform="matrix(1.0000 0.0000 0.0000 1.0000 0.0000 0.0000)">
</g>
<g transform="matrix(0.0625 0.0000 0.0000 0.0625 0.0000 0.0000)">
<path d="M 1057.0000,4347.0000 L 1097.0000,4347.0000 " stroke="#000000" stroke-width="16.0000"  stroke-linecap="butt"  stroke-linejoin="miter"  stroke-miterlimit="10.0000" fill="none" />
</g>
<g transform="matrix(1.0000 0.0000 0.0000 1.0000 0.0000 0.0000)">
</g>
<g transform="matrix(0.0625 0.0000 0.0000 0.0625 0.0000 0.0000)">
<path d="M 1057.0000,4197.0000 L 1017.0000,4197.0000 " stroke="#000000" stroke-width="16.0000"  stroke-linecap="butt"  stroke-linejoin="miter"  stroke-miterlimit="10.0000" fill="none" />
</g>
<g transform="matrix(1.0000 0.0000 0.0000 1.0000 0.0000 0.0000)">
</g>
<g transform="matrix(0.0625 0.0000 0.0000 0.0625 0.0000 0.0000)">
<path d="M 1057.0000,4197.0000 L 1097.0000,4197.0000 " stroke="#000000" stroke-width="16.0000"  stroke-linecap="butt"  stroke-linejoin="miter"  stroke-miterlimit="10.0000" fill="none" />
</g>
<g transform="matrix(1.0000 0.0000 0.0000 1.0000 0.0000 0.0000)">
</g>
<g transform="matrix(0.0625 0.0000 0.0000 0.0625 0.0000 0.0000)">
<path d="M 1057.0000,4047.0000 L 1017.0000,4047.0000 " stroke="#000000" stroke-width="16.0000"  stroke-linecap="butt"  stroke-linejoin="miter"  stroke-miterlimit="10.0000" fill="none" />
</g>
<g transform="matrix(1.0000 0.0000 0.0000 1.0000 0.0000 0.0000)">
</g>
<g transform="matrix(0.0625 0.0000 0.0000 0.0625 0.0000 0.0000)">
<path d="M 1057.0000,4047.0000 L 1097.0000,4047.0000 " stroke="#000000" stroke-width="16.0000"  stroke-linecap="butt"  stroke-linejoin="miter"  stroke-miterlimit="10.0000" fill="none" />
</g>
<g transform="matrix(1.0000 0.0000 0.0000 1.0000 0.0000 0.0000)">
</g>
<g transform="matrix(0.0625 0.0000 0.0000 0.0625 0.0000 0.0000)">
<path d="M 1057.0000,3897.0000 L 1017.0000,3897.0000 " stroke="#000000" stroke-width="16.0000"  stroke-linecap="butt"  stroke-linejoin="miter"  stroke-miterlimit="10.0000" fill="none" />
</g>
<g transform="matrix(1.0000 0.0000 0.0000 1.0000 0.0000 0.0000)">
</g>
<g transform="matrix(0.0625 0.0000 0.0000 0.0625 0.0000 0.0000)">
<path d="M 1057.0000,3897.0000 L 1097.0000,3897.0000 " stroke="#000000" stroke-width="16.0000"  stroke-linecap="butt"  stroke-linejoin="miter"  stroke-miterlimit="10.0000" fill="none" />
</g>
<g transform="matrix(1.0000 0.0000 0.0000 1.0000 0.0000 0.0000)">
</g>
<g transform="matrix(0.0625 0.0000 0.0000 0.0625 0.0000 0.0000)">
<path d="M 1057.0000,3597.0000 L 1017.0000,3597.0000 " stroke="#000000" stroke-width="16.0000"  stroke-linecap="butt"  stroke-linejoin="miter"  stroke-miterlimit="10.0000" fill="none" />
</g>
<g transform="matrix(1.0000 0.0000 0.0000 1.0000 0.0000 0.0000)">
</g>
<g transform="matrix(0.0625 0.0000 0.0000 0.0625 0.0000 0.0000)">
<path d="M 1057.0000,3597.0000 L 1097.0000,3597.0000 " stroke="#000000" stroke-width="16.0000"  stroke-linecap="butt"  stroke-linejoin="miter"  stroke-miterlimit="10.0000" fill="none" />
</g>
<g transform="matrix(1.0000 0.0000 0.0000 1.0000 0.0000 0.0000)">
</g>
<g transform="matrix(0.0625 0.0000 0.0000 0.0625 0.0000 0.0000)">
<path d="M 1057.0000,3446.0000 L 1017.0000,3446.0000 " stroke="#000000" stroke-width="16.0000"  stroke-linecap="butt"  stroke-linejoin="miter"  stroke-miterlimit="10.0000" fill="none" />
</g>
<g transform="matrix(1.0000 0.0000 0.0000 1.0000 0.0000 0.0000)">
</g>
<g transform="matrix(0.0625 0.0000 0.0000 0.0625 0.0000 0.0000)">
<path d="M 1057.0000,3446.0000 L 1097.0000,3446.0000 " stroke="#000000" stroke-width="16.0000"  stroke-linecap="butt"  stroke-linejoin="miter"  stroke-miterlimit="10.0000" fill="none" />
</g>
<g transform="matrix(1.0000 0.0000 0.0000 1.0000 0.0000 0.0000)">
</g>
<g transform="matrix(0.0625 0.0000 0.0000 0.0625 0.0000 0.0000)">
<path d="M 1057.0000,3296.0000 L 1017.0000,3296.0000 " stroke="#000000" stroke-width="16.0000"  stroke-linecap="butt"  stroke-linejoin="miter"  stroke-miterlimit="10.0000" fill="none" />
</g>
<g transform="matrix(1.0000 0.0000 0.0000 1.0000 0.0000 0.0000)">
</g>
<g transform="matrix(0.0625 0.0000 0.0000 0.0625 0.0000 0.0000)">
<path d="M 1057.0000,3296.0000 L 1097.0000,3296.0000 " stroke="#000000" stroke-width="16.0000"  stroke-linecap="butt"  stroke-linejoin="miter"  stroke-miterlimit="10.0000" fill="none" />
</g>
<g transform="matrix(1.0000 0.0000 0.0000 1.0000 0.0000 0.0000)">
</g>
<g transform="matrix(0.0625 0.0000 0.0000 0.0625 0.0000 0.0000)">
<path d="M 1057.0000,3146.0000 L 1017.0000,3146.0000 " stroke="#000000" stroke-width="16.0000"  stroke-linecap="butt"  stroke-linejoin="miter"  stroke-miterlimit="10.0000" fill="none" />
</g>
<g transform="matrix(1.0000 0.0000 0.0000 1.0000 0.0000 0.0000)">
</g>
<g transform="matrix(0.0625 0.0000 0.0000 0.0625 0.0000 0.0000)">
<path d="M 1057.0000,3146.0000 L 1097.0000,3146.0000 " stroke="#000000" stroke-width="16.0000"  stroke-linecap="butt"  stroke-linejoin="miter"  stroke-miterlimit="10.0000" fill="none" />
</g>
<g transform="matrix(1.0000 0.0000 0.0000 1.0000 0.0000 0.0000)">
</g>
<g transform="matrix(0.0625 0.0000 0.0000 0.0625 0.0000 0.0000)">
<path d="M 1057.0000,2846.0000 L 1017.0000,2846.0000 " stroke="#000000" stroke-width="16.0000"  stroke-linecap="butt"  stroke-linejoin="miter"  stroke-miterlimit="10.0000" fill="none" />
</g>
<g transform="matrix(1.0000 0.0000 0.0000 1.0000 0.0000 0.0000)">
</g>
<g transform="matrix(0.0625 0.0000 0.0000 0.0625 0.0000 0.0000)">
<path d="M 1057.0000,2846.0000 L 1097.0000,2846.0000 " stroke="#000000" stroke-width="16.0000"  stroke-linecap="butt"  stroke-linejoin="miter"  stroke-miterlimit="10.0000" fill="none" />
</g>
<g transform="matrix(1.0000 0.0000 0.0000 1.0000 0.0000 0.0000)">
</g>
<g transform="matrix(0.0625 0.0000 0.0000 0.0625 0.0000 0.0000)">
<path d="M 1057.0000,2696.0000 L 1017.0000,2696.0000 " stroke="#000000" stroke-width="16.0000"  stroke-linecap="butt"  stroke-linejoin="miter"  stroke-miterlimit="10.0000" fill="none" />
</g>
<g transform="matrix(1.0000 0.0000 0.0000 1.0000 0.0000 0.0000)">
</g>
<g transform="matrix(0.0625 0.0000 0.0000 0.0625 0.0000 0.0000)">
<path d="M 1057.0000,2696.0000 L 1097.0000,2696.0000 " stroke="#000000" stroke-width="16.0000"  stroke-linecap="butt"  stroke-linejoin="miter"  stroke-miterlimit="10.0000" fill="none" />
</g>
<g transform="matrix(1.0000 0.0000 0.0000 1.0000 0.0000 0.0000)">
</g>
<g transform="matrix(0.0625 0.0000 0.0000 0.0625 0.0000 0.0000)">
<path d="M 1057.0000,2546.0000 L 1017.0000,2546.0000 " stroke="#000000" stroke-width="16.0000"  stroke-linecap="butt"  stroke-linejoin="miter"  stroke-miterlimit="10.0000" fill="none" />
</g>
<g transform="matrix(1.0000 0.0000 0.0000 1.0000 0.0000 0.0000)">
</g>
<g transform="matrix(0.0625 0.0000 0.0000 0.0625 0.0000 0.0000)">
<path d="M 1057.0000,2546.0000 L 1097.0000,2546.0000 " stroke="#000000" stroke-width="16.0000"  stroke-linecap="butt"  stroke-linejoin="miter"  stroke-miterlimit="10.0000" fill="none" />
</g>
<g transform="matrix(1.0000 0.0000 0.0000 1.0000 0.0000 0.0000)">
</g>
<g transform="matrix(0.0625 0.0000 0.0000 0.0625 0.0000 0.0000)">
<path d="M 1057.0000,2396.0000 L 1017.0000,2396.0000 " stroke="#000000" stroke-width="16.0000"  stroke-linecap="butt"  stroke-linejoin="miter"  stroke-miterlimit="10.0000" fill="none" />
</g>
<g transform="matrix(1.0000 0.0000 0.0000 1.0000 0.0000 0.0000)">
</g>
<g transform="matrix(0.0625 0.0000 0.0000 0.0625 0.0000 0.0000)">
<path d="M 1057.0000,2396.0000 L 1097.0000,2396.0000 " stroke="#000000" stroke-width="16.0000"  stroke-linecap="butt"  stroke-linejoin="miter"  stroke-miterlimit="10.0000" fill="none" />
</g>
<g transform="matrix(1.0000 0.0000 0.0000 1.0000 0.0000 0.0000)">
</g>
<g transform="matrix(0.0625 0.0000 0.0000 0.0625 0.0000 0.0000)">
<path d="M 1057.0000,2095.0000 L 1017.0000,2095.0000 " stroke="#000000" stroke-width="16.0000"  stroke-linecap="butt"  stroke-linejoin="miter"  stroke-miterlimit="10.0000" fill="none" />
</g>
<g transform="matrix(1.0000 0.0000 0.0000 1.0000 0.0000 0.0000)">
</g>
<g transform="matrix(0.0625 0.0000 0.0000 0.0625 0.0000 0.0000)">
<path d="M 1057.0000,2095.0000 L 1097.0000,2095.0000 " stroke="#000000" stroke-width="16.0000"  stroke-linecap="butt"  stroke-linejoin="miter"  stroke-miterlimit="10.0000" fill="none" />
</g>
<g transform="matrix(1.0000 0.0000 0.0000 1.0000 0.0000 0.0000)">
</g>
<g transform="matrix(0.0625 0.0000 0.0000 0.0625 0.0000 0.0000)">
<path d="M 1057.0000,1945.0000 L 1017.0000,1945.0000 " stroke="#000000" stroke-width="16.0000"  stroke-linecap="butt"  stroke-linejoin="miter"  stroke-miterlimit="10.0000" fill="none" />
</g>
<g transform="matrix(1.0000 0.0000 0.0000 1.0000 0.0000 0.0000)">
</g>
<g transform="matrix(0.0625 0.0000 0.0000 0.0625 0.0000 0.0000)">
<path d="M 1057.0000,1945.0000 L 1097.0000,1945.0000 " stroke="#000000" stroke-width="16.0000"  stroke-linecap="butt"  stroke-linejoin="miter"  stroke-miterlimit="10.0000" fill="none" />
</g>
<g transform="matrix(1.0000 0.0000 0.0000 1.0000 0.0000 0.0000)">
</g>
<g transform="matrix(0.0625 0.0000 0.0000 0.0625 0.0000 0.0000)">
<path d="M 1057.0000,1795.0000 L 1017.0000,1795.0000 " stroke="#000000" stroke-width="16.0000"  stroke-linecap="butt"  stroke-linejoin="miter"  stroke-miterlimit="10.0000" fill="none" />
</g>
<g transform="matrix(1.0000 0.0000 0.0000 1.0000 0.0000 0.0000)">
</g>
<g transform="matrix(0.0625 0.0000 0.0000 0.0625 0.0000 0.0000)">
<path d="M 1057.0000,1795.0000 L 1097.0000,1795.0000 " stroke="#000000" stroke-width="16.0000"  stroke-linecap="butt"  stroke-linejoin="miter"  stroke-miterlimit="10.0000" fill="none" />
</g>
<g transform="matrix(1.0000 0.0000 0.0000 1.0000 0.0000 0.0000)">
</g>
<g transform="matrix(0.0625 0.0000 0.0000 0.0625 0.0000 0.0000)">
<path d="M 1057.0000,1645.0000 L 1017.0000,1645.0000 " stroke="#000000" stroke-width="16.0000"  stroke-linecap="butt"  stroke-linejoin="miter"  stroke-miterlimit="10.0000" fill="none" />
</g>
<g transform="matrix(1.0000 0.0000 0.0000 1.0000 0.0000 0.0000)">
</g>
<g transform="matrix(0.0625 0.0000 0.0000 0.0625 0.0000 0.0000)">
<path d="M 1057.0000,1645.0000 L 1097.0000,1645.0000 " stroke="#000000" stroke-width="16.0000"  stroke-linecap="butt"  stroke-linejoin="miter"  stroke-miterlimit="10.0000" fill="none" />
</g>
<g transform="matrix(1.0000 0.0000 0.0000 1.0000 0.0000 0.0000)">
</g>
<g transform="matrix(0.0625 0.0000 0.0000 0.0625 0.0000 0.0000)">
<path d="M 1057.0000,1345.0000 L 1017.0000,1345.0000 " stroke="#000000" stroke-width="16.0000"  stroke-linecap="butt"  stroke-linejoin="miter"  stroke-miterlimit="10.0000" fill="none" />
</g>
<g transform="matrix(1.0000 0.0000 0.0000 1.0000 0.0000 0.0000)">
</g>
<g transform="matrix(0.0625 0.0000 0.0000 0.0625 0.0000 0.0000)">
<path d="M 1057.0000,1345.0000 L 1097.0000,1345.0000 " stroke="#000000" stroke-width="16.0000"  stroke-linecap="butt"  stroke-linejoin="miter"  stroke-miterlimit="10.0000" fill="none" />
</g>
<g transform="matrix(1.0000 0.0000 0.0000 1.0000 0.0000 0.0000)">
</g>
<g transform="matrix(0.0625 0.0000 0.0000 0.0625 0.0000 0.0000)">
<path d="M 1057.0000,1195.0000 L 1017.0000,1195.0000 " stroke="#000000" stroke-width="16.0000"  stroke-linecap="butt"  stroke-linejoin="miter"  stroke-miterlimit="10.0000" fill="none" />
</g>
<g transform="matrix(1.0000 0.0000 0.0000 1.0000 0.0000 0.0000)">
</g>
<g transform="matrix(0.0625 0.0000 0.0000 0.0625 0.0000 0.0000)">
<path d="M 1057.0000,1195.0000 L 1097.0000,1195.0000 " stroke="#000000" stroke-width="16.0000"  stroke-linecap="butt"  stroke-linejoin="miter"  stroke-miterlimit="10.0000" fill="none" />
</g>
<g transform="matrix(1.0000 0.0000 0.0000 1.0000 0.0000 0.0000)">
</g>
<g transform="matrix(0.0625 0.0000 0.0000 0.0625 0.0000 0.0000)">
<path d="M 1057.0000,1045.0000 L 1017.0000,1045.0000 " stroke="#000000" stroke-width="16.0000"  stroke-linecap="butt"  stroke-linejoin="miter"  stroke-miterlimit="10.0000" fill="none" />
</g>
<g transform="matrix(1.0000 0.0000 0.0000 1.0000 0.0000 0.0000)">
</g>
<g transform="matrix(0.0625 0.0000 0.0000 0.0625 0.0000 0.0000)">
<path d="M 1057.0000,1045.0000 L 1097.0000,1045.0000 " stroke="#000000" stroke-width="16.0000"  stroke-linecap="butt"  stroke-linejoin="miter"  stroke-miterlimit="10.0000" fill="none" />
</g>
<g transform="matrix(1.0000 0.0000 0.0000 1.0000 0.0000 0.0000)">
</g>
<g transform="matrix(0.0625 0.0000 0.0000 0.0625 0.0000 0.0000)">
<path d="M 1057.0000,895.0000 L 1017.0000,895.0000 " stroke="#000000" stroke-width="16.0000"  stroke-linecap="butt"  stroke-linejoin="miter"  stroke-miterlimit="10.0000" fill="none" />
</g>
<g transform="matrix(1.0000 0.0000 0.0000 1.0000 0.0000 0.0000)">
</g>
<g transform="matrix(0.0625 0.0000 0.0000 0.0625 0.0000 0.0000)">
<path d="M 1057.0000,895.0000 L 1097.0000,895.0000 " stroke="#000000" stroke-width="16.0000"  stroke-linecap="butt"  stroke-linejoin="miter"  stroke-miterlimit="10.0000" fill="none" />
</g>
<g transform="matrix(1.0000 0.0000 0.0000 1.0000 0.0000 0.0000)">
</g>
<g transform="matrix(0.0625 0.0000 0.0000 0.0625 0.0000 0.0000)">
<path d="M 1245.0000,1959.0000 L 1245.0000,4497.0000 L 1622.0000,4497.0000 L 1622.0000,1959.0000 L 1245.0000,1959.0000 Z" stroke-width="1px" stroke="#FF0000"  fill="#FF0000" />
</g>
<g transform="matrix(1.0000 0.0000 0.0000 1.0000 0.0000 0.0000)">
</g>
<g transform="matrix(0.0625 0.0000 0.0000 0.0625 0.0000 0.0000)">
<path d="M 1999.0000,3278.0000 L 1999.0000,4497.0000 L 2375.0000,4497.0000 L 2375.0000,3278.0000 L 1999.0000,3278.0000 Z" stroke-width="1px" stroke="#FF0000"  fill="#FF0000" />
</g>
<g transform="matrix(1.0000 0.0000 0.0000 1.0000 0.0000 0.0000)">
</g>
<g transform="matrix(0.0625 0.0000 0.0000 0.0625 0.0000 0.0000)">
<path d="M 2752.0000,2702.0000 L 2752.0000,4497.0000 L 3129.0000,4497.0000 L 3129.0000,2702.0000 L 2752.0000,2702.0000 Z" stroke-width="1px" stroke="#FF0000"  fill="#FF0000" />
</g>
<g transform="matrix(1.0000 0.0000 0.0000 1.0000 0.0000 0.0000)">
</g>
<g transform="matrix(0.0625 0.0000 0.0000 0.0625 0.0000 0.0000)">
<path d="M 3505.0000,3588.0000 L 3505.0000,4497.0000 L 3882.0000,4497.0000 L 3882.0000,3588.0000 L 3505.0000,3588.0000 Z" stroke-width="1px" stroke="#FF0000"  fill="#FF0000" />
</g>
<g transform="matrix(1.0000 0.0000 0.0000 1.0000 0.0000 0.0000)">
</g>
<g transform="matrix(0.0625 0.0000 0.0000 0.0625 0.0000 0.0000)">
<path d="M 4259.0000,2069.0000 L 4259.0000,4497.0000 L 4636.0000,4497.0000 L 4636.0000,2069.0000 L 4259.0000,2069.0000 Z" stroke-width="1px" stroke="#FF0000"  fill="#FF0000" />
</g>
<g transform="matrix(1.0000 0.0000 0.0000 1.0000 0.0000 0.0000)">
</g>
<g transform="matrix(0.0625 0.0000 0.0000 0.0625 0.0000 0.0000)">
<path d="M 5012.0000,1219.0000 L 5012.0000,4497.0000 L 5389.0000,4497.0000 L 5389.0000,1219.0000 L 5012.0000,1219.0000 Z" stroke-width="1px" stroke="#FF0000"  fill="#FF0000" />
</g>
<g transform="matrix(1.0000 0.0000 0.0000 1.0000 0.0000 0.0000)">
</g>
<g transform="matrix(0.0625 0.0000 0.0000 0.0625 0.0000 0.0000)">
<path d="M 5766.0000,3121.0000 L 5766.0000,4497.0000 L 6142.0000,4497.0000 L 6142.0000,3121.0000 L 5766.0000,3121.0000 Z" stroke-width="1px" stroke="#FF0000"  fill="#FF0000" />
</g>
<g transform="matrix(1.0000 0.0000 0.0000 1.0000 0.0000 0.0000)">
</g>
<g transform="matrix(0.0625 0.0000 0.0000 0.0625 0.0000 0.0000)">
<path d="M 6519.0000,2782.0000 L 6519.0000,4497.0000 L 6896.0000,4497.0000 L 6896.0000,2782.0000 L 6519.0000,2782.0000 Z" stroke-width="1px" stroke="#FF0000"  fill="#FF0000" />
</g>
<g transform="matrix(1.0000 0.0000 0.0000 1.0000 0.0000 0.0000)">
</g>
<g transform="matrix(0.0625 0.0000 0.0000 0.0625 0.0000 0.0000)">
<path d="M 7272.0000,3210.0000 L 7272.0000,4497.0000 L 7649.0000,4497.0000 L 7649.0000,3210.0000 L 7272.0000,3210.0000 Z" stroke-width="1px" stroke="#FF0000"  fill="#FF0000" />
</g>
<g transform="matrix(1.0000 0.0000 0.0000 1.0000 0.0000 0.0000)">
</g>
<g transform="matrix(0.0625 0.0000 0.0000 0.0625 0.0000 0.0000)">
<path d="M 8026.0000,2987.0000 L 8026.0000,4497.0000 L 8402.0000,4497.0000 L 8402.0000,2987.0000 L 8026.0000,2987.0000 Z" stroke-width="1px" stroke="#FF0000"  fill="#FF0000" />
</g>
<g transform="matrix(1.0000 0.0000 0.0000 1.0000 0.0000 0.0000)">
</g>
<g transform="matrix(0.0625 0.0000 0.0000 0.0625 0.0000 0.0000)">
<path d="M 8779.0000,2053.0000 L 8779.0000,4497.0000 L 9156.0000,4497.0000 L 9156.0000,2053.0000 L 8779.0000,2053.0000 Z" stroke-width="1px" stroke="#FF0000"  fill="#FF0000" />
</g>
<g transform="matrix(1.0000 0.0000 0.0000 1.0000 0.0000 0.0000)">
</g>
<g transform="matrix(0.0625 0.0000 0.0000 0.0625 0.0000 0.0000)">
<path d="M 9532.0000,4441.0000 L 9532.0000,4497.0000 L 9909.0000,4497.0000 L 9909.0000,4441.0000 L 9532.0000,4441.0000 Z" stroke-width="1px" stroke="#FF0000"  fill="#FF0000" />
</g>
<g transform="matrix(1.0000 0.0000 0.0000 1.0000 0.0000 0.0000)">
</g>
<g transform="matrix(0.0625 0.0000 0.0000 0.0625 0.0000 0.0000)">
<path d="M 10286.0000,3639.0000 L 10286.0000,4497.0000 L 10662.0000,4497.0000 L 10662.0000,3639.0000 L 10286.0000,3639.0000 Z" stroke-width="1px" stroke="#FF0000"  fill="#FF0000" />
</g>
<g transform="matrix(1.0000 0.0000 0.0000 1.0000 0.0000 0.0000)">
</g>
<g transform="matrix(0.0625 0.0000 0.0000 0.0625 0.0000 0.0000)">
<path d="M 11039.0000,3682.0000 L 11039.0000,4497.0000 L 11416.0000,4497.0000 L 11416.0000,3682.0000 L 11039.0000,3682.0000 Z" stroke-width="1px" stroke="#FF0000"  fill="#FF0000" />
</g>
<g transform="matrix(1.0000 0.0000 0.0000 1.0000 0.0000 0.0000)">
</g>
<g transform="matrix(0.0625 0.0000 0.0000 0.0625 0.0000 0.0000)">
<path d="M 1057.0000,4497.0000 L 11604.0000,4497.0000 " stroke="#000000" stroke-width="16.0000"  stroke-linecap="butt"  stroke-linejoin="miter"  stroke-miterlimit="10.0000" fill="none" />
</g>
<g transform="matrix(1.0000 0.0000 0.0000 1.0000 0.0000 0.0000)">
</g>
<g transform="matrix(0.0625 0.0000 0.0000 0.0625 0.0000 0.0000)">
<path d="M 1434.0000,4497.0000 L 1434.0000,4577.0000 " stroke="#000000" stroke-width="16.0000"  stroke-linecap="butt"  stroke-linejoin="miter"  stroke-miterlimit="10.0000" fill="none" />
</g>
<g transform="matrix(1.0000 0.0000 0.0000 1.0000 0.0000 0.0000)">
</g>
<g transform="matrix(0.0625 0.0000 0.0000 0.0625 0.0000 0.0000)">
<path d="M 1434.0000,4497.0000 L 1434.0000,4417.0000 " stroke="#000000" stroke-width="16.0000"  stroke-linecap="butt"  stroke-linejoin="miter"  stroke-miterlimit="10.0000" fill="none" />
</g>
<g transform="matrix(1.0000 0.0000 0.0000 1.0000 0.0000 0.0000)">
<text font-family="Arial" fill="#000000" style ="white-space:pre;" font-weight="400" text-anchor="start" x="75.0000" y="301.0000" font-size="12.0000" ><![CDATA[D102]]></text>
</g>
<g transform="matrix(0.0625 0.0000 0.0000 0.0625 0.0000 0.0000)">
<path d="M 2187.0000,4497.0000 L 2187.0000,4577.0000 " stroke="#000000" stroke-width="16.0000"  stroke-linecap="butt"  stroke-linejoin="miter"  stroke-miterlimit="10.0000" fill="none" />
</g>
<g transform="matrix(1.0000 0.0000 0.0000 1.0000 0.0000 0.0000)">
</g>
<g transform="matrix(0.0625 0.0000 0.0000 0.0625 0.0000 0.0000)">
<path d="M 2187.0000,4497.0000 L 2187.0000,4417.0000 " stroke="#000000" stroke-width="16.0000"  stroke-linecap="butt"  stroke-linejoin="miter"  stroke-miterlimit="10.0000" fill="none" />
</g>
<g transform="matrix(1.0000 0.0000 0.0000 1.0000 0.0000 0.0000)">
<text font-family="Arial" fill="#000000" style ="white-space:pre;" font-weight="400" text-anchor="start" x="122.0000" y="301.0000" font-size="12.0000" ><![CDATA[D103]]></text>
</g>
<g transform="matrix(0.0625 0.0000 0.0000 0.0625 0.0000 0.0000)">
<path d="M 2940.0000,4497.0000 L 2940.0000,4577.0000 " stroke="#000000" stroke-width="16.0000"  stroke-linecap="butt"  stroke-linejoin="miter"  stroke-miterlimit="10.0000" fill="none" />
</g>
<g transform="matrix(1.0000 0.0000 0.0000 1.0000 0.0000 0.0000)">
</g>
<g transform="matrix(0.0625 0.0000 0.0000 0.0625 0.0000 0.0000)">
<path d="M 2940.0000,4497.0000 L 2940.0000,4417.0000 " stroke="#000000" stroke-width="16.0000"  stroke-linecap="butt"  stroke-linejoin="miter"  stroke-miterlimit="10.0000" fill="none" />
</g>
<g transform="matrix(1.0000 0.0000 0.0000 1.0000 0.0000 0.0000)">
<text font-family="Arial" fill="#000000" style ="white-space:pre;" font-weight="400" text-anchor="start" x="169.0000" y="301.0000" font-size="12.0000" ><![CDATA[D108]]></text>
</g>
<g transform="matrix(0.0625 0.0000 0.0000 0.0625 0.0000 0.0000)">
<path d="M 3694.0000,4497.0000 L 3694.0000,4577.0000 " stroke="#000000" stroke-width="16.0000"  stroke-linecap="butt"  stroke-linejoin="miter"  stroke-miterlimit="10.0000" fill="none" />
</g>
<g transform="matrix(1.0000 0.0000 0.0000 1.0000 0.0000 0.0000)">
</g>
<g transform="matrix(0.0625 0.0000 0.0000 0.0625 0.0000 0.0000)">
<path d="M 3694.0000,4497.0000 L 3694.0000,4417.0000 " stroke="#000000" stroke-width="16.0000"  stroke-linecap="butt"  stroke-linejoin="miter"  stroke-miterlimit="10.0000" fill="none" />
</g>
<g transform="matrix(1.0000 0.0000 0.0000 1.0000 0.0000 0.0000)">
<text font-family="Arial" fill="#000000" style ="white-space:pre;" font-weight="400" text-anchor="start" x="216.0000" y="301.0000" font-size="12.0000" ><![CDATA[D138]]></text>
</g>
<g transform="matrix(0.0625 0.0000 0.0000 0.0625 0.0000 0.0000)">
<path d="M 4447.0000,4497.0000 L 4447.0000,4577.0000 " stroke="#000000" stroke-width="16.0000"  stroke-linecap="butt"  stroke-linejoin="miter"  stroke-miterlimit="10.0000" fill="none" />
</g>
<g transform="matrix(1.0000 0.0000 0.0000 1.0000 0.0000 0.0000)">
</g>
<g transform="matrix(0.0625 0.0000 0.0000 0.0625 0.0000 0.0000)">
<path d="M 4447.0000,4497.0000 L 4447.0000,4417.0000 " stroke="#000000" stroke-width="16.0000"  stroke-linecap="butt"  stroke-linejoin="miter"  stroke-miterlimit="10.0000" fill="none" />
</g>
<g transform="matrix(1.0000 0.0000 0.0000 1.0000 0.0000 0.0000)">
<text font-family="Arial" fill="#000000" style ="white-space:pre;" font-weight="400" text-anchor="start" x="263.0000" y="301.0000" font-size="12.0000" ><![CDATA[D154]]></text>
</g>
<g transform="matrix(0.0625 0.0000 0.0000 0.0625 0.0000 0.0000)">
<path d="M 5201.0000,4497.0000 L 5201.0000,4577.0000 " stroke="#000000" stroke-width="16.0000"  stroke-linecap="butt"  stroke-linejoin="miter"  stroke-miterlimit="10.0000" fill="none" />
</g>
<g transform="matrix(1.0000 0.0000 0.0000 1.0000 0.0000 0.0000)">
</g>
<g transform="matrix(0.0625 0.0000 0.0000 0.0625 0.0000 0.0000)">
<path d="M 5201.0000,4497.0000 L 5201.0000,4417.0000 " stroke="#000000" stroke-width="16.0000"  stroke-linecap="butt"  stroke-linejoin="miter"  stroke-miterlimit="10.0000" fill="none" />
</g>
<g transform="matrix(1.0000 0.0000 0.0000 1.0000 0.0000 0.0000)">
<text font-family="Arial" fill="#000000" style ="white-space:pre;" font-weight="400" text-anchor="start" x="310.0000" y="301.0000" font-size="12.0000" ><![CDATA[D172]]></text>
</g>
<g transform="matrix(0.0625 0.0000 0.0000 0.0625 0.0000 0.0000)">
<path d="M 5954.0000,4497.0000 L 5954.0000,4577.0000 " stroke="#000000" stroke-width="16.0000"  stroke-linecap="butt"  stroke-linejoin="miter"  stroke-miterlimit="10.0000" fill="none" />
</g>
<g transform="matrix(1.0000 0.0000 0.0000 1.0000 0.0000 0.0000)">
</g>
<g transform="matrix(0.0625 0.0000 0.0000 0.0625 0.0000 0.0000)">
<path d="M 5954.0000,4497.0000 L 5954.0000,4417.0000 " stroke="#000000" stroke-width="16.0000"  stroke-linecap="butt"  stroke-linejoin="miter"  stroke-miterlimit="10.0000" fill="none" />
</g>
<g transform="matrix(1.0000 0.0000 0.0000 1.0000 0.0000 0.0000)">
<text font-family="Arial" fill="#000000" style ="white-space:pre;" font-weight="400" text-anchor="start" x="357.0000" y="301.0000" font-size="12.0000" ><![CDATA[D196]]></text>
</g>
<g transform="matrix(0.0625 0.0000 0.0000 0.0625 0.0000 0.0000)">
<path d="M 6707.0000,4497.0000 L 6707.0000,4577.0000 " stroke="#000000" stroke-width="16.0000"  stroke-linecap="butt"  stroke-linejoin="miter"  stroke-miterlimit="10.0000" fill="none" />
</g>
<g transform="matrix(1.0000 0.0000 0.0000 1.0000 0.0000 0.0000)">
</g>
<g transform="matrix(0.0625 0.0000 0.0000 0.0625 0.0000 0.0000)">
<path d="M 6707.0000,4497.0000 L 6707.0000,4417.0000 " stroke="#000000" stroke-width="16.0000"  stroke-linecap="butt"  stroke-linejoin="miter"  stroke-miterlimit="10.0000" fill="none" />
</g>
<g transform="matrix(1.0000 0.0000 0.0000 1.0000 0.0000 0.0000)">
<text font-family="Arial" fill="#000000" style ="white-space:pre;" font-weight="400" text-anchor="start" x="404.0000" y="301.0000" font-size="12.0000" ><![CDATA[H146]]></text>
</g>
<g transform="matrix(0.0625 0.0000 0.0000 0.0625 0.0000 0.0000)">
<path d="M 7461.0000,4497.0000 L 7461.0000,4577.0000 " stroke="#000000" stroke-width="16.0000"  stroke-linecap="butt"  stroke-linejoin="miter"  stroke-miterlimit="10.0000" fill="none" />
</g>
<g transform="matrix(1.0000 0.0000 0.0000 1.0000 0.0000 0.0000)">
</g>
<g transform="matrix(0.0625 0.0000 0.0000 0.0625 0.0000 0.0000)">
<path d="M 7461.0000,4497.0000 L 7461.0000,4417.0000 " stroke="#000000" stroke-width="16.0000"  stroke-linecap="butt"  stroke-linejoin="miter"  stroke-miterlimit="10.0000" fill="none" />
</g>
<g transform="matrix(1.0000 0.0000 0.0000 1.0000 0.0000 0.0000)">
<text font-family="Arial" fill="#000000" style ="white-space:pre;" font-weight="400" text-anchor="start" x="451.0000" y="301.0000" font-size="12.0000" ><![CDATA[H147]]></text>
</g>
<g transform="matrix(0.0625 0.0000 0.0000 0.0625 0.0000 0.0000)">
<path d="M 8214.0000,4497.0000 L 8214.0000,4577.0000 " stroke="#000000" stroke-width="16.0000"  stroke-linecap="butt"  stroke-linejoin="miter"  stroke-miterlimit="10.0000" fill="none" />
</g>
<g transform="matrix(1.0000 0.0000 0.0000 1.0000 0.0000 0.0000)">
</g>
<g transform="matrix(0.0625 0.0000 0.0000 0.0625 0.0000 0.0000)">
<path d="M 8214.0000,4497.0000 L 8214.0000,4417.0000 " stroke="#000000" stroke-width="16.0000"  stroke-linecap="butt"  stroke-linejoin="miter"  stroke-miterlimit="10.0000" fill="none" />
</g>
<g transform="matrix(1.0000 0.0000 0.0000 1.0000 0.0000 0.0000)">
<text font-family="Arial" fill="#000000" style ="white-space:pre;" font-weight="400" text-anchor="start" x="498.0000" y="301.0000" font-size="12.0000" ><![CDATA[H148]]></text>
</g>
<g transform="matrix(0.0625 0.0000 0.0000 0.0625 0.0000 0.0000)">
<path d="M 8967.0000,4497.0000 L 8967.0000,4577.0000 " stroke="#000000" stroke-width="16.0000"  stroke-linecap="butt"  stroke-linejoin="miter"  stroke-miterlimit="10.0000" fill="none" />
</g>
<g transform="matrix(1.0000 0.0000 0.0000 1.0000 0.0000 0.0000)">
</g>
<g transform="matrix(0.0625 0.0000 0.0000 0.0625 0.0000 0.0000)">
<path d="M 8967.0000,4497.0000 L 8967.0000,4417.0000 " stroke="#000000" stroke-width="16.0000"  stroke-linecap="butt"  stroke-linejoin="miter"  stroke-miterlimit="10.0000" fill="none" />
</g>
<g transform="matrix(1.0000 0.0000 0.0000 1.0000 0.0000 0.0000)">
<text font-family="Arial" fill="#000000" style ="white-space:pre;" font-weight="400" text-anchor="start" x="545.0000" y="301.0000" font-size="12.0000" ><![CDATA[H159]]></text>
</g>
<g transform="matrix(0.0625 0.0000 0.0000 0.0625 0.0000 0.0000)">
<path d="M 9721.0000,4497.0000 L 9721.0000,4577.0000 " stroke="#000000" stroke-width="16.0000"  stroke-linecap="butt"  stroke-linejoin="miter"  stroke-miterlimit="10.0000" fill="none" />
</g>
<g transform="matrix(1.0000 0.0000 0.0000 1.0000 0.0000 0.0000)">
</g>
<g transform="matrix(0.0625 0.0000 0.0000 0.0625 0.0000 0.0000)">
<path d="M 9721.0000,4497.0000 L 9721.0000,4417.0000 " stroke="#000000" stroke-width="16.0000"  stroke-linecap="butt"  stroke-linejoin="miter"  stroke-miterlimit="10.0000" fill="none" />
</g>
<g transform="matrix(1.0000 0.0000 0.0000 1.0000 0.0000 0.0000)">
<text font-family="Arial" fill="#000000" style ="white-space:pre;" font-weight="400" text-anchor="start" x="593.0000" y="301.0000" font-size="12.0000" ><![CDATA[H160]]></text>
</g>
<g transform="matrix(0.0625 0.0000 0.0000 0.0625 0.0000 0.0000)">
<path d="M 10474.0000,4497.0000 L 10474.0000,4577.0000 " stroke="#000000" stroke-width="16.0000"  stroke-linecap="butt"  stroke-linejoin="miter"  stroke-miterlimit="10.0000" fill="none" />
</g>
<g transform="matrix(1.0000 0.0000 0.0000 1.0000 0.0000 0.0000)">
</g>
<g transform="matrix(0.0625 0.0000 0.0000 0.0625 0.0000 0.0000)">
<path d="M 10474.0000,4497.0000 L 10474.0000,4417.0000 " stroke="#000000" stroke-width="16.0000"  stroke-linecap="butt"  stroke-linejoin="miter"  stroke-miterlimit="10.0000" fill="none" />
</g>
<g transform="matrix(1.0000 0.0000 0.0000 1.0000 0.0000 0.0000)">
<text font-family="Arial" fill="#000000" style ="white-space:pre;" font-weight="400" text-anchor="start" x="640.0000" y="301.0000" font-size="12.0000" ><![CDATA[H161]]></text>
</g>
<g transform="matrix(0.0625 0.0000 0.0000 0.0625 0.0000 0.0000)">
<path d="M 11227.0000,4497.0000 L 11227.0000,4577.0000 " stroke="#000000" stroke-width="16.0000"  stroke-linecap="butt"  stroke-linejoin="miter"  stroke-miterlimit="10.0000" fill="none" />
</g>
<g transform="matrix(1.0000 0.0000 0.0000 1.0000 0.0000 0.0000)">
</g>
<g transform="matrix(0.0625 0.0000 0.0000 0.0625 0.0000 0.0000)">
<path d="M 11227.0000,4497.0000 L 11227.0000,4417.0000 " stroke="#000000" stroke-width="16.0000"  stroke-linecap="butt"  stroke-linejoin="miter"  stroke-miterlimit="10.0000" fill="none" />
</g>
<g transform="matrix(1.0000 0.0000 0.0000 1.0000 0.0000 0.0000)">
<text font-family="Arial" fill="#000000" style ="white-space:pre;" font-weight="400" text-anchor="start" x="687.0000" y="301.0000" font-size="12.0000" ><![CDATA[H162]]></text>
<text font-family="Arial" fill="#000000" style ="white-space:pre;" font-weight="700" text-anchor="start" x="363.0000" y="324.0000" font-size="14.0000" ><![CDATA[SubjectId]]></text>
</g>
<g transform="matrix(0.0625 0.0000 0.0000 0.0625 0.0000 0.0000)">
<path d="M 1057.0000,744.0000 L 1057.0000,4497.0000 " stroke="#000000" stroke-width="16.0000"  stroke-linecap="butt"  stroke-linejoin="miter"  stroke-miterlimit="10.0000" fill="none" />
</g>
<g transform="matrix(1.0000 0.0000 0.0000 1.0000 0.0000 0.0000)">
</g>
<g transform="matrix(0.0625 0.0000 0.0000 0.0625 0.0000 0.0000)">
<path d="M 1057.0000,4497.0000 L 977.0000,4497.0000 " stroke="#000000" stroke-width="16.0000"  stroke-linecap="butt"  stroke-linejoin="miter"  stroke-miterlimit="10.0000" fill="none" />
</g>
<g transform="matrix(1.0000 0.0000 0.0000 1.0000 0.0000 0.0000)">
</g>
<g transform="matrix(0.0625 0.0000 0.0000 0.0625 0.0000 0.0000)">
<path d="M 1057.0000,4497.0000 L 1137.0000,4497.0000 " stroke="#000000" stroke-width="16.0000"  stroke-linecap="butt"  stroke-linejoin="miter"  stroke-miterlimit="10.0000" fill="none" />
</g>
<g transform="matrix(1.0000 0.0000 0.0000 1.0000 0.0000 0.0000)">
<text font-family="Arial" fill="#000000" style ="white-space:pre;" font-weight="400" text-anchor="start" x="41.0000" y="285.0000" font-size="15.0000" ><![CDATA[0]]></text>
</g>
<g transform="matrix(0.0625 0.0000 0.0000 0.0625 0.0000 0.0000)">
<path d="M 1057.0000,3747.0000 L 977.0000,3747.0000 " stroke="#000000" stroke-width="16.0000"  stroke-linecap="butt"  stroke-linejoin="miter"  stroke-miterlimit="10.0000" fill="none" />
</g>
<g transform="matrix(1.0000 0.0000 0.0000 1.0000 0.0000 0.0000)">
</g>
<g transform="matrix(0.0625 0.0000 0.0000 0.0625 0.0000 0.0000)">
<path d="M 1057.0000,3747.0000 L 1137.0000,3747.0000 " stroke="#000000" stroke-width="16.0000"  stroke-linecap="butt"  stroke-linejoin="miter"  stroke-miterlimit="10.0000" fill="none" />
</g>
<g transform="matrix(1.0000 0.0000 0.0000 1.0000 0.0000 0.0000)">
<text font-family="Arial" fill="#000000" style ="white-space:pre;" font-weight="400" text-anchor="start" x="41.0000" y="239.0000" font-size="15.0000" ><![CDATA[5]]></text>
</g>
<g transform="matrix(0.0625 0.0000 0.0000 0.0625 0.0000 0.0000)">
<path d="M 1057.0000,2996.0000 L 977.0000,2996.0000 " stroke="#000000" stroke-width="16.0000"  stroke-linecap="butt"  stroke-linejoin="miter"  stroke-miterlimit="10.0000" fill="none" />
</g>
<g transform="matrix(1.0000 0.0000 0.0000 1.0000 0.0000 0.0000)">
</g>
<g transform="matrix(0.0625 0.0000 0.0000 0.0625 0.0000 0.0000)">
<path d="M 1057.0000,2996.0000 L 1137.0000,2996.0000 " stroke="#000000" stroke-width="16.0000"  stroke-linecap="butt"  stroke-linejoin="miter"  stroke-miterlimit="10.0000" fill="none" />
</g>
<g transform="matrix(1.0000 0.0000 0.0000 1.0000 0.0000 0.0000)">
<text font-family="Arial" fill="#000000" style ="white-space:pre;" font-weight="400" text-anchor="start" x="37.0000" y="192.0000" font-size="15.0000" ><![CDATA[10]]></text>
</g>
<g transform="matrix(0.0625 0.0000 0.0000 0.0625 0.0000 0.0000)">
<path d="M 1057.0000,2246.0000 L 977.0000,2246.0000 " stroke="#000000" stroke-width="16.0000"  stroke-linecap="butt"  stroke-linejoin="miter"  stroke-miterlimit="10.0000" fill="none" />
</g>
<g transform="matrix(1.0000 0.0000 0.0000 1.0000 0.0000 0.0000)">
</g>
<g transform="matrix(0.0625 0.0000 0.0000 0.0625 0.0000 0.0000)">
<path d="M 1057.0000,2246.0000 L 1137.0000,2246.0000 " stroke="#000000" stroke-width="16.0000"  stroke-linecap="butt"  stroke-linejoin="miter"  stroke-miterlimit="10.0000" fill="none" />
</g>
<g transform="matrix(1.0000 0.0000 0.0000 1.0000 0.0000 0.0000)">
<text font-family="Arial" fill="#000000" style ="white-space:pre;" font-weight="400" text-anchor="start" x="37.0000" y="145.0000" font-size="15.0000" ><![CDATA[15]]></text>
</g>
<g transform="matrix(0.0625 0.0000 0.0000 0.0625 0.0000 0.0000)">
<path d="M 1057.0000,1495.0000 L 977.0000,1495.0000 " stroke="#000000" stroke-width="16.0000"  stroke-linecap="butt"  stroke-linejoin="miter"  stroke-miterlimit="10.0000" fill="none" />
</g>
<g transform="matrix(1.0000 0.0000 0.0000 1.0000 0.0000 0.0000)">
</g>
<g transform="matrix(0.0625 0.0000 0.0000 0.0625 0.0000 0.0000)">
<path d="M 1057.0000,1495.0000 L 1137.0000,1495.0000 " stroke="#000000" stroke-width="16.0000"  stroke-linecap="butt"  stroke-linejoin="miter"  stroke-miterlimit="10.0000" fill="none" />
</g>
<g transform="matrix(1.0000 0.0000 0.0000 1.0000 0.0000 0.0000)">
<text font-family="Arial" fill="#000000" style ="white-space:pre;" font-weight="400" text-anchor="start" x="37.0000" y="98.0000" font-size="15.0000" ><![CDATA[20]]></text>
</g>
<g transform="matrix(0.0625 0.0000 0.0000 0.0625 0.0000 0.0000)">
<path d="M 1057.0000,744.0000 L 977.0000,744.0000 " stroke="#000000" stroke-width="16.0000"  stroke-linecap="butt"  stroke-linejoin="miter"  stroke-miterlimit="10.0000" fill="none" />
</g>
<g transform="matrix(1.0000 0.0000 0.0000 1.0000 0.0000 0.0000)">
</g>
<g transform="matrix(0.0625 0.0000 0.0000 0.0625 0.0000 0.0000)">
<path d="M 1057.0000,744.0000 L 1137.0000,744.0000 " stroke="#000000" stroke-width="16.0000"  stroke-linecap="butt"  stroke-linejoin="miter"  stroke-miterlimit="10.0000" fill="none" />
</g>
<g transform="matrix(1.0000 0.0000 0.0000 1.0000 0.0000 0.0000)">
<text font-family="Arial" fill="#000000" style ="white-space:pre;" font-weight="400" text-anchor="start" x="37.0000" y="51.0000" font-size="15.0000" ><![CDATA[25]]></text>
<defs><clipPath id="clip-41"><path d="M 10.0000,0.0000 L 29.0000,0.0000 L 29.0000,333.0000 L 10.0000,333.0000 L 10.0000,0.0000 Z Z" /></clipPath></defs>
<text  clip-path="url(#clip-41)" font-family="MS UI Gothic" fill="#000000" transform="rotate(-90, 23.0000, 344.4000) translate(0, 14.4000)" style ="white-space:pre;" font-weight="700" text-anchor="start" x="23.0000" y="330.0000" font-size="16.0000" ><![CDATA[峰]]></text>
<text  clip-path="url(#clip-41)" font-family="MS UI Gothic" fill="#000000" transform="rotate(-90, 23.0000, 328.4000) translate(0, 14.4000)" style ="white-space:pre;" font-weight="700" text-anchor="start" x="23.0000" y="314.0000" font-size="16.0000" ><![CDATA[面]]></text>
<defs><clipPath id="clip-18467"><path d="M 10.0000,0.0000 L 29.0000,0.0000 L 29.0000,333.0000 L 10.0000,333.0000 L 10.0000,0.0000 Z Z" /></clipPath></defs>
<text  clip-path="url(#clip-18467)" font-family="SimSun" fill="#000000" transform="rotate(-90, 23.0000, 311.4000) translate(0, 14.4000)" style ="white-space:pre;" font-weight="700" text-anchor="start" x="23.0000" y="297.0000" font-size="16.0000" ><![CDATA[积]]></text>
<text font-family="Arial" fill="#000000" transform="rotate(-90, 23.0000, 289.6000) translate(0, 12.6000)" style ="white-space:pre;" font-weight="700" text-anchor="start" x="23.0000" y="277.0000" font-size="14.0000" ><![CDATA[R]]></text>
<text font-family="Arial" fill="#000000" transform="rotate(-90, 23.0000, 279.6000) translate(0, 12.6000)" style ="white-space:pre;" font-weight="700" text-anchor="start" x="23.0000" y="267.0000" font-size="14.0000" ><![CDATA[a]]></text>
<text font-family="Arial" fill="#000000" transform="rotate(-90, 23.0000, 271.6000) translate(0, 12.6000)" style ="white-space:pre;" font-weight="700" text-anchor="start" x="23.0000" y="259.0000" font-size="14.0000" ><![CDATA[t]]></text>
<text font-family="Arial" fill="#000000" transform="rotate(-90, 23.0000, 266.6000) translate(0, 12.6000)" style ="white-space:pre;" font-weight="700" text-anchor="start" x="23.0000" y="254.0000" font-size="14.0000" ><![CDATA[i]]></text>
<text font-family="Arial" fill="#000000" transform="rotate(-90, 23.0000, 262.6000) translate(0, 12.6000)" style ="white-space:pre;" font-weight="700" text-anchor="start" x="23.0000" y="250.0000" font-size="14.0000" ><![CDATA[o]]></text>
<text font-family="Arial" fill="#000000" transform="rotate(-90, 23.0000, 253.6000) translate(0, 12.6000)" style ="white-space:pre;" font-weight="700" text-anchor="start" x="23.0000" y="241.0000" font-size="14.0000" ><![CDATA[ ]]></text>
<text font-family="Arial" fill="#000000" transform="rotate(-90, 23.0000, 247.6000) translate(0, 12.6000)" style ="white-space:pre;" font-weight="700" text-anchor="start" x="23.0000" y="235.0000" font-size="14.0000" ><![CDATA[t]]></text>
<text font-family="Arial" fill="#000000" transform="rotate(-90, 23.0000, 242.6000) translate(0, 12.6000)" style ="white-space:pre;" font-weight="700" text-anchor="start" x="23.0000" y="230.0000" font-size="14.0000" ><![CDATA[o]]></text>
<text font-family="Arial" fill="#000000" transform="rotate(-90, 23.0000, 233.6000) translate(0, 12.6000)" style ="white-space:pre;" font-weight="700" text-anchor="start" x="23.0000" y="221.0000" font-size="14.0000" ><![CDATA[ ]]></text>
<text font-family="Arial" fill="#000000" transform="rotate(-90, 23.0000, 227.6000) translate(0, 12.6000)" style ="white-space:pre;" font-weight="700" text-anchor="start" x="23.0000" y="215.0000" font-size="14.0000" ><![CDATA[G]]></text>
<text font-family="Arial" fill="#000000" transform="rotate(-90, 23.0000, 216.6000) translate(0, 12.6000)" style ="white-space:pre;" font-weight="700" text-anchor="start" x="23.0000" y="204.0000" font-size="14.0000" ><![CDATA[l]]></text>
<text font-family="Arial" fill="#000000" transform="rotate(-90, 23.0000, 212.6000) translate(0, 12.6000)" style ="white-space:pre;" font-weight="700" text-anchor="start" x="23.0000" y="200.0000" font-size="14.0000" ><![CDATA[o]]></text>
<text font-family="Arial" fill="#000000" transform="rotate(-90, 23.0000, 203.6000) translate(0, 12.6000)" style ="white-space:pre;" font-weight="700" text-anchor="start" x="23.0000" y="191.0000" font-size="14.0000" ><![CDATA[b]]></text>
<text font-family="Arial" fill="#000000" transform="rotate(-90, 23.0000, 194.6000) translate(0, 12.6000)" style ="white-space:pre;" font-weight="700" text-anchor="start" x="23.0000" y="182.0000" font-size="14.0000" ><![CDATA[a]]></text>
<text font-family="Arial" fill="#000000" transform="rotate(-90, 23.0000, 186.6000) translate(0, 12.6000)" style ="white-space:pre;" font-weight="700" text-anchor="start" x="23.0000" y="174.0000" font-size="14.0000" ><![CDATA[l]]></text>
<text font-family="Arial" fill="#000000" transform="rotate(-90, 23.0000, 182.6000) translate(0, 12.6000)" style ="white-space:pre;" font-weight="700" text-anchor="start" x="23.0000" y="170.0000" font-size="14.0000" ><![CDATA[ ]]></text>
<text font-family="Arial" fill="#000000" transform="rotate(-90, 23.0000, 176.6000) translate(0, 12.6000)" style ="white-space:pre;" font-weight="700" text-anchor="start" x="23.0000" y="164.0000" font-size="14.0000" ><![CDATA[S]]></text>
<text font-family="Arial" fill="#000000" transform="rotate(-90, 23.0000, 167.6000) translate(0, 12.6000)" style ="white-space:pre;" font-weight="700" text-anchor="start" x="23.0000" y="155.0000" font-size="14.0000" ><![CDATA[t]]></text>
<text font-family="Arial" fill="#000000" transform="rotate(-90, 23.0000, 162.6000) translate(0, 12.6000)" style ="white-space:pre;" font-weight="700" text-anchor="start" x="23.0000" y="150.0000" font-size="14.0000" ><![CDATA[a]]></text>
<text font-family="Arial" fill="#000000" transform="rotate(-90, 23.0000, 154.6000) translate(0, 12.6000)" style ="white-space:pre;" font-weight="700" text-anchor="start" x="23.0000" y="142.0000" font-size="14.0000" ><![CDATA[n]]></text>
<text font-family="Arial" fill="#000000" transform="rotate(-90, 23.0000, 145.6000) translate(0, 12.6000)" style ="white-space:pre;" font-weight="700" text-anchor="start" x="23.0000" y="133.0000" font-size="14.0000" ><![CDATA[d]]></text>
<text font-family="Arial" fill="#000000" transform="rotate(-90, 23.0000, 136.6000) translate(0, 12.6000)" style ="white-space:pre;" font-weight="700" text-anchor="start" x="23.0000" y="124.0000" font-size="14.0000" ><![CDATA[a]]></text>
<text font-family="Arial" fill="#000000" transform="rotate(-90, 23.0000, 128.6000) translate(0, 12.6000)" style ="white-space:pre;" font-weight="700" text-anchor="start" x="23.0000" y="116.0000" font-size="14.0000" ><![CDATA[r]]></text>
<text font-family="Arial" fill="#000000" transform="rotate(-90, 23.0000, 123.6000) translate(0, 12.6000)" style ="white-space:pre;" font-weight="700" text-anchor="start" x="23.0000" y="111.0000" font-size="14.0000" ><![CDATA[d]]></text>
<text font-family="Arial" fill="#000000" transform="rotate(-90, 23.0000, 114.6000) translate(0, 12.6000)" style ="white-space:pre;" font-weight="700" text-anchor="start" x="23.0000" y="102.0000" font-size="14.0000" ><![CDATA[s]]></text>
<text font-family="Arial" fill="#000000" transform="rotate(-90, 23.0000, 106.6000) translate(0, 12.6000)" style ="white-space:pre;" font-weight="700" text-anchor="start" x="23.0000" y="94.0000" font-size="14.0000" ><![CDATA[ ]]></text>
<defs><clipPath id="clip-6334"><path d="M 10.0000,0.0000 L 29.0000,0.0000 L 29.0000,333.0000 L 10.0000,333.0000 L 10.0000,0.0000 Z Z" /></clipPath></defs>
<text  clip-path="url(#clip-6334)" font-family="SimSun" fill="#000000" transform="rotate(-90, 23.0000, 104.4000) translate(0, 14.4000)" style ="white-space:pre;" font-weight="700" text-anchor="start" x="23.0000" y="90.0000" font-size="16.0000" ><![CDATA[变]]></text>
<defs><clipPath id="clip-26500"><path d="M 10.0000,0.0000 L 29.0000,0.0000 L 29.0000,333.0000 L 10.0000,333.0000 L 10.0000,0.0000 Z Z" /></clipPath></defs>
<text  clip-path="url(#clip-26500)" font-family="MS UI Gothic" fill="#000000" transform="rotate(-90, 23.0000, 88.4000) translate(0, 14.4000)" style ="white-space:pre;" font-weight="700" text-anchor="start" x="23.0000" y="74.0000" font-size="16.0000" ><![CDATA[异]]></text>
<text  clip-path="url(#clip-26500)" font-family="MS UI Gothic" fill="#000000" transform="rotate(-90, 23.0000, 72.4000) translate(0, 14.4000)" style ="white-space:pre;" font-weight="700" text-anchor="start" x="23.0000" y="58.0000" font-size="16.0000" ><![CDATA[系]]></text>
<text  clip-path="url(#clip-26500)" font-family="MS UI Gothic" fill="#000000" transform="rotate(-90, 23.0000, 56.4000) translate(0, 14.4000)" style ="white-space:pre;" font-weight="700" text-anchor="start" x="23.0000" y="42.0000" font-size="16.0000" ><![CDATA[数]]></text>
<text font-family="Arial" fill="#000000" transform="rotate(-90, 23.0000, 37.6000) translate(0, 12.6000)" style ="white-space:pre;" font-weight="700" text-anchor="start" x="23.0000" y="25.0000" font-size="14.0000" ><![CDATA[ ]]></text>
<text font-family="Arial" fill="#000000" transform="rotate(-90, 23.0000, 33.6000) translate(0, 12.6000)" style ="white-space:pre;" font-weight="700" text-anchor="start" x="23.0000" y="21.0000" font-size="14.0000" ><![CDATA[(]]></text>
<text font-family="Arial" fill="#000000" transform="rotate(-90, 23.0000, 27.6000) translate(0, 12.6000)" style ="white-space:pre;" font-weight="700" text-anchor="start" x="23.0000" y="15.0000" font-size="14.0000" ><![CDATA[%]]></text>
<text font-family="Arial" fill="#000000" transform="rotate(-90, 23.0000, 16.6000) translate(0, 12.6000)" style ="white-space:pre;" font-weight="700" text-anchor="start" x="23.0000" y="4.0000" font-size="14.0000" ><![CDATA[)]]></text>
<path d="M 66.0000,20.0000 L 66.0000,39.0000 L 283.0000,39.0000 L 283.0000,20.0000 L 66.0000,20.0000 Z" stroke-width="1px" stroke="#FFFFFF"  fill="#FFFFFF" />
<text font-family="Arial" fill="#000000" style ="white-space:pre;" font-weight="400" text-anchor="start" x="107.0000" y="34.0000" font-size="12.0000" ><![CDATA[DVFSQQADLSR - 633.3097++]]></text>
</g>
<g transform="matrix(0.0625 0.0000 0.0000 0.0625 0.0000 0.0000)">
<path d="M 1113.0000,432.0000 L 1113.0000,544.0000 L 1561.0000,544.0000 L 1561.0000,432.0000 L 1113.0000,432.0000 Z" stroke-width="1px" stroke="#FF0000"  fill="#FF0000" />
</g>
<g transform="matrix(1.0000 0.0000 0.0000 1.0000 0.0000 0.0000)">
</g>
<g transform="matrix(0.0625 0.0000 0.0000 0.0625 0.0000 0.0000)">
<path d="M 1057.0000,328.0000 L 4519.0000,328.0000 L 4519.0000,632.0000 L 1057.0000,632.0000 Z" stroke="#000000" stroke-width="16.0000"  stroke-linecap="butt"  stroke-linejoin="miter"  stroke-miterlimit="10.0000" fill="none" />
</g>
<g transform="matrix(1.0000 0.0000 0.0000 1.0000 0.0000 0.0000)">
<defs><clipPath id="clip-19169"><path d="M 67.0000,47.0000 L 726.0000,47.0000 L 726.0000,282.0000 L 67.0000,282.0000 L 67.0000,47.0000 Z Z" /></clipPath></defs>
</g>
<g transform="matrix(0.0625 0.0000 0.0000 0.0625 0.0000 0.0000)">
<path  clip-path="url(#clip-19169)" d="M 1057.0000,1959.0000 L 1803.0000,1959.0000 L 1803.0000,4497.0000 L 1057.0000,4497.0000 Z" stroke="#000000" stroke-width="16.0000"  stroke-linecap="butt"  stroke-linejoin="miter"  stroke-miterlimit="10.0000" fill="none" />
</g>
<g transform="matrix(1.0000 0.0000 0.0000 1.0000 0.0000 0.0000)">
</g>
<g transform="matrix(0.0625 0.0000 0.0000 0.0625 0.0000 0.0000)">
<path d="M 0.0000,0.0000 L 0.0000,5424.0000 L 12032.0000,5424.0000 L 12032.0000,0.0000 L 0.0000,0.0000 Z" stroke-width="1px" stroke="#FFFFFF"  fill="#FFFFFF" />
</g>
<g transform="matrix(1.0000 0.0000 0.0000 1.0000 0.0000 0.0000)">
<path d="M 66.0000,46.0000 L 66.0000,281.0000 L 726.0000,281.0000 L 726.0000,46.0000 L 66.0000,46.0000 Z" stroke-width="1px" stroke="#FFFFFF"  fill="#FFFFFF" />
</g>
<g transform="matrix(0.0625 0.0000 0.0000 0.0625 0.0000 0.0000)">
<path d="M 1057.0000,4347.0000 L 1017.0000,4347.0000 " stroke="#000000" stroke-width="16.0000"  stroke-linecap="butt"  stroke-linejoin="miter"  stroke-miterlimit="10.0000" fill="none" />
</g>
<g transform="matrix(1.0000 0.0000 0.0000 1.0000 0.0000 0.0000)">
</g>
<g transform="matrix(0.0625 0.0000 0.0000 0.0625 0.0000 0.0000)">
<path d="M 1057.0000,4347.0000 L 1097.0000,4347.0000 " stroke="#000000" stroke-width="16.0000"  stroke-linecap="butt"  stroke-linejoin="miter"  stroke-miterlimit="10.0000" fill="none" />
</g>
<g transform="matrix(1.0000 0.0000 0.0000 1.0000 0.0000 0.0000)">
</g>
<g transform="matrix(0.0625 0.0000 0.0000 0.0625 0.0000 0.0000)">
<path d="M 1057.0000,4197.0000 L 1017.0000,4197.0000 " stroke="#000000" stroke-width="16.0000"  stroke-linecap="butt"  stroke-linejoin="miter"  stroke-miterlimit="10.0000" fill="none" />
</g>
<g transform="matrix(1.0000 0.0000 0.0000 1.0000 0.0000 0.0000)">
</g>
<g transform="matrix(0.0625 0.0000 0.0000 0.0625 0.0000 0.0000)">
<path d="M 1057.0000,4197.0000 L 1097.0000,4197.0000 " stroke="#000000" stroke-width="16.0000"  stroke-linecap="butt"  stroke-linejoin="miter"  stroke-miterlimit="10.0000" fill="none" />
</g>
<g transform="matrix(1.0000 0.0000 0.0000 1.0000 0.0000 0.0000)">
</g>
<g transform="matrix(0.0625 0.0000 0.0000 0.0625 0.0000 0.0000)">
<path d="M 1057.0000,4047.0000 L 1017.0000,4047.0000 " stroke="#000000" stroke-width="16.0000"  stroke-linecap="butt"  stroke-linejoin="miter"  stroke-miterlimit="10.0000" fill="none" />
</g>
<g transform="matrix(1.0000 0.0000 0.0000 1.0000 0.0000 0.0000)">
</g>
<g transform="matrix(0.0625 0.0000 0.0000 0.0625 0.0000 0.0000)">
<path d="M 1057.0000,4047.0000 L 1097.0000,4047.0000 " stroke="#000000" stroke-width="16.0000"  stroke-linecap="butt"  stroke-linejoin="miter"  stroke-miterlimit="10.0000" fill="none" />
</g>
<g transform="matrix(1.0000 0.0000 0.0000 1.0000 0.0000 0.0000)">
</g>
<g transform="matrix(0.0625 0.0000 0.0000 0.0625 0.0000 0.0000)">
<path d="M 1057.0000,3897.0000 L 1017.0000,3897.0000 " stroke="#000000" stroke-width="16.0000"  stroke-linecap="butt"  stroke-linejoin="miter"  stroke-miterlimit="10.0000" fill="none" />
</g>
<g transform="matrix(1.0000 0.0000 0.0000 1.0000 0.0000 0.0000)">
</g>
<g transform="matrix(0.0625 0.0000 0.0000 0.0625 0.0000 0.0000)">
<path d="M 1057.0000,3897.0000 L 1097.0000,3897.0000 " stroke="#000000" stroke-width="16.0000"  stroke-linecap="butt"  stroke-linejoin="miter"  stroke-miterlimit="10.0000" fill="none" />
</g>
<g transform="matrix(1.0000 0.0000 0.0000 1.0000 0.0000 0.0000)">
</g>
<g transform="matrix(0.0625 0.0000 0.0000 0.0625 0.0000 0.0000)">
<path d="M 1057.0000,3597.0000 L 1017.0000,3597.0000 " stroke="#000000" stroke-width="16.0000"  stroke-linecap="butt"  stroke-linejoin="miter"  stroke-miterlimit="10.0000" fill="none" />
</g>
<g transform="matrix(1.0000 0.0000 0.0000 1.0000 0.0000 0.0000)">
</g>
<g transform="matrix(0.0625 0.0000 0.0000 0.0625 0.0000 0.0000)">
<path d="M 1057.0000,3597.0000 L 1097.0000,3597.0000 " stroke="#000000" stroke-width="16.0000"  stroke-linecap="butt"  stroke-linejoin="miter"  stroke-miterlimit="10.0000" fill="none" />
</g>
<g transform="matrix(1.0000 0.0000 0.0000 1.0000 0.0000 0.0000)">
</g>
<g transform="matrix(0.0625 0.0000 0.0000 0.0625 0.0000 0.0000)">
<path d="M 1057.0000,3446.0000 L 1017.0000,3446.0000 " stroke="#000000" stroke-width="16.0000"  stroke-linecap="butt"  stroke-linejoin="miter"  stroke-miterlimit="10.0000" fill="none" />
</g>
<g transform="matrix(1.0000 0.0000 0.0000 1.0000 0.0000 0.0000)">
</g>
<g transform="matrix(0.0625 0.0000 0.0000 0.0625 0.0000 0.0000)">
<path d="M 1057.0000,3446.0000 L 1097.0000,3446.0000 " stroke="#000000" stroke-width="16.0000"  stroke-linecap="butt"  stroke-linejoin="miter"  stroke-miterlimit="10.0000" fill="none" />
</g>
<g transform="matrix(1.0000 0.0000 0.0000 1.0000 0.0000 0.0000)">
</g>
<g transform="matrix(0.0625 0.0000 0.0000 0.0625 0.0000 0.0000)">
<path d="M 1057.0000,3296.0000 L 1017.0000,3296.0000 " stroke="#000000" stroke-width="16.0000"  stroke-linecap="butt"  stroke-linejoin="miter"  stroke-miterlimit="10.0000" fill="none" />
</g>
<g transform="matrix(1.0000 0.0000 0.0000 1.0000 0.0000 0.0000)">
</g>
<g transform="matrix(0.0625 0.0000 0.0000 0.0625 0.0000 0.0000)">
<path d="M 1057.0000,3296.0000 L 1097.0000,3296.0000 " stroke="#000000" stroke-width="16.0000"  stroke-linecap="butt"  stroke-linejoin="miter"  stroke-miterlimit="10.0000" fill="none" />
</g>
<g transform="matrix(1.0000 0.0000 0.0000 1.0000 0.0000 0.0000)">
</g>
<g transform="matrix(0.0625 0.0000 0.0000 0.0625 0.0000 0.0000)">
<path d="M 1057.0000,3146.0000 L 1017.0000,3146.0000 " stroke="#000000" stroke-width="16.0000"  stroke-linecap="butt"  stroke-linejoin="miter"  stroke-miterlimit="10.0000" fill="none" />
</g>
<g transform="matrix(1.0000 0.0000 0.0000 1.0000 0.0000 0.0000)">
</g>
<g transform="matrix(0.0625 0.0000 0.0000 0.0625 0.0000 0.0000)">
<path d="M 1057.0000,3146.0000 L 1097.0000,3146.0000 " stroke="#000000" stroke-width="16.0000"  stroke-linecap="butt"  stroke-linejoin="miter"  stroke-miterlimit="10.0000" fill="none" />
</g>
<g transform="matrix(1.0000 0.0000 0.0000 1.0000 0.0000 0.0000)">
</g>
<g transform="matrix(0.0625 0.0000 0.0000 0.0625 0.0000 0.0000)">
<path d="M 1057.0000,2846.0000 L 1017.0000,2846.0000 " stroke="#000000" stroke-width="16.0000"  stroke-linecap="butt"  stroke-linejoin="miter"  stroke-miterlimit="10.0000" fill="none" />
</g>
<g transform="matrix(1.0000 0.0000 0.0000 1.0000 0.0000 0.0000)">
</g>
<g transform="matrix(0.0625 0.0000 0.0000 0.0625 0.0000 0.0000)">
<path d="M 1057.0000,2846.0000 L 1097.0000,2846.0000 " stroke="#000000" stroke-width="16.0000"  stroke-linecap="butt"  stroke-linejoin="miter"  stroke-miterlimit="10.0000" fill="none" />
</g>
<g transform="matrix(1.0000 0.0000 0.0000 1.0000 0.0000 0.0000)">
</g>
<g transform="matrix(0.0625 0.0000 0.0000 0.0625 0.0000 0.0000)">
<path d="M 1057.0000,2696.0000 L 1017.0000,2696.0000 " stroke="#000000" stroke-width="16.0000"  stroke-linecap="butt"  stroke-linejoin="miter"  stroke-miterlimit="10.0000" fill="none" />
</g>
<g transform="matrix(1.0000 0.0000 0.0000 1.0000 0.0000 0.0000)">
</g>
<g transform="matrix(0.0625 0.0000 0.0000 0.0625 0.0000 0.0000)">
<path d="M 1057.0000,2696.0000 L 1097.0000,2696.0000 " stroke="#000000" stroke-width="16.0000"  stroke-linecap="butt"  stroke-linejoin="miter"  stroke-miterlimit="10.0000" fill="none" />
</g>
<g transform="matrix(1.0000 0.0000 0.0000 1.0000 0.0000 0.0000)">
</g>
<g transform="matrix(0.0625 0.0000 0.0000 0.0625 0.0000 0.0000)">
<path d="M 1057.0000,2546.0000 L 1017.0000,2546.0000 " stroke="#000000" stroke-width="16.0000"  stroke-linecap="butt"  stroke-linejoin="miter"  stroke-miterlimit="10.0000" fill="none" />
</g>
<g transform="matrix(1.0000 0.0000 0.0000 1.0000 0.0000 0.0000)">
</g>
<g transform="matrix(0.0625 0.0000 0.0000 0.0625 0.0000 0.0000)">
<path d="M 1057.0000,2546.0000 L 1097.0000,2546.0000 " stroke="#000000" stroke-width="16.0000"  stroke-linecap="butt"  stroke-linejoin="miter"  stroke-miterlimit="10.0000" fill="none" />
</g>
<g transform="matrix(1.0000 0.0000 0.0000 1.0000 0.0000 0.0000)">
</g>
<g transform="matrix(0.0625 0.0000 0.0000 0.0625 0.0000 0.0000)">
<path d="M 1057.0000,2396.0000 L 1017.0000,2396.0000 " stroke="#000000" stroke-width="16.0000"  stroke-linecap="butt"  stroke-linejoin="miter"  stroke-miterlimit="10.0000" fill="none" />
</g>
<g transform="matrix(1.0000 0.0000 0.0000 1.0000 0.0000 0.0000)">
</g>
<g transform="matrix(0.0625 0.0000 0.0000 0.0625 0.0000 0.0000)">
<path d="M 1057.0000,2396.0000 L 1097.0000,2396.0000 " stroke="#000000" stroke-width="16.0000"  stroke-linecap="butt"  stroke-linejoin="miter"  stroke-miterlimit="10.0000" fill="none" />
</g>
<g transform="matrix(1.0000 0.0000 0.0000 1.0000 0.0000 0.0000)">
</g>
<g transform="matrix(0.0625 0.0000 0.0000 0.0625 0.0000 0.0000)">
<path d="M 1057.0000,2095.0000 L 1017.0000,2095.0000 " stroke="#000000" stroke-width="16.0000"  stroke-linecap="butt"  stroke-linejoin="miter"  stroke-miterlimit="10.0000" fill="none" />
</g>
<g transform="matrix(1.0000 0.0000 0.0000 1.0000 0.0000 0.0000)">
</g>
<g transform="matrix(0.0625 0.0000 0.0000 0.0625 0.0000 0.0000)">
<path d="M 1057.0000,2095.0000 L 1097.0000,2095.0000 " stroke="#000000" stroke-width="16.0000"  stroke-linecap="butt"  stroke-linejoin="miter"  stroke-miterlimit="10.0000" fill="none" />
</g>
<g transform="matrix(1.0000 0.0000 0.0000 1.0000 0.0000 0.0000)">
</g>
<g transform="matrix(0.0625 0.0000 0.0000 0.0625 0.0000 0.0000)">
<path d="M 1057.0000,1945.0000 L 1017.0000,1945.0000 " stroke="#000000" stroke-width="16.0000"  stroke-linecap="butt"  stroke-linejoin="miter"  stroke-miterlimit="10.0000" fill="none" />
</g>
<g transform="matrix(1.0000 0.0000 0.0000 1.0000 0.0000 0.0000)">
</g>
<g transform="matrix(0.0625 0.0000 0.0000 0.0625 0.0000 0.0000)">
<path d="M 1057.0000,1945.0000 L 1097.0000,1945.0000 " stroke="#000000" stroke-width="16.0000"  stroke-linecap="butt"  stroke-linejoin="miter"  stroke-miterlimit="10.0000" fill="none" />
</g>
<g transform="matrix(1.0000 0.0000 0.0000 1.0000 0.0000 0.0000)">
</g>
<g transform="matrix(0.0625 0.0000 0.0000 0.0625 0.0000 0.0000)">
<path d="M 1057.0000,1795.0000 L 1017.0000,1795.0000 " stroke="#000000" stroke-width="16.0000"  stroke-linecap="butt"  stroke-linejoin="miter"  stroke-miterlimit="10.0000" fill="none" />
</g>
<g transform="matrix(1.0000 0.0000 0.0000 1.0000 0.0000 0.0000)">
</g>
<g transform="matrix(0.0625 0.0000 0.0000 0.0625 0.0000 0.0000)">
<path d="M 1057.0000,1795.0000 L 1097.0000,1795.0000 " stroke="#000000" stroke-width="16.0000"  stroke-linecap="butt"  stroke-linejoin="miter"  stroke-miterlimit="10.0000" fill="none" />
</g>
<g transform="matrix(1.0000 0.0000 0.0000 1.0000 0.0000 0.0000)">
</g>
<g transform="matrix(0.0625 0.0000 0.0000 0.0625 0.0000 0.0000)">
<path d="M 1057.0000,1645.0000 L 1017.0000,1645.0000 " stroke="#000000" stroke-width="16.0000"  stroke-linecap="butt"  stroke-linejoin="miter"  stroke-miterlimit="10.0000" fill="none" />
</g>
<g transform="matrix(1.0000 0.0000 0.0000 1.0000 0.0000 0.0000)">
</g>
<g transform="matrix(0.0625 0.0000 0.0000 0.0625 0.0000 0.0000)">
<path d="M 1057.0000,1645.0000 L 1097.0000,1645.0000 " stroke="#000000" stroke-width="16.0000"  stroke-linecap="butt"  stroke-linejoin="miter"  stroke-miterlimit="10.0000" fill="none" />
</g>
<g transform="matrix(1.0000 0.0000 0.0000 1.0000 0.0000 0.0000)">
</g>
<g transform="matrix(0.0625 0.0000 0.0000 0.0625 0.0000 0.0000)">
<path d="M 1057.0000,1345.0000 L 1017.0000,1345.0000 " stroke="#000000" stroke-width="16.0000"  stroke-linecap="butt"  stroke-linejoin="miter"  stroke-miterlimit="10.0000" fill="none" />
</g>
<g transform="matrix(1.0000 0.0000 0.0000 1.0000 0.0000 0.0000)">
</g>
<g transform="matrix(0.0625 0.0000 0.0000 0.0625 0.0000 0.0000)">
<path d="M 1057.0000,1345.0000 L 1097.0000,1345.0000 " stroke="#000000" stroke-width="16.0000"  stroke-linecap="butt"  stroke-linejoin="miter"  stroke-miterlimit="10.0000" fill="none" />
</g>
<g transform="matrix(1.0000 0.0000 0.0000 1.0000 0.0000 0.0000)">
</g>
<g transform="matrix(0.0625 0.0000 0.0000 0.0625 0.0000 0.0000)">
<path d="M 1057.0000,1195.0000 L 1017.0000,1195.0000 " stroke="#000000" stroke-width="16.0000"  stroke-linecap="butt"  stroke-linejoin="miter"  stroke-miterlimit="10.0000" fill="none" />
</g>
<g transform="matrix(1.0000 0.0000 0.0000 1.0000 0.0000 0.0000)">
</g>
<g transform="matrix(0.0625 0.0000 0.0000 0.0625 0.0000 0.0000)">
<path d="M 1057.0000,1195.0000 L 1097.0000,1195.0000 " stroke="#000000" stroke-width="16.0000"  stroke-linecap="butt"  stroke-linejoin="miter"  stroke-miterlimit="10.0000" fill="none" />
</g>
<g transform="matrix(1.0000 0.0000 0.0000 1.0000 0.0000 0.0000)">
</g>
<g transform="matrix(0.0625 0.0000 0.0000 0.0625 0.0000 0.0000)">
<path d="M 1057.0000,1045.0000 L 1017.0000,1045.0000 " stroke="#000000" stroke-width="16.0000"  stroke-linecap="butt"  stroke-linejoin="miter"  stroke-miterlimit="10.0000" fill="none" />
</g>
<g transform="matrix(1.0000 0.0000 0.0000 1.0000 0.0000 0.0000)">
</g>
<g transform="matrix(0.0625 0.0000 0.0000 0.0625 0.0000 0.0000)">
<path d="M 1057.0000,1045.0000 L 1097.0000,1045.0000 " stroke="#000000" stroke-width="16.0000"  stroke-linecap="butt"  stroke-linejoin="miter"  stroke-miterlimit="10.0000" fill="none" />
</g>
<g transform="matrix(1.0000 0.0000 0.0000 1.0000 0.0000 0.0000)">
</g>
<g transform="matrix(0.0625 0.0000 0.0000 0.0625 0.0000 0.0000)">
<path d="M 1057.0000,895.0000 L 1017.0000,895.0000 " stroke="#000000" stroke-width="16.0000"  stroke-linecap="butt"  stroke-linejoin="miter"  stroke-miterlimit="10.0000" fill="none" />
</g>
<g transform="matrix(1.0000 0.0000 0.0000 1.0000 0.0000 0.0000)">
</g>
<g transform="matrix(0.0625 0.0000 0.0000 0.0625 0.0000 0.0000)">
<path d="M 1057.0000,895.0000 L 1097.0000,895.0000 " stroke="#000000" stroke-width="16.0000"  stroke-linecap="butt"  stroke-linejoin="miter"  stroke-miterlimit="10.0000" fill="none" />
</g>
<g transform="matrix(1.0000 0.0000 0.0000 1.0000 0.0000 0.0000)">
</g>
<g transform="matrix(0.0625 0.0000 0.0000 0.0625 0.0000 0.0000)">
<path d="M 1245.0000,1959.0000 L 1245.0000,4497.0000 L 1622.0000,4497.0000 L 1622.0000,1959.0000 L 1245.0000,1959.0000 Z" stroke-width="1px" stroke="#FF0000"  fill="#FF0000" />
</g>
<g transform="matrix(1.0000 0.0000 0.0000 1.0000 0.0000 0.0000)">
</g>
<g transform="matrix(0.0625 0.0000 0.0000 0.0625 0.0000 0.0000)">
<path d="M 1999.0000,3278.0000 L 1999.0000,4497.0000 L 2375.0000,4497.0000 L 2375.0000,3278.0000 L 1999.0000,3278.0000 Z" stroke-width="1px" stroke="#FF0000"  fill="#FF0000" />
</g>
<g transform="matrix(1.0000 0.0000 0.0000 1.0000 0.0000 0.0000)">
</g>
<g transform="matrix(0.0625 0.0000 0.0000 0.0625 0.0000 0.0000)">
<path d="M 2752.0000,2702.0000 L 2752.0000,4497.0000 L 3129.0000,4497.0000 L 3129.0000,2702.0000 L 2752.0000,2702.0000 Z" stroke-width="1px" stroke="#FF0000"  fill="#FF0000" />
</g>
<g transform="matrix(1.0000 0.0000 0.0000 1.0000 0.0000 0.0000)">
</g>
<g transform="matrix(0.0625 0.0000 0.0000 0.0625 0.0000 0.0000)">
<path d="M 3505.0000,3588.0000 L 3505.0000,4497.0000 L 3882.0000,4497.0000 L 3882.0000,3588.0000 L 3505.0000,3588.0000 Z" stroke-width="1px" stroke="#FF0000"  fill="#FF0000" />
</g>
<g transform="matrix(1.0000 0.0000 0.0000 1.0000 0.0000 0.0000)">
</g>
<g transform="matrix(0.0625 0.0000 0.0000 0.0625 0.0000 0.0000)">
<path d="M 4259.0000,2069.0000 L 4259.0000,4497.0000 L 4636.0000,4497.0000 L 4636.0000,2069.0000 L 4259.0000,2069.0000 Z" stroke-width="1px" stroke="#FF0000"  fill="#FF0000" />
</g>
<g transform="matrix(1.0000 0.0000 0.0000 1.0000 0.0000 0.0000)">
</g>
<g transform="matrix(0.0625 0.0000 0.0000 0.0625 0.0000 0.0000)">
<path d="M 5012.0000,1219.0000 L 5012.0000,4497.0000 L 5389.0000,4497.0000 L 5389.0000,1219.0000 L 5012.0000,1219.0000 Z" stroke-width="1px" stroke="#FF0000"  fill="#FF0000" />
</g>
<g transform="matrix(1.0000 0.0000 0.0000 1.0000 0.0000 0.0000)">
</g>
<g transform="matrix(0.0625 0.0000 0.0000 0.0625 0.0000 0.0000)">
<path d="M 5766.0000,3121.0000 L 5766.0000,4497.0000 L 6142.0000,4497.0000 L 6142.0000,3121.0000 L 5766.0000,3121.0000 Z" stroke-width="1px" stroke="#FF0000"  fill="#FF0000" />
</g>
<g transform="matrix(1.0000 0.0000 0.0000 1.0000 0.0000 0.0000)">
</g>
<g transform="matrix(0.0625 0.0000 0.0000 0.0625 0.0000 0.0000)">
<path d="M 6519.0000,2782.0000 L 6519.0000,4497.0000 L 6896.0000,4497.0000 L 6896.0000,2782.0000 L 6519.0000,2782.0000 Z" stroke-width="1px" stroke="#FF0000"  fill="#FF0000" />
</g>
<g transform="matrix(1.0000 0.0000 0.0000 1.0000 0.0000 0.0000)">
</g>
<g transform="matrix(0.0625 0.0000 0.0000 0.0625 0.0000 0.0000)">
<path d="M 7272.0000,3210.0000 L 7272.0000,4497.0000 L 7649.0000,4497.0000 L 7649.0000,3210.0000 L 7272.0000,3210.0000 Z" stroke-width="1px" stroke="#FF0000"  fill="#FF0000" />
</g>
<g transform="matrix(1.0000 0.0000 0.0000 1.0000 0.0000 0.0000)">
</g>
<g transform="matrix(0.0625 0.0000 0.0000 0.0625 0.0000 0.0000)">
<path d="M 8026.0000,2987.0000 L 8026.0000,4497.0000 L 8402.0000,4497.0000 L 8402.0000,2987.0000 L 8026.0000,2987.0000 Z" stroke-width="1px" stroke="#FF0000"  fill="#FF0000" />
</g>
<g transform="matrix(1.0000 0.0000 0.0000 1.0000 0.0000 0.0000)">
</g>
<g transform="matrix(0.0625 0.0000 0.0000 0.0625 0.0000 0.0000)">
<path d="M 8779.0000,2053.0000 L 8779.0000,4497.0000 L 9156.0000,4497.0000 L 9156.0000,2053.0000 L 8779.0000,2053.0000 Z" stroke-width="1px" stroke="#FF0000"  fill="#FF0000" />
</g>
<g transform="matrix(1.0000 0.0000 0.0000 1.0000 0.0000 0.0000)">
</g>
<g transform="matrix(0.0625 0.0000 0.0000 0.0625 0.0000 0.0000)">
<path d="M 9532.0000,4441.0000 L 9532.0000,4497.0000 L 9909.0000,4497.0000 L 9909.0000,4441.0000 L 9532.0000,4441.0000 Z" stroke-width="1px" stroke="#FF0000"  fill="#FF0000" />
</g>
<g transform="matrix(1.0000 0.0000 0.0000 1.0000 0.0000 0.0000)">
</g>
<g transform="matrix(0.0625 0.0000 0.0000 0.0625 0.0000 0.0000)">
<path d="M 10286.0000,3639.0000 L 10286.0000,4497.0000 L 10662.0000,4497.0000 L 10662.0000,3639.0000 L 10286.0000,3639.0000 Z" stroke-width="1px" stroke="#FF0000"  fill="#FF0000" />
</g>
<g transform="matrix(1.0000 0.0000 0.0000 1.0000 0.0000 0.0000)">
</g>
<g transform="matrix(0.0625 0.0000 0.0000 0.0625 0.0000 0.0000)">
<path d="M 11039.0000,3682.0000 L 11039.0000,4497.0000 L 11416.0000,4497.0000 L 11416.0000,3682.0000 L 11039.0000,3682.0000 Z" stroke-width="1px" stroke="#FF0000"  fill="#FF0000" />
</g>
<g transform="matrix(1.0000 0.0000 0.0000 1.0000 0.0000 0.0000)">
</g>
<g transform="matrix(0.0625 0.0000 0.0000 0.0625 0.0000 0.0000)">
<path d="M 1057.0000,4497.0000 L 11604.0000,4497.0000 " stroke="#000000" stroke-width="16.0000"  stroke-linecap="butt"  stroke-linejoin="miter"  stroke-miterlimit="10.0000" fill="none" />
</g>
<g transform="matrix(1.0000 0.0000 0.0000 1.0000 0.0000 0.0000)">
</g>
<g transform="matrix(0.0625 0.0000 0.0000 0.0625 0.0000 0.0000)">
<path d="M 1434.0000,4497.0000 L 1434.0000,4577.0000 " stroke="#000000" stroke-width="16.0000"  stroke-linecap="butt"  stroke-linejoin="miter"  stroke-miterlimit="10.0000" fill="none" />
</g>
<g transform="matrix(1.0000 0.0000 0.0000 1.0000 0.0000 0.0000)">
</g>
<g transform="matrix(0.0625 0.0000 0.0000 0.0625 0.0000 0.0000)">
<path d="M 1434.0000,4497.0000 L 1434.0000,4417.0000 " stroke="#000000" stroke-width="16.0000"  stroke-linecap="butt"  stroke-linejoin="miter"  stroke-miterlimit="10.0000" fill="none" />
</g>
<g transform="matrix(1.0000 0.0000 0.0000 1.0000 0.0000 0.0000)">
<text font-family="Arial" fill="#000000" style ="white-space:pre;" font-weight="400" text-anchor="start" x="75.0000" y="301.0000" font-size="12.0000" ><![CDATA[D102]]></text>
</g>
<g transform="matrix(0.0625 0.0000 0.0000 0.0625 0.0000 0.0000)">
<path d="M 2187.0000,4497.0000 L 2187.0000,4577.0000 " stroke="#000000" stroke-width="16.0000"  stroke-linecap="butt"  stroke-linejoin="miter"  stroke-miterlimit="10.0000" fill="none" />
</g>
<g transform="matrix(1.0000 0.0000 0.0000 1.0000 0.0000 0.0000)">
</g>
<g transform="matrix(0.0625 0.0000 0.0000 0.0625 0.0000 0.0000)">
<path d="M 2187.0000,4497.0000 L 2187.0000,4417.0000 " stroke="#000000" stroke-width="16.0000"  stroke-linecap="butt"  stroke-linejoin="miter"  stroke-miterlimit="10.0000" fill="none" />
</g>
<g transform="matrix(1.0000 0.0000 0.0000 1.0000 0.0000 0.0000)">
<text font-family="Arial" fill="#000000" style ="white-space:pre;" font-weight="400" text-anchor="start" x="122.0000" y="301.0000" font-size="12.0000" ><![CDATA[D103]]></text>
</g>
<g transform="matrix(0.0625 0.0000 0.0000 0.0625 0.0000 0.0000)">
<path d="M 2940.0000,4497.0000 L 2940.0000,4577.0000 " stroke="#000000" stroke-width="16.0000"  stroke-linecap="butt"  stroke-linejoin="miter"  stroke-miterlimit="10.0000" fill="none" />
</g>
<g transform="matrix(1.0000 0.0000 0.0000 1.0000 0.0000 0.0000)">
</g>
<g transform="matrix(0.0625 0.0000 0.0000 0.0625 0.0000 0.0000)">
<path d="M 2940.0000,4497.0000 L 2940.0000,4417.0000 " stroke="#000000" stroke-width="16.0000"  stroke-linecap="butt"  stroke-linejoin="miter"  stroke-miterlimit="10.0000" fill="none" />
</g>
<g transform="matrix(1.0000 0.0000 0.0000 1.0000 0.0000 0.0000)">
<text font-family="Arial" fill="#000000" style ="white-space:pre;" font-weight="400" text-anchor="start" x="169.0000" y="301.0000" font-size="12.0000" ><![CDATA[D108]]></text>
</g>
<g transform="matrix(0.0625 0.0000 0.0000 0.0625 0.0000 0.0000)">
<path d="M 3694.0000,4497.0000 L 3694.0000,4577.0000 " stroke="#000000" stroke-width="16.0000"  stroke-linecap="butt"  stroke-linejoin="miter"  stroke-miterlimit="10.0000" fill="none" />
</g>
<g transform="matrix(1.0000 0.0000 0.0000 1.0000 0.0000 0.0000)">
</g>
<g transform="matrix(0.0625 0.0000 0.0000 0.0625 0.0000 0.0000)">
<path d="M 3694.0000,4497.0000 L 3694.0000,4417.0000 " stroke="#000000" stroke-width="16.0000"  stroke-linecap="butt"  stroke-linejoin="miter"  stroke-miterlimit="10.0000" fill="none" />
</g>
<g transform="matrix(1.0000 0.0000 0.0000 1.0000 0.0000 0.0000)">
<text font-family="Arial" fill="#000000" style ="white-space:pre;" font-weight="400" text-anchor="start" x="216.0000" y="301.0000" font-size="12.0000" ><![CDATA[D138]]></text>
</g>
<g transform="matrix(0.0625 0.0000 0.0000 0.0625 0.0000 0.0000)">
<path d="M 4447.0000,4497.0000 L 4447.0000,4577.0000 " stroke="#000000" stroke-width="16.0000"  stroke-linecap="butt"  stroke-linejoin="miter"  stroke-miterlimit="10.0000" fill="none" />
</g>
<g transform="matrix(1.0000 0.0000 0.0000 1.0000 0.0000 0.0000)">
</g>
<g transform="matrix(0.0625 0.0000 0.0000 0.0625 0.0000 0.0000)">
<path d="M 4447.0000,4497.0000 L 4447.0000,4417.0000 " stroke="#000000" stroke-width="16.0000"  stroke-linecap="butt"  stroke-linejoin="miter"  stroke-miterlimit="10.0000" fill="none" />
</g>
<g transform="matrix(1.0000 0.0000 0.0000 1.0000 0.0000 0.0000)">
<text font-family="Arial" fill="#000000" style ="white-space:pre;" font-weight="400" text-anchor="start" x="263.0000" y="301.0000" font-size="12.0000" ><![CDATA[D154]]></text>
</g>
<g transform="matrix(0.0625 0.0000 0.0000 0.0625 0.0000 0.0000)">
<path d="M 5201.0000,4497.0000 L 5201.0000,4577.0000 " stroke="#000000" stroke-width="16.0000"  stroke-linecap="butt"  stroke-linejoin="miter"  stroke-miterlimit="10.0000" fill="none" />
</g>
<g transform="matrix(1.0000 0.0000 0.0000 1.0000 0.0000 0.0000)">
</g>
<g transform="matrix(0.0625 0.0000 0.0000 0.0625 0.0000 0.0000)">
<path d="M 5201.0000,4497.0000 L 5201.0000,4417.0000 " stroke="#000000" stroke-width="16.0000"  stroke-linecap="butt"  stroke-linejoin="miter"  stroke-miterlimit="10.0000" fill="none" />
</g>
<g transform="matrix(1.0000 0.0000 0.0000 1.0000 0.0000 0.0000)">
<text font-family="Arial" fill="#000000" style ="white-space:pre;" font-weight="400" text-anchor="start" x="310.0000" y="301.0000" font-size="12.0000" ><![CDATA[D172]]></text>
</g>
<g transform="matrix(0.0625 0.0000 0.0000 0.0625 0.0000 0.0000)">
<path d="M 5954.0000,4497.0000 L 5954.0000,4577.0000 " stroke="#000000" stroke-width="16.0000"  stroke-linecap="butt"  stroke-linejoin="miter"  stroke-miterlimit="10.0000" fill="none" />
</g>
<g transform="matrix(1.0000 0.0000 0.0000 1.0000 0.0000 0.0000)">
</g>
<g transform="matrix(0.0625 0.0000 0.0000 0.0625 0.0000 0.0000)">
<path d="M 5954.0000,4497.0000 L 5954.0000,4417.0000 " stroke="#000000" stroke-width="16.0000"  stroke-linecap="butt"  stroke-linejoin="miter"  stroke-miterlimit="10.0000" fill="none" />
</g>
<g transform="matrix(1.0000 0.0000 0.0000 1.0000 0.0000 0.0000)">
<text font-family="Arial" fill="#000000" style ="white-space:pre;" font-weight="400" text-anchor="start" x="357.0000" y="301.0000" font-size="12.0000" ><![CDATA[D196]]></text>
</g>
<g transform="matrix(0.0625 0.0000 0.0000 0.0625 0.0000 0.0000)">
<path d="M 6707.0000,4497.0000 L 6707.0000,4577.0000 " stroke="#000000" stroke-width="16.0000"  stroke-linecap="butt"  stroke-linejoin="miter"  stroke-miterlimit="10.0000" fill="none" />
</g>
<g transform="matrix(1.0000 0.0000 0.0000 1.0000 0.0000 0.0000)">
</g>
<g transform="matrix(0.0625 0.0000 0.0000 0.0625 0.0000 0.0000)">
<path d="M 6707.0000,4497.0000 L 6707.0000,4417.0000 " stroke="#000000" stroke-width="16.0000"  stroke-linecap="butt"  stroke-linejoin="miter"  stroke-miterlimit="10.0000" fill="none" />
</g>
<g transform="matrix(1.0000 0.0000 0.0000 1.0000 0.0000 0.0000)">
<text font-family="Arial" fill="#000000" style ="white-space:pre;" font-weight="400" text-anchor="start" x="404.0000" y="301.0000" font-size="12.0000" ><![CDATA[H146]]></text>
</g>
<g transform="matrix(0.0625 0.0000 0.0000 0.0625 0.0000 0.0000)">
<path d="M 7461.0000,4497.0000 L 7461.0000,4577.0000 " stroke="#000000" stroke-width="16.0000"  stroke-linecap="butt"  stroke-linejoin="miter"  stroke-miterlimit="10.0000" fill="none" />
</g>
<g transform="matrix(1.0000 0.0000 0.0000 1.0000 0.0000 0.0000)">
</g>
<g transform="matrix(0.0625 0.0000 0.0000 0.0625 0.0000 0.0000)">
<path d="M 7461.0000,4497.0000 L 7461.0000,4417.0000 " stroke="#000000" stroke-width="16.0000"  stroke-linecap="butt"  stroke-linejoin="miter"  stroke-miterlimit="10.0000" fill="none" />
</g>
<g transform="matrix(1.0000 0.0000 0.0000 1.0000 0.0000 0.0000)">
<text font-family="Arial" fill="#000000" style ="white-space:pre;" font-weight="400" text-anchor="start" x="451.0000" y="301.0000" font-size="12.0000" ><![CDATA[H147]]></text>
</g>
<g transform="matrix(0.0625 0.0000 0.0000 0.0625 0.0000 0.0000)">
<path d="M 8214.0000,4497.0000 L 8214.0000,4577.0000 " stroke="#000000" stroke-width="16.0000"  stroke-linecap="butt"  stroke-linejoin="miter"  stroke-miterlimit="10.0000" fill="none" />
</g>
<g transform="matrix(1.0000 0.0000 0.0000 1.0000 0.0000 0.0000)">
</g>
<g transform="matrix(0.0625 0.0000 0.0000 0.0625 0.0000 0.0000)">
<path d="M 8214.0000,4497.0000 L 8214.0000,4417.0000 " stroke="#000000" stroke-width="16.0000"  stroke-linecap="butt"  stroke-linejoin="miter"  stroke-miterlimit="10.0000" fill="none" />
</g>
<g transform="matrix(1.0000 0.0000 0.0000 1.0000 0.0000 0.0000)">
<text font-family="Arial" fill="#000000" style ="white-space:pre;" font-weight="400" text-anchor="start" x="498.0000" y="301.0000" font-size="12.0000" ><![CDATA[H148]]></text>
</g>
<g transform="matrix(0.0625 0.0000 0.0000 0.0625 0.0000 0.0000)">
<path d="M 8967.0000,4497.0000 L 8967.0000,4577.0000 " stroke="#000000" stroke-width="16.0000"  stroke-linecap="butt"  stroke-linejoin="miter"  stroke-miterlimit="10.0000" fill="none" />
</g>
<g transform="matrix(1.0000 0.0000 0.0000 1.0000 0.0000 0.0000)">
</g>
<g transform="matrix(0.0625 0.0000 0.0000 0.0625 0.0000 0.0000)">
<path d="M 8967.0000,4497.0000 L 8967.0000,4417.0000 " stroke="#000000" stroke-width="16.0000"  stroke-linecap="butt"  stroke-linejoin="miter"  stroke-miterlimit="10.0000" fill="none" />
</g>
<g transform="matrix(1.0000 0.0000 0.0000 1.0000 0.0000 0.0000)">
<text font-family="Arial" fill="#000000" style ="white-space:pre;" font-weight="400" text-anchor="start" x="545.0000" y="301.0000" font-size="12.0000" ><![CDATA[H159]]></text>
</g>
<g transform="matrix(0.0625 0.0000 0.0000 0.0625 0.0000 0.0000)">
<path d="M 9721.0000,4497.0000 L 9721.0000,4577.0000 " stroke="#000000" stroke-width="16.0000"  stroke-linecap="butt"  stroke-linejoin="miter"  stroke-miterlimit="10.0000" fill="none" />
</g>
<g transform="matrix(1.0000 0.0000 0.0000 1.0000 0.0000 0.0000)">
</g>
<g transform="matrix(0.0625 0.0000 0.0000 0.0625 0.0000 0.0000)">
<path d="M 9721.0000,4497.0000 L 9721.0000,4417.0000 " stroke="#000000" stroke-width="16.0000"  stroke-linecap="butt"  stroke-linejoin="miter"  stroke-miterlimit="10.0000" fill="none" />
</g>
<g transform="matrix(1.0000 0.0000 0.0000 1.0000 0.0000 0.0000)">
<text font-family="Arial" fill="#000000" style ="white-space:pre;" font-weight="400" text-anchor="start" x="593.0000" y="301.0000" font-size="12.0000" ><![CDATA[H160]]></text>
</g>
<g transform="matrix(0.0625 0.0000 0.0000 0.0625 0.0000 0.0000)">
<path d="M 10474.0000,4497.0000 L 10474.0000,4577.0000 " stroke="#000000" stroke-width="16.0000"  stroke-linecap="butt"  stroke-linejoin="miter"  stroke-miterlimit="10.0000" fill="none" />
</g>
<g transform="matrix(1.0000 0.0000 0.0000 1.0000 0.0000 0.0000)">
</g>
<g transform="matrix(0.0625 0.0000 0.0000 0.0625 0.0000 0.0000)">
<path d="M 10474.0000,4497.0000 L 10474.0000,4417.0000 " stroke="#000000" stroke-width="16.0000"  stroke-linecap="butt"  stroke-linejoin="miter"  stroke-miterlimit="10.0000" fill="none" />
</g>
<g transform="matrix(1.0000 0.0000 0.0000 1.0000 0.0000 0.0000)">
<text font-family="Arial" fill="#000000" style ="white-space:pre;" font-weight="400" text-anchor="start" x="640.0000" y="301.0000" font-size="12.0000" ><![CDATA[H161]]></text>
</g>
<g transform="matrix(0.0625 0.0000 0.0000 0.0625 0.0000 0.0000)">
<path d="M 11227.0000,4497.0000 L 11227.0000,4577.0000 " stroke="#000000" stroke-width="16.0000"  stroke-linecap="butt"  stroke-linejoin="miter"  stroke-miterlimit="10.0000" fill="none" />
</g>
<g transform="matrix(1.0000 0.0000 0.0000 1.0000 0.0000 0.0000)">
</g>
<g transform="matrix(0.0625 0.0000 0.0000 0.0625 0.0000 0.0000)">
<path d="M 11227.0000,4497.0000 L 11227.0000,4417.0000 " stroke="#000000" stroke-width="16.0000"  stroke-linecap="butt"  stroke-linejoin="miter"  stroke-miterlimit="10.0000" fill="none" />
</g>
<g transform="matrix(1.0000 0.0000 0.0000 1.0000 0.0000 0.0000)">
<text font-family="Arial" fill="#000000" style ="white-space:pre;" font-weight="400" text-anchor="start" x="687.0000" y="301.0000" font-size="12.0000" ><![CDATA[H162]]></text>
<text font-family="Arial" fill="#000000" style ="white-space:pre;" font-weight="700" text-anchor="start" x="363.0000" y="324.0000" font-size="14.0000" ><![CDATA[SubjectId]]></text>
</g>
<g transform="matrix(0.0625 0.0000 0.0000 0.0625 0.0000 0.0000)">
<path d="M 1057.0000,744.0000 L 1057.0000,4497.0000 " stroke="#000000" stroke-width="16.0000"  stroke-linecap="butt"  stroke-linejoin="miter"  stroke-miterlimit="10.0000" fill="none" />
</g>
<g transform="matrix(1.0000 0.0000 0.0000 1.0000 0.0000 0.0000)">
</g>
<g transform="matrix(0.0625 0.0000 0.0000 0.0625 0.0000 0.0000)">
<path d="M 1057.0000,4497.0000 L 977.0000,4497.0000 " stroke="#000000" stroke-width="16.0000"  stroke-linecap="butt"  stroke-linejoin="miter"  stroke-miterlimit="10.0000" fill="none" />
</g>
<g transform="matrix(1.0000 0.0000 0.0000 1.0000 0.0000 0.0000)">
</g>
<g transform="matrix(0.0625 0.0000 0.0000 0.0625 0.0000 0.0000)">
<path d="M 1057.0000,4497.0000 L 1137.0000,4497.0000 " stroke="#000000" stroke-width="16.0000"  stroke-linecap="butt"  stroke-linejoin="miter"  stroke-miterlimit="10.0000" fill="none" />
</g>
<g transform="matrix(1.0000 0.0000 0.0000 1.0000 0.0000 0.0000)">
<text font-family="Arial" fill="#000000" style ="white-space:pre;" font-weight="400" text-anchor="start" x="41.0000" y="285.0000" font-size="15.0000" ><![CDATA[0]]></text>
</g>
<g transform="matrix(0.0625 0.0000 0.0000 0.0625 0.0000 0.0000)">
<path d="M 1057.0000,3747.0000 L 977.0000,3747.0000 " stroke="#000000" stroke-width="16.0000"  stroke-linecap="butt"  stroke-linejoin="miter"  stroke-miterlimit="10.0000" fill="none" />
</g>
<g transform="matrix(1.0000 0.0000 0.0000 1.0000 0.0000 0.0000)">
</g>
<g transform="matrix(0.0625 0.0000 0.0000 0.0625 0.0000 0.0000)">
<path d="M 1057.0000,3747.0000 L 1137.0000,3747.0000 " stroke="#000000" stroke-width="16.0000"  stroke-linecap="butt"  stroke-linejoin="miter"  stroke-miterlimit="10.0000" fill="none" />
</g>
<g transform="matrix(1.0000 0.0000 0.0000 1.0000 0.0000 0.0000)">
<text font-family="Arial" fill="#000000" style ="white-space:pre;" font-weight="400" text-anchor="start" x="41.0000" y="239.0000" font-size="15.0000" ><![CDATA[5]]></text>
</g>
<g transform="matrix(0.0625 0.0000 0.0000 0.0625 0.0000 0.0000)">
<path d="M 1057.0000,2996.0000 L 977.0000,2996.0000 " stroke="#000000" stroke-width="16.0000"  stroke-linecap="butt"  stroke-linejoin="miter"  stroke-miterlimit="10.0000" fill="none" />
</g>
<g transform="matrix(1.0000 0.0000 0.0000 1.0000 0.0000 0.0000)">
</g>
<g transform="matrix(0.0625 0.0000 0.0000 0.0625 0.0000 0.0000)">
<path d="M 1057.0000,2996.0000 L 1137.0000,2996.0000 " stroke="#000000" stroke-width="16.0000"  stroke-linecap="butt"  stroke-linejoin="miter"  stroke-miterlimit="10.0000" fill="none" />
</g>
<g transform="matrix(1.0000 0.0000 0.0000 1.0000 0.0000 0.0000)">
<text font-family="Arial" fill="#000000" style ="white-space:pre;" font-weight="400" text-anchor="start" x="37.0000" y="192.0000" font-size="15.0000" ><![CDATA[10]]></text>
</g>
<g transform="matrix(0.0625 0.0000 0.0000 0.0625 0.0000 0.0000)">
<path d="M 1057.0000,2246.0000 L 977.0000,2246.0000 " stroke="#000000" stroke-width="16.0000"  stroke-linecap="butt"  stroke-linejoin="miter"  stroke-miterlimit="10.0000" fill="none" />
</g>
<g transform="matrix(1.0000 0.0000 0.0000 1.0000 0.0000 0.0000)">
</g>
<g transform="matrix(0.0625 0.0000 0.0000 0.0625 0.0000 0.0000)">
<path d="M 1057.0000,2246.0000 L 1137.0000,2246.0000 " stroke="#000000" stroke-width="16.0000"  stroke-linecap="butt"  stroke-linejoin="miter"  stroke-miterlimit="10.0000" fill="none" />
</g>
<g transform="matrix(1.0000 0.0000 0.0000 1.0000 0.0000 0.0000)">
<text font-family="Arial" fill="#000000" style ="white-space:pre;" font-weight="400" text-anchor="start" x="37.0000" y="145.0000" font-size="15.0000" ><![CDATA[15]]></text>
</g>
<g transform="matrix(0.0625 0.0000 0.0000 0.0625 0.0000 0.0000)">
<path d="M 1057.0000,1495.0000 L 977.0000,1495.0000 " stroke="#000000" stroke-width="16.0000"  stroke-linecap="butt"  stroke-linejoin="miter"  stroke-miterlimit="10.0000" fill="none" />
</g>
<g transform="matrix(1.0000 0.0000 0.0000 1.0000 0.0000 0.0000)">
</g>
<g transform="matrix(0.0625 0.0000 0.0000 0.0625 0.0000 0.0000)">
<path d="M 1057.0000,1495.0000 L 1137.0000,1495.0000 " stroke="#000000" stroke-width="16.0000"  stroke-linecap="butt"  stroke-linejoin="miter"  stroke-miterlimit="10.0000" fill="none" />
</g>
<g transform="matrix(1.0000 0.0000 0.0000 1.0000 0.0000 0.0000)">
<text font-family="Arial" fill="#000000" style ="white-space:pre;" font-weight="400" text-anchor="start" x="37.0000" y="98.0000" font-size="15.0000" ><![CDATA[20]]></text>
</g>
<g transform="matrix(0.0625 0.0000 0.0000 0.0625 0.0000 0.0000)">
<path d="M 1057.0000,744.0000 L 977.0000,744.0000 " stroke="#000000" stroke-width="16.0000"  stroke-linecap="butt"  stroke-linejoin="miter"  stroke-miterlimit="10.0000" fill="none" />
</g>
<g transform="matrix(1.0000 0.0000 0.0000 1.0000 0.0000 0.0000)">
</g>
<g transform="matrix(0.0625 0.0000 0.0000 0.0625 0.0000 0.0000)">
<path d="M 1057.0000,744.0000 L 1137.0000,744.0000 " stroke="#000000" stroke-width="16.0000"  stroke-linecap="butt"  stroke-linejoin="miter"  stroke-miterlimit="10.0000" fill="none" />
</g>
<g transform="matrix(1.0000 0.0000 0.0000 1.0000 0.0000 0.0000)">
<text font-family="Arial" fill="#000000" style ="white-space:pre;" font-weight="400" text-anchor="start" x="37.0000" y="51.0000" font-size="15.0000" ><![CDATA[25]]></text>
<defs><clipPath id="clip-15724"><path d="M 10.0000,0.0000 L 29.0000,0.0000 L 29.0000,333.0000 L 10.0000,333.0000 L 10.0000,0.0000 Z Z" /></clipPath></defs>
<text  clip-path="url(#clip-15724)" font-family="MS UI Gothic" fill="#000000" transform="rotate(-90, 23.0000, 344.4000) translate(0, 14.4000)" style ="white-space:pre;" font-weight="700" text-anchor="start" x="23.0000" y="330.0000" font-size="16.0000" ><![CDATA[峰]]></text>
<text  clip-path="url(#clip-15724)" font-family="MS UI Gothic" fill="#000000" transform="rotate(-90, 23.0000, 328.4000) translate(0, 14.4000)" style ="white-space:pre;" font-weight="700" text-anchor="start" x="23.0000" y="314.0000" font-size="16.0000" ><![CDATA[面]]></text>
<defs><clipPath id="clip-11478"><path d="M 10.0000,0.0000 L 29.0000,0.0000 L 29.0000,333.0000 L 10.0000,333.0000 L 10.0000,0.0000 Z Z" /></clipPath></defs>
<text  clip-path="url(#clip-11478)" font-family="SimSun" fill="#000000" transform="rotate(-90, 23.0000, 311.4000) translate(0, 14.4000)" style ="white-space:pre;" font-weight="700" text-anchor="start" x="23.0000" y="297.0000" font-size="16.0000" ><![CDATA[积]]></text>
<text font-family="Arial" fill="#000000" transform="rotate(-90, 23.0000, 289.6000) translate(0, 12.6000)" style ="white-space:pre;" font-weight="700" text-anchor="start" x="23.0000" y="277.0000" font-size="14.0000" ><![CDATA[R]]></text>
<text font-family="Arial" fill="#000000" transform="rotate(-90, 23.0000, 279.6000) translate(0, 12.6000)" style ="white-space:pre;" font-weight="700" text-anchor="start" x="23.0000" y="267.0000" font-size="14.0000" ><![CDATA[a]]></text>
<text font-family="Arial" fill="#000000" transform="rotate(-90, 23.0000, 271.6000) translate(0, 12.6000)" style ="white-space:pre;" font-weight="700" text-anchor="start" x="23.0000" y="259.0000" font-size="14.0000" ><![CDATA[t]]></text>
<text font-family="Arial" fill="#000000" transform="rotate(-90, 23.0000, 266.6000) translate(0, 12.6000)" style ="white-space:pre;" font-weight="700" text-anchor="start" x="23.0000" y="254.0000" font-size="14.0000" ><![CDATA[i]]></text>
<text font-family="Arial" fill="#000000" transform="rotate(-90, 23.0000, 262.6000) translate(0, 12.6000)" style ="white-space:pre;" font-weight="700" text-anchor="start" x="23.0000" y="250.0000" font-size="14.0000" ><![CDATA[o]]></text>
<text font-family="Arial" fill="#000000" transform="rotate(-90, 23.0000, 253.6000) translate(0, 12.6000)" style ="white-space:pre;" font-weight="700" text-anchor="start" x="23.0000" y="241.0000" font-size="14.0000" ><![CDATA[ ]]></text>
<text font-family="Arial" fill="#000000" transform="rotate(-90, 23.0000, 247.6000) translate(0, 12.6000)" style ="white-space:pre;" font-weight="700" text-anchor="start" x="23.0000" y="235.0000" font-size="14.0000" ><![CDATA[t]]></text>
<text font-family="Arial" fill="#000000" transform="rotate(-90, 23.0000, 242.6000) translate(0, 12.6000)" style ="white-space:pre;" font-weight="700" text-anchor="start" x="23.0000" y="230.0000" font-size="14.0000" ><![CDATA[o]]></text>
<text font-family="Arial" fill="#000000" transform="rotate(-90, 23.0000, 233.6000) translate(0, 12.6000)" style ="white-space:pre;" font-weight="700" text-anchor="start" x="23.0000" y="221.0000" font-size="14.0000" ><![CDATA[ ]]></text>
<text font-family="Arial" fill="#000000" transform="rotate(-90, 23.0000, 227.6000) translate(0, 12.6000)" style ="white-space:pre;" font-weight="700" text-anchor="start" x="23.0000" y="215.0000" font-size="14.0000" ><![CDATA[G]]></text>
<text font-family="Arial" fill="#000000" transform="rotate(-90, 23.0000, 216.6000) translate(0, 12.6000)" style ="white-space:pre;" font-weight="700" text-anchor="start" x="23.0000" y="204.0000" font-size="14.0000" ><![CDATA[l]]></text>
<text font-family="Arial" fill="#000000" transform="rotate(-90, 23.0000, 212.6000) translate(0, 12.6000)" style ="white-space:pre;" font-weight="700" text-anchor="start" x="23.0000" y="200.0000" font-size="14.0000" ><![CDATA[o]]></text>
<text font-family="Arial" fill="#000000" transform="rotate(-90, 23.0000, 203.6000) translate(0, 12.6000)" style ="white-space:pre;" font-weight="700" text-anchor="start" x="23.0000" y="191.0000" font-size="14.0000" ><![CDATA[b]]></text>
<text font-family="Arial" fill="#000000" transform="rotate(-90, 23.0000, 194.6000) translate(0, 12.6000)" style ="white-space:pre;" font-weight="700" text-anchor="start" x="23.0000" y="182.0000" font-size="14.0000" ><![CDATA[a]]></text>
<text font-family="Arial" fill="#000000" transform="rotate(-90, 23.0000, 186.6000) translate(0, 12.6000)" style ="white-space:pre;" font-weight="700" text-anchor="start" x="23.0000" y="174.0000" font-size="14.0000" ><![CDATA[l]]></text>
<text font-family="Arial" fill="#000000" transform="rotate(-90, 23.0000, 182.6000) translate(0, 12.6000)" style ="white-space:pre;" font-weight="700" text-anchor="start" x="23.0000" y="170.0000" font-size="14.0000" ><![CDATA[ ]]></text>
<text font-family="Arial" fill="#000000" transform="rotate(-90, 23.0000, 176.6000) translate(0, 12.6000)" style ="white-space:pre;" font-weight="700" text-anchor="start" x="23.0000" y="164.0000" font-size="14.0000" ><![CDATA[S]]></text>
<text font-family="Arial" fill="#000000" transform="rotate(-90, 23.0000, 167.6000) translate(0, 12.6000)" style ="white-space:pre;" font-weight="700" text-anchor="start" x="23.0000" y="155.0000" font-size="14.0000" ><![CDATA[t]]></text>
<text font-family="Arial" fill="#000000" transform="rotate(-90, 23.0000, 162.6000) translate(0, 12.6000)" style ="white-space:pre;" font-weight="700" text-anchor="start" x="23.0000" y="150.0000" font-size="14.0000" ><![CDATA[a]]></text>
<text font-family="Arial" fill="#000000" transform="rotate(-90, 23.0000, 154.6000) translate(0, 12.6000)" style ="white-space:pre;" font-weight="700" text-anchor="start" x="23.0000" y="142.0000" font-size="14.0000" ><![CDATA[n]]></text>
<text font-family="Arial" fill="#000000" transform="rotate(-90, 23.0000, 145.6000) translate(0, 12.6000)" style ="white-space:pre;" font-weight="700" text-anchor="start" x="23.0000" y="133.0000" font-size="14.0000" ><![CDATA[d]]></text>
<text font-family="Arial" fill="#000000" transform="rotate(-90, 23.0000, 136.6000) translate(0, 12.6000)" style ="white-space:pre;" font-weight="700" text-anchor="start" x="23.0000" y="124.0000" font-size="14.0000" ><![CDATA[a]]></text>
<text font-family="Arial" fill="#000000" transform="rotate(-90, 23.0000, 128.6000) translate(0, 12.6000)" style ="white-space:pre;" font-weight="700" text-anchor="start" x="23.0000" y="116.0000" font-size="14.0000" ><![CDATA[r]]></text>
<text font-family="Arial" fill="#000000" transform="rotate(-90, 23.0000, 123.6000) translate(0, 12.6000)" style ="white-space:pre;" font-weight="700" text-anchor="start" x="23.0000" y="111.0000" font-size="14.0000" ><![CDATA[d]]></text>
<text font-family="Arial" fill="#000000" transform="rotate(-90, 23.0000, 114.6000) translate(0, 12.6000)" style ="white-space:pre;" font-weight="700" text-anchor="start" x="23.0000" y="102.0000" font-size="14.0000" ><![CDATA[s]]></text>
<text font-family="Arial" fill="#000000" transform="rotate(-90, 23.0000, 106.6000) translate(0, 12.6000)" style ="white-space:pre;" font-weight="700" text-anchor="start" x="23.0000" y="94.0000" font-size="14.0000" ><![CDATA[ ]]></text>
<defs><clipPath id="clip-29358"><path d="M 10.0000,0.0000 L 29.0000,0.0000 L 29.0000,333.0000 L 10.0000,333.0000 L 10.0000,0.0000 Z Z" /></clipPath></defs>
<text  clip-path="url(#clip-29358)" font-family="SimSun" fill="#000000" transform="rotate(-90, 23.0000, 104.4000) translate(0, 14.4000)" style ="white-space:pre;" font-weight="700" text-anchor="start" x="23.0000" y="90.0000" font-size="16.0000" ><![CDATA[变]]></text>
<defs><clipPath id="clip-26962"><path d="M 10.0000,0.0000 L 29.0000,0.0000 L 29.0000,333.0000 L 10.0000,333.0000 L 10.0000,0.0000 Z Z" /></clipPath></defs>
<text  clip-path="url(#clip-26962)" font-family="MS UI Gothic" fill="#000000" transform="rotate(-90, 23.0000, 88.4000) translate(0, 14.4000)" style ="white-space:pre;" font-weight="700" text-anchor="start" x="23.0000" y="74.0000" font-size="16.0000" ><![CDATA[异]]></text>
<text  clip-path="url(#clip-26962)" font-family="MS UI Gothic" fill="#000000" transform="rotate(-90, 23.0000, 72.4000) translate(0, 14.4000)" style ="white-space:pre;" font-weight="700" text-anchor="start" x="23.0000" y="58.0000" font-size="16.0000" ><![CDATA[系]]></text>
<text  clip-path="url(#clip-26962)" font-family="MS UI Gothic" fill="#000000" transform="rotate(-90, 23.0000, 56.4000) translate(0, 14.4000)" style ="white-space:pre;" font-weight="700" text-anchor="start" x="23.0000" y="42.0000" font-size="16.0000" ><![CDATA[数]]></text>
<text font-family="Arial" fill="#000000" transform="rotate(-90, 23.0000, 37.6000) translate(0, 12.6000)" style ="white-space:pre;" font-weight="700" text-anchor="start" x="23.0000" y="25.0000" font-size="14.0000" ><![CDATA[ ]]></text>
<text font-family="Arial" fill="#000000" transform="rotate(-90, 23.0000, 33.6000) translate(0, 12.6000)" style ="white-space:pre;" font-weight="700" text-anchor="start" x="23.0000" y="21.0000" font-size="14.0000" ><![CDATA[(]]></text>
<text font-family="Arial" fill="#000000" transform="rotate(-90, 23.0000, 27.6000) translate(0, 12.6000)" style ="white-space:pre;" font-weight="700" text-anchor="start" x="23.0000" y="15.0000" font-size="14.0000" ><![CDATA[%]]></text>
<text font-family="Arial" fill="#000000" transform="rotate(-90, 23.0000, 16.6000) translate(0, 12.6000)" style ="white-space:pre;" font-weight="700" text-anchor="start" x="23.0000" y="4.0000" font-size="14.0000" ><![CDATA[)]]></text>
<path d="M 66.0000,20.0000 L 66.0000,39.0000 L 283.0000,39.0000 L 283.0000,20.0000 L 66.0000,20.0000 Z" stroke-width="1px" stroke="#FFFFFF"  fill="#FFFFFF" />
<text font-family="Arial" fill="#000000" style ="white-space:pre;" font-weight="400" text-anchor="start" x="107.0000" y="34.0000" font-size="12.0000" ><![CDATA[DVFSQQADLSR - 633.3097++]]></text>
</g>
<g transform="matrix(0.0625 0.0000 0.0000 0.0625 0.0000 0.0000)">
<path d="M 1113.0000,432.0000 L 1113.0000,544.0000 L 1561.0000,544.0000 L 1561.0000,432.0000 L 1113.0000,432.0000 Z" stroke-width="1px" stroke="#FF0000"  fill="#FF0000" />
</g>
<g transform="matrix(1.0000 0.0000 0.0000 1.0000 0.0000 0.0000)">
</g>
<g transform="matrix(0.0625 0.0000 0.0000 0.0625 0.0000 0.0000)">
<path d="M 1057.0000,328.0000 L 4519.0000,328.0000 L 4519.0000,632.0000 L 1057.0000,632.0000 Z" stroke="#000000" stroke-width="16.0000"  stroke-linecap="butt"  stroke-linejoin="miter"  stroke-miterlimit="10.0000" fill="none" />
</g>
<g transform="matrix(1.0000 0.0000 0.0000 1.0000 0.0000 0.0000)">
<defs><clipPath id="clip-24464"><path d="M 67.0000,47.0000 L 726.0000,47.0000 L 726.0000,282.0000 L 67.0000,282.0000 L 67.0000,47.0000 Z Z" /></clipPath></defs>
</g>
<g transform="matrix(0.0625 0.0000 0.0000 0.0625 0.0000 0.0000)">
<path  clip-path="url(#clip-24464)" d="M 1057.0000,1959.0000 L 1803.0000,1959.0000 L 1803.0000,4497.0000 L 1057.0000,4497.0000 Z" stroke="#000000" stroke-width="16.0000"  stroke-linecap="butt"  stroke-linejoin="miter"  stroke-miterlimit="10.0000" fill="none" />
</g>
<g transform="matrix(1.0000 0.0000 0.0000 1.0000 0.0000 0.0000)">
</g>
</g>
</svg>
