<?xml version="1.0"  encoding="UTF-8" standalone="no"?>
<svg version="1.1" xmlns="http://www.w3.org/2000/svg" xmlns:xlink="http://www.w3.org/1999/xlink" width="492.0000" height="443.0000">
<g transform="translate(-0.0000, -0.0000)">
<g transform="matrix(0.0625 0.0000 0.0000 0.0625 0.0000 0.0000)">
<path d="M 0.0000,0.0000 L 0.0000,7088.0000 L 7872.0000,7088.0000 L 7872.0000,0.0000 L 0.0000,0.0000 Z" stroke-width="1px" stroke="#FFFFFF"  fill="#FFFFFF" />
</g>
<g transform="matrix(1.0000 0.0000 0.0000 1.0000 0.0000 0.0000)">
</g>
<g transform="matrix(0.0625 0.0000 0.0000 0.0625 0.0000 0.0000)">
<path d="M 0.0000,0.0000 L 0.0000,7088.0000 L 7872.0000,7088.0000 L 7872.0000,0.0000 L 0.0000,0.0000 Z" stroke-width="1px" stroke="#FFFFFF"  fill="#FFFFFF" />
</g>
<g transform="matrix(1.0000 0.0000 0.0000 1.0000 0.0000 0.0000)">
<text font-family="Arial" fill="#000000" style ="white-space:pre;" font-weight="700" text-anchor="start" x="144.0000" y="25.0000" font-size="16.0000" ><![CDATA[Q values of target peptides]]></text>
<path d="M 66.0000,60.0000 L 66.0000,383.0000 L 465.0000,383.0000 L 465.0000,60.0000 L 66.0000,60.0000 Z" stroke-width="1px" stroke="#FFFFFF"  fill="#FFFFFF" />
<path d="M 90.0000,95.0000 L 90.0000,383.0000 L 91.0000,383.0000 L 91.0000,95.0000 L 90.0000,95.0000 Z" stroke-width="1px" stroke="#0E0E91"  fill="#0E0E91" />
<path d="M 91.0000,95.0000 L 91.0000,383.0000 L 92.0000,383.0000 L 92.0000,95.0000 L 91.0000,95.0000 Z" stroke-width="1px" stroke="#F2F2F9"  fill="#F2F2F9" />
<path d="M 92.0000,95.0000 L 92.0000,383.0000 L 93.0000,383.0000 L 93.0000,95.0000 L 92.0000,95.0000 Z" stroke-width="1px" stroke="#D7D7ED"  fill="#D7D7ED" />
<path d="M 93.0000,95.0000 L 93.0000,383.0000 L 94.0000,383.0000 L 94.0000,95.0000 L 93.0000,95.0000 Z" stroke-width="1px" stroke="#BCBCE1"  fill="#BCBCE1" />
<path d="M 94.0000,95.0000 L 94.0000,383.0000 L 95.0000,383.0000 L 95.0000,95.0000 L 94.0000,95.0000 Z" stroke-width="1px" stroke="#A1A1D5"  fill="#A1A1D5" />
<path d="M 95.0000,95.0000 L 95.0000,383.0000 L 96.0000,383.0000 L 96.0000,95.0000 L 95.0000,95.0000 Z" stroke-width="1px" stroke="#8787C8"  fill="#8787C8" />
<path d="M 96.0000,95.0000 L 96.0000,383.0000 L 97.0000,383.0000 L 97.0000,95.0000 L 96.0000,95.0000 Z" stroke-width="1px" stroke="#6C6CBC"  fill="#6C6CBC" />
<path d="M 97.0000,95.0000 L 97.0000,383.0000 L 98.0000,383.0000 L 98.0000,95.0000 L 97.0000,95.0000 Z" stroke-width="1px" stroke="#5151B0"  fill="#5151B0" />
<path d="M 98.0000,95.0000 L 98.0000,383.0000 L 99.0000,383.0000 L 99.0000,95.0000 L 98.0000,95.0000 Z" stroke-width="1px" stroke="#3636A4"  fill="#3636A4" />
<path d="M 99.0000,95.0000 L 99.0000,383.0000 L 100.0000,383.0000 L 100.0000,95.0000 L 99.0000,95.0000 Z" stroke-width="1px" stroke="#1B1B98"  fill="#1B1B98" />
<defs><clipPath id="clip-41"><path d="M 67.0000,61.0000 L 466.0000,61.0000 L 466.0000,383.0000 L 67.0000,383.0000 L 67.0000,61.0000 Z Z" /></clipPath></defs>
</g>
<g transform="matrix(0.0625 0.0000 0.0000 0.0625 0.0000 0.0000)">
<path  clip-path="url(#clip-41)" d="M 1449.0000,1522.0000 L 1601.0000,1522.0000 L 1601.0000,6128.0000 L 1449.0000,6128.0000 Z" stroke="#000000" stroke-width="16.0000"  stroke-linecap="butt"  stroke-linejoin="miter"  stroke-miterlimit="10.0000" fill="none" />
</g>
<g transform="matrix(1.0000 0.0000 0.0000 1.0000 0.0000 0.0000)">
<path d="M 109.0000,366.0000 L 109.0000,383.0000 L 110.0000,383.0000 L 110.0000,366.0000 L 109.0000,366.0000 Z" stroke-width="1px" stroke="#0E0E91"  fill="#0E0E91" />
<path d="M 110.0000,366.0000 L 110.0000,383.0000 L 111.0000,383.0000 L 111.0000,366.0000 L 110.0000,366.0000 Z" stroke-width="1px" stroke="#F2F2F9"  fill="#F2F2F9" />
<path d="M 111.0000,366.0000 L 111.0000,383.0000 L 112.0000,383.0000 L 112.0000,366.0000 L 111.0000,366.0000 Z" stroke-width="1px" stroke="#D7D7ED"  fill="#D7D7ED" />
<path d="M 112.0000,366.0000 L 112.0000,383.0000 L 113.0000,383.0000 L 113.0000,366.0000 L 112.0000,366.0000 Z" stroke-width="1px" stroke="#BCBCE1"  fill="#BCBCE1" />
<path d="M 113.0000,366.0000 L 113.0000,383.0000 L 114.0000,383.0000 L 114.0000,366.0000 L 113.0000,366.0000 Z" stroke-width="1px" stroke="#A1A1D5"  fill="#A1A1D5" />
<path d="M 114.0000,366.0000 L 114.0000,383.0000 L 115.0000,383.0000 L 115.0000,366.0000 L 114.0000,366.0000 Z" stroke-width="1px" stroke="#8686C8"  fill="#8686C8" />
<path d="M 115.0000,366.0000 L 115.0000,383.0000 L 116.0000,383.0000 L 116.0000,366.0000 L 115.0000,366.0000 Z" stroke-width="1px" stroke="#6C6CBC"  fill="#6C6CBC" />
<path d="M 116.0000,366.0000 L 116.0000,383.0000 L 117.0000,383.0000 L 117.0000,366.0000 L 116.0000,366.0000 Z" stroke-width="1px" stroke="#5151AF"  fill="#5151AF" />
<path d="M 117.0000,366.0000 L 117.0000,383.0000 L 118.0000,383.0000 L 118.0000,366.0000 L 117.0000,366.0000 Z" stroke-width="1px" stroke="#3636A4"  fill="#3636A4" />
<path d="M 118.0000,366.0000 L 118.0000,383.0000 L 119.0000,383.0000 L 119.0000,366.0000 L 118.0000,366.0000 Z" stroke-width="1px" stroke="#1B1B98"  fill="#1B1B98" />
<defs><clipPath id="clip-18467"><path d="M 67.0000,61.0000 L 466.0000,61.0000 L 466.0000,383.0000 L 67.0000,383.0000 L 67.0000,61.0000 Z Z" /></clipPath></defs>
</g>
<g transform="matrix(0.0625 0.0000 0.0000 0.0625 0.0000 0.0000)">
<path  clip-path="url(#clip-18467)" d="M 1753.0000,5871.0000 L 1904.0000,5871.0000 L 1904.0000,6128.0000 L 1753.0000,6128.0000 Z" stroke="#000000" stroke-width="16.0000"  stroke-linecap="butt"  stroke-linejoin="miter"  stroke-miterlimit="10.0000" fill="none" />
</g>
<g transform="matrix(1.0000 0.0000 0.0000 1.0000 0.0000 0.0000)">
<path d="M 147.0000,381.0000 L 147.0000,383.0000 L 148.0000,383.0000 L 148.0000,381.0000 L 147.0000,381.0000 Z" stroke-width="1px" stroke="#0D0D91"  fill="#0D0D91" />
<path d="M 148.0000,381.0000 L 148.0000,383.0000 L 149.0000,383.0000 L 149.0000,381.0000 L 148.0000,381.0000 Z" stroke-width="1px" stroke="#F1F1F9"  fill="#F1F1F9" />
<path d="M 149.0000,381.0000 L 149.0000,383.0000 L 150.0000,383.0000 L 150.0000,381.0000 L 149.0000,381.0000 Z" stroke-width="1px" stroke="#D6D6ED"  fill="#D6D6ED" />
<path d="M 150.0000,381.0000 L 150.0000,383.0000 L 151.0000,383.0000 L 151.0000,381.0000 L 150.0000,381.0000 Z" stroke-width="1px" stroke="#BBBBE0"  fill="#BBBBE0" />
<path d="M 151.0000,381.0000 L 151.0000,383.0000 L 152.0000,383.0000 L 152.0000,381.0000 L 151.0000,381.0000 Z" stroke-width="1px" stroke="#A0A0D5"  fill="#A0A0D5" />
<path d="M 152.0000,381.0000 L 152.0000,383.0000 L 153.0000,383.0000 L 153.0000,381.0000 L 152.0000,381.0000 Z" stroke-width="1px" stroke="#8686C8"  fill="#8686C8" />
<path d="M 153.0000,381.0000 L 153.0000,383.0000 L 154.0000,383.0000 L 154.0000,381.0000 L 153.0000,381.0000 Z" stroke-width="1px" stroke="#6B6BBC"  fill="#6B6BBC" />
<path d="M 154.0000,381.0000 L 154.0000,383.0000 L 155.0000,383.0000 L 155.0000,381.0000 L 154.0000,381.0000 Z" stroke-width="1px" stroke="#5050AF"  fill="#5050AF" />
<path d="M 155.0000,381.0000 L 155.0000,383.0000 L 156.0000,383.0000 L 156.0000,381.0000 L 155.0000,381.0000 Z" stroke-width="1px" stroke="#3636A3"  fill="#3636A3" />
<path d="M 156.0000,381.0000 L 156.0000,383.0000 L 157.0000,383.0000 L 157.0000,381.0000 L 156.0000,381.0000 Z" stroke-width="1px" stroke="#1B1B97"  fill="#1B1B97" />
<defs><clipPath id="clip-6334"><path d="M 67.0000,61.0000 L 466.0000,61.0000 L 466.0000,383.0000 L 67.0000,383.0000 L 67.0000,61.0000 Z Z" /></clipPath></defs>
</g>
<g transform="matrix(0.0625 0.0000 0.0000 0.0625 0.0000 0.0000)">
<path  clip-path="url(#clip-6334)" d="M 2360.0000,6096.0000 L 2512.0000,6096.0000 L 2512.0000,6128.0000 L 2360.0000,6128.0000 Z" stroke="#000000" stroke-width="16.0000"  stroke-linecap="butt"  stroke-linejoin="miter"  stroke-miterlimit="10.0000" fill="none" />
</g>
<g transform="matrix(1.0000 0.0000 0.0000 1.0000 0.0000 0.0000)">
<path d="M 166.0000,381.0000 L 166.0000,383.0000 L 167.0000,383.0000 L 167.0000,381.0000 L 166.0000,381.0000 Z" stroke-width="1px" stroke="#0D0D91"  fill="#0D0D91" />
<path d="M 167.0000,381.0000 L 167.0000,383.0000 L 168.0000,383.0000 L 168.0000,381.0000 L 167.0000,381.0000 Z" stroke-width="1px" stroke="#F1F1F9"  fill="#F1F1F9" />
<path d="M 168.0000,381.0000 L 168.0000,383.0000 L 169.0000,383.0000 L 169.0000,381.0000 L 168.0000,381.0000 Z" stroke-width="1px" stroke="#D6D6ED"  fill="#D6D6ED" />
<path d="M 169.0000,381.0000 L 169.0000,383.0000 L 170.0000,383.0000 L 170.0000,381.0000 L 169.0000,381.0000 Z" stroke-width="1px" stroke="#BBBBE0"  fill="#BBBBE0" />
<path d="M 170.0000,381.0000 L 170.0000,383.0000 L 171.0000,383.0000 L 171.0000,381.0000 L 170.0000,381.0000 Z" stroke-width="1px" stroke="#A0A0D5"  fill="#A0A0D5" />
<path d="M 171.0000,381.0000 L 171.0000,383.0000 L 172.0000,383.0000 L 172.0000,381.0000 L 171.0000,381.0000 Z" stroke-width="1px" stroke="#8686C8"  fill="#8686C8" />
<path d="M 172.0000,381.0000 L 172.0000,383.0000 L 173.0000,383.0000 L 173.0000,381.0000 L 172.0000,381.0000 Z" stroke-width="1px" stroke="#6B6BBC"  fill="#6B6BBC" />
<path d="M 173.0000,381.0000 L 173.0000,383.0000 L 174.0000,383.0000 L 174.0000,381.0000 L 173.0000,381.0000 Z" stroke-width="1px" stroke="#5050AF"  fill="#5050AF" />
<path d="M 174.0000,381.0000 L 174.0000,383.0000 L 175.0000,383.0000 L 175.0000,381.0000 L 174.0000,381.0000 Z" stroke-width="1px" stroke="#3535A3"  fill="#3535A3" />
<path d="M 175.0000,381.0000 L 175.0000,383.0000 L 176.0000,383.0000 L 176.0000,381.0000 L 175.0000,381.0000 Z" stroke-width="1px" stroke="#1A1A97"  fill="#1A1A97" />
<defs><clipPath id="clip-26500"><path d="M 67.0000,61.0000 L 466.0000,61.0000 L 466.0000,383.0000 L 67.0000,383.0000 L 67.0000,61.0000 Z Z" /></clipPath></defs>
</g>
<g transform="matrix(0.0625 0.0000 0.0000 0.0625 0.0000 0.0000)">
<path  clip-path="url(#clip-26500)" d="M 2664.0000,6096.0000 L 2816.0000,6096.0000 L 2816.0000,6128.0000 L 2664.0000,6128.0000 Z" stroke="#000000" stroke-width="16.0000"  stroke-linecap="butt"  stroke-linejoin="miter"  stroke-miterlimit="10.0000" fill="none" />
</g>
<g transform="matrix(1.0000 0.0000 0.0000 1.0000 0.0000 0.0000)">
<path d="M 185.0000,381.0000 L 185.0000,383.0000 L 186.0000,383.0000 L 186.0000,381.0000 L 185.0000,381.0000 Z" stroke-width="1px" stroke="#0D0D91"  fill="#0D0D91" />
<path d="M 186.0000,381.0000 L 186.0000,383.0000 L 187.0000,383.0000 L 187.0000,381.0000 L 186.0000,381.0000 Z" stroke-width="1px" stroke="#F1F1F9"  fill="#F1F1F9" />
<path d="M 187.0000,381.0000 L 187.0000,383.0000 L 188.0000,383.0000 L 188.0000,381.0000 L 187.0000,381.0000 Z" stroke-width="1px" stroke="#D6D6EC"  fill="#D6D6EC" />
<path d="M 188.0000,381.0000 L 188.0000,383.0000 L 189.0000,383.0000 L 189.0000,381.0000 L 188.0000,381.0000 Z" stroke-width="1px" stroke="#BBBBE0"  fill="#BBBBE0" />
<path d="M 189.0000,381.0000 L 189.0000,383.0000 L 190.0000,383.0000 L 190.0000,381.0000 L 189.0000,381.0000 Z" stroke-width="1px" stroke="#A0A0D4"  fill="#A0A0D4" />
<path d="M 190.0000,381.0000 L 190.0000,383.0000 L 191.0000,383.0000 L 191.0000,381.0000 L 190.0000,381.0000 Z" stroke-width="1px" stroke="#8686C8"  fill="#8686C8" />
<path d="M 191.0000,381.0000 L 191.0000,383.0000 L 192.0000,383.0000 L 192.0000,381.0000 L 191.0000,381.0000 Z" stroke-width="1px" stroke="#6B6BBC"  fill="#6B6BBC" />
<path d="M 192.0000,381.0000 L 192.0000,383.0000 L 193.0000,383.0000 L 193.0000,381.0000 L 192.0000,381.0000 Z" stroke-width="1px" stroke="#5050AF"  fill="#5050AF" />
<path d="M 193.0000,381.0000 L 193.0000,383.0000 L 194.0000,383.0000 L 194.0000,381.0000 L 193.0000,381.0000 Z" stroke-width="1px" stroke="#3535A3"  fill="#3535A3" />
<path d="M 194.0000,381.0000 L 194.0000,383.0000 L 195.0000,383.0000 L 195.0000,381.0000 L 194.0000,381.0000 Z" stroke-width="1px" stroke="#1A1A97"  fill="#1A1A97" />
<defs><clipPath id="clip-19169"><path d="M 67.0000,61.0000 L 466.0000,61.0000 L 466.0000,383.0000 L 67.0000,383.0000 L 67.0000,61.0000 Z Z" /></clipPath></defs>
</g>
<g transform="matrix(0.0625 0.0000 0.0000 0.0625 0.0000 0.0000)">
<path  clip-path="url(#clip-19169)" d="M 2968.0000,6096.0000 L 3120.0000,6096.0000 L 3120.0000,6128.0000 L 2968.0000,6128.0000 Z" stroke="#000000" stroke-width="16.0000"  stroke-linecap="butt"  stroke-linejoin="miter"  stroke-miterlimit="10.0000" fill="none" />
</g>
<g transform="matrix(1.0000 0.0000 0.0000 1.0000 0.0000 0.0000)">
<path d="M 204.0000,379.0000 L 204.0000,383.0000 L 205.0000,383.0000 L 205.0000,379.0000 L 204.0000,379.0000 Z" stroke-width="1px" stroke="#0D0D91"  fill="#0D0D91" />
<path d="M 205.0000,379.0000 L 205.0000,383.0000 L 206.0000,383.0000 L 206.0000,379.0000 L 205.0000,379.0000 Z" stroke-width="1px" stroke="#F1F1F9"  fill="#F1F1F9" />
<path d="M 206.0000,379.0000 L 206.0000,383.0000 L 207.0000,383.0000 L 207.0000,379.0000 L 206.0000,379.0000 Z" stroke-width="1px" stroke="#D6D6EC"  fill="#D6D6EC" />
<path d="M 207.0000,379.0000 L 207.0000,383.0000 L 208.0000,383.0000 L 208.0000,379.0000 L 207.0000,379.0000 Z" stroke-width="1px" stroke="#BBBBE0"  fill="#BBBBE0" />
<path d="M 208.0000,379.0000 L 208.0000,383.0000 L 209.0000,383.0000 L 209.0000,379.0000 L 208.0000,379.0000 Z" stroke-width="1px" stroke="#A0A0D4"  fill="#A0A0D4" />
<path d="M 209.0000,379.0000 L 209.0000,383.0000 L 210.0000,383.0000 L 210.0000,379.0000 L 209.0000,379.0000 Z" stroke-width="1px" stroke="#8686C8"  fill="#8686C8" />
<path d="M 210.0000,379.0000 L 210.0000,383.0000 L 211.0000,383.0000 L 211.0000,379.0000 L 210.0000,379.0000 Z" stroke-width="1px" stroke="#6B6BBC"  fill="#6B6BBC" />
<path d="M 211.0000,379.0000 L 211.0000,383.0000 L 212.0000,383.0000 L 212.0000,379.0000 L 211.0000,379.0000 Z" stroke-width="1px" stroke="#5050AF"  fill="#5050AF" />
<path d="M 212.0000,379.0000 L 212.0000,383.0000 L 213.0000,383.0000 L 213.0000,379.0000 L 212.0000,379.0000 Z" stroke-width="1px" stroke="#3535A3"  fill="#3535A3" />
<path d="M 213.0000,379.0000 L 213.0000,383.0000 L 214.0000,383.0000 L 214.0000,379.0000 L 213.0000,379.0000 Z" stroke-width="1px" stroke="#1A1A97"  fill="#1A1A97" />
<defs><clipPath id="clip-15724"><path d="M 67.0000,61.0000 L 466.0000,61.0000 L 466.0000,383.0000 L 67.0000,383.0000 L 67.0000,61.0000 Z Z" /></clipPath></defs>
</g>
<g transform="matrix(0.0625 0.0000 0.0000 0.0625 0.0000 0.0000)">
<path  clip-path="url(#clip-15724)" d="M 3272.0000,6064.0000 L 3424.0000,6064.0000 L 3424.0000,6128.0000 L 3272.0000,6128.0000 Z" stroke="#000000" stroke-width="16.0000"  stroke-linecap="butt"  stroke-linejoin="miter"  stroke-miterlimit="10.0000" fill="none" />
</g>
<g transform="matrix(1.0000 0.0000 0.0000 1.0000 0.0000 0.0000)">
<path d="M 223.0000,381.0000 L 223.0000,383.0000 L 224.0000,383.0000 L 224.0000,381.0000 L 223.0000,381.0000 Z" stroke-width="1px" stroke="#0D0D90"  fill="#0D0D90" />
<path d="M 224.0000,381.0000 L 224.0000,383.0000 L 225.0000,383.0000 L 225.0000,381.0000 L 224.0000,381.0000 Z" stroke-width="1px" stroke="#F1F1F9"  fill="#F1F1F9" />
<path d="M 225.0000,381.0000 L 225.0000,383.0000 L 226.0000,383.0000 L 226.0000,381.0000 L 225.0000,381.0000 Z" stroke-width="1px" stroke="#D6D6EC"  fill="#D6D6EC" />
<path d="M 226.0000,381.0000 L 226.0000,383.0000 L 227.0000,383.0000 L 227.0000,381.0000 L 226.0000,381.0000 Z" stroke-width="1px" stroke="#BBBBE0"  fill="#BBBBE0" />
<path d="M 227.0000,381.0000 L 227.0000,383.0000 L 228.0000,383.0000 L 228.0000,381.0000 L 227.0000,381.0000 Z" stroke-width="1px" stroke="#A0A0D4"  fill="#A0A0D4" />
<path d="M 228.0000,381.0000 L 228.0000,383.0000 L 229.0000,383.0000 L 229.0000,381.0000 L 228.0000,381.0000 Z" stroke-width="1px" stroke="#8585C7"  fill="#8585C7" />
<path d="M 229.0000,381.0000 L 229.0000,383.0000 L 230.0000,383.0000 L 230.0000,381.0000 L 229.0000,381.0000 Z" stroke-width="1px" stroke="#6B6BBC"  fill="#6B6BBC" />
<path d="M 230.0000,381.0000 L 230.0000,383.0000 L 231.0000,383.0000 L 231.0000,381.0000 L 230.0000,381.0000 Z" stroke-width="1px" stroke="#5050AF"  fill="#5050AF" />
<path d="M 231.0000,381.0000 L 231.0000,383.0000 L 232.0000,383.0000 L 232.0000,381.0000 L 231.0000,381.0000 Z" stroke-width="1px" stroke="#3535A3"  fill="#3535A3" />
<path d="M 232.0000,381.0000 L 232.0000,383.0000 L 233.0000,383.0000 L 233.0000,381.0000 L 232.0000,381.0000 Z" stroke-width="1px" stroke="#1A1A97"  fill="#1A1A97" />
<defs><clipPath id="clip-11478"><path d="M 67.0000,61.0000 L 466.0000,61.0000 L 466.0000,383.0000 L 67.0000,383.0000 L 67.0000,61.0000 Z Z" /></clipPath></defs>
</g>
<g transform="matrix(0.0625 0.0000 0.0000 0.0625 0.0000 0.0000)">
<path  clip-path="url(#clip-11478)" d="M 3576.0000,6096.0000 L 3728.0000,6096.0000 L 3728.0000,6128.0000 L 3576.0000,6128.0000 Z" stroke="#000000" stroke-width="16.0000"  stroke-linecap="butt"  stroke-linejoin="miter"  stroke-miterlimit="10.0000" fill="none" />
</g>
<g transform="matrix(1.0000 0.0000 0.0000 1.0000 0.0000 0.0000)">
<path d="M 242.0000,379.0000 L 242.0000,383.0000 L 243.0000,383.0000 L 243.0000,379.0000 L 242.0000,379.0000 Z" stroke-width="1px" stroke="#0C0C90"  fill="#0C0C90" />
<path d="M 243.0000,379.0000 L 243.0000,383.0000 L 244.0000,383.0000 L 244.0000,379.0000 L 243.0000,379.0000 Z" stroke-width="1px" stroke="#F0F0F9"  fill="#F0F0F9" />
<path d="M 244.0000,379.0000 L 244.0000,383.0000 L 245.0000,383.0000 L 245.0000,379.0000 L 244.0000,379.0000 Z" stroke-width="1px" stroke="#D5D5EC"  fill="#D5D5EC" />
<path d="M 245.0000,379.0000 L 245.0000,383.0000 L 246.0000,383.0000 L 246.0000,379.0000 L 245.0000,379.0000 Z" stroke-width="1px" stroke="#BBBBE0"  fill="#BBBBE0" />
<path d="M 246.0000,379.0000 L 246.0000,383.0000 L 247.0000,383.0000 L 247.0000,379.0000 L 246.0000,379.0000 Z" stroke-width="1px" stroke="#A0A0D4"  fill="#A0A0D4" />
<path d="M 247.0000,379.0000 L 247.0000,383.0000 L 248.0000,383.0000 L 248.0000,379.0000 L 247.0000,379.0000 Z" stroke-width="1px" stroke="#8585C7"  fill="#8585C7" />
<path d="M 248.0000,379.0000 L 248.0000,383.0000 L 249.0000,383.0000 L 249.0000,379.0000 L 248.0000,379.0000 Z" stroke-width="1px" stroke="#6B6BBC"  fill="#6B6BBC" />
<path d="M 249.0000,379.0000 L 249.0000,383.0000 L 250.0000,383.0000 L 250.0000,379.0000 L 249.0000,379.0000 Z" stroke-width="1px" stroke="#5050AF"  fill="#5050AF" />
<path d="M 250.0000,379.0000 L 250.0000,383.0000 L 251.0000,383.0000 L 251.0000,379.0000 L 250.0000,379.0000 Z" stroke-width="1px" stroke="#3535A3"  fill="#3535A3" />
<path d="M 251.0000,379.0000 L 251.0000,383.0000 L 252.0000,383.0000 L 252.0000,379.0000 L 251.0000,379.0000 Z" stroke-width="1px" stroke="#1A1A97"  fill="#1A1A97" />
<defs><clipPath id="clip-29358"><path d="M 67.0000,61.0000 L 466.0000,61.0000 L 466.0000,383.0000 L 67.0000,383.0000 L 67.0000,61.0000 Z Z" /></clipPath></defs>
</g>
<g transform="matrix(0.0625 0.0000 0.0000 0.0625 0.0000 0.0000)">
<path  clip-path="url(#clip-29358)" d="M 3880.0000,6064.0000 L 4032.0000,6064.0000 L 4032.0000,6128.0000 L 3880.0000,6128.0000 Z" stroke="#000000" stroke-width="16.0000"  stroke-linecap="butt"  stroke-linejoin="miter"  stroke-miterlimit="10.0000" fill="none" />
</g>
<g transform="matrix(1.0000 0.0000 0.0000 1.0000 0.0000 0.0000)">
<path d="M 261.0000,379.0000 L 261.0000,383.0000 L 262.0000,383.0000 L 262.0000,379.0000 L 261.0000,379.0000 Z" stroke-width="1px" stroke="#0C0C90"  fill="#0C0C90" />
<path d="M 262.0000,379.0000 L 262.0000,383.0000 L 263.0000,383.0000 L 263.0000,379.0000 L 262.0000,379.0000 Z" stroke-width="1px" stroke="#F0F0F9"  fill="#F0F0F9" />
<path d="M 263.0000,379.0000 L 263.0000,383.0000 L 264.0000,383.0000 L 264.0000,379.0000 L 263.0000,379.0000 Z" stroke-width="1px" stroke="#D5D5EC"  fill="#D5D5EC" />
<path d="M 264.0000,379.0000 L 264.0000,383.0000 L 265.0000,383.0000 L 265.0000,379.0000 L 264.0000,379.0000 Z" stroke-width="1px" stroke="#BABAE0"  fill="#BABAE0" />
<path d="M 265.0000,379.0000 L 265.0000,383.0000 L 266.0000,383.0000 L 266.0000,379.0000 L 265.0000,379.0000 Z" stroke-width="1px" stroke="#9F9FD4"  fill="#9F9FD4" />
<path d="M 266.0000,379.0000 L 266.0000,383.0000 L 267.0000,383.0000 L 267.0000,379.0000 L 266.0000,379.0000 Z" stroke-width="1px" stroke="#8585C7"  fill="#8585C7" />
<path d="M 267.0000,379.0000 L 267.0000,383.0000 L 268.0000,383.0000 L 268.0000,379.0000 L 267.0000,379.0000 Z" stroke-width="1px" stroke="#6A6ABC"  fill="#6A6ABC" />
<path d="M 268.0000,379.0000 L 268.0000,383.0000 L 269.0000,383.0000 L 269.0000,379.0000 L 268.0000,379.0000 Z" stroke-width="1px" stroke="#5050AF"  fill="#5050AF" />
<path d="M 269.0000,379.0000 L 269.0000,383.0000 L 270.0000,383.0000 L 270.0000,379.0000 L 269.0000,379.0000 Z" stroke-width="1px" stroke="#3535A3"  fill="#3535A3" />
<path d="M 270.0000,379.0000 L 270.0000,383.0000 L 271.0000,383.0000 L 271.0000,379.0000 L 270.0000,379.0000 Z" stroke-width="1px" stroke="#1A1A97"  fill="#1A1A97" />
<defs><clipPath id="clip-26962"><path d="M 67.0000,61.0000 L 466.0000,61.0000 L 466.0000,383.0000 L 67.0000,383.0000 L 67.0000,61.0000 Z Z" /></clipPath></defs>
</g>
<g transform="matrix(0.0625 0.0000 0.0000 0.0625 0.0000 0.0000)">
<path  clip-path="url(#clip-26962)" d="M 4184.0000,6064.0000 L 4336.0000,6064.0000 L 4336.0000,6128.0000 L 4184.0000,6128.0000 Z" stroke="#000000" stroke-width="16.0000"  stroke-linecap="butt"  stroke-linejoin="miter"  stroke-miterlimit="10.0000" fill="none" />
</g>
<g transform="matrix(1.0000 0.0000 0.0000 1.0000 0.0000 0.0000)">
<path d="M 318.0000,381.0000 L 318.0000,383.0000 L 319.0000,383.0000 L 319.0000,381.0000 L 318.0000,381.0000 Z" stroke-width="1px" stroke="#0C0C90"  fill="#0C0C90" />
<path d="M 319.0000,381.0000 L 319.0000,383.0000 L 320.0000,383.0000 L 320.0000,381.0000 L 319.0000,381.0000 Z" stroke-width="1px" stroke="#F0F0F8"  fill="#F0F0F8" />
<path d="M 320.0000,381.0000 L 320.0000,383.0000 L 321.0000,383.0000 L 321.0000,381.0000 L 320.0000,381.0000 Z" stroke-width="1px" stroke="#D5D5EC"  fill="#D5D5EC" />
<path d="M 321.0000,381.0000 L 321.0000,383.0000 L 322.0000,383.0000 L 322.0000,381.0000 L 321.0000,381.0000 Z" stroke-width="1px" stroke="#BABAE0"  fill="#BABAE0" />
<path d="M 322.0000,381.0000 L 322.0000,383.0000 L 323.0000,383.0000 L 323.0000,381.0000 L 322.0000,381.0000 Z" stroke-width="1px" stroke="#9F9FD4"  fill="#9F9FD4" />
<path d="M 323.0000,381.0000 L 323.0000,383.0000 L 324.0000,383.0000 L 324.0000,381.0000 L 323.0000,381.0000 Z" stroke-width="1px" stroke="#8585C7"  fill="#8585C7" />
<path d="M 324.0000,381.0000 L 324.0000,383.0000 L 325.0000,383.0000 L 325.0000,381.0000 L 324.0000,381.0000 Z" stroke-width="1px" stroke="#6A6ABB"  fill="#6A6ABB" />
<path d="M 325.0000,381.0000 L 325.0000,383.0000 L 326.0000,383.0000 L 326.0000,381.0000 L 325.0000,381.0000 Z" stroke-width="1px" stroke="#4F4FAF"  fill="#4F4FAF" />
<path d="M 326.0000,381.0000 L 326.0000,383.0000 L 327.0000,383.0000 L 327.0000,381.0000 L 326.0000,381.0000 Z" stroke-width="1px" stroke="#3434A3"  fill="#3434A3" />
<path d="M 327.0000,381.0000 L 327.0000,383.0000 L 328.0000,383.0000 L 328.0000,381.0000 L 327.0000,381.0000 Z" stroke-width="1px" stroke="#191997"  fill="#191997" />
<defs><clipPath id="clip-24464"><path d="M 67.0000,61.0000 L 466.0000,61.0000 L 466.0000,383.0000 L 67.0000,383.0000 L 67.0000,61.0000 Z Z" /></clipPath></defs>
</g>
<g transform="matrix(0.0625 0.0000 0.0000 0.0625 0.0000 0.0000)">
<path  clip-path="url(#clip-24464)" d="M 5095.0000,6096.0000 L 5247.0000,6096.0000 L 5247.0000,6128.0000 L 5095.0000,6128.0000 Z" stroke="#000000" stroke-width="16.0000"  stroke-linecap="butt"  stroke-linejoin="miter"  stroke-miterlimit="10.0000" fill="none" />
</g>
<g transform="matrix(1.0000 0.0000 0.0000 1.0000 0.0000 0.0000)">
<path d="M 337.0000,377.0000 L 337.0000,383.0000 L 338.0000,383.0000 L 338.0000,377.0000 L 337.0000,377.0000 Z" stroke-width="1px" stroke="#0C0C90"  fill="#0C0C90" />
<path d="M 338.0000,377.0000 L 338.0000,383.0000 L 339.0000,383.0000 L 339.0000,377.0000 L 338.0000,377.0000 Z" stroke-width="1px" stroke="#F0F0F8"  fill="#F0F0F8" />
<path d="M 339.0000,377.0000 L 339.0000,383.0000 L 340.0000,383.0000 L 340.0000,377.0000 L 339.0000,377.0000 Z" stroke-width="1px" stroke="#D5D5EC"  fill="#D5D5EC" />
<path d="M 340.0000,377.0000 L 340.0000,383.0000 L 341.0000,383.0000 L 341.0000,377.0000 L 340.0000,377.0000 Z" stroke-width="1px" stroke="#BABAE0"  fill="#BABAE0" />
<path d="M 341.0000,377.0000 L 341.0000,383.0000 L 342.0000,383.0000 L 342.0000,377.0000 L 341.0000,377.0000 Z" stroke-width="1px" stroke="#9F9FD4"  fill="#9F9FD4" />
<path d="M 342.0000,377.0000 L 342.0000,383.0000 L 343.0000,383.0000 L 343.0000,377.0000 L 342.0000,377.0000 Z" stroke-width="1px" stroke="#8484C7"  fill="#8484C7" />
<path d="M 343.0000,377.0000 L 343.0000,383.0000 L 344.0000,383.0000 L 344.0000,377.0000 L 343.0000,377.0000 Z" stroke-width="1px" stroke="#6A6ABB"  fill="#6A6ABB" />
<path d="M 344.0000,377.0000 L 344.0000,383.0000 L 345.0000,383.0000 L 345.0000,377.0000 L 344.0000,377.0000 Z" stroke-width="1px" stroke="#4F4FAE"  fill="#4F4FAE" />
<path d="M 345.0000,377.0000 L 345.0000,383.0000 L 346.0000,383.0000 L 346.0000,377.0000 L 345.0000,377.0000 Z" stroke-width="1px" stroke="#3434A3"  fill="#3434A3" />
<path d="M 346.0000,377.0000 L 346.0000,383.0000 L 347.0000,383.0000 L 347.0000,377.0000 L 346.0000,377.0000 Z" stroke-width="1px" stroke="#191996"  fill="#191996" />
<defs><clipPath id="clip-5705"><path d="M 67.0000,61.0000 L 466.0000,61.0000 L 466.0000,383.0000 L 67.0000,383.0000 L 67.0000,61.0000 Z Z" /></clipPath></defs>
</g>
<g transform="matrix(0.0625 0.0000 0.0000 0.0625 0.0000 0.0000)">
<path  clip-path="url(#clip-5705)" d="M 5399.0000,6032.0000 L 5551.0000,6032.0000 L 5551.0000,6128.0000 L 5399.0000,6128.0000 Z" stroke="#000000" stroke-width="16.0000"  stroke-linecap="butt"  stroke-linejoin="miter"  stroke-miterlimit="10.0000" fill="none" />
</g>
<g transform="matrix(1.0000 0.0000 0.0000 1.0000 0.0000 0.0000)">
<path d="M 356.0000,377.0000 L 356.0000,383.0000 L 357.0000,383.0000 L 357.0000,377.0000 L 356.0000,377.0000 Z" stroke-width="1px" stroke="#0B0B90"  fill="#0B0B90" />
<path d="M 357.0000,377.0000 L 357.0000,383.0000 L 358.0000,383.0000 L 358.0000,377.0000 L 357.0000,377.0000 Z" stroke-width="1px" stroke="#EFEFF8"  fill="#EFEFF8" />
<path d="M 358.0000,377.0000 L 358.0000,383.0000 L 359.0000,383.0000 L 359.0000,377.0000 L 358.0000,377.0000 Z" stroke-width="1px" stroke="#D4D4EC"  fill="#D4D4EC" />
<path d="M 359.0000,377.0000 L 359.0000,383.0000 L 360.0000,383.0000 L 360.0000,377.0000 L 359.0000,377.0000 Z" stroke-width="1px" stroke="#BABAE0"  fill="#BABAE0" />
<path d="M 360.0000,377.0000 L 360.0000,383.0000 L 361.0000,383.0000 L 361.0000,377.0000 L 360.0000,377.0000 Z" stroke-width="1px" stroke="#9F9FD4"  fill="#9F9FD4" />
<path d="M 361.0000,377.0000 L 361.0000,383.0000 L 362.0000,383.0000 L 362.0000,377.0000 L 361.0000,377.0000 Z" stroke-width="1px" stroke="#8484C7"  fill="#8484C7" />
<path d="M 362.0000,377.0000 L 362.0000,383.0000 L 363.0000,383.0000 L 363.0000,377.0000 L 362.0000,377.0000 Z" stroke-width="1px" stroke="#6A6ABB"  fill="#6A6ABB" />
<path d="M 363.0000,377.0000 L 363.0000,383.0000 L 364.0000,383.0000 L 364.0000,377.0000 L 363.0000,377.0000 Z" stroke-width="1px" stroke="#4F4FAE"  fill="#4F4FAE" />
<path d="M 364.0000,377.0000 L 364.0000,383.0000 L 365.0000,383.0000 L 365.0000,377.0000 L 364.0000,377.0000 Z" stroke-width="1px" stroke="#3434A3"  fill="#3434A3" />
<path d="M 365.0000,377.0000 L 365.0000,383.0000 L 366.0000,383.0000 L 366.0000,377.0000 L 365.0000,377.0000 Z" stroke-width="1px" stroke="#191996"  fill="#191996" />
<defs><clipPath id="clip-28145"><path d="M 67.0000,61.0000 L 466.0000,61.0000 L 466.0000,383.0000 L 67.0000,383.0000 L 67.0000,61.0000 Z Z" /></clipPath></defs>
</g>
<g transform="matrix(0.0625 0.0000 0.0000 0.0625 0.0000 0.0000)">
<path  clip-path="url(#clip-28145)" d="M 5703.0000,6032.0000 L 5855.0000,6032.0000 L 5855.0000,6128.0000 L 5703.0000,6128.0000 Z" stroke="#000000" stroke-width="16.0000"  stroke-linecap="butt"  stroke-linejoin="miter"  stroke-miterlimit="10.0000" fill="none" />
</g>
<g transform="matrix(1.0000 0.0000 0.0000 1.0000 0.0000 0.0000)">
<path d="M 375.0000,381.0000 L 375.0000,383.0000 L 376.0000,383.0000 L 376.0000,381.0000 L 375.0000,381.0000 Z" stroke-width="1px" stroke="#0B0B90"  fill="#0B0B90" />
<path d="M 376.0000,381.0000 L 376.0000,383.0000 L 377.0000,383.0000 L 377.0000,381.0000 L 376.0000,381.0000 Z" stroke-width="1px" stroke="#EFEFF8"  fill="#EFEFF8" />
<path d="M 377.0000,381.0000 L 377.0000,383.0000 L 378.0000,383.0000 L 378.0000,381.0000 L 377.0000,381.0000 Z" stroke-width="1px" stroke="#D4D4EC"  fill="#D4D4EC" />
<path d="M 378.0000,381.0000 L 378.0000,383.0000 L 379.0000,383.0000 L 379.0000,381.0000 L 378.0000,381.0000 Z" stroke-width="1px" stroke="#B9B9DF"  fill="#B9B9DF" />
<path d="M 379.0000,381.0000 L 379.0000,383.0000 L 380.0000,383.0000 L 380.0000,381.0000 L 379.0000,381.0000 Z" stroke-width="1px" stroke="#9E9ED4"  fill="#9E9ED4" />
<path d="M 380.0000,381.0000 L 380.0000,383.0000 L 381.0000,383.0000 L 381.0000,381.0000 L 380.0000,381.0000 Z" stroke-width="1px" stroke="#8484C7"  fill="#8484C7" />
<path d="M 381.0000,381.0000 L 381.0000,383.0000 L 382.0000,383.0000 L 382.0000,381.0000 L 381.0000,381.0000 Z" stroke-width="1px" stroke="#6969BB"  fill="#6969BB" />
<path d="M 382.0000,381.0000 L 382.0000,383.0000 L 383.0000,383.0000 L 383.0000,381.0000 L 382.0000,381.0000 Z" stroke-width="1px" stroke="#4E4EAE"  fill="#4E4EAE" />
<path d="M 383.0000,381.0000 L 383.0000,383.0000 L 384.0000,383.0000 L 384.0000,381.0000 L 383.0000,381.0000 Z" stroke-width="1px" stroke="#3333A2"  fill="#3333A2" />
<path d="M 384.0000,381.0000 L 384.0000,383.0000 L 385.0000,383.0000 L 385.0000,381.0000 L 384.0000,381.0000 Z" stroke-width="1px" stroke="#181896"  fill="#181896" />
<defs><clipPath id="clip-23281"><path d="M 67.0000,61.0000 L 466.0000,61.0000 L 466.0000,383.0000 L 67.0000,383.0000 L 67.0000,61.0000 Z Z" /></clipPath></defs>
</g>
<g transform="matrix(0.0625 0.0000 0.0000 0.0625 0.0000 0.0000)">
<path  clip-path="url(#clip-23281)" d="M 6007.0000,6096.0000 L 6159.0000,6096.0000 L 6159.0000,6128.0000 L 6007.0000,6128.0000 Z" stroke="#000000" stroke-width="16.0000"  stroke-linecap="butt"  stroke-linejoin="miter"  stroke-miterlimit="10.0000" fill="none" />
</g>
<g transform="matrix(1.0000 0.0000 0.0000 1.0000 0.0000 0.0000)">
<path d="M 451.0000,381.0000 L 451.0000,383.0000 L 452.0000,383.0000 L 452.0000,381.0000 L 451.0000,381.0000 Z" stroke-width="1px" stroke="#0A0A90"  fill="#0A0A90" />
<path d="M 452.0000,381.0000 L 452.0000,383.0000 L 453.0000,383.0000 L 453.0000,381.0000 L 452.0000,381.0000 Z" stroke-width="1px" stroke="#EEEEF8"  fill="#EEEEF8" />
<path d="M 453.0000,381.0000 L 453.0000,383.0000 L 454.0000,383.0000 L 454.0000,381.0000 L 453.0000,381.0000 Z" stroke-width="1px" stroke="#D4D4EB"  fill="#D4D4EB" />
<path d="M 454.0000,381.0000 L 454.0000,383.0000 L 455.0000,383.0000 L 455.0000,381.0000 L 454.0000,381.0000 Z" stroke-width="1px" stroke="#B9B9DF"  fill="#B9B9DF" />
<path d="M 455.0000,381.0000 L 455.0000,383.0000 L 456.0000,383.0000 L 456.0000,381.0000 L 455.0000,381.0000 Z" stroke-width="1px" stroke="#9E9ED3"  fill="#9E9ED3" />
<path d="M 456.0000,381.0000 L 456.0000,383.0000 L 457.0000,383.0000 L 457.0000,381.0000 L 456.0000,381.0000 Z" stroke-width="1px" stroke="#8383C7"  fill="#8383C7" />
<path d="M 457.0000,381.0000 L 457.0000,383.0000 L 458.0000,383.0000 L 458.0000,381.0000 L 457.0000,381.0000 Z" stroke-width="1px" stroke="#6969BB"  fill="#6969BB" />
<path d="M 458.0000,381.0000 L 458.0000,383.0000 L 459.0000,383.0000 L 459.0000,381.0000 L 458.0000,381.0000 Z" stroke-width="1px" stroke="#4E4EAE"  fill="#4E4EAE" />
<path d="M 459.0000,381.0000 L 459.0000,383.0000 L 460.0000,383.0000 L 460.0000,381.0000 L 459.0000,381.0000 Z" stroke-width="1px" stroke="#3333A2"  fill="#3333A2" />
<path d="M 460.0000,381.0000 L 460.0000,383.0000 L 461.0000,383.0000 L 461.0000,381.0000 L 460.0000,381.0000 Z" stroke-width="1px" stroke="#181896"  fill="#181896" />
<defs><clipPath id="clip-16827"><path d="M 67.0000,61.0000 L 466.0000,61.0000 L 466.0000,383.0000 L 67.0000,383.0000 L 67.0000,61.0000 Z Z" /></clipPath></defs>
</g>
<g transform="matrix(0.0625 0.0000 0.0000 0.0625 0.0000 0.0000)">
<path  clip-path="url(#clip-16827)" d="M 7223.0000,6096.0000 L 7375.0000,6096.0000 L 7375.0000,6128.0000 L 7223.0000,6128.0000 Z" stroke="#000000" stroke-width="16.0000"  stroke-linecap="butt"  stroke-linejoin="miter"  stroke-miterlimit="10.0000" fill="none" />
</g>
<g transform="matrix(1.0000 0.0000 0.0000 1.0000 0.0000 0.0000)">
</g>
<g transform="matrix(0.0625 0.0000 0.0000 0.0625 0.0000 0.0000)">
<path d="M 1069.0000,6128.0000 L 7451.0000,6128.0000 " stroke="#000000" stroke-width="16.0000"  stroke-linecap="butt"  stroke-linejoin="miter"  stroke-miterlimit="10.0000" fill="none" />
</g>
<g transform="matrix(1.0000 0.0000 0.0000 1.0000 0.0000 0.0000)">
<text font-family="Arial" fill="#000000" style ="white-space:pre;" font-weight="400" text-anchor="start" x="72.0000" y="401.0000" font-size="14.0000" ><![CDATA[0.00]]></text>
<text font-family="Arial" fill="#000000" style ="white-space:pre;" font-weight="400" text-anchor="start" x="134.0000" y="401.0000" font-size="14.0000" ><![CDATA[0.01]]></text>
<text font-family="Arial" fill="#000000" style ="white-space:pre;" font-weight="400" text-anchor="start" x="197.0000" y="401.0000" font-size="14.0000" ><![CDATA[0.02]]></text>
<text font-family="Arial" fill="#000000" style ="white-space:pre;" font-weight="400" text-anchor="start" x="260.0000" y="401.0000" font-size="14.0000" ><![CDATA[0.03]]></text>
<text font-family="Arial" fill="#000000" style ="white-space:pre;" font-weight="400" text-anchor="start" x="322.0000" y="401.0000" font-size="14.0000" ><![CDATA[0.04]]></text>
<text font-family="Arial" fill="#000000" style ="white-space:pre;" font-weight="400" text-anchor="start" x="385.0000" y="401.0000" font-size="14.0000" ><![CDATA[0.05]]></text>
<text font-family="Arial" fill="#000000" style ="white-space:pre;" font-weight="400" text-anchor="start" x="448.0000" y="401.0000" font-size="14.0000" ><![CDATA[0.06]]></text>
<text font-family="Arial" fill="#000000" style ="white-space:pre;" font-weight="700" text-anchor="start" x="240.0000" y="424.0000" font-size="14.0000" ><![CDATA[Q value]]></text>
</g>
<g transform="matrix(0.0625 0.0000 0.0000 0.0625 0.0000 0.0000)">
<path d="M 1069.0000,975.0000 L 1069.0000,6128.0000 " stroke="#000000" stroke-width="16.0000"  stroke-linecap="butt"  stroke-linejoin="miter"  stroke-miterlimit="10.0000" fill="none" />
</g>
<g transform="matrix(1.0000 0.0000 0.0000 1.0000 0.0000 0.0000)">
<text font-family="Arial" fill="#000000" style ="white-space:pre;" font-weight="400" text-anchor="start" x="43.0000" y="387.0000" font-size="14.0000" ><![CDATA[0]]></text>
<text font-family="Arial" fill="#000000" style ="white-space:pre;" font-weight="400" text-anchor="start" x="39.0000" y="347.0000" font-size="14.0000" ><![CDATA[20]]></text>
<text font-family="Arial" fill="#000000" style ="white-space:pre;" font-weight="400" text-anchor="start" x="39.0000" y="307.0000" font-size="14.0000" ><![CDATA[40]]></text>
<text font-family="Arial" fill="#000000" style ="white-space:pre;" font-weight="400" text-anchor="start" x="39.0000" y="266.0000" font-size="14.0000" ><![CDATA[60]]></text>
<text font-family="Arial" fill="#000000" style ="white-space:pre;" font-weight="400" text-anchor="start" x="39.0000" y="226.0000" font-size="14.0000" ><![CDATA[80]]></text>
<text font-family="Arial" fill="#000000" style ="white-space:pre;" font-weight="400" text-anchor="start" x="35.0000" y="186.0000" font-size="14.0000" ><![CDATA[100]]></text>
<text font-family="Arial" fill="#000000" style ="white-space:pre;" font-weight="400" text-anchor="start" x="35.0000" y="145.0000" font-size="14.0000" ><![CDATA[120]]></text>
<text font-family="Arial" fill="#000000" style ="white-space:pre;" font-weight="400" text-anchor="start" x="35.0000" y="105.0000" font-size="14.0000" ><![CDATA[140]]></text>
<text font-family="Arial" fill="#000000" style ="white-space:pre;" font-weight="400" text-anchor="start" x="35.0000" y="65.0000" font-size="14.0000" ><![CDATA[160]]></text>
<text font-family="Arial" fill="#000000" transform="rotate(-90, 23.0000, 273.6000) translate(0, 12.6000)" style ="white-space:pre;" font-weight="700" text-anchor="start" x="23.0000" y="261.0000" font-size="14.0000" ><![CDATA[P]]></text>
<text font-family="Arial" fill="#000000" transform="rotate(-90, 23.0000, 264.6000) translate(0, 12.6000)" style ="white-space:pre;" font-weight="700" text-anchor="start" x="23.0000" y="252.0000" font-size="14.0000" ><![CDATA[e]]></text>
<text font-family="Arial" fill="#000000" transform="rotate(-90, 23.0000, 256.6000) translate(0, 12.6000)" style ="white-space:pre;" font-weight="700" text-anchor="start" x="23.0000" y="244.0000" font-size="14.0000" ><![CDATA[a]]></text>
<text font-family="Arial" fill="#000000" transform="rotate(-90, 23.0000, 248.6000) translate(0, 12.6000)" style ="white-space:pre;" font-weight="700" text-anchor="start" x="23.0000" y="236.0000" font-size="14.0000" ><![CDATA[k]]></text>
<text font-family="Arial" fill="#000000" transform="rotate(-90, 23.0000, 240.6000) translate(0, 12.6000)" style ="white-space:pre;" font-weight="700" text-anchor="start" x="23.0000" y="228.0000" font-size="14.0000" ><![CDATA[ ]]></text>
<text font-family="Arial" fill="#000000" transform="rotate(-90, 23.0000, 236.6000) translate(0, 12.6000)" style ="white-space:pre;" font-weight="700" text-anchor="start" x="23.0000" y="224.0000" font-size="14.0000" ><![CDATA[c]]></text>
<text font-family="Arial" fill="#000000" transform="rotate(-90, 23.0000, 228.6000) translate(0, 12.6000)" style ="white-space:pre;" font-weight="700" text-anchor="start" x="23.0000" y="216.0000" font-size="14.0000" ><![CDATA[o]]></text>
<text font-family="Arial" fill="#000000" transform="rotate(-90, 23.0000, 219.6000) translate(0, 12.6000)" style ="white-space:pre;" font-weight="700" text-anchor="start" x="23.0000" y="207.0000" font-size="14.0000" ><![CDATA[u]]></text>
<text font-family="Arial" fill="#000000" transform="rotate(-90, 23.0000, 210.6000) translate(0, 12.6000)" style ="white-space:pre;" font-weight="700" text-anchor="start" x="23.0000" y="198.0000" font-size="14.0000" ><![CDATA[n]]></text>
<text font-family="Arial" fill="#000000" transform="rotate(-90, 23.0000, 201.6000) translate(0, 12.6000)" style ="white-space:pre;" font-weight="700" text-anchor="start" x="23.0000" y="189.0000" font-size="14.0000" ><![CDATA[t]]></text>
<path d="M 66.0000,39.0000 L 66.0000,53.0000 L 154.0000,53.0000 L 154.0000,39.0000 L 66.0000,39.0000 Z" stroke-width="1px" stroke="#FFFFFF"  fill="#FFFFFF" />
<text font-family="Arial" fill="#000000" style ="white-space:pre;" font-weight="400" text-anchor="start" x="107.0000" y="51.0000" font-size="12.0000" ><![CDATA[Targets]]></text>
<path d="M 70.0000,43.0000 L 70.0000,50.0000 L 71.0000,50.0000 L 71.0000,43.0000 L 70.0000,43.0000 Z" stroke-width="1px" stroke="#02028C"  fill="#02028C" />
<path d="M 71.0000,43.0000 L 71.0000,50.0000 L 72.0000,50.0000 L 72.0000,43.0000 L 71.0000,43.0000 Z" stroke-width="1px" stroke="#F8F8FC"  fill="#F8F8FC" />
<path d="M 72.0000,43.0000 L 72.0000,50.0000 L 73.0000,50.0000 L 73.0000,43.0000 L 72.0000,43.0000 Z" stroke-width="1px" stroke="#EFEFF8"  fill="#EFEFF8" />
<path d="M 73.0000,43.0000 L 73.0000,50.0000 L 74.0000,50.0000 L 74.0000,43.0000 L 73.0000,43.0000 Z" stroke-width="1px" stroke="#E6E6F4"  fill="#E6E6F4" />
<path d="M 74.0000,43.0000 L 74.0000,50.0000 L 75.0000,50.0000 L 75.0000,43.0000 L 74.0000,43.0000 Z" stroke-width="1px" stroke="#DDDDF0"  fill="#DDDDF0" />
<path d="M 75.0000,43.0000 L 75.0000,50.0000 L 76.0000,50.0000 L 76.0000,43.0000 L 75.0000,43.0000 Z" stroke-width="1px" stroke="#D4D4EB"  fill="#D4D4EB" />
<path d="M 76.0000,43.0000 L 76.0000,50.0000 L 77.0000,50.0000 L 77.0000,43.0000 L 76.0000,43.0000 Z" stroke-width="1px" stroke="#CBCBE7"  fill="#CBCBE7" />
<path d="M 77.0000,43.0000 L 77.0000,50.0000 L 78.0000,50.0000 L 78.0000,43.0000 L 77.0000,43.0000 Z" stroke-width="1px" stroke="#C1C1E3"  fill="#C1C1E3" />
<path d="M 78.0000,43.0000 L 78.0000,50.0000 L 79.0000,50.0000 L 79.0000,43.0000 L 78.0000,43.0000 Z" stroke-width="1px" stroke="#B8B8DF"  fill="#B8B8DF" />
<path d="M 79.0000,43.0000 L 79.0000,50.0000 L 80.0000,50.0000 L 80.0000,43.0000 L 79.0000,43.0000 Z" stroke-width="1px" stroke="#AFAFDB"  fill="#AFAFDB" />
<path d="M 80.0000,43.0000 L 80.0000,50.0000 L 81.0000,50.0000 L 81.0000,43.0000 L 80.0000,43.0000 Z" stroke-width="1px" stroke="#A6A6D7"  fill="#A6A6D7" />
<path d="M 81.0000,43.0000 L 81.0000,50.0000 L 82.0000,50.0000 L 82.0000,43.0000 L 81.0000,43.0000 Z" stroke-width="1px" stroke="#9D9DD3"  fill="#9D9DD3" />
<path d="M 82.0000,43.0000 L 82.0000,50.0000 L 83.0000,50.0000 L 83.0000,43.0000 L 82.0000,43.0000 Z" stroke-width="1px" stroke="#9494CE"  fill="#9494CE" />
<path d="M 83.0000,43.0000 L 83.0000,50.0000 L 84.0000,50.0000 L 84.0000,43.0000 L 83.0000,43.0000 Z" stroke-width="1px" stroke="#8B8BCA"  fill="#8B8BCA" />
<path d="M 84.0000,43.0000 L 84.0000,50.0000 L 85.0000,50.0000 L 85.0000,43.0000 L 84.0000,43.0000 Z" stroke-width="1px" stroke="#8282C6"  fill="#8282C6" />
<path d="M 85.0000,43.0000 L 85.0000,50.0000 L 86.0000,50.0000 L 86.0000,43.0000 L 85.0000,43.0000 Z" stroke-width="1px" stroke="#7979C2"  fill="#7979C2" />
<path d="M 86.0000,43.0000 L 86.0000,50.0000 L 87.0000,50.0000 L 87.0000,43.0000 L 86.0000,43.0000 Z" stroke-width="1px" stroke="#7070BE"  fill="#7070BE" />
<path d="M 87.0000,43.0000 L 87.0000,50.0000 L 88.0000,50.0000 L 88.0000,43.0000 L 87.0000,43.0000 Z" stroke-width="1px" stroke="#6767BA"  fill="#6767BA" />
<path d="M 88.0000,43.0000 L 88.0000,50.0000 L 89.0000,50.0000 L 89.0000,43.0000 L 88.0000,43.0000 Z" stroke-width="1px" stroke="#5E5EB6"  fill="#5E5EB6" />
<path d="M 89.0000,43.0000 L 89.0000,50.0000 L 90.0000,50.0000 L 90.0000,43.0000 L 89.0000,43.0000 Z" stroke-width="1px" stroke="#5555B1"  fill="#5555B1" />
<path d="M 90.0000,43.0000 L 90.0000,50.0000 L 91.0000,50.0000 L 91.0000,43.0000 L 90.0000,43.0000 Z" stroke-width="1px" stroke="#4C4CAD"  fill="#4C4CAD" />
<path d="M 91.0000,43.0000 L 91.0000,50.0000 L 92.0000,50.0000 L 92.0000,43.0000 L 91.0000,43.0000 Z" stroke-width="1px" stroke="#4242A9"  fill="#4242A9" />
<path d="M 92.0000,43.0000 L 92.0000,50.0000 L 93.0000,50.0000 L 93.0000,43.0000 L 92.0000,43.0000 Z" stroke-width="1px" stroke="#3939A5"  fill="#3939A5" />
<path d="M 93.0000,43.0000 L 93.0000,50.0000 L 94.0000,50.0000 L 94.0000,43.0000 L 93.0000,43.0000 Z" stroke-width="1px" stroke="#3030A1"  fill="#3030A1" />
<path d="M 94.0000,43.0000 L 94.0000,50.0000 L 95.0000,50.0000 L 95.0000,43.0000 L 94.0000,43.0000 Z" stroke-width="1px" stroke="#27279D"  fill="#27279D" />
<path d="M 95.0000,43.0000 L 95.0000,50.0000 L 96.0000,50.0000 L 96.0000,43.0000 L 95.0000,43.0000 Z" stroke-width="1px" stroke="#1E1E99"  fill="#1E1E99" />
<path d="M 96.0000,43.0000 L 96.0000,50.0000 L 97.0000,50.0000 L 97.0000,43.0000 L 96.0000,43.0000 Z" stroke-width="1px" stroke="#151594"  fill="#151594" />
<path d="M 97.0000,43.0000 L 97.0000,50.0000 L 98.0000,50.0000 L 98.0000,43.0000 L 97.0000,43.0000 Z" stroke-width="1px" stroke="#0C0C90"  fill="#0C0C90" />
</g>
<g transform="matrix(0.0625 0.0000 0.0000 0.0625 0.0000 0.0000)">
<path d="M 1125.0000,695.0000 L 1573.0000,695.0000 L 1573.0000,807.0000 L 1125.0000,807.0000 Z" stroke="#000000" stroke-width="16.0000"  stroke-linecap="butt"  stroke-linejoin="miter"  stroke-miterlimit="10.0000" fill="none" />
</g>
<g transform="matrix(1.0000 0.0000 0.0000 1.0000 0.0000 0.0000)">
</g>
<g transform="matrix(0.0625 0.0000 0.0000 0.0625 0.0000 0.0000)">
<path d="M 1069.0000,639.0000 L 2475.0000,639.0000 L 2475.0000,863.0000 L 1069.0000,863.0000 Z" stroke="#000000" stroke-width="16.0000"  stroke-linecap="butt"  stroke-linejoin="miter"  stroke-miterlimit="10.0000" fill="none" />
</g>
<g transform="matrix(1.0000 0.0000 0.0000 1.0000 0.0000 0.0000)">
</g>
</g>
</svg>
