<?xml version="1.0"  encoding="UTF-8" standalone="no"?>
<svg version="1.1" xmlns="http://www.w3.org/2000/svg" xmlns:xlink="http://www.w3.org/1999/xlink" width="512.0000" height="443.0000">
<g transform="translate(-0.0000, -0.0000)">
<g transform="matrix(0.0625 0.0000 0.0000 0.0625 0.0000 0.0000)">
<path d="M 0.0000,0.0000 L 0.0000,7088.0000 L 7872.0000,7088.0000 L 7872.0000,0.0000 L 0.0000,0.0000 Z" stroke-width="1px" stroke="#FFFFFF"  fill="#FFFFFF" />
</g>
<g transform="matrix(1.0000 0.0000 0.0000 1.0000 0.0000 0.0000)">
</g>
<g transform="matrix(0.0625 0.0000 0.0000 0.0625 0.0000 0.0000)">
<path d="M 0.0000,0.0000 L 0.0000,7088.0000 L 7872.0000,7088.0000 L 7872.0000,0.0000 L 0.0000,0.0000 Z" stroke-width="1px" stroke="#FFFFFF"  fill="#FFFFFF" />
</g>
<g transform="matrix(1.0000 0.0000 0.0000 1.0000 0.0000 0.0000)">
<text font-family="Arial" fill="#000000" style ="white-space:pre;" font-weight="700" text-anchor="start" x="145.0000" y="25.0000" font-size="16.0000" ><![CDATA[P values of target peptides]]></text>
<path d="M 66.0000,74.0000 L 66.0000,383.0000 L 469.0000,383.0000 L 469.0000,74.0000 L 66.0000,74.0000 Z" stroke-width="1px" stroke="#FFFFFF"  fill="#FFFFFF" />
<defs><clipPath id="clip-41"><path d="M 67.0000,75.0000 L 470.0000,75.0000 L 470.0000,383.0000 L 67.0000,383.0000 L 67.0000,75.0000 Z Z" /></clipPath></defs>
</g>
<g transform="matrix(0.0625 0.0000 0.0000 0.0625 0.0000 0.0000)">
<path  clip-path="url(#clip-41)" d="M 752.0000,6096.0000 L 8160.0000,6096.0000 " stroke="#000000" stroke-width="48.0000"  stroke-linecap="butt"  stroke-linejoin="miter"  stroke-miterlimit="10.0000" fill="none" />
</g>
<g transform="matrix(1.0000 0.0000 0.0000 1.0000 0.0000 0.0000)">
<path d="M 96.0000,126.0000 L 96.0000,383.0000 L 97.0000,383.0000 L 97.0000,126.0000 L 96.0000,126.0000 Z" stroke-width="1px" stroke="#06068E"  fill="#06068E" />
<path d="M 97.0000,126.0000 L 97.0000,383.0000 L 98.0000,383.0000 L 98.0000,126.0000 L 97.0000,126.0000 Z" stroke-width="1px" stroke="#DADAEF"  fill="#DADAEF" />
<path d="M 98.0000,126.0000 L 98.0000,383.0000 L 99.0000,383.0000 L 99.0000,126.0000 L 98.0000,126.0000 Z" stroke-width="1px" stroke="#B0B0DB"  fill="#B0B0DB" />
<path d="M 99.0000,126.0000 L 99.0000,383.0000 L 100.0000,383.0000 L 100.0000,126.0000 L 99.0000,126.0000 Z" stroke-width="1px" stroke="#8686C8"  fill="#8686C8" />
<path d="M 100.0000,126.0000 L 100.0000,383.0000 L 101.0000,383.0000 L 101.0000,126.0000 L 100.0000,126.0000 Z" stroke-width="1px" stroke="#5B5BB5"  fill="#5B5BB5" />
<path d="M 101.0000,126.0000 L 101.0000,383.0000 L 102.0000,383.0000 L 102.0000,126.0000 L 101.0000,126.0000 Z" stroke-width="1px" stroke="#3131A1"  fill="#3131A1" />
<defs><clipPath id="clip-18467"><path d="M 67.0000,75.0000 L 470.0000,75.0000 L 470.0000,383.0000 L 67.0000,383.0000 L 67.0000,75.0000 Z Z" /></clipPath></defs>
</g>
<g transform="matrix(0.0625 0.0000 0.0000 0.0625 0.0000 0.0000)">
<path  clip-path="url(#clip-18467)" d="M 1539.0000,2020.0000 L 1635.0000,2020.0000 L 1635.0000,6128.0000 L 1539.0000,6128.0000 Z" stroke="#000000" stroke-width="16.0000"  stroke-linecap="butt"  stroke-linejoin="miter"  stroke-miterlimit="10.0000" fill="none" />
</g>
<g transform="matrix(1.0000 0.0000 0.0000 1.0000 0.0000 0.0000)">
<path d="M 115.0000,379.0000 L 115.0000,383.0000 L 116.0000,383.0000 L 116.0000,379.0000 L 115.0000,379.0000 Z" stroke-width="1px" stroke="#0E0E91"  fill="#0E0E91" />
<path d="M 116.0000,379.0000 L 116.0000,383.0000 L 117.0000,383.0000 L 117.0000,379.0000 L 116.0000,379.0000 Z" stroke-width="1px" stroke="#E2E2F2"  fill="#E2E2F2" />
<path d="M 117.0000,379.0000 L 117.0000,383.0000 L 118.0000,383.0000 L 118.0000,379.0000 L 117.0000,379.0000 Z" stroke-width="1px" stroke="#B8B8DF"  fill="#B8B8DF" />
<path d="M 118.0000,379.0000 L 118.0000,383.0000 L 119.0000,383.0000 L 119.0000,379.0000 L 118.0000,379.0000 Z" stroke-width="1px" stroke="#8D8DCB"  fill="#8D8DCB" />
<path d="M 119.0000,379.0000 L 119.0000,383.0000 L 120.0000,383.0000 L 120.0000,379.0000 L 119.0000,379.0000 Z" stroke-width="1px" stroke="#6363B8"  fill="#6363B8" />
<path d="M 120.0000,379.0000 L 120.0000,383.0000 L 121.0000,383.0000 L 121.0000,379.0000 L 120.0000,379.0000 Z" stroke-width="1px" stroke="#3939A5"  fill="#3939A5" />
<defs><clipPath id="clip-6334"><path d="M 67.0000,75.0000 L 470.0000,75.0000 L 470.0000,383.0000 L 67.0000,383.0000 L 67.0000,75.0000 Z Z" /></clipPath></defs>
</g>
<g transform="matrix(0.0625 0.0000 0.0000 0.0625 0.0000 0.0000)">
<path  clip-path="url(#clip-6334)" d="M 1846.0000,6074.0000 L 1942.0000,6074.0000 L 1942.0000,6128.0000 L 1846.0000,6128.0000 Z" stroke="#000000" stroke-width="16.0000"  stroke-linecap="butt"  stroke-linejoin="miter"  stroke-miterlimit="10.0000" fill="none" />
</g>
<g transform="matrix(1.0000 0.0000 0.0000 1.0000 0.0000 0.0000)">
<path d="M 134.0000,381.0000 L 134.0000,383.0000 L 135.0000,383.0000 L 135.0000,381.0000 L 134.0000,381.0000 Z" stroke-width="1px" stroke="#161695"  fill="#161695" />
<path d="M 135.0000,381.0000 L 135.0000,383.0000 L 136.0000,383.0000 L 136.0000,381.0000 L 135.0000,381.0000 Z" stroke-width="1px" stroke="#EAEAF6"  fill="#EAEAF6" />
<path d="M 136.0000,381.0000 L 136.0000,383.0000 L 137.0000,383.0000 L 137.0000,381.0000 L 136.0000,381.0000 Z" stroke-width="1px" stroke="#BFBFE2"  fill="#BFBFE2" />
<path d="M 137.0000,381.0000 L 137.0000,383.0000 L 138.0000,383.0000 L 138.0000,381.0000 L 137.0000,381.0000 Z" stroke-width="1px" stroke="#9595CF"  fill="#9595CF" />
<path d="M 138.0000,381.0000 L 138.0000,383.0000 L 139.0000,383.0000 L 139.0000,381.0000 L 138.0000,381.0000 Z" stroke-width="1px" stroke="#6B6BBC"  fill="#6B6BBC" />
<path d="M 139.0000,381.0000 L 139.0000,383.0000 L 140.0000,383.0000 L 140.0000,381.0000 L 139.0000,381.0000 Z" stroke-width="1px" stroke="#4040A8"  fill="#4040A8" />
<defs><clipPath id="clip-26500"><path d="M 67.0000,75.0000 L 470.0000,75.0000 L 470.0000,383.0000 L 67.0000,383.0000 L 67.0000,75.0000 Z Z" /></clipPath></defs>
</g>
<g transform="matrix(0.0625 0.0000 0.0000 0.0625 0.0000 0.0000)">
<path  clip-path="url(#clip-26500)" d="M 2153.0000,6101.0000 L 2249.0000,6101.0000 L 2249.0000,6128.0000 L 2153.0000,6128.0000 Z" stroke="#000000" stroke-width="16.0000"  stroke-linecap="butt"  stroke-linejoin="miter"  stroke-miterlimit="10.0000" fill="none" />
</g>
<g transform="matrix(1.0000 0.0000 0.0000 1.0000 0.0000 0.0000)">
<path d="M 153.0000,377.0000 L 153.0000,383.0000 L 154.0000,383.0000 L 154.0000,377.0000 L 153.0000,377.0000 Z" stroke-width="1px" stroke="#1E1E99"  fill="#1E1E99" />
<path d="M 154.0000,377.0000 L 154.0000,383.0000 L 155.0000,383.0000 L 155.0000,377.0000 L 154.0000,377.0000 Z" stroke-width="1px" stroke="#F2F2F9"  fill="#F2F2F9" />
<path d="M 155.0000,377.0000 L 155.0000,383.0000 L 156.0000,383.0000 L 156.0000,377.0000 L 155.0000,377.0000 Z" stroke-width="1px" stroke="#C7C7E6"  fill="#C7C7E6" />
<path d="M 156.0000,377.0000 L 156.0000,383.0000 L 157.0000,383.0000 L 157.0000,377.0000 L 156.0000,377.0000 Z" stroke-width="1px" stroke="#9D9DD3"  fill="#9D9DD3" />
<path d="M 157.0000,377.0000 L 157.0000,383.0000 L 158.0000,383.0000 L 158.0000,377.0000 L 157.0000,377.0000 Z" stroke-width="1px" stroke="#7373BF"  fill="#7373BF" />
<path d="M 158.0000,377.0000 L 158.0000,383.0000 L 159.0000,383.0000 L 159.0000,377.0000 L 158.0000,377.0000 Z" stroke-width="1px" stroke="#4848AC"  fill="#4848AC" />
<defs><clipPath id="clip-19169"><path d="M 67.0000,75.0000 L 470.0000,75.0000 L 470.0000,383.0000 L 67.0000,383.0000 L 67.0000,75.0000 Z Z" /></clipPath></defs>
</g>
<g transform="matrix(0.0625 0.0000 0.0000 0.0625 0.0000 0.0000)">
<path  clip-path="url(#clip-19169)" d="M 2460.0000,6046.0000 L 2556.0000,6046.0000 L 2556.0000,6128.0000 L 2460.0000,6128.0000 Z" stroke="#000000" stroke-width="16.0000"  stroke-linecap="butt"  stroke-linejoin="miter"  stroke-miterlimit="10.0000" fill="none" />
</g>
<g transform="matrix(1.0000 0.0000 0.0000 1.0000 0.0000 0.0000)">
<path d="M 172.0000,381.0000 L 172.0000,383.0000 L 173.0000,383.0000 L 173.0000,381.0000 L 172.0000,381.0000 Z" stroke-width="1px" stroke="#26269C"  fill="#26269C" />
<path d="M 173.0000,381.0000 L 173.0000,383.0000 L 174.0000,383.0000 L 174.0000,381.0000 L 173.0000,381.0000 Z" stroke-width="1px" stroke="#FAFAFD"  fill="#FAFAFD" />
<path d="M 174.0000,381.0000 L 174.0000,383.0000 L 175.0000,383.0000 L 175.0000,381.0000 L 174.0000,381.0000 Z" stroke-width="1px" stroke="#CFCFE9"  fill="#CFCFE9" />
<path d="M 175.0000,381.0000 L 175.0000,383.0000 L 176.0000,383.0000 L 176.0000,381.0000 L 175.0000,381.0000 Z" stroke-width="1px" stroke="#A4A4D6"  fill="#A4A4D6" />
<path d="M 176.0000,381.0000 L 176.0000,383.0000 L 177.0000,383.0000 L 177.0000,381.0000 L 176.0000,381.0000 Z" stroke-width="1px" stroke="#7B7BC3"  fill="#7B7BC3" />
<path d="M 177.0000,381.0000 L 177.0000,383.0000 L 178.0000,383.0000 L 178.0000,381.0000 L 177.0000,381.0000 Z" stroke-width="1px" stroke="#5050AF"  fill="#5050AF" />
<defs><clipPath id="clip-15724"><path d="M 67.0000,75.0000 L 470.0000,75.0000 L 470.0000,383.0000 L 67.0000,383.0000 L 67.0000,75.0000 Z Z" /></clipPath></defs>
</g>
<g transform="matrix(0.0625 0.0000 0.0000 0.0625 0.0000 0.0000)">
<path  clip-path="url(#clip-15724)" d="M 2767.0000,6101.0000 L 2863.0000,6101.0000 L 2863.0000,6128.0000 L 2767.0000,6128.0000 Z" stroke="#000000" stroke-width="16.0000"  stroke-linecap="butt"  stroke-linejoin="miter"  stroke-miterlimit="10.0000" fill="none" />
</g>
<g transform="matrix(1.0000 0.0000 0.0000 1.0000 0.0000 0.0000)">
<path d="M 192.0000,379.0000 L 192.0000,383.0000 L 193.0000,383.0000 L 193.0000,379.0000 L 192.0000,379.0000 Z" stroke-width="1px" stroke="#03038C"  fill="#03038C" />
<path d="M 193.0000,379.0000 L 193.0000,383.0000 L 194.0000,383.0000 L 194.0000,379.0000 L 193.0000,379.0000 Z" stroke-width="1px" stroke="#D7D7ED"  fill="#D7D7ED" />
<path d="M 194.0000,379.0000 L 194.0000,383.0000 L 195.0000,383.0000 L 195.0000,379.0000 L 194.0000,379.0000 Z" stroke-width="1px" stroke="#ACACDA"  fill="#ACACDA" />
<path d="M 195.0000,379.0000 L 195.0000,383.0000 L 196.0000,383.0000 L 196.0000,379.0000 L 195.0000,379.0000 Z" stroke-width="1px" stroke="#8383C6"  fill="#8383C6" />
<path d="M 196.0000,379.0000 L 196.0000,383.0000 L 197.0000,383.0000 L 197.0000,379.0000 L 196.0000,379.0000 Z" stroke-width="1px" stroke="#5858B3"  fill="#5858B3" />
<path d="M 197.0000,379.0000 L 197.0000,383.0000 L 198.0000,383.0000 L 198.0000,379.0000 L 197.0000,379.0000 Z" stroke-width="1px" stroke="#2D2DA0"  fill="#2D2DA0" />
<defs><clipPath id="clip-11478"><path d="M 67.0000,75.0000 L 470.0000,75.0000 L 470.0000,383.0000 L 67.0000,383.0000 L 67.0000,75.0000 Z Z" /></clipPath></defs>
</g>
<g transform="matrix(0.0625 0.0000 0.0000 0.0625 0.0000 0.0000)">
<path  clip-path="url(#clip-11478)" d="M 3074.0000,6074.0000 L 3169.0000,6074.0000 L 3169.0000,6128.0000 L 3074.0000,6128.0000 Z" stroke="#000000" stroke-width="16.0000"  stroke-linecap="butt"  stroke-linejoin="miter"  stroke-miterlimit="10.0000" fill="none" />
</g>
<g transform="matrix(1.0000 0.0000 0.0000 1.0000 0.0000 0.0000)">
<path d="M 211.0000,379.0000 L 211.0000,383.0000 L 212.0000,383.0000 L 212.0000,379.0000 L 211.0000,379.0000 Z" stroke-width="1px" stroke="#0B0B90"  fill="#0B0B90" />
<path d="M 212.0000,379.0000 L 212.0000,383.0000 L 213.0000,383.0000 L 213.0000,379.0000 L 212.0000,379.0000 Z" stroke-width="1px" stroke="#DFDFF1"  fill="#DFDFF1" />
<path d="M 213.0000,379.0000 L 213.0000,383.0000 L 214.0000,383.0000 L 214.0000,379.0000 L 213.0000,379.0000 Z" stroke-width="1px" stroke="#B4B4DD"  fill="#B4B4DD" />
<path d="M 214.0000,379.0000 L 214.0000,383.0000 L 215.0000,383.0000 L 215.0000,379.0000 L 214.0000,379.0000 Z" stroke-width="1px" stroke="#8A8ACA"  fill="#8A8ACA" />
<path d="M 215.0000,379.0000 L 215.0000,383.0000 L 216.0000,383.0000 L 216.0000,379.0000 L 215.0000,379.0000 Z" stroke-width="1px" stroke="#6060B7"  fill="#6060B7" />
<path d="M 216.0000,379.0000 L 216.0000,383.0000 L 217.0000,383.0000 L 217.0000,379.0000 L 216.0000,379.0000 Z" stroke-width="1px" stroke="#3535A3"  fill="#3535A3" />
<defs><clipPath id="clip-29358"><path d="M 67.0000,75.0000 L 470.0000,75.0000 L 470.0000,383.0000 L 67.0000,383.0000 L 67.0000,75.0000 Z Z" /></clipPath></defs>
</g>
<g transform="matrix(0.0625 0.0000 0.0000 0.0625 0.0000 0.0000)">
<path  clip-path="url(#clip-29358)" d="M 3381.0000,6074.0000 L 3476.0000,6074.0000 L 3476.0000,6128.0000 L 3381.0000,6128.0000 Z" stroke="#000000" stroke-width="16.0000"  stroke-linecap="butt"  stroke-linejoin="miter"  stroke-miterlimit="10.0000" fill="none" />
</g>
<g transform="matrix(1.0000 0.0000 0.0000 1.0000 0.0000 0.0000)">
<path d="M 249.0000,377.0000 L 249.0000,383.0000 L 250.0000,383.0000 L 250.0000,377.0000 L 249.0000,377.0000 Z" stroke-width="1px" stroke="#1A1A97"  fill="#1A1A97" />
<path d="M 250.0000,377.0000 L 250.0000,383.0000 L 251.0000,383.0000 L 251.0000,377.0000 L 250.0000,377.0000 Z" stroke-width="1px" stroke="#EFEFF8"  fill="#EFEFF8" />
<path d="M 251.0000,377.0000 L 251.0000,383.0000 L 252.0000,383.0000 L 252.0000,377.0000 L 251.0000,377.0000 Z" stroke-width="1px" stroke="#C4C4E4"  fill="#C4C4E4" />
<path d="M 252.0000,377.0000 L 252.0000,383.0000 L 253.0000,383.0000 L 253.0000,377.0000 L 252.0000,377.0000 Z" stroke-width="1px" stroke="#9999D1"  fill="#9999D1" />
<path d="M 253.0000,377.0000 L 253.0000,383.0000 L 254.0000,383.0000 L 254.0000,377.0000 L 253.0000,377.0000 Z" stroke-width="1px" stroke="#7070BE"  fill="#7070BE" />
<path d="M 254.0000,377.0000 L 254.0000,383.0000 L 255.0000,383.0000 L 255.0000,377.0000 L 254.0000,377.0000 Z" stroke-width="1px" stroke="#4545AA"  fill="#4545AA" />
<defs><clipPath id="clip-26962"><path d="M 67.0000,75.0000 L 470.0000,75.0000 L 470.0000,383.0000 L 67.0000,383.0000 L 67.0000,75.0000 Z Z" /></clipPath></defs>
</g>
<g transform="matrix(0.0625 0.0000 0.0000 0.0625 0.0000 0.0000)">
<path  clip-path="url(#clip-26962)" d="M 3994.0000,6046.0000 L 4090.0000,6046.0000 L 4090.0000,6128.0000 L 3994.0000,6128.0000 Z" stroke="#000000" stroke-width="16.0000"  stroke-linecap="butt"  stroke-linejoin="miter"  stroke-miterlimit="10.0000" fill="none" />
</g>
<g transform="matrix(1.0000 0.0000 0.0000 1.0000 0.0000 0.0000)">
<path d="M 268.0000,379.0000 L 268.0000,383.0000 L 269.0000,383.0000 L 269.0000,379.0000 L 268.0000,379.0000 Z" stroke-width="1px" stroke="#22229B"  fill="#22229B" />
<path d="M 269.0000,379.0000 L 269.0000,383.0000 L 270.0000,383.0000 L 270.0000,379.0000 L 269.0000,379.0000 Z" stroke-width="1px" stroke="#F7F7FB"  fill="#F7F7FB" />
<path d="M 270.0000,379.0000 L 270.0000,383.0000 L 271.0000,383.0000 L 271.0000,379.0000 L 270.0000,379.0000 Z" stroke-width="1px" stroke="#CCCCE8"  fill="#CCCCE8" />
<path d="M 271.0000,379.0000 L 271.0000,383.0000 L 272.0000,383.0000 L 272.0000,379.0000 L 271.0000,379.0000 Z" stroke-width="1px" stroke="#A1A1D5"  fill="#A1A1D5" />
<path d="M 272.0000,379.0000 L 272.0000,383.0000 L 273.0000,383.0000 L 273.0000,379.0000 L 272.0000,379.0000 Z" stroke-width="1px" stroke="#7878C1"  fill="#7878C1" />
<path d="M 273.0000,379.0000 L 273.0000,383.0000 L 274.0000,383.0000 L 274.0000,379.0000 L 273.0000,379.0000 Z" stroke-width="1px" stroke="#4D4DAE"  fill="#4D4DAE" />
<defs><clipPath id="clip-24464"><path d="M 67.0000,75.0000 L 470.0000,75.0000 L 470.0000,383.0000 L 67.0000,383.0000 L 67.0000,75.0000 Z Z" /></clipPath></defs>
</g>
<g transform="matrix(0.0625 0.0000 0.0000 0.0625 0.0000 0.0000)">
<path  clip-path="url(#clip-24464)" d="M 4301.0000,6074.0000 L 4397.0000,6074.0000 L 4397.0000,6128.0000 L 4301.0000,6128.0000 Z" stroke="#000000" stroke-width="16.0000"  stroke-linecap="butt"  stroke-linejoin="miter"  stroke-miterlimit="10.0000" fill="none" />
</g>
<g transform="matrix(1.0000 0.0000 0.0000 1.0000 0.0000 0.0000)">
<path d="M 288.0000,377.0000 L 288.0000,383.0000 L 289.0000,383.0000 L 289.0000,377.0000 L 288.0000,377.0000 Z" stroke-width="1px" stroke="#FFFFFF"  fill="#FFFFFF" />
<path d="M 289.0000,377.0000 L 289.0000,383.0000 L 290.0000,383.0000 L 290.0000,377.0000 L 289.0000,377.0000 Z" stroke-width="1px" stroke="#D4D4EB"  fill="#D4D4EB" />
<path d="M 290.0000,377.0000 L 290.0000,383.0000 L 291.0000,383.0000 L 291.0000,377.0000 L 290.0000,377.0000 Z" stroke-width="1px" stroke="#A9A9D8"  fill="#A9A9D8" />
<path d="M 291.0000,377.0000 L 291.0000,383.0000 L 292.0000,383.0000 L 292.0000,377.0000 L 291.0000,377.0000 Z" stroke-width="1px" stroke="#7F7FC5"  fill="#7F7FC5" />
<path d="M 292.0000,377.0000 L 292.0000,383.0000 L 293.0000,383.0000 L 293.0000,377.0000 L 292.0000,377.0000 Z" stroke-width="1px" stroke="#5555B1"  fill="#5555B1" />
<path d="M 293.0000,377.0000 L 293.0000,383.0000 L 294.0000,383.0000 L 294.0000,377.0000 L 293.0000,377.0000 Z" stroke-width="1px" stroke="#2A2A9E"  fill="#2A2A9E" />
<defs><clipPath id="clip-5705"><path d="M 67.0000,75.0000 L 470.0000,75.0000 L 470.0000,383.0000 L 67.0000,383.0000 L 67.0000,75.0000 Z Z" /></clipPath></defs>
</g>
<g transform="matrix(0.0625 0.0000 0.0000 0.0625 0.0000 0.0000)">
<path  clip-path="url(#clip-5705)" d="M 4608.0000,6046.0000 L 4704.0000,6046.0000 L 4704.0000,6128.0000 L 4608.0000,6128.0000 Z" stroke="#000000" stroke-width="16.0000"  stroke-linecap="butt"  stroke-linejoin="miter"  stroke-miterlimit="10.0000" fill="none" />
</g>
<g transform="matrix(1.0000 0.0000 0.0000 1.0000 0.0000 0.0000)">
<path d="M 345.0000,381.0000 L 345.0000,383.0000 L 346.0000,383.0000 L 346.0000,381.0000 L 345.0000,381.0000 Z" stroke-width="1px" stroke="#171796"  fill="#171796" />
<path d="M 346.0000,381.0000 L 346.0000,383.0000 L 347.0000,383.0000 L 347.0000,381.0000 L 346.0000,381.0000 Z" stroke-width="1px" stroke="#EBEBF6"  fill="#EBEBF6" />
<path d="M 347.0000,381.0000 L 347.0000,383.0000 L 348.0000,383.0000 L 348.0000,381.0000 L 347.0000,381.0000 Z" stroke-width="1px" stroke="#C1C1E3"  fill="#C1C1E3" />
<path d="M 348.0000,381.0000 L 348.0000,383.0000 L 349.0000,383.0000 L 349.0000,381.0000 L 348.0000,381.0000 Z" stroke-width="1px" stroke="#9696CF"  fill="#9696CF" />
<path d="M 349.0000,381.0000 L 349.0000,383.0000 L 350.0000,383.0000 L 350.0000,381.0000 L 349.0000,381.0000 Z" stroke-width="1px" stroke="#6C6CBC"  fill="#6C6CBC" />
<path d="M 350.0000,381.0000 L 350.0000,383.0000 L 351.0000,383.0000 L 351.0000,381.0000 L 350.0000,381.0000 Z" stroke-width="1px" stroke="#4242A9"  fill="#4242A9" />
<defs><clipPath id="clip-28145"><path d="M 67.0000,75.0000 L 470.0000,75.0000 L 470.0000,383.0000 L 67.0000,383.0000 L 67.0000,75.0000 Z Z" /></clipPath></defs>
</g>
<g transform="matrix(0.0625 0.0000 0.0000 0.0625 0.0000 0.0000)">
<path  clip-path="url(#clip-28145)" d="M 5529.0000,6101.0000 L 5625.0000,6101.0000 L 5625.0000,6128.0000 L 5529.0000,6128.0000 Z" stroke="#000000" stroke-width="16.0000"  stroke-linecap="butt"  stroke-linejoin="miter"  stroke-miterlimit="10.0000" fill="none" />
</g>
<g transform="matrix(1.0000 0.0000 0.0000 1.0000 0.0000 0.0000)">
<path d="M 89.0000,365.0000 L 89.0000,383.0000 L 90.0000,383.0000 L 90.0000,365.0000 L 89.0000,365.0000 Z" stroke-width="1px" stroke="#FFFDFD"  fill="#FFFDFD" />
<path d="M 90.0000,365.0000 L 90.0000,383.0000 L 91.0000,383.0000 L 91.0000,365.0000 L 90.0000,365.0000 Z" stroke-width="1px" stroke="#FFDED2"  fill="#FFDED2" />
<path d="M 91.0000,365.0000 L 91.0000,383.0000 L 92.0000,383.0000 L 92.0000,365.0000 L 91.0000,365.0000 Z" stroke-width="1px" stroke="#FFBFA7"  fill="#FFBFA7" />
<path d="M 92.0000,365.0000 L 92.0000,383.0000 L 93.0000,383.0000 L 93.0000,365.0000 L 92.0000,365.0000 Z" stroke-width="1px" stroke="#FFA07E"  fill="#FFA07E" />
<path d="M 93.0000,365.0000 L 93.0000,383.0000 L 94.0000,383.0000 L 94.0000,365.0000 L 93.0000,365.0000 Z" stroke-width="1px" stroke="#FF8153"  fill="#FF8153" />
<path d="M 94.0000,365.0000 L 94.0000,383.0000 L 95.0000,383.0000 L 95.0000,365.0000 L 94.0000,365.0000 Z" stroke-width="1px" stroke="#FF6228"  fill="#FF6228" />
<defs><clipPath id="clip-23281"><path d="M 67.0000,75.0000 L 470.0000,75.0000 L 470.0000,383.0000 L 67.0000,383.0000 L 67.0000,75.0000 Z Z" /></clipPath></defs>
</g>
<g transform="matrix(0.0625 0.0000 0.0000 0.0625 0.0000 0.0000)">
<path  clip-path="url(#clip-23281)" d="M 1424.0000,5855.0000 L 1520.0000,5855.0000 L 1520.0000,6128.0000 L 1424.0000,6128.0000 Z" stroke="#000000" stroke-width="16.0000"  stroke-linecap="butt"  stroke-linejoin="miter"  stroke-miterlimit="10.0000" fill="none" />
</g>
<g transform="matrix(1.0000 0.0000 0.0000 1.0000 0.0000 0.0000)">
<path d="M 108.0000,371.0000 L 108.0000,383.0000 L 109.0000,383.0000 L 109.0000,371.0000 L 108.0000,371.0000 Z" stroke-width="1px" stroke="#FF4906"  fill="#FF4906" />
<path d="M 109.0000,371.0000 L 109.0000,383.0000 L 110.0000,383.0000 L 110.0000,371.0000 L 109.0000,371.0000 Z" stroke-width="1px" stroke="#FFE4DA"  fill="#FFE4DA" />
<path d="M 110.0000,371.0000 L 110.0000,383.0000 L 111.0000,383.0000 L 111.0000,371.0000 L 110.0000,371.0000 Z" stroke-width="1px" stroke="#FFC5AF"  fill="#FFC5AF" />
<path d="M 111.0000,371.0000 L 111.0000,383.0000 L 112.0000,383.0000 L 112.0000,371.0000 L 111.0000,371.0000 Z" stroke-width="1px" stroke="#FFA685"  fill="#FFA685" />
<path d="M 112.0000,371.0000 L 112.0000,383.0000 L 113.0000,383.0000 L 113.0000,371.0000 L 112.0000,371.0000 Z" stroke-width="1px" stroke="#FF875B"  fill="#FF875B" />
<path d="M 113.0000,371.0000 L 113.0000,383.0000 L 114.0000,383.0000 L 114.0000,371.0000 L 113.0000,371.0000 Z" stroke-width="1px" stroke="#FF6830"  fill="#FF6830" />
<defs><clipPath id="clip-16827"><path d="M 67.0000,75.0000 L 470.0000,75.0000 L 470.0000,383.0000 L 67.0000,383.0000 L 67.0000,75.0000 Z Z" /></clipPath></defs>
</g>
<g transform="matrix(0.0625 0.0000 0.0000 0.0625 0.0000 0.0000)">
<path  clip-path="url(#clip-16827)" d="M 1731.0000,5937.0000 L 1827.0000,5937.0000 L 1827.0000,6128.0000 L 1731.0000,6128.0000 Z" stroke="#000000" stroke-width="16.0000"  stroke-linecap="butt"  stroke-linejoin="miter"  stroke-miterlimit="10.0000" fill="none" />
</g>
<g transform="matrix(1.0000 0.0000 0.0000 1.0000 0.0000 0.0000)">
<path d="M 127.0000,367.0000 L 127.0000,383.0000 L 128.0000,383.0000 L 128.0000,367.0000 L 127.0000,367.0000 Z" stroke-width="1px" stroke="#FF4F0E"  fill="#FF4F0E" />
<path d="M 128.0000,367.0000 L 128.0000,383.0000 L 129.0000,383.0000 L 129.0000,367.0000 L 128.0000,367.0000 Z" stroke-width="1px" stroke="#FFEAE2"  fill="#FFEAE2" />
<path d="M 129.0000,367.0000 L 129.0000,383.0000 L 130.0000,383.0000 L 130.0000,367.0000 L 129.0000,367.0000 Z" stroke-width="1px" stroke="#FFCBB7"  fill="#FFCBB7" />
<path d="M 130.0000,367.0000 L 130.0000,383.0000 L 131.0000,383.0000 L 131.0000,367.0000 L 130.0000,367.0000 Z" stroke-width="1px" stroke="#FFAC8D"  fill="#FFAC8D" />
<path d="M 131.0000,367.0000 L 131.0000,383.0000 L 132.0000,383.0000 L 132.0000,367.0000 L 131.0000,367.0000 Z" stroke-width="1px" stroke="#FF8D63"  fill="#FF8D63" />
<path d="M 132.0000,367.0000 L 132.0000,383.0000 L 133.0000,383.0000 L 133.0000,367.0000 L 132.0000,367.0000 Z" stroke-width="1px" stroke="#FF6E38"  fill="#FF6E38" />
<defs><clipPath id="clip-9961"><path d="M 67.0000,75.0000 L 470.0000,75.0000 L 470.0000,383.0000 L 67.0000,383.0000 L 67.0000,75.0000 Z Z" /></clipPath></defs>
</g>
<g transform="matrix(0.0625 0.0000 0.0000 0.0625 0.0000 0.0000)">
<path  clip-path="url(#clip-9961)" d="M 2038.0000,5882.0000 L 2133.0000,5882.0000 L 2133.0000,6128.0000 L 2038.0000,6128.0000 Z" stroke="#000000" stroke-width="16.0000"  stroke-linecap="butt"  stroke-linejoin="miter"  stroke-miterlimit="10.0000" fill="none" />
</g>
<g transform="matrix(1.0000 0.0000 0.0000 1.0000 0.0000 0.0000)">
<path d="M 146.0000,376.0000 L 146.0000,383.0000 L 147.0000,383.0000 L 147.0000,376.0000 L 146.0000,376.0000 Z" stroke-width="1px" stroke="#FF5516"  fill="#FF5516" />
<path d="M 147.0000,376.0000 L 147.0000,383.0000 L 148.0000,383.0000 L 148.0000,376.0000 L 147.0000,376.0000 Z" stroke-width="1px" stroke="#FFEFEA"  fill="#FFEFEA" />
<path d="M 148.0000,376.0000 L 148.0000,383.0000 L 149.0000,383.0000 L 149.0000,376.0000 L 148.0000,376.0000 Z" stroke-width="1px" stroke="#FFD1BF"  fill="#FFD1BF" />
<path d="M 149.0000,376.0000 L 149.0000,383.0000 L 150.0000,383.0000 L 150.0000,376.0000 L 149.0000,376.0000 Z" stroke-width="1px" stroke="#FFB294"  fill="#FFB294" />
<path d="M 150.0000,376.0000 L 150.0000,383.0000 L 151.0000,383.0000 L 151.0000,376.0000 L 150.0000,376.0000 Z" stroke-width="1px" stroke="#FF926B"  fill="#FF926B" />
<path d="M 151.0000,376.0000 L 151.0000,383.0000 L 152.0000,383.0000 L 152.0000,376.0000 L 151.0000,376.0000 Z" stroke-width="1px" stroke="#FF7440"  fill="#FF7440" />
<defs><clipPath id="clip-491"><path d="M 67.0000,75.0000 L 470.0000,75.0000 L 470.0000,383.0000 L 67.0000,383.0000 L 67.0000,75.0000 Z Z" /></clipPath></defs>
</g>
<g transform="matrix(0.0625 0.0000 0.0000 0.0625 0.0000 0.0000)">
<path  clip-path="url(#clip-491)" d="M 2345.0000,6019.0000 L 2440.0000,6019.0000 L 2440.0000,6128.0000 L 2345.0000,6128.0000 Z" stroke="#000000" stroke-width="16.0000"  stroke-linecap="butt"  stroke-linejoin="miter"  stroke-miterlimit="10.0000" fill="none" />
</g>
<g transform="matrix(1.0000 0.0000 0.0000 1.0000 0.0000 0.0000)">
<path d="M 165.0000,376.0000 L 165.0000,383.0000 L 166.0000,383.0000 L 166.0000,376.0000 L 165.0000,376.0000 Z" stroke-width="1px" stroke="#FF5A1D"  fill="#FF5A1D" />
<path d="M 166.0000,376.0000 L 166.0000,383.0000 L 167.0000,383.0000 L 167.0000,376.0000 L 166.0000,376.0000 Z" stroke-width="1px" stroke="#FFF5F2"  fill="#FFF5F2" />
<path d="M 167.0000,376.0000 L 167.0000,383.0000 L 168.0000,383.0000 L 168.0000,376.0000 L 167.0000,376.0000 Z" stroke-width="1px" stroke="#FFD6C7"  fill="#FFD6C7" />
<path d="M 168.0000,376.0000 L 168.0000,383.0000 L 169.0000,383.0000 L 169.0000,376.0000 L 168.0000,376.0000 Z" stroke-width="1px" stroke="#FFB79C"  fill="#FFB79C" />
<path d="M 169.0000,376.0000 L 169.0000,383.0000 L 170.0000,383.0000 L 170.0000,376.0000 L 169.0000,376.0000 Z" stroke-width="1px" stroke="#FF9873"  fill="#FF9873" />
<path d="M 170.0000,376.0000 L 170.0000,383.0000 L 171.0000,383.0000 L 171.0000,376.0000 L 170.0000,376.0000 Z" stroke-width="1px" stroke="#FF7948"  fill="#FF7948" />
<defs><clipPath id="clip-2995"><path d="M 67.0000,75.0000 L 470.0000,75.0000 L 470.0000,383.0000 L 67.0000,383.0000 L 67.0000,75.0000 Z Z" /></clipPath></defs>
</g>
<g transform="matrix(0.0625 0.0000 0.0000 0.0625 0.0000 0.0000)">
<path  clip-path="url(#clip-2995)" d="M 2651.0000,6019.0000 L 2747.0000,6019.0000 L 2747.0000,6128.0000 L 2651.0000,6128.0000 Z" stroke="#000000" stroke-width="16.0000"  stroke-linecap="butt"  stroke-linejoin="miter"  stroke-miterlimit="10.0000" fill="none" />
</g>
<g transform="matrix(1.0000 0.0000 0.0000 1.0000 0.0000 0.0000)">
<path d="M 184.0000,371.0000 L 184.0000,383.0000 L 185.0000,383.0000 L 185.0000,371.0000 L 184.0000,371.0000 Z" stroke-width="1px" stroke="#FF6025"  fill="#FF6025" />
<path d="M 185.0000,371.0000 L 185.0000,383.0000 L 186.0000,383.0000 L 186.0000,371.0000 L 185.0000,371.0000 Z" stroke-width="1px" stroke="#FFFBFA"  fill="#FFFBFA" />
<path d="M 186.0000,371.0000 L 186.0000,383.0000 L 187.0000,383.0000 L 187.0000,371.0000 L 186.0000,371.0000 Z" stroke-width="1px" stroke="#FFDCCF"  fill="#FFDCCF" />
<path d="M 187.0000,371.0000 L 187.0000,383.0000 L 188.0000,383.0000 L 188.0000,371.0000 L 187.0000,371.0000 Z" stroke-width="1px" stroke="#FFBDA4"  fill="#FFBDA4" />
<path d="M 188.0000,371.0000 L 188.0000,383.0000 L 189.0000,383.0000 L 189.0000,371.0000 L 188.0000,371.0000 Z" stroke-width="1px" stroke="#FF9E7A"  fill="#FF9E7A" />
<path d="M 189.0000,371.0000 L 189.0000,383.0000 L 190.0000,383.0000 L 190.0000,371.0000 L 189.0000,371.0000 Z" stroke-width="1px" stroke="#FF7F50"  fill="#FF7F50" />
<defs><clipPath id="clip-11942"><path d="M 67.0000,75.0000 L 470.0000,75.0000 L 470.0000,383.0000 L 67.0000,383.0000 L 67.0000,75.0000 Z Z" /></clipPath></defs>
</g>
<g transform="matrix(0.0625 0.0000 0.0000 0.0625 0.0000 0.0000)">
<path  clip-path="url(#clip-11942)" d="M 2958.0000,5937.0000 L 3054.0000,5937.0000 L 3054.0000,6128.0000 L 2958.0000,6128.0000 Z" stroke="#000000" stroke-width="16.0000"  stroke-linecap="butt"  stroke-linejoin="miter"  stroke-miterlimit="10.0000" fill="none" />
</g>
<g transform="matrix(1.0000 0.0000 0.0000 1.0000 0.0000 0.0000)">
<path d="M 204.0000,377.0000 L 204.0000,383.0000 L 205.0000,383.0000 L 205.0000,377.0000 L 204.0000,377.0000 Z" stroke-width="1px" stroke="#FF4702"  fill="#FF4702" />
<path d="M 205.0000,377.0000 L 205.0000,383.0000 L 206.0000,383.0000 L 206.0000,377.0000 L 205.0000,377.0000 Z" stroke-width="1px" stroke="#FFE2D7"  fill="#FFE2D7" />
<path d="M 206.0000,377.0000 L 206.0000,383.0000 L 207.0000,383.0000 L 207.0000,377.0000 L 206.0000,377.0000 Z" stroke-width="1px" stroke="#FFC3AC"  fill="#FFC3AC" />
<path d="M 207.0000,377.0000 L 207.0000,383.0000 L 208.0000,383.0000 L 208.0000,377.0000 L 207.0000,377.0000 Z" stroke-width="1px" stroke="#FFA482"  fill="#FFA482" />
<path d="M 208.0000,377.0000 L 208.0000,383.0000 L 209.0000,383.0000 L 209.0000,377.0000 L 208.0000,377.0000 Z" stroke-width="1px" stroke="#FF8558"  fill="#FF8558" />
<path d="M 209.0000,377.0000 L 209.0000,383.0000 L 210.0000,383.0000 L 210.0000,377.0000 L 209.0000,377.0000 Z" stroke-width="1px" stroke="#FF662D"  fill="#FF662D" />
<defs><clipPath id="clip-4827"><path d="M 67.0000,75.0000 L 470.0000,75.0000 L 470.0000,383.0000 L 67.0000,383.0000 L 67.0000,75.0000 Z Z" /></clipPath></defs>
</g>
<g transform="matrix(0.0625 0.0000 0.0000 0.0625 0.0000 0.0000)">
<path  clip-path="url(#clip-4827)" d="M 3265.0000,6046.0000 L 3361.0000,6046.0000 L 3361.0000,6128.0000 L 3265.0000,6128.0000 Z" stroke="#000000" stroke-width="16.0000"  stroke-linecap="butt"  stroke-linejoin="miter"  stroke-miterlimit="10.0000" fill="none" />
</g>
<g transform="matrix(1.0000 0.0000 0.0000 1.0000 0.0000 0.0000)">
<path d="M 223.0000,372.0000 L 223.0000,383.0000 L 224.0000,383.0000 L 224.0000,372.0000 L 223.0000,372.0000 Z" stroke-width="1px" stroke="#FF4D0A"  fill="#FF4D0A" />
<path d="M 224.0000,372.0000 L 224.0000,383.0000 L 225.0000,383.0000 L 225.0000,372.0000 L 224.0000,372.0000 Z" stroke-width="1px" stroke="#FFE8DF"  fill="#FFE8DF" />
<path d="M 225.0000,372.0000 L 225.0000,383.0000 L 226.0000,383.0000 L 226.0000,372.0000 L 225.0000,372.0000 Z" stroke-width="1px" stroke="#FFC9B4"  fill="#FFC9B4" />
<path d="M 226.0000,372.0000 L 226.0000,383.0000 L 227.0000,383.0000 L 227.0000,372.0000 L 226.0000,372.0000 Z" stroke-width="1px" stroke="#FFAA8A"  fill="#FFAA8A" />
<path d="M 227.0000,372.0000 L 227.0000,383.0000 L 228.0000,383.0000 L 228.0000,372.0000 L 227.0000,372.0000 Z" stroke-width="1px" stroke="#FF8B60"  fill="#FF8B60" />
<path d="M 228.0000,372.0000 L 228.0000,383.0000 L 229.0000,383.0000 L 229.0000,372.0000 L 228.0000,372.0000 Z" stroke-width="1px" stroke="#FF6C35"  fill="#FF6C35" />
<defs><clipPath id="clip-5436"><path d="M 67.0000,75.0000 L 470.0000,75.0000 L 470.0000,383.0000 L 67.0000,383.0000 L 67.0000,75.0000 Z Z" /></clipPath></defs>
</g>
<g transform="matrix(0.0625 0.0000 0.0000 0.0625 0.0000 0.0000)">
<path  clip-path="url(#clip-5436)" d="M 3572.0000,5964.0000 L 3668.0000,5964.0000 L 3668.0000,6128.0000 L 3572.0000,6128.0000 Z" stroke="#000000" stroke-width="16.0000"  stroke-linecap="butt"  stroke-linejoin="miter"  stroke-miterlimit="10.0000" fill="none" />
</g>
<g transform="matrix(1.0000 0.0000 0.0000 1.0000 0.0000 0.0000)">
<path d="M 242.0000,369.0000 L 242.0000,383.0000 L 243.0000,383.0000 L 243.0000,369.0000 L 242.0000,369.0000 Z" stroke-width="1px" stroke="#FF5312"  fill="#FF5312" />
<path d="M 243.0000,369.0000 L 243.0000,383.0000 L 244.0000,383.0000 L 244.0000,369.0000 L 243.0000,369.0000 Z" stroke-width="1px" stroke="#FFEDE7"  fill="#FFEDE7" />
<path d="M 244.0000,369.0000 L 244.0000,383.0000 L 245.0000,383.0000 L 245.0000,369.0000 L 244.0000,369.0000 Z" stroke-width="1px" stroke="#FFCFBC"  fill="#FFCFBC" />
<path d="M 245.0000,369.0000 L 245.0000,383.0000 L 246.0000,383.0000 L 246.0000,369.0000 L 245.0000,369.0000 Z" stroke-width="1px" stroke="#FFB091"  fill="#FFB091" />
<path d="M 246.0000,369.0000 L 246.0000,383.0000 L 247.0000,383.0000 L 247.0000,369.0000 L 246.0000,369.0000 Z" stroke-width="1px" stroke="#FF9067"  fill="#FF9067" />
<path d="M 247.0000,369.0000 L 247.0000,383.0000 L 248.0000,383.0000 L 248.0000,369.0000 L 247.0000,369.0000 Z" stroke-width="1px" stroke="#FF723D"  fill="#FF723D" />
<defs><clipPath id="clip-32391"><path d="M 67.0000,75.0000 L 470.0000,75.0000 L 470.0000,383.0000 L 67.0000,383.0000 L 67.0000,75.0000 Z Z" /></clipPath></defs>
</g>
<g transform="matrix(0.0625 0.0000 0.0000 0.0625 0.0000 0.0000)">
<path  clip-path="url(#clip-32391)" d="M 3879.0000,5909.0000 L 3975.0000,5909.0000 L 3975.0000,6128.0000 L 3879.0000,6128.0000 Z" stroke="#000000" stroke-width="16.0000"  stroke-linecap="butt"  stroke-linejoin="miter"  stroke-miterlimit="10.0000" fill="none" />
</g>
<g transform="matrix(1.0000 0.0000 0.0000 1.0000 0.0000 0.0000)">
<path d="M 261.0000,369.0000 L 261.0000,383.0000 L 262.0000,383.0000 L 262.0000,369.0000 L 261.0000,369.0000 Z" stroke-width="1px" stroke="#FF581A"  fill="#FF581A" />
<path d="M 262.0000,369.0000 L 262.0000,383.0000 L 263.0000,383.0000 L 263.0000,369.0000 L 262.0000,369.0000 Z" stroke-width="1px" stroke="#FFF3EE"  fill="#FFF3EE" />
<path d="M 263.0000,369.0000 L 263.0000,383.0000 L 264.0000,383.0000 L 264.0000,369.0000 L 263.0000,369.0000 Z" stroke-width="1px" stroke="#FFD4C4"  fill="#FFD4C4" />
<path d="M 264.0000,369.0000 L 264.0000,383.0000 L 265.0000,383.0000 L 265.0000,369.0000 L 264.0000,369.0000 Z" stroke-width="1px" stroke="#FFB599"  fill="#FFB599" />
<path d="M 265.0000,369.0000 L 265.0000,383.0000 L 266.0000,383.0000 L 266.0000,369.0000 L 265.0000,369.0000 Z" stroke-width="1px" stroke="#FF966F"  fill="#FF966F" />
<path d="M 266.0000,369.0000 L 266.0000,383.0000 L 267.0000,383.0000 L 267.0000,369.0000 L 266.0000,369.0000 Z" stroke-width="1px" stroke="#FF7745"  fill="#FF7745" />
<defs><clipPath id="clip-14604"><path d="M 67.0000,75.0000 L 470.0000,75.0000 L 470.0000,383.0000 L 67.0000,383.0000 L 67.0000,75.0000 Z Z" /></clipPath></defs>
</g>
<g transform="matrix(0.0625 0.0000 0.0000 0.0625 0.0000 0.0000)">
<path  clip-path="url(#clip-14604)" d="M 4186.0000,5909.0000 L 4282.0000,5909.0000 L 4282.0000,6128.0000 L 4186.0000,6128.0000 Z" stroke="#000000" stroke-width="16.0000"  stroke-linecap="butt"  stroke-linejoin="miter"  stroke-miterlimit="10.0000" fill="none" />
</g>
<g transform="matrix(1.0000 0.0000 0.0000 1.0000 0.0000 0.0000)">
<path d="M 280.0000,369.0000 L 280.0000,383.0000 L 281.0000,383.0000 L 281.0000,369.0000 L 280.0000,369.0000 Z" stroke-width="1px" stroke="#FF5E22"  fill="#FF5E22" />
<path d="M 281.0000,369.0000 L 281.0000,383.0000 L 282.0000,383.0000 L 282.0000,369.0000 L 281.0000,369.0000 Z" stroke-width="1px" stroke="#FFF8F6"  fill="#FFF8F6" />
<path d="M 282.0000,369.0000 L 282.0000,383.0000 L 283.0000,383.0000 L 283.0000,369.0000 L 282.0000,369.0000 Z" stroke-width="1px" stroke="#FFDACC"  fill="#FFDACC" />
<path d="M 283.0000,369.0000 L 283.0000,383.0000 L 284.0000,383.0000 L 284.0000,369.0000 L 283.0000,369.0000 Z" stroke-width="1px" stroke="#FFBAA1"  fill="#FFBAA1" />
<path d="M 284.0000,369.0000 L 284.0000,383.0000 L 285.0000,383.0000 L 285.0000,369.0000 L 284.0000,369.0000 Z" stroke-width="1px" stroke="#FF9B77"  fill="#FF9B77" />
<path d="M 285.0000,369.0000 L 285.0000,383.0000 L 286.0000,383.0000 L 286.0000,369.0000 L 285.0000,369.0000 Z" stroke-width="1px" stroke="#FF7D4D"  fill="#FF7D4D" />
<defs><clipPath id="clip-3902"><path d="M 67.0000,75.0000 L 470.0000,75.0000 L 470.0000,383.0000 L 67.0000,383.0000 L 67.0000,75.0000 Z Z" /></clipPath></defs>
</g>
<g transform="matrix(0.0625 0.0000 0.0000 0.0625 0.0000 0.0000)">
<path  clip-path="url(#clip-3902)" d="M 4493.0000,5909.0000 L 4589.0000,5909.0000 L 4589.0000,6128.0000 L 4493.0000,6128.0000 Z" stroke="#000000" stroke-width="16.0000"  stroke-linecap="butt"  stroke-linejoin="miter"  stroke-miterlimit="10.0000" fill="none" />
</g>
<g transform="matrix(1.0000 0.0000 0.0000 1.0000 0.0000 0.0000)">
<path d="M 300.0000,374.0000 L 300.0000,383.0000 L 301.0000,383.0000 L 301.0000,374.0000 L 300.0000,374.0000 Z" stroke-width="1px" stroke="#FFFEFE"  fill="#FFFEFE" />
<path d="M 301.0000,374.0000 L 301.0000,383.0000 L 302.0000,383.0000 L 302.0000,374.0000 L 301.0000,374.0000 Z" stroke-width="1px" stroke="#FFDFD4"  fill="#FFDFD4" />
<path d="M 302.0000,374.0000 L 302.0000,383.0000 L 303.0000,383.0000 L 303.0000,374.0000 L 302.0000,374.0000 Z" stroke-width="1px" stroke="#FFC0A9"  fill="#FFC0A9" />
<path d="M 303.0000,374.0000 L 303.0000,383.0000 L 304.0000,383.0000 L 304.0000,374.0000 L 303.0000,374.0000 Z" stroke-width="1px" stroke="#FFA17F"  fill="#FFA17F" />
<path d="M 304.0000,374.0000 L 304.0000,383.0000 L 305.0000,383.0000 L 305.0000,374.0000 L 304.0000,374.0000 Z" stroke-width="1px" stroke="#FF8254"  fill="#FF8254" />
<path d="M 305.0000,374.0000 L 305.0000,383.0000 L 306.0000,383.0000 L 306.0000,374.0000 L 305.0000,374.0000 Z" stroke-width="1px" stroke="#FF632A"  fill="#FF632A" />
<defs><clipPath id="clip-153"><path d="M 67.0000,75.0000 L 470.0000,75.0000 L 470.0000,383.0000 L 67.0000,383.0000 L 67.0000,75.0000 Z Z" /></clipPath></defs>
</g>
<g transform="matrix(0.0625 0.0000 0.0000 0.0625 0.0000 0.0000)">
<path  clip-path="url(#clip-153)" d="M 4800.0000,5992.0000 L 4896.0000,5992.0000 L 4896.0000,6128.0000 L 4800.0000,6128.0000 Z" stroke="#000000" stroke-width="16.0000"  stroke-linecap="butt"  stroke-linejoin="miter"  stroke-miterlimit="10.0000" fill="none" />
</g>
<g transform="matrix(1.0000 0.0000 0.0000 1.0000 0.0000 0.0000)">
<path d="M 319.0000,360.0000 L 319.0000,383.0000 L 320.0000,383.0000 L 320.0000,360.0000 L 319.0000,360.0000 Z" stroke-width="1px" stroke="#FF4A07"  fill="#FF4A07" />
<path d="M 320.0000,360.0000 L 320.0000,383.0000 L 321.0000,383.0000 L 321.0000,360.0000 L 320.0000,360.0000 Z" stroke-width="1px" stroke="#FFE5DB"  fill="#FFE5DB" />
<path d="M 321.0000,360.0000 L 321.0000,383.0000 L 322.0000,383.0000 L 322.0000,360.0000 L 321.0000,360.0000 Z" stroke-width="1px" stroke="#FFC6B1"  fill="#FFC6B1" />
<path d="M 322.0000,360.0000 L 322.0000,383.0000 L 323.0000,383.0000 L 323.0000,360.0000 L 322.0000,360.0000 Z" stroke-width="1px" stroke="#FFA787"  fill="#FFA787" />
<path d="M 323.0000,360.0000 L 323.0000,383.0000 L 324.0000,383.0000 L 324.0000,360.0000 L 323.0000,360.0000 Z" stroke-width="1px" stroke="#FF885C"  fill="#FF885C" />
<path d="M 324.0000,360.0000 L 324.0000,383.0000 L 325.0000,383.0000 L 325.0000,360.0000 L 324.0000,360.0000 Z" stroke-width="1px" stroke="#FF6932"  fill="#FF6932" />
<defs><clipPath id="clip-292"><path d="M 67.0000,75.0000 L 470.0000,75.0000 L 470.0000,383.0000 L 67.0000,383.0000 L 67.0000,75.0000 Z Z" /></clipPath></defs>
</g>
<g transform="matrix(0.0625 0.0000 0.0000 0.0625 0.0000 0.0000)">
<path  clip-path="url(#clip-292)" d="M 5107.0000,5772.0000 L 5203.0000,5772.0000 L 5203.0000,6128.0000 L 5107.0000,6128.0000 Z" stroke="#000000" stroke-width="16.0000"  stroke-linecap="butt"  stroke-linejoin="miter"  stroke-miterlimit="10.0000" fill="none" />
</g>
<g transform="matrix(1.0000 0.0000 0.0000 1.0000 0.0000 0.0000)">
<path d="M 338.0000,371.0000 L 338.0000,383.0000 L 339.0000,383.0000 L 339.0000,371.0000 L 338.0000,371.0000 Z" stroke-width="1px" stroke="#FF500F"  fill="#FF500F" />
<path d="M 339.0000,371.0000 L 339.0000,383.0000 L 340.0000,383.0000 L 340.0000,371.0000 L 339.0000,371.0000 Z" stroke-width="1px" stroke="#FFEBE3"  fill="#FFEBE3" />
<path d="M 340.0000,371.0000 L 340.0000,383.0000 L 341.0000,383.0000 L 341.0000,371.0000 L 340.0000,371.0000 Z" stroke-width="1px" stroke="#FFCCB9"  fill="#FFCCB9" />
<path d="M 341.0000,371.0000 L 341.0000,383.0000 L 342.0000,383.0000 L 342.0000,371.0000 L 341.0000,371.0000 Z" stroke-width="1px" stroke="#FFAD8E"  fill="#FFAD8E" />
<path d="M 342.0000,371.0000 L 342.0000,383.0000 L 343.0000,383.0000 L 343.0000,371.0000 L 342.0000,371.0000 Z" stroke-width="1px" stroke="#FF8E64"  fill="#FF8E64" />
<path d="M 343.0000,371.0000 L 343.0000,383.0000 L 344.0000,383.0000 L 344.0000,371.0000 L 343.0000,371.0000 Z" stroke-width="1px" stroke="#FF6F3A"  fill="#FF6F3A" />
<defs><clipPath id="clip-12382"><path d="M 67.0000,75.0000 L 470.0000,75.0000 L 470.0000,383.0000 L 67.0000,383.0000 L 67.0000,75.0000 Z Z" /></clipPath></defs>
</g>
<g transform="matrix(0.0625 0.0000 0.0000 0.0625 0.0000 0.0000)">
<path  clip-path="url(#clip-12382)" d="M 5414.0000,5937.0000 L 5510.0000,5937.0000 L 5510.0000,6128.0000 L 5414.0000,6128.0000 Z" stroke="#000000" stroke-width="16.0000"  stroke-linecap="butt"  stroke-linejoin="miter"  stroke-miterlimit="10.0000" fill="none" />
</g>
<g transform="matrix(1.0000 0.0000 0.0000 1.0000 0.0000 0.0000)">
<path d="M 357.0000,367.0000 L 357.0000,383.0000 L 358.0000,383.0000 L 358.0000,367.0000 L 357.0000,367.0000 Z" stroke-width="1px" stroke="#FF5617"  fill="#FF5617" />
<path d="M 358.0000,367.0000 L 358.0000,383.0000 L 359.0000,383.0000 L 359.0000,367.0000 L 358.0000,367.0000 Z" stroke-width="1px" stroke="#FFF0EB"  fill="#FFF0EB" />
<path d="M 359.0000,367.0000 L 359.0000,383.0000 L 360.0000,383.0000 L 360.0000,367.0000 L 359.0000,367.0000 Z" stroke-width="1px" stroke="#FFD2C0"  fill="#FFD2C0" />
<path d="M 360.0000,367.0000 L 360.0000,383.0000 L 361.0000,383.0000 L 361.0000,367.0000 L 360.0000,367.0000 Z" stroke-width="1px" stroke="#FFB396"  fill="#FFB396" />
<path d="M 361.0000,367.0000 L 361.0000,383.0000 L 362.0000,383.0000 L 362.0000,367.0000 L 361.0000,367.0000 Z" stroke-width="1px" stroke="#FF936C"  fill="#FF936C" />
<path d="M 362.0000,367.0000 L 362.0000,383.0000 L 363.0000,383.0000 L 363.0000,367.0000 L 362.0000,367.0000 Z" stroke-width="1px" stroke="#FF7541"  fill="#FF7541" />
<defs><clipPath id="clip-17421"><path d="M 67.0000,75.0000 L 470.0000,75.0000 L 470.0000,383.0000 L 67.0000,383.0000 L 67.0000,75.0000 Z Z" /></clipPath></defs>
</g>
<g transform="matrix(0.0625 0.0000 0.0000 0.0625 0.0000 0.0000)">
<path  clip-path="url(#clip-17421)" d="M 5721.0000,5882.0000 L 5817.0000,5882.0000 L 5817.0000,6128.0000 L 5721.0000,6128.0000 Z" stroke="#000000" stroke-width="16.0000"  stroke-linecap="butt"  stroke-linejoin="miter"  stroke-miterlimit="10.0000" fill="none" />
</g>
<g transform="matrix(1.0000 0.0000 0.0000 1.0000 0.0000 0.0000)">
<path d="M 376.0000,371.0000 L 376.0000,383.0000 L 377.0000,383.0000 L 377.0000,371.0000 L 376.0000,371.0000 Z" stroke-width="1px" stroke="#FF5B1F"  fill="#FF5B1F" />
<path d="M 377.0000,371.0000 L 377.0000,383.0000 L 378.0000,383.0000 L 378.0000,371.0000 L 377.0000,371.0000 Z" stroke-width="1px" stroke="#FFF6F3"  fill="#FFF6F3" />
<path d="M 378.0000,371.0000 L 378.0000,383.0000 L 379.0000,383.0000 L 379.0000,371.0000 L 378.0000,371.0000 Z" stroke-width="1px" stroke="#FFD7C8"  fill="#FFD7C8" />
<path d="M 379.0000,371.0000 L 379.0000,383.0000 L 380.0000,383.0000 L 380.0000,371.0000 L 379.0000,371.0000 Z" stroke-width="1px" stroke="#FFB89E"  fill="#FFB89E" />
<path d="M 380.0000,371.0000 L 380.0000,383.0000 L 381.0000,383.0000 L 381.0000,371.0000 L 380.0000,371.0000 Z" stroke-width="1px" stroke="#FF9974"  fill="#FF9974" />
<path d="M 381.0000,371.0000 L 381.0000,383.0000 L 382.0000,383.0000 L 382.0000,371.0000 L 381.0000,371.0000 Z" stroke-width="1px" stroke="#FF7A49"  fill="#FF7A49" />
<defs><clipPath id="clip-18716"><path d="M 67.0000,75.0000 L 470.0000,75.0000 L 470.0000,383.0000 L 67.0000,383.0000 L 67.0000,75.0000 Z Z" /></clipPath></defs>
</g>
<g transform="matrix(0.0625 0.0000 0.0000 0.0625 0.0000 0.0000)">
<path  clip-path="url(#clip-18716)" d="M 6028.0000,5937.0000 L 6124.0000,5937.0000 L 6124.0000,6128.0000 L 6028.0000,6128.0000 Z" stroke="#000000" stroke-width="16.0000"  stroke-linecap="butt"  stroke-linejoin="miter"  stroke-miterlimit="10.0000" fill="none" />
</g>
<g transform="matrix(1.0000 0.0000 0.0000 1.0000 0.0000 0.0000)">
<path d="M 395.0000,364.0000 L 395.0000,383.0000 L 396.0000,383.0000 L 396.0000,364.0000 L 395.0000,364.0000 Z" stroke-width="1px" stroke="#FF6127"  fill="#FF6127" />
<path d="M 396.0000,364.0000 L 396.0000,383.0000 L 397.0000,383.0000 L 397.0000,364.0000 L 396.0000,364.0000 Z" stroke-width="1px" stroke="#FFFCFB"  fill="#FFFCFB" />
<path d="M 397.0000,364.0000 L 397.0000,383.0000 L 398.0000,383.0000 L 398.0000,364.0000 L 397.0000,364.0000 Z" stroke-width="1px" stroke="#FFDDD0"  fill="#FFDDD0" />
<path d="M 398.0000,364.0000 L 398.0000,383.0000 L 399.0000,383.0000 L 399.0000,364.0000 L 398.0000,364.0000 Z" stroke-width="1px" stroke="#FFBEA6"  fill="#FFBEA6" />
<path d="M 399.0000,364.0000 L 399.0000,383.0000 L 400.0000,383.0000 L 400.0000,364.0000 L 399.0000,364.0000 Z" stroke-width="1px" stroke="#FF9F7C"  fill="#FF9F7C" />
<path d="M 400.0000,364.0000 L 400.0000,383.0000 L 401.0000,383.0000 L 401.0000,364.0000 L 400.0000,364.0000 Z" stroke-width="1px" stroke="#FF8051"  fill="#FF8051" />
<defs><clipPath id="clip-19718"><path d="M 67.0000,75.0000 L 470.0000,75.0000 L 470.0000,383.0000 L 67.0000,383.0000 L 67.0000,75.0000 Z Z" /></clipPath></defs>
</g>
<g transform="matrix(0.0625 0.0000 0.0000 0.0625 0.0000 0.0000)">
<path  clip-path="url(#clip-19718)" d="M 6335.0000,5827.0000 L 6431.0000,5827.0000 L 6431.0000,6128.0000 L 6335.0000,6128.0000 Z" stroke="#000000" stroke-width="16.0000"  stroke-linecap="butt"  stroke-linejoin="miter"  stroke-miterlimit="10.0000" fill="none" />
</g>
<g transform="matrix(1.0000 0.0000 0.0000 1.0000 0.0000 0.0000)">
<path d="M 415.0000,360.0000 L 415.0000,383.0000 L 416.0000,383.0000 L 416.0000,360.0000 L 415.0000,360.0000 Z" stroke-width="1px" stroke="#FF4804"  fill="#FF4804" />
<path d="M 416.0000,360.0000 L 416.0000,383.0000 L 417.0000,383.0000 L 417.0000,360.0000 L 416.0000,360.0000 Z" stroke-width="1px" stroke="#FFE3D8"  fill="#FFE3D8" />
<path d="M 417.0000,360.0000 L 417.0000,383.0000 L 418.0000,383.0000 L 418.0000,360.0000 L 417.0000,360.0000 Z" stroke-width="1px" stroke="#FFC4AD"  fill="#FFC4AD" />
<path d="M 418.0000,360.0000 L 418.0000,383.0000 L 419.0000,383.0000 L 419.0000,360.0000 L 418.0000,360.0000 Z" stroke-width="1px" stroke="#FFA583"  fill="#FFA583" />
<path d="M 419.0000,360.0000 L 419.0000,383.0000 L 420.0000,383.0000 L 420.0000,360.0000 L 419.0000,360.0000 Z" stroke-width="1px" stroke="#FF8659"  fill="#FF8659" />
<path d="M 420.0000,360.0000 L 420.0000,383.0000 L 421.0000,383.0000 L 421.0000,360.0000 L 420.0000,360.0000 Z" stroke-width="1px" stroke="#FF672E"  fill="#FF672E" />
<defs><clipPath id="clip-19895"><path d="M 67.0000,75.0000 L 470.0000,75.0000 L 470.0000,383.0000 L 67.0000,383.0000 L 67.0000,75.0000 Z Z" /></clipPath></defs>
</g>
<g transform="matrix(0.0625 0.0000 0.0000 0.0625 0.0000 0.0000)">
<path  clip-path="url(#clip-19895)" d="M 6642.0000,5772.0000 L 6738.0000,5772.0000 L 6738.0000,6128.0000 L 6642.0000,6128.0000 Z" stroke="#000000" stroke-width="16.0000"  stroke-linecap="butt"  stroke-linejoin="miter"  stroke-miterlimit="10.0000" fill="none" />
</g>
<g transform="matrix(1.0000 0.0000 0.0000 1.0000 0.0000 0.0000)">
<path d="M 434.0000,365.0000 L 434.0000,383.0000 L 435.0000,383.0000 L 435.0000,365.0000 L 434.0000,365.0000 Z" stroke-width="1px" stroke="#FF4E0C"  fill="#FF4E0C" />
<path d="M 435.0000,365.0000 L 435.0000,383.0000 L 436.0000,383.0000 L 436.0000,365.0000 L 435.0000,365.0000 Z" stroke-width="1px" stroke="#FFE9E0"  fill="#FFE9E0" />
<path d="M 436.0000,365.0000 L 436.0000,383.0000 L 437.0000,383.0000 L 437.0000,365.0000 L 436.0000,365.0000 Z" stroke-width="1px" stroke="#FFCAB5"  fill="#FFCAB5" />
<path d="M 437.0000,365.0000 L 437.0000,383.0000 L 438.0000,383.0000 L 438.0000,365.0000 L 437.0000,365.0000 Z" stroke-width="1px" stroke="#FFAB8B"  fill="#FFAB8B" />
<path d="M 438.0000,365.0000 L 438.0000,383.0000 L 439.0000,383.0000 L 439.0000,365.0000 L 438.0000,365.0000 Z" stroke-width="1px" stroke="#FF8C61"  fill="#FF8C61" />
<path d="M 439.0000,365.0000 L 439.0000,383.0000 L 440.0000,383.0000 L 440.0000,365.0000 L 439.0000,365.0000 Z" stroke-width="1px" stroke="#FF6D36"  fill="#FF6D36" />
<defs><clipPath id="clip-5447"><path d="M 67.0000,75.0000 L 470.0000,75.0000 L 470.0000,383.0000 L 67.0000,383.0000 L 67.0000,75.0000 Z Z" /></clipPath></defs>
</g>
<g transform="matrix(0.0625 0.0000 0.0000 0.0625 0.0000 0.0000)">
<path  clip-path="url(#clip-5447)" d="M 6949.0000,5855.0000 L 7045.0000,5855.0000 L 7045.0000,6128.0000 L 6949.0000,6128.0000 Z" stroke="#000000" stroke-width="16.0000"  stroke-linecap="butt"  stroke-linejoin="miter"  stroke-miterlimit="10.0000" fill="none" />
</g>
<g transform="matrix(1.0000 0.0000 0.0000 1.0000 0.0000 0.0000)">
<path d="M 453.0000,381.0000 L 453.0000,383.0000 L 454.0000,383.0000 L 454.0000,381.0000 L 453.0000,381.0000 Z" stroke-width="1px" stroke="#FF5313"  fill="#FF5313" />
<path d="M 454.0000,381.0000 L 454.0000,383.0000 L 455.0000,383.0000 L 455.0000,381.0000 L 454.0000,381.0000 Z" stroke-width="1px" stroke="#FFEEE8"  fill="#FFEEE8" />
<path d="M 455.0000,381.0000 L 455.0000,383.0000 L 456.0000,383.0000 L 456.0000,381.0000 L 455.0000,381.0000 Z" stroke-width="1px" stroke="#FFCFBD"  fill="#FFCFBD" />
<path d="M 456.0000,381.0000 L 456.0000,383.0000 L 457.0000,383.0000 L 457.0000,381.0000 L 456.0000,381.0000 Z" stroke-width="1px" stroke="#FFB092"  fill="#FFB092" />
<path d="M 457.0000,381.0000 L 457.0000,383.0000 L 458.0000,383.0000 L 458.0000,381.0000 L 457.0000,381.0000 Z" stroke-width="1px" stroke="#FF9169"  fill="#FF9169" />
<path d="M 458.0000,381.0000 L 458.0000,383.0000 L 459.0000,383.0000 L 459.0000,381.0000 L 458.0000,381.0000 Z" stroke-width="1px" stroke="#FF723E"  fill="#FF723E" />
<defs><clipPath id="clip-21726"><path d="M 67.0000,75.0000 L 470.0000,75.0000 L 470.0000,383.0000 L 67.0000,383.0000 L 67.0000,75.0000 Z Z" /></clipPath></defs>
</g>
<g transform="matrix(0.0625 0.0000 0.0000 0.0625 0.0000 0.0000)">
<path  clip-path="url(#clip-21726)" d="M 7256.0000,6101.0000 L 7352.0000,6101.0000 L 7352.0000,6128.0000 L 7256.0000,6128.0000 Z" stroke="#000000" stroke-width="16.0000"  stroke-linecap="butt"  stroke-linejoin="miter"  stroke-miterlimit="10.0000" fill="none" />
</g>
<g transform="matrix(1.0000 0.0000 0.0000 1.0000 0.0000 0.0000)">
</g>
<g transform="matrix(0.0625 0.0000 0.0000 0.0625 0.0000 0.0000)">
<path d="M 1069.0000,6128.0000 L 7515.0000,6128.0000 " stroke="#000000" stroke-width="16.0000"  stroke-linecap="butt"  stroke-linejoin="miter"  stroke-miterlimit="10.0000" fill="none" />
</g>
<g transform="matrix(1.0000 0.0000 0.0000 1.0000 0.0000 0.0000)">
<text font-family="Arial" fill="#000000" style ="white-space:pre;" font-weight="400" text-anchor="start" x="76.0000" y="401.0000" font-size="14.0000" ><![CDATA[0.0]]></text>
<text font-family="Arial" fill="#000000" style ="white-space:pre;" font-weight="400" text-anchor="start" x="115.0000" y="401.0000" font-size="14.0000" ><![CDATA[0.1]]></text>
<text font-family="Arial" fill="#000000" style ="white-space:pre;" font-weight="400" text-anchor="start" x="153.0000" y="401.0000" font-size="14.0000" ><![CDATA[0.2]]></text>
<text font-family="Arial" fill="#000000" style ="white-space:pre;" font-weight="400" text-anchor="start" x="192.0000" y="401.0000" font-size="14.0000" ><![CDATA[0.3]]></text>
<text font-family="Arial" fill="#000000" style ="white-space:pre;" font-weight="400" text-anchor="start" x="230.0000" y="401.0000" font-size="14.0000" ><![CDATA[0.4]]></text>
<text font-family="Arial" fill="#000000" style ="white-space:pre;" font-weight="400" text-anchor="start" x="269.0000" y="401.0000" font-size="14.0000" ><![CDATA[0.5]]></text>
<text font-family="Arial" fill="#000000" style ="white-space:pre;" font-weight="400" text-anchor="start" x="307.0000" y="401.0000" font-size="14.0000" ><![CDATA[0.6]]></text>
<text font-family="Arial" fill="#000000" style ="white-space:pre;" font-weight="400" text-anchor="start" x="346.0000" y="401.0000" font-size="14.0000" ><![CDATA[0.7]]></text>
<text font-family="Arial" fill="#000000" style ="white-space:pre;" font-weight="400" text-anchor="start" x="384.0000" y="401.0000" font-size="14.0000" ><![CDATA[0.8]]></text>
<text font-family="Arial" fill="#000000" style ="white-space:pre;" font-weight="400" text-anchor="start" x="423.0000" y="401.0000" font-size="14.0000" ><![CDATA[0.9]]></text>
<text font-family="Arial" fill="#000000" style ="white-space:pre;" font-weight="700" text-anchor="start" x="242.0000" y="424.0000" font-size="14.0000" ><![CDATA[P Value]]></text>
</g>
<g transform="matrix(0.0625 0.0000 0.0000 0.0625 0.0000 0.0000)">
<path d="M 1069.0000,1199.0000 L 1069.0000,6128.0000 " stroke="#000000" stroke-width="16.0000"  stroke-linecap="butt"  stroke-linejoin="miter"  stroke-miterlimit="10.0000" fill="none" />
</g>
<g transform="matrix(1.0000 0.0000 0.0000 1.0000 0.0000 0.0000)">
<text font-family="Arial" fill="#000000" style ="white-space:pre;" font-weight="400" text-anchor="start" x="43.0000" y="387.0000" font-size="14.0000" ><![CDATA[0]]></text>
<text font-family="Arial" fill="#000000" style ="white-space:pre;" font-weight="400" text-anchor="start" x="39.0000" y="353.0000" font-size="14.0000" ><![CDATA[20]]></text>
<text font-family="Arial" fill="#000000" style ="white-space:pre;" font-weight="400" text-anchor="start" x="39.0000" y="319.0000" font-size="14.0000" ><![CDATA[40]]></text>
<text font-family="Arial" fill="#000000" style ="white-space:pre;" font-weight="400" text-anchor="start" x="39.0000" y="284.0000" font-size="14.0000" ><![CDATA[60]]></text>
<text font-family="Arial" fill="#000000" style ="white-space:pre;" font-weight="400" text-anchor="start" x="39.0000" y="250.0000" font-size="14.0000" ><![CDATA[80]]></text>
<text font-family="Arial" fill="#000000" style ="white-space:pre;" font-weight="400" text-anchor="start" x="35.0000" y="216.0000" font-size="14.0000" ><![CDATA[100]]></text>
<text font-family="Arial" fill="#000000" style ="white-space:pre;" font-weight="400" text-anchor="start" x="35.0000" y="182.0000" font-size="14.0000" ><![CDATA[120]]></text>
<text font-family="Arial" fill="#000000" style ="white-space:pre;" font-weight="400" text-anchor="start" x="35.0000" y="147.0000" font-size="14.0000" ><![CDATA[140]]></text>
<text font-family="Arial" fill="#000000" style ="white-space:pre;" font-weight="400" text-anchor="start" x="35.0000" y="113.0000" font-size="14.0000" ><![CDATA[160]]></text>
<text font-family="Arial" fill="#000000" style ="white-space:pre;" font-weight="400" text-anchor="start" x="35.0000" y="79.0000" font-size="14.0000" ><![CDATA[180]]></text>
<text font-family="Arial" fill="#000000" transform="rotate(-90, 23.0000, 280.6000) translate(0, 12.6000)" style ="white-space:pre;" font-weight="700" text-anchor="start" x="23.0000" y="268.0000" font-size="14.0000" ><![CDATA[P]]></text>
<text font-family="Arial" fill="#000000" transform="rotate(-90, 23.0000, 271.6000) translate(0, 12.6000)" style ="white-space:pre;" font-weight="700" text-anchor="start" x="23.0000" y="259.0000" font-size="14.0000" ><![CDATA[e]]></text>
<text font-family="Arial" fill="#000000" transform="rotate(-90, 23.0000, 263.6000) translate(0, 12.6000)" style ="white-space:pre;" font-weight="700" text-anchor="start" x="23.0000" y="251.0000" font-size="14.0000" ><![CDATA[a]]></text>
<text font-family="Arial" fill="#000000" transform="rotate(-90, 23.0000, 255.6000) translate(0, 12.6000)" style ="white-space:pre;" font-weight="700" text-anchor="start" x="23.0000" y="243.0000" font-size="14.0000" ><![CDATA[k]]></text>
<text font-family="Arial" fill="#000000" transform="rotate(-90, 23.0000, 247.6000) translate(0, 12.6000)" style ="white-space:pre;" font-weight="700" text-anchor="start" x="23.0000" y="235.0000" font-size="14.0000" ><![CDATA[ ]]></text>
<text font-family="Arial" fill="#000000" transform="rotate(-90, 23.0000, 243.6000) translate(0, 12.6000)" style ="white-space:pre;" font-weight="700" text-anchor="start" x="23.0000" y="231.0000" font-size="14.0000" ><![CDATA[c]]></text>
<text font-family="Arial" fill="#000000" transform="rotate(-90, 23.0000, 235.6000) translate(0, 12.6000)" style ="white-space:pre;" font-weight="700" text-anchor="start" x="23.0000" y="223.0000" font-size="14.0000" ><![CDATA[o]]></text>
<text font-family="Arial" fill="#000000" transform="rotate(-90, 23.0000, 226.6000) translate(0, 12.6000)" style ="white-space:pre;" font-weight="700" text-anchor="start" x="23.0000" y="214.0000" font-size="14.0000" ><![CDATA[u]]></text>
<text font-family="Arial" fill="#000000" transform="rotate(-90, 23.0000, 217.6000) translate(0, 12.6000)" style ="white-space:pre;" font-weight="700" text-anchor="start" x="23.0000" y="205.0000" font-size="14.0000" ><![CDATA[n]]></text>
<text font-family="Arial" fill="#000000" transform="rotate(-90, 23.0000, 208.6000) translate(0, 12.6000)" style ="white-space:pre;" font-weight="700" text-anchor="start" x="23.0000" y="196.0000" font-size="14.0000" ><![CDATA[t]]></text>
<path d="M 66.0000,39.0000 L 66.0000,67.0000 L 417.0000,67.0000 L 417.0000,39.0000 L 66.0000,39.0000 Z" stroke-width="1px" stroke="#FFFFFF"  fill="#FFFFFF" />
<text font-family="Arial" fill="#000000" style ="white-space:pre;" font-weight="400" text-anchor="start" x="107.0000" y="51.0000" font-size="12.0000" ><![CDATA[Decoys]]></text>
<path d="M 70.0000,43.0000 L 70.0000,50.0000 L 71.0000,50.0000 L 71.0000,43.0000 L 70.0000,43.0000 Z" stroke-width="1px" stroke="#FF4702"  fill="#FF4702" />
<path d="M 71.0000,43.0000 L 71.0000,50.0000 L 72.0000,50.0000 L 72.0000,43.0000 L 71.0000,43.0000 Z" stroke-width="1px" stroke="#FFFAF8"  fill="#FFFAF8" />
<path d="M 72.0000,43.0000 L 72.0000,50.0000 L 73.0000,50.0000 L 73.0000,43.0000 L 72.0000,43.0000 Z" stroke-width="1px" stroke="#FFF3EF"  fill="#FFF3EF" />
<path d="M 73.0000,43.0000 L 73.0000,50.0000 L 74.0000,50.0000 L 74.0000,43.0000 L 73.0000,43.0000 Z" stroke-width="1px" stroke="#FFEDE6"  fill="#FFEDE6" />
<path d="M 74.0000,43.0000 L 74.0000,50.0000 L 75.0000,50.0000 L 75.0000,43.0000 L 74.0000,43.0000 Z" stroke-width="1px" stroke="#FFE6DD"  fill="#FFE6DD" />
<path d="M 75.0000,43.0000 L 75.0000,50.0000 L 76.0000,50.0000 L 76.0000,43.0000 L 75.0000,43.0000 Z" stroke-width="1px" stroke="#FFE0D4"  fill="#FFE0D4" />
<path d="M 76.0000,43.0000 L 76.0000,50.0000 L 77.0000,50.0000 L 77.0000,43.0000 L 76.0000,43.0000 Z" stroke-width="1px" stroke="#FFD9CB"  fill="#FFD9CB" />
<path d="M 77.0000,43.0000 L 77.0000,50.0000 L 78.0000,50.0000 L 78.0000,43.0000 L 77.0000,43.0000 Z" stroke-width="1px" stroke="#FFD3C1"  fill="#FFD3C1" />
<path d="M 78.0000,43.0000 L 78.0000,50.0000 L 79.0000,50.0000 L 79.0000,43.0000 L 78.0000,43.0000 Z" stroke-width="1px" stroke="#FFCCB8"  fill="#FFCCB8" />
<path d="M 79.0000,43.0000 L 79.0000,50.0000 L 80.0000,50.0000 L 80.0000,43.0000 L 79.0000,43.0000 Z" stroke-width="1px" stroke="#FFC5AF"  fill="#FFC5AF" />
<path d="M 80.0000,43.0000 L 80.0000,50.0000 L 81.0000,50.0000 L 81.0000,43.0000 L 80.0000,43.0000 Z" stroke-width="1px" stroke="#FFBEA6"  fill="#FFBEA6" />
<path d="M 81.0000,43.0000 L 81.0000,50.0000 L 82.0000,50.0000 L 82.0000,43.0000 L 81.0000,43.0000 Z" stroke-width="1px" stroke="#FFB89D"  fill="#FFB89D" />
<path d="M 82.0000,43.0000 L 82.0000,50.0000 L 83.0000,50.0000 L 83.0000,43.0000 L 82.0000,43.0000 Z" stroke-width="1px" stroke="#FFB194"  fill="#FFB194" />
<path d="M 83.0000,43.0000 L 83.0000,50.0000 L 84.0000,50.0000 L 84.0000,43.0000 L 83.0000,43.0000 Z" stroke-width="1px" stroke="#FFAB8B"  fill="#FFAB8B" />
<path d="M 84.0000,43.0000 L 84.0000,50.0000 L 85.0000,50.0000 L 85.0000,43.0000 L 84.0000,43.0000 Z" stroke-width="1px" stroke="#FFA482"  fill="#FFA482" />
<path d="M 85.0000,43.0000 L 85.0000,50.0000 L 86.0000,50.0000 L 86.0000,43.0000 L 85.0000,43.0000 Z" stroke-width="1px" stroke="#FF9D79"  fill="#FF9D79" />
<path d="M 86.0000,43.0000 L 86.0000,50.0000 L 87.0000,50.0000 L 87.0000,43.0000 L 86.0000,43.0000 Z" stroke-width="1px" stroke="#FF9670"  fill="#FF9670" />
<path d="M 87.0000,43.0000 L 87.0000,50.0000 L 88.0000,50.0000 L 88.0000,43.0000 L 87.0000,43.0000 Z" stroke-width="1px" stroke="#FF9067"  fill="#FF9067" />
<path d="M 88.0000,43.0000 L 88.0000,50.0000 L 89.0000,50.0000 L 89.0000,43.0000 L 88.0000,43.0000 Z" stroke-width="1px" stroke="#FF895E"  fill="#FF895E" />
<path d="M 89.0000,43.0000 L 89.0000,50.0000 L 90.0000,50.0000 L 90.0000,43.0000 L 89.0000,43.0000 Z" stroke-width="1px" stroke="#FF8355"  fill="#FF8355" />
<path d="M 90.0000,43.0000 L 90.0000,50.0000 L 91.0000,50.0000 L 91.0000,43.0000 L 90.0000,43.0000 Z" stroke-width="1px" stroke="#FF7C4C"  fill="#FF7C4C" />
<path d="M 91.0000,43.0000 L 91.0000,50.0000 L 92.0000,50.0000 L 92.0000,43.0000 L 91.0000,43.0000 Z" stroke-width="1px" stroke="#FF7642"  fill="#FF7642" />
<path d="M 92.0000,43.0000 L 92.0000,50.0000 L 93.0000,50.0000 L 93.0000,43.0000 L 92.0000,43.0000 Z" stroke-width="1px" stroke="#FF6F39"  fill="#FF6F39" />
<path d="M 93.0000,43.0000 L 93.0000,50.0000 L 94.0000,50.0000 L 94.0000,43.0000 L 93.0000,43.0000 Z" stroke-width="1px" stroke="#FF6830"  fill="#FF6830" />
<path d="M 94.0000,43.0000 L 94.0000,50.0000 L 95.0000,50.0000 L 95.0000,43.0000 L 94.0000,43.0000 Z" stroke-width="1px" stroke="#FF6127"  fill="#FF6127" />
<path d="M 95.0000,43.0000 L 95.0000,50.0000 L 96.0000,50.0000 L 96.0000,43.0000 L 95.0000,43.0000 Z" stroke-width="1px" stroke="#FF5B1E"  fill="#FF5B1E" />
<path d="M 96.0000,43.0000 L 96.0000,50.0000 L 97.0000,50.0000 L 97.0000,43.0000 L 96.0000,43.0000 Z" stroke-width="1px" stroke="#FF5415"  fill="#FF5415" />
<path d="M 97.0000,43.0000 L 97.0000,50.0000 L 98.0000,50.0000 L 98.0000,43.0000 L 97.0000,43.0000 Z" stroke-width="1px" stroke="#FF4E0C"  fill="#FF4E0C" />
</g>
<g transform="matrix(0.0625 0.0000 0.0000 0.0625 0.0000 0.0000)">
<path d="M 1125.0000,695.0000 L 1573.0000,695.0000 L 1573.0000,807.0000 L 1125.0000,807.0000 Z" stroke="#000000" stroke-width="16.0000"  stroke-linecap="butt"  stroke-linejoin="miter"  stroke-miterlimit="10.0000" fill="none" />
</g>
<g transform="matrix(1.0000 0.0000 0.0000 1.0000 0.0000 0.0000)">
<text font-family="Arial" fill="#000000" style ="white-space:pre;" font-weight="400" text-anchor="start" x="282.0000" y="51.0000" font-size="12.0000" ><![CDATA[Targets]]></text>
<path d="M 245.0000,43.0000 L 245.0000,50.0000 L 246.0000,50.0000 L 246.0000,43.0000 L 245.0000,43.0000 Z" stroke-width="1px" stroke="#04048D"  fill="#04048D" />
<path d="M 246.0000,43.0000 L 246.0000,50.0000 L 247.0000,50.0000 L 247.0000,43.0000 L 246.0000,43.0000 Z" stroke-width="1px" stroke="#FAFAFD"  fill="#FAFAFD" />
<path d="M 247.0000,43.0000 L 247.0000,50.0000 L 248.0000,50.0000 L 248.0000,43.0000 L 247.0000,43.0000 Z" stroke-width="1px" stroke="#F1F1F9"  fill="#F1F1F9" />
<path d="M 248.0000,43.0000 L 248.0000,50.0000 L 249.0000,50.0000 L 249.0000,43.0000 L 248.0000,43.0000 Z" stroke-width="1px" stroke="#E7E7F5"  fill="#E7E7F5" />
<path d="M 249.0000,43.0000 L 249.0000,50.0000 L 250.0000,50.0000 L 250.0000,43.0000 L 249.0000,43.0000 Z" stroke-width="1px" stroke="#DEDEF1"  fill="#DEDEF1" />
<path d="M 250.0000,43.0000 L 250.0000,50.0000 L 251.0000,50.0000 L 251.0000,43.0000 L 250.0000,43.0000 Z" stroke-width="1px" stroke="#D5D5EC"  fill="#D5D5EC" />
<path d="M 251.0000,43.0000 L 251.0000,50.0000 L 252.0000,50.0000 L 252.0000,43.0000 L 251.0000,43.0000 Z" stroke-width="1px" stroke="#CCCCE8"  fill="#CCCCE8" />
<path d="M 252.0000,43.0000 L 252.0000,50.0000 L 253.0000,50.0000 L 253.0000,43.0000 L 252.0000,43.0000 Z" stroke-width="1px" stroke="#C3C3E4"  fill="#C3C3E4" />
<path d="M 253.0000,43.0000 L 253.0000,50.0000 L 254.0000,50.0000 L 254.0000,43.0000 L 253.0000,43.0000 Z" stroke-width="1px" stroke="#BABAE0"  fill="#BABAE0" />
<path d="M 254.0000,43.0000 L 254.0000,50.0000 L 255.0000,50.0000 L 255.0000,43.0000 L 254.0000,43.0000 Z" stroke-width="1px" stroke="#B1B1DC"  fill="#B1B1DC" />
<path d="M 255.0000,43.0000 L 255.0000,50.0000 L 256.0000,50.0000 L 256.0000,43.0000 L 255.0000,43.0000 Z" stroke-width="1px" stroke="#A7A7D8"  fill="#A7A7D8" />
<path d="M 256.0000,43.0000 L 256.0000,50.0000 L 257.0000,50.0000 L 257.0000,43.0000 L 256.0000,43.0000 Z" stroke-width="1px" stroke="#9E9ED4"  fill="#9E9ED4" />
<path d="M 257.0000,43.0000 L 257.0000,50.0000 L 258.0000,50.0000 L 258.0000,43.0000 L 257.0000,43.0000 Z" stroke-width="1px" stroke="#9595CF"  fill="#9595CF" />
<path d="M 258.0000,43.0000 L 258.0000,50.0000 L 259.0000,50.0000 L 259.0000,43.0000 L 258.0000,43.0000 Z" stroke-width="1px" stroke="#8C8CCB"  fill="#8C8CCB" />
<path d="M 259.0000,43.0000 L 259.0000,50.0000 L 260.0000,50.0000 L 260.0000,43.0000 L 259.0000,43.0000 Z" stroke-width="1px" stroke="#8484C7"  fill="#8484C7" />
<path d="M 260.0000,43.0000 L 260.0000,50.0000 L 261.0000,50.0000 L 261.0000,43.0000 L 260.0000,43.0000 Z" stroke-width="1px" stroke="#7B7BC3"  fill="#7B7BC3" />
<path d="M 261.0000,43.0000 L 261.0000,50.0000 L 262.0000,50.0000 L 262.0000,43.0000 L 261.0000,43.0000 Z" stroke-width="1px" stroke="#7272BF"  fill="#7272BF" />
<path d="M 262.0000,43.0000 L 262.0000,50.0000 L 263.0000,50.0000 L 263.0000,43.0000 L 262.0000,43.0000 Z" stroke-width="1px" stroke="#6868BB"  fill="#6868BB" />
<path d="M 263.0000,43.0000 L 263.0000,50.0000 L 264.0000,50.0000 L 264.0000,43.0000 L 263.0000,43.0000 Z" stroke-width="1px" stroke="#5F5FB7"  fill="#5F5FB7" />
<path d="M 264.0000,43.0000 L 264.0000,50.0000 L 265.0000,50.0000 L 265.0000,43.0000 L 264.0000,43.0000 Z" stroke-width="1px" stroke="#5656B2"  fill="#5656B2" />
<path d="M 265.0000,43.0000 L 265.0000,50.0000 L 266.0000,50.0000 L 266.0000,43.0000 L 265.0000,43.0000 Z" stroke-width="1px" stroke="#4D4DAE"  fill="#4D4DAE" />
<path d="M 266.0000,43.0000 L 266.0000,50.0000 L 267.0000,50.0000 L 267.0000,43.0000 L 266.0000,43.0000 Z" stroke-width="1px" stroke="#4444AA"  fill="#4444AA" />
<path d="M 267.0000,43.0000 L 267.0000,50.0000 L 268.0000,50.0000 L 268.0000,43.0000 L 267.0000,43.0000 Z" stroke-width="1px" stroke="#3B3BA6"  fill="#3B3BA6" />
<path d="M 268.0000,43.0000 L 268.0000,50.0000 L 269.0000,50.0000 L 269.0000,43.0000 L 268.0000,43.0000 Z" stroke-width="1px" stroke="#3232A2"  fill="#3232A2" />
<path d="M 269.0000,43.0000 L 269.0000,50.0000 L 270.0000,50.0000 L 270.0000,43.0000 L 269.0000,43.0000 Z" stroke-width="1px" stroke="#28289E"  fill="#28289E" />
<path d="M 270.0000,43.0000 L 270.0000,50.0000 L 271.0000,50.0000 L 271.0000,43.0000 L 270.0000,43.0000 Z" stroke-width="1px" stroke="#1F1F9A"  fill="#1F1F9A" />
<path d="M 271.0000,43.0000 L 271.0000,50.0000 L 272.0000,50.0000 L 272.0000,43.0000 L 271.0000,43.0000 Z" stroke-width="1px" stroke="#161695"  fill="#161695" />
<path d="M 272.0000,43.0000 L 272.0000,50.0000 L 273.0000,50.0000 L 273.0000,43.0000 L 272.0000,43.0000 Z" stroke-width="1px" stroke="#0D0D91"  fill="#0D0D91" />
</g>
<g transform="matrix(0.0625 0.0000 0.0000 0.0625 0.0000 0.0000)">
<path d="M 3927.0000,695.0000 L 4375.0000,695.0000 L 4375.0000,807.0000 L 3927.0000,807.0000 Z" stroke="#000000" stroke-width="16.0000"  stroke-linecap="butt"  stroke-linejoin="miter"  stroke-miterlimit="10.0000" fill="none" />
</g>
<g transform="matrix(1.0000 0.0000 0.0000 1.0000 0.0000 0.0000)">
<text font-family="Arial" fill="#000000" style ="white-space:pre;" font-weight="400" text-anchor="start" x="107.0000" y="65.0000" font-size="12.0000" ><![CDATA[Pi zero (expected nulls)]]></text>
</g>
<g transform="matrix(0.0625 0.0000 0.0000 0.0625 0.0000 0.0000)">
<path d="M 1125.0000,960.0000 L 1573.0000,960.0000 " stroke="#000000" stroke-width="48.0000"  stroke-linecap="butt"  stroke-linejoin="miter"  stroke-miterlimit="10.0000" fill="none" />
</g>
<g transform="matrix(1.0000 0.0000 0.0000 1.0000 0.0000 0.0000)">
</g>
<g transform="matrix(0.0625 0.0000 0.0000 0.0625 0.0000 0.0000)">
<path d="M 1069.0000,639.0000 L 6673.0000,639.0000 L 6673.0000,1087.0000 L 1069.0000,1087.0000 Z" stroke="#000000" stroke-width="16.0000"  stroke-linecap="butt"  stroke-linejoin="miter"  stroke-miterlimit="10.0000" fill="none" />
</g>
<g transform="matrix(1.0000 0.0000 0.0000 1.0000 0.0000 0.0000)">
</g>
</g>
</svg>
