<?xml version="1.0"  encoding="UTF-8" standalone="no"?>
<svg version="1.1" xmlns="http://www.w3.org/2000/svg" xmlns:xlink="http://www.w3.org/1999/xlink" width="544.0000" height="399.0000">
<g transform="translate(-0.0000, -0.0000)">
<g transform="matrix(0.0625 0.0000 0.0000 0.0625 0.0000 0.0000)">
<path d="M 0.0000,0.0000 L 0.0000,6384.0000 L 8704.0000,6384.0000 L 8704.0000,0.0000 L 0.0000,0.0000 Z" stroke-width="1px" stroke="#FFFFFF"  fill="#FFFFFF" />
</g>
<g transform="matrix(1.0000 0.0000 0.0000 1.0000 0.0000 0.0000)">
</g>
<g transform="matrix(0.0625 0.0000 0.0000 0.0625 0.0000 0.0000)">
<path d="M 0.0000,0.0000 L 0.0000,6384.0000 L 8704.0000,6384.0000 L 8704.0000,0.0000 L 0.0000,0.0000 Z" stroke-width="1px" stroke="#FFFFFF"  fill="#FFFFFF" />
</g>
<g transform="matrix(1.0000 0.0000 0.0000 1.0000 0.0000 0.0000)">
<path d="M 63.0000,59.0000 L 63.0000,342.0000 L 508.0000,342.0000 L 508.0000,59.0000 L 63.0000,59.0000 Z" stroke-width="1px" stroke="#FFFFFF"  fill="#FFFFFF" />
</g>
<g transform="matrix(0.0625 0.0000 0.0000 0.0625 0.0000 0.0000)">
<path d="M 7320.0000,1531.0000 L 7320.0000,1996.0000 L 7769.0000,1996.0000 L 7769.0000,1531.0000 L 7320.0000,1531.0000 Z" stroke-width="1px" stroke="#FFFFFF"  fill="#FFFFFF" />
</g>
<g transform="matrix(1.0000 0.0000 0.0000 1.0000 0.0000 0.0000)">
<text font-family="Arial" fill="#000000" style ="white-space:pre;" font-weight="400" text-anchor="start" x="460.0000" y="108.0000" font-size="12.0000" ><![CDATA[dotp]]></text>
<text font-family="Arial" fill="#000000" style ="white-space:pre;" font-weight="400" text-anchor="start" x="460.0000" y="122.0000" font-size="12.0000" ><![CDATA[0.98]]></text>
</g>
<g transform="matrix(0.0625 0.0000 0.0000 0.0625 0.0000 0.0000)">
<path d="M 6134.0000,1788.0000 L 6134.0000,2254.0000 L 6583.0000,2254.0000 L 6583.0000,1788.0000 L 6134.0000,1788.0000 Z" stroke-width="1px" stroke="#FFFFFF"  fill="#FFFFFF" />
</g>
<g transform="matrix(1.0000 0.0000 0.0000 1.0000 0.0000 0.0000)">
<text font-family="Arial" fill="#000000" style ="white-space:pre;" font-weight="400" text-anchor="start" x="385.0000" y="124.0000" font-size="12.0000" ><![CDATA[dotp]]></text>
<text font-family="Arial" fill="#000000" style ="white-space:pre;" font-weight="400" text-anchor="start" x="385.0000" y="138.0000" font-size="12.0000" ><![CDATA[0.98]]></text>
</g>
<g transform="matrix(0.0625 0.0000 0.0000 0.0625 0.0000 0.0000)">
<path d="M 4948.0000,1841.0000 L 4948.0000,2306.0000 L 5397.0000,2306.0000 L 5397.0000,1841.0000 L 4948.0000,1841.0000 Z" stroke-width="1px" stroke="#FFFFFF"  fill="#FFFFFF" />
</g>
<g transform="matrix(1.0000 0.0000 0.0000 1.0000 0.0000 0.0000)">
<text font-family="Arial" fill="#000000" style ="white-space:pre;" font-weight="400" text-anchor="start" x="311.0000" y="127.0000" font-size="12.0000" ><![CDATA[dotp]]></text>
<text font-family="Arial" fill="#000000" style ="white-space:pre;" font-weight="400" text-anchor="start" x="311.0000" y="141.0000" font-size="12.0000" ><![CDATA[0.98]]></text>
</g>
<g transform="matrix(0.0625 0.0000 0.0000 0.0625 0.0000 0.0000)">
<path d="M 3762.0000,975.0000 L 3762.0000,1440.0000 L 4210.0000,1440.0000 L 4210.0000,975.0000 L 3762.0000,975.0000 Z" stroke-width="1px" stroke="#FFFFFF"  fill="#FFFFFF" />
</g>
<g transform="matrix(1.0000 0.0000 0.0000 1.0000 0.0000 0.0000)">
<text font-family="Arial" fill="#000000" style ="white-space:pre;" font-weight="400" text-anchor="start" x="237.0000" y="73.0000" font-size="12.0000" ><![CDATA[dotp]]></text>
<text font-family="Arial" fill="#000000" style ="white-space:pre;" font-weight="400" text-anchor="start" x="237.0000" y="87.0000" font-size="12.0000" ><![CDATA[0.99]]></text>
</g>
<g transform="matrix(0.0625 0.0000 0.0000 0.0625 0.0000 0.0000)">
<path d="M 2575.0000,1513.0000 L 2575.0000,1978.0000 L 3024.0000,1978.0000 L 3024.0000,1513.0000 L 2575.0000,1513.0000 Z" stroke-width="1px" stroke="#FFFFFF"  fill="#FFFFFF" />
</g>
<g transform="matrix(1.0000 0.0000 0.0000 1.0000 0.0000 0.0000)">
<text font-family="Arial" fill="#000000" style ="white-space:pre;" font-weight="400" text-anchor="start" x="163.0000" y="107.0000" font-size="12.0000" ><![CDATA[dotp]]></text>
<text font-family="Arial" fill="#000000" style ="white-space:pre;" font-weight="400" text-anchor="start" x="163.0000" y="121.0000" font-size="12.0000" ><![CDATA[0.98]]></text>
</g>
<g transform="matrix(0.0625 0.0000 0.0000 0.0625 0.0000 0.0000)">
<path d="M 1020.0000,5352.0000 L 980.0000,5352.0000 " stroke="#000000" stroke-width="16.0000"  stroke-linecap="butt"  stroke-linejoin="miter"  stroke-miterlimit="10.0000" fill="none" />
</g>
<g transform="matrix(1.0000 0.0000 0.0000 1.0000 0.0000 0.0000)">
</g>
<g transform="matrix(0.0625 0.0000 0.0000 0.0625 0.0000 0.0000)">
<path d="M 1020.0000,5352.0000 L 1060.0000,5352.0000 " stroke="#000000" stroke-width="16.0000"  stroke-linecap="butt"  stroke-linejoin="miter"  stroke-miterlimit="10.0000" fill="none" />
</g>
<g transform="matrix(1.0000 0.0000 0.0000 1.0000 0.0000 0.0000)">
</g>
<g transform="matrix(0.0625 0.0000 0.0000 0.0625 0.0000 0.0000)">
<path d="M 1020.0000,5240.0000 L 980.0000,5240.0000 " stroke="#000000" stroke-width="16.0000"  stroke-linecap="butt"  stroke-linejoin="miter"  stroke-miterlimit="10.0000" fill="none" />
</g>
<g transform="matrix(1.0000 0.0000 0.0000 1.0000 0.0000 0.0000)">
</g>
<g transform="matrix(0.0625 0.0000 0.0000 0.0625 0.0000 0.0000)">
<path d="M 1020.0000,5240.0000 L 1060.0000,5240.0000 " stroke="#000000" stroke-width="16.0000"  stroke-linecap="butt"  stroke-linejoin="miter"  stroke-miterlimit="10.0000" fill="none" />
</g>
<g transform="matrix(1.0000 0.0000 0.0000 1.0000 0.0000 0.0000)">
</g>
<g transform="matrix(0.0625 0.0000 0.0000 0.0625 0.0000 0.0000)">
<path d="M 1020.0000,5127.0000 L 980.0000,5127.0000 " stroke="#000000" stroke-width="16.0000"  stroke-linecap="butt"  stroke-linejoin="miter"  stroke-miterlimit="10.0000" fill="none" />
</g>
<g transform="matrix(1.0000 0.0000 0.0000 1.0000 0.0000 0.0000)">
</g>
<g transform="matrix(0.0625 0.0000 0.0000 0.0625 0.0000 0.0000)">
<path d="M 1020.0000,5127.0000 L 1060.0000,5127.0000 " stroke="#000000" stroke-width="16.0000"  stroke-linecap="butt"  stroke-linejoin="miter"  stroke-miterlimit="10.0000" fill="none" />
</g>
<g transform="matrix(1.0000 0.0000 0.0000 1.0000 0.0000 0.0000)">
</g>
<g transform="matrix(0.0625 0.0000 0.0000 0.0625 0.0000 0.0000)">
<path d="M 1020.0000,5014.0000 L 980.0000,5014.0000 " stroke="#000000" stroke-width="16.0000"  stroke-linecap="butt"  stroke-linejoin="miter"  stroke-miterlimit="10.0000" fill="none" />
</g>
<g transform="matrix(1.0000 0.0000 0.0000 1.0000 0.0000 0.0000)">
</g>
<g transform="matrix(0.0625 0.0000 0.0000 0.0625 0.0000 0.0000)">
<path d="M 1020.0000,5014.0000 L 1060.0000,5014.0000 " stroke="#000000" stroke-width="16.0000"  stroke-linecap="butt"  stroke-linejoin="miter"  stroke-miterlimit="10.0000" fill="none" />
</g>
<g transform="matrix(1.0000 0.0000 0.0000 1.0000 0.0000 0.0000)">
</g>
<g transform="matrix(0.0625 0.0000 0.0000 0.0625 0.0000 0.0000)">
<path d="M 1020.0000,4788.0000 L 980.0000,4788.0000 " stroke="#000000" stroke-width="16.0000"  stroke-linecap="butt"  stroke-linejoin="miter"  stroke-miterlimit="10.0000" fill="none" />
</g>
<g transform="matrix(1.0000 0.0000 0.0000 1.0000 0.0000 0.0000)">
</g>
<g transform="matrix(0.0625 0.0000 0.0000 0.0625 0.0000 0.0000)">
<path d="M 1020.0000,4788.0000 L 1060.0000,4788.0000 " stroke="#000000" stroke-width="16.0000"  stroke-linecap="butt"  stroke-linejoin="miter"  stroke-miterlimit="10.0000" fill="none" />
</g>
<g transform="matrix(1.0000 0.0000 0.0000 1.0000 0.0000 0.0000)">
</g>
<g transform="matrix(0.0625 0.0000 0.0000 0.0625 0.0000 0.0000)">
<path d="M 1020.0000,4676.0000 L 980.0000,4676.0000 " stroke="#000000" stroke-width="16.0000"  stroke-linecap="butt"  stroke-linejoin="miter"  stroke-miterlimit="10.0000" fill="none" />
</g>
<g transform="matrix(1.0000 0.0000 0.0000 1.0000 0.0000 0.0000)">
</g>
<g transform="matrix(0.0625 0.0000 0.0000 0.0625 0.0000 0.0000)">
<path d="M 1020.0000,4676.0000 L 1060.0000,4676.0000 " stroke="#000000" stroke-width="16.0000"  stroke-linecap="butt"  stroke-linejoin="miter"  stroke-miterlimit="10.0000" fill="none" />
</g>
<g transform="matrix(1.0000 0.0000 0.0000 1.0000 0.0000 0.0000)">
</g>
<g transform="matrix(0.0625 0.0000 0.0000 0.0625 0.0000 0.0000)">
<path d="M 1020.0000,4563.0000 L 980.0000,4563.0000 " stroke="#000000" stroke-width="16.0000"  stroke-linecap="butt"  stroke-linejoin="miter"  stroke-miterlimit="10.0000" fill="none" />
</g>
<g transform="matrix(1.0000 0.0000 0.0000 1.0000 0.0000 0.0000)">
</g>
<g transform="matrix(0.0625 0.0000 0.0000 0.0625 0.0000 0.0000)">
<path d="M 1020.0000,4563.0000 L 1060.0000,4563.0000 " stroke="#000000" stroke-width="16.0000"  stroke-linecap="butt"  stroke-linejoin="miter"  stroke-miterlimit="10.0000" fill="none" />
</g>
<g transform="matrix(1.0000 0.0000 0.0000 1.0000 0.0000 0.0000)">
</g>
<g transform="matrix(0.0625 0.0000 0.0000 0.0625 0.0000 0.0000)">
<path d="M 1020.0000,4450.0000 L 980.0000,4450.0000 " stroke="#000000" stroke-width="16.0000"  stroke-linecap="butt"  stroke-linejoin="miter"  stroke-miterlimit="10.0000" fill="none" />
</g>
<g transform="matrix(1.0000 0.0000 0.0000 1.0000 0.0000 0.0000)">
</g>
<g transform="matrix(0.0625 0.0000 0.0000 0.0625 0.0000 0.0000)">
<path d="M 1020.0000,4450.0000 L 1060.0000,4450.0000 " stroke="#000000" stroke-width="16.0000"  stroke-linecap="butt"  stroke-linejoin="miter"  stroke-miterlimit="10.0000" fill="none" />
</g>
<g transform="matrix(1.0000 0.0000 0.0000 1.0000 0.0000 0.0000)">
</g>
<g transform="matrix(0.0625 0.0000 0.0000 0.0625 0.0000 0.0000)">
<path d="M 1020.0000,4224.0000 L 980.0000,4224.0000 " stroke="#000000" stroke-width="16.0000"  stroke-linecap="butt"  stroke-linejoin="miter"  stroke-miterlimit="10.0000" fill="none" />
</g>
<g transform="matrix(1.0000 0.0000 0.0000 1.0000 0.0000 0.0000)">
</g>
<g transform="matrix(0.0625 0.0000 0.0000 0.0625 0.0000 0.0000)">
<path d="M 1020.0000,4224.0000 L 1060.0000,4224.0000 " stroke="#000000" stroke-width="16.0000"  stroke-linecap="butt"  stroke-linejoin="miter"  stroke-miterlimit="10.0000" fill="none" />
</g>
<g transform="matrix(1.0000 0.0000 0.0000 1.0000 0.0000 0.0000)">
</g>
<g transform="matrix(0.0625 0.0000 0.0000 0.0625 0.0000 0.0000)">
<path d="M 1020.0000,4111.0000 L 980.0000,4111.0000 " stroke="#000000" stroke-width="16.0000"  stroke-linecap="butt"  stroke-linejoin="miter"  stroke-miterlimit="10.0000" fill="none" />
</g>
<g transform="matrix(1.0000 0.0000 0.0000 1.0000 0.0000 0.0000)">
</g>
<g transform="matrix(0.0625 0.0000 0.0000 0.0625 0.0000 0.0000)">
<path d="M 1020.0000,4111.0000 L 1060.0000,4111.0000 " stroke="#000000" stroke-width="16.0000"  stroke-linecap="butt"  stroke-linejoin="miter"  stroke-miterlimit="10.0000" fill="none" />
</g>
<g transform="matrix(1.0000 0.0000 0.0000 1.0000 0.0000 0.0000)">
</g>
<g transform="matrix(0.0625 0.0000 0.0000 0.0625 0.0000 0.0000)">
<path d="M 1020.0000,3999.0000 L 980.0000,3999.0000 " stroke="#000000" stroke-width="16.0000"  stroke-linecap="butt"  stroke-linejoin="miter"  stroke-miterlimit="10.0000" fill="none" />
</g>
<g transform="matrix(1.0000 0.0000 0.0000 1.0000 0.0000 0.0000)">
</g>
<g transform="matrix(0.0625 0.0000 0.0000 0.0625 0.0000 0.0000)">
<path d="M 1020.0000,3999.0000 L 1060.0000,3999.0000 " stroke="#000000" stroke-width="16.0000"  stroke-linecap="butt"  stroke-linejoin="miter"  stroke-miterlimit="10.0000" fill="none" />
</g>
<g transform="matrix(1.0000 0.0000 0.0000 1.0000 0.0000 0.0000)">
</g>
<g transform="matrix(0.0625 0.0000 0.0000 0.0625 0.0000 0.0000)">
<path d="M 1020.0000,3886.0000 L 980.0000,3886.0000 " stroke="#000000" stroke-width="16.0000"  stroke-linecap="butt"  stroke-linejoin="miter"  stroke-miterlimit="10.0000" fill="none" />
</g>
<g transform="matrix(1.0000 0.0000 0.0000 1.0000 0.0000 0.0000)">
</g>
<g transform="matrix(0.0625 0.0000 0.0000 0.0625 0.0000 0.0000)">
<path d="M 1020.0000,3886.0000 L 1060.0000,3886.0000 " stroke="#000000" stroke-width="16.0000"  stroke-linecap="butt"  stroke-linejoin="miter"  stroke-miterlimit="10.0000" fill="none" />
</g>
<g transform="matrix(1.0000 0.0000 0.0000 1.0000 0.0000 0.0000)">
</g>
<g transform="matrix(0.0625 0.0000 0.0000 0.0625 0.0000 0.0000)">
<path d="M 1020.0000,3660.0000 L 980.0000,3660.0000 " stroke="#000000" stroke-width="16.0000"  stroke-linecap="butt"  stroke-linejoin="miter"  stroke-miterlimit="10.0000" fill="none" />
</g>
<g transform="matrix(1.0000 0.0000 0.0000 1.0000 0.0000 0.0000)">
</g>
<g transform="matrix(0.0625 0.0000 0.0000 0.0625 0.0000 0.0000)">
<path d="M 1020.0000,3660.0000 L 1060.0000,3660.0000 " stroke="#000000" stroke-width="16.0000"  stroke-linecap="butt"  stroke-linejoin="miter"  stroke-miterlimit="10.0000" fill="none" />
</g>
<g transform="matrix(1.0000 0.0000 0.0000 1.0000 0.0000 0.0000)">
</g>
<g transform="matrix(0.0625 0.0000 0.0000 0.0625 0.0000 0.0000)">
<path d="M 1020.0000,3547.0000 L 980.0000,3547.0000 " stroke="#000000" stroke-width="16.0000"  stroke-linecap="butt"  stroke-linejoin="miter"  stroke-miterlimit="10.0000" fill="none" />
</g>
<g transform="matrix(1.0000 0.0000 0.0000 1.0000 0.0000 0.0000)">
</g>
<g transform="matrix(0.0625 0.0000 0.0000 0.0625 0.0000 0.0000)">
<path d="M 1020.0000,3547.0000 L 1060.0000,3547.0000 " stroke="#000000" stroke-width="16.0000"  stroke-linecap="butt"  stroke-linejoin="miter"  stroke-miterlimit="10.0000" fill="none" />
</g>
<g transform="matrix(1.0000 0.0000 0.0000 1.0000 0.0000 0.0000)">
</g>
<g transform="matrix(0.0625 0.0000 0.0000 0.0625 0.0000 0.0000)">
<path d="M 1020.0000,3435.0000 L 980.0000,3435.0000 " stroke="#000000" stroke-width="16.0000"  stroke-linecap="butt"  stroke-linejoin="miter"  stroke-miterlimit="10.0000" fill="none" />
</g>
<g transform="matrix(1.0000 0.0000 0.0000 1.0000 0.0000 0.0000)">
</g>
<g transform="matrix(0.0625 0.0000 0.0000 0.0625 0.0000 0.0000)">
<path d="M 1020.0000,3435.0000 L 1060.0000,3435.0000 " stroke="#000000" stroke-width="16.0000"  stroke-linecap="butt"  stroke-linejoin="miter"  stroke-miterlimit="10.0000" fill="none" />
</g>
<g transform="matrix(1.0000 0.0000 0.0000 1.0000 0.0000 0.0000)">
</g>
<g transform="matrix(0.0625 0.0000 0.0000 0.0625 0.0000 0.0000)">
<path d="M 1020.0000,3322.0000 L 980.0000,3322.0000 " stroke="#000000" stroke-width="16.0000"  stroke-linecap="butt"  stroke-linejoin="miter"  stroke-miterlimit="10.0000" fill="none" />
</g>
<g transform="matrix(1.0000 0.0000 0.0000 1.0000 0.0000 0.0000)">
</g>
<g transform="matrix(0.0625 0.0000 0.0000 0.0625 0.0000 0.0000)">
<path d="M 1020.0000,3322.0000 L 1060.0000,3322.0000 " stroke="#000000" stroke-width="16.0000"  stroke-linecap="butt"  stroke-linejoin="miter"  stroke-miterlimit="10.0000" fill="none" />
</g>
<g transform="matrix(1.0000 0.0000 0.0000 1.0000 0.0000 0.0000)">
</g>
<g transform="matrix(0.0625 0.0000 0.0000 0.0625 0.0000 0.0000)">
<path d="M 1020.0000,3096.0000 L 980.0000,3096.0000 " stroke="#000000" stroke-width="16.0000"  stroke-linecap="butt"  stroke-linejoin="miter"  stroke-miterlimit="10.0000" fill="none" />
</g>
<g transform="matrix(1.0000 0.0000 0.0000 1.0000 0.0000 0.0000)">
</g>
<g transform="matrix(0.0625 0.0000 0.0000 0.0625 0.0000 0.0000)">
<path d="M 1020.0000,3096.0000 L 1060.0000,3096.0000 " stroke="#000000" stroke-width="16.0000"  stroke-linecap="butt"  stroke-linejoin="miter"  stroke-miterlimit="10.0000" fill="none" />
</g>
<g transform="matrix(1.0000 0.0000 0.0000 1.0000 0.0000 0.0000)">
</g>
<g transform="matrix(0.0625 0.0000 0.0000 0.0625 0.0000 0.0000)">
<path d="M 1020.0000,2983.0000 L 980.0000,2983.0000 " stroke="#000000" stroke-width="16.0000"  stroke-linecap="butt"  stroke-linejoin="miter"  stroke-miterlimit="10.0000" fill="none" />
</g>
<g transform="matrix(1.0000 0.0000 0.0000 1.0000 0.0000 0.0000)">
</g>
<g transform="matrix(0.0625 0.0000 0.0000 0.0625 0.0000 0.0000)">
<path d="M 1020.0000,2983.0000 L 1060.0000,2983.0000 " stroke="#000000" stroke-width="16.0000"  stroke-linecap="butt"  stroke-linejoin="miter"  stroke-miterlimit="10.0000" fill="none" />
</g>
<g transform="matrix(1.0000 0.0000 0.0000 1.0000 0.0000 0.0000)">
</g>
<g transform="matrix(0.0625 0.0000 0.0000 0.0625 0.0000 0.0000)">
<path d="M 1020.0000,2870.0000 L 980.0000,2870.0000 " stroke="#000000" stroke-width="16.0000"  stroke-linecap="butt"  stroke-linejoin="miter"  stroke-miterlimit="10.0000" fill="none" />
</g>
<g transform="matrix(1.0000 0.0000 0.0000 1.0000 0.0000 0.0000)">
</g>
<g transform="matrix(0.0625 0.0000 0.0000 0.0625 0.0000 0.0000)">
<path d="M 1020.0000,2870.0000 L 1060.0000,2870.0000 " stroke="#000000" stroke-width="16.0000"  stroke-linecap="butt"  stroke-linejoin="miter"  stroke-miterlimit="10.0000" fill="none" />
</g>
<g transform="matrix(1.0000 0.0000 0.0000 1.0000 0.0000 0.0000)">
</g>
<g transform="matrix(0.0625 0.0000 0.0000 0.0625 0.0000 0.0000)">
<path d="M 1020.0000,2758.0000 L 980.0000,2758.0000 " stroke="#000000" stroke-width="16.0000"  stroke-linecap="butt"  stroke-linejoin="miter"  stroke-miterlimit="10.0000" fill="none" />
</g>
<g transform="matrix(1.0000 0.0000 0.0000 1.0000 0.0000 0.0000)">
</g>
<g transform="matrix(0.0625 0.0000 0.0000 0.0625 0.0000 0.0000)">
<path d="M 1020.0000,2758.0000 L 1060.0000,2758.0000 " stroke="#000000" stroke-width="16.0000"  stroke-linecap="butt"  stroke-linejoin="miter"  stroke-miterlimit="10.0000" fill="none" />
</g>
<g transform="matrix(1.0000 0.0000 0.0000 1.0000 0.0000 0.0000)">
</g>
<g transform="matrix(0.0625 0.0000 0.0000 0.0625 0.0000 0.0000)">
<path d="M 1020.0000,2532.0000 L 980.0000,2532.0000 " stroke="#000000" stroke-width="16.0000"  stroke-linecap="butt"  stroke-linejoin="miter"  stroke-miterlimit="10.0000" fill="none" />
</g>
<g transform="matrix(1.0000 0.0000 0.0000 1.0000 0.0000 0.0000)">
</g>
<g transform="matrix(0.0625 0.0000 0.0000 0.0625 0.0000 0.0000)">
<path d="M 1020.0000,2532.0000 L 1060.0000,2532.0000 " stroke="#000000" stroke-width="16.0000"  stroke-linecap="butt"  stroke-linejoin="miter"  stroke-miterlimit="10.0000" fill="none" />
</g>
<g transform="matrix(1.0000 0.0000 0.0000 1.0000 0.0000 0.0000)">
</g>
<g transform="matrix(0.0625 0.0000 0.0000 0.0625 0.0000 0.0000)">
<path d="M 1020.0000,2419.0000 L 980.0000,2419.0000 " stroke="#000000" stroke-width="16.0000"  stroke-linecap="butt"  stroke-linejoin="miter"  stroke-miterlimit="10.0000" fill="none" />
</g>
<g transform="matrix(1.0000 0.0000 0.0000 1.0000 0.0000 0.0000)">
</g>
<g transform="matrix(0.0625 0.0000 0.0000 0.0625 0.0000 0.0000)">
<path d="M 1020.0000,2419.0000 L 1060.0000,2419.0000 " stroke="#000000" stroke-width="16.0000"  stroke-linecap="butt"  stroke-linejoin="miter"  stroke-miterlimit="10.0000" fill="none" />
</g>
<g transform="matrix(1.0000 0.0000 0.0000 1.0000 0.0000 0.0000)">
</g>
<g transform="matrix(0.0625 0.0000 0.0000 0.0625 0.0000 0.0000)">
<path d="M 1020.0000,2306.0000 L 980.0000,2306.0000 " stroke="#000000" stroke-width="16.0000"  stroke-linecap="butt"  stroke-linejoin="miter"  stroke-miterlimit="10.0000" fill="none" />
</g>
<g transform="matrix(1.0000 0.0000 0.0000 1.0000 0.0000 0.0000)">
</g>
<g transform="matrix(0.0625 0.0000 0.0000 0.0625 0.0000 0.0000)">
<path d="M 1020.0000,2306.0000 L 1060.0000,2306.0000 " stroke="#000000" stroke-width="16.0000"  stroke-linecap="butt"  stroke-linejoin="miter"  stroke-miterlimit="10.0000" fill="none" />
</g>
<g transform="matrix(1.0000 0.0000 0.0000 1.0000 0.0000 0.0000)">
</g>
<g transform="matrix(0.0625 0.0000 0.0000 0.0625 0.0000 0.0000)">
<path d="M 1020.0000,2193.0000 L 980.0000,2193.0000 " stroke="#000000" stroke-width="16.0000"  stroke-linecap="butt"  stroke-linejoin="miter"  stroke-miterlimit="10.0000" fill="none" />
</g>
<g transform="matrix(1.0000 0.0000 0.0000 1.0000 0.0000 0.0000)">
</g>
<g transform="matrix(0.0625 0.0000 0.0000 0.0625 0.0000 0.0000)">
<path d="M 1020.0000,2193.0000 L 1060.0000,2193.0000 " stroke="#000000" stroke-width="16.0000"  stroke-linecap="butt"  stroke-linejoin="miter"  stroke-miterlimit="10.0000" fill="none" />
</g>
<g transform="matrix(1.0000 0.0000 0.0000 1.0000 0.0000 0.0000)">
</g>
<g transform="matrix(0.0625 0.0000 0.0000 0.0625 0.0000 0.0000)">
<path d="M 1020.0000,1968.0000 L 980.0000,1968.0000 " stroke="#000000" stroke-width="16.0000"  stroke-linecap="butt"  stroke-linejoin="miter"  stroke-miterlimit="10.0000" fill="none" />
</g>
<g transform="matrix(1.0000 0.0000 0.0000 1.0000 0.0000 0.0000)">
</g>
<g transform="matrix(0.0625 0.0000 0.0000 0.0625 0.0000 0.0000)">
<path d="M 1020.0000,1968.0000 L 1060.0000,1968.0000 " stroke="#000000" stroke-width="16.0000"  stroke-linecap="butt"  stroke-linejoin="miter"  stroke-miterlimit="10.0000" fill="none" />
</g>
<g transform="matrix(1.0000 0.0000 0.0000 1.0000 0.0000 0.0000)">
</g>
<g transform="matrix(0.0625 0.0000 0.0000 0.0625 0.0000 0.0000)">
<path d="M 1020.0000,1855.0000 L 980.0000,1855.0000 " stroke="#000000" stroke-width="16.0000"  stroke-linecap="butt"  stroke-linejoin="miter"  stroke-miterlimit="10.0000" fill="none" />
</g>
<g transform="matrix(1.0000 0.0000 0.0000 1.0000 0.0000 0.0000)">
</g>
<g transform="matrix(0.0625 0.0000 0.0000 0.0625 0.0000 0.0000)">
<path d="M 1020.0000,1855.0000 L 1060.0000,1855.0000 " stroke="#000000" stroke-width="16.0000"  stroke-linecap="butt"  stroke-linejoin="miter"  stroke-miterlimit="10.0000" fill="none" />
</g>
<g transform="matrix(1.0000 0.0000 0.0000 1.0000 0.0000 0.0000)">
</g>
<g transform="matrix(0.0625 0.0000 0.0000 0.0625 0.0000 0.0000)">
<path d="M 1020.0000,1742.0000 L 980.0000,1742.0000 " stroke="#000000" stroke-width="16.0000"  stroke-linecap="butt"  stroke-linejoin="miter"  stroke-miterlimit="10.0000" fill="none" />
</g>
<g transform="matrix(1.0000 0.0000 0.0000 1.0000 0.0000 0.0000)">
</g>
<g transform="matrix(0.0625 0.0000 0.0000 0.0625 0.0000 0.0000)">
<path d="M 1020.0000,1742.0000 L 1060.0000,1742.0000 " stroke="#000000" stroke-width="16.0000"  stroke-linecap="butt"  stroke-linejoin="miter"  stroke-miterlimit="10.0000" fill="none" />
</g>
<g transform="matrix(1.0000 0.0000 0.0000 1.0000 0.0000 0.0000)">
</g>
<g transform="matrix(0.0625 0.0000 0.0000 0.0625 0.0000 0.0000)">
<path d="M 1020.0000,1629.0000 L 980.0000,1629.0000 " stroke="#000000" stroke-width="16.0000"  stroke-linecap="butt"  stroke-linejoin="miter"  stroke-miterlimit="10.0000" fill="none" />
</g>
<g transform="matrix(1.0000 0.0000 0.0000 1.0000 0.0000 0.0000)">
</g>
<g transform="matrix(0.0625 0.0000 0.0000 0.0625 0.0000 0.0000)">
<path d="M 1020.0000,1629.0000 L 1060.0000,1629.0000 " stroke="#000000" stroke-width="16.0000"  stroke-linecap="butt"  stroke-linejoin="miter"  stroke-miterlimit="10.0000" fill="none" />
</g>
<g transform="matrix(1.0000 0.0000 0.0000 1.0000 0.0000 0.0000)">
</g>
<g transform="matrix(0.0625 0.0000 0.0000 0.0625 0.0000 0.0000)">
<path d="M 1020.0000,1404.0000 L 980.0000,1404.0000 " stroke="#000000" stroke-width="16.0000"  stroke-linecap="butt"  stroke-linejoin="miter"  stroke-miterlimit="10.0000" fill="none" />
</g>
<g transform="matrix(1.0000 0.0000 0.0000 1.0000 0.0000 0.0000)">
</g>
<g transform="matrix(0.0625 0.0000 0.0000 0.0625 0.0000 0.0000)">
<path d="M 1020.0000,1404.0000 L 1060.0000,1404.0000 " stroke="#000000" stroke-width="16.0000"  stroke-linecap="butt"  stroke-linejoin="miter"  stroke-miterlimit="10.0000" fill="none" />
</g>
<g transform="matrix(1.0000 0.0000 0.0000 1.0000 0.0000 0.0000)">
</g>
<g transform="matrix(0.0625 0.0000 0.0000 0.0625 0.0000 0.0000)">
<path d="M 1020.0000,1291.0000 L 980.0000,1291.0000 " stroke="#000000" stroke-width="16.0000"  stroke-linecap="butt"  stroke-linejoin="miter"  stroke-miterlimit="10.0000" fill="none" />
</g>
<g transform="matrix(1.0000 0.0000 0.0000 1.0000 0.0000 0.0000)">
</g>
<g transform="matrix(0.0625 0.0000 0.0000 0.0625 0.0000 0.0000)">
<path d="M 1020.0000,1291.0000 L 1060.0000,1291.0000 " stroke="#000000" stroke-width="16.0000"  stroke-linecap="butt"  stroke-linejoin="miter"  stroke-miterlimit="10.0000" fill="none" />
</g>
<g transform="matrix(1.0000 0.0000 0.0000 1.0000 0.0000 0.0000)">
</g>
<g transform="matrix(0.0625 0.0000 0.0000 0.0625 0.0000 0.0000)">
<path d="M 1020.0000,1178.0000 L 980.0000,1178.0000 " stroke="#000000" stroke-width="16.0000"  stroke-linecap="butt"  stroke-linejoin="miter"  stroke-miterlimit="10.0000" fill="none" />
</g>
<g transform="matrix(1.0000 0.0000 0.0000 1.0000 0.0000 0.0000)">
</g>
<g transform="matrix(0.0625 0.0000 0.0000 0.0625 0.0000 0.0000)">
<path d="M 1020.0000,1178.0000 L 1060.0000,1178.0000 " stroke="#000000" stroke-width="16.0000"  stroke-linecap="butt"  stroke-linejoin="miter"  stroke-miterlimit="10.0000" fill="none" />
</g>
<g transform="matrix(1.0000 0.0000 0.0000 1.0000 0.0000 0.0000)">
</g>
<g transform="matrix(0.0625 0.0000 0.0000 0.0625 0.0000 0.0000)">
<path d="M 1020.0000,1065.0000 L 980.0000,1065.0000 " stroke="#000000" stroke-width="16.0000"  stroke-linecap="butt"  stroke-linejoin="miter"  stroke-miterlimit="10.0000" fill="none" />
</g>
<g transform="matrix(1.0000 0.0000 0.0000 1.0000 0.0000 0.0000)">
</g>
<g transform="matrix(0.0625 0.0000 0.0000 0.0625 0.0000 0.0000)">
<path d="M 1020.0000,1065.0000 L 1060.0000,1065.0000 " stroke="#000000" stroke-width="16.0000"  stroke-linecap="butt"  stroke-linejoin="miter"  stroke-miterlimit="10.0000" fill="none" />
</g>
<g transform="matrix(1.0000 0.0000 0.0000 1.0000 0.0000 0.0000)">
</g>
<g transform="matrix(0.0625 0.0000 0.0000 0.0625 0.0000 0.0000)">
<path d="M 1317.0000,1440.0000 L 1317.0000,1555.0000 L 1910.0000,1555.0000 L 1910.0000,1440.0000 L 1317.0000,1440.0000 Z" stroke-width="1px" stroke="#FFA500"  fill="#FFA500" />
</g>
<g transform="matrix(1.0000 0.0000 0.0000 1.0000 0.0000 0.0000)">
</g>
<g transform="matrix(0.0625 0.0000 0.0000 0.0625 0.0000 0.0000)">
<path d="M 2503.0000,1978.0000 L 2503.0000,2081.0000 L 3096.0000,2081.0000 L 3096.0000,1978.0000 L 2503.0000,1978.0000 Z" stroke-width="1px" stroke="#FFA500"  fill="#FFA500" />
</g>
<g transform="matrix(1.0000 0.0000 0.0000 1.0000 0.0000 0.0000)">
</g>
<g transform="matrix(0.0625 0.0000 0.0000 0.0625 0.0000 0.0000)">
<path d="M 3689.0000,1440.0000 L 3689.0000,1560.0000 L 4283.0000,1560.0000 L 4283.0000,1440.0000 L 3689.0000,1440.0000 Z" stroke-width="1px" stroke="#FFA500"  fill="#FFA500" />
</g>
<g transform="matrix(1.0000 0.0000 0.0000 1.0000 0.0000 0.0000)">
</g>
<g transform="matrix(0.0625 0.0000 0.0000 0.0625 0.0000 0.0000)">
<path d="M 4876.0000,2306.0000 L 4876.0000,2399.0000 L 5469.0000,2399.0000 L 5469.0000,2306.0000 L 4876.0000,2306.0000 Z" stroke-width="1px" stroke="#FFA500"  fill="#FFA500" />
</g>
<g transform="matrix(1.0000 0.0000 0.0000 1.0000 0.0000 0.0000)">
</g>
<g transform="matrix(0.0625 0.0000 0.0000 0.0625 0.0000 0.0000)">
<path d="M 6062.0000,2254.0000 L 6062.0000,2343.0000 L 6655.0000,2343.0000 L 6655.0000,2254.0000 L 6062.0000,2254.0000 Z" stroke-width="1px" stroke="#FFA500"  fill="#FFA500" />
</g>
<g transform="matrix(1.0000 0.0000 0.0000 1.0000 0.0000 0.0000)">
</g>
<g transform="matrix(0.0625 0.0000 0.0000 0.0625 0.0000 0.0000)">
<path d="M 7248.0000,1996.0000 L 7248.0000,2094.0000 L 7841.0000,2094.0000 L 7841.0000,1996.0000 L 7248.0000,1996.0000 Z" stroke-width="1px" stroke="#FFA500"  fill="#FFA500" />
</g>
<g transform="matrix(1.0000 0.0000 0.0000 1.0000 0.0000 0.0000)">
</g>
<g transform="matrix(0.0625 0.0000 0.0000 0.0625 0.0000 0.0000)">
<path d="M 1317.0000,1555.0000 L 1317.0000,2296.0000 L 1910.0000,2296.0000 L 1910.0000,1555.0000 L 1317.0000,1555.0000 Z" stroke-width="1px" stroke="#008000"  fill="#008000" />
</g>
<g transform="matrix(1.0000 0.0000 0.0000 1.0000 0.0000 0.0000)">
</g>
<g transform="matrix(0.0625 0.0000 0.0000 0.0625 0.0000 0.0000)">
<path d="M 2503.0000,2081.0000 L 2503.0000,2665.0000 L 3096.0000,2665.0000 L 3096.0000,2081.0000 L 2503.0000,2081.0000 Z" stroke-width="1px" stroke="#008000"  fill="#008000" />
</g>
<g transform="matrix(1.0000 0.0000 0.0000 1.0000 0.0000 0.0000)">
</g>
<g transform="matrix(0.0625 0.0000 0.0000 0.0625 0.0000 0.0000)">
<path d="M 3689.0000,1560.0000 L 3689.0000,2262.0000 L 4283.0000,2262.0000 L 4283.0000,1560.0000 L 3689.0000,1560.0000 Z" stroke-width="1px" stroke="#008000"  fill="#008000" />
</g>
<g transform="matrix(1.0000 0.0000 0.0000 1.0000 0.0000 0.0000)">
</g>
<g transform="matrix(0.0625 0.0000 0.0000 0.0625 0.0000 0.0000)">
<path d="M 4876.0000,2399.0000 L 4876.0000,2940.0000 L 5469.0000,2940.0000 L 5469.0000,2399.0000 L 4876.0000,2399.0000 Z" stroke-width="1px" stroke="#008000"  fill="#008000" />
</g>
<g transform="matrix(1.0000 0.0000 0.0000 1.0000 0.0000 0.0000)">
</g>
<g transform="matrix(0.0625 0.0000 0.0000 0.0625 0.0000 0.0000)">
<path d="M 6062.0000,2343.0000 L 6062.0000,2879.0000 L 6655.0000,2879.0000 L 6655.0000,2343.0000 L 6062.0000,2343.0000 Z" stroke-width="1px" stroke="#008000"  fill="#008000" />
</g>
<g transform="matrix(1.0000 0.0000 0.0000 1.0000 0.0000 0.0000)">
</g>
<g transform="matrix(0.0625 0.0000 0.0000 0.0625 0.0000 0.0000)">
<path d="M 7248.0000,2094.0000 L 7248.0000,2678.0000 L 7841.0000,2678.0000 L 7841.0000,2094.0000 L 7248.0000,2094.0000 Z" stroke-width="1px" stroke="#008000"  fill="#008000" />
</g>
<g transform="matrix(1.0000 0.0000 0.0000 1.0000 0.0000 0.0000)">
</g>
<g transform="matrix(0.0625 0.0000 0.0000 0.0625 0.0000 0.0000)">
<path d="M 1317.0000,2296.0000 L 1317.0000,2815.0000 L 1910.0000,2815.0000 L 1910.0000,2296.0000 L 1317.0000,2296.0000 Z" stroke-width="1px" stroke="#008B8B"  fill="#008B8B" />
</g>
<g transform="matrix(1.0000 0.0000 0.0000 1.0000 0.0000 0.0000)">
</g>
<g transform="matrix(0.0625 0.0000 0.0000 0.0625 0.0000 0.0000)">
<path d="M 2503.0000,2665.0000 L 2503.0000,3142.0000 L 3096.0000,3142.0000 L 3096.0000,2665.0000 L 2503.0000,2665.0000 Z" stroke-width="1px" stroke="#008B8B"  fill="#008B8B" />
</g>
<g transform="matrix(1.0000 0.0000 0.0000 1.0000 0.0000 0.0000)">
</g>
<g transform="matrix(0.0625 0.0000 0.0000 0.0625 0.0000 0.0000)">
<path d="M 3689.0000,2262.0000 L 3689.0000,2796.0000 L 4283.0000,2796.0000 L 4283.0000,2262.0000 L 3689.0000,2262.0000 Z" stroke-width="1px" stroke="#008B8B"  fill="#008B8B" />
</g>
<g transform="matrix(1.0000 0.0000 0.0000 1.0000 0.0000 0.0000)">
</g>
<g transform="matrix(0.0625 0.0000 0.0000 0.0625 0.0000 0.0000)">
<path d="M 4876.0000,2940.0000 L 4876.0000,3353.0000 L 5469.0000,3353.0000 L 5469.0000,2940.0000 L 4876.0000,2940.0000 Z" stroke-width="1px" stroke="#008B8B"  fill="#008B8B" />
</g>
<g transform="matrix(1.0000 0.0000 0.0000 1.0000 0.0000 0.0000)">
</g>
<g transform="matrix(0.0625 0.0000 0.0000 0.0625 0.0000 0.0000)">
<path d="M 6062.0000,2879.0000 L 6062.0000,3301.0000 L 6655.0000,3301.0000 L 6655.0000,2879.0000 L 6062.0000,2879.0000 Z" stroke-width="1px" stroke="#008B8B"  fill="#008B8B" />
</g>
<g transform="matrix(1.0000 0.0000 0.0000 1.0000 0.0000 0.0000)">
</g>
<g transform="matrix(0.0625 0.0000 0.0000 0.0625 0.0000 0.0000)">
<path d="M 7248.0000,2678.0000 L 7248.0000,3136.0000 L 7841.0000,3136.0000 L 7841.0000,2678.0000 L 7248.0000,2678.0000 Z" stroke-width="1px" stroke="#008B8B"  fill="#008B8B" />
</g>
<g transform="matrix(1.0000 0.0000 0.0000 1.0000 0.0000 0.0000)">
</g>
<g transform="matrix(0.0625 0.0000 0.0000 0.0625 0.0000 0.0000)">
<path d="M 1317.0000,2815.0000 L 1317.0000,3120.0000 L 1910.0000,3120.0000 L 1910.0000,2815.0000 L 1317.0000,2815.0000 Z" stroke-width="1px" stroke="#D2691E"  fill="#D2691E" />
</g>
<g transform="matrix(1.0000 0.0000 0.0000 1.0000 0.0000 0.0000)">
</g>
<g transform="matrix(0.0625 0.0000 0.0000 0.0625 0.0000 0.0000)">
<path d="M 2503.0000,3142.0000 L 2503.0000,3389.0000 L 3096.0000,3389.0000 L 3096.0000,3142.0000 L 2503.0000,3142.0000 Z" stroke-width="1px" stroke="#D2691E"  fill="#D2691E" />
</g>
<g transform="matrix(1.0000 0.0000 0.0000 1.0000 0.0000 0.0000)">
</g>
<g transform="matrix(0.0625 0.0000 0.0000 0.0625 0.0000 0.0000)">
<path d="M 3689.0000,2796.0000 L 3689.0000,3085.0000 L 4283.0000,3085.0000 L 4283.0000,2796.0000 L 3689.0000,2796.0000 Z" stroke-width="1px" stroke="#D2691E"  fill="#D2691E" />
</g>
<g transform="matrix(1.0000 0.0000 0.0000 1.0000 0.0000 0.0000)">
</g>
<g transform="matrix(0.0625 0.0000 0.0000 0.0625 0.0000 0.0000)">
<path d="M 4876.0000,3353.0000 L 4876.0000,3595.0000 L 5469.0000,3595.0000 L 5469.0000,3353.0000 L 4876.0000,3353.0000 Z" stroke-width="1px" stroke="#D2691E"  fill="#D2691E" />
</g>
<g transform="matrix(1.0000 0.0000 0.0000 1.0000 0.0000 0.0000)">
</g>
<g transform="matrix(0.0625 0.0000 0.0000 0.0625 0.0000 0.0000)">
<path d="M 6062.0000,3301.0000 L 6062.0000,3534.0000 L 6655.0000,3534.0000 L 6655.0000,3301.0000 L 6062.0000,3301.0000 Z" stroke-width="1px" stroke="#D2691E"  fill="#D2691E" />
</g>
<g transform="matrix(1.0000 0.0000 0.0000 1.0000 0.0000 0.0000)">
</g>
<g transform="matrix(0.0625 0.0000 0.0000 0.0625 0.0000 0.0000)">
<path d="M 7248.0000,3136.0000 L 7248.0000,3393.0000 L 7841.0000,3393.0000 L 7841.0000,3136.0000 L 7248.0000,3136.0000 Z" stroke-width="1px" stroke="#D2691E"  fill="#D2691E" />
</g>
<g transform="matrix(1.0000 0.0000 0.0000 1.0000 0.0000 0.0000)">
</g>
<g transform="matrix(0.0625 0.0000 0.0000 0.0625 0.0000 0.0000)">
<path d="M 1317.0000,3120.0000 L 1317.0000,5405.0000 L 1910.0000,5405.0000 L 1910.0000,3120.0000 L 1317.0000,3120.0000 Z" stroke-width="1px" stroke="#A52A2A"  fill="#A52A2A" />
</g>
<g transform="matrix(1.0000 0.0000 0.0000 1.0000 0.0000 0.0000)">
</g>
<g transform="matrix(0.0625 0.0000 0.0000 0.0625 0.0000 0.0000)">
<path d="M 2503.0000,3389.0000 L 2503.0000,5418.0000 L 3096.0000,5418.0000 L 3096.0000,3389.0000 L 2503.0000,3389.0000 Z" stroke-width="1px" stroke="#A52A2A"  fill="#A52A2A" />
</g>
<g transform="matrix(1.0000 0.0000 0.0000 1.0000 0.0000 0.0000)">
</g>
<g transform="matrix(0.0625 0.0000 0.0000 0.0625 0.0000 0.0000)">
<path d="M 3689.0000,3085.0000 L 3689.0000,5408.0000 L 4283.0000,5408.0000 L 4283.0000,3085.0000 L 3689.0000,3085.0000 Z" stroke-width="1px" stroke="#A52A2A"  fill="#A52A2A" />
</g>
<g transform="matrix(1.0000 0.0000 0.0000 1.0000 0.0000 0.0000)">
</g>
<g transform="matrix(0.0625 0.0000 0.0000 0.0625 0.0000 0.0000)">
<path d="M 4876.0000,3595.0000 L 4876.0000,5430.0000 L 5469.0000,5430.0000 L 5469.0000,3595.0000 L 4876.0000,3595.0000 Z" stroke-width="1px" stroke="#A52A2A"  fill="#A52A2A" />
</g>
<g transform="matrix(1.0000 0.0000 0.0000 1.0000 0.0000 0.0000)">
</g>
<g transform="matrix(0.0625 0.0000 0.0000 0.0625 0.0000 0.0000)">
<path d="M 6062.0000,3534.0000 L 6062.0000,5425.0000 L 6655.0000,5425.0000 L 6655.0000,3534.0000 L 6062.0000,3534.0000 Z" stroke-width="1px" stroke="#A52A2A"  fill="#A52A2A" />
</g>
<g transform="matrix(1.0000 0.0000 0.0000 1.0000 0.0000 0.0000)">
</g>
<g transform="matrix(0.0625 0.0000 0.0000 0.0625 0.0000 0.0000)">
<path d="M 7248.0000,3393.0000 L 7248.0000,5423.0000 L 7841.0000,5423.0000 L 7841.0000,3393.0000 L 7248.0000,3393.0000 Z" stroke-width="1px" stroke="#A52A2A"  fill="#A52A2A" />
</g>
<g transform="matrix(1.0000 0.0000 0.0000 1.0000 0.0000 0.0000)">
</g>
<g transform="matrix(0.0625 0.0000 0.0000 0.0625 0.0000 0.0000)">
<path d="M 1317.0000,5405.0000 L 1317.0000,5465.0000 L 1910.0000,5465.0000 L 1910.0000,5405.0000 L 1317.0000,5405.0000 Z" stroke-width="1px" stroke="#8A2BE2"  fill="#8A2BE2" />
</g>
<g transform="matrix(1.0000 0.0000 0.0000 1.0000 0.0000 0.0000)">
</g>
<g transform="matrix(0.0625 0.0000 0.0000 0.0625 0.0000 0.0000)">
<path d="M 2503.0000,5418.0000 L 2503.0000,5465.0000 L 3096.0000,5465.0000 L 3096.0000,5418.0000 L 2503.0000,5418.0000 Z" stroke-width="1px" stroke="#8A2BE2"  fill="#8A2BE2" />
</g>
<g transform="matrix(1.0000 0.0000 0.0000 1.0000 0.0000 0.0000)">
</g>
<g transform="matrix(0.0625 0.0000 0.0000 0.0625 0.0000 0.0000)">
<path d="M 3689.0000,5408.0000 L 3689.0000,5465.0000 L 4283.0000,5465.0000 L 4283.0000,5408.0000 L 3689.0000,5408.0000 Z" stroke-width="1px" stroke="#8A2BE2"  fill="#8A2BE2" />
</g>
<g transform="matrix(1.0000 0.0000 0.0000 1.0000 0.0000 0.0000)">
</g>
<g transform="matrix(0.0625 0.0000 0.0000 0.0625 0.0000 0.0000)">
<path d="M 4876.0000,5430.0000 L 4876.0000,5465.0000 L 5469.0000,5465.0000 L 5469.0000,5430.0000 L 4876.0000,5430.0000 Z" stroke-width="1px" stroke="#8A2BE2"  fill="#8A2BE2" />
</g>
<g transform="matrix(1.0000 0.0000 0.0000 1.0000 0.0000 0.0000)">
</g>
<g transform="matrix(0.0625 0.0000 0.0000 0.0625 0.0000 0.0000)">
<path d="M 6062.0000,5425.0000 L 6062.0000,5465.0000 L 6655.0000,5465.0000 L 6655.0000,5425.0000 L 6062.0000,5425.0000 Z" stroke-width="1px" stroke="#8A2BE2"  fill="#8A2BE2" />
</g>
<g transform="matrix(1.0000 0.0000 0.0000 1.0000 0.0000 0.0000)">
</g>
<g transform="matrix(0.0625 0.0000 0.0000 0.0625 0.0000 0.0000)">
<path d="M 7248.0000,5423.0000 L 7248.0000,5465.0000 L 7841.0000,5465.0000 L 7841.0000,5423.0000 L 7248.0000,5423.0000 Z" stroke-width="1px" stroke="#8A2BE2"  fill="#8A2BE2" />
</g>
<g transform="matrix(1.0000 0.0000 0.0000 1.0000 0.0000 0.0000)">
</g>
<g transform="matrix(0.0625 0.0000 0.0000 0.0625 0.0000 0.0000)">
<path d="M 1020.0000,5465.0000 L 8138.0000,5465.0000 " stroke="#000000" stroke-width="16.0000"  stroke-linecap="butt"  stroke-linejoin="miter"  stroke-miterlimit="10.0000" fill="none" />
</g>
<g transform="matrix(1.0000 0.0000 0.0000 1.0000 0.0000 0.0000)">
</g>
<g transform="matrix(0.0625 0.0000 0.0000 0.0625 0.0000 0.0000)">
<path d="M 1614.0000,5465.0000 L 1614.0000,5545.0000 " stroke="#000000" stroke-width="16.0000"  stroke-linecap="butt"  stroke-linejoin="miter"  stroke-miterlimit="10.0000" fill="none" />
</g>
<g transform="matrix(1.0000 0.0000 0.0000 1.0000 0.0000 0.0000)">
</g>
<g transform="matrix(0.0625 0.0000 0.0000 0.0625 0.0000 0.0000)">
<path d="M 1614.0000,5465.0000 L 1614.0000,5385.0000 " stroke="#000000" stroke-width="16.0000"  stroke-linecap="butt"  stroke-linejoin="miter"  stroke-miterlimit="10.0000" fill="none" />
</g>
<g transform="matrix(1.0000 0.0000 0.0000 1.0000 0.0000 0.0000)">
<text font-family="MS UI Gothic" fill="#000000" style ="white-space:pre;" font-weight="400" text-anchor="start" x="78.0000" y="363.0000" font-size="13.0000" ><![CDATA[ライブラリ]]></text>
</g>
<g transform="matrix(0.0625 0.0000 0.0000 0.0625 0.0000 0.0000)">
<path d="M 2800.0000,5465.0000 L 2800.0000,5545.0000 " stroke="#000000" stroke-width="16.0000"  stroke-linecap="butt"  stroke-linejoin="miter"  stroke-miterlimit="10.0000" fill="none" />
</g>
<g transform="matrix(1.0000 0.0000 0.0000 1.0000 0.0000 0.0000)">
</g>
<g transform="matrix(0.0625 0.0000 0.0000 0.0625 0.0000 0.0000)">
<path d="M 2800.0000,5465.0000 L 2800.0000,5385.0000 " stroke="#000000" stroke-width="16.0000"  stroke-linecap="butt"  stroke-linejoin="miter"  stroke-miterlimit="10.0000" fill="none" />
</g>
<g transform="matrix(1.0000 0.0000 0.0000 1.0000 0.0000 0.0000)">
<text font-family="Arial" fill="#000000" style ="white-space:pre;" font-weight="400" text-anchor="start" x="160.0000" y="363.0000" font-size="12.0000" ><![CDATA[8fmol]]></text>
</g>
<g transform="matrix(0.0625 0.0000 0.0000 0.0625 0.0000 0.0000)">
<path d="M 3986.0000,5465.0000 L 3986.0000,5545.0000 " stroke="#000000" stroke-width="16.0000"  stroke-linecap="butt"  stroke-linejoin="miter"  stroke-miterlimit="10.0000" fill="none" />
</g>
<g transform="matrix(1.0000 0.0000 0.0000 1.0000 0.0000 0.0000)">
</g>
<g transform="matrix(0.0625 0.0000 0.0000 0.0625 0.0000 0.0000)">
<path d="M 3986.0000,5465.0000 L 3986.0000,5385.0000 " stroke="#000000" stroke-width="16.0000"  stroke-linecap="butt"  stroke-linejoin="miter"  stroke-miterlimit="10.0000" fill="none" />
</g>
<g transform="matrix(1.0000 0.0000 0.0000 1.0000 0.0000 0.0000)">
<text font-family="Arial" fill="#000000" style ="white-space:pre;" font-weight="400" text-anchor="start" x="230.0000" y="363.0000" font-size="12.0000" ><![CDATA[20fmol]]></text>
</g>
<g transform="matrix(0.0625 0.0000 0.0000 0.0625 0.0000 0.0000)">
<path d="M 5172.0000,5465.0000 L 5172.0000,5545.0000 " stroke="#000000" stroke-width="16.0000"  stroke-linecap="butt"  stroke-linejoin="miter"  stroke-miterlimit="10.0000" fill="none" />
</g>
<g transform="matrix(1.0000 0.0000 0.0000 1.0000 0.0000 0.0000)">
</g>
<g transform="matrix(0.0625 0.0000 0.0000 0.0625 0.0000 0.0000)">
<path d="M 5172.0000,5465.0000 L 5172.0000,5385.0000 " stroke="#000000" stroke-width="16.0000"  stroke-linecap="butt"  stroke-linejoin="miter"  stroke-miterlimit="10.0000" fill="none" />
</g>
<g transform="matrix(1.0000 0.0000 0.0000 1.0000 0.0000 0.0000)">
<text font-family="Arial" fill="#000000" style ="white-space:pre;" font-weight="400" text-anchor="start" x="304.0000" y="363.0000" font-size="12.0000" ><![CDATA[40fmol]]></text>
</g>
<g transform="matrix(0.0625 0.0000 0.0000 0.0625 0.0000 0.0000)">
<path d="M 6358.0000,5465.0000 L 6358.0000,5545.0000 " stroke="#000000" stroke-width="16.0000"  stroke-linecap="butt"  stroke-linejoin="miter"  stroke-miterlimit="10.0000" fill="none" />
</g>
<g transform="matrix(1.0000 0.0000 0.0000 1.0000 0.0000 0.0000)">
</g>
<g transform="matrix(0.0625 0.0000 0.0000 0.0625 0.0000 0.0000)">
<path d="M 6358.0000,5465.0000 L 6358.0000,5385.0000 " stroke="#000000" stroke-width="16.0000"  stroke-linecap="butt"  stroke-linejoin="miter"  stroke-miterlimit="10.0000" fill="none" />
</g>
<g transform="matrix(1.0000 0.0000 0.0000 1.0000 0.0000 0.0000)">
<text font-family="Arial" fill="#000000" style ="white-space:pre;" font-weight="400" text-anchor="start" x="378.0000" y="363.0000" font-size="12.0000" ><![CDATA[80fmol]]></text>
</g>
<g transform="matrix(0.0625 0.0000 0.0000 0.0625 0.0000 0.0000)">
<path d="M 7545.0000,5465.0000 L 7545.0000,5545.0000 " stroke="#000000" stroke-width="16.0000"  stroke-linecap="butt"  stroke-linejoin="miter"  stroke-miterlimit="10.0000" fill="none" />
</g>
<g transform="matrix(1.0000 0.0000 0.0000 1.0000 0.0000 0.0000)">
</g>
<g transform="matrix(0.0625 0.0000 0.0000 0.0625 0.0000 0.0000)">
<path d="M 7545.0000,5465.0000 L 7545.0000,5385.0000 " stroke="#000000" stroke-width="16.0000"  stroke-linecap="butt"  stroke-linejoin="miter"  stroke-miterlimit="10.0000" fill="none" />
</g>
<g transform="matrix(1.0000 0.0000 0.0000 1.0000 0.0000 0.0000)">
<text font-family="Arial" fill="#000000" style ="white-space:pre;" font-weight="400" text-anchor="start" x="449.0000" y="363.0000" font-size="12.0000" ><![CDATA[200fmol]]></text>
<text font-family="MS UI Gothic" fill="#000000" style ="white-space:pre;" font-weight="700" text-anchor="start" x="243.0000" y="384.0000" font-size="15.0000" ><![CDATA[繰]]></text>
<text font-family="MS UI Gothic" fill="#000000" style ="white-space:pre;" font-weight="700" text-anchor="start" x="259.0000" y="384.0000" font-size="15.0000" ><![CDATA[り]]></text>
<text font-family="MS UI Gothic" fill="#000000" style ="white-space:pre;" font-weight="700" text-anchor="start" x="269.0000" y="384.0000" font-size="15.0000" ><![CDATA[返]]></text>
<text font-family="MS UI Gothic" fill="#000000" style ="white-space:pre;" font-weight="700" text-anchor="start" x="285.0000" y="384.0000" font-size="15.0000" ><![CDATA[し]]></text>
<text font-family="MS UI Gothic" fill="#000000" style ="white-space:pre;" font-weight="700" text-anchor="start" x="297.0000" y="384.0000" font-size="15.0000" ><![CDATA[測定]]></text>
</g>
<g transform="matrix(0.0625 0.0000 0.0000 0.0625 0.0000 0.0000)">
<path d="M 1020.0000,952.0000 L 1020.0000,5465.0000 " stroke="#000000" stroke-width="16.0000"  stroke-linecap="butt"  stroke-linejoin="miter"  stroke-miterlimit="10.0000" fill="none" />
</g>
<g transform="matrix(1.0000 0.0000 0.0000 1.0000 0.0000 0.0000)">
</g>
<g transform="matrix(0.0625 0.0000 0.0000 0.0625 0.0000 0.0000)">
<path d="M 1020.0000,5465.0000 L 940.0000,5465.0000 " stroke="#000000" stroke-width="16.0000"  stroke-linecap="butt"  stroke-linejoin="miter"  stroke-miterlimit="10.0000" fill="none" />
</g>
<g transform="matrix(1.0000 0.0000 0.0000 1.0000 0.0000 0.0000)">
</g>
<g transform="matrix(0.0625 0.0000 0.0000 0.0625 0.0000 0.0000)">
<path d="M 1020.0000,5465.0000 L 1100.0000,5465.0000 " stroke="#000000" stroke-width="16.0000"  stroke-linecap="butt"  stroke-linejoin="miter"  stroke-miterlimit="10.0000" fill="none" />
</g>
<g transform="matrix(1.0000 0.0000 0.0000 1.0000 0.0000 0.0000)">
<text font-family="Arial" fill="#000000" style ="white-space:pre;" font-weight="400" text-anchor="start" x="39.0000" y="346.0000" font-size="14.0000" ><![CDATA[0]]></text>
</g>
<g transform="matrix(0.0625 0.0000 0.0000 0.0625 0.0000 0.0000)">
<path d="M 1020.0000,4901.0000 L 940.0000,4901.0000 " stroke="#000000" stroke-width="16.0000"  stroke-linecap="butt"  stroke-linejoin="miter"  stroke-miterlimit="10.0000" fill="none" />
</g>
<g transform="matrix(1.0000 0.0000 0.0000 1.0000 0.0000 0.0000)">
</g>
<g transform="matrix(0.0625 0.0000 0.0000 0.0625 0.0000 0.0000)">
<path d="M 1020.0000,4901.0000 L 1100.0000,4901.0000 " stroke="#000000" stroke-width="16.0000"  stroke-linecap="butt"  stroke-linejoin="miter"  stroke-miterlimit="10.0000" fill="none" />
</g>
<g transform="matrix(1.0000 0.0000 0.0000 1.0000 0.0000 0.0000)">
<text font-family="Arial" fill="#000000" style ="white-space:pre;" font-weight="400" text-anchor="start" x="35.0000" y="310.0000" font-size="14.0000" ><![CDATA[10]]></text>
</g>
<g transform="matrix(0.0625 0.0000 0.0000 0.0625 0.0000 0.0000)">
<path d="M 1020.0000,4337.0000 L 940.0000,4337.0000 " stroke="#000000" stroke-width="16.0000"  stroke-linecap="butt"  stroke-linejoin="miter"  stroke-miterlimit="10.0000" fill="none" />
</g>
<g transform="matrix(1.0000 0.0000 0.0000 1.0000 0.0000 0.0000)">
</g>
<g transform="matrix(0.0625 0.0000 0.0000 0.0625 0.0000 0.0000)">
<path d="M 1020.0000,4337.0000 L 1100.0000,4337.0000 " stroke="#000000" stroke-width="16.0000"  stroke-linecap="butt"  stroke-linejoin="miter"  stroke-miterlimit="10.0000" fill="none" />
</g>
<g transform="matrix(1.0000 0.0000 0.0000 1.0000 0.0000 0.0000)">
<text font-family="Arial" fill="#000000" style ="white-space:pre;" font-weight="400" text-anchor="start" x="35.0000" y="275.0000" font-size="14.0000" ><![CDATA[20]]></text>
</g>
<g transform="matrix(0.0625 0.0000 0.0000 0.0625 0.0000 0.0000)">
<path d="M 1020.0000,3773.0000 L 940.0000,3773.0000 " stroke="#000000" stroke-width="16.0000"  stroke-linecap="butt"  stroke-linejoin="miter"  stroke-miterlimit="10.0000" fill="none" />
</g>
<g transform="matrix(1.0000 0.0000 0.0000 1.0000 0.0000 0.0000)">
</g>
<g transform="matrix(0.0625 0.0000 0.0000 0.0625 0.0000 0.0000)">
<path d="M 1020.0000,3773.0000 L 1100.0000,3773.0000 " stroke="#000000" stroke-width="16.0000"  stroke-linecap="butt"  stroke-linejoin="miter"  stroke-miterlimit="10.0000" fill="none" />
</g>
<g transform="matrix(1.0000 0.0000 0.0000 1.0000 0.0000 0.0000)">
<text font-family="Arial" fill="#000000" style ="white-space:pre;" font-weight="400" text-anchor="start" x="35.0000" y="240.0000" font-size="14.0000" ><![CDATA[30]]></text>
</g>
<g transform="matrix(0.0625 0.0000 0.0000 0.0625 0.0000 0.0000)">
<path d="M 1020.0000,3209.0000 L 940.0000,3209.0000 " stroke="#000000" stroke-width="16.0000"  stroke-linecap="butt"  stroke-linejoin="miter"  stroke-miterlimit="10.0000" fill="none" />
</g>
<g transform="matrix(1.0000 0.0000 0.0000 1.0000 0.0000 0.0000)">
</g>
<g transform="matrix(0.0625 0.0000 0.0000 0.0625 0.0000 0.0000)">
<path d="M 1020.0000,3209.0000 L 1100.0000,3209.0000 " stroke="#000000" stroke-width="16.0000"  stroke-linecap="butt"  stroke-linejoin="miter"  stroke-miterlimit="10.0000" fill="none" />
</g>
<g transform="matrix(1.0000 0.0000 0.0000 1.0000 0.0000 0.0000)">
<text font-family="Arial" fill="#000000" style ="white-space:pre;" font-weight="400" text-anchor="start" x="35.0000" y="205.0000" font-size="14.0000" ><![CDATA[40]]></text>
</g>
<g transform="matrix(0.0625 0.0000 0.0000 0.0625 0.0000 0.0000)">
<path d="M 1020.0000,2645.0000 L 940.0000,2645.0000 " stroke="#000000" stroke-width="16.0000"  stroke-linecap="butt"  stroke-linejoin="miter"  stroke-miterlimit="10.0000" fill="none" />
</g>
<g transform="matrix(1.0000 0.0000 0.0000 1.0000 0.0000 0.0000)">
</g>
<g transform="matrix(0.0625 0.0000 0.0000 0.0625 0.0000 0.0000)">
<path d="M 1020.0000,2645.0000 L 1100.0000,2645.0000 " stroke="#000000" stroke-width="16.0000"  stroke-linecap="butt"  stroke-linejoin="miter"  stroke-miterlimit="10.0000" fill="none" />
</g>
<g transform="matrix(1.0000 0.0000 0.0000 1.0000 0.0000 0.0000)">
<text font-family="Arial" fill="#000000" style ="white-space:pre;" font-weight="400" text-anchor="start" x="35.0000" y="169.0000" font-size="14.0000" ><![CDATA[50]]></text>
</g>
<g transform="matrix(0.0625 0.0000 0.0000 0.0625 0.0000 0.0000)">
<path d="M 1020.0000,2081.0000 L 940.0000,2081.0000 " stroke="#000000" stroke-width="16.0000"  stroke-linecap="butt"  stroke-linejoin="miter"  stroke-miterlimit="10.0000" fill="none" />
</g>
<g transform="matrix(1.0000 0.0000 0.0000 1.0000 0.0000 0.0000)">
</g>
<g transform="matrix(0.0625 0.0000 0.0000 0.0625 0.0000 0.0000)">
<path d="M 1020.0000,2081.0000 L 1100.0000,2081.0000 " stroke="#000000" stroke-width="16.0000"  stroke-linecap="butt"  stroke-linejoin="miter"  stroke-miterlimit="10.0000" fill="none" />
</g>
<g transform="matrix(1.0000 0.0000 0.0000 1.0000 0.0000 0.0000)">
<text font-family="Arial" fill="#000000" style ="white-space:pre;" font-weight="400" text-anchor="start" x="35.0000" y="134.0000" font-size="14.0000" ><![CDATA[60]]></text>
</g>
<g transform="matrix(0.0625 0.0000 0.0000 0.0625 0.0000 0.0000)">
<path d="M 1020.0000,1517.0000 L 940.0000,1517.0000 " stroke="#000000" stroke-width="16.0000"  stroke-linecap="butt"  stroke-linejoin="miter"  stroke-miterlimit="10.0000" fill="none" />
</g>
<g transform="matrix(1.0000 0.0000 0.0000 1.0000 0.0000 0.0000)">
</g>
<g transform="matrix(0.0625 0.0000 0.0000 0.0625 0.0000 0.0000)">
<path d="M 1020.0000,1517.0000 L 1100.0000,1517.0000 " stroke="#000000" stroke-width="16.0000"  stroke-linecap="butt"  stroke-linejoin="miter"  stroke-miterlimit="10.0000" fill="none" />
</g>
<g transform="matrix(1.0000 0.0000 0.0000 1.0000 0.0000 0.0000)">
<text font-family="Arial" fill="#000000" style ="white-space:pre;" font-weight="400" text-anchor="start" x="35.0000" y="99.0000" font-size="14.0000" ><![CDATA[70]]></text>
</g>
<g transform="matrix(0.0625 0.0000 0.0000 0.0625 0.0000 0.0000)">
<path d="M 1020.0000,952.0000 L 940.0000,952.0000 " stroke="#000000" stroke-width="16.0000"  stroke-linecap="butt"  stroke-linejoin="miter"  stroke-miterlimit="10.0000" fill="none" />
</g>
<g transform="matrix(1.0000 0.0000 0.0000 1.0000 0.0000 0.0000)">
</g>
<g transform="matrix(0.0625 0.0000 0.0000 0.0625 0.0000 0.0000)">
<path d="M 1020.0000,952.0000 L 1100.0000,952.0000 " stroke="#000000" stroke-width="16.0000"  stroke-linecap="butt"  stroke-linejoin="miter"  stroke-miterlimit="10.0000" fill="none" />
</g>
<g transform="matrix(1.0000 0.0000 0.0000 1.0000 0.0000 0.0000)">
<text font-family="Arial" fill="#000000" style ="white-space:pre;" font-weight="400" text-anchor="start" x="35.0000" y="64.0000" font-size="14.0000" ><![CDATA[80]]></text>
<text font-family="MS UI Gothic" fill="#000000" transform="rotate(-90, 23.0000, 271.5000) translate(0, 13.5000)" style ="white-space:pre;" font-weight="700" text-anchor="start" x="23.0000" y="258.0000" font-size="15.0000" ><![CDATA[ピ]]></text>
<text font-family="MS UI Gothic" fill="#000000" transform="rotate(-90, 23.0000, 259.5000) translate(0, 13.5000)" style ="white-space:pre;" font-weight="700" text-anchor="start" x="23.0000" y="246.0000" font-size="15.0000" ><![CDATA[ー]]></text>
<text font-family="MS UI Gothic" fill="#000000" transform="rotate(-90, 23.0000, 246.5000) translate(0, 13.5000)" style ="white-space:pre;" font-weight="700" text-anchor="start" x="23.0000" y="233.0000" font-size="15.0000" ><![CDATA[ク]]></text>
<text font-family="MS UI Gothic" fill="#000000" transform="rotate(-90, 23.0000, 235.5000) translate(0, 13.5000)" style ="white-space:pre;" font-weight="700" text-anchor="start" x="23.0000" y="222.0000" font-size="15.0000" ><![CDATA[面]]></text>
<text font-family="MS UI Gothic" fill="#000000" transform="rotate(-90, 23.0000, 219.5000) translate(0, 13.5000)" style ="white-space:pre;" font-weight="700" text-anchor="start" x="23.0000" y="206.0000" font-size="15.0000" ><![CDATA[積]]></text>
<text font-family="Arial" fill="#000000" transform="rotate(-90, 23.0000, 202.6000) translate(0, 12.6000)" style ="white-space:pre;" font-weight="700" text-anchor="start" x="23.0000" y="190.0000" font-size="14.0000" ><![CDATA[ ]]></text>
<text font-family="Arial" fill="#000000" transform="rotate(-90, 23.0000, 198.6000) translate(0, 12.6000)" style ="white-space:pre;" font-weight="700" text-anchor="start" x="23.0000" y="186.0000" font-size="14.0000" ><![CDATA[(]]></text>
<text font-family="Arial" fill="#000000" transform="rotate(-90, 23.0000, 193.6000) translate(0, 12.6000)" style ="white-space:pre;" font-weight="700" text-anchor="start" x="23.0000" y="181.0000" font-size="14.0000" ><![CDATA[1]]></text>
<text font-family="Arial" fill="#000000" transform="rotate(-90, 23.0000, 185.6000) translate(0, 12.6000)" style ="white-space:pre;" font-weight="700" text-anchor="start" x="23.0000" y="173.0000" font-size="14.0000" ><![CDATA[0]]></text>
<text font-family="Arial" fill="#000000" transform="rotate(-90, 23.0000, 177.6000) translate(0, 12.6000)" style ="white-space:pre;" font-weight="700" text-anchor="start" x="23.0000" y="165.0000" font-size="14.0000" ><![CDATA[^]]></text>
<text font-family="Arial" fill="#000000" transform="rotate(-90, 23.0000, 169.6000) translate(0, 12.6000)" style ="white-space:pre;" font-weight="700" text-anchor="start" x="23.0000" y="157.0000" font-size="14.0000" ><![CDATA[6]]></text>
<text font-family="Arial" fill="#000000" transform="rotate(-90, 23.0000, 161.6000) translate(0, 12.6000)" style ="white-space:pre;" font-weight="700" text-anchor="start" x="23.0000" y="149.0000" font-size="14.0000" ><![CDATA[)]]></text>
<path d="M 63.0000,19.0000 L 63.0000,52.0000 L 473.0000,52.0000 L 473.0000,19.0000 L 63.0000,19.0000 Z" stroke-width="1px" stroke="#FFFFFF"  fill="#FFFFFF" />
<text font-family="Arial" fill="#000000" style ="white-space:pre;" font-weight="400" text-anchor="start" x="104.0000" y="34.0000" font-size="12.0000" ><![CDATA[y9 - 1050.5466+]]></text>
</g>
<g transform="matrix(0.0625 0.0000 0.0000 0.0625 0.0000 0.0000)">
<path d="M 1076.0000,416.0000 L 1076.0000,528.0000 L 1524.0000,528.0000 L 1524.0000,416.0000 L 1076.0000,416.0000 Z" stroke-width="1px" stroke="#8A2BE2"  fill="#8A2BE2" />
</g>
<g transform="matrix(1.0000 0.0000 0.0000 1.0000 0.0000 0.0000)">
<text font-family="Arial" fill="#000000" style ="white-space:pre;" font-weight="400" text-anchor="start" x="241.0000" y="34.0000" font-size="12.0000" ><![CDATA[y8 - 951.4782+]]></text>
</g>
<g transform="matrix(0.0625 0.0000 0.0000 0.0625 0.0000 0.0000)">
<path d="M 3258.0000,416.0000 L 3258.0000,528.0000 L 3706.0000,528.0000 L 3706.0000,416.0000 L 3258.0000,416.0000 Z" stroke-width="1px" stroke="#A52A2A"  fill="#A52A2A" />
</g>
<g transform="matrix(1.0000 0.0000 0.0000 1.0000 0.0000 0.0000)">
<text font-family="Arial" fill="#000000" style ="white-space:pre;" font-weight="400" text-anchor="start" x="377.0000" y="34.0000" font-size="12.0000" ><![CDATA[y7 - 837.4353+]]></text>
</g>
<g transform="matrix(0.0625 0.0000 0.0000 0.0625 0.0000 0.0000)">
<path d="M 5440.0000,416.0000 L 5440.0000,528.0000 L 5888.0000,528.0000 L 5888.0000,416.0000 L 5440.0000,416.0000 Z" stroke-width="1px" stroke="#D2691E"  fill="#D2691E" />
</g>
<g transform="matrix(1.0000 0.0000 0.0000 1.0000 0.0000 0.0000)">
<text font-family="Arial" fill="#000000" style ="white-space:pre;" font-weight="400" text-anchor="start" x="105.0000" y="48.0000" font-size="12.0000" ><![CDATA[y6 - 708.3927+]]></text>
</g>
<g transform="matrix(0.0625 0.0000 0.0000 0.0625 0.0000 0.0000)">
<path d="M 1076.0000,640.0000 L 1076.0000,752.0000 L 1524.0000,752.0000 L 1524.0000,640.0000 L 1076.0000,640.0000 Z" stroke-width="1px" stroke="#008B8B"  fill="#008B8B" />
</g>
<g transform="matrix(1.0000 0.0000 0.0000 1.0000 0.0000 0.0000)">
<text font-family="Arial" fill="#000000" style ="white-space:pre;" font-weight="400" text-anchor="start" x="241.0000" y="48.0000" font-size="12.0000" ><![CDATA[y5 - 595.3086+]]></text>
</g>
<g transform="matrix(0.0625 0.0000 0.0000 0.0625 0.0000 0.0000)">
<path d="M 3258.0000,640.0000 L 3258.0000,752.0000 L 3706.0000,752.0000 L 3706.0000,640.0000 L 3258.0000,640.0000 Z" stroke-width="1px" stroke="#008000"  fill="#008000" />
</g>
<g transform="matrix(1.0000 0.0000 0.0000 1.0000 0.0000 0.0000)">
<text font-family="Arial" fill="#000000" style ="white-space:pre;" font-weight="400" text-anchor="start" x="377.0000" y="48.0000" font-size="12.0000" ><![CDATA[b9 - 1017.5251+]]></text>
</g>
<g transform="matrix(0.0625 0.0000 0.0000 0.0625 0.0000 0.0000)">
<path d="M 5440.0000,640.0000 L 5440.0000,752.0000 L 5888.0000,752.0000 L 5888.0000,640.0000 L 5440.0000,640.0000 Z" stroke-width="1px" stroke="#FFA500"  fill="#FFA500" />
</g>
<g transform="matrix(1.0000 0.0000 0.0000 1.0000 0.0000 0.0000)">
</g>
<g transform="matrix(0.0625 0.0000 0.0000 0.0625 0.0000 0.0000)">
<path d="M 1020.0000,312.0000 L 7566.0000,312.0000 L 7566.0000,840.0000 L 1020.0000,840.0000 Z" stroke="#000000" stroke-width="16.0000"  stroke-linecap="butt"  stroke-linejoin="miter"  stroke-miterlimit="10.0000" fill="none" />
</g>
<g transform="matrix(1.0000 0.0000 0.0000 1.0000 0.0000 0.0000)">
<defs><clipPath id="clip-41"><path d="M 64.0000,60.0000 L 509.0000,60.0000 L 509.0000,342.0000 L 64.0000,342.0000 L 64.0000,60.0000 Z Z" /></clipPath></defs>
</g>
<g transform="matrix(0.0625 0.0000 0.0000 0.0625 0.0000 0.0000)">
<path  clip-path="url(#clip-41)" d="M 1020.0000,1440.0000 L 2195.0000,1440.0000 L 2195.0000,5465.0000 L 1020.0000,5465.0000 Z" stroke="#000000" stroke-width="16.0000"  stroke-linecap="butt"  stroke-linejoin="miter"  stroke-miterlimit="10.0000" fill="none" />
</g>
<g transform="matrix(1.0000 0.0000 0.0000 1.0000 0.0000 0.0000)">
</g>
</g>
</svg>
