<?xml version="1.0" encoding="UTF-8" standalone="no"?>
<!DOCTYPE svg PUBLIC "-//W3C//DTD SVG 1.1//EN"
 "http://www.w3.org/Graphics/SVG/1.1/DTD/svg11.dtd">
<!-- Generated by graphviz version 13.0.1 (20250615.1724)
 -->
<!-- Title: pwiz_module_detail Pages: 1 -->
<svg width="503pt" height="392pt"
 viewBox="0.00 0.00 503.00 392.00" xmlns="http://www.w3.org/2000/svg" xmlns:xlink="http://www.w3.org/1999/xlink">
<g id="graph0" class="graph" transform="scale(1 1) rotate(0) translate(4 388)">
<title>pwiz_module_detail</title>
<polygon fill="white" stroke="none" points="-4,4 -4,-388 499,-388 499,4 -4,4"/>
<text xml:space="preserve" text-anchor="start" x="106.88" y="-367.7" font-family="Segoe UI" font-weight="bold" font-size="14.00">pwiz/data/common — file&#45;level port status</text>
<text xml:space="preserve" text-anchor="start" x="36" y="-357.5" font-family="Segoe UI" font-size="10.00">one node per .cpp/.hpp pair (test fixtures omitted); each group is its own row, top&#45;to&#45;bottom</text>
<g id="clust1" class="cluster">
<title>cluster_data_common_CV_OBO</title>
<path fill="none" stroke="#888888" stroke-dasharray="5,2" d="M33,-265C33,-265 475,-265 475,-265 481,-265 487,-271 487,-277 487,-277 487,-332 487,-332 487,-338 481,-344 475,-344 475,-344 33,-344 33,-344 27,-344 21,-338 21,-332 21,-332 21,-277 21,-277 21,-271 27,-265 33,-265"/>
<text xml:space="preserve" text-anchor="start" x="229.62" y="-330.55" font-family="Segoe UI" font-weight="bold" font-size="11.00">CV / OBO</text>
</g>
<g id="clust2" class="cluster">
<title>cluster_data_common_Param_Diff</title>
<path fill="none" stroke="#888888" stroke-dasharray="5,2" d="M36,-178C36,-178 168,-178 168,-178 174,-178 180,-184 180,-190 180,-190 180,-245 180,-245 180,-251 174,-257 168,-257 168,-257 36,-257 36,-257 30,-257 24,-251 24,-245 24,-245 24,-190 24,-190 24,-184 30,-178 36,-178"/>
<text xml:space="preserve" text-anchor="start" x="69.75" y="-243.55" font-family="Segoe UI" font-weight="bold" font-size="11.00">Param / Diff</text>
</g>
<g id="clust3" class="cluster">
<title>cluster_data_common_Index</title>
<path fill="none" stroke="#888888" stroke-dasharray="5,2" d="M20,-91C20,-91 276,-91 276,-91 282,-91 288,-97 288,-103 288,-103 288,-158 288,-158 288,-164 282,-170 276,-170 276,-170 20,-170 20,-170 14,-170 8,-164 8,-158 8,-158 8,-103 8,-103 8,-97 14,-91 20,-91"/>
<text xml:space="preserve" text-anchor="start" x="133.38" y="-156.55" font-family="Segoe UI" font-weight="bold" font-size="11.00">Index</text>
</g>
<g id="clust4" class="cluster">
<title>cluster_legend</title>
<path fill="none" stroke="#444444" d="M45,-8C45,-8 391,-8 391,-8 397,-8 403,-14 403,-20 403,-20 403,-71 403,-71 403,-77 397,-83 391,-83 391,-83 45,-83 45,-83 39,-83 33,-77 33,-71 33,-71 33,-20 33,-20 33,-14 39,-8 45,-8"/>
<text xml:space="preserve" text-anchor="start" x="201.88" y="-69.55" font-family="Segoe UI" font-weight="bold" font-size="11.00">Status</text>
</g>
<!-- n_data__common__CVTranslator -->
<g id="node1" class="node">
<title>n_data__common__CVTranslator</title>
<g id="a_node1"><a xlink:href="https://github.com/ProteoWizard/pwiz/blob/master/pwiz/data/common/CVTranslator.cpp" xlink:title="Free&#45;text → CVID heuristic mapper (vendor name strings → MS_LCMS_xxx).&#10;Ported as Common/Cv/CvTranslator.cs. Used by every vendor Reader&#39;s&#10;TranslateInstrumentModel helper." target="_blank">
<path fill="#9ee5a3" stroke="#2c7a32" d="M92.88,-311C92.88,-311 43.12,-311 43.12,-311 37.12,-311 31.12,-305 31.12,-299 31.12,-299 31.12,-287 31.12,-287 31.12,-281 37.12,-275 43.12,-275 43.12,-275 92.88,-275 92.88,-275 98.88,-275 104.88,-281 104.88,-287 104.88,-287 104.88,-299 104.88,-299 104.88,-305 98.88,-311 92.88,-311"/>
<text xml:space="preserve" text-anchor="middle" x="68" y="-290.62" font-family="Segoe UI" font-size="10.00" fill="#0a3d10">CVTranslator</text>
</a>
</g>
</g>
<!-- n_data__common__Unimod -->
<g id="node2" class="node">
<title>n_data__common__Unimod</title>
<g id="a_node2"><a xlink:href="https://github.com/ProteoWizard/pwiz/blob/master/pwiz/data/common/Unimod.cpp" xlink:title="Unimod modification database.&#10;Ported as Common/Cv/Unimod.cs with embedded unimod.obo + populated specificity&#10;tables (real Δmono/Δavg masses, per&#45;AA&#45;position specificities)." target="_blank">
<path fill="#9ee5a3" stroke="#2c7a32" d="M161,-311C161,-311 131,-311 131,-311 125,-311 119,-305 119,-299 119,-299 119,-287 119,-287 119,-281 125,-275 131,-275 131,-275 161,-275 161,-275 167,-275 173,-281 173,-287 173,-287 173,-299 173,-299 173,-305 167,-311 161,-311"/>
<text xml:space="preserve" text-anchor="middle" x="146" y="-290.62" font-family="Segoe UI" font-size="10.00" fill="#0a3d10">Unimod</text>
</a>
</g>
</g>
<!-- n_data__common__CVTranslator&#45;&gt;n_data__common__Unimod -->
<!-- n_data__common__ParamTypes -->
<g id="node7" class="node">
<title>n_data__common__ParamTypes</title>
<g id="a_node7"><a xlink:href="https://github.com/ProteoWizard/pwiz/blob/master/pwiz/data/common/ParamTypes.cpp" xlink:title="ParamContainer / ParamGroup / CVParam / UserParam.&#10;Ported as Common/Params/ParamContainer.cs + CvParam.cs + UserParam.cs.&#10;Same accessor surface as cpp (Set/Get/HasCVParam/cvParamChild/UserParams)." target="_blank">
<path fill="#9ee5a3" stroke="#2c7a32" d="M90.25,-224C90.25,-224 45.75,-224 45.75,-224 39.75,-224 33.75,-218 33.75,-212 33.75,-212 33.75,-200 33.75,-200 33.75,-194 39.75,-188 45.75,-188 45.75,-188 90.25,-188 90.25,-188 96.25,-188 102.25,-194 102.25,-200 102.25,-200 102.25,-212 102.25,-212 102.25,-218 96.25,-224 90.25,-224"/>
<text xml:space="preserve" text-anchor="middle" x="68" y="-203.62" font-family="Segoe UI" font-size="10.00" fill="#0a3d10">ParamTypes</text>
</a>
</g>
</g>
<!-- n_data__common__CVTranslator&#45;&gt;n_data__common__ParamTypes -->
<!-- n_data__common__cv -->
<g id="node3" class="node">
<title>n_data__common__cv</title>
<g id="a_node3"><a xlink:href="https://github.com/ProteoWizard/pwiz/blob/master/pwiz/data/common/cv.cpp" xlink:title="Auto&#45;generated PSI&#45;MS controlled&#45;vocabulary table.&#10;Ported as Common/Cv/CVID.generated.cs (~30K enum entries) plus CvLookup&#10;for term name/ID lookup. Generated by Common/Cv/generate_cvid.py from cv.hpp." target="_blank">
<path fill="#9ee5a3" stroke="#2c7a32" d="M229,-311C229,-311 199,-311 199,-311 193,-311 187,-305 187,-299 187,-299 187,-287 187,-287 187,-281 193,-275 199,-275 199,-275 229,-275 229,-275 235,-275 241,-281 241,-287 241,-287 241,-299 241,-299 241,-305 235,-311 229,-311"/>
<text xml:space="preserve" text-anchor="middle" x="214" y="-290.62" font-family="Segoe UI" font-size="10.00" fill="#0a3d10">cv</text>
</a>
</g>
</g>
<!-- n_data__common__Unimod&#45;&gt;n_data__common__cv -->
<!-- n_data__common__cvgen -->
<g id="node4" class="node">
<title>n_data__common__cvgen</title>
<g id="a_node4"><a xlink:href="https://github.com/ProteoWizard/pwiz/blob/master/pwiz/data/common/cvgen.cpp" xlink:title="Code&#45;gen tool — replaced by Common/Cv/generate_cvid.py (Python)." target="_blank">
<path fill="#dcdcdc" stroke="#888888" d="M297,-311C297,-311 267,-311 267,-311 261,-311 255,-305 255,-299 255,-299 255,-287 255,-287 255,-281 261,-275 267,-275 267,-275 297,-275 297,-275 303,-275 309,-281 309,-287 309,-287 309,-299 309,-299 309,-305 303,-311 297,-311"/>
<text xml:space="preserve" text-anchor="start" x="268.88" y="-291.62" font-family="Segoe UI" text-decoration="line-through" font-size="10.00" fill="#555555">cvgen</text>
</a>
</g>
</g>
<!-- n_data__common__cv&#45;&gt;n_data__common__cvgen -->
<!-- n_data__common__cvgen_common -->
<g id="node5" class="node">
<title>n_data__common__cvgen_common</title>
<g id="a_node5"><a xlink:href="https://github.com/ProteoWizard/pwiz/blob/master/pwiz/data/common/cvgen_common.hpp" xlink:title="Code&#45;gen helpers — folded into generate_cvid.py." target="_blank">
<path fill="#dcdcdc" stroke="#888888" d="M396.88,-311C396.88,-311 335.12,-311 335.12,-311 329.12,-311 323.12,-305 323.12,-299 323.12,-299 323.12,-287 323.12,-287 323.12,-281 329.12,-275 335.12,-275 335.12,-275 396.88,-275 396.88,-275 402.88,-275 408.88,-281 408.88,-287 408.88,-287 408.88,-299 408.88,-299 408.88,-305 402.88,-311 396.88,-311"/>
<text xml:space="preserve" text-anchor="start" x="331.12" y="-291.62" font-family="Segoe UI" text-decoration="line-through" font-size="10.00" fill="#555555">cvgen_common</text>
</a>
</g>
</g>
<!-- n_data__common__cvgen&#45;&gt;n_data__common__cvgen_common -->
<!-- n_data__common__obo -->
<g id="node6" class="node">
<title>n_data__common__obo</title>
<g id="a_node6"><a xlink:href="https://github.com/ProteoWizard/pwiz/blob/master/pwiz/data/common/obo.cpp" xlink:title="OBO 1.2 parser. Ported as Common/Cv/OboParser.cs.&#10;Drives the cv / unit / unimod term tables from embedded .obo resources at&#10;Common/Cv/Resources/. Round&#45;trip parity tests live in Common.Tests." target="_blank">
<path fill="#9ee5a3" stroke="#2c7a32" d="M465,-311C465,-311 435,-311 435,-311 429,-311 423,-305 423,-299 423,-299 423,-287 423,-287 423,-281 429,-275 435,-275 435,-275 465,-275 465,-275 471,-275 477,-281 477,-287 477,-287 477,-299 477,-299 477,-305 471,-311 465,-311"/>
<text xml:space="preserve" text-anchor="middle" x="450" y="-290.62" font-family="Segoe UI" font-size="10.00" fill="#0a3d10">obo</text>
</a>
</g>
</g>
<!-- n_data__common__cvgen_common&#45;&gt;n_data__common__obo -->
<!-- n_data__common__diff_std -->
<g id="node8" class="node">
<title>n_data__common__diff_std</title>
<g id="a_node8"><a xlink:href="https://github.com/ProteoWizard/pwiz/blob/master/pwiz/data/common/diff_std.cpp" xlink:title="Generic diff infrastructure: Diff&lt;T&gt;, DiffConfig, DiffResult&lt;T&gt;.&#10;Ported as Common/Diff.cs. Drives MSData/IdentData round&#45;trip parity&#10;tests + the msdiff tool replacement." target="_blank">
<path fill="#9ee5a3" stroke="#2c7a32" d="M158,-224C158,-224 128,-224 128,-224 122,-224 116,-218 116,-212 116,-212 116,-200 116,-200 116,-194 122,-188 128,-188 128,-188 158,-188 158,-188 164,-188 170,-194 170,-200 170,-200 170,-212 170,-212 170,-218 164,-224 158,-224"/>
<text xml:space="preserve" text-anchor="middle" x="143" y="-203.62" font-family="Segoe UI" font-size="10.00" fill="#0a3d10">diff_std</text>
</a>
</g>
</g>
<!-- n_data__common__ParamTypes&#45;&gt;n_data__common__diff_std -->
<!-- n_data__common__BinaryIndexStream -->
<g id="node9" class="node">
<title>n_data__common__BinaryIndexStream</title>
<g id="a_node9"><a xlink:href="https://github.com/ProteoWizard/pwiz/blob/master/pwiz/data/common/BinaryIndexStream.cpp" xlink:title="Random&#45;access index serialized to a binary stream (used by mzML offset cache).&#10;Ported as Common/Index/BinaryIndexStream.cs." target="_blank">
<path fill="#9ee5a3" stroke="#2c7a32" d="M106,-137C106,-137 30,-137 30,-137 24,-137 18,-131 18,-125 18,-125 18,-113 18,-113 18,-107 24,-101 30,-101 30,-101 106,-101 106,-101 112,-101 118,-107 118,-113 118,-113 118,-125 118,-125 118,-131 112,-137 106,-137"/>
<text xml:space="preserve" text-anchor="middle" x="68" y="-116.62" font-family="Segoe UI" font-size="10.00" fill="#0a3d10">BinaryIndexStream</text>
</a>
</g>
</g>
<!-- n_data__common__ParamTypes&#45;&gt;n_data__common__BinaryIndexStream -->
<!-- n_data__common__Index -->
<g id="node10" class="node">
<title>n_data__common__Index</title>
<g id="a_node10"><a xlink:href="https://github.com/ProteoWizard/pwiz/blob/master/pwiz/data/common/Index.hpp" xlink:title="IIndex interface satisfied by both MemoryIndex + BinaryIndexStream." target="_blank">
<path fill="#9ee5a3" stroke="#2c7a32" d="M174,-137C174,-137 144,-137 144,-137 138,-137 132,-131 132,-125 132,-125 132,-113 132,-113 132,-107 138,-101 144,-101 144,-101 174,-101 174,-101 180,-101 186,-107 186,-113 186,-113 186,-125 186,-125 186,-131 180,-137 174,-137"/>
<text xml:space="preserve" text-anchor="middle" x="159" y="-116.62" font-family="Segoe UI" font-size="10.00" fill="#0a3d10">Index</text>
</a>
</g>
</g>
<!-- n_data__common__BinaryIndexStream&#45;&gt;n_data__common__Index -->
<!-- legend_full -->
<g id="node12" class="node">
<title>legend_full</title>
<path fill="#9ee5a3" stroke="#2c7a32" d="M83,-52C83,-52 53,-52 53,-52 47,-52 41,-46 41,-40 41,-40 41,-28 41,-28 41,-22 47,-16 53,-16 53,-16 83,-16 83,-16 89,-16 95,-22 95,-28 95,-28 95,-40 95,-40 95,-46 89,-52 83,-52"/>
<text xml:space="preserve" text-anchor="middle" x="68" y="-31.62" font-family="Segoe UI" font-size="10.00" fill="#0a3d10">ported</text>
</g>
<!-- n_data__common__BinaryIndexStream&#45;&gt;legend_full -->
<!-- n_data__common__MemoryIndex -->
<g id="node11" class="node">
<title>n_data__common__MemoryIndex</title>
<g id="a_node11"><a xlink:href="https://github.com/ProteoWizard/pwiz/blob/master/pwiz/data/common/MemoryIndex.cpp" xlink:title="In&#45;memory IIndex implementation. Ported as Common/Index/MemoryIndex.cs." target="_blank">
<path fill="#9ee5a3" stroke="#2c7a32" d="M265.75,-137C265.75,-137 212.25,-137 212.25,-137 206.25,-137 200.25,-131 200.25,-125 200.25,-125 200.25,-113 200.25,-113 200.25,-107 206.25,-101 212.25,-101 212.25,-101 265.75,-101 265.75,-101 271.75,-101 277.75,-107 277.75,-113 277.75,-113 277.75,-125 277.75,-125 277.75,-131 271.75,-137 265.75,-137"/>
<text xml:space="preserve" text-anchor="middle" x="239" y="-116.62" font-family="Segoe UI" font-size="10.00" fill="#0a3d10">MemoryIndex</text>
</a>
</g>
</g>
<!-- n_data__common__Index&#45;&gt;n_data__common__MemoryIndex -->
<!-- legend_partial -->
<g id="node13" class="node">
<title>legend_partial</title>
<path fill="#ffe48a" stroke="#a87000" d="M151,-52C151,-52 121,-52 121,-52 115,-52 109,-46 109,-40 109,-40 109,-28 109,-28 109,-22 115,-16 121,-16 121,-16 151,-16 151,-16 157,-16 163,-22 163,-28 163,-28 163,-40 163,-40 163,-46 157,-52 151,-52"/>
<text xml:space="preserve" text-anchor="middle" x="136" y="-31.62" font-family="Segoe UI" font-size="10.00" fill="#4a3000">partial</text>
</g>
<!-- legend_full&#45;&gt;legend_partial -->
<!-- legend_none -->
<g id="node14" class="node">
<title>legend_none</title>
<path fill="#f5a8a8" stroke="#a02020" d="M247,-52C247,-52 189,-52 189,-52 183,-52 177,-46 177,-40 177,-40 177,-28 177,-28 177,-22 183,-16 189,-16 189,-16 247,-16 247,-16 253,-16 259,-22 259,-28 259,-28 259,-40 259,-40 259,-46 253,-52 247,-52"/>
<text xml:space="preserve" text-anchor="middle" x="218" y="-31.62" font-family="Segoe UI" font-size="10.00" fill="#3d0a0a">not yet ported</text>
</g>
<!-- legend_partial&#45;&gt;legend_none -->
<!-- legend_skipped -->
<g id="node15" class="node">
<title>legend_skipped</title>
<path fill="#dcdcdc" stroke="#888888" d="M382.5,-52C382.5,-52 285.5,-52 285.5,-52 279.5,-52 273.5,-46 273.5,-40 273.5,-40 273.5,-28 273.5,-28 273.5,-22 279.5,-16 285.5,-16 285.5,-16 382.5,-16 382.5,-16 388.5,-16 394.5,-22 394.5,-28 394.5,-28 394.5,-40 394.5,-40 394.5,-46 388.5,-52 382.5,-52"/>
<text xml:space="preserve" text-anchor="start" x="281.5" y="-32.62" font-family="Segoe UI" text-decoration="line-through" font-size="10.00" fill="#555555">won&#39;t port (BCL/legacy)</text>
</g>
<!-- legend_none&#45;&gt;legend_skipped -->
</g>
</svg>
