<?xml version="1.0" encoding="UTF-8" standalone="no"?>
<!DOCTYPE svg PUBLIC "-//W3C//DTD SVG 1.1//EN"
 "http://www.w3.org/Graphics/SVG/1.1/DTD/svg11.dtd">
<!-- Generated by graphviz version 13.0.1 (20250615.1724)
 -->
<!-- Title: pwiz_module_detail Pages: 1 -->
<svg width="697pt" height="653pt"
 viewBox="0.00 0.00 697.00 653.00" xmlns="http://www.w3.org/2000/svg" xmlns:xlink="http://www.w3.org/1999/xlink">
<g id="graph0" class="graph" transform="scale(1 1) rotate(0) translate(4 649)">
<title>pwiz_module_detail</title>
<polygon fill="white" stroke="none" points="-4,4 -4,-649 693,-649 693,4 -4,4"/>
<text xml:space="preserve" text-anchor="start" x="200.88" y="-628.7" font-family="Segoe UI" font-weight="bold" font-size="14.00">pwiz/data/identdata — file&#45;level port status</text>
<text xml:space="preserve" text-anchor="start" x="133" y="-618.5" font-family="Segoe UI" font-size="10.00">one node per .cpp/.hpp pair (test fixtures omitted); each group is its own row, top&#45;to&#45;bottom</text>
<g id="clust1" class="cluster">
<title>cluster_data_identdata_Core_model</title>
<path fill="none" stroke="#888888" stroke-dasharray="5,2" d="M40,-526C40,-526 334,-526 334,-526 340,-526 346,-532 346,-538 346,-538 346,-593 346,-593 346,-599 340,-605 334,-605 334,-605 40,-605 40,-605 34,-605 28,-599 28,-593 28,-593 28,-538 28,-538 28,-532 34,-526 40,-526"/>
<text xml:space="preserve" text-anchor="start" x="157.38" y="-591.55" font-family="Segoe UI" font-weight="bold" font-size="11.00">Core model</text>
</g>
<g id="clust2" class="cluster">
<title>cluster_data_identdata_Reader_dispatch</title>
<path fill="none" stroke="#888888" stroke-dasharray="5,2" d="M20,-439C20,-439 273,-439 273,-439 279,-439 285,-445 285,-451 285,-451 285,-506 285,-506 285,-512 279,-518 273,-518 273,-518 20,-518 20,-518 14,-518 8,-512 8,-506 8,-506 8,-451 8,-451 8,-445 14,-439 20,-439"/>
<text xml:space="preserve" text-anchor="start" x="105.25" y="-504.55" font-family="Segoe UI" font-weight="bold" font-size="11.00">Reader dispatch</text>
</g>
<g id="clust3" class="cluster">
<title>cluster_data_identdata_Serializers</title>
<path fill="none" stroke="#888888" stroke-dasharray="5,2" d="M31,-352C31,-352 669,-352 669,-352 675,-352 681,-358 681,-364 681,-364 681,-419 681,-419 681,-425 675,-431 669,-431 669,-431 31,-431 31,-431 25,-431 19,-425 19,-419 19,-419 19,-364 19,-364 19,-358 25,-352 31,-352"/>
<text xml:space="preserve" text-anchor="start" x="324.12" y="-417.55" font-family="Segoe UI" font-weight="bold" font-size="11.00">Serializers</text>
</g>
<g id="clust4" class="cluster">
<title>cluster_data_identdata_IO</title>
<path fill="none" stroke="#888888" stroke-dasharray="5,2" d="M40,-265C40,-265 90,-265 90,-265 96,-265 102,-271 102,-277 102,-277 102,-332 102,-332 102,-338 96,-344 90,-344 90,-344 40,-344 40,-344 34,-344 28,-338 28,-332 28,-332 28,-277 28,-277 28,-271 34,-265 40,-265"/>
<text xml:space="preserve" text-anchor="start" x="59" y="-330.55" font-family="Segoe UI" font-weight="bold" font-size="11.00">IO</text>
</g>
<g id="clust5" class="cluster">
<title>cluster_data_identdata_Predicates_CV</title>
<path fill="none" stroke="#888888" stroke-dasharray="5,2" d="M36,-178C36,-178 191,-178 191,-178 197,-178 203,-184 203,-190 203,-190 203,-245 203,-245 203,-251 197,-257 191,-257 191,-257 36,-257 36,-257 30,-257 24,-251 24,-245 24,-245 24,-190 24,-190 24,-184 30,-178 36,-178"/>
<text xml:space="preserve" text-anchor="start" x="74.12" y="-243.55" font-family="Segoe UI" font-weight="bold" font-size="11.00">Predicates / CV</text>
</g>
<g id="clust6" class="cluster">
<title>cluster_data_identdata_Conversion_examples</title>
<path fill="none" stroke="#888888" stroke-dasharray="5,2" d="M29,-91C29,-91 172,-91 172,-91 178,-91 184,-97 184,-103 184,-103 184,-158 184,-158 184,-164 178,-170 172,-170 172,-170 29,-170 29,-170 23,-170 17,-164 17,-158 17,-158 17,-103 17,-103 17,-97 23,-91 29,-91"/>
<text xml:space="preserve" text-anchor="start" x="42" y="-156.55" font-family="Segoe UI" font-weight="bold" font-size="11.00">Conversion / examples</text>
</g>
<g id="clust7" class="cluster">
<title>cluster_legend</title>
<path fill="none" stroke="#444444" d="M42,-8C42,-8 388,-8 388,-8 394,-8 400,-14 400,-20 400,-20 400,-71 400,-71 400,-77 394,-83 388,-83 388,-83 42,-83 42,-83 36,-83 30,-77 30,-71 30,-71 30,-20 30,-20 30,-14 36,-8 42,-8"/>
<text xml:space="preserve" text-anchor="start" x="198.88" y="-69.55" font-family="Segoe UI" font-weight="bold" font-size="11.00">Status</text>
</g>
<!-- n_data__identdata__Diff -->
<g id="node1" class="node">
<title>n_data__identdata__Diff</title>
<g id="a_node1"><a xlink:href="https://github.com/ProteoWizard/pwiz/blob/master/pwiz/data/identdata/Diff.cpp" xlink:title="IdentData&#45;specific diff specialization. Ported as IdentData/Diff.cs." target="_blank">
<path fill="#9ee5a3" stroke="#2c7a32" d="M80,-572C80,-572 50,-572 50,-572 44,-572 38,-566 38,-560 38,-560 38,-548 38,-548 38,-542 44,-536 50,-536 50,-536 80,-536 80,-536 86,-536 92,-542 92,-548 92,-548 92,-560 92,-560 92,-566 86,-572 80,-572"/>
<text xml:space="preserve" text-anchor="middle" x="65" y="-551.62" font-family="Segoe UI" font-size="10.00" fill="#0a3d10">Diff</text>
</a>
</g>
</g>
<!-- n_data__identdata__IdentData -->
<g id="node2" class="node">
<title>n_data__identdata__IdentData</title>
<g id="a_node2"><a xlink:href="https://github.com/ProteoWizard/pwiz/blob/master/pwiz/data/identdata/IdentData.cpp" xlink:title="Top&#45;level mzIdentML container model. Ported as IdentData/IdentData.cs + per&#45;element classes (Mzid/*)." target="_blank">
<path fill="#9ee5a3" stroke="#2c7a32" d="M155.5,-572C155.5,-572 118.5,-572 118.5,-572 112.5,-572 106.5,-566 106.5,-560 106.5,-560 106.5,-548 106.5,-548 106.5,-542 112.5,-536 118.5,-536 118.5,-536 155.5,-536 155.5,-536 161.5,-536 167.5,-542 167.5,-548 167.5,-548 167.5,-560 167.5,-560 167.5,-566 161.5,-572 155.5,-572"/>
<text xml:space="preserve" text-anchor="middle" x="137" y="-551.62" font-family="Segoe UI" font-size="10.00" fill="#0a3d10">IdentData</text>
</a>
</g>
</g>
<!-- n_data__identdata__Diff&#45;&gt;n_data__identdata__IdentData -->
<!-- n_data__identdata__DefaultReaderList -->
<g id="node5" class="node">
<title>n_data__identdata__DefaultReaderList</title>
<g id="a_node5"><a xlink:href="https://github.com/ProteoWizard/pwiz/blob/master/pwiz/data/identdata/DefaultReaderList.cpp" xlink:title="Reader dispatcher (mzid / pepXML). Ported as IdentData/DefaultReaderList.cs." target="_blank">
<path fill="#9ee5a3" stroke="#2c7a32" d="M100.38,-485C100.38,-485 29.62,-485 29.62,-485 23.62,-485 17.62,-479 17.62,-473 17.62,-473 17.62,-461 17.62,-461 17.62,-455 23.62,-449 29.62,-449 29.62,-449 100.38,-449 100.38,-449 106.38,-449 112.38,-455 112.38,-461 112.38,-461 112.38,-473 112.38,-473 112.38,-479 106.38,-485 100.38,-485"/>
<text xml:space="preserve" text-anchor="middle" x="65" y="-464.62" font-family="Segoe UI" font-size="10.00" fill="#0a3d10">DefaultReaderList</text>
</a>
</g>
</g>
<!-- n_data__identdata__Diff&#45;&gt;n_data__identdata__DefaultReaderList -->
<!-- n_data__identdata__IdentDataFile -->
<g id="node3" class="node">
<title>n_data__identdata__IdentDataFile</title>
<g id="a_node3"><a xlink:href="https://github.com/ProteoWizard/pwiz/blob/master/pwiz/data/identdata/IdentDataFile.cpp" xlink:title="File&#45;level helpers (open/save). Ported as IdentData/IdentDataFile.cs." target="_blank">
<path fill="#9ee5a3" stroke="#2c7a32" d="M246,-572C246,-572 194,-572 194,-572 188,-572 182,-566 182,-560 182,-560 182,-548 182,-548 182,-542 188,-536 194,-536 194,-536 246,-536 246,-536 252,-536 258,-542 258,-548 258,-548 258,-560 258,-560 258,-566 252,-572 246,-572"/>
<text xml:space="preserve" text-anchor="middle" x="220" y="-551.62" font-family="Segoe UI" font-size="10.00" fill="#0a3d10">IdentDataFile</text>
</a>
</g>
</g>
<!-- n_data__identdata__IdentData&#45;&gt;n_data__identdata__IdentDataFile -->
<!-- n_data__identdata__References -->
<g id="node4" class="node">
<title>n_data__identdata__References</title>
<g id="a_node4"><a xlink:href="https://github.com/ProteoWizard/pwiz/blob/master/pwiz/data/identdata/References.cpp" xlink:title="IDREF resolver for the IdentData graph. Ported as IdentData/References.cs." target="_blank">
<path fill="#9ee5a3" stroke="#2c7a32" d="M324.38,-572C324.38,-572 283.62,-572 283.62,-572 277.62,-572 271.62,-566 271.62,-560 271.62,-560 271.62,-548 271.62,-548 271.62,-542 277.62,-536 283.62,-536 283.62,-536 324.38,-536 324.38,-536 330.38,-536 336.38,-542 336.38,-548 336.38,-548 336.38,-560 336.38,-560 336.38,-566 330.38,-572 324.38,-572"/>
<text xml:space="preserve" text-anchor="middle" x="304" y="-551.62" font-family="Segoe UI" font-size="10.00" fill="#0a3d10">References</text>
</a>
</g>
</g>
<!-- n_data__identdata__IdentDataFile&#45;&gt;n_data__identdata__References -->
<!-- n_data__identdata__MascotReader -->
<g id="node6" class="node">
<title>n_data__identdata__MascotReader</title>
<g id="a_node6"><a xlink:href="https://github.com/ProteoWizard/pwiz/blob/master/pwiz/data/identdata/MascotReader.cpp" xlink:title="Mascot .dat parser. NOT PORTED — niche; users go via pepXML." target="_blank">
<path fill="#f5a8a8" stroke="#a02020" d="M195.25,-485C195.25,-485 138.75,-485 138.75,-485 132.75,-485 126.75,-479 126.75,-473 126.75,-473 126.75,-461 126.75,-461 126.75,-455 132.75,-449 138.75,-449 138.75,-449 195.25,-449 195.25,-449 201.25,-449 207.25,-455 207.25,-461 207.25,-461 207.25,-473 207.25,-473 207.25,-479 201.25,-485 195.25,-485"/>
<text xml:space="preserve" text-anchor="middle" x="167" y="-464.62" font-family="Segoe UI" font-size="10.00" fill="#3d0a0a">MascotReader</text>
</a>
</g>
</g>
<!-- n_data__identdata__DefaultReaderList&#45;&gt;n_data__identdata__MascotReader -->
<!-- n_data__identdata__DelimReader -->
<g id="node8" class="node">
<title>n_data__identdata__DelimReader</title>
<g id="a_node8"><a xlink:href="https://github.com/ProteoWizard/pwiz/blob/master/pwiz/data/identdata/DelimReader.cpp" xlink:title="TSV / CSV import (PeptideShaker, MSGF+ outputs). NOT PORTED — re&#45;port when a consumer asks." target="_blank">
<path fill="#f5a8a8" stroke="#a02020" d="M89.12,-398C89.12,-398 40.88,-398 40.88,-398 34.88,-398 28.88,-392 28.88,-386 28.88,-386 28.88,-374 28.88,-374 28.88,-368 34.88,-362 40.88,-362 40.88,-362 89.12,-362 89.12,-362 95.12,-362 101.12,-368 101.12,-374 101.12,-374 101.12,-386 101.12,-386 101.12,-392 95.12,-398 89.12,-398"/>
<text xml:space="preserve" text-anchor="middle" x="65" y="-377.62" font-family="Segoe UI" font-size="10.00" fill="#3d0a0a">DelimReader</text>
</a>
</g>
</g>
<!-- n_data__identdata__DefaultReaderList&#45;&gt;n_data__identdata__DelimReader -->
<!-- n_data__identdata__Reader -->
<g id="node7" class="node">
<title>n_data__identdata__Reader</title>
<g id="a_node7"><a xlink:href="https://github.com/ProteoWizard/pwiz/blob/master/pwiz/data/identdata/Reader.cpp" xlink:title="IReader interface for IdentData files. Ported as IdentData/Reader.cs." target="_blank">
<path fill="#9ee5a3" stroke="#2c7a32" d="M263,-485C263,-485 233,-485 233,-485 227,-485 221,-479 221,-473 221,-473 221,-461 221,-461 221,-455 227,-449 233,-449 233,-449 263,-449 263,-449 269,-449 275,-455 275,-461 275,-461 275,-473 275,-473 275,-479 269,-485 263,-485"/>
<text xml:space="preserve" text-anchor="middle" x="248" y="-464.62" font-family="Segoe UI" font-size="10.00" fill="#0a3d10">Reader</text>
</a>
</g>
</g>
<!-- n_data__identdata__MascotReader&#45;&gt;n_data__identdata__Reader -->
<!-- n_data__identdata__DelimWriter -->
<g id="node9" class="node">
<title>n_data__identdata__DelimWriter</title>
<g id="a_node9"><a xlink:href="https://github.com/ProteoWizard/pwiz/blob/master/pwiz/data/identdata/DelimWriter.cpp" xlink:title="TSV / CSV export. NOT PORTED." target="_blank">
<path fill="#f5a8a8" stroke="#a02020" d="M171.25,-398C171.25,-398 126.75,-398 126.75,-398 120.75,-398 114.75,-392 114.75,-386 114.75,-386 114.75,-374 114.75,-374 114.75,-368 120.75,-362 126.75,-362 126.75,-362 171.25,-362 171.25,-362 177.25,-362 183.25,-368 183.25,-374 183.25,-374 183.25,-386 183.25,-386 183.25,-392 177.25,-398 171.25,-398"/>
<text xml:space="preserve" text-anchor="middle" x="149" y="-377.62" font-family="Segoe UI" font-size="10.00" fill="#3d0a0a">DelimWriter</text>
</a>
</g>
</g>
<!-- n_data__identdata__DelimReader&#45;&gt;n_data__identdata__DelimWriter -->
<!-- n_data__identdata__IO -->
<g id="node15" class="node">
<title>n_data__identdata__IO</title>
<g id="a_node15"><a xlink:href="https://github.com/ProteoWizard/pwiz/blob/master/pwiz/data/identdata/IO.cpp" xlink:title="mzIdentML element&#45;by&#45;element parser. Ported as IdentData/Mzid/MzidReader.cs + MzidWriter.cs." target="_blank">
<path fill="#9ee5a3" stroke="#2c7a32" d="M80,-311C80,-311 50,-311 50,-311 44,-311 38,-305 38,-299 38,-299 38,-287 38,-287 38,-281 44,-275 50,-275 50,-275 80,-275 80,-275 86,-275 92,-281 92,-287 92,-287 92,-299 92,-299 92,-305 86,-311 80,-311"/>
<text xml:space="preserve" text-anchor="middle" x="65" y="-290.62" font-family="Segoe UI" font-size="10.00" fill="#0a3d10">IO</text>
</a>
</g>
</g>
<!-- n_data__identdata__DelimReader&#45;&gt;n_data__identdata__IO -->
<!-- n_data__identdata__Serializer_Text -->
<g id="node10" class="node">
<title>n_data__identdata__Serializer_Text</title>
<g id="a_node10"><a xlink:href="https://github.com/ProteoWizard/pwiz/blob/master/pwiz/data/identdata/Serializer_Text.cpp" xlink:title="Pretty&#45;print text dump of IdentData. NOT PORTED." target="_blank">
<path fill="#f5a8a8" stroke="#a02020" d="M263.12,-398C263.12,-398 208.88,-398 208.88,-398 202.88,-398 196.88,-392 196.88,-386 196.88,-386 196.88,-374 196.88,-374 196.88,-368 202.88,-362 208.88,-362 208.88,-362 263.12,-362 263.12,-362 269.12,-362 275.12,-368 275.12,-374 275.12,-374 275.12,-386 275.12,-386 275.12,-392 269.12,-398 263.12,-398"/>
<text xml:space="preserve" text-anchor="middle" x="236" y="-377.62" font-family="Segoe UI" font-size="10.00" fill="#3d0a0a">Serializer_Text</text>
</a>
</g>
</g>
<!-- n_data__identdata__DelimWriter&#45;&gt;n_data__identdata__Serializer_Text -->
<!-- n_data__identdata__Serializer_mzid -->
<g id="node11" class="node">
<title>n_data__identdata__Serializer_mzid</title>
<g id="a_node11"><a xlink:href="https://github.com/ProteoWizard/pwiz/blob/master/pwiz/data/identdata/Serializer_mzid.cpp" xlink:title="mzIdentML reader+writer. Ported as IdentData/Mzid/MzidSerializer.cs." target="_blank">
<path fill="#9ee5a3" stroke="#2c7a32" d="M358.62,-398C358.62,-398 301.38,-398 301.38,-398 295.38,-398 289.38,-392 289.38,-386 289.38,-386 289.38,-374 289.38,-374 289.38,-368 295.38,-362 301.38,-362 301.38,-362 358.62,-362 358.62,-362 364.62,-362 370.62,-368 370.62,-374 370.62,-374 370.62,-386 370.62,-386 370.62,-392 364.62,-398 358.62,-398"/>
<text xml:space="preserve" text-anchor="middle" x="330" y="-377.62" font-family="Segoe UI" font-size="10.00" fill="#0a3d10">Serializer_mzid</text>
</a>
</g>
</g>
<!-- n_data__identdata__Serializer_Text&#45;&gt;n_data__identdata__Serializer_mzid -->
<!-- n_data__identdata__Serializer_pepXML -->
<g id="node12" class="node">
<title>n_data__identdata__Serializer_pepXML</title>
<g id="a_node12"><a xlink:href="https://github.com/ProteoWizard/pwiz/blob/master/pwiz/data/identdata/Serializer_pepXML.cpp" xlink:title="pepXML reader+writer. Ported as IdentData/PepXml/PepXmlSerializer.cs." target="_blank">
<path fill="#9ee5a3" stroke="#2c7a32" d="M469.5,-398C469.5,-398 396.5,-398 396.5,-398 390.5,-398 384.5,-392 384.5,-386 384.5,-386 384.5,-374 384.5,-374 384.5,-368 390.5,-362 396.5,-362 396.5,-362 469.5,-362 469.5,-362 475.5,-362 481.5,-368 481.5,-374 481.5,-374 481.5,-386 481.5,-386 481.5,-392 475.5,-398 469.5,-398"/>
<text xml:space="preserve" text-anchor="middle" x="433" y="-377.62" font-family="Segoe UI" font-size="10.00" fill="#0a3d10">Serializer_pepXML</text>
</a>
</g>
</g>
<!-- n_data__identdata__Serializer_mzid&#45;&gt;n_data__identdata__Serializer_pepXML -->
<!-- n_data__identdata__Serializer_protXML -->
<g id="node13" class="node">
<title>n_data__identdata__Serializer_protXML</title>
<g id="a_node13"><a xlink:href="https://github.com/ProteoWizard/pwiz/blob/master/pwiz/data/identdata/Serializer_protXML.cpp" xlink:title="protXML protein&#45;inference format. NOT PORTED — narrow user base." target="_blank">
<path fill="#f5a8a8" stroke="#a02020" d="M582.62,-398C582.62,-398 507.38,-398 507.38,-398 501.38,-398 495.38,-392 495.38,-386 495.38,-386 495.38,-374 495.38,-374 495.38,-368 501.38,-362 507.38,-362 507.38,-362 582.62,-362 582.62,-362 588.62,-362 594.62,-368 594.62,-374 594.62,-374 594.62,-386 594.62,-386 594.62,-392 588.62,-398 582.62,-398"/>
<text xml:space="preserve" text-anchor="middle" x="545" y="-377.62" font-family="Segoe UI" font-size="10.00" fill="#3d0a0a">Serializer_protXML</text>
</a>
</g>
</g>
<!-- n_data__identdata__Serializer_pepXML&#45;&gt;n_data__identdata__Serializer_protXML -->
<!-- n_data__identdata__TextWriter -->
<g id="node14" class="node">
<title>n_data__identdata__TextWriter</title>
<g id="a_node14"><a xlink:href="https://github.com/ProteoWizard/pwiz/blob/master/pwiz/data/identdata/TextWriter.hpp" xlink:title="Pretty&#45;print walker used by Serializer_Text. NOT PORTED." target="_blank">
<path fill="#f5a8a8" stroke="#a02020" d="M658.88,-398C658.88,-398 621.12,-398 621.12,-398 615.12,-398 609.12,-392 609.12,-386 609.12,-386 609.12,-374 609.12,-374 609.12,-368 615.12,-362 621.12,-362 621.12,-362 658.88,-362 658.88,-362 664.88,-362 670.88,-368 670.88,-374 670.88,-374 670.88,-386 670.88,-386 670.88,-392 664.88,-398 658.88,-398"/>
<text xml:space="preserve" text-anchor="middle" x="640" y="-377.62" font-family="Segoe UI" font-size="10.00" fill="#3d0a0a">TextWriter</text>
</a>
</g>
</g>
<!-- n_data__identdata__Serializer_protXML&#45;&gt;n_data__identdata__TextWriter -->
<!-- n_data__identdata__KwCVMap -->
<g id="node16" class="node">
<title>n_data__identdata__KwCVMap</title>
<g id="a_node16"><a xlink:href="https://github.com/ProteoWizard/pwiz/blob/master/pwiz/data/identdata/KwCVMap.cpp" xlink:title="Keyword → CVID heuristic table. NOT PORTED." target="_blank">
<path fill="#f5a8a8" stroke="#a02020" d="M83.5,-224C83.5,-224 46.5,-224 46.5,-224 40.5,-224 34.5,-218 34.5,-212 34.5,-212 34.5,-200 34.5,-200 34.5,-194 40.5,-188 46.5,-188 46.5,-188 83.5,-188 83.5,-188 89.5,-188 95.5,-194 95.5,-200 95.5,-200 95.5,-212 95.5,-212 95.5,-218 89.5,-224 83.5,-224"/>
<text xml:space="preserve" text-anchor="middle" x="65" y="-203.62" font-family="Segoe UI" font-size="10.00" fill="#3d0a0a">KwCVMap</text>
</a>
</g>
</g>
<!-- n_data__identdata__IO&#45;&gt;n_data__identdata__KwCVMap -->
<!-- n_data__identdata__MzidPredicates -->
<g id="node17" class="node">
<title>n_data__identdata__MzidPredicates</title>
<g id="a_node17"><a xlink:href="https://github.com/ProteoWizard/pwiz/blob/master/pwiz/data/identdata/MzidPredicates.hpp" xlink:title="LINQ&#45;style predicates over an IdentData graph. NOT PORTED." target="_blank">
<path fill="#f5a8a8" stroke="#a02020" d="M180.75,-224C180.75,-224 121.25,-224 121.25,-224 115.25,-224 109.25,-218 109.25,-212 109.25,-212 109.25,-200 109.25,-200 109.25,-194 115.25,-188 121.25,-188 121.25,-188 180.75,-188 180.75,-188 186.75,-188 192.75,-194 192.75,-200 192.75,-200 192.75,-212 192.75,-212 192.75,-218 186.75,-224 180.75,-224"/>
<text xml:space="preserve" text-anchor="middle" x="151" y="-203.62" font-family="Segoe UI" font-size="10.00" fill="#3d0a0a">MzidPredicates</text>
</a>
</g>
</g>
<!-- n_data__identdata__KwCVMap&#45;&gt;n_data__identdata__MzidPredicates -->
<!-- n_data__identdata__Pep2MzIdent -->
<g id="node18" class="node">
<title>n_data__identdata__Pep2MzIdent</title>
<g id="a_node18"><a xlink:href="https://github.com/ProteoWizard/pwiz/blob/master/pwiz/data/identdata/Pep2MzIdent.cpp" xlink:title="pepXML → mzIdentML one&#45;shot converter. NOT PORTED." target="_blank">
<path fill="#f5a8a8" stroke="#a02020" d="M90.62,-137C90.62,-137 39.37,-137 39.37,-137 33.38,-137 27.38,-131 27.38,-125 27.38,-125 27.38,-113 27.38,-113 27.38,-107 33.38,-101 39.38,-101 39.38,-101 90.62,-101 90.62,-101 96.62,-101 102.62,-107 102.62,-113 102.62,-113 102.62,-125 102.62,-125 102.62,-131 96.62,-137 90.62,-137"/>
<text xml:space="preserve" text-anchor="middle" x="65" y="-116.62" font-family="Segoe UI" font-size="10.00" fill="#3d0a0a">Pep2MzIdent</text>
</a>
</g>
</g>
<!-- n_data__identdata__KwCVMap&#45;&gt;n_data__identdata__Pep2MzIdent -->
<!-- n_data__identdata__examples -->
<g id="node19" class="node">
<title>n_data__identdata__examples</title>
<g id="a_node19"><a xlink:href="https://github.com/ProteoWizard/pwiz/blob/master/pwiz/data/identdata/examples.cpp" xlink:title="Won&#39;t port. No specific replacement recorded." target="_blank">
<path fill="#dcdcdc" stroke="#888888" d="M161.62,-137C161.62,-137 128.38,-137 128.38,-137 122.38,-137 116.38,-131 116.38,-125 116.38,-125 116.38,-113 116.38,-113 116.38,-107 122.38,-101 128.38,-101 128.38,-101 161.62,-101 161.62,-101 167.62,-101 173.62,-107 173.62,-113 173.62,-113 173.62,-125 173.62,-125 173.62,-131 167.62,-137 161.62,-137"/>
<text xml:space="preserve" text-anchor="start" x="124.38" y="-117.62" font-family="Segoe UI" text-decoration="line-through" font-size="10.00" fill="#555555">examples</text>
</a>
</g>
</g>
<!-- n_data__identdata__Pep2MzIdent&#45;&gt;n_data__identdata__examples -->
<!-- legend_full -->
<g id="node20" class="node">
<title>legend_full</title>
<path fill="#9ee5a3" stroke="#2c7a32" d="M80,-52C80,-52 50,-52 50,-52 44,-52 38,-46 38,-40 38,-40 38,-28 38,-28 38,-22 44,-16 50,-16 50,-16 80,-16 80,-16 86,-16 92,-22 92,-28 92,-28 92,-40 92,-40 92,-46 86,-52 80,-52"/>
<text xml:space="preserve" text-anchor="middle" x="65" y="-31.62" font-family="Segoe UI" font-size="10.00" fill="#0a3d10">ported</text>
</g>
<!-- n_data__identdata__Pep2MzIdent&#45;&gt;legend_full -->
<!-- legend_partial -->
<g id="node21" class="node">
<title>legend_partial</title>
<path fill="#ffe48a" stroke="#a87000" d="M148,-52C148,-52 118,-52 118,-52 112,-52 106,-46 106,-40 106,-40 106,-28 106,-28 106,-22 112,-16 118,-16 118,-16 148,-16 148,-16 154,-16 160,-22 160,-28 160,-28 160,-40 160,-40 160,-46 154,-52 148,-52"/>
<text xml:space="preserve" text-anchor="middle" x="133" y="-31.62" font-family="Segoe UI" font-size="10.00" fill="#4a3000">partial</text>
</g>
<!-- legend_full&#45;&gt;legend_partial -->
<!-- legend_none -->
<g id="node22" class="node">
<title>legend_none</title>
<path fill="#f5a8a8" stroke="#a02020" d="M244,-52C244,-52 186,-52 186,-52 180,-52 174,-46 174,-40 174,-40 174,-28 174,-28 174,-22 180,-16 186,-16 186,-16 244,-16 244,-16 250,-16 256,-22 256,-28 256,-28 256,-40 256,-40 256,-46 250,-52 244,-52"/>
<text xml:space="preserve" text-anchor="middle" x="215" y="-31.62" font-family="Segoe UI" font-size="10.00" fill="#3d0a0a">not yet ported</text>
</g>
<!-- legend_partial&#45;&gt;legend_none -->
<!-- legend_skipped -->
<g id="node23" class="node">
<title>legend_skipped</title>
<path fill="#dcdcdc" stroke="#888888" d="M379.5,-52C379.5,-52 282.5,-52 282.5,-52 276.5,-52 270.5,-46 270.5,-40 270.5,-40 270.5,-28 270.5,-28 270.5,-22 276.5,-16 282.5,-16 282.5,-16 379.5,-16 379.5,-16 385.5,-16 391.5,-22 391.5,-28 391.5,-28 391.5,-40 391.5,-40 391.5,-46 385.5,-52 379.5,-52"/>
<text xml:space="preserve" text-anchor="start" x="278.5" y="-32.62" font-family="Segoe UI" text-decoration="line-through" font-size="10.00" fill="#555555">won&#39;t port (BCL/legacy)</text>
</g>
<!-- legend_none&#45;&gt;legend_skipped -->
</g>
</svg>
