<?xml version="1.0" encoding="UTF-8" standalone="no"?>
<!DOCTYPE svg PUBLIC "-//W3C//DTD SVG 1.1//EN"
 "http://www.w3.org/Graphics/SVG/1.1/DTD/svg11.dtd">
<!-- Generated by graphviz version 13.0.1 (20250615.1724)
 -->
<!-- Title: pwiz_module_detail Pages: 1 -->
<svg width="447pt" height="479pt"
 viewBox="0.00 0.00 447.00 479.00" xmlns="http://www.w3.org/2000/svg" xmlns:xlink="http://www.w3.org/1999/xlink">
<g id="graph0" class="graph" transform="scale(1 1) rotate(0) translate(4 475)">
<title>pwiz_module_detail</title>
<polygon fill="white" stroke="none" points="-4,4 -4,-475 443,-475 443,4 -4,4"/>
<text xml:space="preserve" text-anchor="start" x="83.75" y="-454.7" font-family="Segoe UI" font-weight="bold" font-size="14.00">pwiz/data/tradata — file&#45;level port status</text>
<text xml:space="preserve" text-anchor="start" x="8" y="-444.5" font-family="Segoe UI" font-size="10.00">one node per .cpp/.hpp pair (test fixtures omitted); each group is its own row, top&#45;to&#45;bottom</text>
<g id="clust1" class="cluster">
<title>cluster_data_tradata_Core_model</title>
<path fill="none" stroke="#888888" stroke-dasharray="5,2" d="M55.5,-352C55.5,-352 331.5,-352 331.5,-352 337.5,-352 343.5,-358 343.5,-364 343.5,-364 343.5,-419 343.5,-419 343.5,-425 337.5,-431 331.5,-431 331.5,-431 55.5,-431 55.5,-431 49.5,-431 43.5,-425 43.5,-419 43.5,-419 43.5,-364 43.5,-364 43.5,-358 49.5,-352 55.5,-352"/>
<text xml:space="preserve" text-anchor="start" x="163.88" y="-417.55" font-family="Segoe UI" font-weight="bold" font-size="11.00">Core model</text>
</g>
<g id="clust2" class="cluster">
<title>cluster_data_tradata_IO_Serializers</title>
<path fill="none" stroke="#888888" stroke-dasharray="5,2" d="M55.5,-265C55.5,-265 205.5,-265 205.5,-265 211.5,-265 217.5,-271 217.5,-277 217.5,-277 217.5,-332 217.5,-332 217.5,-338 211.5,-344 205.5,-344 205.5,-344 55.5,-344 55.5,-344 49.5,-344 43.5,-338 43.5,-332 43.5,-332 43.5,-277 43.5,-277 43.5,-271 49.5,-265 55.5,-265"/>
<text xml:space="preserve" text-anchor="start" x="93" y="-330.55" font-family="Segoe UI" font-weight="bold" font-size="11.00">IO / Serializers</text>
</g>
<g id="clust3" class="cluster">
<title>cluster_data_tradata_Reader_dispatch</title>
<path fill="none" stroke="#888888" stroke-dasharray="5,2" d="M35.5,-178C35.5,-178 193.5,-178 193.5,-178 199.5,-178 205.5,-184 205.5,-190 205.5,-190 205.5,-245 205.5,-245 205.5,-251 199.5,-257 193.5,-257 193.5,-257 35.5,-257 35.5,-257 29.5,-257 23.5,-251 23.5,-245 23.5,-245 23.5,-190 23.5,-190 23.5,-184 29.5,-178 35.5,-178"/>
<text xml:space="preserve" text-anchor="start" x="73.25" y="-243.55" font-family="Segoe UI" font-weight="bold" font-size="11.00">Reader dispatch</text>
</g>
<g id="clust4" class="cluster">
<title>cluster_data_tradata_Misc</title>
<path fill="none" stroke="#888888" stroke-dasharray="5,2" d="M51.5,-91C51.5,-91 181.5,-91 181.5,-91 187.5,-91 193.5,-97 193.5,-103 193.5,-103 193.5,-158 193.5,-158 193.5,-164 187.5,-170 181.5,-170 181.5,-170 51.5,-170 51.5,-170 45.5,-170 39.5,-164 39.5,-158 39.5,-158 39.5,-103 39.5,-103 39.5,-97 45.5,-91 51.5,-91"/>
<text xml:space="preserve" text-anchor="start" x="104.88" y="-156.55" font-family="Segoe UI" font-weight="bold" font-size="11.00">Misc</text>
</g>
<g id="clust5" class="cluster">
<title>cluster_legend</title>
<path fill="none" stroke="#444444" d="M57.5,-8C57.5,-8 403.5,-8 403.5,-8 409.5,-8 415.5,-14 415.5,-20 415.5,-20 415.5,-71 415.5,-71 415.5,-77 409.5,-83 403.5,-83 403.5,-83 57.5,-83 57.5,-83 51.5,-83 45.5,-77 45.5,-71 45.5,-71 45.5,-20 45.5,-20 45.5,-14 51.5,-8 57.5,-8"/>
<text xml:space="preserve" text-anchor="start" x="214.38" y="-69.55" font-family="Segoe UI" font-weight="bold" font-size="11.00">Status</text>
</g>
<!-- n_data__tradata__Diff -->
<g id="node1" class="node">
<title>n_data__tradata__Diff</title>
<g id="a_node1"><a xlink:href="https://github.com/ProteoWizard/pwiz/blob/master/pwiz/data/tradata/Diff.cpp" xlink:title="TraData equality with named&#45;reason output. Ported as TraData/TraDataDiff.cs." target="_blank">
<path fill="#9ee5a3" stroke="#2c7a32" d="M95.5,-398C95.5,-398 65.5,-398 65.5,-398 59.5,-398 53.5,-392 53.5,-386 53.5,-386 53.5,-374 53.5,-374 53.5,-368 59.5,-362 65.5,-362 65.5,-362 95.5,-362 95.5,-362 101.5,-362 107.5,-368 107.5,-374 107.5,-374 107.5,-386 107.5,-386 107.5,-392 101.5,-398 95.5,-398"/>
<text xml:space="preserve" text-anchor="middle" x="80.5" y="-377.62" font-family="Segoe UI" font-size="10.00" fill="#0a3d10">Diff</text>
</a>
</g>
</g>
<!-- n_data__tradata__References -->
<g id="node2" class="node">
<title>n_data__tradata__References</title>
<g id="a_node2"><a xlink:href="https://github.com/ProteoWizard/pwiz/blob/master/pwiz/data/tradata/References.cpp" xlink:title="Two&#45;pass resolver for peptideRef / compoundRef / proteinRef / contactRef / instrumentRef / softwareRef. Ported inline in TraData/TraDataIO.cs via the ReadContext class (first pass populates lists, second pass rebinds references)." target="_blank">
<path fill="#9ee5a3" stroke="#2c7a32" d="M173.88,-398C173.88,-398 133.12,-398 133.12,-398 127.12,-398 121.12,-392 121.12,-386 121.12,-386 121.12,-374 121.12,-374 121.12,-368 127.12,-362 133.12,-362 133.12,-362 173.88,-362 173.88,-362 179.88,-362 185.88,-368 185.88,-374 185.88,-374 185.88,-386 185.88,-386 185.88,-392 179.88,-398 173.88,-398"/>
<text xml:space="preserve" text-anchor="middle" x="153.5" y="-377.62" font-family="Segoe UI" font-size="10.00" fill="#0a3d10">References</text>
</a>
</g>
</g>
<!-- n_data__tradata__Diff&#45;&gt;n_data__tradata__References -->
<!-- n_data__tradata__IO -->
<g id="node5" class="node">
<title>n_data__tradata__IO</title>
<g id="a_node5"><a xlink:href="https://github.com/ProteoWizard/pwiz/blob/master/pwiz/data/tradata/IO.cpp" xlink:title="TraML XmlReader/Writer for the nested&#45;list schema (cvList, ContactList, PublicationList, InstrumentList, SoftwareList, ProteinList, CompoundList, TransitionList, TargetList). Ported as TraData/TraDataIO.cs — folded together with Serializer_traML." target="_blank">
<path fill="#9ee5a3" stroke="#2c7a32" d="M95.5,-311C95.5,-311 65.5,-311 65.5,-311 59.5,-311 53.5,-305 53.5,-299 53.5,-299 53.5,-287 53.5,-287 53.5,-281 59.5,-275 65.5,-275 65.5,-275 95.5,-275 95.5,-275 101.5,-275 107.5,-281 107.5,-287 107.5,-287 107.5,-299 107.5,-299 107.5,-305 101.5,-311 95.5,-311"/>
<text xml:space="preserve" text-anchor="middle" x="80.5" y="-290.62" font-family="Segoe UI" font-size="10.00" fill="#0a3d10">IO</text>
</a>
</g>
</g>
<!-- n_data__tradata__Diff&#45;&gt;n_data__tradata__IO -->
<!-- n_data__tradata__TraData -->
<g id="node3" class="node">
<title>n_data__tradata__TraData</title>
<g id="a_node3"><a xlink:href="https://github.com/ProteoWizard/pwiz/blob/master/pwiz/data/tradata/TraData.cpp" xlink:title="Top&#45;level TraData document + ParamContainer&#45;derived entities (Contact, Publication, Software, Instrument, Configuration, Protein, Peptide, Compound, Transition, Target, TargetList, RetentionTime, Prediction, Evidence, Validation, Interpretation, Modification, Precursor, Product). Ported as TraData/TraData.cs." target="_blank">
<path fill="#9ee5a3" stroke="#2c7a32" d="M241.5,-398C241.5,-398 211.5,-398 211.5,-398 205.5,-398 199.5,-392 199.5,-386 199.5,-386 199.5,-374 199.5,-374 199.5,-368 205.5,-362 211.5,-362 211.5,-362 241.5,-362 241.5,-362 247.5,-362 253.5,-368 253.5,-374 253.5,-374 253.5,-386 253.5,-386 253.5,-392 247.5,-398 241.5,-398"/>
<text xml:space="preserve" text-anchor="middle" x="226.5" y="-377.62" font-family="Segoe UI" font-size="10.00" fill="#0a3d10">TraData</text>
</a>
</g>
</g>
<!-- n_data__tradata__References&#45;&gt;n_data__tradata__TraData -->
<!-- n_data__tradata__TraDataFile -->
<g id="node4" class="node">
<title>n_data__tradata__TraDataFile</title>
<g id="a_node4"><a xlink:href="https://github.com/ProteoWizard/pwiz/blob/master/pwiz/data/tradata/TraDataFile.cpp" xlink:title="Format&#45;detecting Read + format&#45;selecting Write (TraML XML by extension). Ported as TraData/TraDataFile.cs." target="_blank">
<path fill="#9ee5a3" stroke="#2c7a32" d="M321.25,-398C321.25,-398 279.75,-398 279.75,-398 273.75,-398 267.75,-392 267.75,-386 267.75,-386 267.75,-374 267.75,-374 267.75,-368 273.75,-362 279.75,-362 279.75,-362 321.25,-362 321.25,-362 327.25,-362 333.25,-368 333.25,-374 333.25,-374 333.25,-386 333.25,-386 333.25,-392 327.25,-398 321.25,-398"/>
<text xml:space="preserve" text-anchor="middle" x="300.5" y="-377.62" font-family="Segoe UI" font-size="10.00" fill="#0a3d10">TraDataFile</text>
</a>
</g>
</g>
<!-- n_data__tradata__TraData&#45;&gt;n_data__tradata__TraDataFile -->
<!-- n_data__tradata__Serializer_traML -->
<g id="node6" class="node">
<title>n_data__tradata__Serializer_traML</title>
<g id="a_node6"><a xlink:href="https://github.com/ProteoWizard/pwiz/blob/master/pwiz/data/tradata/Serializer_traML.cpp" xlink:title="TraML XML serializer. Folded into TraData/TraDataIO.cs." target="_blank">
<path fill="#9ee5a3" stroke="#2c7a32" d="M195.75,-311C195.75,-311 133.25,-311 133.25,-311 127.25,-311 121.25,-305 121.25,-299 121.25,-299 121.25,-287 121.25,-287 121.25,-281 127.25,-275 133.25,-275 133.25,-275 195.75,-275 195.75,-275 201.75,-275 207.75,-281 207.75,-287 207.75,-287 207.75,-299 207.75,-299 207.75,-305 201.75,-311 195.75,-311"/>
<text xml:space="preserve" text-anchor="middle" x="164.5" y="-290.62" font-family="Segoe UI" font-size="10.00" fill="#0a3d10">Serializer_traML</text>
</a>
</g>
</g>
<!-- n_data__tradata__IO&#45;&gt;n_data__tradata__Serializer_traML -->
<!-- n_data__tradata__DefaultReaderList -->
<g id="node7" class="node">
<title>n_data__tradata__DefaultReaderList</title>
<g id="a_node7"><a xlink:href="https://github.com/ProteoWizard/pwiz/blob/master/pwiz/data/tradata/DefaultReaderList.cpp" xlink:title="Serializer_traML registration into the IReader dispatcher. NOT PORTED — no dispatcher wired yet." target="_blank">
<path fill="#f5a8a8" stroke="#a02020" d="M115.88,-224C115.88,-224 45.12,-224 45.12,-224 39.12,-224 33.12,-218 33.12,-212 33.12,-212 33.12,-200 33.12,-200 33.12,-194 39.12,-188 45.12,-188 45.12,-188 115.88,-188 115.88,-188 121.88,-188 127.88,-194 127.88,-200 127.88,-200 127.88,-212 127.88,-212 127.88,-218 121.88,-224 115.88,-224"/>
<text xml:space="preserve" text-anchor="middle" x="80.5" y="-203.62" font-family="Segoe UI" font-size="10.00" fill="#3d0a0a">DefaultReaderList</text>
</a>
</g>
</g>
<!-- n_data__tradata__IO&#45;&gt;n_data__tradata__DefaultReaderList -->
<!-- n_data__tradata__Reader -->
<g id="node8" class="node">
<title>n_data__tradata__Reader</title>
<g id="a_node8"><a xlink:href="https://github.com/ProteoWizard/pwiz/blob/master/pwiz/data/tradata/Reader.cpp" xlink:title="IReader interface for TraData. NOT PORTED — TraDataFile.Read handles dispatch directly." target="_blank">
<path fill="#f5a8a8" stroke="#a02020" d="M183.5,-224C183.5,-224 153.5,-224 153.5,-224 147.5,-224 141.5,-218 141.5,-212 141.5,-212 141.5,-200 141.5,-200 141.5,-194 147.5,-188 153.5,-188 153.5,-188 183.5,-188 183.5,-188 189.5,-188 195.5,-194 195.5,-200 195.5,-200 195.5,-212 195.5,-212 195.5,-218 189.5,-224 183.5,-224"/>
<text xml:space="preserve" text-anchor="middle" x="168.5" y="-203.62" font-family="Segoe UI" font-size="10.00" fill="#3d0a0a">Reader</text>
</a>
</g>
</g>
<!-- n_data__tradata__DefaultReaderList&#45;&gt;n_data__tradata__Reader -->
<!-- n_data__tradata__TextWriter -->
<g id="node9" class="node">
<title>n_data__tradata__TextWriter</title>
<g id="a_node9"><a xlink:href="https://github.com/ProteoWizard/pwiz/blob/master/pwiz/data/tradata/TextWriter.hpp" xlink:title="Pretty&#45;print text dump of TraData. WON&#39;T PORT — Format_Text output isn&#39;t wired in pwiz&#45;sharp." target="_blank">
<path fill="#dcdcdc" stroke="#888888" d="M99.38,-137C99.38,-137 61.62,-137 61.62,-137 55.62,-137 49.62,-131 49.62,-125 49.62,-125 49.62,-113 49.62,-113 49.62,-107 55.62,-101 61.62,-101 61.62,-101 99.38,-101 99.38,-101 105.38,-101 111.38,-107 111.38,-113 111.38,-113 111.38,-125 111.38,-125 111.38,-131 105.38,-137 99.38,-137"/>
<text xml:space="preserve" text-anchor="start" x="57.62" y="-117.62" font-family="Segoe UI" text-decoration="line-through" font-size="10.00" fill="#555555">TextWriter</text>
</a>
</g>
</g>
<!-- n_data__tradata__DefaultReaderList&#45;&gt;n_data__tradata__TextWriter -->
<!-- n_data__tradata__examples -->
<g id="node10" class="node">
<title>n_data__tradata__examples</title>
<g id="a_node10"><a xlink:href="https://github.com/ProteoWizard/pwiz/blob/master/pwiz/data/tradata/examples.cpp" xlink:title="Hard&#45;coded TraData fixtures for cpp tests. WON&#39;T PORT — fixtures built inline in tests instead." target="_blank">
<path fill="#dcdcdc" stroke="#888888" d="M171.12,-137C171.12,-137 137.88,-137 137.88,-137 131.88,-137 125.88,-131 125.88,-125 125.88,-125 125.88,-113 125.88,-113 125.88,-107 131.88,-101 137.88,-101 137.88,-101 171.12,-101 171.12,-101 177.12,-101 183.12,-107 183.12,-113 183.12,-113 183.12,-125 183.12,-125 183.12,-131 177.12,-137 171.12,-137"/>
<text xml:space="preserve" text-anchor="start" x="133.88" y="-117.62" font-family="Segoe UI" text-decoration="line-through" font-size="10.00" fill="#555555">examples</text>
</a>
</g>
</g>
<!-- n_data__tradata__TextWriter&#45;&gt;n_data__tradata__examples -->
<!-- legend_full -->
<g id="node11" class="node">
<title>legend_full</title>
<path fill="#9ee5a3" stroke="#2c7a32" d="M95.5,-52C95.5,-52 65.5,-52 65.5,-52 59.5,-52 53.5,-46 53.5,-40 53.5,-40 53.5,-28 53.5,-28 53.5,-22 59.5,-16 65.5,-16 65.5,-16 95.5,-16 95.5,-16 101.5,-16 107.5,-22 107.5,-28 107.5,-28 107.5,-40 107.5,-40 107.5,-46 101.5,-52 95.5,-52"/>
<text xml:space="preserve" text-anchor="middle" x="80.5" y="-31.62" font-family="Segoe UI" font-size="10.00" fill="#0a3d10">ported</text>
</g>
<!-- n_data__tradata__TextWriter&#45;&gt;legend_full -->
<!-- legend_partial -->
<g id="node12" class="node">
<title>legend_partial</title>
<path fill="#ffe48a" stroke="#a87000" d="M163.5,-52C163.5,-52 133.5,-52 133.5,-52 127.5,-52 121.5,-46 121.5,-40 121.5,-40 121.5,-28 121.5,-28 121.5,-22 127.5,-16 133.5,-16 133.5,-16 163.5,-16 163.5,-16 169.5,-16 175.5,-22 175.5,-28 175.5,-28 175.5,-40 175.5,-40 175.5,-46 169.5,-52 163.5,-52"/>
<text xml:space="preserve" text-anchor="middle" x="148.5" y="-31.62" font-family="Segoe UI" font-size="10.00" fill="#4a3000">partial</text>
</g>
<!-- legend_full&#45;&gt;legend_partial -->
<!-- legend_none -->
<g id="node13" class="node">
<title>legend_none</title>
<path fill="#f5a8a8" stroke="#a02020" d="M259.5,-52C259.5,-52 201.5,-52 201.5,-52 195.5,-52 189.5,-46 189.5,-40 189.5,-40 189.5,-28 189.5,-28 189.5,-22 195.5,-16 201.5,-16 201.5,-16 259.5,-16 259.5,-16 265.5,-16 271.5,-22 271.5,-28 271.5,-28 271.5,-40 271.5,-40 271.5,-46 265.5,-52 259.5,-52"/>
<text xml:space="preserve" text-anchor="middle" x="230.5" y="-31.62" font-family="Segoe UI" font-size="10.00" fill="#3d0a0a">not yet ported</text>
</g>
<!-- legend_partial&#45;&gt;legend_none -->
<!-- legend_skipped -->
<g id="node14" class="node">
<title>legend_skipped</title>
<path fill="#dcdcdc" stroke="#888888" d="M395,-52C395,-52 298,-52 298,-52 292,-52 286,-46 286,-40 286,-40 286,-28 286,-28 286,-22 292,-16 298,-16 298,-16 395,-16 395,-16 401,-16 407,-22 407,-28 407,-28 407,-40 407,-40 407,-46 401,-52 395,-52"/>
<text xml:space="preserve" text-anchor="start" x="294" y="-32.62" font-family="Segoe UI" text-decoration="line-through" font-size="10.00" fill="#555555">won&#39;t port (BCL/legacy)</text>
</g>
<!-- legend_none&#45;&gt;legend_skipped -->
</g>
</svg>
