<?xml version="1.0" encoding="UTF-8" standalone="no"?>
<!DOCTYPE svg PUBLIC "-//W3C//DTD SVG 1.1//EN"
 "http://www.w3.org/Graphics/SVG/1.1/DTD/svg11.dtd">
<!-- Generated by graphviz version 13.0.1 (20250615.1724)
 -->
<!-- Title: pwiz_modules Pages: 1 -->
<svg width="1448pt" height="906pt"
 viewBox="0.00 0.00 1448.00 906.00" xmlns="http://www.w3.org/2000/svg" xmlns:xlink="http://www.w3.org/1999/xlink">
<g id="graph0" class="graph" transform="scale(1 1) rotate(0) translate(4 902.25)">
<title>pwiz_modules</title>
<polygon fill="white" stroke="none" points="-4,4 -4,-902.25 1444,-902.25 1444,4 -4,4"/>
<text xml:space="preserve" text-anchor="start" x="631.12" y="-881.95" font-family="Segoe UI" font-weight="bold" font-size="14.00">pwiz module dependencies</text>
<text xml:space="preserve" text-anchor="start" x="523.5" y="-871.75" font-family="Segoe UI" font-size="10.00">arrows aggregate at the directory level; foundations on top, consumers on the bottom</text>
<g id="clust1" class="cluster">
<title>cluster_analysis</title>
<path fill="none" stroke="#888888" stroke-dasharray="5,2" d="M218,-161C218,-161 1420,-161 1420,-161 1426,-161 1432,-167 1432,-173 1432,-173 1432,-234.25 1432,-234.25 1432,-240.25 1426,-246.25 1420,-246.25 1420,-246.25 218,-246.25 218,-246.25 212,-246.25 206,-240.25 206,-234.25 206,-234.25 206,-173 206,-173 206,-167 212,-161 218,-161"/>
<text xml:space="preserve" text-anchor="middle" x="819" y="-230.85" font-family="Segoe UI" font-size="12.00">analysis</text>
</g>
<g id="clust2" class="cluster">
<title>cluster_data</title>
<path fill="none" stroke="#888888" stroke-dasharray="5,2" d="M20,-314C20,-314 322,-314 322,-314 328,-314 334,-320 334,-326 334,-326 334,-387.25 334,-387.25 334,-393.25 328,-399.25 322,-399.25 322,-399.25 20,-399.25 20,-399.25 14,-399.25 8,-393.25 8,-387.25 8,-387.25 8,-326 8,-326 8,-320 14,-314 20,-314"/>
<text xml:space="preserve" text-anchor="middle" x="171" y="-383.85" font-family="Segoe UI" font-size="12.00">data</text>
</g>
<g id="clust3" class="cluster">
<title>cluster_data_common</title>
<path fill="none" stroke="#888888" stroke-dasharray="5,2" d="M220,-620C220,-620 285,-620 285,-620 291,-620 297,-626 297,-632 297,-632 297,-693.25 297,-693.25 297,-699.25 291,-705.25 285,-705.25 285,-705.25 220,-705.25 220,-705.25 214,-705.25 208,-699.25 208,-693.25 208,-693.25 208,-632 208,-632 208,-626 214,-620 220,-620"/>
<text xml:space="preserve" text-anchor="middle" x="252.5" y="-689.85" font-family="Segoe UI" font-size="12.00">data/common</text>
</g>
<g id="clust4" class="cluster">
<title>cluster_data_msdata</title>
<path fill="none" stroke="#888888" stroke-dasharray="5,2" d="M225,-467C225,-467 431,-467 431,-467 437,-467 443,-473 443,-479 443,-479 443,-540.25 443,-540.25 443,-546.25 437,-552.25 431,-552.25 431,-552.25 225,-552.25 225,-552.25 219,-552.25 213,-546.25 213,-540.25 213,-540.25 213,-479 213,-479 213,-473 219,-467 225,-467"/>
<text xml:space="preserve" text-anchor="middle" x="328" y="-536.85" font-family="Segoe UI" font-size="12.00">data/msdata</text>
</g>
<g id="clust5" class="cluster">
<title>cluster_data_vendor_readers</title>
<path fill="none" stroke="#888888" stroke-dasharray="5,2" d="M354,-314C354,-314 1110,-314 1110,-314 1116,-314 1122,-320 1122,-326 1122,-326 1122,-387.25 1122,-387.25 1122,-393.25 1116,-399.25 1110,-399.25 1110,-399.25 354,-399.25 354,-399.25 348,-399.25 342,-393.25 342,-387.25 342,-387.25 342,-326 342,-326 342,-320 348,-314 354,-314"/>
<text xml:space="preserve" text-anchor="middle" x="732" y="-383.85" font-family="Segoe UI" font-size="12.00">data/vendor_readers</text>
</g>
<g id="clust6" class="cluster">
<title>cluster_pwiz_tools</title>
<path fill="none" stroke="#888888" stroke-dasharray="5,2" d="M208,-8C208,-8 478,-8 478,-8 484,-8 490,-14 490,-20 490,-20 490,-81.25 490,-81.25 490,-87.25 484,-93.25 478,-93.25 478,-93.25 208,-93.25 208,-93.25 202,-93.25 196,-87.25 196,-81.25 196,-81.25 196,-20 196,-20 196,-14 202,-8 208,-8"/>
<text xml:space="preserve" text-anchor="middle" x="343" y="-77.85" font-family="Segoe UI" font-size="12.00">pwiz_tools</text>
</g>
<g id="clust7" class="cluster">
<title>cluster_utility</title>
<path fill="none" stroke="#888888" stroke-dasharray="5,2" d="M220,-773C220,-773 688,-773 688,-773 694,-773 700,-779 700,-785 700,-785 700,-846.25 700,-846.25 700,-852.25 694,-858.25 688,-858.25 688,-858.25 220,-858.25 220,-858.25 214,-858.25 208,-852.25 208,-846.25 208,-846.25 208,-785 208,-785 208,-779 214,-773 220,-773"/>
<text xml:space="preserve" text-anchor="middle" x="454" y="-842.85" font-family="Segoe UI" font-size="12.00">utility</text>
</g>
<!-- n_analysis__calibration -->
<g id="node1" class="node">
<title>n_analysis__calibration</title>
<path fill="#f5a8a8" stroke="#a02020" d="M273.88,-209C273.88,-209 230.12,-209 230.12,-209 224.12,-209 218.12,-203 218.12,-197 218.12,-197 218.12,-185 218.12,-185 218.12,-179 224.12,-173 230.12,-173 230.12,-173 273.88,-173 273.88,-173 279.88,-173 285.88,-179 285.88,-185 285.88,-185 285.88,-197 285.88,-197 285.88,-203 279.88,-209 273.88,-209"/>
<text xml:space="preserve" text-anchor="middle" x="252" y="-188.05" font-family="Segoe UI" font-size="11.00" fill="#3d0a0a">calibration</text>
</g>
<!-- n_pwiz_tools__MSConvertGUI -->
<g id="node31" class="node">
<title>n_pwiz_tools__MSConvertGUI</title>
<path fill="#9ee5a3" stroke="#2c7a32" d="M284,-56C284,-56 220,-56 220,-56 214,-56 208,-50 208,-44 208,-44 208,-32 208,-32 208,-26 214,-20 220,-20 220,-20 284,-20 284,-20 290,-20 296,-26 296,-32 296,-32 296,-44 296,-44 296,-50 290,-56 284,-56"/>
<text xml:space="preserve" text-anchor="middle" x="252" y="-35.05" font-family="Segoe UI" font-size="11.00" fill="#0a3d10">MSConvertGUI</text>
</g>
<!-- n_analysis__calibration&#45;&gt;n_pwiz_tools__MSConvertGUI -->
<g id="edge7" class="edge">
<title>n_analysis__calibration&#45;&gt;n_pwiz_tools__MSConvertGUI</title>
<path fill="none" stroke="#444444" stroke-width="1.4" d="M252,-161C252,-144.86 252,-124.06 252,-104.23"/>
<polygon fill="#444444" stroke="#444444" stroke-width="1.4" points="255.15,-104.37 252,-95.37 248.85,-104.37 255.15,-104.37"/>
</g>
<!-- n_analysis__chromatogram_processing -->
<g id="node2" class="node">
<title>n_analysis__chromatogram_processing</title>
<path fill="#ffe48a" stroke="#a87000" d="M442.25,-209C442.25,-209 319.75,-209 319.75,-209 313.75,-209 307.75,-203 307.75,-197 307.75,-197 307.75,-185 307.75,-185 307.75,-179 313.75,-173 319.75,-173 319.75,-173 442.25,-173 442.25,-173 448.25,-173 454.25,-179 454.25,-185 454.25,-185 454.25,-197 454.25,-197 454.25,-203 448.25,-209 442.25,-209"/>
<text xml:space="preserve" text-anchor="middle" x="381" y="-188.05" font-family="Segoe UI" font-size="11.00" fill="#4a3000">chromatogram_processing</text>
</g>
<!-- n_analysis__common -->
<g id="node3" class="node">
<title>n_analysis__common</title>
<path fill="#ffe48a" stroke="#a87000" d="M524.12,-209C524.12,-209 487.88,-209 487.88,-209 481.88,-209 475.88,-203 475.88,-197 475.88,-197 475.88,-185 475.88,-185 475.88,-179 481.88,-173 487.88,-173 487.88,-173 524.12,-173 524.12,-173 530.12,-173 536.12,-179 536.12,-185 536.12,-185 536.12,-197 536.12,-197 536.12,-203 530.12,-209 524.12,-209"/>
<text xml:space="preserve" text-anchor="middle" x="506" y="-188.05" font-family="Segoe UI" font-size="11.00" fill="#4a3000">common</text>
</g>
<!-- n_analysis__demux -->
<g id="node4" class="node">
<title>n_analysis__demux</title>
<path fill="#9ee5a3" stroke="#2c7a32" d="M600,-209C600,-209 570,-209 570,-209 564,-209 558,-203 558,-197 558,-197 558,-185 558,-185 558,-179 564,-173 570,-173 570,-173 600,-173 600,-173 606,-173 612,-179 612,-185 612,-185 612,-197 612,-197 612,-203 606,-209 600,-209"/>
<text xml:space="preserve" text-anchor="middle" x="585" y="-188.05" font-family="Segoe UI" font-size="11.00" fill="#0a3d10">demux</text>
</g>
<!-- n_analysis__dia_umpire -->
<g id="node5" class="node">
<title>n_analysis__dia_umpire</title>
<path fill="#9ee5a3" stroke="#2c7a32" d="M692.38,-209C692.38,-209 645.62,-209 645.62,-209 639.62,-209 633.62,-203 633.62,-197 633.62,-197 633.62,-185 633.62,-185 633.62,-179 639.62,-173 645.62,-173 645.62,-173 692.38,-173 692.38,-173 698.38,-173 704.38,-179 704.38,-185 704.38,-185 704.38,-197 704.38,-197 704.38,-203 698.38,-209 692.38,-209"/>
<text xml:space="preserve" text-anchor="middle" x="669" y="-188.05" font-family="Segoe UI" font-size="11.00" fill="#0a3d10">dia_umpire</text>
</g>
<!-- n_analysis__eharmony -->
<g id="node6" class="node">
<title>n_analysis__eharmony</title>
<path fill="#f5a8a8" stroke="#a02020" d="M779.38,-209C779.38,-209 738.62,-209 738.62,-209 732.62,-209 726.62,-203 726.62,-197 726.62,-197 726.62,-185 726.62,-185 726.62,-179 732.62,-173 738.62,-173 738.62,-173 779.38,-173 779.38,-173 785.38,-173 791.38,-179 791.38,-185 791.38,-185 791.38,-197 791.38,-197 791.38,-203 785.38,-209 779.38,-209"/>
<text xml:space="preserve" text-anchor="middle" x="759" y="-188.05" font-family="Segoe UI" font-size="11.00" fill="#3d0a0a">eharmony</text>
</g>
<!-- n_analysis__frequency -->
<g id="node7" class="node">
<title>n_analysis__frequency</title>
<path fill="#f5a8a8" stroke="#a02020" d="M866.38,-209C866.38,-209 825.62,-209 825.62,-209 819.62,-209 813.62,-203 813.62,-197 813.62,-197 813.62,-185 813.62,-185 813.62,-179 819.62,-173 825.62,-173 825.62,-173 866.38,-173 866.38,-173 872.38,-173 878.38,-179 878.38,-185 878.38,-185 878.38,-197 878.38,-197 878.38,-203 872.38,-209 866.38,-209"/>
<text xml:space="preserve" text-anchor="middle" x="846" y="-188.05" font-family="Segoe UI" font-size="11.00" fill="#3d0a0a">frequency</text>
</g>
<!-- n_analysis__passive -->
<g id="node8" class="node">
<title>n_analysis__passive</title>
<path fill="#f5a8a8" stroke="#a02020" d="M942,-209C942,-209 912,-209 912,-209 906,-209 900,-203 900,-197 900,-197 900,-185 900,-185 900,-179 906,-173 912,-173 912,-173 942,-173 942,-173 948,-173 954,-179 954,-185 954,-185 954,-197 954,-197 954,-203 948,-209 942,-209"/>
<text xml:space="preserve" text-anchor="middle" x="927" y="-188.05" font-family="Segoe UI" font-size="11.00" fill="#3d0a0a">passive</text>
</g>
<!-- n_analysis__peakdetect -->
<g id="node9" class="node">
<title>n_analysis__peakdetect</title>
<path fill="#9ee5a3" stroke="#2c7a32" d="M1034.38,-209C1034.38,-209 987.62,-209 987.62,-209 981.62,-209 975.62,-203 975.62,-197 975.62,-197 975.62,-185 975.62,-185 975.62,-179 981.62,-173 987.62,-173 987.62,-173 1034.38,-173 1034.38,-173 1040.38,-173 1046.38,-179 1046.38,-185 1046.38,-185 1046.38,-197 1046.38,-197 1046.38,-203 1040.38,-209 1034.38,-209"/>
<text xml:space="preserve" text-anchor="middle" x="1011" y="-188.05" font-family="Segoe UI" font-size="11.00" fill="#0a3d10">peakdetect</text>
</g>
<!-- n_analysis__peptideid -->
<g id="node10" class="node">
<title>n_analysis__peptideid</title>
<path fill="#f5a8a8" stroke="#a02020" d="M1121.38,-209C1121.38,-209 1080.62,-209 1080.62,-209 1074.62,-209 1068.62,-203 1068.62,-197 1068.62,-197 1068.62,-185 1068.62,-185 1068.62,-179 1074.62,-173 1080.62,-173 1080.62,-173 1121.38,-173 1121.38,-173 1127.38,-173 1133.38,-179 1133.38,-185 1133.38,-185 1133.38,-197 1133.38,-197 1133.38,-203 1127.38,-209 1121.38,-209"/>
<text xml:space="preserve" text-anchor="middle" x="1101" y="-188.05" font-family="Segoe UI" font-size="11.00" fill="#3d0a0a">peptideid</text>
</g>
<!-- n_analysis__proteome_processing -->
<g id="node11" class="node">
<title>n_analysis__proteome_processing</title>
<path fill="#9ee5a3" stroke="#2c7a32" d="M1266.62,-209C1266.62,-209 1167.38,-209 1167.38,-209 1161.38,-209 1155.38,-203 1155.38,-197 1155.38,-197 1155.38,-185 1155.38,-185 1155.38,-179 1161.38,-173 1167.38,-173 1167.38,-173 1266.62,-173 1266.62,-173 1272.62,-173 1278.62,-179 1278.62,-185 1278.62,-185 1278.62,-197 1278.62,-197 1278.62,-203 1272.62,-209 1266.62,-209"/>
<text xml:space="preserve" text-anchor="middle" x="1217" y="-188.05" font-family="Segoe UI" font-size="11.00" fill="#0a3d10">proteome_processing</text>
</g>
<!-- n_analysis__spectrum_processing -->
<g id="node12" class="node">
<title>n_analysis__spectrum_processing</title>
<path fill="#ffe48a" stroke="#a87000" d="M1407.75,-209C1407.75,-209 1312.25,-209 1312.25,-209 1306.25,-209 1300.25,-203 1300.25,-197 1300.25,-197 1300.25,-185 1300.25,-185 1300.25,-179 1306.25,-173 1312.25,-173 1312.25,-173 1407.75,-173 1407.75,-173 1413.75,-173 1419.75,-179 1419.75,-185 1419.75,-185 1419.75,-197 1419.75,-197 1419.75,-203 1413.75,-209 1407.75,-209"/>
<text xml:space="preserve" text-anchor="middle" x="1360" y="-188.05" font-family="Segoe UI" font-size="11.00" fill="#4a3000">spectrum_processing</text>
</g>
<!-- n_data__identdata -->
<g id="node13" class="node">
<title>n_data__identdata</title>
<path fill="#9ee5a3" stroke="#2c7a32" d="M70.25,-362C70.25,-362 31.75,-362 31.75,-362 25.75,-362 19.75,-356 19.75,-350 19.75,-350 19.75,-338 19.75,-338 19.75,-332 25.75,-326 31.75,-326 31.75,-326 70.25,-326 70.25,-326 76.25,-326 82.25,-332 82.25,-338 82.25,-338 82.25,-350 82.25,-350 82.25,-356 76.25,-362 70.25,-362"/>
<text xml:space="preserve" text-anchor="middle" x="51" y="-341.05" font-family="Segoe UI" font-size="11.00" fill="#0a3d10">identdata</text>
</g>
<!-- n_data__identdata&#45;&gt;n_analysis__calibration -->
<g id="edge1" class="edge">
<title>n_data__identdata&#45;&gt;n_analysis__calibration</title>
<path fill="none" stroke="#444444" stroke-width="1.4" d="M89.6,-314C120.16,-291.05 163.22,-258.7 197.32,-233.07"/>
<polygon fill="#444444" stroke="#444444" stroke-width="1.4" points="199.01,-235.75 204.31,-227.83 195.22,-230.71 199.01,-235.75"/>
</g>
<!-- n_data__misc -->
<g id="node14" class="node">
<title>n_data__misc</title>
<path fill="#ffe48a" stroke="#a87000" d="M146,-362C146,-362 116,-362 116,-362 110,-362 104,-356 104,-350 104,-350 104,-338 104,-338 104,-332 110,-326 116,-326 116,-326 146,-326 146,-326 152,-326 158,-332 158,-338 158,-338 158,-350 158,-350 158,-356 152,-362 146,-362"/>
<text xml:space="preserve" text-anchor="middle" x="131" y="-341.05" font-family="Segoe UI" font-size="11.00" fill="#4a3000">misc</text>
</g>
<!-- n_data__proteome -->
<g id="node15" class="node">
<title>n_data__proteome</title>
<path fill="#9ee5a3" stroke="#2c7a32" d="M233.75,-362C233.75,-362 192.25,-362 192.25,-362 186.25,-362 180.25,-356 180.25,-350 180.25,-350 180.25,-338 180.25,-338 180.25,-332 186.25,-326 192.25,-326 192.25,-326 233.75,-326 233.75,-326 239.75,-326 245.75,-332 245.75,-338 245.75,-338 245.75,-350 245.75,-350 245.75,-356 239.75,-362 233.75,-362"/>
<text xml:space="preserve" text-anchor="middle" x="213" y="-341.05" font-family="Segoe UI" font-size="11.00" fill="#0a3d10">proteome</text>
</g>
<!-- n_data__tradata -->
<g id="node16" class="node">
<title>n_data__tradata</title>
<path fill="#9ee5a3" stroke="#2c7a32" d="M310,-362C310,-362 280,-362 280,-362 274,-362 268,-356 268,-350 268,-350 268,-338 268,-338 268,-332 274,-326 280,-326 280,-326 310,-326 310,-326 316,-326 322,-332 322,-338 322,-338 322,-350 322,-350 322,-356 316,-362 310,-362"/>
<text xml:space="preserve" text-anchor="middle" x="295" y="-341.05" font-family="Segoe UI" font-size="11.00" fill="#0a3d10">tradata</text>
</g>
<!-- n_data__common -->
<g id="node17" class="node">
<title>n_data__common</title>
<path fill="#9ee5a3" stroke="#2c7a32" d="M270.12,-668C270.12,-668 233.88,-668 233.88,-668 227.88,-668 221.88,-662 221.88,-656 221.88,-656 221.88,-644 221.88,-644 221.88,-638 227.88,-632 233.88,-632 233.88,-632 270.12,-632 270.12,-632 276.12,-632 282.12,-638 282.12,-644 282.12,-644 282.12,-656 282.12,-656 282.12,-662 276.12,-668 270.12,-668"/>
<text xml:space="preserve" text-anchor="middle" x="252" y="-647.05" font-family="Segoe UI" font-size="11.00" fill="#0a3d10">common</text>
</g>
<!-- n_data__msdata -->
<g id="node18" class="node">
<title>n_data__msdata</title>
<path fill="#ffe48a" stroke="#a87000" d="M267,-515C267,-515 237,-515 237,-515 231,-515 225,-509 225,-503 225,-503 225,-491 225,-491 225,-485 231,-479 237,-479 237,-479 267,-479 267,-479 273,-479 279,-485 279,-491 279,-491 279,-503 279,-503 279,-509 273,-515 267,-515"/>
<text xml:space="preserve" text-anchor="middle" x="252" y="-494.05" font-family="Segoe UI" font-size="11.00" fill="#4a3000">msdata</text>
</g>
<!-- n_data__common&#45;&gt;n_data__msdata -->
<g id="edge5" class="edge">
<title>n_data__common&#45;&gt;n_data__msdata</title>
<path fill="none" stroke="#444444" stroke-width="1.4" d="M252,-620C252,-603.86 252,-583.06 252,-563.23"/>
<polygon fill="#444444" stroke="#444444" stroke-width="1.4" points="255.15,-563.37 252,-554.37 248.85,-563.37 255.15,-563.37"/>
</g>
<!-- n_data__msdata&#45;&gt;n_data__identdata -->
<g id="edge3" class="edge">
<title>n_data__msdata&#45;&gt;n_data__identdata</title>
<path fill="none" stroke="#444444" stroke-width="1.4" d="M213,-477.42C181.6,-461.39 136.99,-436.18 101.41,-406.5"/>
<polygon fill="#444444" stroke="#444444" stroke-width="1.4" points="103.48,-404.13 94.6,-400.63 99.36,-408.9 103.48,-404.13"/>
</g>
<!-- n_data__vendor_readers__ABI -->
<g id="node21" class="node">
<title>n_data__vendor_readers__ABI</title>
<path fill="#9ee5a3" stroke="#2c7a32" d="M396,-362C396,-362 366,-362 366,-362 360,-362 354,-356 354,-350 354,-350 354,-338 354,-338 354,-332 360,-326 366,-326 366,-326 396,-326 396,-326 402,-326 408,-332 408,-338 408,-338 408,-350 408,-350 408,-356 402,-362 396,-362"/>
<text xml:space="preserve" text-anchor="middle" x="381" y="-341.05" font-family="Segoe UI" font-size="11.00" fill="#0a3d10">ABI</text>
</g>
<!-- n_data__msdata&#45;&gt;n_data__vendor_readers__ABI -->
<g id="edge6" class="edge">
<title>n_data__msdata&#45;&gt;n_data__vendor_readers__ABI</title>
<path fill="none" stroke="#444444" stroke-width="1.4" d="M279.09,-467C294.8,-449.94 315.23,-427.28 335.07,-403.87"/>
<polygon fill="#444444" stroke="#444444" stroke-width="1.4" points="337.26,-406.16 340.64,-397.25 332.44,-402.11 337.26,-406.16"/>
</g>
<!-- n_data__msdata__mz5 -->
<g id="node19" class="node">
<title>n_data__msdata__mz5</title>
<path fill="#ffe48a" stroke="#a87000" d="M343,-515C343,-515 313,-515 313,-515 307,-515 301,-509 301,-503 301,-503 301,-491 301,-491 301,-485 307,-479 313,-479 313,-479 343,-479 343,-479 349,-479 355,-485 355,-491 355,-491 355,-503 355,-503 355,-509 349,-515 343,-515"/>
<text xml:space="preserve" text-anchor="middle" x="328" y="-494.05" font-family="Segoe UI" font-size="11.00" fill="#4a3000">mz5</text>
</g>
<!-- n_data__msdata__mzmlb -->
<g id="node20" class="node">
<title>n_data__msdata__mzmlb</title>
<path fill="#9ee5a3" stroke="#2c7a32" d="M419,-515C419,-515 389,-515 389,-515 383,-515 377,-509 377,-503 377,-503 377,-491 377,-491 377,-485 383,-479 389,-479 389,-479 419,-479 419,-479 425,-479 431,-485 431,-491 431,-491 431,-503 431,-503 431,-509 425,-515 419,-515"/>
<text xml:space="preserve" text-anchor="middle" x="404" y="-494.05" font-family="Segoe UI" font-size="11.00" fill="#0a3d10">mzmlb</text>
</g>
<!-- n_data__vendor_readers__ABI&#45;&gt;n_analysis__calibration -->
<g id="edge2" class="edge">
<title>n_data__vendor_readers__ABI&#45;&gt;n_analysis__calibration</title>
<path fill="none" stroke="#444444" stroke-width="1.4" d="M355.52,-314C340.78,-297.14 321.7,-275.2 304.07,-254.55"/>
<polygon fill="#444444" stroke="#444444" stroke-width="1.4" points="306.61,-252.67 298.37,-247.86 301.81,-256.76 306.61,-252.67"/>
</g>
<!-- n_data__vendor_readers__ABI__T2D -->
<g id="node22" class="node">
<title>n_data__vendor_readers__ABI__T2D</title>
<path fill="#dcdcdc" stroke="#888888" d="M472,-362C472,-362 442,-362 442,-362 436,-362 430,-356 430,-350 430,-350 430,-338 430,-338 430,-332 436,-326 442,-326 442,-326 472,-326 472,-326 478,-326 484,-332 484,-338 484,-338 484,-350 484,-350 484,-356 478,-362 472,-362"/>
<text xml:space="preserve" text-anchor="start" x="447.25" y="-342.05" font-family="Segoe UI" text-decoration="line-through" font-size="11.00" fill="#555555">T2D</text>
</g>
<!-- n_data__vendor_readers__Agilent -->
<g id="node23" class="node">
<title>n_data__vendor_readers__Agilent</title>
<path fill="#9ee5a3" stroke="#2c7a32" d="M548,-362C548,-362 518,-362 518,-362 512,-362 506,-356 506,-350 506,-350 506,-338 506,-338 506,-332 512,-326 518,-326 518,-326 548,-326 548,-326 554,-326 560,-332 560,-338 560,-338 560,-350 560,-350 560,-356 554,-362 548,-362"/>
<text xml:space="preserve" text-anchor="middle" x="533" y="-341.05" font-family="Segoe UI" font-size="11.00" fill="#0a3d10">Agilent</text>
</g>
<!-- n_data__vendor_readers__Bruker -->
<g id="node24" class="node">
<title>n_data__vendor_readers__Bruker</title>
<path fill="#9ee5a3" stroke="#2c7a32" d="M624,-362C624,-362 594,-362 594,-362 588,-362 582,-356 582,-350 582,-350 582,-338 582,-338 582,-332 588,-326 594,-326 594,-326 624,-326 624,-326 630,-326 636,-332 636,-338 636,-338 636,-350 636,-350 636,-356 630,-362 624,-362"/>
<text xml:space="preserve" text-anchor="middle" x="609" y="-341.05" font-family="Segoe UI" font-size="11.00" fill="#0a3d10">Bruker</text>
</g>
<!-- n_data__vendor_readers__Mobilion -->
<g id="node25" class="node">
<title>n_data__vendor_readers__Mobilion</title>
<path fill="#9ee5a3" stroke="#2c7a32" d="M707.5,-362C707.5,-362 670.5,-362 670.5,-362 664.5,-362 658.5,-356 658.5,-350 658.5,-350 658.5,-338 658.5,-338 658.5,-332 664.5,-326 670.5,-326 670.5,-326 707.5,-326 707.5,-326 713.5,-326 719.5,-332 719.5,-338 719.5,-338 719.5,-350 719.5,-350 719.5,-356 713.5,-362 707.5,-362"/>
<text xml:space="preserve" text-anchor="middle" x="689" y="-341.05" font-family="Segoe UI" font-size="11.00" fill="#0a3d10">Mobilion</text>
</g>
<!-- n_data__vendor_readers__Shimadzu -->
<g id="node26" class="node">
<title>n_data__vendor_readers__Shimadzu</title>
<path fill="#9ee5a3" stroke="#2c7a32" d="M794,-362C794,-362 754,-362 754,-362 748,-362 742,-356 742,-350 742,-350 742,-338 742,-338 742,-332 748,-326 754,-326 754,-326 794,-326 794,-326 800,-326 806,-332 806,-338 806,-338 806,-350 806,-350 806,-356 800,-362 794,-362"/>
<text xml:space="preserve" text-anchor="middle" x="774" y="-341.05" font-family="Segoe UI" font-size="11.00" fill="#0a3d10">Shimadzu</text>
</g>
<!-- n_data__vendor_readers__Thermo -->
<g id="node27" class="node">
<title>n_data__vendor_readers__Thermo</title>
<path fill="#9ee5a3" stroke="#2c7a32" d="M870.12,-362C870.12,-362 839.88,-362 839.88,-362 833.88,-362 827.88,-356 827.88,-350 827.88,-350 827.88,-338 827.88,-338 827.88,-332 833.88,-326 839.88,-326 839.88,-326 870.12,-326 870.12,-326 876.12,-326 882.12,-332 882.12,-338 882.12,-338 882.12,-350 882.12,-350 882.12,-356 876.12,-362 870.12,-362"/>
<text xml:space="preserve" text-anchor="middle" x="855" y="-341.05" font-family="Segoe UI" font-size="11.00" fill="#0a3d10">Thermo</text>
</g>
<!-- n_data__vendor_readers__UIMF -->
<g id="node28" class="node">
<title>n_data__vendor_readers__UIMF</title>
<path fill="#9ee5a3" stroke="#2c7a32" d="M946,-362C946,-362 916,-362 916,-362 910,-362 904,-356 904,-350 904,-350 904,-338 904,-338 904,-332 910,-326 916,-326 916,-326 946,-326 946,-326 952,-326 958,-332 958,-338 958,-338 958,-350 958,-350 958,-356 952,-362 946,-362"/>
<text xml:space="preserve" text-anchor="middle" x="931" y="-341.05" font-family="Segoe UI" font-size="11.00" fill="#0a3d10">UIMF</text>
</g>
<!-- n_data__vendor_readers__UNIFI -->
<g id="node29" class="node">
<title>n_data__vendor_readers__UNIFI</title>
<path fill="#9ee5a3" stroke="#2c7a32" d="M1022,-362C1022,-362 992,-362 992,-362 986,-362 980,-356 980,-350 980,-350 980,-338 980,-338 980,-332 986,-326 992,-326 992,-326 1022,-326 1022,-326 1028,-326 1034,-332 1034,-338 1034,-338 1034,-350 1034,-350 1034,-356 1028,-362 1022,-362"/>
<text xml:space="preserve" text-anchor="middle" x="1007" y="-341.05" font-family="Segoe UI" font-size="11.00" fill="#0a3d10">UNIFI</text>
</g>
<!-- n_data__vendor_readers__Waters -->
<g id="node30" class="node">
<title>n_data__vendor_readers__Waters</title>
<path fill="#9ee5a3" stroke="#2c7a32" d="M1098,-362C1098,-362 1068,-362 1068,-362 1062,-362 1056,-356 1056,-350 1056,-350 1056,-338 1056,-338 1056,-332 1062,-326 1068,-326 1068,-326 1098,-326 1098,-326 1104,-326 1110,-332 1110,-338 1110,-338 1110,-350 1110,-350 1110,-356 1104,-362 1098,-362"/>
<text xml:space="preserve" text-anchor="middle" x="1083" y="-341.05" font-family="Segoe UI" font-size="11.00" fill="#0a3d10">Waters</text>
</g>
<!-- n_pwiz_tools__SeeMS -->
<g id="node32" class="node">
<title>n_pwiz_tools__SeeMS</title>
<path fill="#9ee5a3" stroke="#2c7a32" d="M360,-56C360,-56 330,-56 330,-56 324,-56 318,-50 318,-44 318,-44 318,-32 318,-32 318,-26 324,-20 330,-20 330,-20 360,-20 360,-20 366,-20 372,-26 372,-32 372,-32 372,-44 372,-44 372,-50 366,-56 360,-56"/>
<text xml:space="preserve" text-anchor="middle" x="345" y="-35.05" font-family="Segoe UI" font-size="11.00" fill="#0a3d10">SeeMS</text>
</g>
<!-- n_pwiz_tools__commandline -->
<g id="node33" class="node">
<title>n_pwiz_tools__commandline</title>
<path fill="#9ee5a3" stroke="#2c7a32" d="M465.75,-56C465.75,-56 406.25,-56 406.25,-56 400.25,-56 394.25,-50 394.25,-44 394.25,-44 394.25,-32 394.25,-32 394.25,-26 400.25,-20 406.25,-20 406.25,-20 465.75,-20 465.75,-20 471.75,-20 477.75,-26 477.75,-32 477.75,-32 477.75,-44 477.75,-44 477.75,-50 471.75,-56 465.75,-56"/>
<text xml:space="preserve" text-anchor="middle" x="436" y="-35.05" font-family="Segoe UI" font-size="11.00" fill="#0a3d10">commandline</text>
</g>
<!-- n_utility__chemistry -->
<g id="node34" class="node">
<title>n_utility__chemistry</title>
<path fill="#9ee5a3" stroke="#2c7a32" d="M271.62,-821C271.62,-821 232.38,-821 232.38,-821 226.38,-821 220.38,-815 220.38,-809 220.38,-809 220.38,-797 220.38,-797 220.38,-791 226.38,-785 232.38,-785 232.38,-785 271.62,-785 271.62,-785 277.62,-785 283.62,-791 283.62,-797 283.62,-797 283.62,-809 283.62,-809 283.62,-815 277.62,-821 271.62,-821"/>
<text xml:space="preserve" text-anchor="middle" x="252" y="-800.05" font-family="Segoe UI" font-size="11.00" fill="#0a3d10">chemistry</text>
</g>
<!-- n_utility__chemistry&#45;&gt;n_data__common -->
<g id="edge4" class="edge">
<title>n_utility__chemistry&#45;&gt;n_data__common</title>
<path fill="none" stroke="#444444" stroke-width="1.4" d="M252,-773C252,-756.86 252,-736.06 252,-716.23"/>
<polygon fill="#444444" stroke="#444444" stroke-width="1.4" points="255.15,-716.37 252,-707.37 248.85,-716.37 255.15,-716.37"/>
</g>
<!-- n_utility__findmf -->
<g id="node35" class="node">
<title>n_utility__findmf</title>
<path fill="#dcdcdc" stroke="#888888" d="M348,-821C348,-821 318,-821 318,-821 312,-821 306,-815 306,-809 306,-809 306,-797 306,-797 306,-791 312,-785 318,-785 318,-785 348,-785 348,-785 354,-785 360,-791 360,-797 360,-797 360,-809 360,-809 360,-815 354,-821 348,-821"/>
<text xml:space="preserve" text-anchor="start" x="316.5" y="-801.05" font-family="Segoe UI" text-decoration="line-through" font-size="11.00" fill="#555555">findmf</text>
</g>
<!-- n_utility__math -->
<g id="node36" class="node">
<title>n_utility__math</title>
<path fill="#f5a8a8" stroke="#a02020" d="M424,-821C424,-821 394,-821 394,-821 388,-821 382,-815 382,-809 382,-809 382,-797 382,-797 382,-791 388,-785 394,-785 394,-785 424,-785 424,-785 430,-785 436,-791 436,-797 436,-797 436,-809 436,-809 436,-815 430,-821 424,-821"/>
<text xml:space="preserve" text-anchor="middle" x="409" y="-800.05" font-family="Segoe UI" font-size="11.00" fill="#3d0a0a">math</text>
</g>
<!-- n_utility__minimxml -->
<g id="node37" class="node">
<title>n_utility__minimxml</title>
<path fill="#9ee5a3" stroke="#2c7a32" d="M511.75,-821C511.75,-821 470.25,-821 470.25,-821 464.25,-821 458.25,-815 458.25,-809 458.25,-809 458.25,-797 458.25,-797 458.25,-791 464.25,-785 470.25,-785 470.25,-785 511.75,-785 511.75,-785 517.75,-785 523.75,-791 523.75,-797 523.75,-797 523.75,-809 523.75,-809 523.75,-815 517.75,-821 511.75,-821"/>
<text xml:space="preserve" text-anchor="middle" x="491" y="-800.05" font-family="Segoe UI" font-size="11.00" fill="#0a3d10">minimxml</text>
</g>
<!-- n_utility__misc -->
<g id="node38" class="node">
<title>n_utility__misc</title>
<path fill="#ffe48a" stroke="#a87000" d="M588,-821C588,-821 558,-821 558,-821 552,-821 546,-815 546,-809 546,-809 546,-797 546,-797 546,-791 552,-785 558,-785 558,-785 588,-785 588,-785 594,-785 600,-791 600,-797 600,-797 600,-809 600,-809 600,-815 594,-821 588,-821"/>
<text xml:space="preserve" text-anchor="middle" x="573" y="-800.05" font-family="Segoe UI" font-size="11.00" fill="#4a3000">misc</text>
</g>
<!-- n_utility__proteome -->
<g id="node39" class="node">
<title>n_utility__proteome</title>
<path fill="#ffe48a" stroke="#a87000" d="M675.75,-821C675.75,-821 634.25,-821 634.25,-821 628.25,-821 622.25,-815 622.25,-809 622.25,-809 622.25,-797 622.25,-797 622.25,-791 628.25,-785 634.25,-785 634.25,-785 675.75,-785 675.75,-785 681.75,-785 687.75,-791 687.75,-797 687.75,-797 687.75,-809 687.75,-809 687.75,-815 681.75,-821 675.75,-821"/>
<text xml:space="preserve" text-anchor="middle" x="655" y="-800.05" font-family="Segoe UI" font-size="11.00" fill="#4a3000">proteome</text>
</g>
</g>
</svg>
