<?xml version="1.0" encoding="UTF-8" standalone="no"?>
<!DOCTYPE svg PUBLIC "-//W3C//DTD SVG 1.1//EN"
 "http://www.w3.org/Graphics/SVG/1.1/DTD/svg11.dtd">
<!-- Generated by graphviz version 13.0.1 (20250615.1724)
 -->
<!-- Title: pwiz_module_detail Pages: 1 -->
<svg width="598pt" height="566pt"
 viewBox="0.00 0.00 598.00 566.00" xmlns="http://www.w3.org/2000/svg" xmlns:xlink="http://www.w3.org/1999/xlink">
<g id="graph0" class="graph" transform="scale(1 1) rotate(0) translate(4 562)">
<title>pwiz_module_detail</title>
<polygon fill="white" stroke="none" points="-4,4 -4,-562 594,-562 594,4 -4,4"/>
<text xml:space="preserve" text-anchor="start" x="151" y="-541.7" font-family="Segoe UI" font-weight="bold" font-size="14.00">pwiz/data/proteome — file&#45;level port status</text>
<text xml:space="preserve" text-anchor="start" x="83.5" y="-531.5" font-family="Segoe UI" font-size="10.00">one node per .cpp/.hpp pair (test fixtures omitted); each group is its own row, top&#45;to&#45;bottom</text>
<g id="clust1" class="cluster">
<title>cluster_data_proteome_Core_model</title>
<path fill="none" stroke="#888888" stroke-dasharray="5,2" d="M35,-439C35,-439 570,-439 570,-439 576,-439 582,-445 582,-451 582,-451 582,-506 582,-506 582,-512 576,-518 570,-518 570,-518 35,-518 35,-518 29,-518 23,-512 23,-506 23,-506 23,-451 23,-451 23,-445 29,-439 35,-439"/>
<text xml:space="preserve" text-anchor="start" x="272.88" y="-504.55" font-family="Segoe UI" font-weight="bold" font-size="11.00">Core model</text>
</g>
<g id="clust2" class="cluster">
<title>cluster_data_proteome_Digestion_Diff</title>
<path fill="none" stroke="#888888" stroke-dasharray="5,2" d="M40,-352C40,-352 162,-352 162,-352 168,-352 174,-358 174,-364 174,-364 174,-419 174,-419 174,-425 168,-431 162,-431 162,-431 40,-431 40,-431 34,-431 28,-425 28,-419 28,-419 28,-364 28,-364 28,-358 34,-352 40,-352"/>
<text xml:space="preserve" text-anchor="start" x="60.5" y="-417.55" font-family="Segoe UI" font-weight="bold" font-size="11.00">Digestion / Diff</text>
</g>
<g id="clust3" class="cluster">
<title>cluster_data_proteome_FASTA_I_O</title>
<path fill="none" stroke="#888888" stroke-dasharray="5,2" d="M22,-265C22,-265 304,-265 304,-265 310,-265 316,-271 316,-277 316,-277 316,-332 316,-332 316,-338 310,-344 304,-344 304,-344 22,-344 22,-344 16,-344 10,-338 10,-332 10,-332 10,-277 10,-277 10,-271 16,-265 22,-265"/>
<text xml:space="preserve" text-anchor="start" x="136.75" y="-330.55" font-family="Segoe UI" font-weight="bold" font-size="11.00">FASTA I/O</text>
</g>
<g id="clust4" class="cluster">
<title>cluster_data_proteome_Reader_dispatch</title>
<path fill="none" stroke="#888888" stroke-dasharray="5,2" d="M20,-178C20,-178 178,-178 178,-178 184,-178 190,-184 190,-190 190,-190 190,-245 190,-245 190,-251 184,-257 178,-257 178,-257 20,-257 20,-257 14,-257 8,-251 8,-245 8,-245 8,-190 8,-190 8,-184 14,-178 20,-178"/>
<text xml:space="preserve" text-anchor="start" x="57.75" y="-243.55" font-family="Segoe UI" font-weight="bold" font-size="11.00">Reader dispatch</text>
</g>
<g id="clust5" class="cluster">
<title>cluster_data_proteome_Misc</title>
<path fill="none" stroke="#888888" stroke-dasharray="5,2" d="M36,-91C36,-91 166,-91 166,-91 172,-91 178,-97 178,-103 178,-103 178,-158 178,-158 178,-164 172,-170 166,-170 166,-170 36,-170 36,-170 30,-170 24,-164 24,-158 24,-158 24,-103 24,-103 24,-97 30,-91 36,-91"/>
<text xml:space="preserve" text-anchor="start" x="89.38" y="-156.55" font-family="Segoe UI" font-weight="bold" font-size="11.00">Misc</text>
</g>
<g id="clust6" class="cluster">
<title>cluster_legend</title>
<path fill="none" stroke="#444444" d="M42,-8C42,-8 388,-8 388,-8 394,-8 400,-14 400,-20 400,-20 400,-71 400,-71 400,-77 394,-83 388,-83 388,-83 42,-83 42,-83 36,-83 30,-77 30,-71 30,-71 30,-20 30,-20 30,-14 36,-8 42,-8"/>
<text xml:space="preserve" text-anchor="start" x="198.88" y="-69.55" font-family="Segoe UI" font-weight="bold" font-size="11.00">Status</text>
</g>
<!-- n_data__proteome__AminoAcid -->
<g id="node1" class="node">
<title>n_data__proteome__AminoAcid</title>
<g id="a_node1"><a xlink:href="https://github.com/ProteoWizard/pwiz/blob/master/pwiz/data/proteome/AminoAcid.cpp" xlink:title="Per&#45;AA residue masses + properties (composition, hydrophobicity, pKa). Ported as Util/Proteome/AminoAcid.cs." target="_blank">
<path fill="#9ee5a3" stroke="#2c7a32" d="M85.38,-485C85.38,-485 44.62,-485 44.62,-485 38.62,-485 32.62,-479 32.62,-473 32.62,-473 32.62,-461 32.62,-461 32.62,-455 38.62,-449 44.62,-449 44.62,-449 85.38,-449 85.38,-449 91.38,-449 97.38,-455 97.38,-461 97.38,-461 97.38,-473 97.38,-473 97.38,-479 91.38,-485 85.38,-485"/>
<text xml:space="preserve" text-anchor="middle" x="65" y="-464.62" font-family="Segoe UI" font-size="10.00" fill="#0a3d10">AminoAcid</text>
</a>
</g>
</g>
<!-- n_data__proteome__Modification -->
<g id="node2" class="node">
<title>n_data__proteome__Modification</title>
<g id="a_node2"><a xlink:href="https://github.com/ProteoWizard/pwiz/blob/master/pwiz/data/proteome/Modification.cpp" xlink:title="PTM record (name, mono/avg delta, formula, AA specificity). Ported as Util/Proteome/Modification.cs." target="_blank">
<path fill="#9ee5a3" stroke="#2c7a32" d="M172.12,-485C172.12,-485 123.88,-485 123.88,-485 117.88,-485 111.88,-479 111.88,-473 111.88,-473 111.88,-461 111.88,-461 111.88,-455 117.88,-449 123.88,-449 123.88,-449 172.12,-449 172.12,-449 178.12,-449 184.12,-455 184.12,-461 184.12,-461 184.12,-473 184.12,-473 184.12,-479 178.12,-485 172.12,-485"/>
<text xml:space="preserve" text-anchor="middle" x="148" y="-464.62" font-family="Segoe UI" font-size="10.00" fill="#0a3d10">Modification</text>
</a>
</g>
</g>
<!-- n_data__proteome__AminoAcid&#45;&gt;n_data__proteome__Modification -->
<!-- n_data__proteome__Diff -->
<g id="node7" class="node">
<title>n_data__proteome__Diff</title>
<g id="a_node7"><a xlink:href="https://github.com/ProteoWizard/pwiz/blob/master/pwiz/data/proteome/Diff.cpp" xlink:title="ProteomeData equality with named&#45;reason output. Ported as Common/Proteome/ProteomeDataDiff.cs." target="_blank">
<path fill="#9ee5a3" stroke="#2c7a32" d="M80,-398C80,-398 50,-398 50,-398 44,-398 38,-392 38,-386 38,-386 38,-374 38,-374 38,-368 44,-362 50,-362 50,-362 80,-362 80,-362 86,-362 92,-368 92,-374 92,-374 92,-386 92,-386 92,-392 86,-398 80,-398"/>
<text xml:space="preserve" text-anchor="middle" x="65" y="-377.62" font-family="Segoe UI" font-size="10.00" fill="#0a3d10">Diff</text>
</a>
</g>
</g>
<!-- n_data__proteome__AminoAcid&#45;&gt;n_data__proteome__Diff -->
<!-- n_data__proteome__Peptide -->
<g id="node3" class="node">
<title>n_data__proteome__Peptide</title>
<g id="a_node3"><a xlink:href="https://github.com/ProteoWizard/pwiz/blob/master/pwiz/data/proteome/Peptide.cpp" xlink:title="Peptide sequence + mass model + Modifications list. Ported as Util/Proteome/Peptide.cs." target="_blank">
<path fill="#9ee5a3" stroke="#2c7a32" d="M240,-485C240,-485 210,-485 210,-485 204,-485 198,-479 198,-473 198,-473 198,-461 198,-461 198,-455 204,-449 210,-449 210,-449 240,-449 240,-449 246,-449 252,-455 252,-461 252,-461 252,-473 252,-473 252,-479 246,-485 240,-485"/>
<text xml:space="preserve" text-anchor="middle" x="225" y="-464.62" font-family="Segoe UI" font-size="10.00" fill="#0a3d10">Peptide</text>
</a>
</g>
</g>
<!-- n_data__proteome__Modification&#45;&gt;n_data__proteome__Peptide -->
<!-- n_data__proteome__ProteinListWrapper -->
<g id="node4" class="node">
<title>n_data__proteome__ProteinListWrapper</title>
<g id="a_node4"><a xlink:href="https://github.com/ProteoWizard/pwiz/blob/master/pwiz/data/proteome/ProteinListWrapper.hpp" xlink:title="Pass&#45;through ProteinList for subclassing. Ported as Common/Proteome/ProteinListWrapper.cs." target="_blank">
<path fill="#9ee5a3" stroke="#2c7a32" d="M356.12,-485C356.12,-485 277.88,-485 277.88,-485 271.88,-485 265.88,-479 265.88,-473 265.88,-473 265.88,-461 265.88,-461 265.88,-455 271.88,-449 277.88,-449 277.88,-449 356.12,-449 356.12,-449 362.12,-449 368.12,-455 368.12,-461 368.12,-461 368.12,-473 368.12,-473 368.12,-479 362.12,-485 356.12,-485"/>
<text xml:space="preserve" text-anchor="middle" x="317" y="-464.62" font-family="Segoe UI" font-size="10.00" fill="#0a3d10">ProteinListWrapper</text>
</a>
</g>
</g>
<!-- n_data__proteome__Peptide&#45;&gt;n_data__proteome__ProteinListWrapper -->
<!-- n_data__proteome__ProteomeData -->
<g id="node5" class="node">
<title>n_data__proteome__ProteomeData</title>
<g id="a_node5"><a xlink:href="https://github.com/ProteoWizard/pwiz/blob/master/pwiz/data/proteome/ProteomeData.cpp" xlink:title="Top&#45;level ProteomeData document + Protein + ProteinList + ProteinListSimple. Ported as Common/Proteome/ProteomeData.cs. IDisposable so lazy&#45;FASTA callers can scope ownership with `using var`." target="_blank">
<path fill="#9ee5a3" stroke="#2c7a32" d="M450.25,-485C450.25,-485 393.75,-485 393.75,-485 387.75,-485 381.75,-479 381.75,-473 381.75,-473 381.75,-461 381.75,-461 381.75,-455 387.75,-449 393.75,-449 393.75,-449 450.25,-449 450.25,-449 456.25,-449 462.25,-455 462.25,-461 462.25,-461 462.25,-473 462.25,-473 462.25,-479 456.25,-485 450.25,-485"/>
<text xml:space="preserve" text-anchor="middle" x="422" y="-464.62" font-family="Segoe UI" font-size="10.00" fill="#0a3d10">ProteomeData</text>
</a>
</g>
</g>
<!-- n_data__proteome__ProteinListWrapper&#45;&gt;n_data__proteome__ProteomeData -->
<!-- n_data__proteome__ProteomeDataFile -->
<g id="node6" class="node">
<title>n_data__proteome__ProteomeDataFile</title>
<g id="a_node6"><a xlink:href="https://github.com/ProteoWizard/pwiz/blob/master/pwiz/data/proteome/ProteomeDataFile.cpp" xlink:title="Format&#45;detecting Read + format&#45;selecting Write (FASTA by extension or content sniff). Ported as Common/Proteome/ProteomeDataFile.cs." target="_blank">
<path fill="#9ee5a3" stroke="#2c7a32" d="M559.75,-485C559.75,-485 488.25,-485 488.25,-485 482.25,-485 476.25,-479 476.25,-473 476.25,-473 476.25,-461 476.25,-461 476.25,-455 482.25,-449 488.25,-449 488.25,-449 559.75,-449 559.75,-449 565.75,-449 571.75,-455 571.75,-461 571.75,-461 571.75,-473 571.75,-473 571.75,-479 565.75,-485 559.75,-485"/>
<text xml:space="preserve" text-anchor="middle" x="524" y="-464.62" font-family="Segoe UI" font-size="10.00" fill="#0a3d10">ProteomeDataFile</text>
</a>
</g>
</g>
<!-- n_data__proteome__ProteomeData&#45;&gt;n_data__proteome__ProteomeDataFile -->
<!-- n_data__proteome__Digestion -->
<g id="node8" class="node">
<title>n_data__proteome__Digestion</title>
<g id="a_node8"><a xlink:href="https://github.com/ProteoWizard/pwiz/blob/master/pwiz/data/proteome/Digestion.cpp" xlink:title="Enzyme cleavage rules + iterator. Ported as Common/Proteome/Digestion.cs (CVID&#45;keyed so it lives in Common, not Util)." target="_blank">
<path fill="#9ee5a3" stroke="#2c7a32" d="M152.38,-398C152.38,-398 117.62,-398 117.62,-398 111.62,-398 105.62,-392 105.62,-386 105.62,-386 105.62,-374 105.62,-374 105.62,-368 111.62,-362 117.62,-362 117.62,-362 152.38,-362 152.38,-362 158.38,-362 164.38,-368 164.38,-374 164.38,-374 164.38,-386 164.38,-386 164.38,-392 158.38,-398 152.38,-398"/>
<text xml:space="preserve" text-anchor="middle" x="135" y="-377.62" font-family="Segoe UI" font-size="10.00" fill="#0a3d10">Digestion</text>
</a>
</g>
</g>
<!-- n_data__proteome__Diff&#45;&gt;n_data__proteome__Digestion -->
<!-- n_data__proteome__ProteinListCache -->
<g id="node9" class="node">
<title>n_data__proteome__ProteinListCache</title>
<g id="a_node9"><a xlink:href="https://github.com/ProteoWizard/pwiz/blob/master/pwiz/data/proteome/ProteinListCache.cpp" xlink:title="MRU cache over a ProteinList — meta&#45;only or meta&#45;plus&#45;sequence modes. Ported as Common/Proteome/ProteinListCache.cs." target="_blank">
<path fill="#9ee5a3" stroke="#2c7a32" d="M98.12,-311C98.12,-311 31.88,-311 31.88,-311 25.88,-311 19.88,-305 19.88,-299 19.88,-299 19.88,-287 19.88,-287 19.88,-281 25.88,-275 31.88,-275 31.88,-275 98.12,-275 98.12,-275 104.12,-275 110.12,-281 110.12,-287 110.12,-287 110.12,-299 110.12,-299 110.12,-305 104.12,-311 98.12,-311"/>
<text xml:space="preserve" text-anchor="middle" x="65" y="-290.62" font-family="Segoe UI" font-size="10.00" fill="#0a3d10">ProteinListCache</text>
</a>
</g>
</g>
<!-- n_data__proteome__Diff&#45;&gt;n_data__proteome__ProteinListCache -->
<!-- n_data__proteome__Reader_FASTA -->
<g id="node10" class="node">
<title>n_data__proteome__Reader_FASTA</title>
<g id="a_node10"><a xlink:href="https://github.com/ProteoWizard/pwiz/blob/master/pwiz/data/proteome/Reader_FASTA.cpp" xlink:title="FASTA defline + sequence parser; IPI&#45;aware id regex. Ported as Common/Proteome/Fasta.Read / ReadFile / OpenLazy. Lazy path goes through FastaProteinList (per&#45;protein seek via .index sidecar)." target="_blank">
<path fill="#9ee5a3" stroke="#2c7a32" d="M191.88,-311C191.88,-311 136.12,-311 136.12,-311 130.12,-311 124.12,-305 124.12,-299 124.12,-299 124.12,-287 124.12,-287 124.12,-281 130.12,-275 136.12,-275 136.12,-275 191.88,-275 191.88,-275 197.88,-275 203.88,-281 203.88,-287 203.88,-287 203.88,-299 203.88,-299 203.88,-305 197.88,-311 191.88,-311"/>
<text xml:space="preserve" text-anchor="middle" x="164" y="-290.62" font-family="Segoe UI" font-size="10.00" fill="#0a3d10">Reader_FASTA</text>
</a>
</g>
</g>
<!-- n_data__proteome__ProteinListCache&#45;&gt;n_data__proteome__Reader_FASTA -->
<!-- n_data__proteome__DefaultReaderList -->
<g id="node12" class="node">
<title>n_data__proteome__DefaultReaderList</title>
<g id="a_node12"><a xlink:href="https://github.com/ProteoWizard/pwiz/blob/master/pwiz/data/proteome/DefaultReaderList.cpp" xlink:title="Reader_FASTA registration into the IReader dispatcher. NOT PORTED — no dispatcher wired for proteome yet." target="_blank">
<path fill="#f5a8a8" stroke="#a02020" d="M100.38,-224C100.38,-224 29.62,-224 29.62,-224 23.62,-224 17.62,-218 17.62,-212 17.62,-212 17.62,-200 17.62,-200 17.62,-194 23.62,-188 29.62,-188 29.62,-188 100.38,-188 100.38,-188 106.38,-188 112.38,-194 112.38,-200 112.38,-200 112.38,-212 112.38,-212 112.38,-218 106.38,-224 100.38,-224"/>
<text xml:space="preserve" text-anchor="middle" x="65" y="-203.62" font-family="Segoe UI" font-size="10.00" fill="#3d0a0a">DefaultReaderList</text>
</a>
</g>
</g>
<!-- n_data__proteome__ProteinListCache&#45;&gt;n_data__proteome__DefaultReaderList -->
<!-- n_data__proteome__Serializer_FASTA -->
<g id="node11" class="node">
<title>n_data__proteome__Serializer_FASTA</title>
<g id="a_node11"><a xlink:href="https://github.com/ProteoWizard/pwiz/blob/master/pwiz/data/proteome/Serializer_FASTA.cpp" xlink:title="FASTA writer + .index sidecar (BinaryIndexStream). Ported as Common/Proteome/Fasta.Write + FastaProteinList. The .index sidecar is byte&#45;compatible with cpp pwiz (SHA&#45;1&#45;hashed ids, populated 48&#45;byte file&#45;size + SHA&#45;1 prelude)." target="_blank">
<path fill="#9ee5a3" stroke="#2c7a32" d="M294,-311C294,-311 230,-311 230,-311 224,-311 218,-305 218,-299 218,-299 218,-287 218,-287 218,-281 224,-275 230,-275 230,-275 294,-275 294,-275 300,-275 306,-281 306,-287 306,-287 306,-299 306,-299 306,-305 300,-311 294,-311"/>
<text xml:space="preserve" text-anchor="middle" x="262" y="-290.62" font-family="Segoe UI" font-size="10.00" fill="#0a3d10">Serializer_FASTA</text>
</a>
</g>
</g>
<!-- n_data__proteome__Reader_FASTA&#45;&gt;n_data__proteome__Serializer_FASTA -->
<!-- n_data__proteome__Reader -->
<g id="node13" class="node">
<title>n_data__proteome__Reader</title>
<g id="a_node13"><a xlink:href="https://github.com/ProteoWizard/pwiz/blob/master/pwiz/data/proteome/Reader.cpp" xlink:title="IReader interface for ProteomeData. NOT PORTED — only Reader_FASTA matters and Fasta.OpenLazy / ReadFile bypass the dispatcher." target="_blank">
<path fill="#f5a8a8" stroke="#a02020" d="M168,-224C168,-224 138,-224 138,-224 132,-224 126,-218 126,-212 126,-212 126,-200 126,-200 126,-194 132,-188 138,-188 138,-188 168,-188 168,-188 174,-188 180,-194 180,-200 180,-200 180,-212 180,-212 180,-218 174,-224 168,-224"/>
<text xml:space="preserve" text-anchor="middle" x="153" y="-203.62" font-family="Segoe UI" font-size="10.00" fill="#3d0a0a">Reader</text>
</a>
</g>
</g>
<!-- n_data__proteome__DefaultReaderList&#45;&gt;n_data__proteome__Reader -->
<!-- n_data__proteome__TextWriter -->
<g id="node14" class="node">
<title>n_data__proteome__TextWriter</title>
<g id="a_node14"><a xlink:href="https://github.com/ProteoWizard/pwiz/blob/master/pwiz/data/proteome/TextWriter.hpp" xlink:title="Pretty&#45;print text dump of ProteomeData. WON&#39;T PORT — Format_Text output isn&#39;t wired in pwiz&#45;sharp." target="_blank">
<path fill="#dcdcdc" stroke="#888888" d="M83.88,-137C83.88,-137 46.12,-137 46.12,-137 40.12,-137 34.12,-131 34.12,-125 34.12,-125 34.12,-113 34.12,-113 34.12,-107 40.12,-101 46.12,-101 46.12,-101 83.88,-101 83.88,-101 89.88,-101 95.88,-107 95.88,-113 95.88,-113 95.88,-125 95.88,-125 95.88,-131 89.88,-137 83.88,-137"/>
<text xml:space="preserve" text-anchor="start" x="42.12" y="-117.62" font-family="Segoe UI" text-decoration="line-through" font-size="10.00" fill="#555555">TextWriter</text>
</a>
</g>
</g>
<!-- n_data__proteome__DefaultReaderList&#45;&gt;n_data__proteome__TextWriter -->
<!-- n_data__proteome__examples -->
<g id="node15" class="node">
<title>n_data__proteome__examples</title>
<g id="a_node15"><a xlink:href="https://github.com/ProteoWizard/pwiz/blob/master/pwiz/data/proteome/examples.cpp" xlink:title="Hard&#45;coded ProteomeData fixtures for cpp tests. WON&#39;T PORT — fixtures built inline in tests instead." target="_blank">
<path fill="#dcdcdc" stroke="#888888" d="M155.62,-137C155.62,-137 122.38,-137 122.38,-137 116.38,-137 110.38,-131 110.38,-125 110.38,-125 110.38,-113 110.38,-113 110.38,-107 116.38,-101 122.38,-101 122.38,-101 155.62,-101 155.62,-101 161.62,-101 167.62,-107 167.62,-113 167.62,-113 167.62,-125 167.62,-125 167.62,-131 161.62,-137 155.62,-137"/>
<text xml:space="preserve" text-anchor="start" x="118.38" y="-117.62" font-family="Segoe UI" text-decoration="line-through" font-size="10.00" fill="#555555">examples</text>
</a>
</g>
</g>
<!-- n_data__proteome__TextWriter&#45;&gt;n_data__proteome__examples -->
<!-- legend_full -->
<g id="node16" class="node">
<title>legend_full</title>
<path fill="#9ee5a3" stroke="#2c7a32" d="M80,-52C80,-52 50,-52 50,-52 44,-52 38,-46 38,-40 38,-40 38,-28 38,-28 38,-22 44,-16 50,-16 50,-16 80,-16 80,-16 86,-16 92,-22 92,-28 92,-28 92,-40 92,-40 92,-46 86,-52 80,-52"/>
<text xml:space="preserve" text-anchor="middle" x="65" y="-31.62" font-family="Segoe UI" font-size="10.00" fill="#0a3d10">ported</text>
</g>
<!-- n_data__proteome__TextWriter&#45;&gt;legend_full -->
<!-- legend_partial -->
<g id="node17" class="node">
<title>legend_partial</title>
<path fill="#ffe48a" stroke="#a87000" d="M148,-52C148,-52 118,-52 118,-52 112,-52 106,-46 106,-40 106,-40 106,-28 106,-28 106,-22 112,-16 118,-16 118,-16 148,-16 148,-16 154,-16 160,-22 160,-28 160,-28 160,-40 160,-40 160,-46 154,-52 148,-52"/>
<text xml:space="preserve" text-anchor="middle" x="133" y="-31.62" font-family="Segoe UI" font-size="10.00" fill="#4a3000">partial</text>
</g>
<!-- legend_full&#45;&gt;legend_partial -->
<!-- legend_none -->
<g id="node18" class="node">
<title>legend_none</title>
<path fill="#f5a8a8" stroke="#a02020" d="M244,-52C244,-52 186,-52 186,-52 180,-52 174,-46 174,-40 174,-40 174,-28 174,-28 174,-22 180,-16 186,-16 186,-16 244,-16 244,-16 250,-16 256,-22 256,-28 256,-28 256,-40 256,-40 256,-46 250,-52 244,-52"/>
<text xml:space="preserve" text-anchor="middle" x="215" y="-31.62" font-family="Segoe UI" font-size="10.00" fill="#3d0a0a">not yet ported</text>
</g>
<!-- legend_partial&#45;&gt;legend_none -->
<!-- legend_skipped -->
<g id="node19" class="node">
<title>legend_skipped</title>
<path fill="#dcdcdc" stroke="#888888" d="M379.5,-52C379.5,-52 282.5,-52 282.5,-52 276.5,-52 270.5,-46 270.5,-40 270.5,-40 270.5,-28 270.5,-28 270.5,-22 276.5,-16 282.5,-16 282.5,-16 379.5,-16 379.5,-16 385.5,-16 391.5,-22 391.5,-28 391.5,-28 391.5,-40 391.5,-40 391.5,-46 385.5,-52 379.5,-52"/>
<text xml:space="preserve" text-anchor="start" x="278.5" y="-32.62" font-family="Segoe UI" text-decoration="line-through" font-size="10.00" fill="#555555">won&#39;t port (BCL/legacy)</text>
</g>
<!-- legend_none&#45;&gt;legend_skipped -->
</g>
</svg>
