<?xml version="1.0"  encoding="UTF-8" standalone="no"?>
<svg version="1.1" xmlns="http://www.w3.org/2000/svg" xmlns:xlink="http://www.w3.org/1999/xlink" width="601.0000" height="406.0000">
<g transform="translate(0.0000, 0.00 00)">
<g transform="matrix(0.0625 0.0000 0.0000 0.0625 0.0000 0.0000)">
<path d="M 0.0000,0.0000 L 0.0000,6400.0000 L 9600.0000,6400.0000 L 9600.0000,0.0000 L 0.0000,0.0000 Z" stroke-width="1px" stroke="#FFFFFF"  fill="#FFFFFF" />
</g>
<g transform="matrix(1.0000 0.0000 0.0000 1.0000 0.0000 0.0000)">
</g>
<g transform="matrix(0.0625 0.0000 0.0000 0.0625 0.0000 0.0000)">
<path d="M 0.0000,0.0000 L 0.0000,6400.0000 L 9600.0000,6400.0000 L 9600.0000,0.0000 L 0.0000,0.0000 Z" stroke-width="1px" stroke="#FFFFFF"  fill="#FFFFFF" />
</g>
<g transform="matrix(1.0000 0.0000 0.0000 1.0000 0.0000 0.0000)">
<path d="M 66.0000,10.0000 L 66.0000,338.0000 L 577.0000,338.0000 L 577.0000,10.0000 L 66.0000,10.0000 Z" stroke-width="1px" stroke="#FFFFFF"  fill="#FFFFFF" />
</g>
<g transform="matrix(0.0625 0.0000 0.0000 0.0625 0.0000 0.0000)">
<path d="M 1261.0000,5393.0000 L 1261.0000,5433.0000 " stroke="#000000" stroke-width="16.0000"  stroke-linecap="butt"  stroke-linejoin="miter"  stroke-miterlimit="10.0000" fill="none" />
</g>
<g transform="matrix(1.0000 0.0000 0.0000 1.0000 0.0000 0.0000)">
</g>
<g transform="matrix(0.0625 0.0000 0.0000 0.0625 0.0000 0.0000)">
<path d="M 1261.0000,5393.0000 L 1261.0000,5353.0000 " stroke="#000000" stroke-width="16.0000"  stroke-linecap="butt"  stroke-linejoin="miter"  stroke-miterlimit="10.0000" fill="none" />
</g>
<g transform="matrix(1.0000 0.0000 0.0000 1.0000 0.0000 0.0000)">
</g>
<g transform="matrix(0.0625 0.0000 0.0000 0.0625 0.0000 0.0000)">
<path d="M 1465.0000,5393.0000 L 1465.0000,5433.0000 " stroke="#000000" stroke-width="16.0000"  stroke-linecap="butt"  stroke-linejoin="miter"  stroke-miterlimit="10.0000" fill="none" />
</g>
<g transform="matrix(1.0000 0.0000 0.0000 1.0000 0.0000 0.0000)">
</g>
<g transform="matrix(0.0625 0.0000 0.0000 0.0625 0.0000 0.0000)">
<path d="M 1465.0000,5393.0000 L 1465.0000,5353.0000 " stroke="#000000" stroke-width="16.0000"  stroke-linecap="butt"  stroke-linejoin="miter"  stroke-miterlimit="10.0000" fill="none" />
</g>
<g transform="matrix(1.0000 0.0000 0.0000 1.0000 0.0000 0.0000)">
</g>
<g transform="matrix(0.0625 0.0000 0.0000 0.0625 0.0000 0.0000)">
<path d="M 1669.0000,5393.0000 L 1669.0000,5433.0000 " stroke="#000000" stroke-width="16.0000"  stroke-linecap="butt"  stroke-linejoin="miter"  stroke-miterlimit="10.0000" fill="none" />
</g>
<g transform="matrix(1.0000 0.0000 0.0000 1.0000 0.0000 0.0000)">
</g>
<g transform="matrix(0.0625 0.0000 0.0000 0.0625 0.0000 0.0000)">
<path d="M 1669.0000,5393.0000 L 1669.0000,5353.0000 " stroke="#000000" stroke-width="16.0000"  stroke-linecap="butt"  stroke-linejoin="miter"  stroke-miterlimit="10.0000" fill="none" />
</g>
<g transform="matrix(1.0000 0.0000 0.0000 1.0000 0.0000 0.0000)">
</g>
<g transform="matrix(0.0625 0.0000 0.0000 0.0625 0.0000 0.0000)">
<path d="M 1874.0000,5393.0000 L 1874.0000,5433.0000 " stroke="#000000" stroke-width="16.0000"  stroke-linecap="butt"  stroke-linejoin="miter"  stroke-miterlimit="10.0000" fill="none" />
</g>
<g transform="matrix(1.0000 0.0000 0.0000 1.0000 0.0000 0.0000)">
</g>
<g transform="matrix(0.0625 0.0000 0.0000 0.0625 0.0000 0.0000)">
<path d="M 1874.0000,5393.0000 L 1874.0000,5353.0000 " stroke="#000000" stroke-width="16.0000"  stroke-linecap="butt"  stroke-linejoin="miter"  stroke-miterlimit="10.0000" fill="none" />
</g>
<g transform="matrix(1.0000 0.0000 0.0000 1.0000 0.0000 0.0000)">
</g>
<g transform="matrix(0.0625 0.0000 0.0000 0.0625 0.0000 0.0000)">
<path d="M 2282.0000,5393.0000 L 2282.0000,5433.0000 " stroke="#000000" stroke-width="16.0000"  stroke-linecap="butt"  stroke-linejoin="miter"  stroke-miterlimit="10.0000" fill="none" />
</g>
<g transform="matrix(1.0000 0.0000 0.0000 1.0000 0.0000 0.0000)">
</g>
<g transform="matrix(0.0625 0.0000 0.0000 0.0625 0.0000 0.0000)">
<path d="M 2282.0000,5393.0000 L 2282.0000,5353.0000 " stroke="#000000" stroke-width="16.0000"  stroke-linecap="butt"  stroke-linejoin="miter"  stroke-miterlimit="10.0000" fill="none" />
</g>
<g transform="matrix(1.0000 0.0000 0.0000 1.0000 0.0000 0.0000)">
</g>
<g transform="matrix(0.0625 0.0000 0.0000 0.0625 0.0000 0.0000)">
<path d="M 2486.0000,5393.0000 L 2486.0000,5433.0000 " stroke="#000000" stroke-width="16.0000"  stroke-linecap="butt"  stroke-linejoin="miter"  stroke-miterlimit="10.0000" fill="none" />
</g>
<g transform="matrix(1.0000 0.0000 0.0000 1.0000 0.0000 0.0000)">
</g>
<g transform="matrix(0.0625 0.0000 0.0000 0.0625 0.0000 0.0000)">
<path d="M 2486.0000,5393.0000 L 2486.0000,5353.0000 " stroke="#000000" stroke-width="16.0000"  stroke-linecap="butt"  stroke-linejoin="miter"  stroke-miterlimit="10.0000" fill="none" />
</g>
<g transform="matrix(1.0000 0.0000 0.0000 1.0000 0.0000 0.0000)">
</g>
<g transform="matrix(0.0625 0.0000 0.0000 0.0625 0.0000 0.0000)">
<path d="M 2690.0000,5393.0000 L 2690.0000,5433.0000 " stroke="#000000" stroke-width="16.0000"  stroke-linecap="butt"  stroke-linejoin="miter"  stroke-miterlimit="10.0000" fill="none" />
</g>
<g transform="matrix(1.0000 0.0000 0.0000 1.0000 0.0000 0.0000)">
</g>
<g transform="matrix(0.0625 0.0000 0.0000 0.0625 0.0000 0.0000)">
<path d="M 2690.0000,5393.0000 L 2690.0000,5353.0000 " stroke="#000000" stroke-width="16.0000"  stroke-linecap="butt"  stroke-linejoin="miter"  stroke-miterlimit="10.0000" fill="none" />
</g>
<g transform="matrix(1.0000 0.0000 0.0000 1.0000 0.0000 0.0000)">
</g>
<g transform="matrix(0.0625 0.0000 0.0000 0.0625 0.0000 0.0000)">
<path d="M 2894.0000,5393.0000 L 2894.0000,5433.0000 " stroke="#000000" stroke-width="16.0000"  stroke-linecap="butt"  stroke-linejoin="miter"  stroke-miterlimit="10.0000" fill="none" />
</g>
<g transform="matrix(1.0000 0.0000 0.0000 1.0000 0.0000 0.0000)">
</g>
<g transform="matrix(0.0625 0.0000 0.0000 0.0625 0.0000 0.0000)">
<path d="M 2894.0000,5393.0000 L 2894.0000,5353.0000 " stroke="#000000" stroke-width="16.0000"  stroke-linecap="butt"  stroke-linejoin="miter"  stroke-miterlimit="10.0000" fill="none" />
</g>
<g transform="matrix(1.0000 0.0000 0.0000 1.0000 0.0000 0.0000)">
</g>
<g transform="matrix(0.0625 0.0000 0.0000 0.0625 0.0000 0.0000)">
<path d="M 3302.0000,5393.0000 L 3302.0000,5433.0000 " stroke="#000000" stroke-width="16.0000"  stroke-linecap="butt"  stroke-linejoin="miter"  stroke-miterlimit="10.0000" fill="none" />
</g>
<g transform="matrix(1.0000 0.0000 0.0000 1.0000 0.0000 0.0000)">
</g>
<g transform="matrix(0.0625 0.0000 0.0000 0.0625 0.0000 0.0000)">
<path d="M 3302.0000,5393.0000 L 3302.0000,5353.0000 " stroke="#000000" stroke-width="16.0000"  stroke-linecap="butt"  stroke-linejoin="miter"  stroke-miterlimit="10.0000" fill="none" />
</g>
<g transform="matrix(1.0000 0.0000 0.0000 1.0000 0.0000 0.0000)">
</g>
<g transform="matrix(0.0625 0.0000 0.0000 0.0625 0.0000 0.0000)">
<path d="M 3507.0000,5393.0000 L 3507.0000,5433.0000 " stroke="#000000" stroke-width="16.0000"  stroke-linecap="butt"  stroke-linejoin="miter"  stroke-miterlimit="10.0000" fill="none" />
</g>
<g transform="matrix(1.0000 0.0000 0.0000 1.0000 0.0000 0.0000)">
</g>
<g transform="matrix(0.0625 0.0000 0.0000 0.0625 0.0000 0.0000)">
<path d="M 3507.0000,5393.0000 L 3507.0000,5353.0000 " stroke="#000000" stroke-width="16.0000"  stroke-linecap="butt"  stroke-linejoin="miter"  stroke-miterlimit="10.0000" fill="none" />
</g>
<g transform="matrix(1.0000 0.0000 0.0000 1.0000 0.0000 0.0000)">
</g>
<g transform="matrix(0.0625 0.0000 0.0000 0.0625 0.0000 0.0000)">
<path d="M 3711.0000,5393.0000 L 3711.0000,5433.0000 " stroke="#000000" stroke-width="16.0000"  stroke-linecap="butt"  stroke-linejoin="miter"  stroke-miterlimit="10.0000" fill="none" />
</g>
<g transform="matrix(1.0000 0.0000 0.0000 1.0000 0.0000 0.0000)">
</g>
<g transform="matrix(0.0625 0.0000 0.0000 0.0625 0.0000 0.0000)">
<path d="M 3711.0000,5393.0000 L 3711.0000,5353.0000 " stroke="#000000" stroke-width="16.0000"  stroke-linecap="butt"  stroke-linejoin="miter"  stroke-miterlimit="10.0000" fill="none" />
</g>
<g transform="matrix(1.0000 0.0000 0.0000 1.0000 0.0000 0.0000)">
</g>
<g transform="matrix(0.0625 0.0000 0.0000 0.0625 0.0000 0.0000)">
<path d="M 3915.0000,5393.0000 L 3915.0000,5433.0000 " stroke="#000000" stroke-width="16.0000"  stroke-linecap="butt"  stroke-linejoin="miter"  stroke-miterlimit="10.0000" fill="none" />
</g>
<g transform="matrix(1.0000 0.0000 0.0000 1.0000 0.0000 0.0000)">
</g>
<g transform="matrix(0.0625 0.0000 0.0000 0.0625 0.0000 0.0000)">
<path d="M 3915.0000,5393.0000 L 3915.0000,5353.0000 " stroke="#000000" stroke-width="16.0000"  stroke-linecap="butt"  stroke-linejoin="miter"  stroke-miterlimit="10.0000" fill="none" />
</g>
<g transform="matrix(1.0000 0.0000 0.0000 1.0000 0.0000 0.0000)">
</g>
<g transform="matrix(0.0625 0.0000 0.0000 0.0625 0.0000 0.0000)">
<path d="M 4323.0000,5393.0000 L 4323.0000,5433.0000 " stroke="#000000" stroke-width="16.0000"  stroke-linecap="butt"  stroke-linejoin="miter"  stroke-miterlimit="10.0000" fill="none" />
</g>
<g transform="matrix(1.0000 0.0000 0.0000 1.0000 0.0000 0.0000)">
</g>
<g transform="matrix(0.0625 0.0000 0.0000 0.0625 0.0000 0.0000)">
<path d="M 4323.0000,5393.0000 L 4323.0000,5353.0000 " stroke="#000000" stroke-width="16.0000"  stroke-linecap="butt"  stroke-linejoin="miter"  stroke-miterlimit="10.0000" fill="none" />
</g>
<g transform="matrix(1.0000 0.0000 0.0000 1.0000 0.0000 0.0000)">
</g>
<g transform="matrix(0.0625 0.0000 0.0000 0.0625 0.0000 0.0000)">
<path d="M 4527.0000,5393.0000 L 4527.0000,5433.0000 " stroke="#000000" stroke-width="16.0000"  stroke-linecap="butt"  stroke-linejoin="miter"  stroke-miterlimit="10.0000" fill="none" />
</g>
<g transform="matrix(1.0000 0.0000 0.0000 1.0000 0.0000 0.0000)">
</g>
<g transform="matrix(0.0625 0.0000 0.0000 0.0625 0.0000 0.0000)">
<path d="M 4527.0000,5393.0000 L 4527.0000,5353.0000 " stroke="#000000" stroke-width="16.0000"  stroke-linecap="butt"  stroke-linejoin="miter"  stroke-miterlimit="10.0000" fill="none" />
</g>
<g transform="matrix(1.0000 0.0000 0.0000 1.0000 0.0000 0.0000)">
</g>
<g transform="matrix(0.0625 0.0000 0.0000 0.0625 0.0000 0.0000)">
<path d="M 4731.0000,5393.0000 L 4731.0000,5433.0000 " stroke="#000000" stroke-width="16.0000"  stroke-linecap="butt"  stroke-linejoin="miter"  stroke-miterlimit="10.0000" fill="none" />
</g>
<g transform="matrix(1.0000 0.0000 0.0000 1.0000 0.0000 0.0000)">
</g>
<g transform="matrix(0.0625 0.0000 0.0000 0.0625 0.0000 0.0000)">
<path d="M 4731.0000,5393.0000 L 4731.0000,5353.0000 " stroke="#000000" stroke-width="16.0000"  stroke-linecap="butt"  stroke-linejoin="miter"  stroke-miterlimit="10.0000" fill="none" />
</g>
<g transform="matrix(1.0000 0.0000 0.0000 1.0000 0.0000 0.0000)">
</g>
<g transform="matrix(0.0625 0.0000 0.0000 0.0625 0.0000 0.0000)">
<path d="M 4935.0000,5393.0000 L 4935.0000,5433.0000 " stroke="#000000" stroke-width="16.0000"  stroke-linecap="butt"  stroke-linejoin="miter"  stroke-miterlimit="10.0000" fill="none" />
</g>
<g transform="matrix(1.0000 0.0000 0.0000 1.0000 0.0000 0.0000)">
</g>
<g transform="matrix(0.0625 0.0000 0.0000 0.0625 0.0000 0.0000)">
<path d="M 4935.0000,5393.0000 L 4935.0000,5353.0000 " stroke="#000000" stroke-width="16.0000"  stroke-linecap="butt"  stroke-linejoin="miter"  stroke-miterlimit="10.0000" fill="none" />
</g>
<g transform="matrix(1.0000 0.0000 0.0000 1.0000 0.0000 0.0000)">
</g>
<g transform="matrix(0.0625 0.0000 0.0000 0.0625 0.0000 0.0000)">
<path d="M 5344.0000,5393.0000 L 5344.0000,5433.0000 " stroke="#000000" stroke-width="16.0000"  stroke-linecap="butt"  stroke-linejoin="miter"  stroke-miterlimit="10.0000" fill="none" />
</g>
<g transform="matrix(1.0000 0.0000 0.0000 1.0000 0.0000 0.0000)">
</g>
<g transform="matrix(0.0625 0.0000 0.0000 0.0625 0.0000 0.0000)">
<path d="M 5344.0000,5393.0000 L 5344.0000,5353.0000 " stroke="#000000" stroke-width="16.0000"  stroke-linecap="butt"  stroke-linejoin="miter"  stroke-miterlimit="10.0000" fill="none" />
</g>
<g transform="matrix(1.0000 0.0000 0.0000 1.0000 0.0000 0.0000)">
</g>
<g transform="matrix(0.0625 0.0000 0.0000 0.0625 0.0000 0.0000)">
<path d="M 5548.0000,5393.0000 L 5548.0000,5433.0000 " stroke="#000000" stroke-width="16.0000"  stroke-linecap="butt"  stroke-linejoin="miter"  stroke-miterlimit="10.0000" fill="none" />
</g>
<g transform="matrix(1.0000 0.0000 0.0000 1.0000 0.0000 0.0000)">
</g>
<g transform="matrix(0.0625 0.0000 0.0000 0.0625 0.0000 0.0000)">
<path d="M 5548.0000,5393.0000 L 5548.0000,5353.0000 " stroke="#000000" stroke-width="16.0000"  stroke-linecap="butt"  stroke-linejoin="miter"  stroke-miterlimit="10.0000" fill="none" />
</g>
<g transform="matrix(1.0000 0.0000 0.0000 1.0000 0.0000 0.0000)">
</g>
<g transform="matrix(0.0625 0.0000 0.0000 0.0625 0.0000 0.0000)">
<path d="M 5752.0000,5393.0000 L 5752.0000,5433.0000 " stroke="#000000" stroke-width="16.0000"  stroke-linecap="butt"  stroke-linejoin="miter"  stroke-miterlimit="10.0000" fill="none" />
</g>
<g transform="matrix(1.0000 0.0000 0.0000 1.0000 0.0000 0.0000)">
</g>
<g transform="matrix(0.0625 0.0000 0.0000 0.0625 0.0000 0.0000)">
<path d="M 5752.0000,5393.0000 L 5752.0000,5353.0000 " stroke="#000000" stroke-width="16.0000"  stroke-linecap="butt"  stroke-linejoin="miter"  stroke-miterlimit="10.0000" fill="none" />
</g>
<g transform="matrix(1.0000 0.0000 0.0000 1.0000 0.0000 0.0000)">
</g>
<g transform="matrix(0.0625 0.0000 0.0000 0.0625 0.0000 0.0000)">
<path d="M 5956.0000,5393.0000 L 5956.0000,5433.0000 " stroke="#000000" stroke-width="16.0000"  stroke-linecap="butt"  stroke-linejoin="miter"  stroke-miterlimit="10.0000" fill="none" />
</g>
<g transform="matrix(1.0000 0.0000 0.0000 1.0000 0.0000 0.0000)">
</g>
<g transform="matrix(0.0625 0.0000 0.0000 0.0625 0.0000 0.0000)">
<path d="M 5956.0000,5393.0000 L 5956.0000,5353.0000 " stroke="#000000" stroke-width="16.0000"  stroke-linecap="butt"  stroke-linejoin="miter"  stroke-miterlimit="10.0000" fill="none" />
</g>
<g transform="matrix(1.0000 0.0000 0.0000 1.0000 0.0000 0.0000)">
</g>
<g transform="matrix(0.0625 0.0000 0.0000 0.0625 0.0000 0.0000)">
<path d="M 6364.0000,5393.0000 L 6364.0000,5433.0000 " stroke="#000000" stroke-width="16.0000"  stroke-linecap="butt"  stroke-linejoin="miter"  stroke-miterlimit="10.0000" fill="none" />
</g>
<g transform="matrix(1.0000 0.0000 0.0000 1.0000 0.0000 0.0000)">
</g>
<g transform="matrix(0.0625 0.0000 0.0000 0.0625 0.0000 0.0000)">
<path d="M 6364.0000,5393.0000 L 6364.0000,5353.0000 " stroke="#000000" stroke-width="16.0000"  stroke-linecap="butt"  stroke-linejoin="miter"  stroke-miterlimit="10.0000" fill="none" />
</g>
<g transform="matrix(1.0000 0.0000 0.0000 1.0000 0.0000 0.0000)">
</g>
<g transform="matrix(0.0625 0.0000 0.0000 0.0625 0.0000 0.0000)">
<path d="M 6568.0000,5393.0000 L 6568.0000,5433.0000 " stroke="#000000" stroke-width="16.0000"  stroke-linecap="butt"  stroke-linejoin="miter"  stroke-miterlimit="10.0000" fill="none" />
</g>
<g transform="matrix(1.0000 0.0000 0.0000 1.0000 0.0000 0.0000)">
</g>
<g transform="matrix(0.0625 0.0000 0.0000 0.0625 0.0000 0.0000)">
<path d="M 6568.0000,5393.0000 L 6568.0000,5353.0000 " stroke="#000000" stroke-width="16.0000"  stroke-linecap="butt"  stroke-linejoin="miter"  stroke-miterlimit="10.0000" fill="none" />
</g>
<g transform="matrix(1.0000 0.0000 0.0000 1.0000 0.0000 0.0000)">
</g>
<g transform="matrix(0.0625 0.0000 0.0000 0.0625 0.0000 0.0000)">
<path d="M 6772.0000,5393.0000 L 6772.0000,5433.0000 " stroke="#000000" stroke-width="16.0000"  stroke-linecap="butt"  stroke-linejoin="miter"  stroke-miterlimit="10.0000" fill="none" />
</g>
<g transform="matrix(1.0000 0.0000 0.0000 1.0000 0.0000 0.0000)">
</g>
<g transform="matrix(0.0625 0.0000 0.0000 0.0625 0.0000 0.0000)">
<path d="M 6772.0000,5393.0000 L 6772.0000,5353.0000 " stroke="#000000" stroke-width="16.0000"  stroke-linecap="butt"  stroke-linejoin="miter"  stroke-miterlimit="10.0000" fill="none" />
</g>
<g transform="matrix(1.0000 0.0000 0.0000 1.0000 0.0000 0.0000)">
</g>
<g transform="matrix(0.0625 0.0000 0.0000 0.0625 0.0000 0.0000)">
<path d="M 6977.0000,5393.0000 L 6977.0000,5433.0000 " stroke="#000000" stroke-width="16.0000"  stroke-linecap="butt"  stroke-linejoin="miter"  stroke-miterlimit="10.0000" fill="none" />
</g>
<g transform="matrix(1.0000 0.0000 0.0000 1.0000 0.0000 0.0000)">
</g>
<g transform="matrix(0.0625 0.0000 0.0000 0.0625 0.0000 0.0000)">
<path d="M 6977.0000,5393.0000 L 6977.0000,5353.0000 " stroke="#000000" stroke-width="16.0000"  stroke-linecap="butt"  stroke-linejoin="miter"  stroke-miterlimit="10.0000" fill="none" />
</g>
<g transform="matrix(1.0000 0.0000 0.0000 1.0000 0.0000 0.0000)">
</g>
<g transform="matrix(0.0625 0.0000 0.0000 0.0625 0.0000 0.0000)">
<path d="M 7385.0000,5393.0000 L 7385.0000,5433.0000 " stroke="#000000" stroke-width="16.0000"  stroke-linecap="butt"  stroke-linejoin="miter"  stroke-miterlimit="10.0000" fill="none" />
</g>
<g transform="matrix(1.0000 0.0000 0.0000 1.0000 0.0000 0.0000)">
</g>
<g transform="matrix(0.0625 0.0000 0.0000 0.0625 0.0000 0.0000)">
<path d="M 7385.0000,5393.0000 L 7385.0000,5353.0000 " stroke="#000000" stroke-width="16.0000"  stroke-linecap="butt"  stroke-linejoin="miter"  stroke-miterlimit="10.0000" fill="none" />
</g>
<g transform="matrix(1.0000 0.0000 0.0000 1.0000 0.0000 0.0000)">
</g>
<g transform="matrix(0.0625 0.0000 0.0000 0.0625 0.0000 0.0000)">
<path d="M 7589.0000,5393.0000 L 7589.0000,5433.0000 " stroke="#000000" stroke-width="16.0000"  stroke-linecap="butt"  stroke-linejoin="miter"  stroke-miterlimit="10.0000" fill="none" />
</g>
<g transform="matrix(1.0000 0.0000 0.0000 1.0000 0.0000 0.0000)">
</g>
<g transform="matrix(0.0625 0.0000 0.0000 0.0625 0.0000 0.0000)">
<path d="M 7589.0000,5393.0000 L 7589.0000,5353.0000 " stroke="#000000" stroke-width="16.0000"  stroke-linecap="butt"  stroke-linejoin="miter"  stroke-miterlimit="10.0000" fill="none" />
</g>
<g transform="matrix(1.0000 0.0000 0.0000 1.0000 0.0000 0.0000)">
</g>
<g transform="matrix(0.0625 0.0000 0.0000 0.0625 0.0000 0.0000)">
<path d="M 7793.0000,5393.0000 L 7793.0000,5433.0000 " stroke="#000000" stroke-width="16.0000"  stroke-linecap="butt"  stroke-linejoin="miter"  stroke-miterlimit="10.0000" fill="none" />
</g>
<g transform="matrix(1.0000 0.0000 0.0000 1.0000 0.0000 0.0000)">
</g>
<g transform="matrix(0.0625 0.0000 0.0000 0.0625 0.0000 0.0000)">
<path d="M 7793.0000,5393.0000 L 7793.0000,5353.0000 " stroke="#000000" stroke-width="16.0000"  stroke-linecap="butt"  stroke-linejoin="miter"  stroke-miterlimit="10.0000" fill="none" />
</g>
<g transform="matrix(1.0000 0.0000 0.0000 1.0000 0.0000 0.0000)">
</g>
<g transform="matrix(0.0625 0.0000 0.0000 0.0625 0.0000 0.0000)">
<path d="M 7997.0000,5393.0000 L 7997.0000,5433.0000 " stroke="#000000" stroke-width="16.0000"  stroke-linecap="butt"  stroke-linejoin="miter"  stroke-miterlimit="10.0000" fill="none" />
</g>
<g transform="matrix(1.0000 0.0000 0.0000 1.0000 0.0000 0.0000)">
</g>
<g transform="matrix(0.0625 0.0000 0.0000 0.0625 0.0000 0.0000)">
<path d="M 7997.0000,5393.0000 L 7997.0000,5353.0000 " stroke="#000000" stroke-width="16.0000"  stroke-linecap="butt"  stroke-linejoin="miter"  stroke-miterlimit="10.0000" fill="none" />
</g>
<g transform="matrix(1.0000 0.0000 0.0000 1.0000 0.0000 0.0000)">
</g>
<g transform="matrix(0.0625 0.0000 0.0000 0.0625 0.0000 0.0000)">
<path d="M 8405.0000,5393.0000 L 8405.0000,5433.0000 " stroke="#000000" stroke-width="16.0000"  stroke-linecap="butt"  stroke-linejoin="miter"  stroke-miterlimit="10.0000" fill="none" />
</g>
<g transform="matrix(1.0000 0.0000 0.0000 1.0000 0.0000 0.0000)">
</g>
<g transform="matrix(0.0625 0.0000 0.0000 0.0625 0.0000 0.0000)">
<path d="M 8405.0000,5393.0000 L 8405.0000,5353.0000 " stroke="#000000" stroke-width="16.0000"  stroke-linecap="butt"  stroke-linejoin="miter"  stroke-miterlimit="10.0000" fill="none" />
</g>
<g transform="matrix(1.0000 0.0000 0.0000 1.0000 0.0000 0.0000)">
</g>
<g transform="matrix(0.0625 0.0000 0.0000 0.0625 0.0000 0.0000)">
<path d="M 8610.0000,5393.0000 L 8610.0000,5433.0000 " stroke="#000000" stroke-width="16.0000"  stroke-linecap="butt"  stroke-linejoin="miter"  stroke-miterlimit="10.0000" fill="none" />
</g>
<g transform="matrix(1.0000 0.0000 0.0000 1.0000 0.0000 0.0000)">
</g>
<g transform="matrix(0.0625 0.0000 0.0000 0.0625 0.0000 0.0000)">
<path d="M 8610.0000,5393.0000 L 8610.0000,5353.0000 " stroke="#000000" stroke-width="16.0000"  stroke-linecap="butt"  stroke-linejoin="miter"  stroke-miterlimit="10.0000" fill="none" />
</g>
<g transform="matrix(1.0000 0.0000 0.0000 1.0000 0.0000 0.0000)">
</g>
<g transform="matrix(0.0625 0.0000 0.0000 0.0625 0.0000 0.0000)">
<path d="M 8814.0000,5393.0000 L 8814.0000,5433.0000 " stroke="#000000" stroke-width="16.0000"  stroke-linecap="butt"  stroke-linejoin="miter"  stroke-miterlimit="10.0000" fill="none" />
</g>
<g transform="matrix(1.0000 0.0000 0.0000 1.0000 0.0000 0.0000)">
</g>
<g transform="matrix(0.0625 0.0000 0.0000 0.0625 0.0000 0.0000)">
<path d="M 8814.0000,5393.0000 L 8814.0000,5353.0000 " stroke="#000000" stroke-width="16.0000"  stroke-linecap="butt"  stroke-linejoin="miter"  stroke-miterlimit="10.0000" fill="none" />
</g>
<g transform="matrix(1.0000 0.0000 0.0000 1.0000 0.0000 0.0000)">
</g>
<g transform="matrix(0.0625 0.0000 0.0000 0.0625 0.0000 0.0000)">
<path d="M 9018.0000,5393.0000 L 9018.0000,5433.0000 " stroke="#000000" stroke-width="16.0000"  stroke-linecap="butt"  stroke-linejoin="miter"  stroke-miterlimit="10.0000" fill="none" />
</g>
<g transform="matrix(1.0000 0.0000 0.0000 1.0000 0.0000 0.0000)">
</g>
<g transform="matrix(0.0625 0.0000 0.0000 0.0625 0.0000 0.0000)">
<path d="M 9018.0000,5393.0000 L 9018.0000,5353.0000 " stroke="#000000" stroke-width="16.0000"  stroke-linecap="butt"  stroke-linejoin="miter"  stroke-miterlimit="10.0000" fill="none" />
</g>
<g transform="matrix(1.0000 0.0000 0.0000 1.0000 0.0000 0.0000)">
</g>
<g transform="matrix(0.0625 0.0000 0.0000 0.0625 0.0000 0.0000)">
<path d="M 1057.0000,5218.0000 L 1017.0000,5218.0000 " stroke="#000000" stroke-width="16.0000"  stroke-linecap="butt"  stroke-linejoin="miter"  stroke-miterlimit="10.0000" fill="none" />
</g>
<g transform="matrix(1.0000 0.0000 0.0000 1.0000 0.0000 0.0000)">
</g>
<g transform="matrix(0.0625 0.0000 0.0000 0.0625 0.0000 0.0000)">
<path d="M 1057.0000,5218.0000 L 1097.0000,5218.0000 " stroke="#000000" stroke-width="16.0000"  stroke-linecap="butt"  stroke-linejoin="miter"  stroke-miterlimit="10.0000" fill="none" />
</g>
<g transform="matrix(1.0000 0.0000 0.0000 1.0000 0.0000 0.0000)">
</g>
<g transform="matrix(0.0625 0.0000 0.0000 0.0625 0.0000 0.0000)">
<path d="M 1057.0000,5044.0000 L 1017.0000,5044.0000 " stroke="#000000" stroke-width="16.0000"  stroke-linecap="butt"  stroke-linejoin="miter"  stroke-miterlimit="10.0000" fill="none" />
</g>
<g transform="matrix(1.0000 0.0000 0.0000 1.0000 0.0000 0.0000)">
</g>
<g transform="matrix(0.0625 0.0000 0.0000 0.0625 0.0000 0.0000)">
<path d="M 1057.0000,5044.0000 L 1097.0000,5044.0000 " stroke="#000000" stroke-width="16.0000"  stroke-linecap="butt"  stroke-linejoin="miter"  stroke-miterlimit="10.0000" fill="none" />
</g>
<g transform="matrix(1.0000 0.0000 0.0000 1.0000 0.0000 0.0000)">
</g>
<g transform="matrix(0.0625 0.0000 0.0000 0.0625 0.0000 0.0000)">
<path d="M 1057.0000,4870.0000 L 1017.0000,4870.0000 " stroke="#000000" stroke-width="16.0000"  stroke-linecap="butt"  stroke-linejoin="miter"  stroke-miterlimit="10.0000" fill="none" />
</g>
<g transform="matrix(1.0000 0.0000 0.0000 1.0000 0.0000 0.0000)">
</g>
<g transform="matrix(0.0625 0.0000 0.0000 0.0625 0.0000 0.0000)">
<path d="M 1057.0000,4870.0000 L 1097.0000,4870.0000 " stroke="#000000" stroke-width="16.0000"  stroke-linecap="butt"  stroke-linejoin="miter"  stroke-miterlimit="10.0000" fill="none" />
</g>
<g transform="matrix(1.0000 0.0000 0.0000 1.0000 0.0000 0.0000)">
</g>
<g transform="matrix(0.0625 0.0000 0.0000 0.0625 0.0000 0.0000)">
<path d="M 1057.0000,4695.0000 L 1017.0000,4695.0000 " stroke="#000000" stroke-width="16.0000"  stroke-linecap="butt"  stroke-linejoin="miter"  stroke-miterlimit="10.0000" fill="none" />
</g>
<g transform="matrix(1.0000 0.0000 0.0000 1.0000 0.0000 0.0000)">
</g>
<g transform="matrix(0.0625 0.0000 0.0000 0.0625 0.0000 0.0000)">
<path d="M 1057.0000,4695.0000 L 1097.0000,4695.0000 " stroke="#000000" stroke-width="16.0000"  stroke-linecap="butt"  stroke-linejoin="miter"  stroke-miterlimit="10.0000" fill="none" />
</g>
<g transform="matrix(1.0000 0.0000 0.0000 1.0000 0.0000 0.0000)">
</g>
<g transform="matrix(0.0625 0.0000 0.0000 0.0625 0.0000 0.0000)">
<path d="M 1057.0000,4346.0000 L 1017.0000,4346.0000 " stroke="#000000" stroke-width="16.0000"  stroke-linecap="butt"  stroke-linejoin="miter"  stroke-miterlimit="10.0000" fill="none" />
</g>
<g transform="matrix(1.0000 0.0000 0.0000 1.0000 0.0000 0.0000)">
</g>
<g transform="matrix(0.0625 0.0000 0.0000 0.0625 0.0000 0.0000)">
<path d="M 1057.0000,4346.0000 L 1097.0000,4346.0000 " stroke="#000000" stroke-width="16.0000"  stroke-linecap="butt"  stroke-linejoin="miter"  stroke-miterlimit="10.0000" fill="none" />
</g>
<g transform="matrix(1.0000 0.0000 0.0000 1.0000 0.0000 0.0000)">
</g>
<g transform="matrix(0.0625 0.0000 0.0000 0.0625 0.0000 0.0000)">
<path d="M 1057.0000,4172.0000 L 1017.0000,4172.0000 " stroke="#000000" stroke-width="16.0000"  stroke-linecap="butt"  stroke-linejoin="miter"  stroke-miterlimit="10.0000" fill="none" />
</g>
<g transform="matrix(1.0000 0.0000 0.0000 1.0000 0.0000 0.0000)">
</g>
<g transform="matrix(0.0625 0.0000 0.0000 0.0625 0.0000 0.0000)">
<path d="M 1057.0000,4172.0000 L 1097.0000,4172.0000 " stroke="#000000" stroke-width="16.0000"  stroke-linecap="butt"  stroke-linejoin="miter"  stroke-miterlimit="10.0000" fill="none" />
</g>
<g transform="matrix(1.0000 0.0000 0.0000 1.0000 0.0000 0.0000)">
</g>
<g transform="matrix(0.0625 0.0000 0.0000 0.0625 0.0000 0.0000)">
<path d="M 1057.0000,3997.0000 L 1017.0000,3997.0000 " stroke="#000000" stroke-width="16.0000"  stroke-linecap="butt"  stroke-linejoin="miter"  stroke-miterlimit="10.0000" fill="none" />
</g>
<g transform="matrix(1.0000 0.0000 0.0000 1.0000 0.0000 0.0000)">
</g>
<g transform="matrix(0.0625 0.0000 0.0000 0.0625 0.0000 0.0000)">
<path d="M 1057.0000,3997.0000 L 1097.0000,3997.0000 " stroke="#000000" stroke-width="16.0000"  stroke-linecap="butt"  stroke-linejoin="miter"  stroke-miterlimit="10.0000" fill="none" />
</g>
<g transform="matrix(1.0000 0.0000 0.0000 1.0000 0.0000 0.0000)">
</g>
<g transform="matrix(0.0625 0.0000 0.0000 0.0625 0.0000 0.0000)">
<path d="M 1057.0000,3823.0000 L 1017.0000,3823.0000 " stroke="#000000" stroke-width="16.0000"  stroke-linecap="butt"  stroke-linejoin="miter"  stroke-miterlimit="10.0000" fill="none" />
</g>
<g transform="matrix(1.0000 0.0000 0.0000 1.0000 0.0000 0.0000)">
</g>
<g transform="matrix(0.0625 0.0000 0.0000 0.0625 0.0000 0.0000)">
<path d="M 1057.0000,3823.0000 L 1097.0000,3823.0000 " stroke="#000000" stroke-width="16.0000"  stroke-linecap="butt"  stroke-linejoin="miter"  stroke-miterlimit="10.0000" fill="none" />
</g>
<g transform="matrix(1.0000 0.0000 0.0000 1.0000 0.0000 0.0000)">
</g>
<g transform="matrix(0.0625 0.0000 0.0000 0.0625 0.0000 0.0000)">
<path d="M 1057.0000,3474.0000 L 1017.0000,3474.0000 " stroke="#000000" stroke-width="16.0000"  stroke-linecap="butt"  stroke-linejoin="miter"  stroke-miterlimit="10.0000" fill="none" />
</g>
<g transform="matrix(1.0000 0.0000 0.0000 1.0000 0.0000 0.0000)">
</g>
<g transform="matrix(0.0625 0.0000 0.0000 0.0625 0.0000 0.0000)">
<path d="M 1057.0000,3474.0000 L 1097.0000,3474.0000 " stroke="#000000" stroke-width="16.0000"  stroke-linecap="butt"  stroke-linejoin="miter"  stroke-miterlimit="10.0000" fill="none" />
</g>
<g transform="matrix(1.0000 0.0000 0.0000 1.0000 0.0000 0.0000)">
</g>
<g transform="matrix(0.0625 0.0000 0.0000 0.0625 0.0000 0.0000)">
<path d="M 1057.0000,3300.0000 L 1017.0000,3300.0000 " stroke="#000000" stroke-width="16.0000"  stroke-linecap="butt"  stroke-linejoin="miter"  stroke-miterlimit="10.0000" fill="none" />
</g>
<g transform="matrix(1.0000 0.0000 0.0000 1.0000 0.0000 0.0000)">
</g>
<g transform="matrix(0.0625 0.0000 0.0000 0.0625 0.0000 0.0000)">
<path d="M 1057.0000,3300.0000 L 1097.0000,3300.0000 " stroke="#000000" stroke-width="16.0000"  stroke-linecap="butt"  stroke-linejoin="miter"  stroke-miterlimit="10.0000" fill="none" />
</g>
<g transform="matrix(1.0000 0.0000 0.0000 1.0000 0.0000 0.0000)">
</g>
<g transform="matrix(0.0625 0.0000 0.0000 0.0625 0.0000 0.0000)">
<path d="M 1057.0000,3125.0000 L 1017.0000,3125.0000 " stroke="#000000" stroke-width="16.0000"  stroke-linecap="butt"  stroke-linejoin="miter"  stroke-miterlimit="10.0000" fill="none" />
</g>
<g transform="matrix(1.0000 0.0000 0.0000 1.0000 0.0000 0.0000)">
</g>
<g transform="matrix(0.0625 0.0000 0.0000 0.0625 0.0000 0.0000)">
<path d="M 1057.0000,3125.0000 L 1097.0000,3125.0000 " stroke="#000000" stroke-width="16.0000"  stroke-linecap="butt"  stroke-linejoin="miter"  stroke-miterlimit="10.0000" fill="none" />
</g>
<g transform="matrix(1.0000 0.0000 0.0000 1.0000 0.0000 0.0000)">
</g>
<g transform="matrix(0.0625 0.0000 0.0000 0.0625 0.0000 0.0000)">
<path d="M 1057.0000,2951.0000 L 1017.0000,2951.0000 " stroke="#000000" stroke-width="16.0000"  stroke-linecap="butt"  stroke-linejoin="miter"  stroke-miterlimit="10.0000" fill="none" />
</g>
<g transform="matrix(1.0000 0.0000 0.0000 1.0000 0.0000 0.0000)">
</g>
<g transform="matrix(0.0625 0.0000 0.0000 0.0625 0.0000 0.0000)">
<path d="M 1057.0000,2951.0000 L 1097.0000,2951.0000 " stroke="#000000" stroke-width="16.0000"  stroke-linecap="butt"  stroke-linejoin="miter"  stroke-miterlimit="10.0000" fill="none" />
</g>
<g transform="matrix(1.0000 0.0000 0.0000 1.0000 0.0000 0.0000)">
</g>
<g transform="matrix(0.0625 0.0000 0.0000 0.0625 0.0000 0.0000)">
<path d="M 1057.0000,2602.0000 L 1017.0000,2602.0000 " stroke="#000000" stroke-width="16.0000"  stroke-linecap="butt"  stroke-linejoin="miter"  stroke-miterlimit="10.0000" fill="none" />
</g>
<g transform="matrix(1.0000 0.0000 0.0000 1.0000 0.0000 0.0000)">
</g>
<g transform="matrix(0.0625 0.0000 0.0000 0.0625 0.0000 0.0000)">
<path d="M 1057.0000,2602.0000 L 1097.0000,2602.0000 " stroke="#000000" stroke-width="16.0000"  stroke-linecap="butt"  stroke-linejoin="miter"  stroke-miterlimit="10.0000" fill="none" />
</g>
<g transform="matrix(1.0000 0.0000 0.0000 1.0000 0.0000 0.0000)">
</g>
<g transform="matrix(0.0625 0.0000 0.0000 0.0625 0.0000 0.0000)">
<path d="M 1057.0000,2428.0000 L 1017.0000,2428.0000 " stroke="#000000" stroke-width="16.0000"  stroke-linecap="butt"  stroke-linejoin="miter"  stroke-miterlimit="10.0000" fill="none" />
</g>
<g transform="matrix(1.0000 0.0000 0.0000 1.0000 0.0000 0.0000)">
</g>
<g transform="matrix(0.0625 0.0000 0.0000 0.0625 0.0000 0.0000)">
<path d="M 1057.0000,2428.0000 L 1097.0000,2428.0000 " stroke="#000000" stroke-width="16.0000"  stroke-linecap="butt"  stroke-linejoin="miter"  stroke-miterlimit="10.0000" fill="none" />
</g>
<g transform="matrix(1.0000 0.0000 0.0000 1.0000 0.0000 0.0000)">
</g>
<g transform="matrix(0.0625 0.0000 0.0000 0.0625 0.0000 0.0000)">
<path d="M 1057.0000,2253.0000 L 1017.0000,2253.0000 " stroke="#000000" stroke-width="16.0000"  stroke-linecap="butt"  stroke-linejoin="miter"  stroke-miterlimit="10.0000" fill="none" />
</g>
<g transform="matrix(1.0000 0.0000 0.0000 1.0000 0.0000 0.0000)">
</g>
<g transform="matrix(0.0625 0.0000 0.0000 0.0625 0.0000 0.0000)">
<path d="M 1057.0000,2253.0000 L 1097.0000,2253.0000 " stroke="#000000" stroke-width="16.0000"  stroke-linecap="butt"  stroke-linejoin="miter"  stroke-miterlimit="10.0000" fill="none" />
</g>
<g transform="matrix(1.0000 0.0000 0.0000 1.0000 0.0000 0.0000)">
</g>
<g transform="matrix(0.0625 0.0000 0.0000 0.0625 0.0000 0.0000)">
<path d="M 1057.0000,2079.0000 L 1017.0000,2079.0000 " stroke="#000000" stroke-width="16.0000"  stroke-linecap="butt"  stroke-linejoin="miter"  stroke-miterlimit="10.0000" fill="none" />
</g>
<g transform="matrix(1.0000 0.0000 0.0000 1.0000 0.0000 0.0000)">
</g>
<g transform="matrix(0.0625 0.0000 0.0000 0.0625 0.0000 0.0000)">
<path d="M 1057.0000,2079.0000 L 1097.0000,2079.0000 " stroke="#000000" stroke-width="16.0000"  stroke-linecap="butt"  stroke-linejoin="miter"  stroke-miterlimit="10.0000" fill="none" />
</g>
<g transform="matrix(1.0000 0.0000 0.0000 1.0000 0.0000 0.0000)">
</g>
<g transform="matrix(0.0625 0.0000 0.0000 0.0625 0.0000 0.0000)">
<path d="M 1057.0000,1730.0000 L 1017.0000,1730.0000 " stroke="#000000" stroke-width="16.0000"  stroke-linecap="butt"  stroke-linejoin="miter"  stroke-miterlimit="10.0000" fill="none" />
</g>
<g transform="matrix(1.0000 0.0000 0.0000 1.0000 0.0000 0.0000)">
</g>
<g transform="matrix(0.0625 0.0000 0.0000 0.0625 0.0000 0.0000)">
<path d="M 1057.0000,1730.0000 L 1097.0000,1730.0000 " stroke="#000000" stroke-width="16.0000"  stroke-linecap="butt"  stroke-linejoin="miter"  stroke-miterlimit="10.0000" fill="none" />
</g>
<g transform="matrix(1.0000 0.0000 0.0000 1.0000 0.0000 0.0000)">
</g>
<g transform="matrix(0.0625 0.0000 0.0000 0.0625 0.0000 0.0000)">
<path d="M 1057.0000,1556.0000 L 1017.0000,1556.0000 " stroke="#000000" stroke-width="16.0000"  stroke-linecap="butt"  stroke-linejoin="miter"  stroke-miterlimit="10.0000" fill="none" />
</g>
<g transform="matrix(1.0000 0.0000 0.0000 1.0000 0.0000 0.0000)">
</g>
<g transform="matrix(0.0625 0.0000 0.0000 0.0625 0.0000 0.0000)">
<path d="M 1057.0000,1556.0000 L 1097.0000,1556.0000 " stroke="#000000" stroke-width="16.0000"  stroke-linecap="butt"  stroke-linejoin="miter"  stroke-miterlimit="10.0000" fill="none" />
</g>
<g transform="matrix(1.0000 0.0000 0.0000 1.0000 0.0000 0.0000)">
</g>
<g transform="matrix(0.0625 0.0000 0.0000 0.0625 0.0000 0.0000)">
<path d="M 1057.0000,1381.0000 L 1017.0000,1381.0000 " stroke="#000000" stroke-width="16.0000"  stroke-linecap="butt"  stroke-linejoin="miter"  stroke-miterlimit="10.0000" fill="none" />
</g>
<g transform="matrix(1.0000 0.0000 0.0000 1.0000 0.0000 0.0000)">
</g>
<g transform="matrix(0.0625 0.0000 0.0000 0.0625 0.0000 0.0000)">
<path d="M 1057.0000,1381.0000 L 1097.0000,1381.0000 " stroke="#000000" stroke-width="16.0000"  stroke-linecap="butt"  stroke-linejoin="miter"  stroke-miterlimit="10.0000" fill="none" />
</g>
<g transform="matrix(1.0000 0.0000 0.0000 1.0000 0.0000 0.0000)">
</g>
<g transform="matrix(0.0625 0.0000 0.0000 0.0625 0.0000 0.0000)">
<path d="M 1057.0000,1207.0000 L 1017.0000,1207.0000 " stroke="#000000" stroke-width="16.0000"  stroke-linecap="butt"  stroke-linejoin="miter"  stroke-miterlimit="10.0000" fill="none" />
</g>
<g transform="matrix(1.0000 0.0000 0.0000 1.0000 0.0000 0.0000)">
</g>
<g transform="matrix(0.0625 0.0000 0.0000 0.0625 0.0000 0.0000)">
<path d="M 1057.0000,1207.0000 L 1097.0000,1207.0000 " stroke="#000000" stroke-width="16.0000"  stroke-linecap="butt"  stroke-linejoin="miter"  stroke-miterlimit="10.0000" fill="none" />
</g>
<g transform="matrix(1.0000 0.0000 0.0000 1.0000 0.0000 0.0000)">
</g>
<g transform="matrix(0.0625 0.0000 0.0000 0.0625 0.0000 0.0000)">
<path d="M 1057.0000,858.0000 L 1017.0000,858.0000 " stroke="#000000" stroke-width="16.0000"  stroke-linecap="butt"  stroke-linejoin="miter"  stroke-miterlimit="10.0000" fill="none" />
</g>
<g transform="matrix(1.0000 0.0000 0.0000 1.0000 0.0000 0.0000)">
</g>
<g transform="matrix(0.0625 0.0000 0.0000 0.0625 0.0000 0.0000)">
<path d="M 1057.0000,858.0000 L 1097.0000,858.0000 " stroke="#000000" stroke-width="16.0000"  stroke-linecap="butt"  stroke-linejoin="miter"  stroke-miterlimit="10.0000" fill="none" />
</g>
<g transform="matrix(1.0000 0.0000 0.0000 1.0000 0.0000 0.0000)">
</g>
<g transform="matrix(0.0625 0.0000 0.0000 0.0625 0.0000 0.0000)">
<path d="M 1057.0000,684.0000 L 1017.0000,684.0000 " stroke="#000000" stroke-width="16.0000"  stroke-linecap="butt"  stroke-linejoin="miter"  stroke-miterlimit="10.0000" fill="none" />
</g>
<g transform="matrix(1.0000 0.0000 0.0000 1.0000 0.0000 0.0000)">
</g>
<g transform="matrix(0.0625 0.0000 0.0000 0.0625 0.0000 0.0000)">
<path d="M 1057.0000,684.0000 L 1097.0000,684.0000 " stroke="#000000" stroke-width="16.0000"  stroke-linecap="butt"  stroke-linejoin="miter"  stroke-miterlimit="10.0000" fill="none" />
</g>
<g transform="matrix(1.0000 0.0000 0.0000 1.0000 0.0000 0.0000)">
</g>
<g transform="matrix(0.0625 0.0000 0.0000 0.0625 0.0000 0.0000)">
<path d="M 1057.0000,509.0000 L 1017.0000,509.0000 " stroke="#000000" stroke-width="16.0000"  stroke-linecap="butt"  stroke-linejoin="miter"  stroke-miterlimit="10.0000" fill="none" />
</g>
<g transform="matrix(1.0000 0.0000 0.0000 1.0000 0.0000 0.0000)">
</g>
<g transform="matrix(0.0625 0.0000 0.0000 0.0625 0.0000 0.0000)">
<path d="M 1057.0000,509.0000 L 1097.0000,509.0000 " stroke="#000000" stroke-width="16.0000"  stroke-linecap="butt"  stroke-linejoin="miter"  stroke-miterlimit="10.0000" fill="none" />
</g>
<g transform="matrix(1.0000 0.0000 0.0000 1.0000 0.0000 0.0000)">
</g>
<g transform="matrix(0.0625 0.0000 0.0000 0.0625 0.0000 0.0000)">
<path d="M 1057.0000,335.0000 L 1017.0000,335.0000 " stroke="#000000" stroke-width="16.0000"  stroke-linecap="butt"  stroke-linejoin="miter"  stroke-miterlimit="10.0000" fill="none" />
</g>
<g transform="matrix(1.0000 0.0000 0.0000 1.0000 0.0000 0.0000)">
</g>
<g transform="matrix(0.0625 0.0000 0.0000 0.0625 0.0000 0.0000)">
<path d="M 1057.0000,335.0000 L 1097.0000,335.0000 " stroke="#000000" stroke-width="16.0000"  stroke-linecap="butt"  stroke-linejoin="miter"  stroke-miterlimit="10.0000" fill="none" />
</g>
<g transform="matrix(1.0000 0.0000 0.0000 1.0000 0.0000 0.0000)">
<text font-family="MS UI Gothic" fill="#000000" style ="white-space:pre;" font-weight="400" text-anchor="start" x="76.0000" y="21.0000" font-size="13.0000" ><![CDATA[平均]]></text>
<text font-family="Arial" fill="#000000" style ="white-space:pre;" font-weight="400" text-anchor="start" x="103.0000" y="21.0000" font-size="12.0000" ><![CDATA[ = 2.7,]]></text>
<text font-family="MS UI Gothic" fill="#000000" style ="white-space:pre;" font-weight="400" text-anchor="start" x="76.0000" y="35.0000" font-size="13.0000" ><![CDATA[標準偏差]]></text>
<text font-family="Arial" fill="#000000" style ="white-space:pre;" font-weight="400" text-anchor="start" x="131.0000" y="35.0000" font-size="12.0000" ><![CDATA[ = 3.3]]></text>
</g>
<g transform="matrix(0.0625 0.0000 0.0000 0.0625 0.0000 0.0000)">
<path d="M 6160.0000,4782.0000 L 6160.0000,5393.0000 L 6262.0000,5393.0000 L 6262.0000,4782.0000 L 6160.0000,4782.0000 Z" stroke-width="1px" stroke="#B4DCFF"  fill="#B4DCFF" />
</g>
<g transform="matrix(1.0000 0.0000 0.0000 1.0000 0.0000 0.0000)">
<defs><clipPath id="clip-41"><path d="M 67.0000,10.0000 L 577.0000,10.0000 L 577.0000,337.0000 L 67.0000,337.0000 L 67.0000,10.0000 Z Z" /></clipPath></defs>
</g>
<g transform="matrix(0.0625 0.0000 0.0000 0.0625 0.0000 0.0000)">
<path  clip-path="url(#clip-41)" d="M 6160.0000,4782.0000 L 6262.0000,4782.0000 L 6262.0000,5393.0000 L 6160.0000,5393.0000 Z" stroke="#000000" stroke-width="16.0000"  stroke-linecap="butt"  stroke-linejoin="miter"  stroke-miterlimit="10.0000" fill="none" />
</g>
<g transform="matrix(1.0000 0.0000 0.0000 1.0000 0.0000 0.0000)">
</g>
<g transform="matrix(0.0625 0.0000 0.0000 0.0625 0.0000 0.0000)">
<path d="M 5650.0000,1033.0000 L 5650.0000,5393.0000 L 5752.0000,5393.0000 L 5752.0000,1033.0000 L 5650.0000,1033.0000 Z" stroke-width="1px" stroke="#B4DCFF"  fill="#B4DCFF" />
</g>
<g transform="matrix(1.0000 0.0000 0.0000 1.0000 0.0000 0.0000)">
<defs><clipPath id="clip-18467"><path d="M 67.0000,10.0000 L 577.0000,10.0000 L 577.0000,337.0000 L 67.0000,337.0000 L 67.0000,10.0000 Z Z" /></clipPath></defs>
</g>
<g transform="matrix(0.0625 0.0000 0.0000 0.0625 0.0000 0.0000)">
<path  clip-path="url(#clip-18467)" d="M 5650.0000,1033.0000 L 5752.0000,1033.0000 L 5752.0000,5393.0000 L 5650.0000,5393.0000 Z" stroke="#000000" stroke-width="16.0000"  stroke-linecap="butt"  stroke-linejoin="miter"  stroke-miterlimit="10.0000" fill="none" />
</g>
<g transform="matrix(1.0000 0.0000 0.0000 1.0000 0.0000 0.0000)">
</g>
<g transform="matrix(0.0625 0.0000 0.0000 0.0625 0.0000 0.0000)">
<path d="M 5548.0000,771.0000 L 5548.0000,5393.0000 L 5650.0000,5393.0000 L 5650.0000,771.0000 L 5548.0000,771.0000 Z" stroke-width="1px" stroke="#B4DCFF"  fill="#B4DCFF" />
</g>
<g transform="matrix(1.0000 0.0000 0.0000 1.0000 0.0000 0.0000)">
<defs><clipPath id="clip-6334"><path d="M 67.0000,10.0000 L 577.0000,10.0000 L 577.0000,337.0000 L 67.0000,337.0000 L 67.0000,10.0000 Z Z" /></clipPath></defs>
</g>
<g transform="matrix(0.0625 0.0000 0.0000 0.0625 0.0000 0.0000)">
<path  clip-path="url(#clip-6334)" d="M 5548.0000,771.0000 L 5650.0000,771.0000 L 5650.0000,5393.0000 L 5548.0000,5393.0000 Z" stroke="#000000" stroke-width="16.0000"  stroke-linecap="butt"  stroke-linejoin="miter"  stroke-miterlimit="10.0000" fill="none" />
</g>
<g transform="matrix(1.0000 0.0000 0.0000 1.0000 0.0000 0.0000)">
</g>
<g transform="matrix(0.0625 0.0000 0.0000 0.0625 0.0000 0.0000)">
<path d="M 5139.0000,5044.0000 L 5139.0000,5393.0000 L 5242.0000,5393.0000 L 5242.0000,5044.0000 L 5139.0000,5044.0000 Z" stroke-width="1px" stroke="#B4DCFF"  fill="#B4DCFF" />
</g>
<g transform="matrix(1.0000 0.0000 0.0000 1.0000 0.0000 0.0000)">
<defs><clipPath id="clip-26500"><path d="M 67.0000,10.0000 L 577.0000,10.0000 L 577.0000,337.0000 L 67.0000,337.0000 L 67.0000,10.0000 Z Z" /></clipPath></defs>
</g>
<g transform="matrix(0.0625 0.0000 0.0000 0.0625 0.0000 0.0000)">
<path  clip-path="url(#clip-26500)" d="M 5139.0000,5044.0000 L 5242.0000,5044.0000 L 5242.0000,5393.0000 L 5139.0000,5393.0000 Z" stroke="#000000" stroke-width="16.0000"  stroke-linecap="butt"  stroke-linejoin="miter"  stroke-miterlimit="10.0000" fill="none" />
</g>
<g transform="matrix(1.0000 0.0000 0.0000 1.0000 0.0000 0.0000)">
<defs><clipPath id="clip-19169"><path d="M 67.0000,10.0000 L 577.0000,10.0000 L 577.0000,337.0000 L 67.0000,337.0000 L 67.0000,10.0000 Z Z" /></clipPath></defs>
</g>
<g transform="matrix(0.0625 0.0000 0.0000 0.0625 0.0000 0.0000)">
<path  clip-path="url(#clip-19169)" d="M 5446.0000,2864.0000 L 5446.0000,5393.0000 L 5548.0000,5393.0000 L 5548.0000,2864.0000 L 5446.0000,2864.0000 Z" stroke-width="1px" stroke="#B4DCFF"  fill="#B4DCFF" />
</g>
<g transform="matrix(1.0000 0.0000 0.0000 1.0000 0.0000 0.0000)">
<defs><clipPath id="clip-15724"><path d="M 67.0000,10.0000 L 577.0000,10.0000 L 577.0000,337.0000 L 67.0000,337.0000 L 67.0000,10.0000 Z Z" /></clipPath></defs>
</g>
<g transform="matrix(0.0625 0.0000 0.0000 0.0625 0.0000 0.0000)">
<path  clip-path="url(#clip-15724)" d="M 5446.0000,2864.0000 L 5548.0000,2864.0000 L 5548.0000,5393.0000 L 5446.0000,5393.0000 Z" stroke="#000000" stroke-width="16.0000"  stroke-linecap="butt"  stroke-linejoin="miter"  stroke-miterlimit="10.0000" fill="none" />
</g>
<g transform="matrix(1.0000 0.0000 0.0000 1.0000 0.0000 0.0000)">
</g>
<g transform="matrix(0.0625 0.0000 0.0000 0.0625 0.0000 0.0000)">
<path d="M 6568.0000,5218.0000 L 6568.0000,5393.0000 L 6670.0000,5393.0000 L 6670.0000,5218.0000 L 6568.0000,5218.0000 Z" stroke-width="1px" stroke="#B4DCFF"  fill="#B4DCFF" />
</g>
<g transform="matrix(1.0000 0.0000 0.0000 1.0000 0.0000 0.0000)">
<defs><clipPath id="clip-11478"><path d="M 67.0000,10.0000 L 577.0000,10.0000 L 577.0000,337.0000 L 67.0000,337.0000 L 67.0000,10.0000 Z Z" /></clipPath></defs>
</g>
<g transform="matrix(0.0625 0.0000 0.0000 0.0625 0.0000 0.0000)">
<path  clip-path="url(#clip-11478)" d="M 6568.0000,5218.0000 L 6670.0000,5218.0000 L 6670.0000,5393.0000 L 6568.0000,5393.0000 Z" stroke="#000000" stroke-width="16.0000"  stroke-linecap="butt"  stroke-linejoin="miter"  stroke-miterlimit="10.0000" fill="none" />
</g>
<g transform="matrix(1.0000 0.0000 0.0000 1.0000 0.0000 0.0000)">
</g>
<g transform="matrix(0.0625 0.0000 0.0000 0.0625 0.0000 0.0000)">
<path d="M 6058.0000,4695.0000 L 6058.0000,5393.0000 L 6160.0000,5393.0000 L 6160.0000,4695.0000 L 6058.0000,4695.0000 Z" stroke-width="1px" stroke="#B4DCFF"  fill="#B4DCFF" />
</g>
<g transform="matrix(1.0000 0.0000 0.0000 1.0000 0.0000 0.0000)">
<defs><clipPath id="clip-29358"><path d="M 67.0000,10.0000 L 577.0000,10.0000 L 577.0000,337.0000 L 67.0000,337.0000 L 67.0000,10.0000 Z Z" /></clipPath></defs>
</g>
<g transform="matrix(0.0625 0.0000 0.0000 0.0625 0.0000 0.0000)">
<path  clip-path="url(#clip-29358)" d="M 6058.0000,4695.0000 L 6160.0000,4695.0000 L 6160.0000,5393.0000 L 6058.0000,5393.0000 Z" stroke="#000000" stroke-width="16.0000"  stroke-linecap="butt"  stroke-linejoin="miter"  stroke-miterlimit="10.0000" fill="none" />
</g>
<g transform="matrix(1.0000 0.0000 0.0000 1.0000 0.0000 0.0000)">
</g>
<g transform="matrix(0.0625 0.0000 0.0000 0.0625 0.0000 0.0000)">
<path d="M 5752.0000,2079.0000 L 5752.0000,5393.0000 L 5854.0000,5393.0000 L 5854.0000,2079.0000 L 5752.0000,2079.0000 Z" stroke-width="1px" stroke="#B4DCFF"  fill="#B4DCFF" />
</g>
<g transform="matrix(1.0000 0.0000 0.0000 1.0000 0.0000 0.0000)">
<defs><clipPath id="clip-26962"><path d="M 67.0000,10.0000 L 577.0000,10.0000 L 577.0000,337.0000 L 67.0000,337.0000 L 67.0000,10.0000 Z Z" /></clipPath></defs>
</g>
<g transform="matrix(0.0625 0.0000 0.0000 0.0625 0.0000 0.0000)">
<path  clip-path="url(#clip-26962)" d="M 5752.0000,2079.0000 L 5854.0000,2079.0000 L 5854.0000,5393.0000 L 5752.0000,5393.0000 Z" stroke="#000000" stroke-width="16.0000"  stroke-linecap="butt"  stroke-linejoin="miter"  stroke-miterlimit="10.0000" fill="none" />
</g>
<g transform="matrix(1.0000 0.0000 0.0000 1.0000 0.0000 0.0000)">
</g>
<g transform="matrix(0.0625 0.0000 0.0000 0.0625 0.0000 0.0000)">
<path d="M 5956.0000,4346.0000 L 5956.0000,5393.0000 L 6058.0000,5393.0000 L 6058.0000,4346.0000 L 5956.0000,4346.0000 Z" stroke-width="1px" stroke="#B4DCFF"  fill="#B4DCFF" />
</g>
<g transform="matrix(1.0000 0.0000 0.0000 1.0000 0.0000 0.0000)">
<defs><clipPath id="clip-24464"><path d="M 67.0000,10.0000 L 577.0000,10.0000 L 577.0000,337.0000 L 67.0000,337.0000 L 67.0000,10.0000 Z Z" /></clipPath></defs>
</g>
<g transform="matrix(0.0625 0.0000 0.0000 0.0625 0.0000 0.0000)">
<path  clip-path="url(#clip-24464)" d="M 5956.0000,4346.0000 L 6058.0000,4346.0000 L 6058.0000,5393.0000 L 5956.0000,5393.0000 Z" stroke="#000000" stroke-width="16.0000"  stroke-linecap="butt"  stroke-linejoin="miter"  stroke-miterlimit="10.0000" fill="none" />
</g>
<g transform="matrix(1.0000 0.0000 0.0000 1.0000 0.0000 0.0000)">
</g>
<g transform="matrix(0.0625 0.0000 0.0000 0.0625 0.0000 0.0000)">
<path d="M 5854.0000,3649.0000 L 5854.0000,5393.0000 L 5956.0000,5393.0000 L 5956.0000,3649.0000 L 5854.0000,3649.0000 Z" stroke-width="1px" stroke="#B4DCFF"  fill="#B4DCFF" />
</g>
<g transform="matrix(1.0000 0.0000 0.0000 1.0000 0.0000 0.0000)">
<defs><clipPath id="clip-5705"><path d="M 67.0000,10.0000 L 577.0000,10.0000 L 577.0000,337.0000 L 67.0000,337.0000 L 67.0000,10.0000 Z Z" /></clipPath></defs>
</g>
<g transform="matrix(0.0625 0.0000 0.0000 0.0625 0.0000 0.0000)">
<path  clip-path="url(#clip-5705)" d="M 5854.0000,3649.0000 L 5956.0000,3649.0000 L 5956.0000,5393.0000 L 5854.0000,5393.0000 Z" stroke="#000000" stroke-width="16.0000"  stroke-linecap="butt"  stroke-linejoin="miter"  stroke-miterlimit="10.0000" fill="none" />
</g>
<g transform="matrix(1.0000 0.0000 0.0000 1.0000 0.0000 0.0000)">
</g>
<g transform="matrix(0.0625 0.0000 0.0000 0.0625 0.0000 0.0000)">
<path d="M 6262.0000,4957.0000 L 6262.0000,5393.0000 L 6364.0000,5393.0000 L 6364.0000,4957.0000 L 6262.0000,4957.0000 Z" stroke-width="1px" stroke="#B4DCFF"  fill="#B4DCFF" />
</g>
<g transform="matrix(1.0000 0.0000 0.0000 1.0000 0.0000 0.0000)">
<defs><clipPath id="clip-28145"><path d="M 67.0000,10.0000 L 577.0000,10.0000 L 577.0000,337.0000 L 67.0000,337.0000 L 67.0000,10.0000 Z Z" /></clipPath></defs>
</g>
<g transform="matrix(0.0625 0.0000 0.0000 0.0625 0.0000 0.0000)">
<path  clip-path="url(#clip-28145)" d="M 6262.0000,4957.0000 L 6364.0000,4957.0000 L 6364.0000,5393.0000 L 6262.0000,5393.0000 Z" stroke="#000000" stroke-width="16.0000"  stroke-linecap="butt"  stroke-linejoin="miter"  stroke-miterlimit="10.0000" fill="none" />
</g>
<g transform="matrix(1.0000 0.0000 0.0000 1.0000 0.0000 0.0000)">
</g>
<g transform="matrix(0.0625 0.0000 0.0000 0.0625 0.0000 0.0000)">
<path d="M 7691.0000,5306.0000 L 7691.0000,5393.0000 L 7793.0000,5393.0000 L 7793.0000,5306.0000 L 7691.0000,5306.0000 Z" stroke-width="1px" stroke="#B4DCFF"  fill="#B4DCFF" />
</g>
<g transform="matrix(1.0000 0.0000 0.0000 1.0000 0.0000 0.0000)">
<defs><clipPath id="clip-23281"><path d="M 67.0000,10.0000 L 577.0000,10.0000 L 577.0000,337.0000 L 67.0000,337.0000 L 67.0000,10.0000 Z Z" /></clipPath></defs>
</g>
<g transform="matrix(0.0625 0.0000 0.0000 0.0625 0.0000 0.0000)">
<path  clip-path="url(#clip-23281)" d="M 7691.0000,5306.0000 L 7793.0000,5306.0000 L 7793.0000,5393.0000 L 7691.0000,5393.0000 Z" stroke="#000000" stroke-width="16.0000"  stroke-linecap="butt"  stroke-linejoin="miter"  stroke-miterlimit="10.0000" fill="none" />
</g>
<g transform="matrix(1.0000 0.0000 0.0000 1.0000 0.0000 0.0000)">
</g>
<g transform="matrix(0.0625 0.0000 0.0000 0.0625 0.0000 0.0000)">
<path d="M 5344.0000,4870.0000 L 5344.0000,5393.0000 L 5446.0000,5393.0000 L 5446.0000,4870.0000 L 5344.0000,4870.0000 Z" stroke-width="1px" stroke="#B4DCFF"  fill="#B4DCFF" />
</g>
<g transform="matrix(1.0000 0.0000 0.0000 1.0000 0.0000 0.0000)">
<defs><clipPath id="clip-16827"><path d="M 67.0000,10.0000 L 577.0000,10.0000 L 577.0000,337.0000 L 67.0000,337.0000 L 67.0000,10.0000 Z Z" /></clipPath></defs>
</g>
<g transform="matrix(0.0625 0.0000 0.0000 0.0625 0.0000 0.0000)">
<path  clip-path="url(#clip-16827)" d="M 5344.0000,4870.0000 L 5446.0000,4870.0000 L 5446.0000,5393.0000 L 5344.0000,5393.0000 Z" stroke="#000000" stroke-width="16.0000"  stroke-linecap="butt"  stroke-linejoin="miter"  stroke-miterlimit="10.0000" fill="none" />
</g>
<g transform="matrix(1.0000 0.0000 0.0000 1.0000 0.0000 0.0000)">
</g>
<g transform="matrix(0.0625 0.0000 0.0000 0.0625 0.0000 0.0000)">
<path d="M 4527.0000,5306.0000 L 4527.0000,5393.0000 L 4629.0000,5393.0000 L 4629.0000,5306.0000 L 4527.0000,5306.0000 Z" stroke-width="1px" stroke="#B4DCFF"  fill="#B4DCFF" />
</g>
<g transform="matrix(1.0000 0.0000 0.0000 1.0000 0.0000 0.0000)">
<defs><clipPath id="clip-9961"><path d="M 67.0000,10.0000 L 577.0000,10.0000 L 577.0000,337.0000 L 67.0000,337.0000 L 67.0000,10.0000 Z Z" /></clipPath></defs>
</g>
<g transform="matrix(0.0625 0.0000 0.0000 0.0625 0.0000 0.0000)">
<path  clip-path="url(#clip-9961)" d="M 4527.0000,5306.0000 L 4629.0000,5306.0000 L 4629.0000,5393.0000 L 4527.0000,5393.0000 Z" stroke="#000000" stroke-width="16.0000"  stroke-linecap="butt"  stroke-linejoin="miter"  stroke-miterlimit="10.0000" fill="none" />
</g>
<g transform="matrix(1.0000 0.0000 0.0000 1.0000 0.0000 0.0000)">
</g>
<g transform="matrix(0.0625 0.0000 0.0000 0.0625 0.0000 0.0000)">
<path d="M 3609.0000,5218.0000 L 3609.0000,5393.0000 L 3711.0000,5393.0000 L 3711.0000,5218.0000 L 3609.0000,5218.0000 Z" stroke-width="1px" stroke="#B4DCFF"  fill="#B4DCFF" />
</g>
<g transform="matrix(1.0000 0.0000 0.0000 1.0000 0.0000 0.0000)">
<defs><clipPath id="clip-491"><path d="M 67.0000,10.0000 L 577.0000,10.0000 L 577.0000,337.0000 L 67.0000,337.0000 L 67.0000,10.0000 Z Z" /></clipPath></defs>
</g>
<g transform="matrix(0.0625 0.0000 0.0000 0.0625 0.0000 0.0000)">
<path  clip-path="url(#clip-491)" d="M 3609.0000,5218.0000 L 3711.0000,5218.0000 L 3711.0000,5393.0000 L 3609.0000,5393.0000 Z" stroke="#000000" stroke-width="16.0000"  stroke-linecap="butt"  stroke-linejoin="miter"  stroke-miterlimit="10.0000" fill="none" />
</g>
<g transform="matrix(1.0000 0.0000 0.0000 1.0000 0.0000 0.0000)">
</g>
<g transform="matrix(0.0625 0.0000 0.0000 0.0625 0.0000 0.0000)">
<path d="M 3813.0000,5218.0000 L 3813.0000,5393.0000 L 3915.0000,5393.0000 L 3915.0000,5218.0000 L 3813.0000,5218.0000 Z" stroke-width="1px" stroke="#B4DCFF"  fill="#B4DCFF" />
</g>
<g transform="matrix(1.0000 0.0000 0.0000 1.0000 0.0000 0.0000)">
<defs><clipPath id="clip-2995"><path d="M 67.0000,10.0000 L 577.0000,10.0000 L 577.0000,337.0000 L 67.0000,337.0000 L 67.0000,10.0000 Z Z" /></clipPath></defs>
</g>
<g transform="matrix(0.0625 0.0000 0.0000 0.0625 0.0000 0.0000)">
<path  clip-path="url(#clip-2995)" d="M 3813.0000,5218.0000 L 3915.0000,5218.0000 L 3915.0000,5393.0000 L 3813.0000,5393.0000 Z" stroke="#000000" stroke-width="16.0000"  stroke-linecap="butt"  stroke-linejoin="miter"  stroke-miterlimit="10.0000" fill="none" />
</g>
<g transform="matrix(1.0000 0.0000 0.0000 1.0000 0.0000 0.0000)">
</g>
<g transform="matrix(0.0625 0.0000 0.0000 0.0625 0.0000 0.0000)">
<path d="M 3711.0000,5306.0000 L 3711.0000,5393.0000 L 3813.0000,5393.0000 L 3813.0000,5306.0000 L 3711.0000,5306.0000 Z" stroke-width="1px" stroke="#B4DCFF"  fill="#B4DCFF" />
</g>
<g transform="matrix(1.0000 0.0000 0.0000 1.0000 0.0000 0.0000)">
<defs><clipPath id="clip-11942"><path d="M 67.0000,10.0000 L 577.0000,10.0000 L 577.0000,337.0000 L 67.0000,337.0000 L 67.0000,10.0000 Z Z" /></clipPath></defs>
</g>
<g transform="matrix(0.0625 0.0000 0.0000 0.0625 0.0000 0.0000)">
<path  clip-path="url(#clip-11942)" d="M 3711.0000,5306.0000 L 3813.0000,5306.0000 L 3813.0000,5393.0000 L 3711.0000,5393.0000 Z" stroke="#000000" stroke-width="16.0000"  stroke-linecap="butt"  stroke-linejoin="miter"  stroke-miterlimit="10.0000" fill="none" />
</g>
<g transform="matrix(1.0000 0.0000 0.0000 1.0000 0.0000 0.0000)">
</g>
<g transform="matrix(0.0625 0.0000 0.0000 0.0625 0.0000 0.0000)">
<path d="M 6466.0000,5306.0000 L 6466.0000,5393.0000 L 6568.0000,5393.0000 L 6568.0000,5306.0000 L 6466.0000,5306.0000 Z" stroke-width="1px" stroke="#B4DCFF"  fill="#B4DCFF" />
</g>
<g transform="matrix(1.0000 0.0000 0.0000 1.0000 0.0000 0.0000)">
<defs><clipPath id="clip-4827"><path d="M 67.0000,10.0000 L 577.0000,10.0000 L 577.0000,337.0000 L 67.0000,337.0000 L 67.0000,10.0000 Z Z" /></clipPath></defs>
</g>
<g transform="matrix(0.0625 0.0000 0.0000 0.0625 0.0000 0.0000)">
<path  clip-path="url(#clip-4827)" d="M 6466.0000,5306.0000 L 6568.0000,5306.0000 L 6568.0000,5393.0000 L 6466.0000,5393.0000 Z" stroke="#000000" stroke-width="16.0000"  stroke-linecap="butt"  stroke-linejoin="miter"  stroke-miterlimit="10.0000" fill="none" />
</g>
<g transform="matrix(1.0000 0.0000 0.0000 1.0000 0.0000 0.0000)">
</g>
<g transform="matrix(0.0625 0.0000 0.0000 0.0625 0.0000 0.0000)">
<path d="M 4119.0000,5044.0000 L 4119.0000,5393.0000 L 4221.0000,5393.0000 L 4221.0000,5044.0000 L 4119.0000,5044.0000 Z" stroke-width="1px" stroke="#B4DCFF"  fill="#B4DCFF" />
</g>
<g transform="matrix(1.0000 0.0000 0.0000 1.0000 0.0000 0.0000)">
<defs><clipPath id="clip-5436"><path d="M 67.0000,10.0000 L 577.0000,10.0000 L 577.0000,337.0000 L 67.0000,337.0000 L 67.0000,10.0000 Z Z" /></clipPath></defs>
</g>
<g transform="matrix(0.0625 0.0000 0.0000 0.0625 0.0000 0.0000)">
<path  clip-path="url(#clip-5436)" d="M 4119.0000,5044.0000 L 4221.0000,5044.0000 L 4221.0000,5393.0000 L 4119.0000,5393.0000 Z" stroke="#000000" stroke-width="16.0000"  stroke-linecap="butt"  stroke-linejoin="miter"  stroke-miterlimit="10.0000" fill="none" />
</g>
<g transform="matrix(1.0000 0.0000 0.0000 1.0000 0.0000 0.0000)">
</g>
<g transform="matrix(0.0625 0.0000 0.0000 0.0625 0.0000 0.0000)">
<path d="M 4629.0000,5218.0000 L 4629.0000,5393.0000 L 4731.0000,5393.0000 L 4731.0000,5218.0000 L 4629.0000,5218.0000 Z" stroke-width="1px" stroke="#B4DCFF"  fill="#B4DCFF" />
</g>
<g transform="matrix(1.0000 0.0000 0.0000 1.0000 0.0000 0.0000)">
<defs><clipPath id="clip-32391"><path d="M 67.0000,10.0000 L 577.0000,10.0000 L 577.0000,337.0000 L 67.0000,337.0000 L 67.0000,10.0000 Z Z" /></clipPath></defs>
</g>
<g transform="matrix(0.0625 0.0000 0.0000 0.0625 0.0000 0.0000)">
<path  clip-path="url(#clip-32391)" d="M 4629.0000,5218.0000 L 4731.0000,5218.0000 L 4731.0000,5393.0000 L 4629.0000,5393.0000 Z" stroke="#000000" stroke-width="16.0000"  stroke-linecap="butt"  stroke-linejoin="miter"  stroke-miterlimit="10.0000" fill="none" />
</g>
<g transform="matrix(1.0000 0.0000 0.0000 1.0000 0.0000 0.0000)">
</g>
<g transform="matrix(0.0625 0.0000 0.0000 0.0625 0.0000 0.0000)">
<path d="M 4935.0000,5306.0000 L 4935.0000,5393.0000 L 5037.0000,5393.0000 L 5037.0000,5306.0000 L 4935.0000,5306.0000 Z" stroke-width="1px" stroke="#B4DCFF"  fill="#B4DCFF" />
</g>
<g transform="matrix(1.0000 0.0000 0.0000 1.0000 0.0000 0.0000)">
<defs><clipPath id="clip-14604"><path d="M 67.0000,10.0000 L 577.0000,10.0000 L 577.0000,337.0000 L 67.0000,337.0000 L 67.0000,10.0000 Z Z" /></clipPath></defs>
</g>
<g transform="matrix(0.0625 0.0000 0.0000 0.0625 0.0000 0.0000)">
<path  clip-path="url(#clip-14604)" d="M 4935.0000,5306.0000 L 5037.0000,5306.0000 L 5037.0000,5393.0000 L 4935.0000,5393.0000 Z" stroke="#000000" stroke-width="16.0000"  stroke-linecap="butt"  stroke-linejoin="miter"  stroke-miterlimit="10.0000" fill="none" />
</g>
<g transform="matrix(1.0000 0.0000 0.0000 1.0000 0.0000 0.0000)">
</g>
<g transform="matrix(0.0625 0.0000 0.0000 0.0625 0.0000 0.0000)">
<path d="M 5037.0000,5131.0000 L 5037.0000,5393.0000 L 5139.0000,5393.0000 L 5139.0000,5131.0000 L 5037.0000,5131.0000 Z" stroke-width="1px" stroke="#B4DCFF"  fill="#B4DCFF" />
</g>
<g transform="matrix(1.0000 0.0000 0.0000 1.0000 0.0000 0.0000)">
<defs><clipPath id="clip-3902"><path d="M 67.0000,10.0000 L 577.0000,10.0000 L 577.0000,337.0000 L 67.0000,337.0000 L 67.0000,10.0000 Z Z" /></clipPath></defs>
</g>
<g transform="matrix(0.0625 0.0000 0.0000 0.0625 0.0000 0.0000)">
<path  clip-path="url(#clip-3902)" d="M 5037.0000,5131.0000 L 5139.0000,5131.0000 L 5139.0000,5393.0000 L 5037.0000,5393.0000 Z" stroke="#000000" stroke-width="16.0000"  stroke-linecap="butt"  stroke-linejoin="miter"  stroke-miterlimit="10.0000" fill="none" />
</g>
<g transform="matrix(1.0000 0.0000 0.0000 1.0000 0.0000 0.0000)">
</g>
<g transform="matrix(0.0625 0.0000 0.0000 0.0625 0.0000 0.0000)">
<path d="M 4833.0000,5218.0000 L 4833.0000,5393.0000 L 4935.0000,5393.0000 L 4935.0000,5218.0000 L 4833.0000,5218.0000 Z" stroke-width="1px" stroke="#B4DCFF"  fill="#B4DCFF" />
</g>
<g transform="matrix(1.0000 0.0000 0.0000 1.0000 0.0000 0.0000)">
<defs><clipPath id="clip-153"><path d="M 67.0000,10.0000 L 577.0000,10.0000 L 577.0000,337.0000 L 67.0000,337.0000 L 67.0000,10.0000 Z Z" /></clipPath></defs>
</g>
<g transform="matrix(0.0625 0.0000 0.0000 0.0625 0.0000 0.0000)">
<path  clip-path="url(#clip-153)" d="M 4833.0000,5218.0000 L 4935.0000,5218.0000 L 4935.0000,5393.0000 L 4833.0000,5393.0000 Z" stroke="#000000" stroke-width="16.0000"  stroke-linecap="butt"  stroke-linejoin="miter"  stroke-miterlimit="10.0000" fill="none" />
</g>
<g transform="matrix(1.0000 0.0000 0.0000 1.0000 0.0000 0.0000)">
</g>
<g transform="matrix(0.0625 0.0000 0.0000 0.0625 0.0000 0.0000)">
<path d="M 5242.0000,5044.0000 L 5242.0000,5393.0000 L 5344.0000,5393.0000 L 5344.0000,5044.0000 L 5242.0000,5044.0000 Z" stroke-width="1px" stroke="#B4DCFF"  fill="#B4DCFF" />
</g>
<g transform="matrix(1.0000 0.0000 0.0000 1.0000 0.0000 0.0000)">
<defs><clipPath id="clip-292"><path d="M 67.0000,10.0000 L 577.0000,10.0000 L 577.0000,337.0000 L 67.0000,337.0000 L 67.0000,10.0000 Z Z" /></clipPath></defs>
</g>
<g transform="matrix(0.0625 0.0000 0.0000 0.0625 0.0000 0.0000)">
<path  clip-path="url(#clip-292)" d="M 5242.0000,5044.0000 L 5344.0000,5044.0000 L 5344.0000,5393.0000 L 5242.0000,5393.0000 Z" stroke="#000000" stroke-width="16.0000"  stroke-linecap="butt"  stroke-linejoin="miter"  stroke-miterlimit="10.0000" fill="none" />
</g>
<g transform="matrix(1.0000 0.0000 0.0000 1.0000 0.0000 0.0000)">
</g>
<g transform="matrix(0.0625 0.0000 0.0000 0.0625 0.0000 0.0000)">
<path d="M 7895.0000,5218.0000 L 7895.0000,5393.0000 L 7997.0000,5393.0000 L 7997.0000,5218.0000 L 7895.0000,5218.0000 Z" stroke-width="1px" stroke="#B4DCFF"  fill="#B4DCFF" />
</g>
<g transform="matrix(1.0000 0.0000 0.0000 1.0000 0.0000 0.0000)">
<defs><clipPath id="clip-12382"><path d="M 67.0000,10.0000 L 577.0000,10.0000 L 577.0000,337.0000 L 67.0000,337.0000 L 67.0000,10.0000 Z Z" /></clipPath></defs>
</g>
<g transform="matrix(0.0625 0.0000 0.0000 0.0625 0.0000 0.0000)">
<path  clip-path="url(#clip-12382)" d="M 7895.0000,5218.0000 L 7997.0000,5218.0000 L 7997.0000,5393.0000 L 7895.0000,5393.0000 Z" stroke="#000000" stroke-width="16.0000"  stroke-linecap="butt"  stroke-linejoin="miter"  stroke-miterlimit="10.0000" fill="none" />
</g>
<g transform="matrix(1.0000 0.0000 0.0000 1.0000 0.0000 0.0000)">
</g>
<g transform="matrix(0.0625 0.0000 0.0000 0.0625 0.0000 0.0000)">
<path d="M 7079.0000,5306.0000 L 7079.0000,5393.0000 L 7181.0000,5393.0000 L 7181.0000,5306.0000 L 7079.0000,5306.0000 Z" stroke-width="1px" stroke="#B4DCFF"  fill="#B4DCFF" />
</g>
<g transform="matrix(1.0000 0.0000 0.0000 1.0000 0.0000 0.0000)">
<defs><clipPath id="clip-17421"><path d="M 67.0000,10.0000 L 577.0000,10.0000 L 577.0000,337.0000 L 67.0000,337.0000 L 67.0000,10.0000 Z Z" /></clipPath></defs>
</g>
<g transform="matrix(0.0625 0.0000 0.0000 0.0625 0.0000 0.0000)">
<path  clip-path="url(#clip-17421)" d="M 7079.0000,5306.0000 L 7181.0000,5306.0000 L 7181.0000,5393.0000 L 7079.0000,5393.0000 Z" stroke="#000000" stroke-width="16.0000"  stroke-linecap="butt"  stroke-linejoin="miter"  stroke-miterlimit="10.0000" fill="none" />
</g>
<g transform="matrix(1.0000 0.0000 0.0000 1.0000 0.0000 0.0000)">
</g>
<g transform="matrix(0.0625 0.0000 0.0000 0.0625 0.0000 0.0000)">
<path d="M 6364.0000,5044.0000 L 6364.0000,5393.0000 L 6466.0000,5393.0000 L 6466.0000,5044.0000 L 6364.0000,5044.0000 Z" stroke-width="1px" stroke="#B4DCFF"  fill="#B4DCFF" />
</g>
<g transform="matrix(1.0000 0.0000 0.0000 1.0000 0.0000 0.0000)">
<defs><clipPath id="clip-18716"><path d="M 67.0000,10.0000 L 577.0000,10.0000 L 577.0000,337.0000 L 67.0000,337.0000 L 67.0000,10.0000 Z Z" /></clipPath></defs>
</g>
<g transform="matrix(0.0625 0.0000 0.0000 0.0625 0.0000 0.0000)">
<path  clip-path="url(#clip-18716)" d="M 6364.0000,5044.0000 L 6466.0000,5044.0000 L 6466.0000,5393.0000 L 6364.0000,5393.0000 Z" stroke="#000000" stroke-width="16.0000"  stroke-linecap="butt"  stroke-linejoin="miter"  stroke-miterlimit="10.0000" fill="none" />
</g>
<g transform="matrix(1.0000 0.0000 0.0000 1.0000 0.0000 0.0000)">
</g>
<g transform="matrix(0.0625 0.0000 0.0000 0.0625 0.0000 0.0000)">
<path d="M 6772.0000,5131.0000 L 6772.0000,5393.0000 L 6875.0000,5393.0000 L 6875.0000,5131.0000 L 6772.0000,5131.0000 Z" stroke-width="1px" stroke="#B4DCFF"  fill="#B4DCFF" />
</g>
<g transform="matrix(1.0000 0.0000 0.0000 1.0000 0.0000 0.0000)">
<defs><clipPath id="clip-19718"><path d="M 67.0000,10.0000 L 577.0000,10.0000 L 577.0000,337.0000 L 67.0000,337.0000 L 67.0000,10.0000 Z Z" /></clipPath></defs>
</g>
<g transform="matrix(0.0625 0.0000 0.0000 0.0625 0.0000 0.0000)">
<path  clip-path="url(#clip-19718)" d="M 6772.0000,5131.0000 L 6875.0000,5131.0000 L 6875.0000,5393.0000 L 6772.0000,5393.0000 Z" stroke="#000000" stroke-width="16.0000"  stroke-linecap="butt"  stroke-linejoin="miter"  stroke-miterlimit="10.0000" fill="none" />
</g>
<g transform="matrix(1.0000 0.0000 0.0000 1.0000 0.0000 0.0000)">
</g>
<g transform="matrix(0.0625 0.0000 0.0000 0.0625 0.0000 0.0000)">
<path d="M 2384.0000,5218.0000 L 2384.0000,5393.0000 L 2486.0000,5393.0000 L 2486.0000,5218.0000 L 2384.0000,5218.0000 Z" stroke-width="1px" stroke="#B4DCFF"  fill="#B4DCFF" />
</g>
<g transform="matrix(1.0000 0.0000 0.0000 1.0000 0.0000 0.0000)">
<defs><clipPath id="clip-19895"><path d="M 67.0000,10.0000 L 577.0000,10.0000 L 577.0000,337.0000 L 67.0000,337.0000 L 67.0000,10.0000 Z Z" /></clipPath></defs>
</g>
<g transform="matrix(0.0625 0.0000 0.0000 0.0625 0.0000 0.0000)">
<path  clip-path="url(#clip-19895)" d="M 2384.0000,5218.0000 L 2486.0000,5218.0000 L 2486.0000,5393.0000 L 2384.0000,5393.0000 Z" stroke="#000000" stroke-width="16.0000"  stroke-linecap="butt"  stroke-linejoin="miter"  stroke-miterlimit="10.0000" fill="none" />
</g>
<g transform="matrix(1.0000 0.0000 0.0000 1.0000 0.0000 0.0000)">
</g>
<g transform="matrix(0.0625 0.0000 0.0000 0.0625 0.0000 0.0000)">
<path d="M 4323.0000,5306.0000 L 4323.0000,5393.0000 L 4425.0000,5393.0000 L 4425.0000,5306.0000 L 4323.0000,5306.0000 Z" stroke-width="1px" stroke="#B4DCFF"  fill="#B4DCFF" />
</g>
<g transform="matrix(1.0000 0.0000 0.0000 1.0000 0.0000 0.0000)">
<defs><clipPath id="clip-5447"><path d="M 67.0000,10.0000 L 577.0000,10.0000 L 577.0000,337.0000 L 67.0000,337.0000 L 67.0000,10.0000 Z Z" /></clipPath></defs>
</g>
<g transform="matrix(0.0625 0.0000 0.0000 0.0625 0.0000 0.0000)">
<path  clip-path="url(#clip-5447)" d="M 4323.0000,5306.0000 L 4425.0000,5306.0000 L 4425.0000,5393.0000 L 4323.0000,5393.0000 Z" stroke="#000000" stroke-width="16.0000"  stroke-linecap="butt"  stroke-linejoin="miter"  stroke-miterlimit="10.0000" fill="none" />
</g>
<g transform="matrix(1.0000 0.0000 0.0000 1.0000 0.0000 0.0000)">
</g>
<g transform="matrix(0.0625 0.0000 0.0000 0.0625 0.0000 0.0000)">
<path d="M 7385.0000,5218.0000 L 7385.0000,5393.0000 L 7487.0000,5393.0000 L 7487.0000,5218.0000 L 7385.0000,5218.0000 Z" stroke-width="1px" stroke="#B4DCFF"  fill="#B4DCFF" />
</g>
<g transform="matrix(1.0000 0.0000 0.0000 1.0000 0.0000 0.0000)">
<defs><clipPath id="clip-21726"><path d="M 67.0000,10.0000 L 577.0000,10.0000 L 577.0000,337.0000 L 67.0000,337.0000 L 67.0000,10.0000 Z Z" /></clipPath></defs>
</g>
<g transform="matrix(0.0625 0.0000 0.0000 0.0625 0.0000 0.0000)">
<path  clip-path="url(#clip-21726)" d="M 7385.0000,5218.0000 L 7487.0000,5218.0000 L 7487.0000,5393.0000 L 7385.0000,5393.0000 Z" stroke="#000000" stroke-width="16.0000"  stroke-linecap="butt"  stroke-linejoin="miter"  stroke-miterlimit="10.0000" fill="none" />
</g>
<g transform="matrix(1.0000 0.0000 0.0000 1.0000 0.0000 0.0000)">
</g>
<g transform="matrix(0.0625 0.0000 0.0000 0.0625 0.0000 0.0000)">
<path d="M 6875.0000,5306.0000 L 6875.0000,5393.0000 L 6977.0000,5393.0000 L 6977.0000,5306.0000 L 6875.0000,5306.0000 Z" stroke-width="1px" stroke="#B4DCFF"  fill="#B4DCFF" />
</g>
<g transform="matrix(1.0000 0.0000 0.0000 1.0000 0.0000 0.0000)">
<defs><clipPath id="clip-14771"><path d="M 67.0000,10.0000 L 577.0000,10.0000 L 577.0000,337.0000 L 67.0000,337.0000 L 67.0000,10.0000 Z Z" /></clipPath></defs>
</g>
<g transform="matrix(0.0625 0.0000 0.0000 0.0625 0.0000 0.0000)">
<path  clip-path="url(#clip-14771)" d="M 6875.0000,5306.0000 L 6977.0000,5306.0000 L 6977.0000,5393.0000 L 6875.0000,5393.0000 Z" stroke="#000000" stroke-width="16.0000"  stroke-linecap="butt"  stroke-linejoin="miter"  stroke-miterlimit="10.0000" fill="none" />
</g>
<g transform="matrix(1.0000 0.0000 0.0000 1.0000 0.0000 0.0000)">
</g>
<g transform="matrix(0.0625 0.0000 0.0000 0.0625 0.0000 0.0000)">
<path d="M 6977.0000,5131.0000 L 6977.0000,5393.0000 L 7079.0000,5393.0000 L 7079.0000,5131.0000 L 6977.0000,5131.0000 Z" stroke-width="1px" stroke="#B4DCFF"  fill="#B4DCFF" />
</g>
<g transform="matrix(1.0000 0.0000 0.0000 1.0000 0.0000 0.0000)">
<defs><clipPath id="clip-11538"><path d="M 67.0000,10.0000 L 577.0000,10.0000 L 577.0000,337.0000 L 67.0000,337.0000 L 67.0000,10.0000 Z Z" /></clipPath></defs>
</g>
<g transform="matrix(0.0625 0.0000 0.0000 0.0625 0.0000 0.0000)">
<path  clip-path="url(#clip-11538)" d="M 6977.0000,5131.0000 L 7079.0000,5131.0000 L 7079.0000,5393.0000 L 6977.0000,5393.0000 Z" stroke="#000000" stroke-width="16.0000"  stroke-linecap="butt"  stroke-linejoin="miter"  stroke-miterlimit="10.0000" fill="none" />
</g>
<g transform="matrix(1.0000 0.0000 0.0000 1.0000 0.0000 0.0000)">
</g>
<g transform="matrix(0.0625 0.0000 0.0000 0.0625 0.0000 0.0000)">
<path d="M 4425.0000,5218.0000 L 4425.0000,5393.0000 L 4527.0000,5393.0000 L 4527.0000,5218.0000 L 4425.0000,5218.0000 Z" stroke-width="1px" stroke="#B4DCFF"  fill="#B4DCFF" />
</g>
<g transform="matrix(1.0000 0.0000 0.0000 1.0000 0.0000 0.0000)">
<defs><clipPath id="clip-1869"><path d="M 67.0000,10.0000 L 577.0000,10.0000 L 577.0000,337.0000 L 67.0000,337.0000 L 67.0000,10.0000 Z Z" /></clipPath></defs>
</g>
<g transform="matrix(0.0625 0.0000 0.0000 0.0625 0.0000 0.0000)">
<path  clip-path="url(#clip-1869)" d="M 4425.0000,5218.0000 L 4527.0000,5218.0000 L 4527.0000,5393.0000 L 4425.0000,5393.0000 Z" stroke="#000000" stroke-width="16.0000"  stroke-linecap="butt"  stroke-linejoin="miter"  stroke-miterlimit="10.0000" fill="none" />
</g>
<g transform="matrix(1.0000 0.0000 0.0000 1.0000 0.0000 0.0000)">
</g>
<g transform="matrix(0.0625 0.0000 0.0000 0.0625 0.0000 0.0000)">
<path d="M 4731.0000,5218.0000 L 4731.0000,5393.0000 L 4833.0000,5393.0000 L 4833.0000,5218.0000 L 4731.0000,5218.0000 Z" stroke-width="1px" stroke="#B4DCFF"  fill="#B4DCFF" />
</g>
<g transform="matrix(1.0000 0.0000 0.0000 1.0000 0.0000 0.0000)">
<defs><clipPath id="clip-19912"><path d="M 67.0000,10.0000 L 577.0000,10.0000 L 577.0000,337.0000 L 67.0000,337.0000 L 67.0000,10.0000 Z Z" /></clipPath></defs>
</g>
<g transform="matrix(0.0625 0.0000 0.0000 0.0625 0.0000 0.0000)">
<path  clip-path="url(#clip-19912)" d="M 4731.0000,5218.0000 L 4833.0000,5218.0000 L 4833.0000,5393.0000 L 4731.0000,5393.0000 Z" stroke="#000000" stroke-width="16.0000"  stroke-linecap="butt"  stroke-linejoin="miter"  stroke-miterlimit="10.0000" fill="none" />
</g>
<g transform="matrix(1.0000 0.0000 0.0000 1.0000 0.0000 0.0000)">
</g>
<g transform="matrix(0.0625 0.0000 0.0000 0.0625 0.0000 0.0000)">
<path d="M 4017.0000,5306.0000 L 4017.0000,5393.0000 L 4119.0000,5393.0000 L 4119.0000,5306.0000 L 4017.0000,5306.0000 Z" stroke-width="1px" stroke="#B4DCFF"  fill="#B4DCFF" />
</g>
<g transform="matrix(1.0000 0.0000 0.0000 1.0000 0.0000 0.0000)">
<defs><clipPath id="clip-25667"><path d="M 67.0000,10.0000 L 577.0000,10.0000 L 577.0000,337.0000 L 67.0000,337.0000 L 67.0000,10.0000 Z Z" /></clipPath></defs>
</g>
<g transform="matrix(0.0625 0.0000 0.0000 0.0625 0.0000 0.0000)">
<path  clip-path="url(#clip-25667)" d="M 4017.0000,5306.0000 L 4119.0000,5306.0000 L 4119.0000,5393.0000 L 4017.0000,5393.0000 Z" stroke="#000000" stroke-width="16.0000"  stroke-linecap="butt"  stroke-linejoin="miter"  stroke-miterlimit="10.0000" fill="none" />
</g>
<g transform="matrix(1.0000 0.0000 0.0000 1.0000 0.0000 0.0000)">
</g>
<g transform="matrix(0.0625 0.0000 0.0000 0.0625 0.0000 0.0000)">
<path d="M 3302.0000,5306.0000 L 3302.0000,5393.0000 L 3404.0000,5393.0000 L 3404.0000,5306.0000 L 3302.0000,5306.0000 Z" stroke-width="1px" stroke="#B4DCFF"  fill="#B4DCFF" />
</g>
<g transform="matrix(1.0000 0.0000 0.0000 1.0000 0.0000 0.0000)">
<defs><clipPath id="clip-26299"><path d="M 67.0000,10.0000 L 577.0000,10.0000 L 577.0000,337.0000 L 67.0000,337.0000 L 67.0000,10.0000 Z Z" /></clipPath></defs>
</g>
<g transform="matrix(0.0625 0.0000 0.0000 0.0625 0.0000 0.0000)">
<path  clip-path="url(#clip-26299)" d="M 3302.0000,5306.0000 L 3404.0000,5306.0000 L 3404.0000,5393.0000 L 3302.0000,5393.0000 Z" stroke="#000000" stroke-width="16.0000"  stroke-linecap="butt"  stroke-linejoin="miter"  stroke-miterlimit="10.0000" fill="none" />
</g>
<g transform="matrix(1.0000 0.0000 0.0000 1.0000 0.0000 0.0000)">
</g>
<g transform="matrix(0.0625 0.0000 0.0000 0.0625 0.0000 0.0000)">
<path d="M 7793.0000,5306.0000 L 7793.0000,5393.0000 L 7895.0000,5393.0000 L 7895.0000,5306.0000 L 7793.0000,5306.0000 Z" stroke-width="1px" stroke="#B4DCFF"  fill="#B4DCFF" />
</g>
<g transform="matrix(1.0000 0.0000 0.0000 1.0000 0.0000 0.0000)">
<defs><clipPath id="clip-17035"><path d="M 67.0000,10.0000 L 577.0000,10.0000 L 577.0000,337.0000 L 67.0000,337.0000 L 67.0000,10.0000 Z Z" /></clipPath></defs>
</g>
<g transform="matrix(0.0625 0.0000 0.0000 0.0625 0.0000 0.0000)">
<path  clip-path="url(#clip-17035)" d="M 7793.0000,5306.0000 L 7895.0000,5306.0000 L 7895.0000,5393.0000 L 7793.0000,5393.0000 Z" stroke="#000000" stroke-width="16.0000"  stroke-linecap="butt"  stroke-linejoin="miter"  stroke-miterlimit="10.0000" fill="none" />
</g>
<g transform="matrix(1.0000 0.0000 0.0000 1.0000 0.0000 0.0000)">
</g>
<g transform="matrix(0.0625 0.0000 0.0000 0.0625 0.0000 0.0000)">
<path d="M 7283.0000,5306.0000 L 7283.0000,5393.0000 L 7385.0000,5393.0000 L 7385.0000,5306.0000 L 7283.0000,5306.0000 Z" stroke-width="1px" stroke="#B4DCFF"  fill="#B4DCFF" />
</g>
<g transform="matrix(1.0000 0.0000 0.0000 1.0000 0.0000 0.0000)">
<defs><clipPath id="clip-9894"><path d="M 67.0000,10.0000 L 577.0000,10.0000 L 577.0000,337.0000 L 67.0000,337.0000 L 67.0000,10.0000 Z Z" /></clipPath></defs>
</g>
<g transform="matrix(0.0625 0.0000 0.0000 0.0625 0.0000 0.0000)">
<path  clip-path="url(#clip-9894)" d="M 7283.0000,5306.0000 L 7385.0000,5306.0000 L 7385.0000,5393.0000 L 7283.0000,5393.0000 Z" stroke="#000000" stroke-width="16.0000"  stroke-linecap="butt"  stroke-linejoin="miter"  stroke-miterlimit="10.0000" fill="none" />
</g>
<g transform="matrix(1.0000 0.0000 0.0000 1.0000 0.0000 0.0000)">
</g>
<g transform="matrix(0.0625 0.0000 0.0000 0.0625 0.0000 0.0000)">
<path d="M 7589.0000,5306.0000 L 7589.0000,5393.0000 L 7691.0000,5393.0000 L 7691.0000,5306.0000 L 7589.0000,5306.0000 Z" stroke-width="1px" stroke="#B4DCFF"  fill="#B4DCFF" />
</g>
<g transform="matrix(1.0000 0.0000 0.0000 1.0000 0.0000 0.0000)">
<defs><clipPath id="clip-28703"><path d="M 67.0000,10.0000 L 577.0000,10.0000 L 577.0000,337.0000 L 67.0000,337.0000 L 67.0000,10.0000 Z Z" /></clipPath></defs>
</g>
<g transform="matrix(0.0625 0.0000 0.0000 0.0625 0.0000 0.0000)">
<path  clip-path="url(#clip-28703)" d="M 7589.0000,5306.0000 L 7691.0000,5306.0000 L 7691.0000,5393.0000 L 7589.0000,5393.0000 Z" stroke="#000000" stroke-width="16.0000"  stroke-linecap="butt"  stroke-linejoin="miter"  stroke-miterlimit="10.0000" fill="none" />
</g>
<g transform="matrix(1.0000 0.0000 0.0000 1.0000 0.0000 0.0000)">
</g>
<g transform="matrix(0.0625 0.0000 0.0000 0.0625 0.0000 0.0000)">
<path d="M 6670.0000,5306.0000 L 6670.0000,5393.0000 L 6772.0000,5393.0000 L 6772.0000,5306.0000 L 6670.0000,5306.0000 Z" stroke-width="1px" stroke="#B4DCFF"  fill="#B4DCFF" />
</g>
<g transform="matrix(1.0000 0.0000 0.0000 1.0000 0.0000 0.0000)">
<defs><clipPath id="clip-23811"><path d="M 67.0000,10.0000 L 577.0000,10.0000 L 577.0000,337.0000 L 67.0000,337.0000 L 67.0000,10.0000 Z Z" /></clipPath></defs>
</g>
<g transform="matrix(0.0625 0.0000 0.0000 0.0625 0.0000 0.0000)">
<path  clip-path="url(#clip-23811)" d="M 6670.0000,5306.0000 L 6772.0000,5306.0000 L 6772.0000,5393.0000 L 6670.0000,5393.0000 Z" stroke="#000000" stroke-width="16.0000"  stroke-linecap="butt"  stroke-linejoin="miter"  stroke-miterlimit="10.0000" fill="none" />
</g>
<g transform="matrix(1.0000 0.0000 0.0000 1.0000 0.0000 0.0000)">
</g>
<g transform="matrix(0.0625 0.0000 0.0000 0.0625 0.0000 0.0000)">
<path d="M 1057.0000,5393.0000 L 9222.0000,5393.0000 " stroke="#000000" stroke-width="16.0000"  stroke-linecap="butt"  stroke-linejoin="miter"  stroke-miterlimit="10.0000" fill="none" />
</g>
<g transform="matrix(1.0000 0.0000 0.0000 1.0000 0.0000 0.0000)">
</g>
<g transform="matrix(0.0625 0.0000 0.0000 0.0625 0.0000 0.0000)">
<path d="M 1057.0000,5393.0000 L 1057.0000,5473.0000 " stroke="#000000" stroke-width="16.0000"  stroke-linecap="butt"  stroke-linejoin="miter"  stroke-miterlimit="10.0000" fill="none" />
</g>
<g transform="matrix(1.0000 0.0000 0.0000 1.0000 0.0000 0.0000)">
</g>
<g transform="matrix(0.0625 0.0000 0.0000 0.0625 0.0000 0.0000)">
<path d="M 1057.0000,5393.0000 L 1057.0000,5313.0000 " stroke="#000000" stroke-width="16.0000"  stroke-linecap="butt"  stroke-linejoin="miter"  stroke-miterlimit="10.0000" fill="none" />
</g>
<g transform="matrix(1.0000 0.0000 0.0000 1.0000 0.0000 0.0000)">
<text font-family="Arial" fill="#000000" style ="white-space:pre;" font-weight="400" text-anchor="start" x="55.0000" y="361.0000" font-size="15.0000" ><![CDATA[-20]]></text>
</g>
<g transform="matrix(0.0625 0.0000 0.0000 0.0625 0.0000 0.0000)">
<path d="M 2078.0000,5393.0000 L 2078.0000,5473.0000 " stroke="#000000" stroke-width="16.0000"  stroke-linecap="butt"  stroke-linejoin="miter"  stroke-miterlimit="10.0000" fill="none" />
</g>
<g transform="matrix(1.0000 0.0000 0.0000 1.0000 0.0000 0.0000)">
</g>
<g transform="matrix(0.0625 0.0000 0.0000 0.0625 0.0000 0.0000)">
<path d="M 2078.0000,5393.0000 L 2078.0000,5313.0000 " stroke="#000000" stroke-width="16.0000"  stroke-linecap="butt"  stroke-linejoin="miter"  stroke-miterlimit="10.0000" fill="none" />
</g>
<g transform="matrix(1.0000 0.0000 0.0000 1.0000 0.0000 0.0000)">
<text font-family="Arial" fill="#000000" style ="white-space:pre;" font-weight="400" text-anchor="start" x="119.0000" y="361.0000" font-size="15.0000" ><![CDATA[-15]]></text>
</g>
<g transform="matrix(0.0625 0.0000 0.0000 0.0625 0.0000 0.0000)">
<path d="M 3098.0000,5393.0000 L 3098.0000,5473.0000 " stroke="#000000" stroke-width="16.0000"  stroke-linecap="butt"  stroke-linejoin="miter"  stroke-miterlimit="10.0000" fill="none" />
</g>
<g transform="matrix(1.0000 0.0000 0.0000 1.0000 0.0000 0.0000)">
</g>
<g transform="matrix(0.0625 0.0000 0.0000 0.0625 0.0000 0.0000)">
<path d="M 3098.0000,5393.0000 L 3098.0000,5313.0000 " stroke="#000000" stroke-width="16.0000"  stroke-linecap="butt"  stroke-linejoin="miter"  stroke-miterlimit="10.0000" fill="none" />
</g>
<g transform="matrix(1.0000 0.0000 0.0000 1.0000 0.0000 0.0000)">
<text font-family="Arial" fill="#000000" style ="white-space:pre;" font-weight="400" text-anchor="start" x="183.0000" y="361.0000" font-size="15.0000" ><![CDATA[-10]]></text>
</g>
<g transform="matrix(0.0625 0.0000 0.0000 0.0625 0.0000 0.0000)">
<path d="M 4119.0000,5393.0000 L 4119.0000,5473.0000 " stroke="#000000" stroke-width="16.0000"  stroke-linecap="butt"  stroke-linejoin="miter"  stroke-miterlimit="10.0000" fill="none" />
</g>
<g transform="matrix(1.0000 0.0000 0.0000 1.0000 0.0000 0.0000)">
</g>
<g transform="matrix(0.0625 0.0000 0.0000 0.0625 0.0000 0.0000)">
<path d="M 4119.0000,5393.0000 L 4119.0000,5313.0000 " stroke="#000000" stroke-width="16.0000"  stroke-linecap="butt"  stroke-linejoin="miter"  stroke-miterlimit="10.0000" fill="none" />
</g>
<g transform="matrix(1.0000 0.0000 0.0000 1.0000 0.0000 0.0000)">
<text font-family="Arial" fill="#000000" style ="white-space:pre;" font-weight="400" text-anchor="start" x="250.0000" y="361.0000" font-size="15.0000" ><![CDATA[-5]]></text>
</g>
<g transform="matrix(0.0625 0.0000 0.0000 0.0625 0.0000 0.0000)">
<path d="M 5139.0000,5393.0000 L 5139.0000,5473.0000 " stroke="#000000" stroke-width="16.0000"  stroke-linecap="butt"  stroke-linejoin="miter"  stroke-miterlimit="10.0000" fill="none" />
</g>
<g transform="matrix(1.0000 0.0000 0.0000 1.0000 0.0000 0.0000)">
</g>
<g transform="matrix(0.0625 0.0000 0.0000 0.0625 0.0000 0.0000)">
<path d="M 5139.0000,5393.0000 L 5139.0000,5313.0000 " stroke="#000000" stroke-width="16.0000"  stroke-linecap="butt"  stroke-linejoin="miter"  stroke-miterlimit="10.0000" fill="none" />
</g>
<g transform="matrix(1.0000 0.0000 0.0000 1.0000 0.0000 0.0000)">
<text font-family="Arial" fill="#000000" style ="white-space:pre;" font-weight="400" text-anchor="start" x="317.0000" y="361.0000" font-size="15.0000" ><![CDATA[0]]></text>
</g>
<g transform="matrix(0.0625 0.0000 0.0000 0.0625 0.0000 0.0000)">
<path d="M 6160.0000,5393.0000 L 6160.0000,5473.0000 " stroke="#000000" stroke-width="16.0000"  stroke-linecap="butt"  stroke-linejoin="miter"  stroke-miterlimit="10.0000" fill="none" />
</g>
<g transform="matrix(1.0000 0.0000 0.0000 1.0000 0.0000 0.0000)">
</g>
<g transform="matrix(0.0625 0.0000 0.0000 0.0625 0.0000 0.0000)">
<path d="M 6160.0000,5393.0000 L 6160.0000,5313.0000 " stroke="#000000" stroke-width="16.0000"  stroke-linecap="butt"  stroke-linejoin="miter"  stroke-miterlimit="10.0000" fill="none" />
</g>
<g transform="matrix(1.0000 0.0000 0.0000 1.0000 0.0000 0.0000)">
<text font-family="Arial" fill="#000000" style ="white-space:pre;" font-weight="400" text-anchor="start" x="381.0000" y="361.0000" font-size="15.0000" ><![CDATA[5]]></text>
</g>
<g transform="matrix(0.0625 0.0000 0.0000 0.0625 0.0000 0.0000)">
<path d="M 7181.0000,5393.0000 L 7181.0000,5473.0000 " stroke="#000000" stroke-width="16.0000"  stroke-linecap="butt"  stroke-linejoin="miter"  stroke-miterlimit="10.0000" fill="none" />
</g>
<g transform="matrix(1.0000 0.0000 0.0000 1.0000 0.0000 0.0000)">
</g>
<g transform="matrix(0.0625 0.0000 0.0000 0.0625 0.0000 0.0000)">
<path d="M 7181.0000,5393.0000 L 7181.0000,5313.0000 " stroke="#000000" stroke-width="16.0000"  stroke-linecap="butt"  stroke-linejoin="miter"  stroke-miterlimit="10.0000" fill="none" />
</g>
<g transform="matrix(1.0000 0.0000 0.0000 1.0000 0.0000 0.0000)">
<text font-family="Arial" fill="#000000" style ="white-space:pre;" font-weight="400" text-anchor="start" x="441.0000" y="361.0000" font-size="15.0000" ><![CDATA[10]]></text>
</g>
<g transform="matrix(0.0625 0.0000 0.0000 0.0625 0.0000 0.0000)">
<path d="M 8201.0000,5393.0000 L 8201.0000,5473.0000 " stroke="#000000" stroke-width="16.0000"  stroke-linecap="butt"  stroke-linejoin="miter"  stroke-miterlimit="10.0000" fill="none" />
</g>
<g transform="matrix(1.0000 0.0000 0.0000 1.0000 0.0000 0.0000)">
</g>
<g transform="matrix(0.0625 0.0000 0.0000 0.0625 0.0000 0.0000)">
<path d="M 8201.0000,5393.0000 L 8201.0000,5313.0000 " stroke="#000000" stroke-width="16.0000"  stroke-linecap="butt"  stroke-linejoin="miter"  stroke-miterlimit="10.0000" fill="none" />
</g>
<g transform="matrix(1.0000 0.0000 0.0000 1.0000 0.0000 0.0000)">
<text font-family="Arial" fill="#000000" style ="white-space:pre;" font-weight="400" text-anchor="start" x="505.0000" y="361.0000" font-size="15.0000" ><![CDATA[15]]></text>
</g>
<g transform="matrix(0.0625 0.0000 0.0000 0.0625 0.0000 0.0000)">
<path d="M 9222.0000,5393.0000 L 9222.0000,5473.0000 " stroke="#000000" stroke-width="16.0000"  stroke-linecap="butt"  stroke-linejoin="miter"  stroke-miterlimit="10.0000" fill="none" />
</g>
<g transform="matrix(1.0000 0.0000 0.0000 1.0000 0.0000 0.0000)">
</g>
<g transform="matrix(0.0625 0.0000 0.0000 0.0625 0.0000 0.0000)">
<path d="M 9222.0000,5393.0000 L 9222.0000,5313.0000 " stroke="#000000" stroke-width="16.0000"  stroke-linecap="butt"  stroke-linejoin="miter"  stroke-miterlimit="10.0000" fill="none" />
</g>
<g transform="matrix(1.0000 0.0000 0.0000 1.0000 0.0000 0.0000)">
<text font-family="Arial" fill="#000000" style ="white-space:pre;" font-weight="400" text-anchor="start" x="568.0000" y="361.0000" font-size="15.0000" ><![CDATA[20]]></text>
<defs><clipPath id="clip-31322"><path d="M 270.0000,372.0000 L 373.0000,372.0000 L 373.0000,390.0000 L 270.0000,390.0000 L 270.0000,372.0000 Z Z" /></clipPath></defs>
<text  clip-path="url(#clip-31322)" font-family="MS UI Gothic" fill="#000000" style ="white-space:pre;" font-weight="700" text-anchor="start" x="272.0000" y="385.0000" font-size="16.0000" ><![CDATA[質量誤差]]></text>
<text font-family="Arial" fill="#000000" style ="white-space:pre;" font-weight="700" text-anchor="start" x="338.0000" y="385.0000" font-size="14.0000" ><![CDATA[PPM]]></text>
</g>
<g transform="matrix(0.0625 0.0000 0.0000 0.0625 0.0000 0.0000)">
<path d="M 1057.0000,160.0000 L 1057.0000,5393.0000 " stroke="#000000" stroke-width="16.0000"  stroke-linecap="butt"  stroke-linejoin="miter"  stroke-miterlimit="10.0000" fill="none" />
</g>
<g transform="matrix(1.0000 0.0000 0.0000 1.0000 0.0000 0.0000)">
</g>
<g transform="matrix(0.0625 0.0000 0.0000 0.0625 0.0000 0.0000)">
<path d="M 1057.0000,5393.0000 L 977.0000,5393.0000 " stroke="#000000" stroke-width="16.0000"  stroke-linecap="butt"  stroke-linejoin="miter"  stroke-miterlimit="10.0000" fill="none" />
</g>
<g transform="matrix(1.0000 0.0000 0.0000 1.0000 0.0000 0.0000)">
</g>
<g transform="matrix(0.0625 0.0000 0.0000 0.0625 0.0000 0.0000)">
<path d="M 1057.0000,5393.0000 L 1137.0000,5393.0000 " stroke="#000000" stroke-width="16.0000"  stroke-linecap="butt"  stroke-linejoin="miter"  stroke-miterlimit="10.0000" fill="none" />
</g>
<g transform="matrix(1.0000 0.0000 0.0000 1.0000 0.0000 0.0000)">
<text font-family="Arial" fill="#000000" style ="white-space:pre;" font-weight="400" text-anchor="start" x="41.0000" y="341.0000" font-size="15.0000" ><![CDATA[0]]></text>
</g>
<g transform="matrix(0.0625 0.0000 0.0000 0.0625 0.0000 0.0000)">
<path d="M 1057.0000,4521.0000 L 977.0000,4521.0000 " stroke="#000000" stroke-width="16.0000"  stroke-linecap="butt"  stroke-linejoin="miter"  stroke-miterlimit="10.0000" fill="none" />
</g>
<g transform="matrix(1.0000 0.0000 0.0000 1.0000 0.0000 0.0000)">
</g>
<g transform="matrix(0.0625 0.0000 0.0000 0.0625 0.0000 0.0000)">
<path d="M 1057.0000,4521.0000 L 1137.0000,4521.0000 " stroke="#000000" stroke-width="16.0000"  stroke-linecap="butt"  stroke-linejoin="miter"  stroke-miterlimit="10.0000" fill="none" />
</g>
<g transform="matrix(1.0000 0.0000 0.0000 1.0000 0.0000 0.0000)">
<text font-family="Arial" fill="#000000" style ="white-space:pre;" font-weight="400" text-anchor="start" x="37.0000" y="287.0000" font-size="15.0000" ><![CDATA[10]]></text>
</g>
<g transform="matrix(0.0625 0.0000 0.0000 0.0625 0.0000 0.0000)">
<path d="M 1057.0000,3649.0000 L 977.0000,3649.0000 " stroke="#000000" stroke-width="16.0000"  stroke-linecap="butt"  stroke-linejoin="miter"  stroke-miterlimit="10.0000" fill="none" />
</g>
<g transform="matrix(1.0000 0.0000 0.0000 1.0000 0.0000 0.0000)">
</g>
<g transform="matrix(0.0625 0.0000 0.0000 0.0625 0.0000 0.0000)">
<path d="M 1057.0000,3649.0000 L 1137.0000,3649.0000 " stroke="#000000" stroke-width="16.0000"  stroke-linecap="butt"  stroke-linejoin="miter"  stroke-miterlimit="10.0000" fill="none" />
</g>
<g transform="matrix(1.0000 0.0000 0.0000 1.0000 0.0000 0.0000)">
<text font-family="Arial" fill="#000000" style ="white-space:pre;" font-weight="400" text-anchor="start" x="37.0000" y="232.0000" font-size="15.0000" ><![CDATA[20]]></text>
</g>
<g transform="matrix(0.0625 0.0000 0.0000 0.0625 0.0000 0.0000)">
<path d="M 1057.0000,2777.0000 L 977.0000,2777.0000 " stroke="#000000" stroke-width="16.0000"  stroke-linecap="butt"  stroke-linejoin="miter"  stroke-miterlimit="10.0000" fill="none" />
</g>
<g transform="matrix(1.0000 0.0000 0.0000 1.0000 0.0000 0.0000)">
</g>
<g transform="matrix(0.0625 0.0000 0.0000 0.0625 0.0000 0.0000)">
<path d="M 1057.0000,2777.0000 L 1137.0000,2777.0000 " stroke="#000000" stroke-width="16.0000"  stroke-linecap="butt"  stroke-linejoin="miter"  stroke-miterlimit="10.0000" fill="none" />
</g>
<g transform="matrix(1.0000 0.0000 0.0000 1.0000 0.0000 0.0000)">
<text font-family="Arial" fill="#000000" style ="white-space:pre;" font-weight="400" text-anchor="start" x="37.0000" y="178.0000" font-size="15.0000" ><![CDATA[30]]></text>
</g>
<g transform="matrix(0.0625 0.0000 0.0000 0.0625 0.0000 0.0000)">
<path d="M 1057.0000,1905.0000 L 977.0000,1905.0000 " stroke="#000000" stroke-width="16.0000"  stroke-linecap="butt"  stroke-linejoin="miter"  stroke-miterlimit="10.0000" fill="none" />
</g>
<g transform="matrix(1.0000 0.0000 0.0000 1.0000 0.0000 0.0000)">
</g>
<g transform="matrix(0.0625 0.0000 0.0000 0.0625 0.0000 0.0000)">
<path d="M 1057.0000,1905.0000 L 1137.0000,1905.0000 " stroke="#000000" stroke-width="16.0000"  stroke-linecap="butt"  stroke-linejoin="miter"  stroke-miterlimit="10.0000" fill="none" />
</g>
<g transform="matrix(1.0000 0.0000 0.0000 1.0000 0.0000 0.0000)">
<text font-family="Arial" fill="#000000" style ="white-space:pre;" font-weight="400" text-anchor="start" x="37.0000" y="123.0000" font-size="15.0000" ><![CDATA[40]]></text>
</g>
<g transform="matrix(0.0625 0.0000 0.0000 0.0625 0.0000 0.0000)">
<path d="M 1057.0000,1033.0000 L 977.0000,1033.0000 " stroke="#000000" stroke-width="16.0000"  stroke-linecap="butt"  stroke-linejoin="miter"  stroke-miterlimit="10.0000" fill="none" />
</g>
<g transform="matrix(1.0000 0.0000 0.0000 1.0000 0.0000 0.0000)">
</g>
<g transform="matrix(0.0625 0.0000 0.0000 0.0625 0.0000 0.0000)">
<path d="M 1057.0000,1033.0000 L 1137.0000,1033.0000 " stroke="#000000" stroke-width="16.0000"  stroke-linecap="butt"  stroke-linejoin="miter"  stroke-miterlimit="10.0000" fill="none" />
</g>
<g transform="matrix(1.0000 0.0000 0.0000 1.0000 0.0000 0.0000)">
<text font-family="Arial" fill="#000000" style ="white-space:pre;" font-weight="400" text-anchor="start" x="37.0000" y="69.0000" font-size="15.0000" ><![CDATA[50]]></text>
</g>
<g transform="matrix(0.0625 0.0000 0.0000 0.0625 0.0000 0.0000)">
<path d="M 1057.0000,160.0000 L 977.0000,160.0000 " stroke="#000000" stroke-width="16.0000"  stroke-linecap="butt"  stroke-linejoin="miter"  stroke-miterlimit="10.0000" fill="none" />
</g>
<g transform="matrix(1.0000 0.0000 0.0000 1.0000 0.0000 0.0000)">
</g>
<g transform="matrix(0.0625 0.0000 0.0000 0.0625 0.0000 0.0000)">
<path d="M 1057.0000,160.0000 L 1137.0000,160.0000 " stroke="#000000" stroke-width="16.0000"  stroke-linecap="butt"  stroke-linejoin="miter"  stroke-miterlimit="10.0000" fill="none" />
</g>
<g transform="matrix(1.0000 0.0000 0.0000 1.0000 0.0000 0.0000)">
<text font-family="Arial" fill="#000000" style ="white-space:pre;" font-weight="400" text-anchor="start" x="37.0000" y="14.0000" font-size="15.0000" ><![CDATA[60]]></text>
<defs><clipPath id="clip-30333"><path d="M 10.0000,163.0000 L 29.0000,163.0000 L 29.0000,185.0000 L 10.0000,185.0000 L 10.0000,163.0000 Z Z" /></clipPath></defs>
<text  clip-path="url(#clip-30333)" font-family="MS UI Gothic" fill="#000000" transform="rotate(-90, 23.0000, 196.4000) translate(0, 14.4000)" style ="white-space:pre;" font-weight="700" text-anchor="start" x="23.0000" y="182.0000" font-size="16.0000" ><![CDATA[数]]></text>
</g>
</g>
</svg>
