<?xml version="1.0"  encoding="UTF-8" standalone="no"?>
<svg version="1.1" xmlns="http://www.w3.org/2000/svg" xmlns:xlink="http://www.w3.org/1999/xlink" width="582.0000" height="400.0000">
<g transform="translate(-0.0000, -0.0000)">
<g transform="matrix(0.0625 0.0000 0.0000 0.0625 0.0000 0.0000)">
<path d="M 0.0000,0.0000 L 0.0000,6400.0000 L 9312.0000,6400.0000 L 9312.0000,0.0000 L 0.0000,0.0000 Z" stroke-width="1px" stroke="#FFFFFF"  fill="#FFFFFF" />
</g>
<g transform="matrix(1.0000 0.0000 0.0000 1.0000 0.0000 0.0000)">
</g>
<g transform="matrix(0.0625 0.0000 0.0000 0.0625 0.0000 0.0000)">
<path d="M 0.0000,0.0000 L 0.0000,6400.0000 L 9312.0000,6400.0000 L 9312.0000,0.0000 L 0.0000,0.0000 Z" stroke-width="1px" stroke="#FFFFFF"  fill="#FFFFFF" />
</g>
<g transform="matrix(1.0000 0.0000 0.0000 1.0000 0.0000 0.0000)">
<path d="M 66.0000,60.0000 L 66.0000,342.0000 L 547.0000,342.0000 L 547.0000,60.0000 L 66.0000,60.0000 Z" stroke-width="1px" stroke="#FFFFFF"  fill="#FFFFFF" />
</g>
<g transform="matrix(0.0625 0.0000 0.0000 0.0625 0.0000 0.0000)">
<path d="M 7240.0000,1961.0000 L 7240.0000,2427.0000 L 7689.0000,2427.0000 L 7689.0000,1961.0000 L 7240.0000,1961.0000 Z" stroke-width="1px" stroke="#FFFFFF"  fill="#FFFFFF" />
</g>
<g transform="matrix(1.0000 0.0000 0.0000 1.0000 0.0000 0.0000)">
<text font-family="Arial" fill="#000000" style ="white-space:pre;" font-weight="400" text-anchor="start" x="454.0000" y="134.0000" font-size="12.0000" ><![CDATA[dotp]]></text>
<text font-family="Arial" fill="#000000" style ="white-space:pre;" font-weight="400" text-anchor="start" x="454.0000" y="148.0000" font-size="12.0000" ><![CDATA[0.98]]></text>
</g>
<g transform="matrix(0.0625 0.0000 0.0000 0.0625 0.0000 0.0000)">
<path d="M 4677.0000,990.0000 L 4677.0000,1456.0000 L 5126.0000,1456.0000 L 5126.0000,990.0000 L 4677.0000,990.0000 Z" stroke-width="1px" stroke="#FFFFFF"  fill="#FFFFFF" />
</g>
<g transform="matrix(1.0000 0.0000 0.0000 1.0000 0.0000 0.0000)">
<text font-family="Arial" fill="#000000" style ="white-space:pre;" font-weight="400" text-anchor="start" x="294.0000" y="73.0000" font-size="12.0000" ><![CDATA[dotp]]></text>
<text font-family="Arial" fill="#000000" style ="white-space:pre;" font-weight="400" text-anchor="start" x="294.0000" y="87.0000" font-size="12.0000" ><![CDATA[0.99]]></text>
</g>
<g transform="matrix(0.0625 0.0000 0.0000 0.0625 0.0000 0.0000)">
<path d="M 1057.0000,5361.0000 L 1017.0000,5361.0000 " stroke="#000000" stroke-width="16.0000"  stroke-linecap="butt"  stroke-linejoin="miter"  stroke-miterlimit="10.0000" fill="none" />
</g>
<g transform="matrix(1.0000 0.0000 0.0000 1.0000 0.0000 0.0000)">
</g>
<g transform="matrix(0.0625 0.0000 0.0000 0.0625 0.0000 0.0000)">
<path d="M 1057.0000,5361.0000 L 1097.0000,5361.0000 " stroke="#000000" stroke-width="16.0000"  stroke-linecap="butt"  stroke-linejoin="miter"  stroke-miterlimit="10.0000" fill="none" />
</g>
<g transform="matrix(1.0000 0.0000 0.0000 1.0000 0.0000 0.0000)">
</g>
<g transform="matrix(0.0625 0.0000 0.0000 0.0625 0.0000 0.0000)">
<path d="M 1057.0000,5248.0000 L 1017.0000,5248.0000 " stroke="#000000" stroke-width="16.0000"  stroke-linecap="butt"  stroke-linejoin="miter"  stroke-miterlimit="10.0000" fill="none" />
</g>
<g transform="matrix(1.0000 0.0000 0.0000 1.0000 0.0000 0.0000)">
</g>
<g transform="matrix(0.0625 0.0000 0.0000 0.0625 0.0000 0.0000)">
<path d="M 1057.0000,5248.0000 L 1097.0000,5248.0000 " stroke="#000000" stroke-width="16.0000"  stroke-linecap="butt"  stroke-linejoin="miter"  stroke-miterlimit="10.0000" fill="none" />
</g>
<g transform="matrix(1.0000 0.0000 0.0000 1.0000 0.0000 0.0000)">
</g>
<g transform="matrix(0.0625 0.0000 0.0000 0.0625 0.0000 0.0000)">
<path d="M 1057.0000,5135.0000 L 1017.0000,5135.0000 " stroke="#000000" stroke-width="16.0000"  stroke-linecap="butt"  stroke-linejoin="miter"  stroke-miterlimit="10.0000" fill="none" />
</g>
<g transform="matrix(1.0000 0.0000 0.0000 1.0000 0.0000 0.0000)">
</g>
<g transform="matrix(0.0625 0.0000 0.0000 0.0625 0.0000 0.0000)">
<path d="M 1057.0000,5135.0000 L 1097.0000,5135.0000 " stroke="#000000" stroke-width="16.0000"  stroke-linecap="butt"  stroke-linejoin="miter"  stroke-miterlimit="10.0000" fill="none" />
</g>
<g transform="matrix(1.0000 0.0000 0.0000 1.0000 0.0000 0.0000)">
</g>
<g transform="matrix(0.0625 0.0000 0.0000 0.0625 0.0000 0.0000)">
<path d="M 1057.0000,5023.0000 L 1017.0000,5023.0000 " stroke="#000000" stroke-width="16.0000"  stroke-linecap="butt"  stroke-linejoin="miter"  stroke-miterlimit="10.0000" fill="none" />
</g>
<g transform="matrix(1.0000 0.0000 0.0000 1.0000 0.0000 0.0000)">
</g>
<g transform="matrix(0.0625 0.0000 0.0000 0.0625 0.0000 0.0000)">
<path d="M 1057.0000,5023.0000 L 1097.0000,5023.0000 " stroke="#000000" stroke-width="16.0000"  stroke-linecap="butt"  stroke-linejoin="miter"  stroke-miterlimit="10.0000" fill="none" />
</g>
<g transform="matrix(1.0000 0.0000 0.0000 1.0000 0.0000 0.0000)">
</g>
<g transform="matrix(0.0625 0.0000 0.0000 0.0625 0.0000 0.0000)">
<path d="M 1057.0000,4797.0000 L 1017.0000,4797.0000 " stroke="#000000" stroke-width="16.0000"  stroke-linecap="butt"  stroke-linejoin="miter"  stroke-miterlimit="10.0000" fill="none" />
</g>
<g transform="matrix(1.0000 0.0000 0.0000 1.0000 0.0000 0.0000)">
</g>
<g transform="matrix(0.0625 0.0000 0.0000 0.0625 0.0000 0.0000)">
<path d="M 1057.0000,4797.0000 L 1097.0000,4797.0000 " stroke="#000000" stroke-width="16.0000"  stroke-linecap="butt"  stroke-linejoin="miter"  stroke-miterlimit="10.0000" fill="none" />
</g>
<g transform="matrix(1.0000 0.0000 0.0000 1.0000 0.0000 0.0000)">
</g>
<g transform="matrix(0.0625 0.0000 0.0000 0.0625 0.0000 0.0000)">
<path d="M 1057.0000,4685.0000 L 1017.0000,4685.0000 " stroke="#000000" stroke-width="16.0000"  stroke-linecap="butt"  stroke-linejoin="miter"  stroke-miterlimit="10.0000" fill="none" />
</g>
<g transform="matrix(1.0000 0.0000 0.0000 1.0000 0.0000 0.0000)">
</g>
<g transform="matrix(0.0625 0.0000 0.0000 0.0625 0.0000 0.0000)">
<path d="M 1057.0000,4685.0000 L 1097.0000,4685.0000 " stroke="#000000" stroke-width="16.0000"  stroke-linecap="butt"  stroke-linejoin="miter"  stroke-miterlimit="10.0000" fill="none" />
</g>
<g transform="matrix(1.0000 0.0000 0.0000 1.0000 0.0000 0.0000)">
</g>
<g transform="matrix(0.0625 0.0000 0.0000 0.0625 0.0000 0.0000)">
<path d="M 1057.0000,4572.0000 L 1017.0000,4572.0000 " stroke="#000000" stroke-width="16.0000"  stroke-linecap="butt"  stroke-linejoin="miter"  stroke-miterlimit="10.0000" fill="none" />
</g>
<g transform="matrix(1.0000 0.0000 0.0000 1.0000 0.0000 0.0000)">
</g>
<g transform="matrix(0.0625 0.0000 0.0000 0.0625 0.0000 0.0000)">
<path d="M 1057.0000,4572.0000 L 1097.0000,4572.0000 " stroke="#000000" stroke-width="16.0000"  stroke-linecap="butt"  stroke-linejoin="miter"  stroke-miterlimit="10.0000" fill="none" />
</g>
<g transform="matrix(1.0000 0.0000 0.0000 1.0000 0.0000 0.0000)">
</g>
<g transform="matrix(0.0625 0.0000 0.0000 0.0625 0.0000 0.0000)">
<path d="M 1057.0000,4460.0000 L 1017.0000,4460.0000 " stroke="#000000" stroke-width="16.0000"  stroke-linecap="butt"  stroke-linejoin="miter"  stroke-miterlimit="10.0000" fill="none" />
</g>
<g transform="matrix(1.0000 0.0000 0.0000 1.0000 0.0000 0.0000)">
</g>
<g transform="matrix(0.0625 0.0000 0.0000 0.0625 0.0000 0.0000)">
<path d="M 1057.0000,4460.0000 L 1097.0000,4460.0000 " stroke="#000000" stroke-width="16.0000"  stroke-linecap="butt"  stroke-linejoin="miter"  stroke-miterlimit="10.0000" fill="none" />
</g>
<g transform="matrix(1.0000 0.0000 0.0000 1.0000 0.0000 0.0000)">
</g>
<g transform="matrix(0.0625 0.0000 0.0000 0.0625 0.0000 0.0000)">
<path d="M 1057.0000,4234.0000 L 1017.0000,4234.0000 " stroke="#000000" stroke-width="16.0000"  stroke-linecap="butt"  stroke-linejoin="miter"  stroke-miterlimit="10.0000" fill="none" />
</g>
<g transform="matrix(1.0000 0.0000 0.0000 1.0000 0.0000 0.0000)">
</g>
<g transform="matrix(0.0625 0.0000 0.0000 0.0625 0.0000 0.0000)">
<path d="M 1057.0000,4234.0000 L 1097.0000,4234.0000 " stroke="#000000" stroke-width="16.0000"  stroke-linecap="butt"  stroke-linejoin="miter"  stroke-miterlimit="10.0000" fill="none" />
</g>
<g transform="matrix(1.0000 0.0000 0.0000 1.0000 0.0000 0.0000)">
</g>
<g transform="matrix(0.0625 0.0000 0.0000 0.0625 0.0000 0.0000)">
<path d="M 1057.0000,4122.0000 L 1017.0000,4122.0000 " stroke="#000000" stroke-width="16.0000"  stroke-linecap="butt"  stroke-linejoin="miter"  stroke-miterlimit="10.0000" fill="none" />
</g>
<g transform="matrix(1.0000 0.0000 0.0000 1.0000 0.0000 0.0000)">
</g>
<g transform="matrix(0.0625 0.0000 0.0000 0.0625 0.0000 0.0000)">
<path d="M 1057.0000,4122.0000 L 1097.0000,4122.0000 " stroke="#000000" stroke-width="16.0000"  stroke-linecap="butt"  stroke-linejoin="miter"  stroke-miterlimit="10.0000" fill="none" />
</g>
<g transform="matrix(1.0000 0.0000 0.0000 1.0000 0.0000 0.0000)">
</g>
<g transform="matrix(0.0625 0.0000 0.0000 0.0625 0.0000 0.0000)">
<path d="M 1057.0000,4009.0000 L 1017.0000,4009.0000 " stroke="#000000" stroke-width="16.0000"  stroke-linecap="butt"  stroke-linejoin="miter"  stroke-miterlimit="10.0000" fill="none" />
</g>
<g transform="matrix(1.0000 0.0000 0.0000 1.0000 0.0000 0.0000)">
</g>
<g transform="matrix(0.0625 0.0000 0.0000 0.0625 0.0000 0.0000)">
<path d="M 1057.0000,4009.0000 L 1097.0000,4009.0000 " stroke="#000000" stroke-width="16.0000"  stroke-linecap="butt"  stroke-linejoin="miter"  stroke-miterlimit="10.0000" fill="none" />
</g>
<g transform="matrix(1.0000 0.0000 0.0000 1.0000 0.0000 0.0000)">
</g>
<g transform="matrix(0.0625 0.0000 0.0000 0.0625 0.0000 0.0000)">
<path d="M 1057.0000,3897.0000 L 1017.0000,3897.0000 " stroke="#000000" stroke-width="16.0000"  stroke-linecap="butt"  stroke-linejoin="miter"  stroke-miterlimit="10.0000" fill="none" />
</g>
<g transform="matrix(1.0000 0.0000 0.0000 1.0000 0.0000 0.0000)">
</g>
<g transform="matrix(0.0625 0.0000 0.0000 0.0625 0.0000 0.0000)">
<path d="M 1057.0000,3897.0000 L 1097.0000,3897.0000 " stroke="#000000" stroke-width="16.0000"  stroke-linecap="butt"  stroke-linejoin="miter"  stroke-miterlimit="10.0000" fill="none" />
</g>
<g transform="matrix(1.0000 0.0000 0.0000 1.0000 0.0000 0.0000)">
</g>
<g transform="matrix(0.0625 0.0000 0.0000 0.0625 0.0000 0.0000)">
<path d="M 1057.0000,3671.0000 L 1017.0000,3671.0000 " stroke="#000000" stroke-width="16.0000"  stroke-linecap="butt"  stroke-linejoin="miter"  stroke-miterlimit="10.0000" fill="none" />
</g>
<g transform="matrix(1.0000 0.0000 0.0000 1.0000 0.0000 0.0000)">
</g>
<g transform="matrix(0.0625 0.0000 0.0000 0.0625 0.0000 0.0000)">
<path d="M 1057.0000,3671.0000 L 1097.0000,3671.0000 " stroke="#000000" stroke-width="16.0000"  stroke-linecap="butt"  stroke-linejoin="miter"  stroke-miterlimit="10.0000" fill="none" />
</g>
<g transform="matrix(1.0000 0.0000 0.0000 1.0000 0.0000 0.0000)">
</g>
<g transform="matrix(0.0625 0.0000 0.0000 0.0625 0.0000 0.0000)">
<path d="M 1057.0000,3559.0000 L 1017.0000,3559.0000 " stroke="#000000" stroke-width="16.0000"  stroke-linecap="butt"  stroke-linejoin="miter"  stroke-miterlimit="10.0000" fill="none" />
</g>
<g transform="matrix(1.0000 0.0000 0.0000 1.0000 0.0000 0.0000)">
</g>
<g transform="matrix(0.0625 0.0000 0.0000 0.0625 0.0000 0.0000)">
<path d="M 1057.0000,3559.0000 L 1097.0000,3559.0000 " stroke="#000000" stroke-width="16.0000"  stroke-linecap="butt"  stroke-linejoin="miter"  stroke-miterlimit="10.0000" fill="none" />
</g>
<g transform="matrix(1.0000 0.0000 0.0000 1.0000 0.0000 0.0000)">
</g>
<g transform="matrix(0.0625 0.0000 0.0000 0.0625 0.0000 0.0000)">
<path d="M 1057.0000,3446.0000 L 1017.0000,3446.0000 " stroke="#000000" stroke-width="16.0000"  stroke-linecap="butt"  stroke-linejoin="miter"  stroke-miterlimit="10.0000" fill="none" />
</g>
<g transform="matrix(1.0000 0.0000 0.0000 1.0000 0.0000 0.0000)">
</g>
<g transform="matrix(0.0625 0.0000 0.0000 0.0625 0.0000 0.0000)">
<path d="M 1057.0000,3446.0000 L 1097.0000,3446.0000 " stroke="#000000" stroke-width="16.0000"  stroke-linecap="butt"  stroke-linejoin="miter"  stroke-miterlimit="10.0000" fill="none" />
</g>
<g transform="matrix(1.0000 0.0000 0.0000 1.0000 0.0000 0.0000)">
</g>
<g transform="matrix(0.0625 0.0000 0.0000 0.0625 0.0000 0.0000)">
<path d="M 1057.0000,3333.0000 L 1017.0000,3333.0000 " stroke="#000000" stroke-width="16.0000"  stroke-linecap="butt"  stroke-linejoin="miter"  stroke-miterlimit="10.0000" fill="none" />
</g>
<g transform="matrix(1.0000 0.0000 0.0000 1.0000 0.0000 0.0000)">
</g>
<g transform="matrix(0.0625 0.0000 0.0000 0.0625 0.0000 0.0000)">
<path d="M 1057.0000,3333.0000 L 1097.0000,3333.0000 " stroke="#000000" stroke-width="16.0000"  stroke-linecap="butt"  stroke-linejoin="miter"  stroke-miterlimit="10.0000" fill="none" />
</g>
<g transform="matrix(1.0000 0.0000 0.0000 1.0000 0.0000 0.0000)">
</g>
<g transform="matrix(0.0625 0.0000 0.0000 0.0625 0.0000 0.0000)">
<path d="M 1057.0000,3108.0000 L 1017.0000,3108.0000 " stroke="#000000" stroke-width="16.0000"  stroke-linecap="butt"  stroke-linejoin="miter"  stroke-miterlimit="10.0000" fill="none" />
</g>
<g transform="matrix(1.0000 0.0000 0.0000 1.0000 0.0000 0.0000)">
</g>
<g transform="matrix(0.0625 0.0000 0.0000 0.0625 0.0000 0.0000)">
<path d="M 1057.0000,3108.0000 L 1097.0000,3108.0000 " stroke="#000000" stroke-width="16.0000"  stroke-linecap="butt"  stroke-linejoin="miter"  stroke-miterlimit="10.0000" fill="none" />
</g>
<g transform="matrix(1.0000 0.0000 0.0000 1.0000 0.0000 0.0000)">
</g>
<g transform="matrix(0.0625 0.0000 0.0000 0.0625 0.0000 0.0000)">
<path d="M 1057.0000,2996.0000 L 1017.0000,2996.0000 " stroke="#000000" stroke-width="16.0000"  stroke-linecap="butt"  stroke-linejoin="miter"  stroke-miterlimit="10.0000" fill="none" />
</g>
<g transform="matrix(1.0000 0.0000 0.0000 1.0000 0.0000 0.0000)">
</g>
<g transform="matrix(0.0625 0.0000 0.0000 0.0625 0.0000 0.0000)">
<path d="M 1057.0000,2996.0000 L 1097.0000,2996.0000 " stroke="#000000" stroke-width="16.0000"  stroke-linecap="butt"  stroke-linejoin="miter"  stroke-miterlimit="10.0000" fill="none" />
</g>
<g transform="matrix(1.0000 0.0000 0.0000 1.0000 0.0000 0.0000)">
</g>
<g transform="matrix(0.0625 0.0000 0.0000 0.0625 0.0000 0.0000)">
<path d="M 1057.0000,2883.0000 L 1017.0000,2883.0000 " stroke="#000000" stroke-width="16.0000"  stroke-linecap="butt"  stroke-linejoin="miter"  stroke-miterlimit="10.0000" fill="none" />
</g>
<g transform="matrix(1.0000 0.0000 0.0000 1.0000 0.0000 0.0000)">
</g>
<g transform="matrix(0.0625 0.0000 0.0000 0.0625 0.0000 0.0000)">
<path d="M 1057.0000,2883.0000 L 1097.0000,2883.0000 " stroke="#000000" stroke-width="16.0000"  stroke-linecap="butt"  stroke-linejoin="miter"  stroke-miterlimit="10.0000" fill="none" />
</g>
<g transform="matrix(1.0000 0.0000 0.0000 1.0000 0.0000 0.0000)">
</g>
<g transform="matrix(0.0625 0.0000 0.0000 0.0625 0.0000 0.0000)">
<path d="M 1057.0000,2770.0000 L 1017.0000,2770.0000 " stroke="#000000" stroke-width="16.0000"  stroke-linecap="butt"  stroke-linejoin="miter"  stroke-miterlimit="10.0000" fill="none" />
</g>
<g transform="matrix(1.0000 0.0000 0.0000 1.0000 0.0000 0.0000)">
</g>
<g transform="matrix(0.0625 0.0000 0.0000 0.0625 0.0000 0.0000)">
<path d="M 1057.0000,2770.0000 L 1097.0000,2770.0000 " stroke="#000000" stroke-width="16.0000"  stroke-linecap="butt"  stroke-linejoin="miter"  stroke-miterlimit="10.0000" fill="none" />
</g>
<g transform="matrix(1.0000 0.0000 0.0000 1.0000 0.0000 0.0000)">
</g>
<g transform="matrix(0.0625 0.0000 0.0000 0.0625 0.0000 0.0000)">
<path d="M 1057.0000,2545.0000 L 1017.0000,2545.0000 " stroke="#000000" stroke-width="16.0000"  stroke-linecap="butt"  stroke-linejoin="miter"  stroke-miterlimit="10.0000" fill="none" />
</g>
<g transform="matrix(1.0000 0.0000 0.0000 1.0000 0.0000 0.0000)">
</g>
<g transform="matrix(0.0625 0.0000 0.0000 0.0625 0.0000 0.0000)">
<path d="M 1057.0000,2545.0000 L 1097.0000,2545.0000 " stroke="#000000" stroke-width="16.0000"  stroke-linecap="butt"  stroke-linejoin="miter"  stroke-miterlimit="10.0000" fill="none" />
</g>
<g transform="matrix(1.0000 0.0000 0.0000 1.0000 0.0000 0.0000)">
</g>
<g transform="matrix(0.0625 0.0000 0.0000 0.0625 0.0000 0.0000)">
<path d="M 1057.0000,2432.0000 L 1017.0000,2432.0000 " stroke="#000000" stroke-width="16.0000"  stroke-linecap="butt"  stroke-linejoin="miter"  stroke-miterlimit="10.0000" fill="none" />
</g>
<g transform="matrix(1.0000 0.0000 0.0000 1.0000 0.0000 0.0000)">
</g>
<g transform="matrix(0.0625 0.0000 0.0000 0.0625 0.0000 0.0000)">
<path d="M 1057.0000,2432.0000 L 1097.0000,2432.0000 " stroke="#000000" stroke-width="16.0000"  stroke-linecap="butt"  stroke-linejoin="miter"  stroke-miterlimit="10.0000" fill="none" />
</g>
<g transform="matrix(1.0000 0.0000 0.0000 1.0000 0.0000 0.0000)">
</g>
<g transform="matrix(0.0625 0.0000 0.0000 0.0625 0.0000 0.0000)">
<path d="M 1057.0000,2320.0000 L 1017.0000,2320.0000 " stroke="#000000" stroke-width="16.0000"  stroke-linecap="butt"  stroke-linejoin="miter"  stroke-miterlimit="10.0000" fill="none" />
</g>
<g transform="matrix(1.0000 0.0000 0.0000 1.0000 0.0000 0.0000)">
</g>
<g transform="matrix(0.0625 0.0000 0.0000 0.0625 0.0000 0.0000)">
<path d="M 1057.0000,2320.0000 L 1097.0000,2320.0000 " stroke="#000000" stroke-width="16.0000"  stroke-linecap="butt"  stroke-linejoin="miter"  stroke-miterlimit="10.0000" fill="none" />
</g>
<g transform="matrix(1.0000 0.0000 0.0000 1.0000 0.0000 0.0000)">
</g>
<g transform="matrix(0.0625 0.0000 0.0000 0.0625 0.0000 0.0000)">
<path d="M 1057.0000,2207.0000 L 1017.0000,2207.0000 " stroke="#000000" stroke-width="16.0000"  stroke-linecap="butt"  stroke-linejoin="miter"  stroke-miterlimit="10.0000" fill="none" />
</g>
<g transform="matrix(1.0000 0.0000 0.0000 1.0000 0.0000 0.0000)">
</g>
<g transform="matrix(0.0625 0.0000 0.0000 0.0625 0.0000 0.0000)">
<path d="M 1057.0000,2207.0000 L 1097.0000,2207.0000 " stroke="#000000" stroke-width="16.0000"  stroke-linecap="butt"  stroke-linejoin="miter"  stroke-miterlimit="10.0000" fill="none" />
</g>
<g transform="matrix(1.0000 0.0000 0.0000 1.0000 0.0000 0.0000)">
</g>
<g transform="matrix(0.0625 0.0000 0.0000 0.0625 0.0000 0.0000)">
<path d="M 1057.0000,1982.0000 L 1017.0000,1982.0000 " stroke="#000000" stroke-width="16.0000"  stroke-linecap="butt"  stroke-linejoin="miter"  stroke-miterlimit="10.0000" fill="none" />
</g>
<g transform="matrix(1.0000 0.0000 0.0000 1.0000 0.0000 0.0000)">
</g>
<g transform="matrix(0.0625 0.0000 0.0000 0.0625 0.0000 0.0000)">
<path d="M 1057.0000,1982.0000 L 1097.0000,1982.0000 " stroke="#000000" stroke-width="16.0000"  stroke-linecap="butt"  stroke-linejoin="miter"  stroke-miterlimit="10.0000" fill="none" />
</g>
<g transform="matrix(1.0000 0.0000 0.0000 1.0000 0.0000 0.0000)">
</g>
<g transform="matrix(0.0625 0.0000 0.0000 0.0625 0.0000 0.0000)">
<path d="M 1057.0000,1869.0000 L 1017.0000,1869.0000 " stroke="#000000" stroke-width="16.0000"  stroke-linecap="butt"  stroke-linejoin="miter"  stroke-miterlimit="10.0000" fill="none" />
</g>
<g transform="matrix(1.0000 0.0000 0.0000 1.0000 0.0000 0.0000)">
</g>
<g transform="matrix(0.0625 0.0000 0.0000 0.0625 0.0000 0.0000)">
<path d="M 1057.0000,1869.0000 L 1097.0000,1869.0000 " stroke="#000000" stroke-width="16.0000"  stroke-linecap="butt"  stroke-linejoin="miter"  stroke-miterlimit="10.0000" fill="none" />
</g>
<g transform="matrix(1.0000 0.0000 0.0000 1.0000 0.0000 0.0000)">
</g>
<g transform="matrix(0.0625 0.0000 0.0000 0.0625 0.0000 0.0000)">
<path d="M 1057.0000,1757.0000 L 1017.0000,1757.0000 " stroke="#000000" stroke-width="16.0000"  stroke-linecap="butt"  stroke-linejoin="miter"  stroke-miterlimit="10.0000" fill="none" />
</g>
<g transform="matrix(1.0000 0.0000 0.0000 1.0000 0.0000 0.0000)">
</g>
<g transform="matrix(0.0625 0.0000 0.0000 0.0625 0.0000 0.0000)">
<path d="M 1057.0000,1757.0000 L 1097.0000,1757.0000 " stroke="#000000" stroke-width="16.0000"  stroke-linecap="butt"  stroke-linejoin="miter"  stroke-miterlimit="10.0000" fill="none" />
</g>
<g transform="matrix(1.0000 0.0000 0.0000 1.0000 0.0000 0.0000)">
</g>
<g transform="matrix(0.0625 0.0000 0.0000 0.0625 0.0000 0.0000)">
<path d="M 1057.0000,1644.0000 L 1017.0000,1644.0000 " stroke="#000000" stroke-width="16.0000"  stroke-linecap="butt"  stroke-linejoin="miter"  stroke-miterlimit="10.0000" fill="none" />
</g>
<g transform="matrix(1.0000 0.0000 0.0000 1.0000 0.0000 0.0000)">
</g>
<g transform="matrix(0.0625 0.0000 0.0000 0.0625 0.0000 0.0000)">
<path d="M 1057.0000,1644.0000 L 1097.0000,1644.0000 " stroke="#000000" stroke-width="16.0000"  stroke-linecap="butt"  stroke-linejoin="miter"  stroke-miterlimit="10.0000" fill="none" />
</g>
<g transform="matrix(1.0000 0.0000 0.0000 1.0000 0.0000 0.0000)">
</g>
<g transform="matrix(0.0625 0.0000 0.0000 0.0625 0.0000 0.0000)">
<path d="M 1057.0000,1419.0000 L 1017.0000,1419.0000 " stroke="#000000" stroke-width="16.0000"  stroke-linecap="butt"  stroke-linejoin="miter"  stroke-miterlimit="10.0000" fill="none" />
</g>
<g transform="matrix(1.0000 0.0000 0.0000 1.0000 0.0000 0.0000)">
</g>
<g transform="matrix(0.0625 0.0000 0.0000 0.0625 0.0000 0.0000)">
<path d="M 1057.0000,1419.0000 L 1097.0000,1419.0000 " stroke="#000000" stroke-width="16.0000"  stroke-linecap="butt"  stroke-linejoin="miter"  stroke-miterlimit="10.0000" fill="none" />
</g>
<g transform="matrix(1.0000 0.0000 0.0000 1.0000 0.0000 0.0000)">
</g>
<g transform="matrix(0.0625 0.0000 0.0000 0.0625 0.0000 0.0000)">
<path d="M 1057.0000,1306.0000 L 1017.0000,1306.0000 " stroke="#000000" stroke-width="16.0000"  stroke-linecap="butt"  stroke-linejoin="miter"  stroke-miterlimit="10.0000" fill="none" />
</g>
<g transform="matrix(1.0000 0.0000 0.0000 1.0000 0.0000 0.0000)">
</g>
<g transform="matrix(0.0625 0.0000 0.0000 0.0625 0.0000 0.0000)">
<path d="M 1057.0000,1306.0000 L 1097.0000,1306.0000 " stroke="#000000" stroke-width="16.0000"  stroke-linecap="butt"  stroke-linejoin="miter"  stroke-miterlimit="10.0000" fill="none" />
</g>
<g transform="matrix(1.0000 0.0000 0.0000 1.0000 0.0000 0.0000)">
</g>
<g transform="matrix(0.0625 0.0000 0.0000 0.0625 0.0000 0.0000)">
<path d="M 1057.0000,1194.0000 L 1017.0000,1194.0000 " stroke="#000000" stroke-width="16.0000"  stroke-linecap="butt"  stroke-linejoin="miter"  stroke-miterlimit="10.0000" fill="none" />
</g>
<g transform="matrix(1.0000 0.0000 0.0000 1.0000 0.0000 0.0000)">
</g>
<g transform="matrix(0.0625 0.0000 0.0000 0.0625 0.0000 0.0000)">
<path d="M 1057.0000,1194.0000 L 1097.0000,1194.0000 " stroke="#000000" stroke-width="16.0000"  stroke-linecap="butt"  stroke-linejoin="miter"  stroke-miterlimit="10.0000" fill="none" />
</g>
<g transform="matrix(1.0000 0.0000 0.0000 1.0000 0.0000 0.0000)">
</g>
<g transform="matrix(0.0625 0.0000 0.0000 0.0625 0.0000 0.0000)">
<path d="M 1057.0000,1081.0000 L 1017.0000,1081.0000 " stroke="#000000" stroke-width="16.0000"  stroke-linecap="butt"  stroke-linejoin="miter"  stroke-miterlimit="10.0000" fill="none" />
</g>
<g transform="matrix(1.0000 0.0000 0.0000 1.0000 0.0000 0.0000)">
</g>
<g transform="matrix(0.0625 0.0000 0.0000 0.0625 0.0000 0.0000)">
<path d="M 1057.0000,1081.0000 L 1097.0000,1081.0000 " stroke="#000000" stroke-width="16.0000"  stroke-linecap="butt"  stroke-linejoin="miter"  stroke-miterlimit="10.0000" fill="none" />
</g>
<g transform="matrix(1.0000 0.0000 0.0000 1.0000 0.0000 0.0000)">
</g>
<g transform="matrix(0.0625 0.0000 0.0000 0.0625 0.0000 0.0000)">
<path d="M 1698.0000,1456.0000 L 1698.0000,1570.0000 L 2979.0000,1570.0000 L 2979.0000,1456.0000 L 1698.0000,1456.0000 Z" stroke-width="1px" stroke="#FFA500"  fill="#FFA500" />
</g>
<g transform="matrix(1.0000 0.0000 0.0000 1.0000 0.0000 0.0000)">
</g>
<g transform="matrix(0.0625 0.0000 0.0000 0.0625 0.0000 0.0000)">
<path d="M 4261.0000,1456.0000 L 4261.0000,1575.0000 L 5542.0000,1575.0000 L 5542.0000,1456.0000 L 4261.0000,1456.0000 Z" stroke-width="1px" stroke="#FFA500"  fill="#FFA500" />
</g>
<g transform="matrix(1.0000 0.0000 0.0000 1.0000 0.0000 0.0000)">
</g>
<g transform="matrix(0.0625 0.0000 0.0000 0.0625 0.0000 0.0000)">
<path d="M 6824.0000,2427.0000 L 6824.0000,2513.0000 L 8105.0000,2513.0000 L 8105.0000,2427.0000 L 6824.0000,2427.0000 Z" stroke-width="1px" stroke="#FFA500"  fill="#FFA500" />
</g>
<g transform="matrix(1.0000 0.0000 0.0000 1.0000 0.0000 0.0000)">
</g>
<g transform="matrix(0.0625 0.0000 0.0000 0.0625 0.0000 0.0000)">
<path d="M 1698.0000,1570.0000 L 1698.0000,2309.0000 L 2979.0000,2309.0000 L 2979.0000,1570.0000 L 1698.0000,1570.0000 Z" stroke-width="1px" stroke="#008000"  fill="#008000" />
</g>
<g transform="matrix(1.0000 0.0000 0.0000 1.0000 0.0000 0.0000)">
</g>
<g transform="matrix(0.0625 0.0000 0.0000 0.0625 0.0000 0.0000)">
<path d="M 4261.0000,1575.0000 L 4261.0000,2276.0000 L 5542.0000,2276.0000 L 5542.0000,1575.0000 L 4261.0000,1575.0000 Z" stroke-width="1px" stroke="#008000"  fill="#008000" />
</g>
<g transform="matrix(1.0000 0.0000 0.0000 1.0000 0.0000 0.0000)">
</g>
<g transform="matrix(0.0625 0.0000 0.0000 0.0625 0.0000 0.0000)">
<path d="M 6824.0000,2513.0000 L 6824.0000,3019.0000 L 8105.0000,3019.0000 L 8105.0000,2513.0000 L 6824.0000,2513.0000 Z" stroke-width="1px" stroke="#008000"  fill="#008000" />
</g>
<g transform="matrix(1.0000 0.0000 0.0000 1.0000 0.0000 0.0000)">
</g>
<g transform="matrix(0.0625 0.0000 0.0000 0.0625 0.0000 0.0000)">
<path d="M 1698.0000,2309.0000 L 1698.0000,2827.0000 L 2979.0000,2827.0000 L 2979.0000,2309.0000 L 1698.0000,2309.0000 Z" stroke-width="1px" stroke="#008B8B"  fill="#008B8B" />
</g>
<g transform="matrix(1.0000 0.0000 0.0000 1.0000 0.0000 0.0000)">
</g>
<g transform="matrix(0.0625 0.0000 0.0000 0.0625 0.0000 0.0000)">
<path d="M 4261.0000,2276.0000 L 4261.0000,2809.0000 L 5542.0000,2809.0000 L 5542.0000,2276.0000 L 4261.0000,2276.0000 Z" stroke-width="1px" stroke="#008B8B"  fill="#008B8B" />
</g>
<g transform="matrix(1.0000 0.0000 0.0000 1.0000 0.0000 0.0000)">
</g>
<g transform="matrix(0.0625 0.0000 0.0000 0.0625 0.0000 0.0000)">
<path d="M 6824.0000,3019.0000 L 6824.0000,3423.0000 L 8105.0000,3423.0000 L 8105.0000,3019.0000 L 6824.0000,3019.0000 Z" stroke-width="1px" stroke="#008B8B"  fill="#008B8B" />
</g>
<g transform="matrix(1.0000 0.0000 0.0000 1.0000 0.0000 0.0000)">
</g>
<g transform="matrix(0.0625 0.0000 0.0000 0.0625 0.0000 0.0000)">
<path d="M 1698.0000,2827.0000 L 1698.0000,3132.0000 L 2979.0000,3132.0000 L 2979.0000,2827.0000 L 1698.0000,2827.0000 Z" stroke-width="1px" stroke="#D2691E"  fill="#D2691E" />
</g>
<g transform="matrix(1.0000 0.0000 0.0000 1.0000 0.0000 0.0000)">
</g>
<g transform="matrix(0.0625 0.0000 0.0000 0.0625 0.0000 0.0000)">
<path d="M 4261.0000,2809.0000 L 4261.0000,3097.0000 L 5542.0000,3097.0000 L 5542.0000,2809.0000 L 4261.0000,2809.0000 Z" stroke-width="1px" stroke="#D2691E"  fill="#D2691E" />
</g>
<g transform="matrix(1.0000 0.0000 0.0000 1.0000 0.0000 0.0000)">
</g>
<g transform="matrix(0.0625 0.0000 0.0000 0.0625 0.0000 0.0000)">
<path d="M 6824.0000,3423.0000 L 6824.0000,3643.0000 L 8105.0000,3643.0000 L 8105.0000,3423.0000 L 6824.0000,3423.0000 Z" stroke-width="1px" stroke="#D2691E"  fill="#D2691E" />
</g>
<g transform="matrix(1.0000 0.0000 0.0000 1.0000 0.0000 0.0000)">
</g>
<g transform="matrix(0.0625 0.0000 0.0000 0.0625 0.0000 0.0000)">
<path d="M 1698.0000,3132.0000 L 1698.0000,5413.0000 L 2979.0000,5413.0000 L 2979.0000,3132.0000 L 1698.0000,3132.0000 Z" stroke-width="1px" stroke="#A52A2A"  fill="#A52A2A" />
</g>
<g transform="matrix(1.0000 0.0000 0.0000 1.0000 0.0000 0.0000)">
</g>
<g transform="matrix(0.0625 0.0000 0.0000 0.0625 0.0000 0.0000)">
<path d="M 4261.0000,3097.0000 L 4261.0000,5416.0000 L 5542.0000,5416.0000 L 5542.0000,3097.0000 L 4261.0000,3097.0000 Z" stroke-width="1px" stroke="#A52A2A"  fill="#A52A2A" />
</g>
<g transform="matrix(1.0000 0.0000 0.0000 1.0000 0.0000 0.0000)">
</g>
<g transform="matrix(0.0625 0.0000 0.0000 0.0625 0.0000 0.0000)">
<path d="M 6824.0000,3643.0000 L 6824.0000,5431.0000 L 8105.0000,5431.0000 L 8105.0000,3643.0000 L 6824.0000,3643.0000 Z" stroke-width="1px" stroke="#A52A2A"  fill="#A52A2A" />
</g>
<g transform="matrix(1.0000 0.0000 0.0000 1.0000 0.0000 0.0000)">
</g>
<g transform="matrix(0.0625 0.0000 0.0000 0.0625 0.0000 0.0000)">
<path d="M 1698.0000,5413.0000 L 1698.0000,5473.0000 L 2979.0000,5473.0000 L 2979.0000,5413.0000 L 1698.0000,5413.0000 Z" stroke-width="1px" stroke="#8A2BE2"  fill="#8A2BE2" />
</g>
<g transform="matrix(1.0000 0.0000 0.0000 1.0000 0.0000 0.0000)">
</g>
<g transform="matrix(0.0625 0.0000 0.0000 0.0625 0.0000 0.0000)">
<path d="M 4261.0000,5416.0000 L 4261.0000,5473.0000 L 5542.0000,5473.0000 L 5542.0000,5416.0000 L 4261.0000,5416.0000 Z" stroke-width="1px" stroke="#8A2BE2"  fill="#8A2BE2" />
</g>
<g transform="matrix(1.0000 0.0000 0.0000 1.0000 0.0000 0.0000)">
</g>
<g transform="matrix(0.0625 0.0000 0.0000 0.0625 0.0000 0.0000)">
<path d="M 6824.0000,5431.0000 L 6824.0000,5473.0000 L 8105.0000,5473.0000 L 8105.0000,5431.0000 L 6824.0000,5431.0000 Z" stroke-width="1px" stroke="#8A2BE2"  fill="#8A2BE2" />
</g>
<g transform="matrix(1.0000 0.0000 0.0000 1.0000 0.0000 0.0000)">
</g>
<g transform="matrix(0.0625 0.0000 0.0000 0.0625 0.0000 0.0000)">
<path d="M 1057.0000,5473.0000 L 8746.0000,5473.0000 " stroke="#000000" stroke-width="16.0000"  stroke-linecap="butt"  stroke-linejoin="miter"  stroke-miterlimit="10.0000" fill="none" />
</g>
<g transform="matrix(1.0000 0.0000 0.0000 1.0000 0.0000 0.0000)">
</g>
<g transform="matrix(0.0625 0.0000 0.0000 0.0625 0.0000 0.0000)">
<path d="M 2339.0000,5473.0000 L 2339.0000,5553.0000 " stroke="#000000" stroke-width="16.0000"  stroke-linecap="butt"  stroke-linejoin="miter"  stroke-miterlimit="10.0000" fill="none" />
</g>
<g transform="matrix(1.0000 0.0000 0.0000 1.0000 0.0000 0.0000)">
</g>
<g transform="matrix(0.0625 0.0000 0.0000 0.0625 0.0000 0.0000)">
<path d="M 2339.0000,5473.0000 L 2339.0000,5393.0000 " stroke="#000000" stroke-width="16.0000"  stroke-linecap="butt"  stroke-linejoin="miter"  stroke-miterlimit="10.0000" fill="none" />
</g>
<g transform="matrix(1.0000 0.0000 0.0000 1.0000 0.0000 0.0000)">
<defs><clipPath id="clip-41"><path d="M 121.0000,352.0000 L 172.0000,352.0000 L 172.0000,367.0000 L 121.0000,367.0000 L 121.0000,352.0000 Z Z" /></clipPath></defs>
<text  clip-path="url(#clip-41)" font-family="MS UI Gothic" fill="#000000" style ="white-space:pre;" font-weight="400" text-anchor="start" x="124.0000" y="362.0000" font-size="13.0000" ><![CDATA[ライブラリ]]></text>
</g>
<g transform="matrix(0.0625 0.0000 0.0000 0.0625 0.0000 0.0000)">
<path d="M 4901.0000,5473.0000 L 4901.0000,5553.0000 " stroke="#000000" stroke-width="16.0000"  stroke-linecap="butt"  stroke-linejoin="miter"  stroke-miterlimit="10.0000" fill="none" />
</g>
<g transform="matrix(1.0000 0.0000 0.0000 1.0000 0.0000 0.0000)">
</g>
<g transform="matrix(0.0625 0.0000 0.0000 0.0625 0.0000 0.0000)">
<path d="M 4901.0000,5473.0000 L 4901.0000,5393.0000 " stroke="#000000" stroke-width="16.0000"  stroke-linecap="butt"  stroke-linejoin="miter"  stroke-miterlimit="10.0000" fill="none" />
</g>
<g transform="matrix(1.0000 0.0000 0.0000 1.0000 0.0000 0.0000)">
<text font-family="Arial" fill="#000000" style ="white-space:pre;" font-weight="400" text-anchor="start" x="287.0000" y="362.0000" font-size="12.0000" ><![CDATA[20fmol]]></text>
</g>
<g transform="matrix(0.0625 0.0000 0.0000 0.0625 0.0000 0.0000)">
<path d="M 7464.0000,5473.0000 L 7464.0000,5553.0000 " stroke="#000000" stroke-width="16.0000"  stroke-linecap="butt"  stroke-linejoin="miter"  stroke-miterlimit="10.0000" fill="none" />
</g>
<g transform="matrix(1.0000 0.0000 0.0000 1.0000 0.0000 0.0000)">
</g>
<g transform="matrix(0.0625 0.0000 0.0000 0.0625 0.0000 0.0000)">
<path d="M 7464.0000,5473.0000 L 7464.0000,5393.0000 " stroke="#000000" stroke-width="16.0000"  stroke-linecap="butt"  stroke-linejoin="miter"  stroke-miterlimit="10.0000" fill="none" />
</g>
<g transform="matrix(1.0000 0.0000 0.0000 1.0000 0.0000 0.0000)">
<text font-family="Arial" fill="#000000" style ="white-space:pre;" font-weight="400" text-anchor="start" x="447.0000" y="362.0000" font-size="12.0000" ><![CDATA[80fmol]]></text>
<defs><clipPath id="clip-18467"><path d="M 261.0000,372.0000 L 353.0000,372.0000 L 353.0000,390.0000 L 261.0000,390.0000 L 261.0000,372.0000 Z Z" /></clipPath></defs>
<text  clip-path="url(#clip-18467)" font-family="MS UI Gothic" fill="#000000" style ="white-space:pre;" font-weight="700" text-anchor="start" x="262.0000" y="385.0000" font-size="16.0000" ><![CDATA[繰]]></text>
<text font-family="MS UI Gothic" fill="#000000" style ="white-space:pre;" font-weight="700" text-anchor="start" x="279.0000" y="385.0000" font-size="16.0000" ><![CDATA[り]]></text>
<defs><clipPath id="clip-6334"><path d="M 261.0000,372.0000 L 353.0000,372.0000 L 353.0000,390.0000 L 261.0000,390.0000 L 261.0000,372.0000 Z Z" /></clipPath></defs>
<text  clip-path="url(#clip-6334)" font-family="MS UI Gothic" fill="#000000" style ="white-space:pre;" font-weight="700" text-anchor="start" x="289.0000" y="385.0000" font-size="16.0000" ><![CDATA[返]]></text>
<text font-family="MS UI Gothic" fill="#000000" style ="white-space:pre;" font-weight="700" text-anchor="start" x="305.0000" y="385.0000" font-size="16.0000" ><![CDATA[し]]></text>
<defs><clipPath id="clip-26500"><path d="M 261.0000,372.0000 L 353.0000,372.0000 L 353.0000,390.0000 L 261.0000,390.0000 L 261.0000,372.0000 Z Z" /></clipPath></defs>
<text  clip-path="url(#clip-26500)" font-family="MS UI Gothic" fill="#000000" style ="white-space:pre;" font-weight="700" text-anchor="start" x="317.0000" y="385.0000" font-size="16.0000" ><![CDATA[測定]]></text>
</g>
<g transform="matrix(0.0625 0.0000 0.0000 0.0625 0.0000 0.0000)">
<path d="M 1057.0000,968.0000 L 1057.0000,5473.0000 " stroke="#000000" stroke-width="16.0000"  stroke-linecap="butt"  stroke-linejoin="miter"  stroke-miterlimit="10.0000" fill="none" />
</g>
<g transform="matrix(1.0000 0.0000 0.0000 1.0000 0.0000 0.0000)">
</g>
<g transform="matrix(0.0625 0.0000 0.0000 0.0625 0.0000 0.0000)">
<path d="M 1057.0000,5473.0000 L 977.0000,5473.0000 " stroke="#000000" stroke-width="16.0000"  stroke-linecap="butt"  stroke-linejoin="miter"  stroke-miterlimit="10.0000" fill="none" />
</g>
<g transform="matrix(1.0000 0.0000 0.0000 1.0000 0.0000 0.0000)">
</g>
<g transform="matrix(0.0625 0.0000 0.0000 0.0625 0.0000 0.0000)">
<path d="M 1057.0000,5473.0000 L 1137.0000,5473.0000 " stroke="#000000" stroke-width="16.0000"  stroke-linecap="butt"  stroke-linejoin="miter"  stroke-miterlimit="10.0000" fill="none" />
</g>
<g transform="matrix(1.0000 0.0000 0.0000 1.0000 0.0000 0.0000)">
<text font-family="Arial" fill="#000000" style ="white-space:pre;" font-weight="400" text-anchor="start" x="41.0000" y="346.0000" font-size="15.0000" ><![CDATA[0]]></text>
</g>
<g transform="matrix(0.0625 0.0000 0.0000 0.0625 0.0000 0.0000)">
<path d="M 1057.0000,4910.0000 L 977.0000,4910.0000 " stroke="#000000" stroke-width="16.0000"  stroke-linecap="butt"  stroke-linejoin="miter"  stroke-miterlimit="10.0000" fill="none" />
</g>
<g transform="matrix(1.0000 0.0000 0.0000 1.0000 0.0000 0.0000)">
</g>
<g transform="matrix(0.0625 0.0000 0.0000 0.0625 0.0000 0.0000)">
<path d="M 1057.0000,4910.0000 L 1137.0000,4910.0000 " stroke="#000000" stroke-width="16.0000"  stroke-linecap="butt"  stroke-linejoin="miter"  stroke-miterlimit="10.0000" fill="none" />
</g>
<g transform="matrix(1.0000 0.0000 0.0000 1.0000 0.0000 0.0000)">
<text font-family="Arial" fill="#000000" style ="white-space:pre;" font-weight="400" text-anchor="start" x="37.0000" y="311.0000" font-size="15.0000" ><![CDATA[10]]></text>
</g>
<g transform="matrix(0.0625 0.0000 0.0000 0.0625 0.0000 0.0000)">
<path d="M 1057.0000,4347.0000 L 977.0000,4347.0000 " stroke="#000000" stroke-width="16.0000"  stroke-linecap="butt"  stroke-linejoin="miter"  stroke-miterlimit="10.0000" fill="none" />
</g>
<g transform="matrix(1.0000 0.0000 0.0000 1.0000 0.0000 0.0000)">
</g>
<g transform="matrix(0.0625 0.0000 0.0000 0.0625 0.0000 0.0000)">
<path d="M 1057.0000,4347.0000 L 1137.0000,4347.0000 " stroke="#000000" stroke-width="16.0000"  stroke-linecap="butt"  stroke-linejoin="miter"  stroke-miterlimit="10.0000" fill="none" />
</g>
<g transform="matrix(1.0000 0.0000 0.0000 1.0000 0.0000 0.0000)">
<text font-family="Arial" fill="#000000" style ="white-space:pre;" font-weight="400" text-anchor="start" x="37.0000" y="276.0000" font-size="15.0000" ><![CDATA[20]]></text>
</g>
<g transform="matrix(0.0625 0.0000 0.0000 0.0625 0.0000 0.0000)">
<path d="M 1057.0000,3784.0000 L 977.0000,3784.0000 " stroke="#000000" stroke-width="16.0000"  stroke-linecap="butt"  stroke-linejoin="miter"  stroke-miterlimit="10.0000" fill="none" />
</g>
<g transform="matrix(1.0000 0.0000 0.0000 1.0000 0.0000 0.0000)">
</g>
<g transform="matrix(0.0625 0.0000 0.0000 0.0625 0.0000 0.0000)">
<path d="M 1057.0000,3784.0000 L 1137.0000,3784.0000 " stroke="#000000" stroke-width="16.0000"  stroke-linecap="butt"  stroke-linejoin="miter"  stroke-miterlimit="10.0000" fill="none" />
</g>
<g transform="matrix(1.0000 0.0000 0.0000 1.0000 0.0000 0.0000)">
<text font-family="Arial" fill="#000000" style ="white-space:pre;" font-weight="400" text-anchor="start" x="37.0000" y="241.0000" font-size="15.0000" ><![CDATA[30]]></text>
</g>
<g transform="matrix(0.0625 0.0000 0.0000 0.0625 0.0000 0.0000)">
<path d="M 1057.0000,3221.0000 L 977.0000,3221.0000 " stroke="#000000" stroke-width="16.0000"  stroke-linecap="butt"  stroke-linejoin="miter"  stroke-miterlimit="10.0000" fill="none" />
</g>
<g transform="matrix(1.0000 0.0000 0.0000 1.0000 0.0000 0.0000)">
</g>
<g transform="matrix(0.0625 0.0000 0.0000 0.0625 0.0000 0.0000)">
<path d="M 1057.0000,3221.0000 L 1137.0000,3221.0000 " stroke="#000000" stroke-width="16.0000"  stroke-linecap="butt"  stroke-linejoin="miter"  stroke-miterlimit="10.0000" fill="none" />
</g>
<g transform="matrix(1.0000 0.0000 0.0000 1.0000 0.0000 0.0000)">
<text font-family="Arial" fill="#000000" style ="white-space:pre;" font-weight="400" text-anchor="start" x="37.0000" y="206.0000" font-size="15.0000" ><![CDATA[40]]></text>
</g>
<g transform="matrix(0.0625 0.0000 0.0000 0.0625 0.0000 0.0000)">
<path d="M 1057.0000,2658.0000 L 977.0000,2658.0000 " stroke="#000000" stroke-width="16.0000"  stroke-linecap="butt"  stroke-linejoin="miter"  stroke-miterlimit="10.0000" fill="none" />
</g>
<g transform="matrix(1.0000 0.0000 0.0000 1.0000 0.0000 0.0000)">
</g>
<g transform="matrix(0.0625 0.0000 0.0000 0.0625 0.0000 0.0000)">
<path d="M 1057.0000,2658.0000 L 1137.0000,2658.0000 " stroke="#000000" stroke-width="16.0000"  stroke-linecap="butt"  stroke-linejoin="miter"  stroke-miterlimit="10.0000" fill="none" />
</g>
<g transform="matrix(1.0000 0.0000 0.0000 1.0000 0.0000 0.0000)">
<text font-family="Arial" fill="#000000" style ="white-space:pre;" font-weight="400" text-anchor="start" x="37.0000" y="171.0000" font-size="15.0000" ><![CDATA[50]]></text>
</g>
<g transform="matrix(0.0625 0.0000 0.0000 0.0625 0.0000 0.0000)">
<path d="M 1057.0000,2095.0000 L 977.0000,2095.0000 " stroke="#000000" stroke-width="16.0000"  stroke-linecap="butt"  stroke-linejoin="miter"  stroke-miterlimit="10.0000" fill="none" />
</g>
<g transform="matrix(1.0000 0.0000 0.0000 1.0000 0.0000 0.0000)">
</g>
<g transform="matrix(0.0625 0.0000 0.0000 0.0625 0.0000 0.0000)">
<path d="M 1057.0000,2095.0000 L 1137.0000,2095.0000 " stroke="#000000" stroke-width="16.0000"  stroke-linecap="butt"  stroke-linejoin="miter"  stroke-miterlimit="10.0000" fill="none" />
</g>
<g transform="matrix(1.0000 0.0000 0.0000 1.0000 0.0000 0.0000)">
<text font-family="Arial" fill="#000000" style ="white-space:pre;" font-weight="400" text-anchor="start" x="37.0000" y="135.0000" font-size="15.0000" ><![CDATA[60]]></text>
</g>
<g transform="matrix(0.0625 0.0000 0.0000 0.0625 0.0000 0.0000)">
<path d="M 1057.0000,1532.0000 L 977.0000,1532.0000 " stroke="#000000" stroke-width="16.0000"  stroke-linecap="butt"  stroke-linejoin="miter"  stroke-miterlimit="10.0000" fill="none" />
</g>
<g transform="matrix(1.0000 0.0000 0.0000 1.0000 0.0000 0.0000)">
</g>
<g transform="matrix(0.0625 0.0000 0.0000 0.0625 0.0000 0.0000)">
<path d="M 1057.0000,1532.0000 L 1137.0000,1532.0000 " stroke="#000000" stroke-width="16.0000"  stroke-linecap="butt"  stroke-linejoin="miter"  stroke-miterlimit="10.0000" fill="none" />
</g>
<g transform="matrix(1.0000 0.0000 0.0000 1.0000 0.0000 0.0000)">
<text font-family="Arial" fill="#000000" style ="white-space:pre;" font-weight="400" text-anchor="start" x="37.0000" y="100.0000" font-size="15.0000" ><![CDATA[70]]></text>
</g>
<g transform="matrix(0.0625 0.0000 0.0000 0.0625 0.0000 0.0000)">
<path d="M 1057.0000,968.0000 L 977.0000,968.0000 " stroke="#000000" stroke-width="16.0000"  stroke-linecap="butt"  stroke-linejoin="miter"  stroke-miterlimit="10.0000" fill="none" />
</g>
<g transform="matrix(1.0000 0.0000 0.0000 1.0000 0.0000 0.0000)">
</g>
<g transform="matrix(0.0625 0.0000 0.0000 0.0625 0.0000 0.0000)">
<path d="M 1057.0000,968.0000 L 1137.0000,968.0000 " stroke="#000000" stroke-width="16.0000"  stroke-linecap="butt"  stroke-linejoin="miter"  stroke-miterlimit="10.0000" fill="none" />
</g>
<g transform="matrix(1.0000 0.0000 0.0000 1.0000 0.0000 0.0000)">
<text font-family="Arial" fill="#000000" style ="white-space:pre;" font-weight="400" text-anchor="start" x="37.0000" y="65.0000" font-size="15.0000" ><![CDATA[80]]></text>
<defs><clipPath id="clip-19169"><path d="M 10.0000,141.0000 L 29.0000,141.0000 L 29.0000,263.0000 L 10.0000,263.0000 L 10.0000,141.0000 Z Z" /></clipPath></defs>
<text  clip-path="url(#clip-19169)" font-family="MS UI Gothic" fill="#000000" transform="rotate(-90, 23.0000, 275.4000) translate(0, 14.4000)" style ="white-space:pre;" font-weight="700" text-anchor="start" x="23.0000" y="261.0000" font-size="16.0000" ><![CDATA[ピ]]></text>
<text  clip-path="url(#clip-19169)" font-family="MS UI Gothic" fill="#000000" transform="rotate(-90, 23.0000, 262.4000) translate(0, 14.4000)" style ="white-space:pre;" font-weight="700" text-anchor="start" x="23.0000" y="248.0000" font-size="16.0000" ><![CDATA[ー]]></text>
<text  clip-path="url(#clip-19169)" font-family="MS UI Gothic" fill="#000000" transform="rotate(-90, 23.0000, 249.4000) translate(0, 14.4000)" style ="white-space:pre;" font-weight="700" text-anchor="start" x="23.0000" y="235.0000" font-size="16.0000" ><![CDATA[ク]]></text>
<defs><clipPath id="clip-15724"><path d="M 10.0000,141.0000 L 29.0000,141.0000 L 29.0000,263.0000 L 10.0000,263.0000 L 10.0000,141.0000 Z Z" /></clipPath></defs>
<text  clip-path="url(#clip-15724)" font-family="MS UI Gothic" fill="#000000" transform="rotate(-90, 23.0000, 237.4000) translate(0, 14.4000)" style ="white-space:pre;" font-weight="700" text-anchor="start" x="23.0000" y="223.0000" font-size="16.0000" ><![CDATA[面]]></text>
<text  clip-path="url(#clip-15724)" font-family="MS UI Gothic" fill="#000000" transform="rotate(-90, 23.0000, 221.4000) translate(0, 14.4000)" style ="white-space:pre;" font-weight="700" text-anchor="start" x="23.0000" y="207.0000" font-size="16.0000" ><![CDATA[積]]></text>
<text font-family="Arial" fill="#000000" transform="rotate(-90, 23.0000, 202.6000) translate(0, 12.6000)" style ="white-space:pre;" font-weight="700" text-anchor="start" x="23.0000" y="190.0000" font-size="14.0000" ><![CDATA[ ]]></text>
<text font-family="Arial" fill="#000000" transform="rotate(-90, 23.0000, 198.6000) translate(0, 12.6000)" style ="white-space:pre;" font-weight="700" text-anchor="start" x="23.0000" y="186.0000" font-size="14.0000" ><![CDATA[(]]></text>
<text font-family="Arial" fill="#000000" transform="rotate(-90, 23.0000, 193.6000) translate(0, 12.6000)" style ="white-space:pre;" font-weight="700" text-anchor="start" x="23.0000" y="181.0000" font-size="14.0000" ><![CDATA[1]]></text>
<text font-family="Arial" fill="#000000" transform="rotate(-90, 23.0000, 185.6000) translate(0, 12.6000)" style ="white-space:pre;" font-weight="700" text-anchor="start" x="23.0000" y="173.0000" font-size="14.0000" ><![CDATA[0]]></text>
<text font-family="Arial" fill="#000000" transform="rotate(-90, 23.0000, 177.6000) translate(0, 12.6000)" style ="white-space:pre;" font-weight="700" text-anchor="start" x="23.0000" y="165.0000" font-size="14.0000" ><![CDATA[^]]></text>
<text font-family="Arial" fill="#000000" transform="rotate(-90, 23.0000, 169.6000) translate(0, 12.6000)" style ="white-space:pre;" font-weight="700" text-anchor="start" x="23.0000" y="157.0000" font-size="14.0000" ><![CDATA[6]]></text>
<text font-family="Arial" fill="#000000" transform="rotate(-90, 23.0000, 161.6000) translate(0, 12.6000)" style ="white-space:pre;" font-weight="700" text-anchor="start" x="23.0000" y="149.0000" font-size="14.0000" ><![CDATA[)]]></text>
<path d="M 66.0000,20.0000 L 66.0000,53.0000 L 476.0000,53.0000 L 476.0000,20.0000 L 66.0000,20.0000 Z" stroke-width="1px" stroke="#FFFFFF"  fill="#FFFFFF" />
<text font-family="Arial" fill="#000000" style ="white-space:pre;" font-weight="400" text-anchor="start" x="106.0000" y="34.0000" font-size="12.0000" ><![CDATA[y9 - 1050.5466+]]></text>
</g>
<g transform="matrix(0.0625 0.0000 0.0000 0.0625 0.0000 0.0000)">
<path d="M 1113.0000,432.0000 L 1113.0000,544.0000 L 1561.0000,544.0000 L 1561.0000,432.0000 L 1113.0000,432.0000 Z" stroke-width="1px" stroke="#8A2BE2"  fill="#8A2BE2" />
</g>
<g transform="matrix(1.0000 0.0000 0.0000 1.0000 0.0000 0.0000)">
<text font-family="Arial" fill="#000000" style ="white-space:pre;" font-weight="400" text-anchor="start" x="243.0000" y="34.0000" font-size="12.0000" ><![CDATA[y8 - 951.4782+]]></text>
</g>
<g transform="matrix(0.0625 0.0000 0.0000 0.0625 0.0000 0.0000)">
<path d="M 3295.0000,432.0000 L 3295.0000,544.0000 L 3743.0000,544.0000 L 3743.0000,432.0000 L 3295.0000,432.0000 Z" stroke-width="1px" stroke="#A52A2A"  fill="#A52A2A" />
</g>
<g transform="matrix(1.0000 0.0000 0.0000 1.0000 0.0000 0.0000)">
<text font-family="Arial" fill="#000000" style ="white-space:pre;" font-weight="400" text-anchor="start" x="380.0000" y="34.0000" font-size="12.0000" ><![CDATA[y7 - 837.4353+]]></text>
</g>
<g transform="matrix(0.0625 0.0000 0.0000 0.0625 0.0000 0.0000)">
<path d="M 5477.0000,432.0000 L 5477.0000,544.0000 L 5925.0000,544.0000 L 5925.0000,432.0000 L 5477.0000,432.0000 Z" stroke-width="1px" stroke="#D2691E"  fill="#D2691E" />
</g>
<g transform="matrix(1.0000 0.0000 0.0000 1.0000 0.0000 0.0000)">
<text font-family="Arial" fill="#000000" style ="white-space:pre;" font-weight="400" text-anchor="start" x="107.0000" y="48.0000" font-size="12.0000" ><![CDATA[y6 - 708.3927+]]></text>
</g>
<g transform="matrix(0.0625 0.0000 0.0000 0.0625 0.0000 0.0000)">
<path d="M 1113.0000,656.0000 L 1113.0000,768.0000 L 1561.0000,768.0000 L 1561.0000,656.0000 L 1113.0000,656.0000 Z" stroke-width="1px" stroke="#008B8B"  fill="#008B8B" />
</g>
<g transform="matrix(1.0000 0.0000 0.0000 1.0000 0.0000 0.0000)">
<text font-family="Arial" fill="#000000" style ="white-space:pre;" font-weight="400" text-anchor="start" x="243.0000" y="48.0000" font-size="12.0000" ><![CDATA[y5 - 595.3086+]]></text>
</g>
<g transform="matrix(0.0625 0.0000 0.0000 0.0625 0.0000 0.0000)">
<path d="M 3295.0000,656.0000 L 3295.0000,768.0000 L 3743.0000,768.0000 L 3743.0000,656.0000 L 3295.0000,656.0000 Z" stroke-width="1px" stroke="#008000"  fill="#008000" />
</g>
<g transform="matrix(1.0000 0.0000 0.0000 1.0000 0.0000 0.0000)">
<text font-family="Arial" fill="#000000" style ="white-space:pre;" font-weight="400" text-anchor="start" x="379.0000" y="48.0000" font-size="12.0000" ><![CDATA[b9 - 1017.5251+]]></text>
</g>
<g transform="matrix(0.0625 0.0000 0.0000 0.0625 0.0000 0.0000)">
<path d="M 5477.0000,656.0000 L 5477.0000,768.0000 L 5925.0000,768.0000 L 5925.0000,656.0000 L 5477.0000,656.0000 Z" stroke-width="1px" stroke="#FFA500"  fill="#FFA500" />
</g>
<g transform="matrix(1.0000 0.0000 0.0000 1.0000 0.0000 0.0000)">
</g>
<g transform="matrix(0.0625 0.0000 0.0000 0.0625 0.0000 0.0000)">
<path d="M 1057.0000,328.0000 L 7602.0000,328.0000 L 7602.0000,856.0000 L 1057.0000,856.0000 Z" stroke="#000000" stroke-width="16.0000"  stroke-linecap="butt"  stroke-linejoin="miter"  stroke-miterlimit="10.0000" fill="none" />
</g>
<g transform="matrix(1.0000 0.0000 0.0000 1.0000 0.0000 0.0000)">
<defs><clipPath id="clip-11478"><path d="M 67.0000,61.0000 L 547.0000,61.0000 L 547.0000,343.0000 L 67.0000,343.0000 L 67.0000,61.0000 Z Z" /></clipPath></defs>
</g>
<g transform="matrix(0.0625 0.0000 0.0000 0.0625 0.0000 0.0000)">
<path  clip-path="url(#clip-11478)" d="M 3620.0000,1456.0000 L 6157.0000,1456.0000 L 6157.0000,5473.0000 L 3620.0000,5473.0000 Z" stroke="#000000" stroke-width="16.0000"  stroke-linecap="butt"  stroke-linejoin="miter"  stroke-miterlimit="10.0000" fill="none" />
</g>
<g transform="matrix(1.0000 0.0000 0.0000 1.0000 0.0000 0.0000)">
</g>
</g>
</svg>
