<?xml version="1.0"  encoding="UTF-8" standalone="no"?>
<svg version="1.1" xmlns="http://www.w3.org/2000/svg" xmlns:xlink="http://www.w3.org/1999/xlink" width="360.0000" height="382.0000">
<g transform="translate(-0.0000, -0.0000)">
<g transform="matrix(0.0625 0.0000 0.0000 0.0625 0.0000 0.0000)">
<path d="M 0.0000,0.0000 L 0.0000,6112.0000 L 5760.0000,6112.0000 L 5760.0000,0.0000 L 0.0000,0.0000 Z" stroke-width="1px" stroke="#FFFFFF"  fill="#FFFFFF" />
</g>
<g transform="matrix(1.0000 0.0000 0.0000 1.0000 0.0000 0.0000)">
</g>
<g transform="matrix(0.0625 0.0000 0.0000 0.0625 0.0000 0.0000)">
<path d="M 0.0000,0.0000 L 0.0000,6112.0000 L 5760.0000,6112.0000 L 5760.0000,0.0000 L 0.0000,0.0000 Z" stroke-width="1px" stroke="#FFFFFF"  fill="#FFFFFF" />
</g>
<g transform="matrix(1.0000 0.0000 0.0000 1.0000 0.0000 0.0000)">
<path d="M 55.0000,19.0000 L 55.0000,321.0000 L 341.0000,321.0000 L 341.0000,19.0000 L 55.0000,19.0000 Z" stroke-width="1px" stroke="#FFFFFF"  fill="#FFFFFF" />
</g>
<g transform="matrix(0.0625 0.0000 0.0000 0.0625 0.0000 0.0000)">
<path d="M 1044.0000,5138.0000 L 1044.0000,5178.0000 " stroke="#000000" stroke-width="16.0000"  stroke-linecap="butt"  stroke-linejoin="miter"  stroke-miterlimit="10.0000" fill="none" />
</g>
<g transform="matrix(1.0000 0.0000 0.0000 1.0000 0.0000 0.0000)">
</g>
<g transform="matrix(0.0625 0.0000 0.0000 0.0625 0.0000 0.0000)">
<path d="M 1044.0000,5138.0000 L 1044.0000,5098.0000 " stroke="#000000" stroke-width="16.0000"  stroke-linecap="butt"  stroke-linejoin="miter"  stroke-miterlimit="10.0000" fill="none" />
</g>
<g transform="matrix(1.0000 0.0000 0.0000 1.0000 0.0000 0.0000)">
</g>
<g transform="matrix(0.0625 0.0000 0.0000 0.0625 0.0000 0.0000)">
<path d="M 1197.0000,5138.0000 L 1197.0000,5178.0000 " stroke="#000000" stroke-width="16.0000"  stroke-linecap="butt"  stroke-linejoin="miter"  stroke-miterlimit="10.0000" fill="none" />
</g>
<g transform="matrix(1.0000 0.0000 0.0000 1.0000 0.0000 0.0000)">
</g>
<g transform="matrix(0.0625 0.0000 0.0000 0.0625 0.0000 0.0000)">
<path d="M 1197.0000,5138.0000 L 1197.0000,5098.0000 " stroke="#000000" stroke-width="16.0000"  stroke-linecap="butt"  stroke-linejoin="miter"  stroke-miterlimit="10.0000" fill="none" />
</g>
<g transform="matrix(1.0000 0.0000 0.0000 1.0000 0.0000 0.0000)">
</g>
<g transform="matrix(0.0625 0.0000 0.0000 0.0625 0.0000 0.0000)">
<path d="M 1349.0000,5138.0000 L 1349.0000,5178.0000 " stroke="#000000" stroke-width="16.0000"  stroke-linecap="butt"  stroke-linejoin="miter"  stroke-miterlimit="10.0000" fill="none" />
</g>
<g transform="matrix(1.0000 0.0000 0.0000 1.0000 0.0000 0.0000)">
</g>
<g transform="matrix(0.0625 0.0000 0.0000 0.0625 0.0000 0.0000)">
<path d="M 1349.0000,5138.0000 L 1349.0000,5098.0000 " stroke="#000000" stroke-width="16.0000"  stroke-linecap="butt"  stroke-linejoin="miter"  stroke-miterlimit="10.0000" fill="none" />
</g>
<g transform="matrix(1.0000 0.0000 0.0000 1.0000 0.0000 0.0000)">
</g>
<g transform="matrix(0.0625 0.0000 0.0000 0.0625 0.0000 0.0000)">
<path d="M 1501.0000,5138.0000 L 1501.0000,5178.0000 " stroke="#000000" stroke-width="16.0000"  stroke-linecap="butt"  stroke-linejoin="miter"  stroke-miterlimit="10.0000" fill="none" />
</g>
<g transform="matrix(1.0000 0.0000 0.0000 1.0000 0.0000 0.0000)">
</g>
<g transform="matrix(0.0625 0.0000 0.0000 0.0625 0.0000 0.0000)">
<path d="M 1501.0000,5138.0000 L 1501.0000,5098.0000 " stroke="#000000" stroke-width="16.0000"  stroke-linecap="butt"  stroke-linejoin="miter"  stroke-miterlimit="10.0000" fill="none" />
</g>
<g transform="matrix(1.0000 0.0000 0.0000 1.0000 0.0000 0.0000)">
</g>
<g transform="matrix(0.0625 0.0000 0.0000 0.0625 0.0000 0.0000)">
<path d="M 1806.0000,5138.0000 L 1806.0000,5178.0000 " stroke="#000000" stroke-width="16.0000"  stroke-linecap="butt"  stroke-linejoin="miter"  stroke-miterlimit="10.0000" fill="none" />
</g>
<g transform="matrix(1.0000 0.0000 0.0000 1.0000 0.0000 0.0000)">
</g>
<g transform="matrix(0.0625 0.0000 0.0000 0.0625 0.0000 0.0000)">
<path d="M 1806.0000,5138.0000 L 1806.0000,5098.0000 " stroke="#000000" stroke-width="16.0000"  stroke-linecap="butt"  stroke-linejoin="miter"  stroke-miterlimit="10.0000" fill="none" />
</g>
<g transform="matrix(1.0000 0.0000 0.0000 1.0000 0.0000 0.0000)">
</g>
<g transform="matrix(0.0625 0.0000 0.0000 0.0625 0.0000 0.0000)">
<path d="M 1958.0000,5138.0000 L 1958.0000,5178.0000 " stroke="#000000" stroke-width="16.0000"  stroke-linecap="butt"  stroke-linejoin="miter"  stroke-miterlimit="10.0000" fill="none" />
</g>
<g transform="matrix(1.0000 0.0000 0.0000 1.0000 0.0000 0.0000)">
</g>
<g transform="matrix(0.0625 0.0000 0.0000 0.0625 0.0000 0.0000)">
<path d="M 1958.0000,5138.0000 L 1958.0000,5098.0000 " stroke="#000000" stroke-width="16.0000"  stroke-linecap="butt"  stroke-linejoin="miter"  stroke-miterlimit="10.0000" fill="none" />
</g>
<g transform="matrix(1.0000 0.0000 0.0000 1.0000 0.0000 0.0000)">
</g>
<g transform="matrix(0.0625 0.0000 0.0000 0.0625 0.0000 0.0000)">
<path d="M 2110.0000,5138.0000 L 2110.0000,5178.0000 " stroke="#000000" stroke-width="16.0000"  stroke-linecap="butt"  stroke-linejoin="miter"  stroke-miterlimit="10.0000" fill="none" />
</g>
<g transform="matrix(1.0000 0.0000 0.0000 1.0000 0.0000 0.0000)">
</g>
<g transform="matrix(0.0625 0.0000 0.0000 0.0625 0.0000 0.0000)">
<path d="M 2110.0000,5138.0000 L 2110.0000,5098.0000 " stroke="#000000" stroke-width="16.0000"  stroke-linecap="butt"  stroke-linejoin="miter"  stroke-miterlimit="10.0000" fill="none" />
</g>
<g transform="matrix(1.0000 0.0000 0.0000 1.0000 0.0000 0.0000)">
</g>
<g transform="matrix(0.0625 0.0000 0.0000 0.0625 0.0000 0.0000)">
<path d="M 2263.0000,5138.0000 L 2263.0000,5178.0000 " stroke="#000000" stroke-width="16.0000"  stroke-linecap="butt"  stroke-linejoin="miter"  stroke-miterlimit="10.0000" fill="none" />
</g>
<g transform="matrix(1.0000 0.0000 0.0000 1.0000 0.0000 0.0000)">
</g>
<g transform="matrix(0.0625 0.0000 0.0000 0.0625 0.0000 0.0000)">
<path d="M 2263.0000,5138.0000 L 2263.0000,5098.0000 " stroke="#000000" stroke-width="16.0000"  stroke-linecap="butt"  stroke-linejoin="miter"  stroke-miterlimit="10.0000" fill="none" />
</g>
<g transform="matrix(1.0000 0.0000 0.0000 1.0000 0.0000 0.0000)">
</g>
<g transform="matrix(0.0625 0.0000 0.0000 0.0625 0.0000 0.0000)">
<path d="M 2567.0000,5138.0000 L 2567.0000,5178.0000 " stroke="#000000" stroke-width="16.0000"  stroke-linecap="butt"  stroke-linejoin="miter"  stroke-miterlimit="10.0000" fill="none" />
</g>
<g transform="matrix(1.0000 0.0000 0.0000 1.0000 0.0000 0.0000)">
</g>
<g transform="matrix(0.0625 0.0000 0.0000 0.0625 0.0000 0.0000)">
<path d="M 2567.0000,5138.0000 L 2567.0000,5098.0000 " stroke="#000000" stroke-width="16.0000"  stroke-linecap="butt"  stroke-linejoin="miter"  stroke-miterlimit="10.0000" fill="none" />
</g>
<g transform="matrix(1.0000 0.0000 0.0000 1.0000 0.0000 0.0000)">
</g>
<g transform="matrix(0.0625 0.0000 0.0000 0.0625 0.0000 0.0000)">
<path d="M 2720.0000,5138.0000 L 2720.0000,5178.0000 " stroke="#000000" stroke-width="16.0000"  stroke-linecap="butt"  stroke-linejoin="miter"  stroke-miterlimit="10.0000" fill="none" />
</g>
<g transform="matrix(1.0000 0.0000 0.0000 1.0000 0.0000 0.0000)">
</g>
<g transform="matrix(0.0625 0.0000 0.0000 0.0625 0.0000 0.0000)">
<path d="M 2720.0000,5138.0000 L 2720.0000,5098.0000 " stroke="#000000" stroke-width="16.0000"  stroke-linecap="butt"  stroke-linejoin="miter"  stroke-miterlimit="10.0000" fill="none" />
</g>
<g transform="matrix(1.0000 0.0000 0.0000 1.0000 0.0000 0.0000)">
</g>
<g transform="matrix(0.0625 0.0000 0.0000 0.0625 0.0000 0.0000)">
<path d="M 2872.0000,5138.0000 L 2872.0000,5178.0000 " stroke="#000000" stroke-width="16.0000"  stroke-linecap="butt"  stroke-linejoin="miter"  stroke-miterlimit="10.0000" fill="none" />
</g>
<g transform="matrix(1.0000 0.0000 0.0000 1.0000 0.0000 0.0000)">
</g>
<g transform="matrix(0.0625 0.0000 0.0000 0.0625 0.0000 0.0000)">
<path d="M 2872.0000,5138.0000 L 2872.0000,5098.0000 " stroke="#000000" stroke-width="16.0000"  stroke-linecap="butt"  stroke-linejoin="miter"  stroke-miterlimit="10.0000" fill="none" />
</g>
<g transform="matrix(1.0000 0.0000 0.0000 1.0000 0.0000 0.0000)">
</g>
<g transform="matrix(0.0625 0.0000 0.0000 0.0625 0.0000 0.0000)">
<path d="M 3024.0000,5138.0000 L 3024.0000,5178.0000 " stroke="#000000" stroke-width="16.0000"  stroke-linecap="butt"  stroke-linejoin="miter"  stroke-miterlimit="10.0000" fill="none" />
</g>
<g transform="matrix(1.0000 0.0000 0.0000 1.0000 0.0000 0.0000)">
</g>
<g transform="matrix(0.0625 0.0000 0.0000 0.0625 0.0000 0.0000)">
<path d="M 3024.0000,5138.0000 L 3024.0000,5098.0000 " stroke="#000000" stroke-width="16.0000"  stroke-linecap="butt"  stroke-linejoin="miter"  stroke-miterlimit="10.0000" fill="none" />
</g>
<g transform="matrix(1.0000 0.0000 0.0000 1.0000 0.0000 0.0000)">
</g>
<g transform="matrix(0.0625 0.0000 0.0000 0.0625 0.0000 0.0000)">
<path d="M 3329.0000,5138.0000 L 3329.0000,5178.0000 " stroke="#000000" stroke-width="16.0000"  stroke-linecap="butt"  stroke-linejoin="miter"  stroke-miterlimit="10.0000" fill="none" />
</g>
<g transform="matrix(1.0000 0.0000 0.0000 1.0000 0.0000 0.0000)">
</g>
<g transform="matrix(0.0625 0.0000 0.0000 0.0625 0.0000 0.0000)">
<path d="M 3329.0000,5138.0000 L 3329.0000,5098.0000 " stroke="#000000" stroke-width="16.0000"  stroke-linecap="butt"  stroke-linejoin="miter"  stroke-miterlimit="10.0000" fill="none" />
</g>
<g transform="matrix(1.0000 0.0000 0.0000 1.0000 0.0000 0.0000)">
</g>
<g transform="matrix(0.0625 0.0000 0.0000 0.0625 0.0000 0.0000)">
<path d="M 3481.0000,5138.0000 L 3481.0000,5178.0000 " stroke="#000000" stroke-width="16.0000"  stroke-linecap="butt"  stroke-linejoin="miter"  stroke-miterlimit="10.0000" fill="none" />
</g>
<g transform="matrix(1.0000 0.0000 0.0000 1.0000 0.0000 0.0000)">
</g>
<g transform="matrix(0.0625 0.0000 0.0000 0.0625 0.0000 0.0000)">
<path d="M 3481.0000,5138.0000 L 3481.0000,5098.0000 " stroke="#000000" stroke-width="16.0000"  stroke-linecap="butt"  stroke-linejoin="miter"  stroke-miterlimit="10.0000" fill="none" />
</g>
<g transform="matrix(1.0000 0.0000 0.0000 1.0000 0.0000 0.0000)">
</g>
<g transform="matrix(0.0625 0.0000 0.0000 0.0625 0.0000 0.0000)">
<path d="M 3633.0000,5138.0000 L 3633.0000,5178.0000 " stroke="#000000" stroke-width="16.0000"  stroke-linecap="butt"  stroke-linejoin="miter"  stroke-miterlimit="10.0000" fill="none" />
</g>
<g transform="matrix(1.0000 0.0000 0.0000 1.0000 0.0000 0.0000)">
</g>
<g transform="matrix(0.0625 0.0000 0.0000 0.0625 0.0000 0.0000)">
<path d="M 3633.0000,5138.0000 L 3633.0000,5098.0000 " stroke="#000000" stroke-width="16.0000"  stroke-linecap="butt"  stroke-linejoin="miter"  stroke-miterlimit="10.0000" fill="none" />
</g>
<g transform="matrix(1.0000 0.0000 0.0000 1.0000 0.0000 0.0000)">
</g>
<g transform="matrix(0.0625 0.0000 0.0000 0.0625 0.0000 0.0000)">
<path d="M 3786.0000,5138.0000 L 3786.0000,5178.0000 " stroke="#000000" stroke-width="16.0000"  stroke-linecap="butt"  stroke-linejoin="miter"  stroke-miterlimit="10.0000" fill="none" />
</g>
<g transform="matrix(1.0000 0.0000 0.0000 1.0000 0.0000 0.0000)">
</g>
<g transform="matrix(0.0625 0.0000 0.0000 0.0625 0.0000 0.0000)">
<path d="M 3786.0000,5138.0000 L 3786.0000,5098.0000 " stroke="#000000" stroke-width="16.0000"  stroke-linecap="butt"  stroke-linejoin="miter"  stroke-miterlimit="10.0000" fill="none" />
</g>
<g transform="matrix(1.0000 0.0000 0.0000 1.0000 0.0000 0.0000)">
</g>
<g transform="matrix(0.0625 0.0000 0.0000 0.0625 0.0000 0.0000)">
<path d="M 4090.0000,5138.0000 L 4090.0000,5178.0000 " stroke="#000000" stroke-width="16.0000"  stroke-linecap="butt"  stroke-linejoin="miter"  stroke-miterlimit="10.0000" fill="none" />
</g>
<g transform="matrix(1.0000 0.0000 0.0000 1.0000 0.0000 0.0000)">
</g>
<g transform="matrix(0.0625 0.0000 0.0000 0.0625 0.0000 0.0000)">
<path d="M 4090.0000,5138.0000 L 4090.0000,5098.0000 " stroke="#000000" stroke-width="16.0000"  stroke-linecap="butt"  stroke-linejoin="miter"  stroke-miterlimit="10.0000" fill="none" />
</g>
<g transform="matrix(1.0000 0.0000 0.0000 1.0000 0.0000 0.0000)">
</g>
<g transform="matrix(0.0625 0.0000 0.0000 0.0625 0.0000 0.0000)">
<path d="M 4242.0000,5138.0000 L 4242.0000,5178.0000 " stroke="#000000" stroke-width="16.0000"  stroke-linecap="butt"  stroke-linejoin="miter"  stroke-miterlimit="10.0000" fill="none" />
</g>
<g transform="matrix(1.0000 0.0000 0.0000 1.0000 0.0000 0.0000)">
</g>
<g transform="matrix(0.0625 0.0000 0.0000 0.0625 0.0000 0.0000)">
<path d="M 4242.0000,5138.0000 L 4242.0000,5098.0000 " stroke="#000000" stroke-width="16.0000"  stroke-linecap="butt"  stroke-linejoin="miter"  stroke-miterlimit="10.0000" fill="none" />
</g>
<g transform="matrix(1.0000 0.0000 0.0000 1.0000 0.0000 0.0000)">
</g>
<g transform="matrix(0.0625 0.0000 0.0000 0.0625 0.0000 0.0000)">
<path d="M 4395.0000,5138.0000 L 4395.0000,5178.0000 " stroke="#000000" stroke-width="16.0000"  stroke-linecap="butt"  stroke-linejoin="miter"  stroke-miterlimit="10.0000" fill="none" />
</g>
<g transform="matrix(1.0000 0.0000 0.0000 1.0000 0.0000 0.0000)">
</g>
<g transform="matrix(0.0625 0.0000 0.0000 0.0625 0.0000 0.0000)">
<path d="M 4395.0000,5138.0000 L 4395.0000,5098.0000 " stroke="#000000" stroke-width="16.0000"  stroke-linecap="butt"  stroke-linejoin="miter"  stroke-miterlimit="10.0000" fill="none" />
</g>
<g transform="matrix(1.0000 0.0000 0.0000 1.0000 0.0000 0.0000)">
</g>
<g transform="matrix(0.0625 0.0000 0.0000 0.0625 0.0000 0.0000)">
<path d="M 4547.0000,5138.0000 L 4547.0000,5178.0000 " stroke="#000000" stroke-width="16.0000"  stroke-linecap="butt"  stroke-linejoin="miter"  stroke-miterlimit="10.0000" fill="none" />
</g>
<g transform="matrix(1.0000 0.0000 0.0000 1.0000 0.0000 0.0000)">
</g>
<g transform="matrix(0.0625 0.0000 0.0000 0.0625 0.0000 0.0000)">
<path d="M 4547.0000,5138.0000 L 4547.0000,5098.0000 " stroke="#000000" stroke-width="16.0000"  stroke-linecap="butt"  stroke-linejoin="miter"  stroke-miterlimit="10.0000" fill="none" />
</g>
<g transform="matrix(1.0000 0.0000 0.0000 1.0000 0.0000 0.0000)">
</g>
<g transform="matrix(0.0625 0.0000 0.0000 0.0625 0.0000 0.0000)">
<path d="M 4852.0000,5138.0000 L 4852.0000,5178.0000 " stroke="#000000" stroke-width="16.0000"  stroke-linecap="butt"  stroke-linejoin="miter"  stroke-miterlimit="10.0000" fill="none" />
</g>
<g transform="matrix(1.0000 0.0000 0.0000 1.0000 0.0000 0.0000)">
</g>
<g transform="matrix(0.0625 0.0000 0.0000 0.0625 0.0000 0.0000)">
<path d="M 4852.0000,5138.0000 L 4852.0000,5098.0000 " stroke="#000000" stroke-width="16.0000"  stroke-linecap="butt"  stroke-linejoin="miter"  stroke-miterlimit="10.0000" fill="none" />
</g>
<g transform="matrix(1.0000 0.0000 0.0000 1.0000 0.0000 0.0000)">
</g>
<g transform="matrix(0.0625 0.0000 0.0000 0.0625 0.0000 0.0000)">
<path d="M 5004.0000,5138.0000 L 5004.0000,5178.0000 " stroke="#000000" stroke-width="16.0000"  stroke-linecap="butt"  stroke-linejoin="miter"  stroke-miterlimit="10.0000" fill="none" />
</g>
<g transform="matrix(1.0000 0.0000 0.0000 1.0000 0.0000 0.0000)">
</g>
<g transform="matrix(0.0625 0.0000 0.0000 0.0625 0.0000 0.0000)">
<path d="M 5004.0000,5138.0000 L 5004.0000,5098.0000 " stroke="#000000" stroke-width="16.0000"  stroke-linecap="butt"  stroke-linejoin="miter"  stroke-miterlimit="10.0000" fill="none" />
</g>
<g transform="matrix(1.0000 0.0000 0.0000 1.0000 0.0000 0.0000)">
</g>
<g transform="matrix(0.0625 0.0000 0.0000 0.0625 0.0000 0.0000)">
<path d="M 5156.0000,5138.0000 L 5156.0000,5178.0000 " stroke="#000000" stroke-width="16.0000"  stroke-linecap="butt"  stroke-linejoin="miter"  stroke-miterlimit="10.0000" fill="none" />
</g>
<g transform="matrix(1.0000 0.0000 0.0000 1.0000 0.0000 0.0000)">
</g>
<g transform="matrix(0.0625 0.0000 0.0000 0.0625 0.0000 0.0000)">
<path d="M 5156.0000,5138.0000 L 5156.0000,5098.0000 " stroke="#000000" stroke-width="16.0000"  stroke-linecap="butt"  stroke-linejoin="miter"  stroke-miterlimit="10.0000" fill="none" />
</g>
<g transform="matrix(1.0000 0.0000 0.0000 1.0000 0.0000 0.0000)">
</g>
<g transform="matrix(0.0625 0.0000 0.0000 0.0625 0.0000 0.0000)">
<path d="M 5308.0000,5138.0000 L 5308.0000,5178.0000 " stroke="#000000" stroke-width="16.0000"  stroke-linecap="butt"  stroke-linejoin="miter"  stroke-miterlimit="10.0000" fill="none" />
</g>
<g transform="matrix(1.0000 0.0000 0.0000 1.0000 0.0000 0.0000)">
</g>
<g transform="matrix(0.0625 0.0000 0.0000 0.0625 0.0000 0.0000)">
<path d="M 5308.0000,5138.0000 L 5308.0000,5098.0000 " stroke="#000000" stroke-width="16.0000"  stroke-linecap="butt"  stroke-linejoin="miter"  stroke-miterlimit="10.0000" fill="none" />
</g>
<g transform="matrix(1.0000 0.0000 0.0000 1.0000 0.0000 0.0000)">
</g>
<g transform="matrix(0.0625 0.0000 0.0000 0.0625 0.0000 0.0000)">
<path d="M 892.0000,4977.0000 L 852.0000,4977.0000 " stroke="#000000" stroke-width="16.0000"  stroke-linecap="butt"  stroke-linejoin="miter"  stroke-miterlimit="10.0000" fill="none" />
</g>
<g transform="matrix(1.0000 0.0000 0.0000 1.0000 0.0000 0.0000)">
</g>
<g transform="matrix(0.0625 0.0000 0.0000 0.0625 0.0000 0.0000)">
<path d="M 892.0000,4977.0000 L 932.0000,4977.0000 " stroke="#000000" stroke-width="16.0000"  stroke-linecap="butt"  stroke-linejoin="miter"  stroke-miterlimit="10.0000" fill="none" />
</g>
<g transform="matrix(1.0000 0.0000 0.0000 1.0000 0.0000 0.0000)">
</g>
<g transform="matrix(0.0625 0.0000 0.0000 0.0625 0.0000 0.0000)">
<path d="M 892.0000,4816.0000 L 852.0000,4816.0000 " stroke="#000000" stroke-width="16.0000"  stroke-linecap="butt"  stroke-linejoin="miter"  stroke-miterlimit="10.0000" fill="none" />
</g>
<g transform="matrix(1.0000 0.0000 0.0000 1.0000 0.0000 0.0000)">
</g>
<g transform="matrix(0.0625 0.0000 0.0000 0.0625 0.0000 0.0000)">
<path d="M 892.0000,4816.0000 L 932.0000,4816.0000 " stroke="#000000" stroke-width="16.0000"  stroke-linecap="butt"  stroke-linejoin="miter"  stroke-miterlimit="10.0000" fill="none" />
</g>
<g transform="matrix(1.0000 0.0000 0.0000 1.0000 0.0000 0.0000)">
</g>
<g transform="matrix(0.0625 0.0000 0.0000 0.0625 0.0000 0.0000)">
<path d="M 892.0000,4656.0000 L 852.0000,4656.0000 " stroke="#000000" stroke-width="16.0000"  stroke-linecap="butt"  stroke-linejoin="miter"  stroke-miterlimit="10.0000" fill="none" />
</g>
<g transform="matrix(1.0000 0.0000 0.0000 1.0000 0.0000 0.0000)">
</g>
<g transform="matrix(0.0625 0.0000 0.0000 0.0625 0.0000 0.0000)">
<path d="M 892.0000,4656.0000 L 932.0000,4656.0000 " stroke="#000000" stroke-width="16.0000"  stroke-linecap="butt"  stroke-linejoin="miter"  stroke-miterlimit="10.0000" fill="none" />
</g>
<g transform="matrix(1.0000 0.0000 0.0000 1.0000 0.0000 0.0000)">
</g>
<g transform="matrix(0.0625 0.0000 0.0000 0.0625 0.0000 0.0000)">
<path d="M 892.0000,4495.0000 L 852.0000,4495.0000 " stroke="#000000" stroke-width="16.0000"  stroke-linecap="butt"  stroke-linejoin="miter"  stroke-miterlimit="10.0000" fill="none" />
</g>
<g transform="matrix(1.0000 0.0000 0.0000 1.0000 0.0000 0.0000)">
</g>
<g transform="matrix(0.0625 0.0000 0.0000 0.0625 0.0000 0.0000)">
<path d="M 892.0000,4495.0000 L 932.0000,4495.0000 " stroke="#000000" stroke-width="16.0000"  stroke-linecap="butt"  stroke-linejoin="miter"  stroke-miterlimit="10.0000" fill="none" />
</g>
<g transform="matrix(1.0000 0.0000 0.0000 1.0000 0.0000 0.0000)">
</g>
<g transform="matrix(0.0625 0.0000 0.0000 0.0625 0.0000 0.0000)">
<path d="M 892.0000,4173.0000 L 852.0000,4173.0000 " stroke="#000000" stroke-width="16.0000"  stroke-linecap="butt"  stroke-linejoin="miter"  stroke-miterlimit="10.0000" fill="none" />
</g>
<g transform="matrix(1.0000 0.0000 0.0000 1.0000 0.0000 0.0000)">
</g>
<g transform="matrix(0.0625 0.0000 0.0000 0.0625 0.0000 0.0000)">
<path d="M 892.0000,4173.0000 L 932.0000,4173.0000 " stroke="#000000" stroke-width="16.0000"  stroke-linecap="butt"  stroke-linejoin="miter"  stroke-miterlimit="10.0000" fill="none" />
</g>
<g transform="matrix(1.0000 0.0000 0.0000 1.0000 0.0000 0.0000)">
</g>
<g transform="matrix(0.0625 0.0000 0.0000 0.0625 0.0000 0.0000)">
<path d="M 892.0000,4012.0000 L 852.0000,4012.0000 " stroke="#000000" stroke-width="16.0000"  stroke-linecap="butt"  stroke-linejoin="miter"  stroke-miterlimit="10.0000" fill="none" />
</g>
<g transform="matrix(1.0000 0.0000 0.0000 1.0000 0.0000 0.0000)">
</g>
<g transform="matrix(0.0625 0.0000 0.0000 0.0625 0.0000 0.0000)">
<path d="M 892.0000,4012.0000 L 932.0000,4012.0000 " stroke="#000000" stroke-width="16.0000"  stroke-linecap="butt"  stroke-linejoin="miter"  stroke-miterlimit="10.0000" fill="none" />
</g>
<g transform="matrix(1.0000 0.0000 0.0000 1.0000 0.0000 0.0000)">
</g>
<g transform="matrix(0.0625 0.0000 0.0000 0.0625 0.0000 0.0000)">
<path d="M 892.0000,3851.0000 L 852.0000,3851.0000 " stroke="#000000" stroke-width="16.0000"  stroke-linecap="butt"  stroke-linejoin="miter"  stroke-miterlimit="10.0000" fill="none" />
</g>
<g transform="matrix(1.0000 0.0000 0.0000 1.0000 0.0000 0.0000)">
</g>
<g transform="matrix(0.0625 0.0000 0.0000 0.0625 0.0000 0.0000)">
<path d="M 892.0000,3851.0000 L 932.0000,3851.0000 " stroke="#000000" stroke-width="16.0000"  stroke-linecap="butt"  stroke-linejoin="miter"  stroke-miterlimit="10.0000" fill="none" />
</g>
<g transform="matrix(1.0000 0.0000 0.0000 1.0000 0.0000 0.0000)">
</g>
<g transform="matrix(0.0625 0.0000 0.0000 0.0625 0.0000 0.0000)">
<path d="M 892.0000,3690.0000 L 852.0000,3690.0000 " stroke="#000000" stroke-width="16.0000"  stroke-linecap="butt"  stroke-linejoin="miter"  stroke-miterlimit="10.0000" fill="none" />
</g>
<g transform="matrix(1.0000 0.0000 0.0000 1.0000 0.0000 0.0000)">
</g>
<g transform="matrix(0.0625 0.0000 0.0000 0.0625 0.0000 0.0000)">
<path d="M 892.0000,3690.0000 L 932.0000,3690.0000 " stroke="#000000" stroke-width="16.0000"  stroke-linecap="butt"  stroke-linejoin="miter"  stroke-miterlimit="10.0000" fill="none" />
</g>
<g transform="matrix(1.0000 0.0000 0.0000 1.0000 0.0000 0.0000)">
</g>
<g transform="matrix(0.0625 0.0000 0.0000 0.0625 0.0000 0.0000)">
<path d="M 892.0000,3369.0000 L 852.0000,3369.0000 " stroke="#000000" stroke-width="16.0000"  stroke-linecap="butt"  stroke-linejoin="miter"  stroke-miterlimit="10.0000" fill="none" />
</g>
<g transform="matrix(1.0000 0.0000 0.0000 1.0000 0.0000 0.0000)">
</g>
<g transform="matrix(0.0625 0.0000 0.0000 0.0625 0.0000 0.0000)">
<path d="M 892.0000,3369.0000 L 932.0000,3369.0000 " stroke="#000000" stroke-width="16.0000"  stroke-linecap="butt"  stroke-linejoin="miter"  stroke-miterlimit="10.0000" fill="none" />
</g>
<g transform="matrix(1.0000 0.0000 0.0000 1.0000 0.0000 0.0000)">
</g>
<g transform="matrix(0.0625 0.0000 0.0000 0.0625 0.0000 0.0000)">
<path d="M 892.0000,3208.0000 L 852.0000,3208.0000 " stroke="#000000" stroke-width="16.0000"  stroke-linecap="butt"  stroke-linejoin="miter"  stroke-miterlimit="10.0000" fill="none" />
</g>
<g transform="matrix(1.0000 0.0000 0.0000 1.0000 0.0000 0.0000)">
</g>
<g transform="matrix(0.0625 0.0000 0.0000 0.0625 0.0000 0.0000)">
<path d="M 892.0000,3208.0000 L 932.0000,3208.0000 " stroke="#000000" stroke-width="16.0000"  stroke-linecap="butt"  stroke-linejoin="miter"  stroke-miterlimit="10.0000" fill="none" />
</g>
<g transform="matrix(1.0000 0.0000 0.0000 1.0000 0.0000 0.0000)">
</g>
<g transform="matrix(0.0625 0.0000 0.0000 0.0625 0.0000 0.0000)">
<path d="M 892.0000,3047.0000 L 852.0000,3047.0000 " stroke="#000000" stroke-width="16.0000"  stroke-linecap="butt"  stroke-linejoin="miter"  stroke-miterlimit="10.0000" fill="none" />
</g>
<g transform="matrix(1.0000 0.0000 0.0000 1.0000 0.0000 0.0000)">
</g>
<g transform="matrix(0.0625 0.0000 0.0000 0.0625 0.0000 0.0000)">
<path d="M 892.0000,3047.0000 L 932.0000,3047.0000 " stroke="#000000" stroke-width="16.0000"  stroke-linecap="butt"  stroke-linejoin="miter"  stroke-miterlimit="10.0000" fill="none" />
</g>
<g transform="matrix(1.0000 0.0000 0.0000 1.0000 0.0000 0.0000)">
</g>
<g transform="matrix(0.0625 0.0000 0.0000 0.0625 0.0000 0.0000)">
<path d="M 892.0000,2886.0000 L 852.0000,2886.0000 " stroke="#000000" stroke-width="16.0000"  stroke-linecap="butt"  stroke-linejoin="miter"  stroke-miterlimit="10.0000" fill="none" />
</g>
<g transform="matrix(1.0000 0.0000 0.0000 1.0000 0.0000 0.0000)">
</g>
<g transform="matrix(0.0625 0.0000 0.0000 0.0625 0.0000 0.0000)">
<path d="M 892.0000,2886.0000 L 932.0000,2886.0000 " stroke="#000000" stroke-width="16.0000"  stroke-linecap="butt"  stroke-linejoin="miter"  stroke-miterlimit="10.0000" fill="none" />
</g>
<g transform="matrix(1.0000 0.0000 0.0000 1.0000 0.0000 0.0000)">
</g>
<g transform="matrix(0.0625 0.0000 0.0000 0.0625 0.0000 0.0000)">
<path d="M 892.0000,2564.0000 L 852.0000,2564.0000 " stroke="#000000" stroke-width="16.0000"  stroke-linecap="butt"  stroke-linejoin="miter"  stroke-miterlimit="10.0000" fill="none" />
</g>
<g transform="matrix(1.0000 0.0000 0.0000 1.0000 0.0000 0.0000)">
</g>
<g transform="matrix(0.0625 0.0000 0.0000 0.0625 0.0000 0.0000)">
<path d="M 892.0000,2564.0000 L 932.0000,2564.0000 " stroke="#000000" stroke-width="16.0000"  stroke-linecap="butt"  stroke-linejoin="miter"  stroke-miterlimit="10.0000" fill="none" />
</g>
<g transform="matrix(1.0000 0.0000 0.0000 1.0000 0.0000 0.0000)">
</g>
<g transform="matrix(0.0625 0.0000 0.0000 0.0625 0.0000 0.0000)">
<path d="M 892.0000,2404.0000 L 852.0000,2404.0000 " stroke="#000000" stroke-width="16.0000"  stroke-linecap="butt"  stroke-linejoin="miter"  stroke-miterlimit="10.0000" fill="none" />
</g>
<g transform="matrix(1.0000 0.0000 0.0000 1.0000 0.0000 0.0000)">
</g>
<g transform="matrix(0.0625 0.0000 0.0000 0.0625 0.0000 0.0000)">
<path d="M 892.0000,2404.0000 L 932.0000,2404.0000 " stroke="#000000" stroke-width="16.0000"  stroke-linecap="butt"  stroke-linejoin="miter"  stroke-miterlimit="10.0000" fill="none" />
</g>
<g transform="matrix(1.0000 0.0000 0.0000 1.0000 0.0000 0.0000)">
</g>
<g transform="matrix(0.0625 0.0000 0.0000 0.0625 0.0000 0.0000)">
<path d="M 892.0000,2243.0000 L 852.0000,2243.0000 " stroke="#000000" stroke-width="16.0000"  stroke-linecap="butt"  stroke-linejoin="miter"  stroke-miterlimit="10.0000" fill="none" />
</g>
<g transform="matrix(1.0000 0.0000 0.0000 1.0000 0.0000 0.0000)">
</g>
<g transform="matrix(0.0625 0.0000 0.0000 0.0625 0.0000 0.0000)">
<path d="M 892.0000,2243.0000 L 932.0000,2243.0000 " stroke="#000000" stroke-width="16.0000"  stroke-linecap="butt"  stroke-linejoin="miter"  stroke-miterlimit="10.0000" fill="none" />
</g>
<g transform="matrix(1.0000 0.0000 0.0000 1.0000 0.0000 0.0000)">
</g>
<g transform="matrix(0.0625 0.0000 0.0000 0.0625 0.0000 0.0000)">
<path d="M 892.0000,2082.0000 L 852.0000,2082.0000 " stroke="#000000" stroke-width="16.0000"  stroke-linecap="butt"  stroke-linejoin="miter"  stroke-miterlimit="10.0000" fill="none" />
</g>
<g transform="matrix(1.0000 0.0000 0.0000 1.0000 0.0000 0.0000)">
</g>
<g transform="matrix(0.0625 0.0000 0.0000 0.0625 0.0000 0.0000)">
<path d="M 892.0000,2082.0000 L 932.0000,2082.0000 " stroke="#000000" stroke-width="16.0000"  stroke-linecap="butt"  stroke-linejoin="miter"  stroke-miterlimit="10.0000" fill="none" />
</g>
<g transform="matrix(1.0000 0.0000 0.0000 1.0000 0.0000 0.0000)">
</g>
<g transform="matrix(0.0625 0.0000 0.0000 0.0625 0.0000 0.0000)">
<path d="M 892.0000,1760.0000 L 852.0000,1760.0000 " stroke="#000000" stroke-width="16.0000"  stroke-linecap="butt"  stroke-linejoin="miter"  stroke-miterlimit="10.0000" fill="none" />
</g>
<g transform="matrix(1.0000 0.0000 0.0000 1.0000 0.0000 0.0000)">
</g>
<g transform="matrix(0.0625 0.0000 0.0000 0.0625 0.0000 0.0000)">
<path d="M 892.0000,1760.0000 L 932.0000,1760.0000 " stroke="#000000" stroke-width="16.0000"  stroke-linecap="butt"  stroke-linejoin="miter"  stroke-miterlimit="10.0000" fill="none" />
</g>
<g transform="matrix(1.0000 0.0000 0.0000 1.0000 0.0000 0.0000)">
</g>
<g transform="matrix(0.0625 0.0000 0.0000 0.0625 0.0000 0.0000)">
<path d="M 892.0000,1599.0000 L 852.0000,1599.0000 " stroke="#000000" stroke-width="16.0000"  stroke-linecap="butt"  stroke-linejoin="miter"  stroke-miterlimit="10.0000" fill="none" />
</g>
<g transform="matrix(1.0000 0.0000 0.0000 1.0000 0.0000 0.0000)">
</g>
<g transform="matrix(0.0625 0.0000 0.0000 0.0625 0.0000 0.0000)">
<path d="M 892.0000,1599.0000 L 932.0000,1599.0000 " stroke="#000000" stroke-width="16.0000"  stroke-linecap="butt"  stroke-linejoin="miter"  stroke-miterlimit="10.0000" fill="none" />
</g>
<g transform="matrix(1.0000 0.0000 0.0000 1.0000 0.0000 0.0000)">
</g>
<g transform="matrix(0.0625 0.0000 0.0000 0.0625 0.0000 0.0000)">
<path d="M 892.0000,1438.0000 L 852.0000,1438.0000 " stroke="#000000" stroke-width="16.0000"  stroke-linecap="butt"  stroke-linejoin="miter"  stroke-miterlimit="10.0000" fill="none" />
</g>
<g transform="matrix(1.0000 0.0000 0.0000 1.0000 0.0000 0.0000)">
</g>
<g transform="matrix(0.0625 0.0000 0.0000 0.0625 0.0000 0.0000)">
<path d="M 892.0000,1438.0000 L 932.0000,1438.0000 " stroke="#000000" stroke-width="16.0000"  stroke-linecap="butt"  stroke-linejoin="miter"  stroke-miterlimit="10.0000" fill="none" />
</g>
<g transform="matrix(1.0000 0.0000 0.0000 1.0000 0.0000 0.0000)">
</g>
<g transform="matrix(0.0625 0.0000 0.0000 0.0625 0.0000 0.0000)">
<path d="M 892.0000,1278.0000 L 852.0000,1278.0000 " stroke="#000000" stroke-width="16.0000"  stroke-linecap="butt"  stroke-linejoin="miter"  stroke-miterlimit="10.0000" fill="none" />
</g>
<g transform="matrix(1.0000 0.0000 0.0000 1.0000 0.0000 0.0000)">
</g>
<g transform="matrix(0.0625 0.0000 0.0000 0.0625 0.0000 0.0000)">
<path d="M 892.0000,1278.0000 L 932.0000,1278.0000 " stroke="#000000" stroke-width="16.0000"  stroke-linecap="butt"  stroke-linejoin="miter"  stroke-miterlimit="10.0000" fill="none" />
</g>
<g transform="matrix(1.0000 0.0000 0.0000 1.0000 0.0000 0.0000)">
</g>
<g transform="matrix(0.0625 0.0000 0.0000 0.0625 0.0000 0.0000)">
<path d="M 892.0000,956.0000 L 852.0000,956.0000 " stroke="#000000" stroke-width="16.0000"  stroke-linecap="butt"  stroke-linejoin="miter"  stroke-miterlimit="10.0000" fill="none" />
</g>
<g transform="matrix(1.0000 0.0000 0.0000 1.0000 0.0000 0.0000)">
</g>
<g transform="matrix(0.0625 0.0000 0.0000 0.0625 0.0000 0.0000)">
<path d="M 892.0000,956.0000 L 932.0000,956.0000 " stroke="#000000" stroke-width="16.0000"  stroke-linecap="butt"  stroke-linejoin="miter"  stroke-miterlimit="10.0000" fill="none" />
</g>
<g transform="matrix(1.0000 0.0000 0.0000 1.0000 0.0000 0.0000)">
</g>
<g transform="matrix(0.0625 0.0000 0.0000 0.0625 0.0000 0.0000)">
<path d="M 892.0000,795.0000 L 852.0000,795.0000 " stroke="#000000" stroke-width="16.0000"  stroke-linecap="butt"  stroke-linejoin="miter"  stroke-miterlimit="10.0000" fill="none" />
</g>
<g transform="matrix(1.0000 0.0000 0.0000 1.0000 0.0000 0.0000)">
</g>
<g transform="matrix(0.0625 0.0000 0.0000 0.0625 0.0000 0.0000)">
<path d="M 892.0000,795.0000 L 932.0000,795.0000 " stroke="#000000" stroke-width="16.0000"  stroke-linecap="butt"  stroke-linejoin="miter"  stroke-miterlimit="10.0000" fill="none" />
</g>
<g transform="matrix(1.0000 0.0000 0.0000 1.0000 0.0000 0.0000)">
</g>
<g transform="matrix(0.0625 0.0000 0.0000 0.0625 0.0000 0.0000)">
<path d="M 892.0000,634.0000 L 852.0000,634.0000 " stroke="#000000" stroke-width="16.0000"  stroke-linecap="butt"  stroke-linejoin="miter"  stroke-miterlimit="10.0000" fill="none" />
</g>
<g transform="matrix(1.0000 0.0000 0.0000 1.0000 0.0000 0.0000)">
</g>
<g transform="matrix(0.0625 0.0000 0.0000 0.0625 0.0000 0.0000)">
<path d="M 892.0000,634.0000 L 932.0000,634.0000 " stroke="#000000" stroke-width="16.0000"  stroke-linecap="butt"  stroke-linejoin="miter"  stroke-miterlimit="10.0000" fill="none" />
</g>
<g transform="matrix(1.0000 0.0000 0.0000 1.0000 0.0000 0.0000)">
</g>
<g transform="matrix(0.0625 0.0000 0.0000 0.0625 0.0000 0.0000)">
<path d="M 892.0000,473.0000 L 852.0000,473.0000 " stroke="#000000" stroke-width="16.0000"  stroke-linecap="butt"  stroke-linejoin="miter"  stroke-miterlimit="10.0000" fill="none" />
</g>
<g transform="matrix(1.0000 0.0000 0.0000 1.0000 0.0000 0.0000)">
</g>
<g transform="matrix(0.0625 0.0000 0.0000 0.0625 0.0000 0.0000)">
<path d="M 892.0000,473.0000 L 932.0000,473.0000 " stroke="#000000" stroke-width="16.0000"  stroke-linecap="butt"  stroke-linejoin="miter"  stroke-miterlimit="10.0000" fill="none" />
</g>
<g transform="matrix(1.0000 0.0000 0.0000 1.0000 0.0000 0.0000)">
</g>
<g transform="matrix(0.0625 0.0000 0.0000 0.0625 0.0000 0.0000)">
<path d="M 3504.0000,3808.0000 C 3504.0000,3853.0000 3469.0000,3888.0000 3424.0000,3888.0000 C 3380.0000,3888.0000 3344.0000,3853.0000 3344.0000,3808.0000 C 3344.0000,3764.0000 3380.0000,3728.0000 3424.0000,3728.0000 C 3469.0000,3728.0000 3504.0000,3764.0000 3504.0000,3808.0000 "  fill="#808080" stroke="none" />
</g>
<g transform="matrix(1.0000 0.0000 0.0000 1.0000 0.0000 0.0000)">
</g>
<g transform="matrix(0.0625 0.0000 0.0000 0.0625 0.0000 0.0000)">
<path d="M 3456.0000,3808.0000 C 3456.0000,3853.0000 3421.0000,3888.0000 3376.0000,3888.0000 C 3332.0000,3888.0000 3296.0000,3853.0000 3296.0000,3808.0000 C 3296.0000,3764.0000 3332.0000,3728.0000 3376.0000,3728.0000 C 3421.0000,3728.0000 3456.0000,3764.0000 3456.0000,3808.0000 "  fill="#808080" stroke="none" />
</g>
<g transform="matrix(1.0000 0.0000 0.0000 1.0000 0.0000 0.0000)">
</g>
<g transform="matrix(0.0625 0.0000 0.0000 0.0625 0.0000 0.0000)">
<path d="M 3408.0000,3952.0000 C 3408.0000,3997.0000 3373.0000,4032.0000 3328.0000,4032.0000 C 3284.0000,4032.0000 3248.0000,3997.0000 3248.0000,3952.0000 C 3248.0000,3908.0000 3284.0000,3872.0000 3328.0000,3872.0000 C 3373.0000,3872.0000 3408.0000,3908.0000 3408.0000,3952.0000 "  fill="#808080" stroke="none" />
</g>
<g transform="matrix(1.0000 0.0000 0.0000 1.0000 0.0000 0.0000)">
</g>
<g transform="matrix(0.0625 0.0000 0.0000 0.0625 0.0000 0.0000)">
<path d="M 3520.0000,3984.0000 C 3520.0000,4029.0000 3485.0000,4064.0000 3440.0000,4064.0000 C 3396.0000,4064.0000 3360.0000,4029.0000 3360.0000,3984.0000 C 3360.0000,3940.0000 3396.0000,3904.0000 3440.0000,3904.0000 C 3485.0000,3904.0000 3520.0000,3940.0000 3520.0000,3984.0000 "  fill="#808080" stroke="none" />
</g>
<g transform="matrix(1.0000 0.0000 0.0000 1.0000 0.0000 0.0000)">
</g>
<g transform="matrix(0.0625 0.0000 0.0000 0.0625 0.0000 0.0000)">
<path d="M 3552.0000,4240.0000 C 3552.0000,4285.0000 3517.0000,4320.0000 3472.0000,4320.0000 C 3428.0000,4320.0000 3392.0000,4285.0000 3392.0000,4240.0000 C 3392.0000,4196.0000 3428.0000,4160.0000 3472.0000,4160.0000 C 3517.0000,4160.0000 3552.0000,4196.0000 3552.0000,4240.0000 "  fill="#808080" stroke="none" />
</g>
<g transform="matrix(1.0000 0.0000 0.0000 1.0000 0.0000 0.0000)">
</g>
<g transform="matrix(0.0625 0.0000 0.0000 0.0625 0.0000 0.0000)">
<path d="M 3632.0000,4256.0000 C 3632.0000,4301.0000 3597.0000,4336.0000 3552.0000,4336.0000 C 3508.0000,4336.0000 3472.0000,4301.0000 3472.0000,4256.0000 C 3472.0000,4212.0000 3508.0000,4176.0000 3552.0000,4176.0000 C 3597.0000,4176.0000 3632.0000,4212.0000 3632.0000,4256.0000 "  fill="#808080" stroke="none" />
</g>
<g transform="matrix(1.0000 0.0000 0.0000 1.0000 0.0000 0.0000)">
</g>
<g transform="matrix(0.0625 0.0000 0.0000 0.0625 0.0000 0.0000)">
<path d="M 3808.0000,4304.0000 C 3808.0000,4349.0000 3773.0000,4384.0000 3728.0000,4384.0000 C 3684.0000,4384.0000 3648.0000,4349.0000 3648.0000,4304.0000 C 3648.0000,4260.0000 3684.0000,4224.0000 3728.0000,4224.0000 C 3773.0000,4224.0000 3808.0000,4260.0000 3808.0000,4304.0000 "  fill="#808080" stroke="none" />
</g>
<g transform="matrix(1.0000 0.0000 0.0000 1.0000 0.0000 0.0000)">
</g>
<g transform="matrix(0.0625 0.0000 0.0000 0.0625 0.0000 0.0000)">
<path d="M 4592.0000,4320.0000 C 4592.0000,4365.0000 4557.0000,4400.0000 4512.0000,4400.0000 C 4468.0000,4400.0000 4432.0000,4365.0000 4432.0000,4320.0000 C 4432.0000,4276.0000 4468.0000,4240.0000 4512.0000,4240.0000 C 4557.0000,4240.0000 4592.0000,4276.0000 4592.0000,4320.0000 "  fill="#808080" stroke="none" />
</g>
<g transform="matrix(1.0000 0.0000 0.0000 1.0000 0.0000 0.0000)">
</g>
<g transform="matrix(0.0625 0.0000 0.0000 0.0625 0.0000 0.0000)">
<path d="M 4064.0000,4816.0000 C 4064.0000,4861.0000 4029.0000,4896.0000 3984.0000,4896.0000 C 3940.0000,4896.0000 3904.0000,4861.0000 3904.0000,4816.0000 C 3904.0000,4772.0000 3940.0000,4736.0000 3984.0000,4736.0000 C 4029.0000,4736.0000 4064.0000,4772.0000 4064.0000,4816.0000 "  fill="#808080" stroke="none" />
</g>
<g transform="matrix(1.0000 0.0000 0.0000 1.0000 0.0000 0.0000)">
</g>
<g transform="matrix(0.0625 0.0000 0.0000 0.0625 0.0000 0.0000)">
<path d="M 2720.0000,4864.0000 C 2720.0000,4909.0000 2685.0000,4944.0000 2640.0000,4944.0000 C 2596.0000,4944.0000 2560.0000,4909.0000 2560.0000,4864.0000 C 2560.0000,4820.0000 2596.0000,4784.0000 2640.0000,4784.0000 C 2685.0000,4784.0000 2720.0000,4820.0000 2720.0000,4864.0000 "  fill="#808080" stroke="none" />
</g>
<g transform="matrix(1.0000 0.0000 0.0000 1.0000 0.0000 0.0000)">
</g>
<g transform="matrix(0.0625 0.0000 0.0000 0.0625 0.0000 0.0000)">
<path d="M 3088.0000,5024.0000 C 3088.0000,5069.0000 3053.0000,5104.0000 3008.0000,5104.0000 C 2964.0000,5104.0000 2928.0000,5069.0000 2928.0000,5024.0000 C 2928.0000,4980.0000 2964.0000,4944.0000 3008.0000,4944.0000 C 3053.0000,4944.0000 3088.0000,4980.0000 3088.0000,5024.0000 "  fill="#808080" stroke="none" />
</g>
<g transform="matrix(1.0000 0.0000 0.0000 1.0000 0.0000 0.0000)">
</g>
<g transform="matrix(0.0625 0.0000 0.0000 0.0625 0.0000 0.0000)">
<path d="M 3312.0000,5024.0000 C 3312.0000,5069.0000 3277.0000,5104.0000 3232.0000,5104.0000 C 3188.0000,5104.0000 3152.0000,5069.0000 3152.0000,5024.0000 C 3152.0000,4980.0000 3188.0000,4944.0000 3232.0000,4944.0000 C 3277.0000,4944.0000 3312.0000,4980.0000 3312.0000,5024.0000 "  fill="#808080" stroke="none" />
</g>
<g transform="matrix(1.0000 0.0000 0.0000 1.0000 0.0000 0.0000)">
<defs><clipPath id="clip-41"><path d="M 56.0000,20.0000 L 342.0000,20.0000 L 342.0000,322.0000 L 56.0000,322.0000 L 56.0000,20.0000 Z Z" /></clipPath></defs>
</g>
<g transform="matrix(0.0625 0.0000 0.0000 0.0625 0.0000 0.0000)">
<path d="M 3264.0000,5072.0000 C 3264.0000,5117.0000 3229.0000,5152.0000 3184.0000,5152.0000 C 3140.0000,5152.0000 3104.0000,5117.0000 3104.0000,5072.0000 C 3104.0000,5028.0000 3140.0000,4992.0000 3184.0000,4992.0000 C 3229.0000,4992.0000 3264.0000,5028.0000 3264.0000,5072.0000 "  fill="#808080" stroke="none" />
</g>
<g transform="matrix(1.0000 0.0000 0.0000 1.0000 0.0000 0.0000)">
<defs><clipPath id="clip-18467"><path d="M 56.0000,20.0000 L 342.0000,20.0000 L 342.0000,322.0000 L 56.0000,322.0000 L 56.0000,20.0000 Z Z" /></clipPath></defs>
</g>
<g transform="matrix(0.0625 0.0000 0.0000 0.0625 0.0000 0.0000)">
<path d="M 3200.0000,5072.0000 C 3200.0000,5117.0000 3165.0000,5152.0000 3120.0000,5152.0000 C 3076.0000,5152.0000 3040.0000,5117.0000 3040.0000,5072.0000 C 3040.0000,5028.0000 3076.0000,4992.0000 3120.0000,4992.0000 C 3165.0000,4992.0000 3200.0000,5028.0000 3200.0000,5072.0000 "  fill="#808080" stroke="none" />
</g>
<g transform="matrix(1.0000 0.0000 0.0000 1.0000 0.0000 0.0000)">
</g>
<g transform="matrix(0.0625 0.0000 0.0000 0.0625 0.0000 0.0000)">
<path d="M 3344.0000,4784.0000 C 3344.0000,4837.0000 3301.0000,4880.0000 3248.0000,4880.0000 C 3195.0000,4880.0000 3152.0000,4837.0000 3152.0000,4784.0000 C 3152.0000,4731.0000 3195.0000,4688.0000 3248.0000,4688.0000 C 3301.0000,4688.0000 3344.0000,4731.0000 3344.0000,4784.0000 "  fill="#008000" stroke="none" />
</g>
<g transform="matrix(1.0000 0.0000 0.0000 1.0000 0.0000 0.0000)">
</g>
<g transform="matrix(0.0625 0.0000 0.0000 0.0625 0.0000 0.0000)">
<path d="M 3200.0000,4816.0000 C 3200.0000,4869.0000 3157.0000,4912.0000 3104.0000,4912.0000 C 3051.0000,4912.0000 3008.0000,4869.0000 3008.0000,4816.0000 C 3008.0000,4763.0000 3051.0000,4720.0000 3104.0000,4720.0000 C 3157.0000,4720.0000 3200.0000,4763.0000 3200.0000,4816.0000 "  fill="#008000" stroke="none" />
</g>
<g transform="matrix(1.0000 0.0000 0.0000 1.0000 0.0000 0.0000)">
</g>
<g transform="matrix(0.0625 0.0000 0.0000 0.0625 0.0000 0.0000)">
<path d="M 3296.0000,4880.0000 C 3296.0000,4933.0000 3253.0000,4976.0000 3200.0000,4976.0000 C 3147.0000,4976.0000 3104.0000,4933.0000 3104.0000,4880.0000 C 3104.0000,4827.0000 3147.0000,4784.0000 3200.0000,4784.0000 C 3253.0000,4784.0000 3296.0000,4827.0000 3296.0000,4880.0000 "  fill="#008000" stroke="none" />
</g>
<g transform="matrix(1.0000 0.0000 0.0000 1.0000 0.0000 0.0000)">
<defs><clipPath id="clip-6334"><path d="M 56.0000,20.0000 L 342.0000,20.0000 L 342.0000,322.0000 L 56.0000,322.0000 L 56.0000,20.0000 Z Z" /></clipPath></defs>
</g>
<g transform="matrix(0.0625 0.0000 0.0000 0.0625 0.0000 0.0000)">
<path d="M 3216.0000,5072.0000 C 3216.0000,5125.0000 3173.0000,5168.0000 3120.0000,5168.0000 C 3067.0000,5168.0000 3024.0000,5125.0000 3024.0000,5072.0000 C 3024.0000,5019.0000 3067.0000,4976.0000 3120.0000,4976.0000 C 3173.0000,4976.0000 3216.0000,5019.0000 3216.0000,5072.0000 "  fill="#008000" stroke="none" />
</g>
<g transform="matrix(1.0000 0.0000 0.0000 1.0000 0.0000 0.0000)">
<defs><clipPath id="clip-26500"><path d="M 56.0000,20.0000 L 342.0000,20.0000 L 342.0000,322.0000 L 56.0000,322.0000 L 56.0000,20.0000 Z Z" /></clipPath></defs>
</g>
<g transform="matrix(0.0625 0.0000 0.0000 0.0625 0.0000 0.0000)">
<path d="M 3280.0000,5072.0000 C 3280.0000,5125.0000 3237.0000,5168.0000 3184.0000,5168.0000 C 3131.0000,5168.0000 3088.0000,5125.0000 3088.0000,5072.0000 C 3088.0000,5019.0000 3131.0000,4976.0000 3184.0000,4976.0000 C 3237.0000,4976.0000 3280.0000,5019.0000 3280.0000,5072.0000 "  fill="#008000" stroke="none" />
</g>
<g transform="matrix(1.0000 0.0000 0.0000 1.0000 0.0000 0.0000)">
<defs><clipPath id="clip-19169"><path d="M 56.0000,20.0000 L 342.0000,20.0000 L 342.0000,322.0000 L 56.0000,322.0000 L 56.0000,20.0000 Z Z" /></clipPath></defs>
</g>
<g transform="matrix(0.0625 0.0000 0.0000 0.0625 0.0000 0.0000)">
<path d="M 3296.0000,5072.0000 C 3296.0000,5125.0000 3253.0000,5168.0000 3200.0000,5168.0000 C 3147.0000,5168.0000 3104.0000,5125.0000 3104.0000,5072.0000 C 3104.0000,5019.0000 3147.0000,4976.0000 3200.0000,4976.0000 C 3253.0000,4976.0000 3296.0000,5019.0000 3296.0000,5072.0000 "  fill="#008000" stroke="none" />
</g>
<g transform="matrix(1.0000 0.0000 0.0000 1.0000 0.0000 0.0000)">
<defs><clipPath id="clip-15724"><path d="M 56.0000,20.0000 L 342.0000,20.0000 L 342.0000,322.0000 L 56.0000,322.0000 L 56.0000,20.0000 Z Z" /></clipPath></defs>
</g>
<g transform="matrix(0.0625 0.0000 0.0000 0.0625 0.0000 0.0000)">
<path d="M 3280.0000,5088.0000 C 3280.0000,5141.0000 3237.0000,5184.0000 3184.0000,5184.0000 C 3131.0000,5184.0000 3088.0000,5141.0000 3088.0000,5088.0000 C 3088.0000,5035.0000 3131.0000,4992.0000 3184.0000,4992.0000 C 3237.0000,4992.0000 3280.0000,5035.0000 3280.0000,5088.0000 "  fill="#008000" stroke="none" />
</g>
<g transform="matrix(1.0000 0.0000 0.0000 1.0000 0.0000 0.0000)">
</g>
<g transform="matrix(0.0625 0.0000 0.0000 0.0625 0.0000 0.0000)">
<path d="M 4048.0000,1312.0000 C 4048.0000,1365.0000 4005.0000,1408.0000 3952.0000,1408.0000 C 3899.0000,1408.0000 3856.0000,1365.0000 3856.0000,1312.0000 C 3856.0000,1259.0000 3899.0000,1216.0000 3952.0000,1216.0000 C 4005.0000,1216.0000 4048.0000,1259.0000 4048.0000,1312.0000 "  fill="#FF8000" stroke="none" />
</g>
<g transform="matrix(1.0000 0.0000 0.0000 1.0000 0.0000 0.0000)">
</g>
<g transform="matrix(0.0625 0.0000 0.0000 0.0625 0.0000 0.0000)">
<path d="M 4064.0000,1936.0000 C 4064.0000,1989.0000 4021.0000,2032.0000 3968.0000,2032.0000 C 3915.0000,2032.0000 3872.0000,1989.0000 3872.0000,1936.0000 C 3872.0000,1883.0000 3915.0000,1840.0000 3968.0000,1840.0000 C 4021.0000,1840.0000 4064.0000,1883.0000 4064.0000,1936.0000 "  fill="#FF8000" stroke="none" />
</g>
<g transform="matrix(1.0000 0.0000 0.0000 1.0000 0.0000 0.0000)">
</g>
<g transform="matrix(0.0625 0.0000 0.0000 0.0625 0.0000 0.0000)">
<path d="M 4048.0000,2256.0000 C 4048.0000,2309.0000 4005.0000,2352.0000 3952.0000,2352.0000 C 3899.0000,2352.0000 3856.0000,2309.0000 3856.0000,2256.0000 C 3856.0000,2203.0000 3899.0000,2160.0000 3952.0000,2160.0000 C 4005.0000,2160.0000 4048.0000,2203.0000 4048.0000,2256.0000 "  fill="#FF8000" stroke="none" />
</g>
<g transform="matrix(1.0000 0.0000 0.0000 1.0000 0.0000 0.0000)">
</g>
<g transform="matrix(0.0625 0.0000 0.0000 0.0625 0.0000 0.0000)">
<path d="M 4160.0000,2720.0000 C 4160.0000,2773.0000 4117.0000,2816.0000 4064.0000,2816.0000 C 4011.0000,2816.0000 3968.0000,2773.0000 3968.0000,2720.0000 C 3968.0000,2667.0000 4011.0000,2624.0000 4064.0000,2624.0000 C 4117.0000,2624.0000 4160.0000,2667.0000 4160.0000,2720.0000 "  fill="#FF8000" stroke="none" />
</g>
<g transform="matrix(1.0000 0.0000 0.0000 1.0000 0.0000 0.0000)">
</g>
<g transform="matrix(0.0625 0.0000 0.0000 0.0625 0.0000 0.0000)">
<path d="M 3936.0000,2752.0000 C 3936.0000,2805.0000 3893.0000,2848.0000 3840.0000,2848.0000 C 3787.0000,2848.0000 3744.0000,2805.0000 3744.0000,2752.0000 C 3744.0000,2699.0000 3787.0000,2656.0000 3840.0000,2656.0000 C 3893.0000,2656.0000 3936.0000,2699.0000 3936.0000,2752.0000 "  fill="#FF8000" stroke="none" />
</g>
<g transform="matrix(1.0000 0.0000 0.0000 1.0000 0.0000 0.0000)">
</g>
<g transform="matrix(0.0625 0.0000 0.0000 0.0625 0.0000 0.0000)">
<path d="M 4080.0000,2944.0000 C 4080.0000,2997.0000 4037.0000,3040.0000 3984.0000,3040.0000 C 3931.0000,3040.0000 3888.0000,2997.0000 3888.0000,2944.0000 C 3888.0000,2891.0000 3931.0000,2848.0000 3984.0000,2848.0000 C 4037.0000,2848.0000 4080.0000,2891.0000 4080.0000,2944.0000 "  fill="#FF8000" stroke="none" />
</g>
<g transform="matrix(1.0000 0.0000 0.0000 1.0000 0.0000 0.0000)">
</g>
<g transform="matrix(0.0625 0.0000 0.0000 0.0625 0.0000 0.0000)">
<path d="M 3808.0000,3376.0000 C 3808.0000,3429.0000 3765.0000,3472.0000 3712.0000,3472.0000 C 3659.0000,3472.0000 3616.0000,3429.0000 3616.0000,3376.0000 C 3616.0000,3323.0000 3659.0000,3280.0000 3712.0000,3280.0000 C 3765.0000,3280.0000 3808.0000,3323.0000 3808.0000,3376.0000 "  fill="#FF8000" stroke="none" />
</g>
<g transform="matrix(1.0000 0.0000 0.0000 1.0000 0.0000 0.0000)">
</g>
<g transform="matrix(0.0625 0.0000 0.0000 0.0625 0.0000 0.0000)">
<path d="M 3728.0000,4864.0000 C 3728.0000,4917.0000 3685.0000,4960.0000 3632.0000,4960.0000 C 3579.0000,4960.0000 3536.0000,4917.0000 3536.0000,4864.0000 C 3536.0000,4811.0000 3579.0000,4768.0000 3632.0000,4768.0000 C 3685.0000,4768.0000 3728.0000,4811.0000 3728.0000,4864.0000 "  fill="#FF8000" stroke="none" />
</g>
<g transform="matrix(1.0000 0.0000 0.0000 1.0000 0.0000 0.0000)">
</g>
<g transform="matrix(0.0625 0.0000 0.0000 0.0625 0.0000 0.0000)">
<path d="M 2096.0000,1184.0000 C 2096.0000,1237.0000 2053.0000,1280.0000 2000.0000,1280.0000 C 1947.0000,1280.0000 1904.0000,1237.0000 1904.0000,1184.0000 C 1904.0000,1131.0000 1947.0000,1088.0000 2000.0000,1088.0000 C 2053.0000,1088.0000 2096.0000,1131.0000 2096.0000,1184.0000 "  fill="#8000FF" stroke="none" />
</g>
<g transform="matrix(1.0000 0.0000 0.0000 1.0000 0.0000 0.0000)">
</g>
<g transform="matrix(0.0625 0.0000 0.0000 0.0625 0.0000 0.0000)">
<path d="M 2000.0000,1184.0000 C 2000.0000,1237.0000 1957.0000,1280.0000 1904.0000,1280.0000 C 1851.0000,1280.0000 1808.0000,1237.0000 1808.0000,1184.0000 C 1808.0000,1131.0000 1851.0000,1088.0000 1904.0000,1088.0000 C 1957.0000,1088.0000 2000.0000,1131.0000 2000.0000,1184.0000 "  fill="#8000FF" stroke="none" />
</g>
<g transform="matrix(1.0000 0.0000 0.0000 1.0000 0.0000 0.0000)">
</g>
<g transform="matrix(0.0625 0.0000 0.0000 0.0625 0.0000 0.0000)">
<path d="M 2064.0000,1488.0000 C 2064.0000,1541.0000 2021.0000,1584.0000 1968.0000,1584.0000 C 1915.0000,1584.0000 1872.0000,1541.0000 1872.0000,1488.0000 C 1872.0000,1435.0000 1915.0000,1392.0000 1968.0000,1392.0000 C 2021.0000,1392.0000 2064.0000,1435.0000 2064.0000,1488.0000 "  fill="#8000FF" stroke="none" />
</g>
<g transform="matrix(1.0000 0.0000 0.0000 1.0000 0.0000 0.0000)">
</g>
<g transform="matrix(0.0625 0.0000 0.0000 0.0625 0.0000 0.0000)">
<path d="M 1888.0000,1600.0000 C 1888.0000,1653.0000 1845.0000,1696.0000 1792.0000,1696.0000 C 1739.0000,1696.0000 1696.0000,1653.0000 1696.0000,1600.0000 C 1696.0000,1547.0000 1739.0000,1504.0000 1792.0000,1504.0000 C 1845.0000,1504.0000 1888.0000,1547.0000 1888.0000,1600.0000 "  fill="#8000FF" stroke="none" />
</g>
<g transform="matrix(1.0000 0.0000 0.0000 1.0000 0.0000 0.0000)">
</g>
<g transform="matrix(0.0625 0.0000 0.0000 0.0625 0.0000 0.0000)">
<path d="M 2080.0000,1600.0000 C 2080.0000,1653.0000 2037.0000,1696.0000 1984.0000,1696.0000 C 1931.0000,1696.0000 1888.0000,1653.0000 1888.0000,1600.0000 C 1888.0000,1547.0000 1931.0000,1504.0000 1984.0000,1504.0000 C 2037.0000,1504.0000 2080.0000,1547.0000 2080.0000,1600.0000 "  fill="#8000FF" stroke="none" />
</g>
<g transform="matrix(1.0000 0.0000 0.0000 1.0000 0.0000 0.0000)">
</g>
<g transform="matrix(0.0625 0.0000 0.0000 0.0625 0.0000 0.0000)">
<path d="M 1904.0000,1952.0000 C 1904.0000,2005.0000 1861.0000,2048.0000 1808.0000,2048.0000 C 1755.0000,2048.0000 1712.0000,2005.0000 1712.0000,1952.0000 C 1712.0000,1899.0000 1755.0000,1856.0000 1808.0000,1856.0000 C 1861.0000,1856.0000 1904.0000,1899.0000 1904.0000,1952.0000 "  fill="#8000FF" stroke="none" />
</g>
<g transform="matrix(1.0000 0.0000 0.0000 1.0000 0.0000 0.0000)">
</g>
<g transform="matrix(0.0625 0.0000 0.0000 0.0625 0.0000 0.0000)">
<path d="M 2128.0000,2144.0000 C 2128.0000,2197.0000 2085.0000,2240.0000 2032.0000,2240.0000 C 1979.0000,2240.0000 1936.0000,2197.0000 1936.0000,2144.0000 C 1936.0000,2091.0000 1979.0000,2048.0000 2032.0000,2048.0000 C 2085.0000,2048.0000 2128.0000,2091.0000 2128.0000,2144.0000 "  fill="#8000FF" stroke="none" />
</g>
<g transform="matrix(1.0000 0.0000 0.0000 1.0000 0.0000 0.0000)">
</g>
<g transform="matrix(0.0625 0.0000 0.0000 0.0625 0.0000 0.0000)">
<path d="M 1728.0000,2176.0000 C 1728.0000,2229.0000 1685.0000,2272.0000 1632.0000,2272.0000 C 1579.0000,2272.0000 1536.0000,2229.0000 1536.0000,2176.0000 C 1536.0000,2123.0000 1579.0000,2080.0000 1632.0000,2080.0000 C 1685.0000,2080.0000 1728.0000,2123.0000 1728.0000,2176.0000 "  fill="#8000FF" stroke="none" />
</g>
<g transform="matrix(1.0000 0.0000 0.0000 1.0000 0.0000 0.0000)">
</g>
<g transform="matrix(0.0625 0.0000 0.0000 0.0625 0.0000 0.0000)">
<path d="M 2064.0000,2224.0000 C 2064.0000,2277.0000 2021.0000,2320.0000 1968.0000,2320.0000 C 1915.0000,2320.0000 1872.0000,2277.0000 1872.0000,2224.0000 C 1872.0000,2171.0000 1915.0000,2128.0000 1968.0000,2128.0000 C 2021.0000,2128.0000 2064.0000,2171.0000 2064.0000,2224.0000 "  fill="#8000FF" stroke="none" />
</g>
<g transform="matrix(1.0000 0.0000 0.0000 1.0000 0.0000 0.0000)">
</g>
<g transform="matrix(0.0625 0.0000 0.0000 0.0625 0.0000 0.0000)">
<path d="M 2160.0000,2848.0000 C 2160.0000,2901.0000 2117.0000,2944.0000 2064.0000,2944.0000 C 2011.0000,2944.0000 1968.0000,2901.0000 1968.0000,2848.0000 C 1968.0000,2795.0000 2011.0000,2752.0000 2064.0000,2752.0000 C 2117.0000,2752.0000 2160.0000,2795.0000 2160.0000,2848.0000 "  fill="#8000FF" stroke="none" />
</g>
<g transform="matrix(1.0000 0.0000 0.0000 1.0000 0.0000 0.0000)">
</g>
<g transform="matrix(0.0625 0.0000 0.0000 0.0625 0.0000 0.0000)">
<path d="M 1968.0000,2848.0000 C 1968.0000,2901.0000 1925.0000,2944.0000 1872.0000,2944.0000 C 1819.0000,2944.0000 1776.0000,2901.0000 1776.0000,2848.0000 C 1776.0000,2795.0000 1819.0000,2752.0000 1872.0000,2752.0000 C 1925.0000,2752.0000 1968.0000,2795.0000 1968.0000,2848.0000 "  fill="#8000FF" stroke="none" />
</g>
<g transform="matrix(1.0000 0.0000 0.0000 1.0000 0.0000 0.0000)">
</g>
<g transform="matrix(0.0625 0.0000 0.0000 0.0625 0.0000 0.0000)">
<path d="M 2352.0000,3232.0000 C 2352.0000,3285.0000 2309.0000,3328.0000 2256.0000,3328.0000 C 2203.0000,3328.0000 2160.0000,3285.0000 2160.0000,3232.0000 C 2160.0000,3179.0000 2203.0000,3136.0000 2256.0000,3136.0000 C 2309.0000,3136.0000 2352.0000,3179.0000 2352.0000,3232.0000 "  fill="#8000FF" stroke="none" />
</g>
<g transform="matrix(1.0000 0.0000 0.0000 1.0000 0.0000 0.0000)">
<defs><clipPath id="clip-11478"><path d="M 56.0000,20.0000 L 342.0000,20.0000 L 342.0000,322.0000 L 56.0000,322.0000 L 56.0000,20.0000 Z Z" /></clipPath></defs>
</g>
<g transform="matrix(0.0625 0.0000 0.0000 0.0625 0.0000 0.0000)">
<path  clip-path="url(#clip-11478)" d="M 880.0000,4072.0000 L 928.0000,4072.0000 L 928.0000,4088.0000 L 880.0000,4088.0000 L 880.0000,4072.0000 Z M 944.0000,4072.0000 L 992.0000,4072.0000 L 992.0000,4088.0000 L 944.0000,4088.0000 L 944.0000,4072.0000 Z M 1008.0000,4072.0000 L 1056.0000,4072.0000 L 1056.0000,4088.0000 L 1008.0000,4088.0000 L 1008.0000,4072.0000 Z M 1072.0000,4072.0000 L 1120.0000,4072.0000 L 1120.0000,4088.0000 L 1072.0000,4088.0000 L 1072.0000,4072.0000 Z M 1136.0000,4072.0000 L 1184.0000,4072.0000 L 1184.0000,4088.0000 L 1136.0000,4088.0000 L 1136.0000,4072.0000 Z M 1200.0000,4072.0000 L 1248.0000,4072.0000 L 1248.0000,4088.0000 L 1200.0000,4088.0000 L 1200.0000,4072.0000 Z M 1264.0000,4072.0000 L 1312.0000,4072.0000 L 1312.0000,4088.0000 L 1264.0000,4088.0000 L 1264.0000,4072.0000 Z M 1328.0000,4072.0000 L 1376.0000,4072.0000 L 1376.0000,4088.0000 L 1328.0000,4088.0000 L 1328.0000,4072.0000 Z M 1392.0000,4072.0000 L 1440.0000,4072.0000 L 1440.0000,4088.0000 L 1392.0000,4088.0000 L 1392.0000,4072.0000 Z M 1456.0000,4072.0000 L 1504.0000,4072.0000 L 1504.0000,4088.0000 L 1456.0000,4088.0000 L 1456.0000,4072.0000 Z M 1520.0000,4072.0000 L 1568.0000,4072.0000 L 1568.0000,4088.0000 L 1520.0000,4088.0000 L 1520.0000,4072.0000 Z M 1584.0000,4072.0000 L 1632.0000,4072.0000 L 1632.0000,4088.0000 L 1584.0000,4088.0000 L 1584.0000,4072.0000 Z M 1648.0000,4072.0000 L 1696.0000,4072.0000 L 1696.0000,4088.0000 L 1648.0000,4088.0000 L 1648.0000,4072.0000 Z M 1712.0000,4072.0000 L 1760.0000,4072.0000 L 1760.0000,4088.0000 L 1712.0000,4088.0000 L 1712.0000,4072.0000 Z M 1776.0000,4072.0000 L 1824.0000,4072.0000 L 1824.0000,4088.0000 L 1776.0000,4088.0000 L 1776.0000,4072.0000 Z M 1840.0000,4072.0000 L 1888.0000,4072.0000 L 1888.0000,4088.0000 L 1840.0000,4088.0000 L 1840.0000,4072.0000 Z M 1904.0000,4072.0000 L 1952.0000,4072.0000 L 1952.0000,4088.0000 L 1904.0000,4088.0000 L 1904.0000,4072.0000 Z M 1968.0000,4072.0000 L 2016.0000,4072.0000 L 2016.0000,4088.0000 L 1968.0000,4088.0000 L 1968.0000,4072.0000 Z M 2032.0000,4072.0000 L 2080.0000,4072.0000 L 2080.0000,4088.0000 L 2032.0000,4088.0000 L 2032.0000,4072.0000 Z M 2096.0000,4072.0000 L 2144.0000,4072.0000 L 2144.0000,4088.0000 L 2096.0000,4088.0000 L 2096.0000,4072.0000 Z M 2160.0000,4072.0000 L 2208.0000,4072.0000 L 2208.0000,4088.0000 L 2160.0000,4088.0000 L 2160.0000,4072.0000 Z M 2224.0000,4072.0000 L 2272.0000,4072.0000 L 2272.0000,4088.0000 L 2224.0000,4088.0000 L 2224.0000,4072.0000 Z M 2288.0000,4072.0000 L 2336.0000,4072.0000 L 2336.0000,4088.0000 L 2288.0000,4088.0000 L 2288.0000,4072.0000 Z M 2352.0000,4072.0000 L 2400.0000,4072.0000 L 2400.0000,4088.0000 L 2352.0000,4088.0000 L 2352.0000,4072.0000 Z M 2416.0000,4072.0000 L 2464.0000,4072.0000 L 2464.0000,4088.0000 L 2416.0000,4088.0000 L 2416.0000,4072.0000 Z M 2480.0000,4072.0000 L 2528.0000,4072.0000 L 2528.0000,4088.0000 L 2480.0000,4088.0000 L 2480.0000,4072.0000 Z M 2544.0000,4072.0000 L 2592.0000,4072.0000 L 2592.0000,4088.0000 L 2544.0000,4088.0000 L 2544.0000,4072.0000 Z M 2608.0000,4072.0000 L 2656.0000,4072.0000 L 2656.0000,4088.0000 L 2608.0000,4088.0000 L 2608.0000,4072.0000 Z M 2672.0000,4072.0000 L 2720.0000,4072.0000 L 2720.0000,4088.0000 L 2672.0000,4088.0000 L 2672.0000,4072.0000 Z M 2736.0000,4072.0000 L 2784.0000,4072.0000 L 2784.0000,4088.0000 L 2736.0000,4088.0000 L 2736.0000,4072.0000 Z M 2800.0000,4072.0000 L 2848.0000,4072.0000 L 2848.0000,4088.0000 L 2800.0000,4088.0000 L 2800.0000,4072.0000 Z M 2864.0000,4072.0000 L 2912.0000,4072.0000 L 2912.0000,4088.0000 L 2864.0000,4088.0000 L 2864.0000,4072.0000 Z M 2928.0000,4072.0000 L 2976.0000,4072.0000 L 2976.0000,4088.0000 L 2928.0000,4088.0000 L 2928.0000,4072.0000 Z M 2992.0000,4072.0000 L 3040.0000,4072.0000 L 3040.0000,4088.0000 L 2992.0000,4088.0000 L 2992.0000,4072.0000 Z M 3056.0000,4072.0000 L 3104.0000,4072.0000 L 3104.0000,4088.0000 L 3056.0000,4088.0000 L 3056.0000,4072.0000 Z M 3120.0000,4072.0000 L 3168.0000,4072.0000 L 3168.0000,4088.0000 L 3120.0000,4088.0000 L 3120.0000,4072.0000 Z M 3184.0000,4072.0000 L 3232.0000,4072.0000 L 3232.0000,4088.0000 L 3184.0000,4088.0000 L 3184.0000,4072.0000 Z M 3248.0000,4072.0000 L 3296.0000,4072.0000 L 3296.0000,4088.0000 L 3248.0000,4088.0000 L 3248.0000,4072.0000 Z M 3312.0000,4072.0000 L 3360.0000,4072.0000 L 3360.0000,4088.0000 L 3312.0000,4088.0000 L 3312.0000,4072.0000 Z M 3376.0000,4072.0000 L 3424.0000,4072.0000 L 3424.0000,4088.0000 L 3376.0000,4088.0000 L 3376.0000,4072.0000 Z M 3440.0000,4072.0000 L 3488.0000,4072.0000 L 3488.0000,4088.0000 L 3440.0000,4088.0000 L 3440.0000,4072.0000 Z M 3504.0000,4072.0000 L 3552.0000,4072.0000 L 3552.0000,4088.0000 L 3504.0000,4088.0000 L 3504.0000,4072.0000 Z M 3568.0000,4072.0000 L 3616.0000,4072.0000 L 3616.0000,4088.0000 L 3568.0000,4088.0000 L 3568.0000,4072.0000 Z M 3632.0000,4072.0000 L 3680.0000,4072.0000 L 3680.0000,4088.0000 L 3632.0000,4088.0000 L 3632.0000,4072.0000 Z M 3696.0000,4072.0000 L 3744.0000,4072.0000 L 3744.0000,4088.0000 L 3696.0000,4088.0000 L 3696.0000,4072.0000 Z M 3760.0000,4072.0000 L 3808.0000,4072.0000 L 3808.0000,4088.0000 L 3760.0000,4088.0000 L 3760.0000,4072.0000 Z M 3824.0000,4072.0000 L 3872.0000,4072.0000 L 3872.0000,4088.0000 L 3824.0000,4088.0000 L 3824.0000,4072.0000 Z M 3888.0000,4072.0000 L 3936.0000,4072.0000 L 3936.0000,4088.0000 L 3888.0000,4088.0000 L 3888.0000,4072.0000 Z M 3952.0000,4072.0000 L 4000.0000,4072.0000 L 4000.0000,4088.0000 L 3952.0000,4088.0000 L 3952.0000,4072.0000 Z M 4016.0000,4072.0000 L 4064.0000,4072.0000 L 4064.0000,4088.0000 L 4016.0000,4088.0000 L 4016.0000,4072.0000 Z M 4080.0000,4072.0000 L 4128.0000,4072.0000 L 4128.0000,4088.0000 L 4080.0000,4088.0000 L 4080.0000,4072.0000 Z M 4144.0000,4072.0000 L 4192.0000,4072.0000 L 4192.0000,4088.0000 L 4144.0000,4088.0000 L 4144.0000,4072.0000 Z M 4208.0000,4072.0000 L 4256.0000,4072.0000 L 4256.0000,4088.0000 L 4208.0000,4088.0000 L 4208.0000,4072.0000 Z M 4272.0000,4072.0000 L 4320.0000,4072.0000 L 4320.0000,4088.0000 L 4272.0000,4088.0000 L 4272.0000,4072.0000 Z M 4336.0000,4072.0000 L 4384.0000,4072.0000 L 4384.0000,4088.0000 L 4336.0000,4088.0000 L 4336.0000,4072.0000 Z M 4400.0000,4072.0000 L 4448.0000,4072.0000 L 4448.0000,4088.0000 L 4400.0000,4088.0000 L 4400.0000,4072.0000 Z M 4464.0000,4072.0000 L 4512.0000,4072.0000 L 4512.0000,4088.0000 L 4464.0000,4088.0000 L 4464.0000,4072.0000 Z M 4528.0000,4072.0000 L 4576.0000,4072.0000 L 4576.0000,4088.0000 L 4528.0000,4088.0000 L 4528.0000,4072.0000 Z M 4592.0000,4072.0000 L 4640.0000,4072.0000 L 4640.0000,4088.0000 L 4592.0000,4088.0000 L 4592.0000,4072.0000 Z M 4656.0000,4072.0000 L 4704.0000,4072.0000 L 4704.0000,4088.0000 L 4656.0000,4088.0000 L 4656.0000,4072.0000 Z M 4720.0000,4072.0000 L 4768.0000,4072.0000 L 4768.0000,4088.0000 L 4720.0000,4088.0000 L 4720.0000,4072.0000 Z M 4784.0000,4072.0000 L 4832.0000,4072.0000 L 4832.0000,4088.0000 L 4784.0000,4088.0000 L 4784.0000,4072.0000 Z M 4848.0000,4072.0000 L 4896.0000,4072.0000 L 4896.0000,4088.0000 L 4848.0000,4088.0000 L 4848.0000,4072.0000 Z M 4912.0000,4072.0000 L 4960.0000,4072.0000 L 4960.0000,4088.0000 L 4912.0000,4088.0000 L 4912.0000,4072.0000 Z M 4976.0000,4072.0000 L 5024.0000,4072.0000 L 5024.0000,4088.0000 L 4976.0000,4088.0000 L 4976.0000,4072.0000 Z M 5040.0000,4072.0000 L 5088.0000,4072.0000 L 5088.0000,4088.0000 L 5040.0000,4088.0000 L 5040.0000,4072.0000 Z M 5104.0000,4072.0000 L 5152.0000,4072.0000 L 5152.0000,4088.0000 L 5104.0000,4088.0000 L 5104.0000,4072.0000 Z M 5168.0000,4072.0000 L 5216.0000,4072.0000 L 5216.0000,4088.0000 L 5168.0000,4088.0000 L 5168.0000,4072.0000 Z M 5232.0000,4072.0000 L 5280.0000,4072.0000 L 5280.0000,4088.0000 L 5232.0000,4088.0000 L 5232.0000,4072.0000 Z M 5296.0000,4072.0000 L 5344.0000,4072.0000 L 5344.0000,4088.0000 L 5296.0000,4088.0000 L 5296.0000,4072.0000 Z M 5360.0000,4072.0000 L 5408.0000,4072.0000 L 5408.0000,4088.0000 L 5360.0000,4088.0000 L 5360.0000,4072.0000 Z M 5424.0000,4072.0000 L 5456.0000,4072.0000 L 5456.0000,4088.0000 L 5424.0000,4088.0000 L 5424.0000,4072.0000 Z "  fill="#000000" stroke="#000000" stroke-width="16.0000"  stroke-linecap="butt"  stroke-linejoin="bevel" />
</g>
<g transform="matrix(1.0000 0.0000 0.0000 1.0000 0.0000 0.0000)">
<defs><clipPath id="clip-29358"><path d="M 56.0000,20.0000 L 342.0000,20.0000 L 342.0000,322.0000 L 56.0000,322.0000 L 56.0000,20.0000 Z Z" /></clipPath></defs>
</g>
<g transform="matrix(0.0625 0.0000 0.0000 0.0625 0.0000 0.0000)">
<path  clip-path="url(#clip-29358)" d="M 2392.0000,5136.0000 L 2392.0000,5088.0000 L 2408.0000,5088.0000 L 2408.0000,5136.0000 L 2392.0000,5136.0000 Z M 2392.0000,5072.0000 L 2392.0000,5024.0000 L 2408.0000,5024.0000 L 2408.0000,5072.0000 L 2392.0000,5072.0000 Z M 2392.0000,5008.0000 L 2392.0000,4960.0000 L 2408.0000,4960.0000 L 2408.0000,5008.0000 L 2392.0000,5008.0000 Z M 2392.0000,4944.0000 L 2392.0000,4896.0000 L 2408.0000,4896.0000 L 2408.0000,4944.0000 L 2392.0000,4944.0000 Z M 2392.0000,4880.0000 L 2392.0000,4832.0000 L 2408.0000,4832.0000 L 2408.0000,4880.0000 L 2392.0000,4880.0000 Z M 2392.0000,4816.0000 L 2392.0000,4768.0000 L 2408.0000,4768.0000 L 2408.0000,4816.0000 L 2392.0000,4816.0000 Z M 2392.0000,4752.0000 L 2392.0000,4704.0000 L 2408.0000,4704.0000 L 2408.0000,4752.0000 L 2392.0000,4752.0000 Z M 2392.0000,4688.0000 L 2392.0000,4640.0000 L 2408.0000,4640.0000 L 2408.0000,4688.0000 L 2392.0000,4688.0000 Z M 2392.0000,4624.0000 L 2392.0000,4576.0000 L 2408.0000,4576.0000 L 2408.0000,4624.0000 L 2392.0000,4624.0000 Z M 2392.0000,4560.0000 L 2392.0000,4512.0000 L 2408.0000,4512.0000 L 2408.0000,4560.0000 L 2392.0000,4560.0000 Z M 2392.0000,4496.0000 L 2392.0000,4448.0000 L 2408.0000,4448.0000 L 2408.0000,4496.0000 L 2392.0000,4496.0000 Z M 2392.0000,4432.0000 L 2392.0000,4384.0000 L 2408.0000,4384.0000 L 2408.0000,4432.0000 L 2392.0000,4432.0000 Z M 2392.0000,4368.0000 L 2392.0000,4320.0000 L 2408.0000,4320.0000 L 2408.0000,4368.0000 L 2392.0000,4368.0000 Z M 2392.0000,4304.0000 L 2392.0000,4256.0000 L 2408.0000,4256.0000 L 2408.0000,4304.0000 L 2392.0000,4304.0000 Z M 2392.0000,4240.0000 L 2392.0000,4192.0000 L 2408.0000,4192.0000 L 2408.0000,4240.0000 L 2392.0000,4240.0000 Z M 2392.0000,4176.0000 L 2392.0000,4128.0000 L 2408.0000,4128.0000 L 2408.0000,4176.0000 L 2392.0000,4176.0000 Z M 2392.0000,4112.0000 L 2392.0000,4064.0000 L 2408.0000,4064.0000 L 2408.0000,4112.0000 L 2392.0000,4112.0000 Z M 2392.0000,4048.0000 L 2392.0000,4000.0000 L 2408.0000,4000.0000 L 2408.0000,4048.0000 L 2392.0000,4048.0000 Z M 2392.0000,3984.0000 L 2392.0000,3936.0000 L 2408.0000,3936.0000 L 2408.0000,3984.0000 L 2392.0000,3984.0000 Z M 2392.0000,3920.0000 L 2392.0000,3872.0000 L 2408.0000,3872.0000 L 2408.0000,3920.0000 L 2392.0000,3920.0000 Z M 2392.0000,3856.0000 L 2392.0000,3808.0000 L 2408.0000,3808.0000 L 2408.0000,3856.0000 L 2392.0000,3856.0000 Z M 2392.0000,3792.0000 L 2392.0000,3744.0000 L 2408.0000,3744.0000 L 2408.0000,3792.0000 L 2392.0000,3792.0000 Z M 2392.0000,3728.0000 L 2392.0000,3680.0000 L 2408.0000,3680.0000 L 2408.0000,3728.0000 L 2392.0000,3728.0000 Z M 2392.0000,3664.0000 L 2392.0000,3616.0000 L 2408.0000,3616.0000 L 2408.0000,3664.0000 L 2392.0000,3664.0000 Z M 2392.0000,3600.0000 L 2392.0000,3552.0000 L 2408.0000,3552.0000 L 2408.0000,3600.0000 L 2392.0000,3600.0000 Z M 2392.0000,3536.0000 L 2392.0000,3488.0000 L 2408.0000,3488.0000 L 2408.0000,3536.0000 L 2392.0000,3536.0000 Z M 2392.0000,3472.0000 L 2392.0000,3424.0000 L 2408.0000,3424.0000 L 2408.0000,3472.0000 L 2392.0000,3472.0000 Z M 2392.0000,3408.0000 L 2392.0000,3360.0000 L 2408.0000,3360.0000 L 2408.0000,3408.0000 L 2392.0000,3408.0000 Z M 2392.0000,3344.0000 L 2392.0000,3296.0000 L 2408.0000,3296.0000 L 2408.0000,3344.0000 L 2392.0000,3344.0000 Z M 2392.0000,3280.0000 L 2392.0000,3232.0000 L 2408.0000,3232.0000 L 2408.0000,3280.0000 L 2392.0000,3280.0000 Z M 2392.0000,3216.0000 L 2392.0000,3168.0000 L 2408.0000,3168.0000 L 2408.0000,3216.0000 L 2392.0000,3216.0000 Z M 2392.0000,3152.0000 L 2392.0000,3104.0000 L 2408.0000,3104.0000 L 2408.0000,3152.0000 L 2392.0000,3152.0000 Z M 2392.0000,3088.0000 L 2392.0000,3040.0000 L 2408.0000,3040.0000 L 2408.0000,3088.0000 L 2392.0000,3088.0000 Z M 2392.0000,3024.0000 L 2392.0000,2976.0000 L 2408.0000,2976.0000 L 2408.0000,3024.0000 L 2392.0000,3024.0000 Z M 2392.0000,2960.0000 L 2392.0000,2912.0000 L 2408.0000,2912.0000 L 2408.0000,2960.0000 L 2392.0000,2960.0000 Z M 2392.0000,2896.0000 L 2392.0000,2848.0000 L 2408.0000,2848.0000 L 2408.0000,2896.0000 L 2392.0000,2896.0000 Z M 2392.0000,2832.0000 L 2392.0000,2784.0000 L 2408.0000,2784.0000 L 2408.0000,2832.0000 L 2392.0000,2832.0000 Z M 2392.0000,2768.0000 L 2392.0000,2720.0000 L 2408.0000,2720.0000 L 2408.0000,2768.0000 L 2392.0000,2768.0000 Z M 2392.0000,2704.0000 L 2392.0000,2656.0000 L 2408.0000,2656.0000 L 2408.0000,2704.0000 L 2392.0000,2704.0000 Z M 2392.0000,2640.0000 L 2392.0000,2592.0000 L 2408.0000,2592.0000 L 2408.0000,2640.0000 L 2392.0000,2640.0000 Z M 2392.0000,2576.0000 L 2392.0000,2528.0000 L 2408.0000,2528.0000 L 2408.0000,2576.0000 L 2392.0000,2576.0000 Z M 2392.0000,2512.0000 L 2392.0000,2464.0000 L 2408.0000,2464.0000 L 2408.0000,2512.0000 L 2392.0000,2512.0000 Z M 2392.0000,2448.0000 L 2392.0000,2400.0000 L 2408.0000,2400.0000 L 2408.0000,2448.0000 L 2392.0000,2448.0000 Z M 2392.0000,2384.0000 L 2392.0000,2336.0000 L 2408.0000,2336.0000 L 2408.0000,2384.0000 L 2392.0000,2384.0000 Z M 2392.0000,2320.0000 L 2392.0000,2272.0000 L 2408.0000,2272.0000 L 2408.0000,2320.0000 L 2392.0000,2320.0000 Z M 2392.0000,2256.0000 L 2392.0000,2208.0000 L 2408.0000,2208.0000 L 2408.0000,2256.0000 L 2392.0000,2256.0000 Z M 2392.0000,2192.0000 L 2392.0000,2144.0000 L 2408.0000,2144.0000 L 2408.0000,2192.0000 L 2392.0000,2192.0000 Z M 2392.0000,2128.0000 L 2392.0000,2080.0000 L 2408.0000,2080.0000 L 2408.0000,2128.0000 L 2392.0000,2128.0000 Z M 2392.0000,2064.0000 L 2392.0000,2016.0000 L 2408.0000,2016.0000 L 2408.0000,2064.0000 L 2392.0000,2064.0000 Z M 2392.0000,2000.0000 L 2392.0000,1952.0000 L 2408.0000,1952.0000 L 2408.0000,2000.0000 L 2392.0000,2000.0000 Z M 2392.0000,1936.0000 L 2392.0000,1888.0000 L 2408.0000,1888.0000 L 2408.0000,1936.0000 L 2392.0000,1936.0000 Z M 2392.0000,1872.0000 L 2392.0000,1824.0000 L 2408.0000,1824.0000 L 2408.0000,1872.0000 L 2392.0000,1872.0000 Z M 2392.0000,1808.0000 L 2392.0000,1760.0000 L 2408.0000,1760.0000 L 2408.0000,1808.0000 L 2392.0000,1808.0000 Z M 2392.0000,1744.0000 L 2392.0000,1696.0000 L 2408.0000,1696.0000 L 2408.0000,1744.0000 L 2392.0000,1744.0000 Z M 2392.0000,1680.0000 L 2392.0000,1632.0000 L 2408.0000,1632.0000 L 2408.0000,1680.0000 L 2392.0000,1680.0000 Z M 2392.0000,1616.0000 L 2392.0000,1568.0000 L 2408.0000,1568.0000 L 2408.0000,1616.0000 L 2392.0000,1616.0000 Z M 2392.0000,1552.0000 L 2392.0000,1504.0000 L 2408.0000,1504.0000 L 2408.0000,1552.0000 L 2392.0000,1552.0000 Z M 2392.0000,1488.0000 L 2392.0000,1440.0000 L 2408.0000,1440.0000 L 2408.0000,1488.0000 L 2392.0000,1488.0000 Z M 2392.0000,1424.0000 L 2392.0000,1376.0000 L 2408.0000,1376.0000 L 2408.0000,1424.0000 L 2392.0000,1424.0000 Z M 2392.0000,1360.0000 L 2392.0000,1312.0000 L 2408.0000,1312.0000 L 2408.0000,1360.0000 L 2392.0000,1360.0000 Z M 2392.0000,1296.0000 L 2392.0000,1248.0000 L 2408.0000,1248.0000 L 2408.0000,1296.0000 L 2392.0000,1296.0000 Z M 2392.0000,1232.0000 L 2392.0000,1184.0000 L 2408.0000,1184.0000 L 2408.0000,1232.0000 L 2392.0000,1232.0000 Z M 2392.0000,1168.0000 L 2392.0000,1120.0000 L 2408.0000,1120.0000 L 2408.0000,1168.0000 L 2392.0000,1168.0000 Z M 2392.0000,1104.0000 L 2392.0000,1056.0000 L 2408.0000,1056.0000 L 2408.0000,1104.0000 L 2392.0000,1104.0000 Z M 2392.0000,1040.0000 L 2392.0000,992.0000 L 2408.0000,992.0000 L 2408.0000,1040.0000 L 2392.0000,1040.0000 Z M 2392.0000,976.0000 L 2392.0000,928.0000 L 2408.0000,928.0000 L 2408.0000,976.0000 L 2392.0000,976.0000 Z M 2392.0000,912.0000 L 2392.0000,864.0000 L 2408.0000,864.0000 L 2408.0000,912.0000 L 2392.0000,912.0000 Z M 2392.0000,848.0000 L 2392.0000,800.0000 L 2408.0000,800.0000 L 2408.0000,848.0000 L 2392.0000,848.0000 Z M 2392.0000,784.0000 L 2392.0000,736.0000 L 2408.0000,736.0000 L 2408.0000,784.0000 L 2392.0000,784.0000 Z M 2392.0000,720.0000 L 2392.0000,672.0000 L 2408.0000,672.0000 L 2408.0000,720.0000 L 2392.0000,720.0000 Z M 2392.0000,656.0000 L 2392.0000,608.0000 L 2408.0000,608.0000 L 2408.0000,656.0000 L 2392.0000,656.0000 Z M 2392.0000,592.0000 L 2392.0000,544.0000 L 2408.0000,544.0000 L 2408.0000,592.0000 L 2392.0000,592.0000 Z M 2392.0000,528.0000 L 2392.0000,480.0000 L 2408.0000,480.0000 L 2408.0000,528.0000 L 2392.0000,528.0000 Z M 2392.0000,464.0000 L 2392.0000,416.0000 L 2408.0000,416.0000 L 2408.0000,464.0000 L 2392.0000,464.0000 Z M 2392.0000,400.0000 L 2392.0000,352.0000 L 2408.0000,352.0000 L 2408.0000,400.0000 L 2392.0000,400.0000 Z M 2392.0000,336.0000 L 2392.0000,304.0000 L 2408.0000,304.0000 L 2408.0000,336.0000 L 2392.0000,336.0000 Z "  fill="#000000" stroke="#000000" stroke-width="16.0000"  stroke-linecap="butt"  stroke-linejoin="bevel" />
</g>
<g transform="matrix(1.0000 0.0000 0.0000 1.0000 0.0000 0.0000)">
<defs><clipPath id="clip-26962"><path d="M 56.0000,20.0000 L 342.0000,20.0000 L 342.0000,322.0000 L 56.0000,322.0000 L 56.0000,20.0000 Z Z" /></clipPath></defs>
</g>
<g transform="matrix(0.0625 0.0000 0.0000 0.0625 0.0000 0.0000)">
<path  clip-path="url(#clip-26962)" d="M 3928.0000,5136.0000 L 3928.0000,5088.0000 L 3944.0000,5088.0000 L 3944.0000,5136.0000 L 3928.0000,5136.0000 Z M 3928.0000,5072.0000 L 3928.0000,5024.0000 L 3944.0000,5024.0000 L 3944.0000,5072.0000 L 3928.0000,5072.0000 Z M 3928.0000,5008.0000 L 3928.0000,4960.0000 L 3944.0000,4960.0000 L 3944.0000,5008.0000 L 3928.0000,5008.0000 Z M 3928.0000,4944.0000 L 3928.0000,4896.0000 L 3944.0000,4896.0000 L 3944.0000,4944.0000 L 3928.0000,4944.0000 Z M 3928.0000,4880.0000 L 3928.0000,4832.0000 L 3944.0000,4832.0000 L 3944.0000,4880.0000 L 3928.0000,4880.0000 Z M 3928.0000,4816.0000 L 3928.0000,4768.0000 L 3944.0000,4768.0000 L 3944.0000,4816.0000 L 3928.0000,4816.0000 Z M 3928.0000,4752.0000 L 3928.0000,4704.0000 L 3944.0000,4704.0000 L 3944.0000,4752.0000 L 3928.0000,4752.0000 Z M 3928.0000,4688.0000 L 3928.0000,4640.0000 L 3944.0000,4640.0000 L 3944.0000,4688.0000 L 3928.0000,4688.0000 Z M 3928.0000,4624.0000 L 3928.0000,4576.0000 L 3944.0000,4576.0000 L 3944.0000,4624.0000 L 3928.0000,4624.0000 Z M 3928.0000,4560.0000 L 3928.0000,4512.0000 L 3944.0000,4512.0000 L 3944.0000,4560.0000 L 3928.0000,4560.0000 Z M 3928.0000,4496.0000 L 3928.0000,4448.0000 L 3944.0000,4448.0000 L 3944.0000,4496.0000 L 3928.0000,4496.0000 Z M 3928.0000,4432.0000 L 3928.0000,4384.0000 L 3944.0000,4384.0000 L 3944.0000,4432.0000 L 3928.0000,4432.0000 Z M 3928.0000,4368.0000 L 3928.0000,4320.0000 L 3944.0000,4320.0000 L 3944.0000,4368.0000 L 3928.0000,4368.0000 Z M 3928.0000,4304.0000 L 3928.0000,4256.0000 L 3944.0000,4256.0000 L 3944.0000,4304.0000 L 3928.0000,4304.0000 Z M 3928.0000,4240.0000 L 3928.0000,4192.0000 L 3944.0000,4192.0000 L 3944.0000,4240.0000 L 3928.0000,4240.0000 Z M 3928.0000,4176.0000 L 3928.0000,4128.0000 L 3944.0000,4128.0000 L 3944.0000,4176.0000 L 3928.0000,4176.0000 Z M 3928.0000,4112.0000 L 3928.0000,4064.0000 L 3944.0000,4064.0000 L 3944.0000,4112.0000 L 3928.0000,4112.0000 Z M 3928.0000,4048.0000 L 3928.0000,4000.0000 L 3944.0000,4000.0000 L 3944.0000,4048.0000 L 3928.0000,4048.0000 Z M 3928.0000,3984.0000 L 3928.0000,3936.0000 L 3944.0000,3936.0000 L 3944.0000,3984.0000 L 3928.0000,3984.0000 Z M 3928.0000,3920.0000 L 3928.0000,3872.0000 L 3944.0000,3872.0000 L 3944.0000,3920.0000 L 3928.0000,3920.0000 Z M 3928.0000,3856.0000 L 3928.0000,3808.0000 L 3944.0000,3808.0000 L 3944.0000,3856.0000 L 3928.0000,3856.0000 Z M 3928.0000,3792.0000 L 3928.0000,3744.0000 L 3944.0000,3744.0000 L 3944.0000,3792.0000 L 3928.0000,3792.0000 Z M 3928.0000,3728.0000 L 3928.0000,3680.0000 L 3944.0000,3680.0000 L 3944.0000,3728.0000 L 3928.0000,3728.0000 Z M 3928.0000,3664.0000 L 3928.0000,3616.0000 L 3944.0000,3616.0000 L 3944.0000,3664.0000 L 3928.0000,3664.0000 Z M 3928.0000,3600.0000 L 3928.0000,3552.0000 L 3944.0000,3552.0000 L 3944.0000,3600.0000 L 3928.0000,3600.0000 Z M 3928.0000,3536.0000 L 3928.0000,3488.0000 L 3944.0000,3488.0000 L 3944.0000,3536.0000 L 3928.0000,3536.0000 Z M 3928.0000,3472.0000 L 3928.0000,3424.0000 L 3944.0000,3424.0000 L 3944.0000,3472.0000 L 3928.0000,3472.0000 Z M 3928.0000,3408.0000 L 3928.0000,3360.0000 L 3944.0000,3360.0000 L 3944.0000,3408.0000 L 3928.0000,3408.0000 Z M 3928.0000,3344.0000 L 3928.0000,3296.0000 L 3944.0000,3296.0000 L 3944.0000,3344.0000 L 3928.0000,3344.0000 Z M 3928.0000,3280.0000 L 3928.0000,3232.0000 L 3944.0000,3232.0000 L 3944.0000,3280.0000 L 3928.0000,3280.0000 Z M 3928.0000,3216.0000 L 3928.0000,3168.0000 L 3944.0000,3168.0000 L 3944.0000,3216.0000 L 3928.0000,3216.0000 Z M 3928.0000,3152.0000 L 3928.0000,3104.0000 L 3944.0000,3104.0000 L 3944.0000,3152.0000 L 3928.0000,3152.0000 Z M 3928.0000,3088.0000 L 3928.0000,3040.0000 L 3944.0000,3040.0000 L 3944.0000,3088.0000 L 3928.0000,3088.0000 Z M 3928.0000,3024.0000 L 3928.0000,2976.0000 L 3944.0000,2976.0000 L 3944.0000,3024.0000 L 3928.0000,3024.0000 Z M 3928.0000,2960.0000 L 3928.0000,2912.0000 L 3944.0000,2912.0000 L 3944.0000,2960.0000 L 3928.0000,2960.0000 Z M 3928.0000,2896.0000 L 3928.0000,2848.0000 L 3944.0000,2848.0000 L 3944.0000,2896.0000 L 3928.0000,2896.0000 Z M 3928.0000,2832.0000 L 3928.0000,2784.0000 L 3944.0000,2784.0000 L 3944.0000,2832.0000 L 3928.0000,2832.0000 Z M 3928.0000,2768.0000 L 3928.0000,2720.0000 L 3944.0000,2720.0000 L 3944.0000,2768.0000 L 3928.0000,2768.0000 Z M 3928.0000,2704.0000 L 3928.0000,2656.0000 L 3944.0000,2656.0000 L 3944.0000,2704.0000 L 3928.0000,2704.0000 Z M 3928.0000,2640.0000 L 3928.0000,2592.0000 L 3944.0000,2592.0000 L 3944.0000,2640.0000 L 3928.0000,2640.0000 Z M 3928.0000,2576.0000 L 3928.0000,2528.0000 L 3944.0000,2528.0000 L 3944.0000,2576.0000 L 3928.0000,2576.0000 Z M 3928.0000,2512.0000 L 3928.0000,2464.0000 L 3944.0000,2464.0000 L 3944.0000,2512.0000 L 3928.0000,2512.0000 Z M 3928.0000,2448.0000 L 3928.0000,2400.0000 L 3944.0000,2400.0000 L 3944.0000,2448.0000 L 3928.0000,2448.0000 Z M 3928.0000,2384.0000 L 3928.0000,2336.0000 L 3944.0000,2336.0000 L 3944.0000,2384.0000 L 3928.0000,2384.0000 Z M 3928.0000,2320.0000 L 3928.0000,2272.0000 L 3944.0000,2272.0000 L 3944.0000,2320.0000 L 3928.0000,2320.0000 Z M 3928.0000,2256.0000 L 3928.0000,2208.0000 L 3944.0000,2208.0000 L 3944.0000,2256.0000 L 3928.0000,2256.0000 Z M 3928.0000,2192.0000 L 3928.0000,2144.0000 L 3944.0000,2144.0000 L 3944.0000,2192.0000 L 3928.0000,2192.0000 Z M 3928.0000,2128.0000 L 3928.0000,2080.0000 L 3944.0000,2080.0000 L 3944.0000,2128.0000 L 3928.0000,2128.0000 Z M 3928.0000,2064.0000 L 3928.0000,2016.0000 L 3944.0000,2016.0000 L 3944.0000,2064.0000 L 3928.0000,2064.0000 Z M 3928.0000,2000.0000 L 3928.0000,1952.0000 L 3944.0000,1952.0000 L 3944.0000,2000.0000 L 3928.0000,2000.0000 Z M 3928.0000,1936.0000 L 3928.0000,1888.0000 L 3944.0000,1888.0000 L 3944.0000,1936.0000 L 3928.0000,1936.0000 Z M 3928.0000,1872.0000 L 3928.0000,1824.0000 L 3944.0000,1824.0000 L 3944.0000,1872.0000 L 3928.0000,1872.0000 Z M 3928.0000,1808.0000 L 3928.0000,1760.0000 L 3944.0000,1760.0000 L 3944.0000,1808.0000 L 3928.0000,1808.0000 Z M 3928.0000,1744.0000 L 3928.0000,1696.0000 L 3944.0000,1696.0000 L 3944.0000,1744.0000 L 3928.0000,1744.0000 Z M 3928.0000,1680.0000 L 3928.0000,1632.0000 L 3944.0000,1632.0000 L 3944.0000,1680.0000 L 3928.0000,1680.0000 Z M 3928.0000,1616.0000 L 3928.0000,1568.0000 L 3944.0000,1568.0000 L 3944.0000,1616.0000 L 3928.0000,1616.0000 Z M 3928.0000,1552.0000 L 3928.0000,1504.0000 L 3944.0000,1504.0000 L 3944.0000,1552.0000 L 3928.0000,1552.0000 Z M 3928.0000,1488.0000 L 3928.0000,1440.0000 L 3944.0000,1440.0000 L 3944.0000,1488.0000 L 3928.0000,1488.0000 Z M 3928.0000,1424.0000 L 3928.0000,1376.0000 L 3944.0000,1376.0000 L 3944.0000,1424.0000 L 3928.0000,1424.0000 Z M 3928.0000,1360.0000 L 3928.0000,1312.0000 L 3944.0000,1312.0000 L 3944.0000,1360.0000 L 3928.0000,1360.0000 Z M 3928.0000,1296.0000 L 3928.0000,1248.0000 L 3944.0000,1248.0000 L 3944.0000,1296.0000 L 3928.0000,1296.0000 Z M 3928.0000,1232.0000 L 3928.0000,1184.0000 L 3944.0000,1184.0000 L 3944.0000,1232.0000 L 3928.0000,1232.0000 Z M 3928.0000,1168.0000 L 3928.0000,1120.0000 L 3944.0000,1120.0000 L 3944.0000,1168.0000 L 3928.0000,1168.0000 Z M 3928.0000,1104.0000 L 3928.0000,1056.0000 L 3944.0000,1056.0000 L 3944.0000,1104.0000 L 3928.0000,1104.0000 Z M 3928.0000,1040.0000 L 3928.0000,992.0000 L 3944.0000,992.0000 L 3944.0000,1040.0000 L 3928.0000,1040.0000 Z M 3928.0000,976.0000 L 3928.0000,928.0000 L 3944.0000,928.0000 L 3944.0000,976.0000 L 3928.0000,976.0000 Z M 3928.0000,912.0000 L 3928.0000,864.0000 L 3944.0000,864.0000 L 3944.0000,912.0000 L 3928.0000,912.0000 Z M 3928.0000,848.0000 L 3928.0000,800.0000 L 3944.0000,800.0000 L 3944.0000,848.0000 L 3928.0000,848.0000 Z M 3928.0000,784.0000 L 3928.0000,736.0000 L 3944.0000,736.0000 L 3944.0000,784.0000 L 3928.0000,784.0000 Z M 3928.0000,720.0000 L 3928.0000,672.0000 L 3944.0000,672.0000 L 3944.0000,720.0000 L 3928.0000,720.0000 Z M 3928.0000,656.0000 L 3928.0000,608.0000 L 3944.0000,608.0000 L 3944.0000,656.0000 L 3928.0000,656.0000 Z M 3928.0000,592.0000 L 3928.0000,544.0000 L 3944.0000,544.0000 L 3944.0000,592.0000 L 3928.0000,592.0000 Z M 3928.0000,528.0000 L 3928.0000,480.0000 L 3944.0000,480.0000 L 3944.0000,528.0000 L 3928.0000,528.0000 Z M 3928.0000,464.0000 L 3928.0000,416.0000 L 3944.0000,416.0000 L 3944.0000,464.0000 L 3928.0000,464.0000 Z M 3928.0000,400.0000 L 3928.0000,352.0000 L 3944.0000,352.0000 L 3944.0000,400.0000 L 3928.0000,400.0000 Z M 3928.0000,336.0000 L 3928.0000,304.0000 L 3944.0000,304.0000 L 3944.0000,336.0000 L 3928.0000,336.0000 Z "  fill="#000000" stroke="#000000" stroke-width="16.0000"  stroke-linecap="butt"  stroke-linejoin="bevel" />
</g>
<g transform="matrix(1.0000 0.0000 0.0000 1.0000 0.0000 0.0000)">
</g>
<g transform="matrix(0.0625 0.0000 0.0000 0.0625 0.0000 0.0000)">
<path d="M 1952.0000,2144.0000 C 1952.0000,2206.0000 1902.0000,2256.0000 1840.0000,2256.0000 C 1779.0000,2256.0000 1728.0000,2206.0000 1728.0000,2144.0000 C 1728.0000,2083.0000 1779.0000,2032.0000 1840.0000,2032.0000 C 1902.0000,2032.0000 1952.0000,2083.0000 1952.0000,2144.0000 "  fill="#FF0000" stroke="none" />
</g>
<g transform="matrix(1.0000 0.0000 0.0000 1.0000 0.0000 0.0000)">
</g>
<g transform="matrix(0.0625 0.0000 0.0000 0.0625 0.0000 0.0000)">
<path d="M 892.0000,5138.0000 L 5461.0000,5138.0000 " stroke="#000000" stroke-width="16.0000"  stroke-linecap="butt"  stroke-linejoin="miter"  stroke-miterlimit="10.0000" fill="none" />
</g>
<g transform="matrix(1.0000 0.0000 0.0000 1.0000 0.0000 0.0000)">
</g>
<g transform="matrix(0.0625 0.0000 0.0000 0.0625 0.0000 0.0000)">
<path d="M 892.0000,5138.0000 L 892.0000,5218.0000 " stroke="#000000" stroke-width="16.0000"  stroke-linecap="butt"  stroke-linejoin="miter"  stroke-miterlimit="10.0000" fill="none" />
</g>
<g transform="matrix(1.0000 0.0000 0.0000 1.0000 0.0000 0.0000)">
</g>
<g transform="matrix(0.0625 0.0000 0.0000 0.0625 0.0000 0.0000)">
<path d="M 892.0000,5138.0000 L 892.0000,5058.0000 " stroke="#000000" stroke-width="16.0000"  stroke-linecap="butt"  stroke-linejoin="miter"  stroke-miterlimit="10.0000" fill="none" />
</g>
<g transform="matrix(1.0000 0.0000 0.0000 1.0000 0.0000 0.0000)">
<text font-family="Arial" fill="#000000" style ="white-space:pre;" font-weight="400" text-anchor="start" x="49.0000" y="344.0000" font-size="14.0000" ><![CDATA[-3]]></text>
</g>
<g transform="matrix(0.0625 0.0000 0.0000 0.0625 0.0000 0.0000)">
<path d="M 1654.0000,5138.0000 L 1654.0000,5218.0000 " stroke="#000000" stroke-width="16.0000"  stroke-linecap="butt"  stroke-linejoin="miter"  stroke-miterlimit="10.0000" fill="none" />
</g>
<g transform="matrix(1.0000 0.0000 0.0000 1.0000 0.0000 0.0000)">
</g>
<g transform="matrix(0.0625 0.0000 0.0000 0.0625 0.0000 0.0000)">
<path d="M 1654.0000,5138.0000 L 1654.0000,5058.0000 " stroke="#000000" stroke-width="16.0000"  stroke-linecap="butt"  stroke-linejoin="miter"  stroke-miterlimit="10.0000" fill="none" />
</g>
<g transform="matrix(1.0000 0.0000 0.0000 1.0000 0.0000 0.0000)">
<text font-family="Arial" fill="#000000" style ="white-space:pre;" font-weight="400" text-anchor="start" x="96.0000" y="344.0000" font-size="14.0000" ><![CDATA[-2]]></text>
</g>
<g transform="matrix(0.0625 0.0000 0.0000 0.0625 0.0000 0.0000)">
<path d="M 2415.0000,5138.0000 L 2415.0000,5218.0000 " stroke="#000000" stroke-width="16.0000"  stroke-linecap="butt"  stroke-linejoin="miter"  stroke-miterlimit="10.0000" fill="none" />
</g>
<g transform="matrix(1.0000 0.0000 0.0000 1.0000 0.0000 0.0000)">
</g>
<g transform="matrix(0.0625 0.0000 0.0000 0.0625 0.0000 0.0000)">
<path d="M 2415.0000,5138.0000 L 2415.0000,5058.0000 " stroke="#000000" stroke-width="16.0000"  stroke-linecap="butt"  stroke-linejoin="miter"  stroke-miterlimit="10.0000" fill="none" />
</g>
<g transform="matrix(1.0000 0.0000 0.0000 1.0000 0.0000 0.0000)">
<text font-family="Arial" fill="#000000" style ="white-space:pre;" font-weight="400" text-anchor="start" x="144.0000" y="344.0000" font-size="14.0000" ><![CDATA[-1]]></text>
</g>
<g transform="matrix(0.0625 0.0000 0.0000 0.0625 0.0000 0.0000)">
<path d="M 3176.0000,5138.0000 L 3176.0000,5218.0000 " stroke="#000000" stroke-width="16.0000"  stroke-linecap="butt"  stroke-linejoin="miter"  stroke-miterlimit="10.0000" fill="none" />
</g>
<g transform="matrix(1.0000 0.0000 0.0000 1.0000 0.0000 0.0000)">
</g>
<g transform="matrix(0.0625 0.0000 0.0000 0.0625 0.0000 0.0000)">
<path d="M 3176.0000,5138.0000 L 3176.0000,5058.0000 " stroke="#000000" stroke-width="16.0000"  stroke-linecap="butt"  stroke-linejoin="miter"  stroke-miterlimit="10.0000" fill="none" />
</g>
<g transform="matrix(1.0000 0.0000 0.0000 1.0000 0.0000 0.0000)">
<text font-family="Arial" fill="#000000" style ="white-space:pre;" font-weight="400" text-anchor="start" x="194.0000" y="344.0000" font-size="14.0000" ><![CDATA[0]]></text>
</g>
<g transform="matrix(0.0625 0.0000 0.0000 0.0625 0.0000 0.0000)">
<path d="M 3938.0000,5138.0000 L 3938.0000,5218.0000 " stroke="#000000" stroke-width="16.0000"  stroke-linecap="butt"  stroke-linejoin="miter"  stroke-miterlimit="10.0000" fill="none" />
</g>
<g transform="matrix(1.0000 0.0000 0.0000 1.0000 0.0000 0.0000)">
</g>
<g transform="matrix(0.0625 0.0000 0.0000 0.0625 0.0000 0.0000)">
<path d="M 3938.0000,5138.0000 L 3938.0000,5058.0000 " stroke="#000000" stroke-width="16.0000"  stroke-linecap="butt"  stroke-linejoin="miter"  stroke-miterlimit="10.0000" fill="none" />
</g>
<g transform="matrix(1.0000 0.0000 0.0000 1.0000 0.0000 0.0000)">
<text font-family="Arial" fill="#000000" style ="white-space:pre;" font-weight="400" text-anchor="start" x="242.0000" y="344.0000" font-size="14.0000" ><![CDATA[1]]></text>
</g>
<g transform="matrix(0.0625 0.0000 0.0000 0.0625 0.0000 0.0000)">
<path d="M 4699.0000,5138.0000 L 4699.0000,5218.0000 " stroke="#000000" stroke-width="16.0000"  stroke-linecap="butt"  stroke-linejoin="miter"  stroke-miterlimit="10.0000" fill="none" />
</g>
<g transform="matrix(1.0000 0.0000 0.0000 1.0000 0.0000 0.0000)">
</g>
<g transform="matrix(0.0625 0.0000 0.0000 0.0625 0.0000 0.0000)">
<path d="M 4699.0000,5138.0000 L 4699.0000,5058.0000 " stroke="#000000" stroke-width="16.0000"  stroke-linecap="butt"  stroke-linejoin="miter"  stroke-miterlimit="10.0000" fill="none" />
</g>
<g transform="matrix(1.0000 0.0000 0.0000 1.0000 0.0000 0.0000)">
<text font-family="Arial" fill="#000000" style ="white-space:pre;" font-weight="400" text-anchor="start" x="290.0000" y="344.0000" font-size="14.0000" ><![CDATA[2]]></text>
</g>
<g transform="matrix(0.0625 0.0000 0.0000 0.0625 0.0000 0.0000)">
<path d="M 5461.0000,5138.0000 L 5461.0000,5218.0000 " stroke="#000000" stroke-width="16.0000"  stroke-linecap="butt"  stroke-linejoin="miter"  stroke-miterlimit="10.0000" fill="none" />
</g>
<g transform="matrix(1.0000 0.0000 0.0000 1.0000 0.0000 0.0000)">
</g>
<g transform="matrix(0.0625 0.0000 0.0000 0.0625 0.0000 0.0000)">
<path d="M 5461.0000,5138.0000 L 5461.0000,5058.0000 " stroke="#000000" stroke-width="16.0000"  stroke-linecap="butt"  stroke-linejoin="miter"  stroke-miterlimit="10.0000" fill="none" />
</g>
<g transform="matrix(1.0000 0.0000 0.0000 1.0000 0.0000 0.0000)">
<text font-family="Arial" fill="#000000" style ="white-space:pre;" font-weight="400" text-anchor="start" x="337.0000" y="344.0000" font-size="14.0000" ><![CDATA[3]]></text>
<text font-family="Arial" fill="#000000" style ="white-space:pre;" font-weight="700" text-anchor="start" x="131.0000" y="367.0000" font-size="14.0000" ><![CDATA[Log2(Fold Change)]]></text>
</g>
<g transform="matrix(0.0625 0.0000 0.0000 0.0625 0.0000 0.0000)">
<path d="M 892.0000,312.0000 L 892.0000,5138.0000 " stroke="#000000" stroke-width="16.0000"  stroke-linecap="butt"  stroke-linejoin="miter"  stroke-miterlimit="10.0000" fill="none" />
</g>
<g transform="matrix(1.0000 0.0000 0.0000 1.0000 0.0000 0.0000)">
</g>
<g transform="matrix(0.0625 0.0000 0.0000 0.0625 0.0000 0.0000)">
<path d="M 892.0000,5138.0000 L 812.0000,5138.0000 " stroke="#000000" stroke-width="16.0000"  stroke-linecap="butt"  stroke-linejoin="miter"  stroke-miterlimit="10.0000" fill="none" />
</g>
<g transform="matrix(1.0000 0.0000 0.0000 1.0000 0.0000 0.0000)">
</g>
<g transform="matrix(0.0625 0.0000 0.0000 0.0625 0.0000 0.0000)">
<path d="M 892.0000,5138.0000 L 972.0000,5138.0000 " stroke="#000000" stroke-width="16.0000"  stroke-linecap="butt"  stroke-linejoin="miter"  stroke-miterlimit="10.0000" fill="none" />
</g>
<g transform="matrix(1.0000 0.0000 0.0000 1.0000 0.0000 0.0000)">
<text font-family="Arial" fill="#000000" style ="white-space:pre;" font-weight="400" text-anchor="start" x="35.0000" y="325.0000" font-size="14.0000" ><![CDATA[0]]></text>
</g>
<g transform="matrix(0.0625 0.0000 0.0000 0.0625 0.0000 0.0000)">
<path d="M 892.0000,4334.0000 L 812.0000,4334.0000 " stroke="#000000" stroke-width="16.0000"  stroke-linecap="butt"  stroke-linejoin="miter"  stroke-miterlimit="10.0000" fill="none" />
</g>
<g transform="matrix(1.0000 0.0000 0.0000 1.0000 0.0000 0.0000)">
</g>
<g transform="matrix(0.0625 0.0000 0.0000 0.0625 0.0000 0.0000)">
<path d="M 892.0000,4334.0000 L 972.0000,4334.0000 " stroke="#000000" stroke-width="16.0000"  stroke-linecap="butt"  stroke-linejoin="miter"  stroke-miterlimit="10.0000" fill="none" />
</g>
<g transform="matrix(1.0000 0.0000 0.0000 1.0000 0.0000 0.0000)">
<text font-family="Arial" fill="#000000" style ="white-space:pre;" font-weight="400" text-anchor="start" x="35.0000" y="275.0000" font-size="14.0000" ><![CDATA[1]]></text>
</g>
<g transform="matrix(0.0625 0.0000 0.0000 0.0625 0.0000 0.0000)">
<path d="M 892.0000,3530.0000 L 812.0000,3530.0000 " stroke="#000000" stroke-width="16.0000"  stroke-linecap="butt"  stroke-linejoin="miter"  stroke-miterlimit="10.0000" fill="none" />
</g>
<g transform="matrix(1.0000 0.0000 0.0000 1.0000 0.0000 0.0000)">
</g>
<g transform="matrix(0.0625 0.0000 0.0000 0.0625 0.0000 0.0000)">
<path d="M 892.0000,3530.0000 L 972.0000,3530.0000 " stroke="#000000" stroke-width="16.0000"  stroke-linecap="butt"  stroke-linejoin="miter"  stroke-miterlimit="10.0000" fill="none" />
</g>
<g transform="matrix(1.0000 0.0000 0.0000 1.0000 0.0000 0.0000)">
<text font-family="Arial" fill="#000000" style ="white-space:pre;" font-weight="400" text-anchor="start" x="35.0000" y="225.0000" font-size="14.0000" ><![CDATA[2]]></text>
</g>
<g transform="matrix(0.0625 0.0000 0.0000 0.0625 0.0000 0.0000)">
<path d="M 892.0000,2725.0000 L 812.0000,2725.0000 " stroke="#000000" stroke-width="16.0000"  stroke-linecap="butt"  stroke-linejoin="miter"  stroke-miterlimit="10.0000" fill="none" />
</g>
<g transform="matrix(1.0000 0.0000 0.0000 1.0000 0.0000 0.0000)">
</g>
<g transform="matrix(0.0625 0.0000 0.0000 0.0625 0.0000 0.0000)">
<path d="M 892.0000,2725.0000 L 972.0000,2725.0000 " stroke="#000000" stroke-width="16.0000"  stroke-linecap="butt"  stroke-linejoin="miter"  stroke-miterlimit="10.0000" fill="none" />
</g>
<g transform="matrix(1.0000 0.0000 0.0000 1.0000 0.0000 0.0000)">
<text font-family="Arial" fill="#000000" style ="white-space:pre;" font-weight="400" text-anchor="start" x="35.0000" y="174.0000" font-size="14.0000" ><![CDATA[3]]></text>
</g>
<g transform="matrix(0.0625 0.0000 0.0000 0.0625 0.0000 0.0000)">
<path d="M 892.0000,1921.0000 L 812.0000,1921.0000 " stroke="#000000" stroke-width="16.0000"  stroke-linecap="butt"  stroke-linejoin="miter"  stroke-miterlimit="10.0000" fill="none" />
</g>
<g transform="matrix(1.0000 0.0000 0.0000 1.0000 0.0000 0.0000)">
</g>
<g transform="matrix(0.0625 0.0000 0.0000 0.0625 0.0000 0.0000)">
<path d="M 892.0000,1921.0000 L 972.0000,1921.0000 " stroke="#000000" stroke-width="16.0000"  stroke-linecap="butt"  stroke-linejoin="miter"  stroke-miterlimit="10.0000" fill="none" />
</g>
<g transform="matrix(1.0000 0.0000 0.0000 1.0000 0.0000 0.0000)">
<text font-family="Arial" fill="#000000" style ="white-space:pre;" font-weight="400" text-anchor="start" x="35.0000" y="124.0000" font-size="14.0000" ><![CDATA[4]]></text>
</g>
<g transform="matrix(0.0625 0.0000 0.0000 0.0625 0.0000 0.0000)">
<path d="M 892.0000,1117.0000 L 812.0000,1117.0000 " stroke="#000000" stroke-width="16.0000"  stroke-linecap="butt"  stroke-linejoin="miter"  stroke-miterlimit="10.0000" fill="none" />
</g>
<g transform="matrix(1.0000 0.0000 0.0000 1.0000 0.0000 0.0000)">
</g>
<g transform="matrix(0.0625 0.0000 0.0000 0.0625 0.0000 0.0000)">
<path d="M 892.0000,1117.0000 L 972.0000,1117.0000 " stroke="#000000" stroke-width="16.0000"  stroke-linecap="butt"  stroke-linejoin="miter"  stroke-miterlimit="10.0000" fill="none" />
</g>
<g transform="matrix(1.0000 0.0000 0.0000 1.0000 0.0000 0.0000)">
<text font-family="Arial" fill="#000000" style ="white-space:pre;" font-weight="400" text-anchor="start" x="35.0000" y="74.0000" font-size="14.0000" ><![CDATA[5]]></text>
</g>
<g transform="matrix(0.0625 0.0000 0.0000 0.0625 0.0000 0.0000)">
<path d="M 892.0000,312.0000 L 812.0000,312.0000 " stroke="#000000" stroke-width="16.0000"  stroke-linecap="butt"  stroke-linejoin="miter"  stroke-miterlimit="10.0000" fill="none" />
</g>
<g transform="matrix(1.0000 0.0000 0.0000 1.0000 0.0000 0.0000)">
</g>
<g transform="matrix(0.0625 0.0000 0.0000 0.0625 0.0000 0.0000)">
<path d="M 892.0000,312.0000 L 972.0000,312.0000 " stroke="#000000" stroke-width="16.0000"  stroke-linecap="butt"  stroke-linejoin="miter"  stroke-miterlimit="10.0000" fill="none" />
</g>
<g transform="matrix(1.0000 0.0000 0.0000 1.0000 0.0000 0.0000)">
<text font-family="Arial" fill="#000000" style ="white-space:pre;" font-weight="400" text-anchor="start" x="35.0000" y="24.0000" font-size="14.0000" ><![CDATA[6]]></text>
<text font-family="Arial" fill="#000000" transform="rotate(-90, 23.0000, 237.6000) translate(0, 12.6000)" style ="white-space:pre;" font-weight="700" text-anchor="start" x="23.0000" y="225.0000" font-size="14.0000" ><![CDATA[-]]></text>
<text font-family="Arial" fill="#000000" transform="rotate(-90, 23.0000, 232.6000) translate(0, 12.6000)" style ="white-space:pre;" font-weight="700" text-anchor="start" x="23.0000" y="220.0000" font-size="14.0000" ><![CDATA[L]]></text>
<text font-family="Arial" fill="#000000" transform="rotate(-90, 23.0000, 223.6000) translate(0, 12.6000)" style ="white-space:pre;" font-weight="700" text-anchor="start" x="23.0000" y="211.0000" font-size="14.0000" ><![CDATA[o]]></text>
<text font-family="Arial" fill="#000000" transform="rotate(-90, 23.0000, 214.6000) translate(0, 12.6000)" style ="white-space:pre;" font-weight="700" text-anchor="start" x="23.0000" y="202.0000" font-size="14.0000" ><![CDATA[g]]></text>
<text font-family="Arial" fill="#000000" transform="rotate(-90, 23.0000, 205.6000) translate(0, 12.6000)" style ="white-space:pre;" font-weight="700" text-anchor="start" x="23.0000" y="193.0000" font-size="14.0000" ><![CDATA[1]]></text>
<text font-family="Arial" fill="#000000" transform="rotate(-90, 23.0000, 197.6000) translate(0, 12.6000)" style ="white-space:pre;" font-weight="700" text-anchor="start" x="23.0000" y="185.0000" font-size="14.0000" ><![CDATA[0]]></text>
<text font-family="Arial" fill="#000000" transform="rotate(-90, 23.0000, 189.6000) translate(0, 12.6000)" style ="white-space:pre;" font-weight="700" text-anchor="start" x="23.0000" y="177.0000" font-size="14.0000" ><![CDATA[(]]></text>
<text font-family="Arial" fill="#000000" transform="rotate(-90, 23.0000, 184.6000) translate(0, 12.6000)" style ="white-space:pre;" font-weight="700" text-anchor="start" x="23.0000" y="172.0000" font-size="14.0000" ><![CDATA[P]]></text>
<text font-family="Arial" fill="#000000" transform="rotate(-90, 23.0000, 175.6000) translate(0, 12.6000)" style ="white-space:pre;" font-weight="700" text-anchor="start" x="23.0000" y="163.0000" font-size="14.0000" ><![CDATA[ ]]></text>
<text font-family="Arial" fill="#000000" transform="rotate(-90, 23.0000, 171.6000) translate(0, 12.6000)" style ="white-space:pre;" font-weight="700" text-anchor="start" x="23.0000" y="159.0000" font-size="14.0000" ><![CDATA[V]]></text>
<text font-family="Arial" fill="#000000" transform="rotate(-90, 23.0000, 163.6000) translate(0, 12.6000)" style ="white-space:pre;" font-weight="700" text-anchor="start" x="23.0000" y="151.0000" font-size="14.0000" ><![CDATA[a]]></text>
<text font-family="Arial" fill="#000000" transform="rotate(-90, 23.0000, 155.6000) translate(0, 12.6000)" style ="white-space:pre;" font-weight="700" text-anchor="start" x="23.0000" y="143.0000" font-size="14.0000" ><![CDATA[l]]></text>
<text font-family="Arial" fill="#000000" transform="rotate(-90, 23.0000, 151.6000) translate(0, 12.6000)" style ="white-space:pre;" font-weight="700" text-anchor="start" x="23.0000" y="139.0000" font-size="14.0000" ><![CDATA[u]]></text>
<text font-family="Arial" fill="#000000" transform="rotate(-90, 23.0000, 142.6000) translate(0, 12.6000)" style ="white-space:pre;" font-weight="700" text-anchor="start" x="23.0000" y="130.0000" font-size="14.0000" ><![CDATA[e]]></text>
<text font-family="Arial" fill="#000000" transform="rotate(-90, 23.0000, 134.6000) translate(0, 12.6000)" style ="white-space:pre;" font-weight="700" text-anchor="start" x="23.0000" y="122.0000" font-size="14.0000" ><![CDATA[)]]></text>
<defs><clipPath id="clip-24464"><path d="M 56.0000,112.0000 L 213.0000,112.0000 L 213.0000,130.0000 L 56.0000,130.0000 L 56.0000,112.0000 Z Z" /></clipPath></defs>
<text  clip-path="url(#clip-24464)" font-family="Arial" fill="#FF0000" style ="white-space:pre;" font-weight="400" text-anchor="start" x="24.0000" y="124.0000" font-size="14.0000" ><![CDATA[LPQVEGTGGDVQPSQDLVR]]></text>
</g>
</g>
</svg>
