<?xml version="1.0"  encoding="UTF-8" standalone="no"?>
<svg version="1.1" xmlns="http://www.w3.org/2000/svg" xmlns:xlink="http://www.w3.org/1999/xlink" width="427.0000" height="358.0000">
<g transform="translate(-0.0000, -0.0000)">
<g transform="matrix(0.0625 0.0000 0.0000 0.0625 0.0000 0.0000)">
<path d="M 0.0000,0.0000 L 0.0000,5728.0000 L 6832.0000,5728.0000 L 6832.0000,0.0000 L 0.0000,0.0000 Z" stroke-width="1px" stroke="#FFFFFF"  fill="#FFFFFF" />
</g>
<g transform="matrix(1.0000 0.0000 0.0000 1.0000 0.0000 0.0000)">
</g>
<g transform="matrix(0.0625 0.0000 0.0000 0.0625 0.0000 0.0000)">
<path d="M 0.0000,0.0000 L 0.0000,5728.0000 L 6832.0000,5728.0000 L 6832.0000,0.0000 L 0.0000,0.0000 Z" stroke-width="1px" stroke="#FFFFFF"  fill="#FFFFFF" />
</g>
<g transform="matrix(1.0000 0.0000 0.0000 1.0000 0.0000 0.0000)">
<path d="M 71.0000,101.0000 L 71.0000,301.0000 L 386.0000,301.0000 L 386.0000,101.0000 L 71.0000,101.0000 Z" stroke-width="1px" stroke="#FFFFFF"  fill="#FFFFFF" />
</g>
<g transform="matrix(0.0625 0.0000 0.0000 0.0625 0.0000 0.0000)">
<path d="M 1149.0000,4746.0000 L 1109.0000,4746.0000 " stroke="#000000" stroke-width="16.0000"  stroke-linecap="butt"  stroke-linejoin="miter"  stroke-miterlimit="10.0000" fill="none" />
</g>
<g transform="matrix(1.0000 0.0000 0.0000 1.0000 0.0000 0.0000)">
</g>
<g transform="matrix(0.0625 0.0000 0.0000 0.0625 0.0000 0.0000)">
<path d="M 1149.0000,4746.0000 L 1189.0000,4746.0000 " stroke="#000000" stroke-width="16.0000"  stroke-linecap="butt"  stroke-linejoin="miter"  stroke-miterlimit="10.0000" fill="none" />
</g>
<g transform="matrix(1.0000 0.0000 0.0000 1.0000 0.0000 0.0000)">
</g>
<g transform="matrix(0.0625 0.0000 0.0000 0.0625 0.0000 0.0000)">
<path d="M 1149.0000,4682.0000 L 1109.0000,4682.0000 " stroke="#000000" stroke-width="16.0000"  stroke-linecap="butt"  stroke-linejoin="miter"  stroke-miterlimit="10.0000" fill="none" />
</g>
<g transform="matrix(1.0000 0.0000 0.0000 1.0000 0.0000 0.0000)">
</g>
<g transform="matrix(0.0625 0.0000 0.0000 0.0625 0.0000 0.0000)">
<path d="M 1149.0000,4682.0000 L 1189.0000,4682.0000 " stroke="#000000" stroke-width="16.0000"  stroke-linecap="butt"  stroke-linejoin="miter"  stroke-miterlimit="10.0000" fill="none" />
</g>
<g transform="matrix(1.0000 0.0000 0.0000 1.0000 0.0000 0.0000)">
</g>
<g transform="matrix(0.0625 0.0000 0.0000 0.0625 0.0000 0.0000)">
<path d="M 1149.0000,4618.0000 L 1109.0000,4618.0000 " stroke="#000000" stroke-width="16.0000"  stroke-linecap="butt"  stroke-linejoin="miter"  stroke-miterlimit="10.0000" fill="none" />
</g>
<g transform="matrix(1.0000 0.0000 0.0000 1.0000 0.0000 0.0000)">
</g>
<g transform="matrix(0.0625 0.0000 0.0000 0.0625 0.0000 0.0000)">
<path d="M 1149.0000,4618.0000 L 1189.0000,4618.0000 " stroke="#000000" stroke-width="16.0000"  stroke-linecap="butt"  stroke-linejoin="miter"  stroke-miterlimit="10.0000" fill="none" />
</g>
<g transform="matrix(1.0000 0.0000 0.0000 1.0000 0.0000 0.0000)">
</g>
<g transform="matrix(0.0625 0.0000 0.0000 0.0625 0.0000 0.0000)">
<path d="M 1149.0000,4555.0000 L 1109.0000,4555.0000 " stroke="#000000" stroke-width="16.0000"  stroke-linecap="butt"  stroke-linejoin="miter"  stroke-miterlimit="10.0000" fill="none" />
</g>
<g transform="matrix(1.0000 0.0000 0.0000 1.0000 0.0000 0.0000)">
</g>
<g transform="matrix(0.0625 0.0000 0.0000 0.0625 0.0000 0.0000)">
<path d="M 1149.0000,4555.0000 L 1189.0000,4555.0000 " stroke="#000000" stroke-width="16.0000"  stroke-linecap="butt"  stroke-linejoin="miter"  stroke-miterlimit="10.0000" fill="none" />
</g>
<g transform="matrix(1.0000 0.0000 0.0000 1.0000 0.0000 0.0000)">
</g>
<g transform="matrix(0.0625 0.0000 0.0000 0.0625 0.0000 0.0000)">
<path d="M 1149.0000,4427.0000 L 1109.0000,4427.0000 " stroke="#000000" stroke-width="16.0000"  stroke-linecap="butt"  stroke-linejoin="miter"  stroke-miterlimit="10.0000" fill="none" />
</g>
<g transform="matrix(1.0000 0.0000 0.0000 1.0000 0.0000 0.0000)">
</g>
<g transform="matrix(0.0625 0.0000 0.0000 0.0625 0.0000 0.0000)">
<path d="M 1149.0000,4427.0000 L 1189.0000,4427.0000 " stroke="#000000" stroke-width="16.0000"  stroke-linecap="butt"  stroke-linejoin="miter"  stroke-miterlimit="10.0000" fill="none" />
</g>
<g transform="matrix(1.0000 0.0000 0.0000 1.0000 0.0000 0.0000)">
</g>
<g transform="matrix(0.0625 0.0000 0.0000 0.0625 0.0000 0.0000)">
<path d="M 1149.0000,4363.0000 L 1109.0000,4363.0000 " stroke="#000000" stroke-width="16.0000"  stroke-linecap="butt"  stroke-linejoin="miter"  stroke-miterlimit="10.0000" fill="none" />
</g>
<g transform="matrix(1.0000 0.0000 0.0000 1.0000 0.0000 0.0000)">
</g>
<g transform="matrix(0.0625 0.0000 0.0000 0.0625 0.0000 0.0000)">
<path d="M 1149.0000,4363.0000 L 1189.0000,4363.0000 " stroke="#000000" stroke-width="16.0000"  stroke-linecap="butt"  stroke-linejoin="miter"  stroke-miterlimit="10.0000" fill="none" />
</g>
<g transform="matrix(1.0000 0.0000 0.0000 1.0000 0.0000 0.0000)">
</g>
<g transform="matrix(0.0625 0.0000 0.0000 0.0625 0.0000 0.0000)">
<path d="M 1149.0000,4300.0000 L 1109.0000,4300.0000 " stroke="#000000" stroke-width="16.0000"  stroke-linecap="butt"  stroke-linejoin="miter"  stroke-miterlimit="10.0000" fill="none" />
</g>
<g transform="matrix(1.0000 0.0000 0.0000 1.0000 0.0000 0.0000)">
</g>
<g transform="matrix(0.0625 0.0000 0.0000 0.0625 0.0000 0.0000)">
<path d="M 1149.0000,4300.0000 L 1189.0000,4300.0000 " stroke="#000000" stroke-width="16.0000"  stroke-linecap="butt"  stroke-linejoin="miter"  stroke-miterlimit="10.0000" fill="none" />
</g>
<g transform="matrix(1.0000 0.0000 0.0000 1.0000 0.0000 0.0000)">
</g>
<g transform="matrix(0.0625 0.0000 0.0000 0.0625 0.0000 0.0000)">
<path d="M 1149.0000,4236.0000 L 1109.0000,4236.0000 " stroke="#000000" stroke-width="16.0000"  stroke-linecap="butt"  stroke-linejoin="miter"  stroke-miterlimit="10.0000" fill="none" />
</g>
<g transform="matrix(1.0000 0.0000 0.0000 1.0000 0.0000 0.0000)">
</g>
<g transform="matrix(0.0625 0.0000 0.0000 0.0625 0.0000 0.0000)">
<path d="M 1149.0000,4236.0000 L 1189.0000,4236.0000 " stroke="#000000" stroke-width="16.0000"  stroke-linecap="butt"  stroke-linejoin="miter"  stroke-miterlimit="10.0000" fill="none" />
</g>
<g transform="matrix(1.0000 0.0000 0.0000 1.0000 0.0000 0.0000)">
</g>
<g transform="matrix(0.0625 0.0000 0.0000 0.0625 0.0000 0.0000)">
<path d="M 1149.0000,4109.0000 L 1109.0000,4109.0000 " stroke="#000000" stroke-width="16.0000"  stroke-linecap="butt"  stroke-linejoin="miter"  stroke-miterlimit="10.0000" fill="none" />
</g>
<g transform="matrix(1.0000 0.0000 0.0000 1.0000 0.0000 0.0000)">
</g>
<g transform="matrix(0.0625 0.0000 0.0000 0.0625 0.0000 0.0000)">
<path d="M 1149.0000,4109.0000 L 1189.0000,4109.0000 " stroke="#000000" stroke-width="16.0000"  stroke-linecap="butt"  stroke-linejoin="miter"  stroke-miterlimit="10.0000" fill="none" />
</g>
<g transform="matrix(1.0000 0.0000 0.0000 1.0000 0.0000 0.0000)">
</g>
<g transform="matrix(0.0625 0.0000 0.0000 0.0625 0.0000 0.0000)">
<path d="M 1149.0000,4045.0000 L 1109.0000,4045.0000 " stroke="#000000" stroke-width="16.0000"  stroke-linecap="butt"  stroke-linejoin="miter"  stroke-miterlimit="10.0000" fill="none" />
</g>
<g transform="matrix(1.0000 0.0000 0.0000 1.0000 0.0000 0.0000)">
</g>
<g transform="matrix(0.0625 0.0000 0.0000 0.0625 0.0000 0.0000)">
<path d="M 1149.0000,4045.0000 L 1189.0000,4045.0000 " stroke="#000000" stroke-width="16.0000"  stroke-linecap="butt"  stroke-linejoin="miter"  stroke-miterlimit="10.0000" fill="none" />
</g>
<g transform="matrix(1.0000 0.0000 0.0000 1.0000 0.0000 0.0000)">
</g>
<g transform="matrix(0.0625 0.0000 0.0000 0.0625 0.0000 0.0000)">
<path d="M 1149.0000,3981.0000 L 1109.0000,3981.0000 " stroke="#000000" stroke-width="16.0000"  stroke-linecap="butt"  stroke-linejoin="miter"  stroke-miterlimit="10.0000" fill="none" />
</g>
<g transform="matrix(1.0000 0.0000 0.0000 1.0000 0.0000 0.0000)">
</g>
<g transform="matrix(0.0625 0.0000 0.0000 0.0625 0.0000 0.0000)">
<path d="M 1149.0000,3981.0000 L 1189.0000,3981.0000 " stroke="#000000" stroke-width="16.0000"  stroke-linecap="butt"  stroke-linejoin="miter"  stroke-miterlimit="10.0000" fill="none" />
</g>
<g transform="matrix(1.0000 0.0000 0.0000 1.0000 0.0000 0.0000)">
</g>
<g transform="matrix(0.0625 0.0000 0.0000 0.0625 0.0000 0.0000)">
<path d="M 1149.0000,3918.0000 L 1109.0000,3918.0000 " stroke="#000000" stroke-width="16.0000"  stroke-linecap="butt"  stroke-linejoin="miter"  stroke-miterlimit="10.0000" fill="none" />
</g>
<g transform="matrix(1.0000 0.0000 0.0000 1.0000 0.0000 0.0000)">
</g>
<g transform="matrix(0.0625 0.0000 0.0000 0.0625 0.0000 0.0000)">
<path d="M 1149.0000,3918.0000 L 1189.0000,3918.0000 " stroke="#000000" stroke-width="16.0000"  stroke-linecap="butt"  stroke-linejoin="miter"  stroke-miterlimit="10.0000" fill="none" />
</g>
<g transform="matrix(1.0000 0.0000 0.0000 1.0000 0.0000 0.0000)">
</g>
<g transform="matrix(0.0625 0.0000 0.0000 0.0625 0.0000 0.0000)">
<path d="M 1149.0000,3790.0000 L 1109.0000,3790.0000 " stroke="#000000" stroke-width="16.0000"  stroke-linecap="butt"  stroke-linejoin="miter"  stroke-miterlimit="10.0000" fill="none" />
</g>
<g transform="matrix(1.0000 0.0000 0.0000 1.0000 0.0000 0.0000)">
</g>
<g transform="matrix(0.0625 0.0000 0.0000 0.0625 0.0000 0.0000)">
<path d="M 1149.0000,3790.0000 L 1189.0000,3790.0000 " stroke="#000000" stroke-width="16.0000"  stroke-linecap="butt"  stroke-linejoin="miter"  stroke-miterlimit="10.0000" fill="none" />
</g>
<g transform="matrix(1.0000 0.0000 0.0000 1.0000 0.0000 0.0000)">
</g>
<g transform="matrix(0.0625 0.0000 0.0000 0.0625 0.0000 0.0000)">
<path d="M 1149.0000,3726.0000 L 1109.0000,3726.0000 " stroke="#000000" stroke-width="16.0000"  stroke-linecap="butt"  stroke-linejoin="miter"  stroke-miterlimit="10.0000" fill="none" />
</g>
<g transform="matrix(1.0000 0.0000 0.0000 1.0000 0.0000 0.0000)">
</g>
<g transform="matrix(0.0625 0.0000 0.0000 0.0625 0.0000 0.0000)">
<path d="M 1149.0000,3726.0000 L 1189.0000,3726.0000 " stroke="#000000" stroke-width="16.0000"  stroke-linecap="butt"  stroke-linejoin="miter"  stroke-miterlimit="10.0000" fill="none" />
</g>
<g transform="matrix(1.0000 0.0000 0.0000 1.0000 0.0000 0.0000)">
</g>
<g transform="matrix(0.0625 0.0000 0.0000 0.0625 0.0000 0.0000)">
<path d="M 1149.0000,3663.0000 L 1109.0000,3663.0000 " stroke="#000000" stroke-width="16.0000"  stroke-linecap="butt"  stroke-linejoin="miter"  stroke-miterlimit="10.0000" fill="none" />
</g>
<g transform="matrix(1.0000 0.0000 0.0000 1.0000 0.0000 0.0000)">
</g>
<g transform="matrix(0.0625 0.0000 0.0000 0.0625 0.0000 0.0000)">
<path d="M 1149.0000,3663.0000 L 1189.0000,3663.0000 " stroke="#000000" stroke-width="16.0000"  stroke-linecap="butt"  stroke-linejoin="miter"  stroke-miterlimit="10.0000" fill="none" />
</g>
<g transform="matrix(1.0000 0.0000 0.0000 1.0000 0.0000 0.0000)">
</g>
<g transform="matrix(0.0625 0.0000 0.0000 0.0625 0.0000 0.0000)">
<path d="M 1149.0000,3599.0000 L 1109.0000,3599.0000 " stroke="#000000" stroke-width="16.0000"  stroke-linecap="butt"  stroke-linejoin="miter"  stroke-miterlimit="10.0000" fill="none" />
</g>
<g transform="matrix(1.0000 0.0000 0.0000 1.0000 0.0000 0.0000)">
</g>
<g transform="matrix(0.0625 0.0000 0.0000 0.0625 0.0000 0.0000)">
<path d="M 1149.0000,3599.0000 L 1189.0000,3599.0000 " stroke="#000000" stroke-width="16.0000"  stroke-linecap="butt"  stroke-linejoin="miter"  stroke-miterlimit="10.0000" fill="none" />
</g>
<g transform="matrix(1.0000 0.0000 0.0000 1.0000 0.0000 0.0000)">
</g>
<g transform="matrix(0.0625 0.0000 0.0000 0.0625 0.0000 0.0000)">
<path d="M 1149.0000,3472.0000 L 1109.0000,3472.0000 " stroke="#000000" stroke-width="16.0000"  stroke-linecap="butt"  stroke-linejoin="miter"  stroke-miterlimit="10.0000" fill="none" />
</g>
<g transform="matrix(1.0000 0.0000 0.0000 1.0000 0.0000 0.0000)">
</g>
<g transform="matrix(0.0625 0.0000 0.0000 0.0625 0.0000 0.0000)">
<path d="M 1149.0000,3472.0000 L 1189.0000,3472.0000 " stroke="#000000" stroke-width="16.0000"  stroke-linecap="butt"  stroke-linejoin="miter"  stroke-miterlimit="10.0000" fill="none" />
</g>
<g transform="matrix(1.0000 0.0000 0.0000 1.0000 0.0000 0.0000)">
</g>
<g transform="matrix(0.0625 0.0000 0.0000 0.0625 0.0000 0.0000)">
<path d="M 1149.0000,3408.0000 L 1109.0000,3408.0000 " stroke="#000000" stroke-width="16.0000"  stroke-linecap="butt"  stroke-linejoin="miter"  stroke-miterlimit="10.0000" fill="none" />
</g>
<g transform="matrix(1.0000 0.0000 0.0000 1.0000 0.0000 0.0000)">
</g>
<g transform="matrix(0.0625 0.0000 0.0000 0.0625 0.0000 0.0000)">
<path d="M 1149.0000,3408.0000 L 1189.0000,3408.0000 " stroke="#000000" stroke-width="16.0000"  stroke-linecap="butt"  stroke-linejoin="miter"  stroke-miterlimit="10.0000" fill="none" />
</g>
<g transform="matrix(1.0000 0.0000 0.0000 1.0000 0.0000 0.0000)">
</g>
<g transform="matrix(0.0625 0.0000 0.0000 0.0625 0.0000 0.0000)">
<path d="M 1149.0000,3344.0000 L 1109.0000,3344.0000 " stroke="#000000" stroke-width="16.0000"  stroke-linecap="butt"  stroke-linejoin="miter"  stroke-miterlimit="10.0000" fill="none" />
</g>
<g transform="matrix(1.0000 0.0000 0.0000 1.0000 0.0000 0.0000)">
</g>
<g transform="matrix(0.0625 0.0000 0.0000 0.0625 0.0000 0.0000)">
<path d="M 1149.0000,3344.0000 L 1189.0000,3344.0000 " stroke="#000000" stroke-width="16.0000"  stroke-linecap="butt"  stroke-linejoin="miter"  stroke-miterlimit="10.0000" fill="none" />
</g>
<g transform="matrix(1.0000 0.0000 0.0000 1.0000 0.0000 0.0000)">
</g>
<g transform="matrix(0.0625 0.0000 0.0000 0.0625 0.0000 0.0000)">
<path d="M 1149.0000,3281.0000 L 1109.0000,3281.0000 " stroke="#000000" stroke-width="16.0000"  stroke-linecap="butt"  stroke-linejoin="miter"  stroke-miterlimit="10.0000" fill="none" />
</g>
<g transform="matrix(1.0000 0.0000 0.0000 1.0000 0.0000 0.0000)">
</g>
<g transform="matrix(0.0625 0.0000 0.0000 0.0625 0.0000 0.0000)">
<path d="M 1149.0000,3281.0000 L 1189.0000,3281.0000 " stroke="#000000" stroke-width="16.0000"  stroke-linecap="butt"  stroke-linejoin="miter"  stroke-miterlimit="10.0000" fill="none" />
</g>
<g transform="matrix(1.0000 0.0000 0.0000 1.0000 0.0000 0.0000)">
</g>
<g transform="matrix(0.0625 0.0000 0.0000 0.0625 0.0000 0.0000)">
<path d="M 1149.0000,3153.0000 L 1109.0000,3153.0000 " stroke="#000000" stroke-width="16.0000"  stroke-linecap="butt"  stroke-linejoin="miter"  stroke-miterlimit="10.0000" fill="none" />
</g>
<g transform="matrix(1.0000 0.0000 0.0000 1.0000 0.0000 0.0000)">
</g>
<g transform="matrix(0.0625 0.0000 0.0000 0.0625 0.0000 0.0000)">
<path d="M 1149.0000,3153.0000 L 1189.0000,3153.0000 " stroke="#000000" stroke-width="16.0000"  stroke-linecap="butt"  stroke-linejoin="miter"  stroke-miterlimit="10.0000" fill="none" />
</g>
<g transform="matrix(1.0000 0.0000 0.0000 1.0000 0.0000 0.0000)">
</g>
<g transform="matrix(0.0625 0.0000 0.0000 0.0625 0.0000 0.0000)">
<path d="M 1149.0000,3089.0000 L 1109.0000,3089.0000 " stroke="#000000" stroke-width="16.0000"  stroke-linecap="butt"  stroke-linejoin="miter"  stroke-miterlimit="10.0000" fill="none" />
</g>
<g transform="matrix(1.0000 0.0000 0.0000 1.0000 0.0000 0.0000)">
</g>
<g transform="matrix(0.0625 0.0000 0.0000 0.0625 0.0000 0.0000)">
<path d="M 1149.0000,3089.0000 L 1189.0000,3089.0000 " stroke="#000000" stroke-width="16.0000"  stroke-linecap="butt"  stroke-linejoin="miter"  stroke-miterlimit="10.0000" fill="none" />
</g>
<g transform="matrix(1.0000 0.0000 0.0000 1.0000 0.0000 0.0000)">
</g>
<g transform="matrix(0.0625 0.0000 0.0000 0.0625 0.0000 0.0000)">
<path d="M 1149.0000,3026.0000 L 1109.0000,3026.0000 " stroke="#000000" stroke-width="16.0000"  stroke-linecap="butt"  stroke-linejoin="miter"  stroke-miterlimit="10.0000" fill="none" />
</g>
<g transform="matrix(1.0000 0.0000 0.0000 1.0000 0.0000 0.0000)">
</g>
<g transform="matrix(0.0625 0.0000 0.0000 0.0625 0.0000 0.0000)">
<path d="M 1149.0000,3026.0000 L 1189.0000,3026.0000 " stroke="#000000" stroke-width="16.0000"  stroke-linecap="butt"  stroke-linejoin="miter"  stroke-miterlimit="10.0000" fill="none" />
</g>
<g transform="matrix(1.0000 0.0000 0.0000 1.0000 0.0000 0.0000)">
</g>
<g transform="matrix(0.0625 0.0000 0.0000 0.0625 0.0000 0.0000)">
<path d="M 1149.0000,2962.0000 L 1109.0000,2962.0000 " stroke="#000000" stroke-width="16.0000"  stroke-linecap="butt"  stroke-linejoin="miter"  stroke-miterlimit="10.0000" fill="none" />
</g>
<g transform="matrix(1.0000 0.0000 0.0000 1.0000 0.0000 0.0000)">
</g>
<g transform="matrix(0.0625 0.0000 0.0000 0.0625 0.0000 0.0000)">
<path d="M 1149.0000,2962.0000 L 1189.0000,2962.0000 " stroke="#000000" stroke-width="16.0000"  stroke-linecap="butt"  stroke-linejoin="miter"  stroke-miterlimit="10.0000" fill="none" />
</g>
<g transform="matrix(1.0000 0.0000 0.0000 1.0000 0.0000 0.0000)">
</g>
<g transform="matrix(0.0625 0.0000 0.0000 0.0625 0.0000 0.0000)">
<path d="M 1149.0000,2835.0000 L 1109.0000,2835.0000 " stroke="#000000" stroke-width="16.0000"  stroke-linecap="butt"  stroke-linejoin="miter"  stroke-miterlimit="10.0000" fill="none" />
</g>
<g transform="matrix(1.0000 0.0000 0.0000 1.0000 0.0000 0.0000)">
</g>
<g transform="matrix(0.0625 0.0000 0.0000 0.0625 0.0000 0.0000)">
<path d="M 1149.0000,2835.0000 L 1189.0000,2835.0000 " stroke="#000000" stroke-width="16.0000"  stroke-linecap="butt"  stroke-linejoin="miter"  stroke-miterlimit="10.0000" fill="none" />
</g>
<g transform="matrix(1.0000 0.0000 0.0000 1.0000 0.0000 0.0000)">
</g>
<g transform="matrix(0.0625 0.0000 0.0000 0.0625 0.0000 0.0000)">
<path d="M 1149.0000,2771.0000 L 1109.0000,2771.0000 " stroke="#000000" stroke-width="16.0000"  stroke-linecap="butt"  stroke-linejoin="miter"  stroke-miterlimit="10.0000" fill="none" />
</g>
<g transform="matrix(1.0000 0.0000 0.0000 1.0000 0.0000 0.0000)">
</g>
<g transform="matrix(0.0625 0.0000 0.0000 0.0625 0.0000 0.0000)">
<path d="M 1149.0000,2771.0000 L 1189.0000,2771.0000 " stroke="#000000" stroke-width="16.0000"  stroke-linecap="butt"  stroke-linejoin="miter"  stroke-miterlimit="10.0000" fill="none" />
</g>
<g transform="matrix(1.0000 0.0000 0.0000 1.0000 0.0000 0.0000)">
</g>
<g transform="matrix(0.0625 0.0000 0.0000 0.0625 0.0000 0.0000)">
<path d="M 1149.0000,2707.0000 L 1109.0000,2707.0000 " stroke="#000000" stroke-width="16.0000"  stroke-linecap="butt"  stroke-linejoin="miter"  stroke-miterlimit="10.0000" fill="none" />
</g>
<g transform="matrix(1.0000 0.0000 0.0000 1.0000 0.0000 0.0000)">
</g>
<g transform="matrix(0.0625 0.0000 0.0000 0.0625 0.0000 0.0000)">
<path d="M 1149.0000,2707.0000 L 1189.0000,2707.0000 " stroke="#000000" stroke-width="16.0000"  stroke-linecap="butt"  stroke-linejoin="miter"  stroke-miterlimit="10.0000" fill="none" />
</g>
<g transform="matrix(1.0000 0.0000 0.0000 1.0000 0.0000 0.0000)">
</g>
<g transform="matrix(0.0625 0.0000 0.0000 0.0625 0.0000 0.0000)">
<path d="M 1149.0000,2644.0000 L 1109.0000,2644.0000 " stroke="#000000" stroke-width="16.0000"  stroke-linecap="butt"  stroke-linejoin="miter"  stroke-miterlimit="10.0000" fill="none" />
</g>
<g transform="matrix(1.0000 0.0000 0.0000 1.0000 0.0000 0.0000)">
</g>
<g transform="matrix(0.0625 0.0000 0.0000 0.0625 0.0000 0.0000)">
<path d="M 1149.0000,2644.0000 L 1189.0000,2644.0000 " stroke="#000000" stroke-width="16.0000"  stroke-linecap="butt"  stroke-linejoin="miter"  stroke-miterlimit="10.0000" fill="none" />
</g>
<g transform="matrix(1.0000 0.0000 0.0000 1.0000 0.0000 0.0000)">
</g>
<g transform="matrix(0.0625 0.0000 0.0000 0.0625 0.0000 0.0000)">
<path d="M 1149.0000,2516.0000 L 1109.0000,2516.0000 " stroke="#000000" stroke-width="16.0000"  stroke-linecap="butt"  stroke-linejoin="miter"  stroke-miterlimit="10.0000" fill="none" />
</g>
<g transform="matrix(1.0000 0.0000 0.0000 1.0000 0.0000 0.0000)">
</g>
<g transform="matrix(0.0625 0.0000 0.0000 0.0625 0.0000 0.0000)">
<path d="M 1149.0000,2516.0000 L 1189.0000,2516.0000 " stroke="#000000" stroke-width="16.0000"  stroke-linecap="butt"  stroke-linejoin="miter"  stroke-miterlimit="10.0000" fill="none" />
</g>
<g transform="matrix(1.0000 0.0000 0.0000 1.0000 0.0000 0.0000)">
</g>
<g transform="matrix(0.0625 0.0000 0.0000 0.0625 0.0000 0.0000)">
<path d="M 1149.0000,2453.0000 L 1109.0000,2453.0000 " stroke="#000000" stroke-width="16.0000"  stroke-linecap="butt"  stroke-linejoin="miter"  stroke-miterlimit="10.0000" fill="none" />
</g>
<g transform="matrix(1.0000 0.0000 0.0000 1.0000 0.0000 0.0000)">
</g>
<g transform="matrix(0.0625 0.0000 0.0000 0.0625 0.0000 0.0000)">
<path d="M 1149.0000,2453.0000 L 1189.0000,2453.0000 " stroke="#000000" stroke-width="16.0000"  stroke-linecap="butt"  stroke-linejoin="miter"  stroke-miterlimit="10.0000" fill="none" />
</g>
<g transform="matrix(1.0000 0.0000 0.0000 1.0000 0.0000 0.0000)">
</g>
<g transform="matrix(0.0625 0.0000 0.0000 0.0625 0.0000 0.0000)">
<path d="M 1149.0000,2389.0000 L 1109.0000,2389.0000 " stroke="#000000" stroke-width="16.0000"  stroke-linecap="butt"  stroke-linejoin="miter"  stroke-miterlimit="10.0000" fill="none" />
</g>
<g transform="matrix(1.0000 0.0000 0.0000 1.0000 0.0000 0.0000)">
</g>
<g transform="matrix(0.0625 0.0000 0.0000 0.0625 0.0000 0.0000)">
<path d="M 1149.0000,2389.0000 L 1189.0000,2389.0000 " stroke="#000000" stroke-width="16.0000"  stroke-linecap="butt"  stroke-linejoin="miter"  stroke-miterlimit="10.0000" fill="none" />
</g>
<g transform="matrix(1.0000 0.0000 0.0000 1.0000 0.0000 0.0000)">
</g>
<g transform="matrix(0.0625 0.0000 0.0000 0.0625 0.0000 0.0000)">
<path d="M 1149.0000,2325.0000 L 1109.0000,2325.0000 " stroke="#000000" stroke-width="16.0000"  stroke-linecap="butt"  stroke-linejoin="miter"  stroke-miterlimit="10.0000" fill="none" />
</g>
<g transform="matrix(1.0000 0.0000 0.0000 1.0000 0.0000 0.0000)">
</g>
<g transform="matrix(0.0625 0.0000 0.0000 0.0625 0.0000 0.0000)">
<path d="M 1149.0000,2325.0000 L 1189.0000,2325.0000 " stroke="#000000" stroke-width="16.0000"  stroke-linecap="butt"  stroke-linejoin="miter"  stroke-miterlimit="10.0000" fill="none" />
</g>
<g transform="matrix(1.0000 0.0000 0.0000 1.0000 0.0000 0.0000)">
</g>
<g transform="matrix(0.0625 0.0000 0.0000 0.0625 0.0000 0.0000)">
<path d="M 1149.0000,2198.0000 L 1109.0000,2198.0000 " stroke="#000000" stroke-width="16.0000"  stroke-linecap="butt"  stroke-linejoin="miter"  stroke-miterlimit="10.0000" fill="none" />
</g>
<g transform="matrix(1.0000 0.0000 0.0000 1.0000 0.0000 0.0000)">
</g>
<g transform="matrix(0.0625 0.0000 0.0000 0.0625 0.0000 0.0000)">
<path d="M 1149.0000,2198.0000 L 1189.0000,2198.0000 " stroke="#000000" stroke-width="16.0000"  stroke-linecap="butt"  stroke-linejoin="miter"  stroke-miterlimit="10.0000" fill="none" />
</g>
<g transform="matrix(1.0000 0.0000 0.0000 1.0000 0.0000 0.0000)">
</g>
<g transform="matrix(0.0625 0.0000 0.0000 0.0625 0.0000 0.0000)">
<path d="M 1149.0000,2134.0000 L 1109.0000,2134.0000 " stroke="#000000" stroke-width="16.0000"  stroke-linecap="butt"  stroke-linejoin="miter"  stroke-miterlimit="10.0000" fill="none" />
</g>
<g transform="matrix(1.0000 0.0000 0.0000 1.0000 0.0000 0.0000)">
</g>
<g transform="matrix(0.0625 0.0000 0.0000 0.0625 0.0000 0.0000)">
<path d="M 1149.0000,2134.0000 L 1189.0000,2134.0000 " stroke="#000000" stroke-width="16.0000"  stroke-linecap="butt"  stroke-linejoin="miter"  stroke-miterlimit="10.0000" fill="none" />
</g>
<g transform="matrix(1.0000 0.0000 0.0000 1.0000 0.0000 0.0000)">
</g>
<g transform="matrix(0.0625 0.0000 0.0000 0.0625 0.0000 0.0000)">
<path d="M 1149.0000,2070.0000 L 1109.0000,2070.0000 " stroke="#000000" stroke-width="16.0000"  stroke-linecap="butt"  stroke-linejoin="miter"  stroke-miterlimit="10.0000" fill="none" />
</g>
<g transform="matrix(1.0000 0.0000 0.0000 1.0000 0.0000 0.0000)">
</g>
<g transform="matrix(0.0625 0.0000 0.0000 0.0625 0.0000 0.0000)">
<path d="M 1149.0000,2070.0000 L 1189.0000,2070.0000 " stroke="#000000" stroke-width="16.0000"  stroke-linecap="butt"  stroke-linejoin="miter"  stroke-miterlimit="10.0000" fill="none" />
</g>
<g transform="matrix(1.0000 0.0000 0.0000 1.0000 0.0000 0.0000)">
</g>
<g transform="matrix(0.0625 0.0000 0.0000 0.0625 0.0000 0.0000)">
<path d="M 1149.0000,2007.0000 L 1109.0000,2007.0000 " stroke="#000000" stroke-width="16.0000"  stroke-linecap="butt"  stroke-linejoin="miter"  stroke-miterlimit="10.0000" fill="none" />
</g>
<g transform="matrix(1.0000 0.0000 0.0000 1.0000 0.0000 0.0000)">
</g>
<g transform="matrix(0.0625 0.0000 0.0000 0.0625 0.0000 0.0000)">
<path d="M 1149.0000,2007.0000 L 1189.0000,2007.0000 " stroke="#000000" stroke-width="16.0000"  stroke-linecap="butt"  stroke-linejoin="miter"  stroke-miterlimit="10.0000" fill="none" />
</g>
<g transform="matrix(1.0000 0.0000 0.0000 1.0000 0.0000 0.0000)">
</g>
<g transform="matrix(0.0625 0.0000 0.0000 0.0625 0.0000 0.0000)">
<path d="M 1149.0000,1879.0000 L 1109.0000,1879.0000 " stroke="#000000" stroke-width="16.0000"  stroke-linecap="butt"  stroke-linejoin="miter"  stroke-miterlimit="10.0000" fill="none" />
</g>
<g transform="matrix(1.0000 0.0000 0.0000 1.0000 0.0000 0.0000)">
</g>
<g transform="matrix(0.0625 0.0000 0.0000 0.0625 0.0000 0.0000)">
<path d="M 1149.0000,1879.0000 L 1189.0000,1879.0000 " stroke="#000000" stroke-width="16.0000"  stroke-linecap="butt"  stroke-linejoin="miter"  stroke-miterlimit="10.0000" fill="none" />
</g>
<g transform="matrix(1.0000 0.0000 0.0000 1.0000 0.0000 0.0000)">
</g>
<g transform="matrix(0.0625 0.0000 0.0000 0.0625 0.0000 0.0000)">
<path d="M 1149.0000,1816.0000 L 1109.0000,1816.0000 " stroke="#000000" stroke-width="16.0000"  stroke-linecap="butt"  stroke-linejoin="miter"  stroke-miterlimit="10.0000" fill="none" />
</g>
<g transform="matrix(1.0000 0.0000 0.0000 1.0000 0.0000 0.0000)">
</g>
<g transform="matrix(0.0625 0.0000 0.0000 0.0625 0.0000 0.0000)">
<path d="M 1149.0000,1816.0000 L 1189.0000,1816.0000 " stroke="#000000" stroke-width="16.0000"  stroke-linecap="butt"  stroke-linejoin="miter"  stroke-miterlimit="10.0000" fill="none" />
</g>
<g transform="matrix(1.0000 0.0000 0.0000 1.0000 0.0000 0.0000)">
</g>
<g transform="matrix(0.0625 0.0000 0.0000 0.0625 0.0000 0.0000)">
<path d="M 1149.0000,1752.0000 L 1109.0000,1752.0000 " stroke="#000000" stroke-width="16.0000"  stroke-linecap="butt"  stroke-linejoin="miter"  stroke-miterlimit="10.0000" fill="none" />
</g>
<g transform="matrix(1.0000 0.0000 0.0000 1.0000 0.0000 0.0000)">
</g>
<g transform="matrix(0.0625 0.0000 0.0000 0.0625 0.0000 0.0000)">
<path d="M 1149.0000,1752.0000 L 1189.0000,1752.0000 " stroke="#000000" stroke-width="16.0000"  stroke-linecap="butt"  stroke-linejoin="miter"  stroke-miterlimit="10.0000" fill="none" />
</g>
<g transform="matrix(1.0000 0.0000 0.0000 1.0000 0.0000 0.0000)">
</g>
<g transform="matrix(0.0625 0.0000 0.0000 0.0625 0.0000 0.0000)">
<path d="M 1149.0000,1688.0000 L 1109.0000,1688.0000 " stroke="#000000" stroke-width="16.0000"  stroke-linecap="butt"  stroke-linejoin="miter"  stroke-miterlimit="10.0000" fill="none" />
</g>
<g transform="matrix(1.0000 0.0000 0.0000 1.0000 0.0000 0.0000)">
</g>
<g transform="matrix(0.0625 0.0000 0.0000 0.0625 0.0000 0.0000)">
<path d="M 1149.0000,1688.0000 L 1189.0000,1688.0000 " stroke="#000000" stroke-width="16.0000"  stroke-linecap="butt"  stroke-linejoin="miter"  stroke-miterlimit="10.0000" fill="none" />
</g>
<g transform="matrix(1.0000 0.0000 0.0000 1.0000 0.0000 0.0000)">
<defs><clipPath id="clip-41"><path d="M 72.0000,102.0000 L 387.0000,102.0000 L 387.0000,301.0000 L 72.0000,301.0000 L 72.0000,102.0000 Z Z" /></clipPath></defs>
</g>
<g transform="matrix(0.0625 0.0000 0.0000 0.0625 0.0000 0.0000)">
<path  clip-path="url(#clip-41)" d="M 1568.0000,1624.0000 L 1568.0000,1876.0000 L 2406.0000,1876.0000 L 2406.0000,1624.0000 L 1568.0000,1624.0000 Z" stroke-width="1px" stroke="#32CD32"  fill="#32CD32" />
</g>
<g transform="matrix(1.0000 0.0000 0.0000 1.0000 0.0000 0.0000)">
<defs><clipPath id="clip-18467"><path d="M 72.0000,102.0000 L 387.0000,102.0000 L 387.0000,301.0000 L 72.0000,301.0000 L 72.0000,102.0000 Z Z" /></clipPath></defs>
</g>
<g transform="matrix(0.0625 0.0000 0.0000 0.0625 0.0000 0.0000)">
<path  clip-path="url(#clip-18467)" d="M 3245.0000,1624.0000 L 3245.0000,1808.0000 L 4083.0000,1808.0000 L 4083.0000,1624.0000 L 3245.0000,1624.0000 Z" stroke-width="1px" stroke="#32CD32"  fill="#32CD32" />
</g>
<g transform="matrix(1.0000 0.0000 0.0000 1.0000 0.0000 0.0000)">
<defs><clipPath id="clip-6334"><path d="M 72.0000,102.0000 L 387.0000,102.0000 L 387.0000,301.0000 L 72.0000,301.0000 L 72.0000,102.0000 Z Z" /></clipPath></defs>
</g>
<g transform="matrix(0.0625 0.0000 0.0000 0.0625 0.0000 0.0000)">
<path  clip-path="url(#clip-6334)" d="M 4921.0000,1624.0000 L 4921.0000,1884.0000 L 5760.0000,1884.0000 L 5760.0000,1624.0000 L 4921.0000,1624.0000 Z" stroke-width="1px" stroke="#32CD32"  fill="#32CD32" />
</g>
<g transform="matrix(1.0000 0.0000 0.0000 1.0000 0.0000 0.0000)">
</g>
<g transform="matrix(0.0625 0.0000 0.0000 0.0625 0.0000 0.0000)">
<path d="M 1568.0000,1876.0000 L 1568.0000,2611.0000 L 2406.0000,2611.0000 L 2406.0000,1876.0000 L 1568.0000,1876.0000 Z" stroke-width="1px" stroke="#800080"  fill="#800080" />
</g>
<g transform="matrix(1.0000 0.0000 0.0000 1.0000 0.0000 0.0000)">
</g>
<g transform="matrix(0.0625 0.0000 0.0000 0.0625 0.0000 0.0000)">
<path d="M 3245.0000,1808.0000 L 3245.0000,2507.0000 L 4083.0000,2507.0000 L 4083.0000,1808.0000 L 3245.0000,1808.0000 Z" stroke-width="1px" stroke="#800080"  fill="#800080" />
</g>
<g transform="matrix(1.0000 0.0000 0.0000 1.0000 0.0000 0.0000)">
</g>
<g transform="matrix(0.0625 0.0000 0.0000 0.0625 0.0000 0.0000)">
<path d="M 4921.0000,1884.0000 L 4921.0000,2584.0000 L 5760.0000,2584.0000 L 5760.0000,1884.0000 L 4921.0000,1884.0000 Z" stroke-width="1px" stroke="#800080"  fill="#800080" />
</g>
<g transform="matrix(1.0000 0.0000 0.0000 1.0000 0.0000 0.0000)">
</g>
<g transform="matrix(0.0625 0.0000 0.0000 0.0625 0.0000 0.0000)">
<path d="M 1568.0000,2611.0000 L 1568.0000,2783.0000 L 2406.0000,2783.0000 L 2406.0000,2611.0000 L 1568.0000,2611.0000 Z" stroke-width="1px" stroke="#7570B3"  fill="#7570B3" />
</g>
<g transform="matrix(1.0000 0.0000 0.0000 1.0000 0.0000 0.0000)">
</g>
<g transform="matrix(0.0625 0.0000 0.0000 0.0625 0.0000 0.0000)">
<path d="M 3245.0000,2507.0000 L 3245.0000,2675.0000 L 4083.0000,2675.0000 L 4083.0000,2507.0000 L 3245.0000,2507.0000 Z" stroke-width="1px" stroke="#7570B3"  fill="#7570B3" />
</g>
<g transform="matrix(1.0000 0.0000 0.0000 1.0000 0.0000 0.0000)">
</g>
<g transform="matrix(0.0625 0.0000 0.0000 0.0625 0.0000 0.0000)">
<path d="M 4921.0000,2584.0000 L 4921.0000,2740.0000 L 5760.0000,2740.0000 L 5760.0000,2584.0000 L 4921.0000,2584.0000 Z" stroke-width="1px" stroke="#7570B3"  fill="#7570B3" />
</g>
<g transform="matrix(1.0000 0.0000 0.0000 1.0000 0.0000 0.0000)">
</g>
<g transform="matrix(0.0625 0.0000 0.0000 0.0625 0.0000 0.0000)">
<path d="M 1568.0000,2783.0000 L 1568.0000,3240.0000 L 2406.0000,3240.0000 L 2406.0000,2783.0000 L 1568.0000,2783.0000 Z" stroke-width="1px" stroke="#FFA500"  fill="#FFA500" />
</g>
<g transform="matrix(1.0000 0.0000 0.0000 1.0000 0.0000 0.0000)">
</g>
<g transform="matrix(0.0625 0.0000 0.0000 0.0625 0.0000 0.0000)">
<path d="M 3245.0000,2675.0000 L 3245.0000,3173.0000 L 4083.0000,3173.0000 L 4083.0000,2675.0000 L 3245.0000,2675.0000 Z" stroke-width="1px" stroke="#FFA500"  fill="#FFA500" />
</g>
<g transform="matrix(1.0000 0.0000 0.0000 1.0000 0.0000 0.0000)">
</g>
<g transform="matrix(0.0625 0.0000 0.0000 0.0625 0.0000 0.0000)">
<path d="M 4921.0000,2740.0000 L 4921.0000,3229.0000 L 5760.0000,3229.0000 L 5760.0000,2740.0000 L 4921.0000,2740.0000 Z" stroke-width="1px" stroke="#FFA500"  fill="#FFA500" />
</g>
<g transform="matrix(1.0000 0.0000 0.0000 1.0000 0.0000 0.0000)">
</g>
<g transform="matrix(0.0625 0.0000 0.0000 0.0625 0.0000 0.0000)">
<path d="M 1568.0000,3240.0000 L 1568.0000,3307.0000 L 2406.0000,3307.0000 L 2406.0000,3240.0000 L 1568.0000,3240.0000 Z" stroke-width="1px" stroke="#008000"  fill="#008000" />
</g>
<g transform="matrix(1.0000 0.0000 0.0000 1.0000 0.0000 0.0000)">
</g>
<g transform="matrix(0.0625 0.0000 0.0000 0.0625 0.0000 0.0000)">
<path d="M 3245.0000,3173.0000 L 3245.0000,3280.0000 L 4083.0000,3280.0000 L 4083.0000,3173.0000 L 3245.0000,3173.0000 Z" stroke-width="1px" stroke="#008000"  fill="#008000" />
</g>
<g transform="matrix(1.0000 0.0000 0.0000 1.0000 0.0000 0.0000)">
</g>
<g transform="matrix(0.0625 0.0000 0.0000 0.0625 0.0000 0.0000)">
<path d="M 4921.0000,3229.0000 L 4921.0000,3316.0000 L 5760.0000,3316.0000 L 5760.0000,3229.0000 L 4921.0000,3229.0000 Z" stroke-width="1px" stroke="#008000"  fill="#008000" />
</g>
<g transform="matrix(1.0000 0.0000 0.0000 1.0000 0.0000 0.0000)">
</g>
<g transform="matrix(0.0625 0.0000 0.0000 0.0625 0.0000 0.0000)">
<path d="M 1568.0000,3307.0000 L 1568.0000,3559.0000 L 2406.0000,3559.0000 L 2406.0000,3307.0000 L 1568.0000,3307.0000 Z" stroke-width="1px" stroke="#008B8B"  fill="#008B8B" />
</g>
<g transform="matrix(1.0000 0.0000 0.0000 1.0000 0.0000 0.0000)">
</g>
<g transform="matrix(0.0625 0.0000 0.0000 0.0625 0.0000 0.0000)">
<path d="M 3245.0000,3280.0000 L 3245.0000,3534.0000 L 4083.0000,3534.0000 L 4083.0000,3280.0000 L 3245.0000,3280.0000 Z" stroke-width="1px" stroke="#008B8B"  fill="#008B8B" />
</g>
<g transform="matrix(1.0000 0.0000 0.0000 1.0000 0.0000 0.0000)">
</g>
<g transform="matrix(0.0625 0.0000 0.0000 0.0625 0.0000 0.0000)">
<path d="M 4921.0000,3316.0000 L 4921.0000,3573.0000 L 5760.0000,3573.0000 L 5760.0000,3316.0000 L 4921.0000,3316.0000 Z" stroke-width="1px" stroke="#008B8B"  fill="#008B8B" />
</g>
<g transform="matrix(1.0000 0.0000 0.0000 1.0000 0.0000 0.0000)">
</g>
<g transform="matrix(0.0625 0.0000 0.0000 0.0625 0.0000 0.0000)">
<path d="M 1568.0000,3559.0000 L 1568.0000,4088.0000 L 2406.0000,4088.0000 L 2406.0000,3559.0000 L 1568.0000,3559.0000 Z" stroke-width="1px" stroke="#D2691E"  fill="#D2691E" />
</g>
<g transform="matrix(1.0000 0.0000 0.0000 1.0000 0.0000 0.0000)">
</g>
<g transform="matrix(0.0625 0.0000 0.0000 0.0625 0.0000 0.0000)">
<path d="M 3245.0000,3534.0000 L 3245.0000,4052.0000 L 4083.0000,4052.0000 L 4083.0000,3534.0000 L 3245.0000,3534.0000 Z" stroke-width="1px" stroke="#D2691E"  fill="#D2691E" />
</g>
<g transform="matrix(1.0000 0.0000 0.0000 1.0000 0.0000 0.0000)">
</g>
<g transform="matrix(0.0625 0.0000 0.0000 0.0625 0.0000 0.0000)">
<path d="M 4921.0000,3573.0000 L 4921.0000,4056.0000 L 5760.0000,4056.0000 L 5760.0000,3573.0000 L 4921.0000,3573.0000 Z" stroke-width="1px" stroke="#D2691E"  fill="#D2691E" />
</g>
<g transform="matrix(1.0000 0.0000 0.0000 1.0000 0.0000 0.0000)">
</g>
<g transform="matrix(0.0625 0.0000 0.0000 0.0625 0.0000 0.0000)">
<path d="M 1568.0000,4088.0000 L 1568.0000,4559.0000 L 2406.0000,4559.0000 L 2406.0000,4088.0000 L 1568.0000,4088.0000 Z" stroke-width="1px" stroke="#A52A2A"  fill="#A52A2A" />
</g>
<g transform="matrix(1.0000 0.0000 0.0000 1.0000 0.0000 0.0000)">
</g>
<g transform="matrix(0.0625 0.0000 0.0000 0.0625 0.0000 0.0000)">
<path d="M 3245.0000,4052.0000 L 3245.0000,4567.0000 L 4083.0000,4567.0000 L 4083.0000,4052.0000 L 3245.0000,4052.0000 Z" stroke-width="1px" stroke="#A52A2A"  fill="#A52A2A" />
</g>
<g transform="matrix(1.0000 0.0000 0.0000 1.0000 0.0000 0.0000)">
</g>
<g transform="matrix(0.0625 0.0000 0.0000 0.0625 0.0000 0.0000)">
<path d="M 4921.0000,4056.0000 L 4921.0000,4555.0000 L 5760.0000,4555.0000 L 5760.0000,4056.0000 L 4921.0000,4056.0000 Z" stroke-width="1px" stroke="#A52A2A"  fill="#A52A2A" />
</g>
<g transform="matrix(1.0000 0.0000 0.0000 1.0000 0.0000 0.0000)">
</g>
<g transform="matrix(0.0625 0.0000 0.0000 0.0625 0.0000 0.0000)">
<path d="M 1568.0000,4559.0000 L 1568.0000,4809.0000 L 2406.0000,4809.0000 L 2406.0000,4559.0000 L 1568.0000,4559.0000 Z" stroke-width="1px" stroke="#8A2BE2"  fill="#8A2BE2" />
</g>
<g transform="matrix(1.0000 0.0000 0.0000 1.0000 0.0000 0.0000)">
</g>
<g transform="matrix(0.0625 0.0000 0.0000 0.0625 0.0000 0.0000)">
<path d="M 3245.0000,4567.0000 L 3245.0000,4809.0000 L 4083.0000,4809.0000 L 4083.0000,4567.0000 L 3245.0000,4567.0000 Z" stroke-width="1px" stroke="#8A2BE2"  fill="#8A2BE2" />
</g>
<g transform="matrix(1.0000 0.0000 0.0000 1.0000 0.0000 0.0000)">
</g>
<g transform="matrix(0.0625 0.0000 0.0000 0.0625 0.0000 0.0000)">
<path d="M 4921.0000,4555.0000 L 4921.0000,4809.0000 L 5760.0000,4809.0000 L 5760.0000,4555.0000 L 4921.0000,4555.0000 Z" stroke-width="1px" stroke="#8A2BE2"  fill="#8A2BE2" />
</g>
<g transform="matrix(1.0000 0.0000 0.0000 1.0000 0.0000 0.0000)">
</g>
<g transform="matrix(0.0625 0.0000 0.0000 0.0625 0.0000 0.0000)">
<path d="M 1149.0000,4809.0000 L 6179.0000,4809.0000 " stroke="#000000" stroke-width="16.0000"  stroke-linecap="butt"  stroke-linejoin="miter"  stroke-miterlimit="10.0000" fill="none" />
</g>
<g transform="matrix(1.0000 0.0000 0.0000 1.0000 0.0000 0.0000)">
</g>
<g transform="matrix(0.0625 0.0000 0.0000 0.0625 0.0000 0.0000)">
<path d="M 1987.0000,4809.0000 L 1987.0000,4889.0000 " stroke="#000000" stroke-width="16.0000"  stroke-linecap="butt"  stroke-linejoin="miter"  stroke-miterlimit="10.0000" fill="none" />
</g>
<g transform="matrix(1.0000 0.0000 0.0000 1.0000 0.0000 0.0000)">
</g>
<g transform="matrix(0.0625 0.0000 0.0000 0.0625 0.0000 0.0000)">
<path d="M 1987.0000,4809.0000 L 1987.0000,4729.0000 " stroke="#000000" stroke-width="16.0000"  stroke-linecap="butt"  stroke-linejoin="miter"  stroke-miterlimit="10.0000" fill="none" />
</g>
<g transform="matrix(1.0000 0.0000 0.0000 1.0000 0.0000 0.0000)">
<text font-family="PMingLiU" fill="#000000" style ="white-space:pre;" font-weight="400" text-anchor="start" x="117.0000" y="322.0000" font-size="13.0000" ><![CDATA[库]]></text>
</g>
<g transform="matrix(0.0625 0.0000 0.0000 0.0625 0.0000 0.0000)">
<path d="M 3664.0000,4809.0000 L 3664.0000,4889.0000 " stroke="#000000" stroke-width="16.0000"  stroke-linecap="butt"  stroke-linejoin="miter"  stroke-miterlimit="10.0000" fill="none" />
</g>
<g transform="matrix(1.0000 0.0000 0.0000 1.0000 0.0000 0.0000)">
</g>
<g transform="matrix(0.0625 0.0000 0.0000 0.0625 0.0000 0.0000)">
<path d="M 3664.0000,4809.0000 L 3664.0000,4729.0000 " stroke="#000000" stroke-width="16.0000"  stroke-linecap="butt"  stroke-linejoin="miter"  stroke-miterlimit="10.0000" fill="none" />
</g>
<g transform="matrix(1.0000 0.0000 0.0000 1.0000 0.0000 0.0000)">
<text font-family="Arial" fill="#000000" style ="white-space:pre;" font-weight="400" text-anchor="start" x="199.0000" y="322.0000" font-size="12.0000" ><![CDATA[20fmol_uL]]></text>
</g>
<g transform="matrix(0.0625 0.0000 0.0000 0.0625 0.0000 0.0000)">
<path d="M 5340.0000,4809.0000 L 5340.0000,4889.0000 " stroke="#000000" stroke-width="16.0000"  stroke-linecap="butt"  stroke-linejoin="miter"  stroke-miterlimit="10.0000" fill="none" />
</g>
<g transform="matrix(1.0000 0.0000 0.0000 1.0000 0.0000 0.0000)">
</g>
<g transform="matrix(0.0625 0.0000 0.0000 0.0625 0.0000 0.0000)">
<path d="M 5340.0000,4809.0000 L 5340.0000,4729.0000 " stroke="#000000" stroke-width="16.0000"  stroke-linecap="butt"  stroke-linejoin="miter"  stroke-miterlimit="10.0000" fill="none" />
</g>
<g transform="matrix(1.0000 0.0000 0.0000 1.0000 0.0000 0.0000)">
<text font-family="Arial" fill="#000000" style ="white-space:pre;" font-weight="400" text-anchor="start" x="304.0000" y="322.0000" font-size="12.0000" ><![CDATA[80fmol_uL]]></text>
<text font-family="MS UI Gothic" fill="#000000" style ="white-space:pre;" font-weight="700" text-anchor="start" x="196.0000" y="343.0000" font-size="15.0000" ><![CDATA[重复]]></text>
<text font-family="PMingLiU" fill="#000000" style ="white-space:pre;" font-weight="700" text-anchor="start" x="229.0000" y="343.0000" font-size="15.0000" ><![CDATA[测]]></text>
<text font-family="MS UI Gothic" fill="#000000" style ="white-space:pre;" font-weight="700" text-anchor="start" x="245.0000" y="343.0000" font-size="15.0000" ><![CDATA[定]]></text>
</g>
<g transform="matrix(0.0625 0.0000 0.0000 0.0625 0.0000 0.0000)">
<path d="M 1149.0000,1624.0000 L 1149.0000,4809.0000 " stroke="#000000" stroke-width="16.0000"  stroke-linecap="butt"  stroke-linejoin="miter"  stroke-miterlimit="10.0000" fill="none" />
</g>
<g transform="matrix(1.0000 0.0000 0.0000 1.0000 0.0000 0.0000)">
</g>
<g transform="matrix(0.0625 0.0000 0.0000 0.0625 0.0000 0.0000)">
<path d="M 1149.0000,4809.0000 L 1069.0000,4809.0000 " stroke="#000000" stroke-width="16.0000"  stroke-linecap="butt"  stroke-linejoin="miter"  stroke-miterlimit="10.0000" fill="none" />
</g>
<g transform="matrix(1.0000 0.0000 0.0000 1.0000 0.0000 0.0000)">
</g>
<g transform="matrix(0.0625 0.0000 0.0000 0.0625 0.0000 0.0000)">
<path d="M 1149.0000,4809.0000 L 1229.0000,4809.0000 " stroke="#000000" stroke-width="16.0000"  stroke-linecap="butt"  stroke-linejoin="miter"  stroke-miterlimit="10.0000" fill="none" />
</g>
<g transform="matrix(1.0000 0.0000 0.0000 1.0000 0.0000 0.0000)">
<text font-family="Arial" fill="#000000" style ="white-space:pre;" font-weight="400" text-anchor="start" x="43.0000" y="305.0000" font-size="14.0000" ><![CDATA[0]]></text>
</g>
<g transform="matrix(0.0625 0.0000 0.0000 0.0625 0.0000 0.0000)">
<path d="M 1149.0000,4491.0000 L 1069.0000,4491.0000 " stroke="#000000" stroke-width="16.0000"  stroke-linecap="butt"  stroke-linejoin="miter"  stroke-miterlimit="10.0000" fill="none" />
</g>
<g transform="matrix(1.0000 0.0000 0.0000 1.0000 0.0000 0.0000)">
</g>
<g transform="matrix(0.0625 0.0000 0.0000 0.0625 0.0000 0.0000)">
<path d="M 1149.0000,4491.0000 L 1229.0000,4491.0000 " stroke="#000000" stroke-width="16.0000"  stroke-linecap="butt"  stroke-linejoin="miter"  stroke-miterlimit="10.0000" fill="none" />
</g>
<g transform="matrix(1.0000 0.0000 0.0000 1.0000 0.0000 0.0000)">
<text font-family="Arial" fill="#000000" style ="white-space:pre;" font-weight="400" text-anchor="start" x="39.0000" y="285.0000" font-size="14.0000" ><![CDATA[10]]></text>
</g>
<g transform="matrix(0.0625 0.0000 0.0000 0.0625 0.0000 0.0000)">
<path d="M 1149.0000,4172.0000 L 1069.0000,4172.0000 " stroke="#000000" stroke-width="16.0000"  stroke-linecap="butt"  stroke-linejoin="miter"  stroke-miterlimit="10.0000" fill="none" />
</g>
<g transform="matrix(1.0000 0.0000 0.0000 1.0000 0.0000 0.0000)">
</g>
<g transform="matrix(0.0625 0.0000 0.0000 0.0625 0.0000 0.0000)">
<path d="M 1149.0000,4172.0000 L 1229.0000,4172.0000 " stroke="#000000" stroke-width="16.0000"  stroke-linecap="butt"  stroke-linejoin="miter"  stroke-miterlimit="10.0000" fill="none" />
</g>
<g transform="matrix(1.0000 0.0000 0.0000 1.0000 0.0000 0.0000)">
<text font-family="Arial" fill="#000000" style ="white-space:pre;" font-weight="400" text-anchor="start" x="39.0000" y="265.0000" font-size="14.0000" ><![CDATA[20]]></text>
</g>
<g transform="matrix(0.0625 0.0000 0.0000 0.0625 0.0000 0.0000)">
<path d="M 1149.0000,3854.0000 L 1069.0000,3854.0000 " stroke="#000000" stroke-width="16.0000"  stroke-linecap="butt"  stroke-linejoin="miter"  stroke-miterlimit="10.0000" fill="none" />
</g>
<g transform="matrix(1.0000 0.0000 0.0000 1.0000 0.0000 0.0000)">
</g>
<g transform="matrix(0.0625 0.0000 0.0000 0.0625 0.0000 0.0000)">
<path d="M 1149.0000,3854.0000 L 1229.0000,3854.0000 " stroke="#000000" stroke-width="16.0000"  stroke-linecap="butt"  stroke-linejoin="miter"  stroke-miterlimit="10.0000" fill="none" />
</g>
<g transform="matrix(1.0000 0.0000 0.0000 1.0000 0.0000 0.0000)">
<text font-family="Arial" fill="#000000" style ="white-space:pre;" font-weight="400" text-anchor="start" x="39.0000" y="245.0000" font-size="14.0000" ><![CDATA[30]]></text>
</g>
<g transform="matrix(0.0625 0.0000 0.0000 0.0625 0.0000 0.0000)">
<path d="M 1149.0000,3535.0000 L 1069.0000,3535.0000 " stroke="#000000" stroke-width="16.0000"  stroke-linecap="butt"  stroke-linejoin="miter"  stroke-miterlimit="10.0000" fill="none" />
</g>
<g transform="matrix(1.0000 0.0000 0.0000 1.0000 0.0000 0.0000)">
</g>
<g transform="matrix(0.0625 0.0000 0.0000 0.0625 0.0000 0.0000)">
<path d="M 1149.0000,3535.0000 L 1229.0000,3535.0000 " stroke="#000000" stroke-width="16.0000"  stroke-linecap="butt"  stroke-linejoin="miter"  stroke-miterlimit="10.0000" fill="none" />
</g>
<g transform="matrix(1.0000 0.0000 0.0000 1.0000 0.0000 0.0000)">
<text font-family="Arial" fill="#000000" style ="white-space:pre;" font-weight="400" text-anchor="start" x="39.0000" y="225.0000" font-size="14.0000" ><![CDATA[40]]></text>
</g>
<g transform="matrix(0.0625 0.0000 0.0000 0.0625 0.0000 0.0000)">
<path d="M 1149.0000,3217.0000 L 1069.0000,3217.0000 " stroke="#000000" stroke-width="16.0000"  stroke-linecap="butt"  stroke-linejoin="miter"  stroke-miterlimit="10.0000" fill="none" />
</g>
<g transform="matrix(1.0000 0.0000 0.0000 1.0000 0.0000 0.0000)">
</g>
<g transform="matrix(0.0625 0.0000 0.0000 0.0625 0.0000 0.0000)">
<path d="M 1149.0000,3217.0000 L 1229.0000,3217.0000 " stroke="#000000" stroke-width="16.0000"  stroke-linecap="butt"  stroke-linejoin="miter"  stroke-miterlimit="10.0000" fill="none" />
</g>
<g transform="matrix(1.0000 0.0000 0.0000 1.0000 0.0000 0.0000)">
<text font-family="Arial" fill="#000000" style ="white-space:pre;" font-weight="400" text-anchor="start" x="39.0000" y="205.0000" font-size="14.0000" ><![CDATA[50]]></text>
</g>
<g transform="matrix(0.0625 0.0000 0.0000 0.0625 0.0000 0.0000)">
<path d="M 1149.0000,2898.0000 L 1069.0000,2898.0000 " stroke="#000000" stroke-width="16.0000"  stroke-linecap="butt"  stroke-linejoin="miter"  stroke-miterlimit="10.0000" fill="none" />
</g>
<g transform="matrix(1.0000 0.0000 0.0000 1.0000 0.0000 0.0000)">
</g>
<g transform="matrix(0.0625 0.0000 0.0000 0.0625 0.0000 0.0000)">
<path d="M 1149.0000,2898.0000 L 1229.0000,2898.0000 " stroke="#000000" stroke-width="16.0000"  stroke-linecap="butt"  stroke-linejoin="miter"  stroke-miterlimit="10.0000" fill="none" />
</g>
<g transform="matrix(1.0000 0.0000 0.0000 1.0000 0.0000 0.0000)">
<text font-family="Arial" fill="#000000" style ="white-space:pre;" font-weight="400" text-anchor="start" x="39.0000" y="185.0000" font-size="14.0000" ><![CDATA[60]]></text>
</g>
<g transform="matrix(0.0625 0.0000 0.0000 0.0625 0.0000 0.0000)">
<path d="M 1149.0000,2580.0000 L 1069.0000,2580.0000 " stroke="#000000" stroke-width="16.0000"  stroke-linecap="butt"  stroke-linejoin="miter"  stroke-miterlimit="10.0000" fill="none" />
</g>
<g transform="matrix(1.0000 0.0000 0.0000 1.0000 0.0000 0.0000)">
</g>
<g transform="matrix(0.0625 0.0000 0.0000 0.0625 0.0000 0.0000)">
<path d="M 1149.0000,2580.0000 L 1229.0000,2580.0000 " stroke="#000000" stroke-width="16.0000"  stroke-linecap="butt"  stroke-linejoin="miter"  stroke-miterlimit="10.0000" fill="none" />
</g>
<g transform="matrix(1.0000 0.0000 0.0000 1.0000 0.0000 0.0000)">
<text font-family="Arial" fill="#000000" style ="white-space:pre;" font-weight="400" text-anchor="start" x="39.0000" y="165.0000" font-size="14.0000" ><![CDATA[70]]></text>
</g>
<g transform="matrix(0.0625 0.0000 0.0000 0.0625 0.0000 0.0000)">
<path d="M 1149.0000,2261.0000 L 1069.0000,2261.0000 " stroke="#000000" stroke-width="16.0000"  stroke-linecap="butt"  stroke-linejoin="miter"  stroke-miterlimit="10.0000" fill="none" />
</g>
<g transform="matrix(1.0000 0.0000 0.0000 1.0000 0.0000 0.0000)">
</g>
<g transform="matrix(0.0625 0.0000 0.0000 0.0625 0.0000 0.0000)">
<path d="M 1149.0000,2261.0000 L 1229.0000,2261.0000 " stroke="#000000" stroke-width="16.0000"  stroke-linecap="butt"  stroke-linejoin="miter"  stroke-miterlimit="10.0000" fill="none" />
</g>
<g transform="matrix(1.0000 0.0000 0.0000 1.0000 0.0000 0.0000)">
<text font-family="Arial" fill="#000000" style ="white-space:pre;" font-weight="400" text-anchor="start" x="39.0000" y="145.0000" font-size="14.0000" ><![CDATA[80]]></text>
</g>
<g transform="matrix(0.0625 0.0000 0.0000 0.0625 0.0000 0.0000)">
<path d="M 1149.0000,1943.0000 L 1069.0000,1943.0000 " stroke="#000000" stroke-width="16.0000"  stroke-linecap="butt"  stroke-linejoin="miter"  stroke-miterlimit="10.0000" fill="none" />
</g>
<g transform="matrix(1.0000 0.0000 0.0000 1.0000 0.0000 0.0000)">
</g>
<g transform="matrix(0.0625 0.0000 0.0000 0.0625 0.0000 0.0000)">
<path d="M 1149.0000,1943.0000 L 1229.0000,1943.0000 " stroke="#000000" stroke-width="16.0000"  stroke-linecap="butt"  stroke-linejoin="miter"  stroke-miterlimit="10.0000" fill="none" />
</g>
<g transform="matrix(1.0000 0.0000 0.0000 1.0000 0.0000 0.0000)">
<text font-family="Arial" fill="#000000" style ="white-space:pre;" font-weight="400" text-anchor="start" x="39.0000" y="125.0000" font-size="14.0000" ><![CDATA[90]]></text>
</g>
<g transform="matrix(0.0625 0.0000 0.0000 0.0625 0.0000 0.0000)">
<path d="M 1149.0000,1624.0000 L 1069.0000,1624.0000 " stroke="#000000" stroke-width="16.0000"  stroke-linecap="butt"  stroke-linejoin="miter"  stroke-miterlimit="10.0000" fill="none" />
</g>
<g transform="matrix(1.0000 0.0000 0.0000 1.0000 0.0000 0.0000)">
</g>
<g transform="matrix(0.0625 0.0000 0.0000 0.0625 0.0000 0.0000)">
<path d="M 1149.0000,1624.0000 L 1229.0000,1624.0000 " stroke="#000000" stroke-width="16.0000"  stroke-linecap="butt"  stroke-linejoin="miter"  stroke-miterlimit="10.0000" fill="none" />
</g>
<g transform="matrix(1.0000 0.0000 0.0000 1.0000 0.0000 0.0000)">
<text font-family="Arial" fill="#000000" style ="white-space:pre;" font-weight="400" text-anchor="start" x="35.0000" y="106.0000" font-size="14.0000" ><![CDATA[100]]></text>
<text font-family="MS UI Gothic" fill="#000000" transform="rotate(-90, 23.0000, 263.5000) translate(0, 13.5000)" style ="white-space:pre;" font-weight="700" text-anchor="start" x="23.0000" y="250.0000" font-size="15.0000" ><![CDATA[峰]]></text>
<text font-family="MS UI Gothic" fill="#000000" transform="rotate(-90, 23.0000, 247.5000) translate(0, 13.5000)" style ="white-space:pre;" font-weight="700" text-anchor="start" x="23.0000" y="234.0000" font-size="15.0000" ><![CDATA[面]]></text>
<text font-family="PMingLiU" fill="#000000" transform="rotate(-90, 23.0000, 230.5000) translate(0, 13.5000)" style ="white-space:pre;" font-weight="700" text-anchor="start" x="23.0000" y="217.0000" font-size="15.0000" ><![CDATA[积]]></text>
<text font-family="MS UI Gothic" fill="#000000" transform="rotate(-90, 23.0000, 214.5000) translate(0, 13.5000)" style ="white-space:pre;" font-weight="700" text-anchor="start" x="23.0000" y="201.0000" font-size="15.0000" ><![CDATA[百]]></text>
<text font-family="MS UI Gothic" fill="#000000" transform="rotate(-90, 23.0000, 198.5000) translate(0, 13.5000)" style ="white-space:pre;" font-weight="700" text-anchor="start" x="23.0000" y="185.0000" font-size="15.0000" ><![CDATA[分]]></text>
<text font-family="MS UI Gothic" fill="#000000" transform="rotate(-90, 23.0000, 182.5000) translate(0, 13.5000)" style ="white-space:pre;" font-weight="700" text-anchor="start" x="23.0000" y="169.0000" font-size="15.0000" ><![CDATA[比]]></text>
<path d="M 71.0000,19.0000 L 71.0000,94.0000 L 372.0000,94.0000 L 372.0000,19.0000 L 71.0000,19.0000 Z" stroke-width="1px" stroke="#FFFFFF"  fill="#FFFFFF" />
<text font-family="Arial" fill="#000000" style ="white-space:pre;" font-weight="400" text-anchor="start" x="113.0000" y="34.0000" font-size="12.0000" ><![CDATA[y4 - 455.1885+]]></text>
</g>
<g transform="matrix(0.0625 0.0000 0.0000 0.0625 0.0000 0.0000)">
<path d="M 1205.0000,416.0000 L 1205.0000,528.0000 L 1653.0000,528.0000 L 1653.0000,416.0000 L 1205.0000,416.0000 Z" stroke-width="1px" stroke="#8A2BE2"  fill="#8A2BE2" />
</g>
<g transform="matrix(1.0000 0.0000 0.0000 1.0000 0.0000 0.0000)">
<text font-family="Arial" fill="#000000" style ="white-space:pre;" font-weight="400" text-anchor="start" x="263.0000" y="34.0000" font-size="12.0000" ><![CDATA[y3 - 340.1615+]]></text>
</g>
<g transform="matrix(0.0625 0.0000 0.0000 0.0625 0.0000 0.0000)">
<path d="M 3606.0000,416.0000 L 3606.0000,528.0000 L 4054.0000,528.0000 L 4054.0000,416.0000 L 3606.0000,416.0000 Z" stroke-width="1px" stroke="#A52A2A"  fill="#A52A2A" />
</g>
<g transform="matrix(1.0000 0.0000 0.0000 1.0000 0.0000 0.0000)">
<text font-family="Arial" fill="#000000" style ="white-space:pre;" font-weight="400" text-anchor="start" x="113.0000" y="48.0000" font-size="12.0000" ><![CDATA[y10 - 609.7794++]]></text>
</g>
<g transform="matrix(0.0625 0.0000 0.0000 0.0625 0.0000 0.0000)">
<path d="M 1205.0000,640.0000 L 1205.0000,752.0000 L 1653.0000,752.0000 L 1653.0000,640.0000 L 1205.0000,640.0000 Z" stroke-width="1px" stroke="#D2691E"  fill="#D2691E" />
</g>
<g transform="matrix(1.0000 0.0000 0.0000 1.0000 0.0000 0.0000)">
<text font-family="Arial" fill="#000000" style ="white-space:pre;" font-weight="400" text-anchor="start" x="262.0000" y="48.0000" font-size="12.0000" ><![CDATA[y9 - 545.7319++]]></text>
</g>
<g transform="matrix(0.0625 0.0000 0.0000 0.0625 0.0000 0.0000)">
<path d="M 3606.0000,640.0000 L 3606.0000,752.0000 L 4054.0000,752.0000 L 4054.0000,640.0000 L 3606.0000,640.0000 Z" stroke-width="1px" stroke="#008B8B"  fill="#008B8B" />
</g>
<g transform="matrix(1.0000 0.0000 0.0000 1.0000 0.0000 0.0000)">
<text font-family="Arial" fill="#000000" style ="white-space:pre;" font-weight="400" text-anchor="start" x="112.0000" y="62.0000" font-size="12.0000" ><![CDATA[y8 - 488.7104++]]></text>
</g>
<g transform="matrix(0.0625 0.0000 0.0000 0.0625 0.0000 0.0000)">
<path d="M 1205.0000,864.0000 L 1205.0000,976.0000 L 1653.0000,976.0000 L 1653.0000,864.0000 L 1205.0000,864.0000 Z" stroke-width="1px" stroke="#008000"  fill="#008000" />
</g>
<g transform="matrix(1.0000 0.0000 0.0000 1.0000 0.0000 0.0000)">
<text font-family="Arial" fill="#000000" style ="white-space:pre;" font-weight="400" text-anchor="start" x="262.0000" y="62.0000" font-size="12.0000" ><![CDATA[y10 - 406.8553+++]]></text>
</g>
<g transform="matrix(0.0625 0.0000 0.0000 0.0625 0.0000 0.0000)">
<path d="M 3606.0000,864.0000 L 3606.0000,976.0000 L 4054.0000,976.0000 L 4054.0000,864.0000 L 3606.0000,864.0000 Z" stroke-width="1px" stroke="#FFA500"  fill="#FFA500" />
</g>
<g transform="matrix(1.0000 0.0000 0.0000 1.0000 0.0000 0.0000)">
<text font-family="Arial" fill="#000000" style ="white-space:pre;" font-weight="400" text-anchor="start" x="112.0000" y="76.0000" font-size="12.0000" ><![CDATA[b5 - 597.3719+]]></text>
</g>
<g transform="matrix(0.0625 0.0000 0.0000 0.0625 0.0000 0.0000)">
<path d="M 1205.0000,1088.0000 L 1205.0000,1200.0000 L 1653.0000,1200.0000 L 1653.0000,1088.0000 L 1205.0000,1088.0000 Z" stroke-width="1px" stroke="#7570B3"  fill="#7570B3" />
</g>
<g transform="matrix(1.0000 0.0000 0.0000 1.0000 0.0000 0.0000)">
<text font-family="Arial" fill="#000000" style ="white-space:pre;" font-weight="400" text-anchor="start" x="263.0000" y="76.0000" font-size="12.0000" ><![CDATA[b8 - 496.7443++]]></text>
</g>
<g transform="matrix(0.0625 0.0000 0.0000 0.0625 0.0000 0.0000)">
<path d="M 3606.0000,1088.0000 L 3606.0000,1200.0000 L 4054.0000,1200.0000 L 4054.0000,1088.0000 L 3606.0000,1088.0000 Z" stroke-width="1px" stroke="#800080"  fill="#800080" />
</g>
<g transform="matrix(1.0000 0.0000 0.0000 1.0000 0.0000 0.0000)">
<text font-family="Arial" fill="#000000" style ="white-space:pre;" font-weight="400" text-anchor="start" x="113.0000" y="90.0000" font-size="12.0000" ><![CDATA[b9 - 545.2706++]]></text>
</g>
<g transform="matrix(0.0625 0.0000 0.0000 0.0625 0.0000 0.0000)">
<path d="M 1205.0000,1312.0000 L 1205.0000,1424.0000 L 1653.0000,1424.0000 L 1653.0000,1312.0000 L 1205.0000,1312.0000 Z" stroke-width="1px" stroke="#32CD32"  fill="#32CD32" />
</g>
<g transform="matrix(1.0000 0.0000 0.0000 1.0000 0.0000 0.0000)">
</g>
<g transform="matrix(0.0625 0.0000 0.0000 0.0625 0.0000 0.0000)">
<path d="M 1149.0000,312.0000 L 5952.0000,312.0000 L 5952.0000,1512.0000 L 1149.0000,1512.0000 Z" stroke="#000000" stroke-width="16.0000"  stroke-linecap="butt"  stroke-linejoin="miter"  stroke-miterlimit="10.0000" fill="none" />
</g>
<g transform="matrix(1.0000 0.0000 0.0000 1.0000 0.0000 0.0000)">
<defs><clipPath id="clip-26500"><path d="M 72.0000,102.0000 L 387.0000,102.0000 L 387.0000,301.0000 L 72.0000,301.0000 L 72.0000,102.0000 Z Z" /></clipPath></defs>
</g>
<g transform="matrix(0.0625 0.0000 0.0000 0.0625 0.0000 0.0000)">
<path  clip-path="url(#clip-26500)" d="M 2825.0000,1625.0000 L 4485.0000,1625.0000 L 4485.0000,4809.0000 L 2825.0000,4809.0000 Z" stroke="#000000" stroke-width="16.0000"  stroke-linecap="butt"  stroke-linejoin="miter"  stroke-miterlimit="10.0000" fill="none" />
</g>
<g transform="matrix(1.0000 0.0000 0.0000 1.0000 0.0000 0.0000)">
</g>
</g>
</svg>
